<?xml version="1.0" encoding="utf-8"?>
<!-- Generator: Adobe Illustrator 18.0.0, SVG Export Plug-In . SVG Version: 6.00 Build 0)  -->
<!DOCTYPE svg PUBLIC "-//W3C//DTD SVG 1.1//EN" "http://www.w3.org/Graphics/SVG/1.1/DTD/svg11.dtd">
<svg version="1.1" id="Layer_1" xmlns="http://www.w3.org/2000/svg" xmlns:xlink="http://www.w3.org/1999/xlink" x="0px" y="0px"
	 viewBox="0 0 1224 3489" enable-background="new 0 0 1224 3489" xml:space="preserve">
<g id="Pre-spill">
	<g>
		<linearGradient id="SVGID_1_" gradientUnits="userSpaceOnUse" x1="141.4501" y1="829.4073" x2="211.6262" y2="835.6052">
			<stop  offset="0" style="stop-color:#6D6E71;stop-opacity:0"/>
			<stop  offset="1" style="stop-color:#6D6E71"/>
		</linearGradient>
		<path fill="url(#SVGID_1_)" d="M200.7,820.3c-12.5,0-24.1,1-33.7,2.6c-1.5-0.3-2.9-0.9-2.9-1.9c-0.1-2.4,4-3.3,2.6-4.9
			c-1.4-1.6-3.4,1.6-5.6,1.8c-2.2,0.2-2.6-1-7.6-1.7c-5-0.7-4.2,2.7-5,4.1c-0.8,1.4-3.6,1.4-5.8,1.8c-2.2,0.4,1.8,2.8,4.8,2.8
			c2.2,0,5.4,0.3,7.3,0.8c-8.4,2.5-13.4,5.7-13.4,9.3c0,8.1,26.5,14.6,59.3,14.6S260,843.1,260,835S233.4,820.3,200.7,820.3z"/>
		<g>
			<path fill="#39B54A" d="M264.4,821.8c-0.2-8.6-3.5-16.1-8.9-22.7c-4.4-5.5-9.8-9.8-16.3-12.7c-0.1,0-0.2-0.1-0.3-0.1
				c-1.8-0.9-6.1-2.9-5.8-8.7l0,0c0-0.2,0-0.3,0-0.5c0-1.4,0.1-2.8,0.3-4.2c0.6-4.1,2-7.9,3.9-11.5c0.4-0.8,0.6-1.7,0.7-2.6
				c0.1-1.4-0.7-2.3-2.1-2.5c-1.6-0.2-3,0.3-4.4,1c-0.7,0.4-1.4,0.9-2.2,1.2c-1.6,0.7-2.7,0.3-3.4-1.3c-0.2-0.5-0.4-1-0.6-1.5
				c-0.4-0.8-0.8-1.6-1.4-2.3c-2-2.5-5.1-2.5-7.1-0.1c-0.7,0.8-1.2,1.8-1.5,2.8c-0.7,1.9-1.9,3.1-3.9,3.3c-1.4,0.2-2.8,0.2-4.2,0.2
				c-1,0-1.9-0.1-2.9-0.1c-2.8,0.1-4,2.2-2.8,4.7c0.2,0.5,0.5,1,0.7,1.5c1.8,4.2,3.6,8.4,5.3,12.6c0.2,0.6,0.6,1.1,1,1.5
				c1.2,3.6-1.2,4.1-1.6,4.3c-10,3.2-18,9.2-24.3,17.5c-2.9,3.9-5.1,8.2-6.3,13c-1.2,4.4-1.2,8.7-0.7,13.2c0.4,3,1.2,5.9,2.7,8.6
				c2.3,4,5.9,6.4,10,8c4.4,1.7,9,2.6,13.7,3c5.9,0.5,11.8,0.7,17.1,1c6-0.3,11.4-0.4,16.7-0.8c5-0.4,10-1.2,14.8-3
				c5.8-2.2,10.1-5.9,12-12C264.2,829,264.5,825.4,264.4,821.8z"/>
			<path d="M219.5,849.7L219.5,849.7c-1.6-0.1-3.2-0.2-4.9-0.3c-4-0.2-8.2-0.4-12.3-0.8c-5.2-0.4-9.8-1.4-14-3.1
				c-5-2-8.4-4.8-10.7-8.6c-1.5-2.5-2.4-5.5-2.9-9.1c-0.6-5-0.4-9.5,0.7-13.7c1.3-4.8,3.5-9.3,6.6-13.4c6.6-8.8,15-14.9,24.9-18
				c0.4-0.1,0.6-0.2,0.8-0.5c0.2-0.4,0.2-1,0-1.8c-0.4-0.5-0.7-1-1-1.7c-1.3-3.1-2.6-6.3-3.9-9.4c-0.5-1.1-0.9-2.1-1.4-3.2
				c-0.1-0.3-0.3-0.6-0.4-0.9c-0.1-0.2-0.2-0.4-0.3-0.6c-0.8-1.6-0.8-3.3,0-4.5c0.8-1.3,2.2-2,4-2.1c0.6,0,1.1,0,1.6,0
				c0.4,0,0.8,0,1.2,0l0.6,0c1.2,0,2.3-0.1,3.5-0.2c1.4-0.2,2.3-1,2.8-2.5c0.5-1.3,1.1-2.4,1.8-3.2c1.2-1.5,2.8-2.3,4.5-2.3
				c0,0,0,0,0.1,0c1.7,0,3.4,0.9,4.6,2.4c0.5,0.7,0.9,1.4,1.3,2.1l0.2,0.4c0.2,0.3,0.3,0.7,0.4,1c0.1,0.2,0.1,0.4,0.2,0.6
				c0.4,1,0.7,1.1,1.7,0.7c0.4-0.2,0.9-0.5,1.4-0.7c0.2-0.1,0.5-0.3,0.7-0.4c1.8-1,3.5-1.4,5.2-1.2c2.1,0.3,3.4,1.8,3.3,3.9
				c-0.1,1.1-0.4,2.2-0.8,3.1c-2,3.9-3.2,7.6-3.8,11.1c-0.2,1.4-0.3,2.7-0.3,3.9c0,0.2,0,0.5,0,0.7c-0.3,4.7,3.1,6.4,4.9,7.3
				l0.3,0.2c6.6,3,12.2,7.4,16.7,13.1c6,7.5,9,15.1,9.2,23.5l0,0c0.1,4.2-0.4,7.8-1.4,11.1c-1.9,6.1-6.1,10.3-12.8,12.9
				c-4.4,1.7-9.3,2.7-15.2,3.1c-3.7,0.3-7.4,0.4-11.3,0.6C223.2,849.6,221.4,849.7,219.5,849.7L219.5,849.7z M205,760.8
				c-0.1,0-0.2,0-0.3,0c-0.9,0-1.5,0.3-1.8,0.8c-0.3,0.5-0.2,1.2,0.1,2c0.1,0.2,0.2,0.3,0.3,0.5c0.2,0.4,0.4,0.7,0.5,1.1
				c0.4,1.1,0.9,2.1,1.4,3.2c1.3,3.1,2.7,6.3,4,9.4c0.2,0.4,0.4,0.8,0.7,1.1l0.2,0.2l0.1,0.3c0.5,1.6,0.5,3-0.1,4.1
				c-0.5,0.9-1.3,1.5-2.3,1.8c-9.5,3-17.4,8.7-23.6,17.1c-2.9,3.9-4.9,8.1-6.1,12.5c-1,3.8-1.2,8-0.6,12.7c0.4,3.2,1.2,5.8,2.6,8.1
				c2,3.3,4.9,5.7,9.4,7.4c4,1.6,8.3,2.5,13.3,2.9c4.1,0.3,8.3,0.5,12.3,0.8c1.6,0.1,3.2,0.2,4.8,0.3c1.8-0.1,3.6-0.2,5.4-0.2
				c3.9-0.2,7.6-0.3,11.2-0.6c5.7-0.4,10.3-1.4,14.4-3c5.9-2.2,9.6-5.9,11.2-11.2c0.9-3,1.4-6.4,1.3-10.2v0
				c-0.2-7.7-3-14.9-8.6-21.9c-4.3-5.3-9.6-9.5-15.8-12.3c-0.1,0-0.2-0.1-0.2-0.1l-0.2-0.1c-2-1-6.8-3.4-6.4-9.9c0-0.2,0-0.3,0-0.4
				c0-1.4,0.1-2.9,0.3-4.4c0.6-3.8,1.9-7.7,4-11.9c0.3-0.6,0.5-1.4,0.6-2.1c0-0.5,0-0.9-0.9-1.1c-1.1-0.1-2.2,0.1-3.6,0.9
				c-0.2,0.1-0.4,0.2-0.6,0.4c-0.5,0.3-1.1,0.6-1.7,0.9c-2.3,1-4.1,0.3-5.2-2c-0.1-0.2-0.2-0.5-0.3-0.7c-0.1-0.2-0.2-0.5-0.3-0.7
				l-0.2-0.4c-0.3-0.6-0.6-1.2-1-1.7c-0.7-0.9-1.6-1.4-2.5-1.4c-0.9,0-1.8,0.4-2.5,1.3c-0.5,0.6-0.9,1.4-1.3,2.4
				c-0.9,2.4-2.6,3.9-5,4.2c-1.3,0.2-2.5,0.2-3.8,0.2l-0.6,0c-0.5,0-1,0-1.5,0C205.7,760.8,205.3,760.8,205,760.8z"/>
		</g>
		<path opacity="0.51" fill="#A7A9AC" d="M211.2,781.2c0,0-5.2-11.6-6.1-14.1s-3-5.5-1.6-5.8c1.3-0.3,4.9-0.1,6.9,0s4.9-0.3,5.5-1.6
			c0.6-1.3,2.3-5.2,4,0c1.7,5.2,1.1,10.8,2.1,15c1,4.2,1.7,7.9,1.7,7.9s-4.2-3.7-5.7-7c-1.5-3.3-7.4-9.8-6-2.7
			c1.4,7.2,7.4,9.8,7.4,9.8S213.2,782.4,211.2,781.2z"/>
		<linearGradient id="SVGID_2_" gradientUnits="userSpaceOnUse" x1="175.6195" y1="799.8931" x2="264.4439" y2="799.8931">
			<stop  offset="0" style="stop-color:#39B54A;stop-opacity:0"/>
			<stop  offset="1.641512e-02" style="stop-color:#3DB649;stop-opacity:1.641512e-02"/>
			<stop  offset="0.5039" style="stop-color:#A4DD22;stop-opacity:0.5039"/>
			<stop  offset="0.8417" style="stop-color:#E6F609;stop-opacity:0.8417"/>
			<stop  offset="1" style="stop-color:#FFFF00"/>
		</linearGradient>
		<path opacity="0.4" fill="url(#SVGID_2_)" d="M264.4,821.8c-0.2-8.6-3.5-16.1-8.9-22.7c-4.4-5.5-9.8-9.8-16.3-12.7
			c-0.1,0-0.2-0.1-0.3-0.1c-1.8-0.9-6.1-2.9-5.8-8.7l0,0c0-0.2,0-0.3,0-0.5c0-1.4,0.1-2.8,0.3-4.2c0.6-4.1,2-7.9,3.9-11.5
			c0.4-0.8,0.6-1.7,0.7-2.6c0.1-1.4-0.7-2.3-2.1-2.5c-1.6-0.2-3,0.3-4.4,1c-0.7,0.4-1.4,0.9-2.2,1.2c-1.6,0.7-2.7,0.3-3.4-1.3
			c-0.2-0.5-0.4-1-0.6-1.5c-0.4-0.8-0.8-1.6-1.4-2.3c-2-2.5-5.1-2.5-7.1-0.1c-0.7,0.8-1.2,1.8-1.5,2.8c-0.7,1.9-1.9,3.1-3.9,3.3
			c-1.4,0.2-2.8,0.2-4.2,0.2c-1,0-1.9-0.1-2.9-0.1c-2.8,0.1-4,2.2-2.8,4.7c0.2,0.5,0.5,1,0.7,1.5c1.8,4.2,3.6,8.4,5.3,12.6
			c0.2,0.6,0.6,1.1,1,1.5c1.2,3.6-1.2,4.1-1.6,4.3c-10,3.2-18,9.2-24.3,17.5c-2.9,3.9-5.1,8.2-6.3,13c-1.2,4.4-1.2,8.7-0.7,13.2
			c0.4,3,1.2,5.9,2.7,8.6c2.3,4,5.9,6.4,10,8c4.4,1.7,9,2.6,13.7,3c5.9,0.5,11.8,0.7,17.1,1c6-0.3,11.4-0.4,16.7-0.8
			c5-0.4,10-1.2,14.8-3c5.8-2.2,10.1-5.9,12-12C264.2,829,264.5,825.4,264.4,821.8z"/>
		<path opacity="0.51" fill="#A7A9AC" d="M221.8,788.2c0,0-10.2,4.4-15.3,9.5c-5.1,5.1-9.9,11.2-8.1,21.3c1.8,10,7.1,18,15,20.5
			s30.4,5.7,14.4,6.3s-19.4,1.8-36.8-2.5s-13.2-27.1-13.2-27.1s4.1-13.4,13.9-21.6c9.8-8.2,17.9-9.6,17.9-9.6
			S216.6,788.2,221.8,788.2z"/>
		<g>
			<path fill="#FFFFFF" d="M218.2,830.9v-3.6c-4.9-0.8-7.7-3.2-7.9-8.5h5.1c-0.2,1.6,0.8,4,2.8,4.3v-8.8c-5.4-2.5-7.4-4.8-7.4-8.4
				c0-3.8,3-6.8,7.4-7.1V797h2.9v1.8c5.1,0.4,7.9,3.5,7.9,7.6h-5.1c-0.3-2.2-1.1-3.2-2.8-3.4v6.9c5.3,2.1,9.1,4.3,9.1,9.6
				c0,4.6-3.7,7.8-9.1,7.9v3.6H218.2z M218.2,803c-1.6,0.3-2.3,1.1-2.3,2.4c0,1.2,0.5,1.9,2.3,3V803z M225.1,819.8
				c0-1.8-1.4-3.3-4.1-4.3v7.7C223.6,823.2,225.1,821.7,225.1,819.8z"/>
		</g>
		<path d="M209.7,779.2c0,0,0.6,1.5,7.1,2.6c6.5,1.1,15.2-2.6,15.2-2.6s1.1-1,2.7-0.5s3.2,2.5,1.6,4c-1.6,1.5-4.4,3.9-7.7,4.5
			c-3.3,0.6-11.3-0.3-16.4-2c-5.1-1.6-6.8-3-6.7-4.4C205.5,779.5,208.1,778.1,209.7,779.2z"/>
	</g>
</g>
</svg>
