<?xml version="1.0" encoding="utf-8"?>
<!-- Generator: Adobe Illustrator 18.0.0, SVG Export Plug-In . SVG Version: 6.00 Build 0)  -->
<!DOCTYPE svg PUBLIC "-//W3C//DTD SVG 1.1//EN" "http://www.w3.org/Graphics/SVG/1.1/DTD/svg11.dtd">
<svg version="1.1" id="Layer_1" xmlns="http://www.w3.org/2000/svg" xmlns:xlink="http://www.w3.org/1999/xlink" x="0px" y="0px"
	 viewBox="0 0 277.9 792" enable-background="new 0 0 277.9 792" xml:space="preserve">
<g id="Pre-spill">
	<g>
		
			<linearGradient id="SVGID_1_" gradientUnits="userSpaceOnUse" x1="959.4604" y1="-43.3941" x2="1029.6366" y2="-49.592" gradientTransform="matrix(0.227 0 0 -0.227 3.652954e-02 179.7833)">
			<stop  offset="0" style="stop-color:#6D6E71;stop-opacity:0"/>
			<stop  offset="1" style="stop-color:#6D6E71"/>
		</linearGradient>
		<path fill="url(#SVGID_1_)" d="M231.3,187.6c-2.8,0-5.5,0.2-7.6,0.6c-0.3-0.1-0.7-0.2-0.7-0.4c0-0.5,0.9-0.7,0.6-1.1
			c-0.3-0.4-0.8,0.4-1.3,0.4c-0.5,0-0.6-0.2-1.7-0.4c-1.1-0.2-1,0.6-1.1,0.9c-0.2,0.3-0.8,0.3-1.3,0.4c-0.5,0.1,0.4,0.6,1.1,0.6
			c0.5,0,1.2,0.1,1.7,0.2c-1.9,0.6-3,1.3-3,2.1c0,1.8,6,3.3,13.5,3.3c7.4,0,13.5-1.5,13.5-3.3S238.7,187.6,231.3,187.6z"/>
		<g>
			<path fill="#39B54A" d="M245.7,187.9c0-2-0.8-3.7-2-5.2c-1-1.2-2.2-2.2-3.7-2.9c0,0,0,0-0.1,0c-0.4-0.2-1.4-0.7-1.3-2l0,0
				c0,0,0-0.1,0-0.1c0-0.3,0-0.6,0.1-1c0.1-0.9,0.5-1.8,0.9-2.6c0.1-0.2,0.1-0.4,0.2-0.6c0-0.3-0.2-0.5-0.5-0.6
				c-0.4,0-0.7,0.1-1,0.2c-0.2,0.1-0.3,0.2-0.5,0.3c-0.4,0.2-0.6,0.1-0.8-0.3c0-0.1-0.1-0.2-0.1-0.3c-0.1-0.2-0.2-0.4-0.3-0.5
				c-0.5-0.6-1.2-0.6-1.6,0c-0.2,0.2-0.3,0.4-0.3,0.6c-0.2,0.4-0.4,0.7-0.9,0.7c-0.3,0-0.6,0-1,0c-0.2,0-0.4,0-0.7,0
				c-0.6,0-0.9,0.5-0.6,1.1c0,0.1,0.1,0.2,0.2,0.3c0.4,1,0.8,1.9,1.2,2.9c0,0.1,0.1,0.2,0.2,0.3c0.3,0.8-0.3,0.9-0.4,1
				c-2.3,0.7-4.1,2.1-5.5,4c-0.7,0.9-1.2,1.9-1.4,3c-0.3,1-0.3,2-0.2,3c0.1,0.7,0.3,1.3,0.6,2c0.5,0.9,1.3,1.5,2.3,1.8
				c1,0.4,2,0.6,3.1,0.7c1.3,0.1,2.7,0.2,3.9,0.2c1.4-0.1,2.6-0.1,3.8-0.2c1.1-0.1,2.3-0.3,3.4-0.7c1.3-0.5,2.3-1.3,2.7-2.7
				C245.7,189.5,245.8,188.7,245.7,187.9z"/>
			<path d="M235.5,194.2L235.5,194.2c-0.4,0-0.7,0-1.1-0.1c-0.9,0-1.9-0.1-2.8-0.2c-1.2-0.1-2.2-0.3-3.2-0.7c-1.1-0.5-1.9-1.1-2.4-2
				c-0.3-0.6-0.5-1.2-0.7-2.1c-0.1-1.1-0.1-2.2,0.2-3.1c0.3-1.1,0.8-2.1,1.5-3c1.5-2,3.4-3.4,5.7-4.1c0.1,0,0.1,0,0.2-0.1
				c0-0.1,0-0.2,0-0.4c-0.1-0.1-0.2-0.2-0.2-0.4c-0.3-0.7-0.6-1.4-0.9-2.1c-0.1-0.2-0.2-0.5-0.3-0.7c0-0.1-0.1-0.1-0.1-0.2
				c0,0,0-0.1-0.1-0.1c-0.2-0.4-0.2-0.7,0-1c0.2-0.3,0.5-0.5,0.9-0.5c0.1,0,0.2,0,0.4,0c0.1,0,0.2,0,0.3,0h0.1c0.3,0,0.5,0,0.8,0
				c0.3,0,0.5-0.2,0.6-0.6c0.1-0.3,0.2-0.5,0.4-0.7c0.3-0.3,0.6-0.5,1-0.5c0,0,0,0,0,0c0.4,0,0.8,0.2,1,0.5c0.1,0.2,0.2,0.3,0.3,0.5
				l0,0.1c0,0.1,0.1,0.2,0.1,0.2c0,0,0,0.1,0,0.1c0.1,0.2,0.2,0.2,0.4,0.2c0.1,0,0.2-0.1,0.3-0.2c0,0,0.1-0.1,0.2-0.1
				c0.4-0.2,0.8-0.3,1.2-0.3c0.5,0.1,0.8,0.4,0.7,0.9c0,0.2-0.1,0.5-0.2,0.7c-0.5,0.9-0.7,1.7-0.9,2.5c0,0.3-0.1,0.6-0.1,0.9
				c0,0,0,0.1,0,0.2c-0.1,1.1,0.7,1.5,1.1,1.7l0.1,0c1.5,0.7,2.8,1.7,3.8,3c1.4,1.7,2,3.4,2.1,5.3l0,0c0,1-0.1,1.8-0.3,2.5
				c-0.4,1.4-1.4,2.3-2.9,2.9c-1,0.4-2.1,0.6-3.5,0.7c-0.8,0.1-1.7,0.1-2.6,0.1C236.4,194.2,236,194.2,235.5,194.2L235.5,194.2z
				 M232.3,174.1C232.2,174.1,232.2,174.1,232.3,174.1c-0.3,0-0.4,0.1-0.5,0.2c-0.1,0.1,0,0.3,0,0.5c0,0,0,0.1,0.1,0.1
				c0,0.1,0.1,0.2,0.1,0.2c0.1,0.2,0.2,0.5,0.3,0.7c0.3,0.7,0.6,1.4,0.9,2.1c0,0.1,0.1,0.2,0.2,0.2l0,0l0,0.1c0.1,0.4,0.1,0.7,0,0.9
				c-0.1,0.2-0.3,0.3-0.5,0.4c-2.2,0.7-3.9,2-5.4,3.9c-0.7,0.9-1.1,1.8-1.4,2.8c-0.2,0.9-0.3,1.8-0.1,2.9c0.1,0.7,0.3,1.3,0.6,1.8
				c0.5,0.7,1.1,1.3,2.1,1.7c0.9,0.4,1.9,0.6,3,0.7c0.9,0.1,1.9,0.1,2.8,0.2c0.4,0,0.7,0,1.1,0.1c0.4,0,0.8,0,1.2,0
				c0.9,0,1.7-0.1,2.5-0.1c1.3-0.1,2.3-0.3,3.3-0.7c1.3-0.5,2.2-1.3,2.5-2.5c0.2-0.7,0.3-1.5,0.3-2.3l0,0c0-1.7-0.7-3.4-2-5
				c-1-1.2-2.2-2.2-3.6-2.8c0,0,0,0,0,0l0,0c-0.5-0.2-1.5-0.8-1.5-2.2c0,0,0-0.1,0-0.1c0-0.3,0-0.7,0.1-1c0.1-0.9,0.4-1.7,0.9-2.7
				c0.1-0.1,0.1-0.3,0.1-0.5c0-0.1,0-0.2-0.2-0.2c-0.2,0-0.5,0-0.8,0.2c0,0-0.1,0-0.1,0.1c-0.1,0.1-0.2,0.1-0.4,0.2
				c-0.5,0.2-0.9,0.1-1.2-0.5c0,0,0-0.1-0.1-0.2c0,0,0-0.1-0.1-0.2l0-0.1c-0.1-0.1-0.1-0.3-0.2-0.4c-0.2-0.2-0.4-0.3-0.6-0.3
				c-0.2,0-0.4,0.1-0.6,0.3c-0.1,0.1-0.2,0.3-0.3,0.5c-0.2,0.5-0.6,0.9-1.1,1c-0.3,0-0.6,0-0.9,0h-0.1c-0.1,0-0.2,0-0.3,0
				C232.4,174.1,232.3,174.1,232.3,174.1z"/>
		</g>
		<path opacity="0.51" fill="#A7A9AC" enable-background="new    " d="M233.7,178.7c0,0-1.2-2.6-1.4-3.2c-0.2-0.6-0.7-1.2-0.4-1.3
			c0.3-0.1,1.1,0,1.6,0c0.5,0,1.1-0.1,1.2-0.4c0.1-0.3,0.5-1.2,0.9,0c0.4,1.2,0.2,2.5,0.5,3.4c0.2,1,0.4,1.8,0.4,1.8s-1-0.8-1.3-1.6
			s-1.7-2.2-1.4-0.6c0.3,1.6,1.7,2.2,1.7,2.2S234.1,179,233.7,178.7z"/>
		
			<linearGradient id="SVGID_2_" gradientUnits="userSpaceOnUse" x1="993.6195" y1="-13.9562" x2="1082.444" y2="-13.9562" gradientTransform="matrix(0.227 0 0 -0.227 3.652954e-02 179.7833)">
			<stop  offset="0" style="stop-color:#39B54A;stop-opacity:0"/>
			<stop  offset="1.641512e-02" style="stop-color:#3DB649;stop-opacity:1.641512e-02"/>
			<stop  offset="0.5039" style="stop-color:#A4DD22;stop-opacity:0.5039"/>
			<stop  offset="0.8417" style="stop-color:#E6F609;stop-opacity:0.8417"/>
			<stop  offset="1" style="stop-color:#FFFF00"/>
		</linearGradient>
		<path opacity="0.4" fill="url(#SVGID_2_)" enable-background="new    " d="M245.7,187.9c0-2-0.8-3.7-2-5.2c-1-1.2-2.2-2.2-3.7-2.9
			c0,0,0,0-0.1,0c-0.4-0.2-1.4-0.7-1.3-2l0,0c0,0,0-0.1,0-0.1c0-0.3,0-0.6,0.1-1c0.1-0.9,0.5-1.8,0.9-2.6c0.1-0.2,0.1-0.4,0.2-0.6
			c0-0.3-0.2-0.5-0.5-0.6c-0.4,0-0.7,0.1-1,0.2c-0.2,0.1-0.3,0.2-0.5,0.3c-0.4,0.2-0.6,0.1-0.8-0.3c0-0.1-0.1-0.2-0.1-0.3
			c-0.1-0.2-0.2-0.4-0.3-0.5c-0.5-0.6-1.2-0.6-1.6,0c-0.2,0.2-0.3,0.4-0.3,0.6c-0.2,0.4-0.4,0.7-0.9,0.7c-0.3,0-0.6,0-1,0
			c-0.2,0-0.4,0-0.7,0c-0.6,0-0.9,0.5-0.6,1.1c0,0.1,0.1,0.2,0.2,0.3c0.4,1,0.8,1.9,1.2,2.9c0,0.1,0.1,0.2,0.2,0.3
			c0.3,0.8-0.3,0.9-0.4,1c-2.3,0.7-4.1,2.1-5.5,4c-0.7,0.9-1.2,1.9-1.4,3c-0.3,1-0.3,2-0.2,3c0.1,0.7,0.3,1.3,0.6,2
			c0.5,0.9,1.3,1.5,2.3,1.8c1,0.4,2,0.6,3.1,0.7c1.3,0.1,2.7,0.2,3.9,0.2c1.4-0.1,2.6-0.1,3.8-0.2c1.1-0.1,2.3-0.3,3.4-0.7
			c1.3-0.5,2.3-1.3,2.7-2.7C245.7,189.5,245.8,188.7,245.7,187.9z"/>
		<path opacity="0.51" fill="#A7A9AC" enable-background="new    " d="M236.1,180.3c0,0-2.3,1-3.5,2.2c-1.2,1.2-2.2,2.5-1.8,4.8
			c0.4,2.3,1.6,4.1,3.4,4.7c1.8,0.6,6.9,1.3,3.3,1.4c-3.6,0.1-4.4,0.4-8.4-0.6c-3.9-1-3-6.2-3-6.2s0.9-3,3.2-4.9
			c2.2-1.9,4.1-2.2,4.1-2.2S234.9,180.3,236.1,180.3z"/>
		<g>
			<path fill="#FFFFFF" d="M235.3,190v-0.8c-1.1-0.2-1.7-0.7-1.8-1.9h1.2c0,0.4,0.2,0.9,0.6,1v-2c-1.2-0.6-1.7-1.1-1.7-1.9
				c0-0.9,0.7-1.5,1.7-1.6v-0.4h0.7v0.4c1.2,0.1,1.8,0.8,1.8,1.7h-1.2c-0.1-0.5-0.2-0.7-0.6-0.8v1.6c1.2,0.5,2.1,1,2.1,2.2
				c0,1-0.8,1.8-2.1,1.8v0.8L235.3,190L235.3,190z M235.3,183.6c-0.4,0.1-0.5,0.2-0.5,0.5c0,0.3,0.1,0.4,0.5,0.7V183.6z
				 M236.8,187.5c0-0.4-0.3-0.7-0.9-1v1.7C236.5,188.2,236.8,187.9,236.8,187.5z"/>
		</g>
		<path d="M233.3,178.2c0,0,0.1,0.3,1.6,0.6s3.5-0.6,3.5-0.6s0.2-0.2,0.6-0.1c0.4,0.1,0.7,0.6,0.4,0.9c-0.4,0.3-1,0.9-1.7,1
			c-0.7,0.1-2.6-0.1-3.7-0.5c-1.2-0.4-1.5-0.7-1.5-1C232.4,178.3,233,178,233.3,178.2z"/>
	</g>
</g>
</svg>
