<?xml version="1.0" encoding="utf-8"?>
<!-- Generator: Adobe Illustrator 18.0.0, SVG Export Plug-In . SVG Version: 6.00 Build 0)  -->
<!DOCTYPE svg PUBLIC "-//W3C//DTD SVG 1.1//EN" "http://www.w3.org/Graphics/SVG/1.1/DTD/svg11.dtd">
<svg version="1.1" id="Layer_1" xmlns="http://www.w3.org/2000/svg" xmlns:xlink="http://www.w3.org/1999/xlink" x="0px" y="0px"
	 viewBox="0 0 277.9 792" enable-background="new 0 0 277.9 792" xml:space="preserve">
<g id="Pre-spill">
	<g>
		
			<linearGradient id="SVGID_1_" gradientUnits="userSpaceOnUse" x1="20.3348" y1="-270.8203" x2="147.835" y2="-350.0885" gradientTransform="matrix(0.227 0 0 -0.227 3.652954e-02 179.7833)">
			<stop  offset="0" style="stop-color:#B3B3B3;stop-opacity:0"/>
			<stop  offset="0.9739" style="stop-color:#9A9A9A;stop-opacity:0.9739"/>
			<stop  offset="1" style="stop-color:#999999"/>
		</linearGradient>
		<polygon fill="url(#SVGID_1_)" points="39.1,257.8 25.9,257.7 1.6,248.9 28.2,246.4 		"/>
		<g>
			<polygon fill="#754C24" points="39.1,257.3 22.6,252.9 22.6,242.2 39.1,244.9 			"/>
			<path d="M39.1,257.7C39,257.7,39,257.7,39.1,257.7l-16.5-4.4c-0.2,0-0.3-0.2-0.3-0.4v-10.6c0-0.1,0-0.2,0.2-0.3
				c0.1-0.1,0.2-0.1,0.4-0.1l16.4,2.7c0.2,0,0.4,0.2,0.4,0.4v12.4c0,0.1-0.1,0.2-0.2,0.3C39.2,257.7,39.1,257.7,39.1,257.7z
				 M23.1,252.5l15.6,4.2v-11.4l-15.6-2.5V252.5z"/>
		</g>
		<g>
			<polygon fill="#A67C52" points="39.1,244.9 22.6,242.3 39.3,241.5 55.8,243.4 			"/>
			<path d="M39.1,245.3C39,245.3,39,245.3,39.1,245.3l-16.5-2.6c-0.2,0-0.4-0.2-0.4-0.5c0-0.2,0.2-0.4,0.4-0.4l16.7-0.8
				c0,0,0.1,0,0.1,0l16.4,2c0.2,0,0.4,0.2,0.4,0.4c0,0.2-0.2,0.4-0.4,0.4L39.1,245.3C39.1,245.3,39.1,245.3,39.1,245.3z M26.1,242.4
				l12.9,2l13.4-1L39.3,242L26.1,242.4z"/>
		</g>
		<g>
			<g>
				<polygon fill="#A67C52" points="55.8,254.9 39.1,257.3 39.1,244.9 55.8,243.4 				"/>
				<path d="M39.1,257.7c-0.1,0-0.2,0-0.3-0.1c-0.1-0.1-0.2-0.2-0.2-0.3v-12.4c0-0.2,0.2-0.4,0.4-0.4l16.7-1.5c0.1,0,0.2,0,0.3,0.1
					c0.1,0.1,0.2,0.2,0.2,0.3v11.4c0,0.2-0.2,0.4-0.4,0.4L39.1,257.7C39.1,257.7,39.1,257.7,39.1,257.7z M39.5,245.3v11.5l15.8-2.3
					v-10.6L39.5,245.3z"/>
			</g>
			<g>
				<g>
					<polygon fill="#CCCCCC" points="51.6,255.5 43.2,256.7 43.2,250.1 51.6,248.9 					"/>
					<path d="M43.2,257.1c-0.1,0-0.2,0-0.3-0.1c-0.1-0.1-0.2-0.2-0.2-0.3v-6.6c0-0.2,0.2-0.4,0.4-0.4l8.4-1.2c0.1,0,0.2,0,0.3,0.1
						s0.2,0.2,0.2,0.3v6.6c0,0.2-0.2,0.4-0.4,0.4L43.2,257.1C43.3,257.1,43.3,257.1,43.2,257.1z M43.7,250.4v5.7l7.5-1.1v-5.7
						L43.7,250.4z"/>
				</g>
				<g>
					<path d="M44.7,252.1c-0.2,0-0.4-0.2-0.4-0.4c0-0.2,0.1-0.5,0.4-0.5l5.4-0.8c0.2,0,0.5,0.1,0.5,0.4c0,0.2-0.1,0.5-0.4,0.5
						L44.7,252.1C44.7,252.1,44.7,252.1,44.7,252.1z"/>
				</g>
				<g>
					<path d="M44.7,253.7c-0.2,0-0.4-0.2-0.4-0.4c0-0.2,0.1-0.5,0.4-0.5l5.4-0.8c0.2,0,0.5,0.1,0.5,0.4c0,0.2-0.1,0.5-0.4,0.5
						L44.7,253.7C44.7,253.7,44.7,253.7,44.7,253.7z"/>
				</g>
				<g>
					<path d="M44.7,255.3c-0.2,0-0.4-0.2-0.4-0.4c0-0.2,0.1-0.5,0.4-0.5l5.4-0.8c0.2,0,0.5,0.1,0.5,0.4c0,0.2-0.1,0.5-0.4,0.5
						L44.7,255.3C44.7,255.3,44.7,255.3,44.7,255.3z"/>
				</g>
			</g>
			<g>
				<g>
					<path fill="#FFFFFF" d="M48,247.5c0-0.1,0-0.2-0.1-0.2c-0.1,0-0.2-0.1-0.3-0.1c-0.3-0.1-0.5-0.1-0.6-0.2
						c-0.1-0.1-0.2-0.3-0.2-0.5c0-0.2,0.1-0.4,0.2-0.5c0.1-0.2,0.3-0.2,0.5-0.3v-0.4l0.3,0v0.4c0.2,0,0.4,0.1,0.5,0.2
						c0.1,0.1,0.2,0.3,0.2,0.5l0,0l-0.5,0.1c0-0.1,0-0.2-0.1-0.3c-0.1-0.1-0.1-0.1-0.2-0.1c-0.1,0-0.2,0-0.2,0.1s-0.1,0.2-0.1,0.2
						s0,0.2,0.1,0.2c0,0,0.2,0.1,0.3,0.1c0.3,0.1,0.5,0.2,0.6,0.2c0.1,0.1,0.2,0.3,0.2,0.5c0,0.2-0.1,0.4-0.2,0.5
						c-0.1,0.1-0.3,0.2-0.5,0.3v0.4l-0.3,0v-0.4c-0.2,0-0.4,0-0.6-0.2c-0.2-0.1-0.2-0.3-0.2-0.6l0,0l0.5-0.1c0,0.2,0,0.3,0.1,0.3
						s0.2,0.1,0.3,0.1c0.1,0,0.2-0.1,0.2-0.1C48,247.6,48,247.6,48,247.5z"/>
				</g>
			</g>
		</g>
		
			<linearGradient id="SVGID_2_" gradientUnits="userSpaceOnUse" x1="171.8" y1="-310.85" x2="245.5" y2="-310.85" gradientTransform="matrix(0.227 0 0 -0.227 3.652954e-02 179.7833)">
			<stop  offset="0" style="stop-color:#8C6239;stop-opacity:0"/>
			<stop  offset="0.3934" style="stop-color:#BDA521;stop-opacity:0.3934"/>
			<stop  offset="0.8053" style="stop-color:#ECE609;stop-opacity:0.8053"/>
			<stop  offset="1" style="stop-color:#FFFF00"/>
		</linearGradient>
		<polygon opacity="0.32" fill="url(#SVGID_2_)" enable-background="new    " points="55.7,243.7 55.8,254.9 39.1,257.3 39,244.3 
			55.7,243.4 		"/>
	</g>
</g>
</svg>
