<?xml version="1.0" encoding="utf-8"?>
<!-- Generator: Adobe Illustrator 18.0.0, SVG Export Plug-In . SVG Version: 6.00 Build 0)  -->
<!DOCTYPE svg PUBLIC "-//W3C//DTD SVG 1.1//EN" "http://www.w3.org/Graphics/SVG/1.1/DTD/svg11.dtd">
<svg version="1.1" id="Layer_1" xmlns="http://www.w3.org/2000/svg" xmlns:xlink="http://www.w3.org/1999/xlink" x="0px" y="0px"
	 viewBox="0 0 277.9 792" enable-background="new 0 0 277.9 792" xml:space="preserve">
<g id="Pre-spill">
	<g>
		
			<linearGradient id="SVGID_1_" gradientUnits="userSpaceOnUse" x1="796.3348" y1="-220.8203" x2="923.835" y2="-300.0885" gradientTransform="matrix(0.227 0 0 -0.227 3.652954e-02 179.7833)">
			<stop  offset="0" style="stop-color:#B3B3B3;stop-opacity:0"/>
			<stop  offset="0.9739" style="stop-color:#9A9A9A;stop-opacity:0.9739"/>
			<stop  offset="1" style="stop-color:#999999"/>
		</linearGradient>
		<polygon fill="url(#SVGID_1_)" points="215.2,246.4 202,246.4 177.8,237.5 204.3,235 		"/>
		<g>
			<polygon fill="#754C24" points="215.2,245.9 198.8,241.5 198.8,230.9 215.2,233.5 			"/>
			<path d="M215.2,246.4C215.2,246.4,215.1,246.4,215.2,246.4l-16.5-4.4c-0.2,0-0.3-0.2-0.3-0.4v-10.6c0-0.1,0-0.2,0.2-0.3
				c0.1-0.1,0.2-0.1,0.4-0.1l16.4,2.7c0.2,0,0.4,0.2,0.4,0.4v12.4c0,0.1-0.1,0.2-0.2,0.3C215.4,246.3,215.3,246.4,215.2,246.4z
				 M199.2,241.1l15.6,4.2v-11.4l-15.6-2.5V241.1z"/>
		</g>
		<g>
			<polygon fill="#A67C52" points="215.2,233.5 198.8,230.9 215.5,230.1 231.9,232.1 			"/>
			<path d="M215.2,233.9C215.2,233.9,215.2,233.9,215.2,233.9l-16.5-2.6c-0.2,0-0.4-0.2-0.4-0.5c0-0.2,0.2-0.4,0.4-0.4l16.7-0.8
				c0,0,0.1,0,0.1,0l16.4,2c0.2,0,0.4,0.2,0.4,0.4c0,0.2-0.2,0.4-0.4,0.4L215.2,233.9C215.3,233.9,215.2,233.9,215.2,233.9z
				 M202.3,231.1l12.9,2l13.4-1l-13.1-1.5L202.3,231.1z"/>
		</g>
		<g>
			<g>
				<polygon fill="#A67C52" points="231.9,243.5 215.2,245.9 215.2,233.5 231.9,232.1 				"/>
				<path d="M215.2,246.4c-0.1,0-0.2,0-0.3-0.1c-0.1-0.1-0.2-0.2-0.2-0.3v-12.4c0-0.2,0.2-0.4,0.4-0.4l16.7-1.5c0.1,0,0.2,0,0.3,0.1
					s0.2,0.2,0.2,0.3v11.4c0,0.2-0.2,0.4-0.4,0.4L215.2,246.4C215.3,246.4,215.2,246.4,215.2,246.4z M215.6,233.9v11.5l15.8-2.3
					v-10.6L215.6,233.9z"/>
			</g>
			<g>
				<g>
					<polygon fill="#CCCCCC" points="227.7,244.1 219.4,245.3 219.4,238.7 227.7,237.5 					"/>
					<path d="M219.4,245.7c-0.1,0-0.2,0-0.3-0.1c-0.1-0.1-0.2-0.2-0.2-0.3v-6.6c0-0.2,0.2-0.4,0.4-0.4l8.4-1.2c0.1,0,0.2,0,0.3,0.1
						s0.2,0.2,0.2,0.3v6.6c0,0.2-0.2,0.4-0.4,0.4L219.4,245.7C219.4,245.7,219.4,245.7,219.4,245.7z M219.8,239.1v5.7l7.5-1.1V238
						L219.8,239.1z"/>
				</g>
				<g>
					<path d="M220.9,240.8c-0.2,0-0.4-0.2-0.4-0.4c0-0.2,0.1-0.5,0.4-0.5l5.4-0.8c0.2,0,0.5,0.1,0.5,0.4c0,0.2-0.1,0.5-0.4,0.5
						L220.9,240.8C220.9,240.8,220.9,240.8,220.9,240.8z"/>
				</g>
				<g>
					<path d="M220.9,242.3c-0.2,0-0.4-0.2-0.4-0.4c0-0.2,0.1-0.5,0.4-0.5l5.4-0.8c0.2,0,0.5,0.1,0.5,0.4c0,0.2-0.1,0.5-0.4,0.5
						L220.9,242.3C220.9,242.3,220.9,242.3,220.9,242.3z"/>
				</g>
				<g>
					<path d="M220.9,243.9c-0.2,0-0.4-0.2-0.4-0.4c0-0.2,0.1-0.5,0.4-0.5l5.4-0.8c0.2,0,0.5,0.1,0.5,0.4c0,0.2-0.1,0.5-0.4,0.5
						L220.9,243.9C220.9,243.9,220.9,243.9,220.9,243.9z"/>
				</g>
			</g>
			<g>
				<g>
					<path fill="#FFFFFF" d="M224.2,236.1c0-0.1,0-0.2-0.1-0.2c-0.1,0-0.2-0.1-0.3-0.1c-0.3-0.1-0.5-0.1-0.6-0.2s-0.2-0.3-0.2-0.5
						c0-0.2,0.1-0.4,0.2-0.5c0.1-0.2,0.3-0.2,0.5-0.3v-0.4l0.3,0v0.4c0.2,0,0.4,0.1,0.5,0.2c0.1,0.1,0.2,0.3,0.2,0.5l0,0l-0.5,0.1
						c0-0.1,0-0.2-0.1-0.3c-0.1-0.1-0.1-0.1-0.2-0.1c-0.1,0-0.2,0-0.2,0.1c0,0.1-0.1,0.2-0.1,0.2s0,0.2,0.1,0.2c0,0,0.2,0.1,0.3,0.1
						c0.3,0.1,0.5,0.2,0.6,0.2c0.1,0.1,0.2,0.3,0.2,0.5c0,0.2-0.1,0.4-0.2,0.5c-0.1,0.1-0.3,0.2-0.5,0.3v0.4l-0.3,0v-0.4
						c-0.2,0-0.4,0-0.6-0.2c-0.2-0.1-0.2-0.3-0.2-0.6l0,0l0.5-0.1c0,0.2,0,0.3,0.1,0.3c0.1,0.1,0.2,0.1,0.3,0.1
						c0.1,0,0.2-0.1,0.2-0.1C224.1,236.3,224.2,236.2,224.2,236.1z"/>
				</g>
			</g>
		</g>
		
			<linearGradient id="SVGID_2_" gradientUnits="userSpaceOnUse" x1="947.8" y1="-260.85" x2="1021.5" y2="-260.85" gradientTransform="matrix(0.227 0 0 -0.227 3.652954e-02 179.7833)">
			<stop  offset="0" style="stop-color:#8C6239;stop-opacity:0"/>
			<stop  offset="0.3934" style="stop-color:#BDA521;stop-opacity:0.3934"/>
			<stop  offset="0.8053" style="stop-color:#ECE609;stop-opacity:0.8053"/>
			<stop  offset="1" style="stop-color:#FFFF00"/>
		</linearGradient>
		<polygon opacity="0.32" fill="url(#SVGID_2_)" enable-background="new    " points="231.8,232.3 231.9,243.5 215.2,245.9 
			215.2,232.9 231.8,232.1 		"/>
	</g>
</g>
</svg>
