<?xml version="1.0" encoding="utf-8"?>
<!-- Generator: Adobe Illustrator 18.0.0, SVG Export Plug-In . SVG Version: 6.00 Build 0)  -->
<!DOCTYPE svg PUBLIC "-//W3C//DTD SVG 1.1//EN" "http://www.w3.org/Graphics/SVG/1.1/DTD/svg11.dtd">
<svg version="1.1" id="Layer_1" xmlns="http://www.w3.org/2000/svg" xmlns:xlink="http://www.w3.org/1999/xlink" x="0px" y="0px"
	 viewBox="0 0 277.9 792" enable-background="new 0 0 277.9 792" xml:space="preserve">
<g id="Pre-spill">
	<g>
		
			<linearGradient id="SVGID_1_" gradientUnits="userSpaceOnUse" x1="133.3348" y1="-244.8203" x2="260.835" y2="-324.0885" gradientTransform="matrix(0.227 0 0 -0.227 3.652954e-02 179.7833)">
			<stop  offset="0" style="stop-color:#B3B3B3;stop-opacity:0"/>
			<stop  offset="0.9739" style="stop-color:#9A9A9A;stop-opacity:0.9739"/>
			<stop  offset="1" style="stop-color:#999999"/>
		</linearGradient>
		<polygon fill="url(#SVGID_1_)" points="64.7,251.9 51.5,251.8 27.3,243 53.8,240.5 		"/>
		<g>
			<polygon fill="#754C24" points="64.7,251.4 48.3,247 48.3,236.3 64.7,239 			"/>
			<path d="M64.7,251.8C64.7,251.8,64.6,251.8,64.7,251.8l-16.5-4.4c-0.2,0-0.3-0.2-0.3-0.4v-10.6c0-0.1,0-0.2,0.2-0.3
				c0.1-0.1,0.2-0.1,0.4-0.1l16.4,2.7c0.2,0,0.4,0.2,0.4,0.4v12.4c0,0.1-0.1,0.2-0.2,0.3C64.9,251.8,64.8,251.8,64.7,251.8z
				 M48.7,246.6l15.6,4.2v-11.4l-15.6-2.5V246.6z"/>
		</g>
		<g>
			<polygon fill="#A67C52" points="64.7,239 48.3,236.4 65,235.6 81.4,237.5 			"/>
			<path d="M64.7,239.4C64.7,239.4,64.7,239.4,64.7,239.4l-16.5-2.6c-0.2,0-0.4-0.2-0.4-0.5c0-0.2,0.2-0.4,0.4-0.4l16.7-0.8
				c0,0,0.1,0,0.1,0l16.4,2c0.2,0,0.4,0.2,0.4,0.4c0,0.2-0.2,0.4-0.4,0.4L64.7,239.4C64.8,239.4,64.7,239.4,64.7,239.4z M51.8,236.5
				l12.9,2l13.4-1L65,236.1L51.8,236.5z"/>
		</g>
		<g>
			<g>
				<polygon fill="#A67C52" points="81.4,248.9 64.7,251.4 64.7,239 81.4,237.5 				"/>
				<path d="M64.7,251.8c-0.1,0-0.2,0-0.3-0.1c-0.1-0.1-0.2-0.2-0.2-0.3V239c0-0.2,0.2-0.4,0.4-0.4l16.7-1.5c0.1,0,0.2,0,0.3,0.1
					s0.2,0.2,0.2,0.3V249c0,0.2-0.2,0.4-0.4,0.4L64.7,251.8C64.8,251.8,64.7,251.8,64.7,251.8z M65.1,239.4v11.5l15.8-2.3V238
					L65.1,239.4z"/>
			</g>
			<g>
				<g>
					<polygon fill="#CCCCCC" points="77.2,249.6 68.9,250.8 68.9,244.2 77.2,243 					"/>
					<path d="M68.9,251.2c-0.1,0-0.2,0-0.3-0.1c-0.1-0.1-0.2-0.2-0.2-0.3v-6.6c0-0.2,0.2-0.4,0.4-0.4l8.4-1.2c0.1,0,0.2,0,0.3,0.1
						s0.2,0.2,0.2,0.3v6.6c0,0.2-0.2,0.4-0.4,0.4L68.9,251.2C68.9,251.2,68.9,251.2,68.9,251.2z M69.3,244.5v5.7l7.5-1.1v-5.7
						L69.3,244.5z"/>
				</g>
				<g>
					<path d="M70.4,246.2c-0.2,0-0.4-0.2-0.4-0.4c0-0.2,0.1-0.5,0.4-0.5l5.4-0.8c0.2,0,0.5,0.1,0.5,0.4c0,0.2-0.1,0.5-0.4,0.5
						L70.4,246.2C70.4,246.2,70.4,246.2,70.4,246.2z"/>
				</g>
				<g>
					<path d="M70.4,247.8c-0.2,0-0.4-0.2-0.4-0.4c0-0.2,0.1-0.5,0.4-0.5l5.4-0.8c0.2,0,0.5,0.1,0.5,0.4c0,0.2-0.1,0.5-0.4,0.5
						L70.4,247.8C70.4,247.8,70.4,247.8,70.4,247.8z"/>
				</g>
				<g>
					<path d="M70.4,249.4c-0.2,0-0.4-0.2-0.4-0.4c0-0.2,0.1-0.5,0.4-0.5l5.4-0.8c0.2,0,0.5,0.1,0.5,0.4c0,0.2-0.1,0.5-0.4,0.5
						L70.4,249.4C70.4,249.4,70.4,249.4,70.4,249.4z"/>
				</g>
			</g>
			<g>
				<g>
					<path fill="#FFFFFF" d="M73.7,241.5c0-0.1,0-0.2-0.1-0.2c-0.1,0-0.2-0.1-0.3-0.1c-0.3-0.1-0.5-0.1-0.6-0.2
						c-0.1-0.1-0.2-0.3-0.2-0.5c0-0.2,0.1-0.4,0.2-0.5s0.3-0.2,0.5-0.3v-0.4l0.3,0v0.4c0.2,0,0.4,0.1,0.5,0.2
						c0.1,0.1,0.2,0.3,0.2,0.5l0,0l-0.5,0.1c0-0.1,0-0.2-0.1-0.3c-0.1-0.1-0.1-0.1-0.2-0.1c-0.1,0-0.2,0-0.2,0.1s-0.1,0.2-0.1,0.2
						s0,0.2,0.1,0.2c0,0,0.2,0.1,0.3,0.1c0.3,0.1,0.5,0.2,0.6,0.2c0.1,0.1,0.2,0.3,0.2,0.5c0,0.2-0.1,0.4-0.2,0.5
						c-0.1,0.1-0.3,0.2-0.5,0.3v0.4l-0.3,0v-0.4c-0.2,0-0.4,0-0.6-0.2c-0.2-0.1-0.2-0.3-0.2-0.6l0,0l0.5-0.1c0,0.2,0,0.3,0.1,0.3
						c0.1,0.1,0.2,0.1,0.3,0.1c0.1,0,0.2-0.1,0.2-0.1C73.6,241.7,73.7,241.7,73.7,241.5z"/>
				</g>
			</g>
		</g>
		
			<linearGradient id="SVGID_2_" gradientUnits="userSpaceOnUse" x1="284.8" y1="-284.85" x2="358.5" y2="-284.85" gradientTransform="matrix(0.227 0 0 -0.227 3.652954e-02 179.7833)">
			<stop  offset="0" style="stop-color:#8C6239;stop-opacity:0"/>
			<stop  offset="0.3934" style="stop-color:#BDA521;stop-opacity:0.3934"/>
			<stop  offset="0.8053" style="stop-color:#ECE609;stop-opacity:0.8053"/>
			<stop  offset="1" style="stop-color:#FFFF00"/>
		</linearGradient>
		<polygon opacity="0.32" fill="url(#SVGID_2_)" enable-background="new    " points="81.3,237.8 81.4,248.9 64.7,251.4 64.7,238.4 
			81.3,237.5 		"/>
	</g>
</g>
</svg>
