<?xml version="1.0" encoding="utf-8"?>
<!-- Generator: Adobe Illustrator 18.0.0, SVG Export Plug-In . SVG Version: 6.00 Build 0)  -->
<!DOCTYPE svg PUBLIC "-//W3C//DTD SVG 1.1//EN" "http://www.w3.org/Graphics/SVG/1.1/DTD/svg11.dtd">
<svg version="1.1" id="Layer_1" xmlns="http://www.w3.org/2000/svg" xmlns:xlink="http://www.w3.org/1999/xlink" x="0px" y="0px"
	 viewBox="0 0 1224 3489" enable-background="new 0 0 1224 3489" xml:space="preserve">
<g id="Pre-spill">
	<g display="none">
		<g display="inline">
			<path fill="#EC1C24" d="M516.4,764.6l6.4,26.1h0.1l6.4-26.1h9.1v35.5h-6.9v-10.3l0.6-13.8l-0.1,0l-6.8,24.2h-4.6l-6.7-24l-0.1,0
				l0.6,13.6v10.3h-6.9v-35.5H516.4z"/>
			<path fill="#EC1C24" d="M560.1,792.5h-9.4l-1.9,7.6h-7l10-35.5h7.2l10,35.5h-7L560.1,792.5z M552.1,787h6.5l-3.2-12.6h-0.1
				L552.1,787z"/>
			<path fill="#EC1C24" d="M589.5,770.1h-8v30h-6.9v-30h-8v-5.5h22.9V770.1z"/>
			<path fill="#EC1C24" d="M611.8,784.5h-11.9v10.1h14v5.5h-21v-35.5h20.9v5.5h-14v8.9h11.9V784.5z"/>
			<path fill="#EC1C24" d="M624.5,786v14.1h-6.9v-35.5h11.6c3.5,0,6.2,0.9,8.2,2.8c2,1.8,3,4.4,3,7.7c0,1.9-0.4,3.5-1.2,4.8
				s-2,2.4-3.6,3.2c1.8,0.6,3.1,1.6,3.9,3.1c0.8,1.4,1.2,3.2,1.2,5.4v2.5c0,1,0.1,2,0.3,3.1c0.2,1.1,0.6,1.9,1.2,2.4v0.5H635
				c-0.6-0.5-0.9-1.4-1.1-2.5s-0.2-2.4-0.2-3.6v-2.4c0-1.8-0.4-3.1-1.1-4.1s-1.8-1.5-3.1-1.5H624.5z M624.5,780.4h4.6
				c1.4,0,2.5-0.4,3.2-1.3c0.7-0.9,1.1-2.1,1.1-3.7c0-1.6-0.4-2.9-1.1-3.9c-0.7-1-1.8-1.4-3.2-1.4h-4.7V780.4z"/>
			<path fill="#EC1C24" d="M653.1,800.1h-6.9v-35.5h6.9V800.1z"/>
			<path fill="#EC1C24" d="M675.3,792.5H666l-1.9,7.6h-7l10-35.5h7.2l10,35.5h-7L675.3,792.5z M667.4,787h6.5l-3.2-12.6h-0.1
				L667.4,787z"/>
			<path fill="#EC1C24" d="M694,794.6h13v5.5H687v-35.5h7V794.6z"/>
			<path fill="#EC1C24" d="M564.7,832.7l0.1,0.1c0,3.9-0.9,6.9-2.8,8.8c-1.9,2-4.7,3-8.3,3s-6.6-1.1-8.8-3.4
				c-2.2-2.3-3.3-5.4-3.3-9.6V821c0-4.1,1.1-7.3,3.2-9.6s5-3.4,8.5-3.4c3.8,0,6.6,1,8.6,3c1.9,2,2.9,5,3,9l-0.1,0.1h-6.7
				c0.1-2.3-0.2-4-1-5s-2-1.5-3.8-1.5c-1.6,0-2.8,0.6-3.6,1.8s-1.2,3.1-1.2,5.5v10.7c0,2.5,0.4,4.4,1.3,5.6c0.9,1.2,2.2,1.8,3.9,1.8
				c1.7,0,2.8-0.5,3.5-1.5c0.7-1,0.9-2.6,0.9-5H564.7z"/>
			<path fill="#EC1C24" d="M592.9,831.3c0,4.2-1.1,7.4-3.4,9.8s-5.3,3.5-9,3.5s-6.8-1.2-9-3.5s-3.4-5.6-3.4-9.8v-10
				c0-4.2,1.1-7.4,3.4-9.8s5.2-3.6,9-3.6s6.8,1.2,9,3.6s3.4,5.6,3.4,9.8V831.3z M586,821.3c0-2.5-0.5-4.5-1.4-5.8s-2.3-1.9-4.1-1.9
				c-1.8,0-3.2,0.6-4.1,1.9c-0.9,1.3-1.4,3.2-1.4,5.8v10c0,2.6,0.5,4.5,1.4,5.8s2.3,1.9,4.1,1.9c1.8,0,3.2-0.6,4.1-1.9
				s1.4-3.2,1.4-5.8V821.3z"/>
			<path fill="#EC1C24" d="M613.3,834.8c0-1.4-0.4-2.5-1.1-3.3s-2-1.6-3.8-2.4c-3.7-1.3-6.5-2.7-8.3-4.4c-1.8-1.6-2.8-3.9-2.8-6.9
				c0-2.9,1.1-5.3,3.2-7.1s4.9-2.7,8.2-2.7c3.4,0,6.1,1,8.3,3.1c2.1,2,3.1,4.6,3.1,7.7l0,0.1h-6.7c0-1.6-0.4-2.9-1.2-4
				c-0.8-1-2-1.5-3.4-1.5c-1.4,0-2.5,0.4-3.2,1.3c-0.8,0.8-1.2,1.9-1.2,3.2c0,1.2,0.4,2.1,1.3,2.9s2.4,1.6,4.5,2.5
				c3.4,1.1,5.9,2.6,7.6,4.3c1.7,1.8,2.6,4.1,2.6,7.1c0,3.1-1,5.5-3.1,7.2c-2.1,1.7-4.8,2.6-8.2,2.6c-3.4,0-6.3-1-8.8-3
				c-2.5-2-3.7-4.8-3.6-8.5l0-0.1h6.8c0,2.2,0.5,3.8,1.4,4.7c0.9,1,2.3,1.4,4.2,1.4c1.5,0,2.6-0.4,3.3-1.2S613.3,836.2,613.3,834.8z
				"/>
			<path fill="#EC1C24" d="M645.5,814.1h-8v30h-6.9v-30h-8v-5.5h22.9V814.1z"/>
			<path fill="#EC1C24" d="M664.2,834.8c0-1.4-0.4-2.5-1.1-3.3s-2-1.6-3.8-2.4c-3.7-1.3-6.5-2.7-8.3-4.4c-1.8-1.6-2.8-3.9-2.8-6.9
				c0-2.9,1.1-5.3,3.2-7.1s4.9-2.7,8.2-2.7c3.4,0,6.1,1,8.3,3.1c2.1,2,3.1,4.6,3.1,7.7l0,0.1h-6.7c0-1.6-0.4-2.9-1.2-4
				c-0.8-1-2-1.5-3.4-1.5c-1.4,0-2.5,0.4-3.2,1.3c-0.8,0.8-1.2,1.9-1.2,3.2c0,1.2,0.4,2.1,1.3,2.9s2.4,1.6,4.5,2.5
				c3.4,1.1,5.9,2.6,7.6,4.3c1.7,1.8,2.6,4.1,2.6,7.1c0,3.1-1,5.5-3.1,7.2c-2.1,1.7-4.8,2.6-8.2,2.6c-3.4,0-6.3-1-8.8-3
				c-2.5-2-3.7-4.8-3.6-8.5l0-0.1h6.8c0,2.2,0.5,3.8,1.4,4.7c0.9,1,2.3,1.4,4.2,1.4c1.5,0,2.6-0.4,3.3-1.2S664.2,836.2,664.2,834.8z
				"/>
		</g>
	</g>
	<g>
		<g>
			<path fill="#EC1C24" d="M493.1,948.4h0.1l3.8-22.7h6.7l-6.9,35.5h-6.5l-5-21.8h-0.1l-5,21.8h-6.4l-6.9-35.5h6.7l3.8,22.7h0.1
				l5.1-22.7h5L493.1,948.4z"/>
			<path fill="#EC1C24" d="M521.9,953.7h-9.4l-1.9,7.6h-7l10-35.5h7.2l10,35.5h-7L521.9,953.7z M514,948.1h6.5l-3.2-12.6h-0.1
				L514,948.1z"/>
			<path fill="#EC1C24" d="M540.6,947.1v14.1h-6.9v-35.5h11.6c3.5,0,6.2,0.9,8.2,2.8c2,1.8,3,4.4,3,7.7c0,1.9-0.4,3.5-1.2,4.8
				s-2,2.4-3.6,3.2c1.8,0.6,3.1,1.6,3.9,3.1c0.8,1.4,1.2,3.2,1.2,5.4v2.5c0,1,0.1,2,0.3,3.1c0.2,1.1,0.6,1.9,1.2,2.4v0.5h-7.2
				c-0.6-0.5-0.9-1.4-1.1-2.5s-0.2-2.4-0.2-3.6v-2.4c0-1.8-0.4-3.1-1.1-4.1c-0.7-1-1.8-1.5-3.1-1.5H540.6z M540.6,941.6h4.6
				c1.4,0,2.5-0.4,3.2-1.3c0.7-0.9,1.1-2.1,1.1-3.7c0-1.6-0.4-2.9-1.1-3.9c-0.7-1-1.8-1.4-3.2-1.4h-4.7V941.6z"/>
			<path fill="#EC1C24" d="M580.9,945.7H569v10.1h14v5.5h-21v-35.5H583v5.5h-14v8.9h11.9V945.7z"/>
			<path fill="#EC1C24" d="M611.5,961.3h-6.9v-14.7h-11v14.7h-7v-35.5h7V941h11v-15.3h6.9V961.3z"/>
			<path fill="#EC1C24" d="M640.9,948.5c0,4.2-1.1,7.4-3.4,9.8s-5.3,3.5-9,3.5s-6.8-1.2-9-3.5s-3.4-5.6-3.4-9.8v-10
				c0-4.2,1.1-7.4,3.4-9.8s5.2-3.6,9-3.6s6.8,1.2,9,3.6s3.4,5.6,3.4,9.8V948.5z M634,938.5c0-2.5-0.5-4.5-1.4-5.8s-2.3-1.9-4.1-1.9
				c-1.8,0-3.2,0.6-4.1,1.9c-0.9,1.3-1.4,3.2-1.4,5.8v10c0,2.6,0.5,4.5,1.4,5.8s2.3,1.9,4.1,1.9c1.8,0,3.2-0.6,4.1-1.9
				s1.4-3.2,1.4-5.8V938.5z"/>
			<path fill="#EC1C24" d="M669.1,925.7v24.2c0,3.8-1.1,6.7-3.3,8.8c-2.2,2.1-5.1,3.1-8.7,3.1s-6.5-1-8.7-3.1
				c-2.2-2.1-3.3-5-3.3-8.8v-24.2h6.9v24.2c0,2.2,0.4,3.8,1.3,4.8s2.2,1.5,3.8,1.5c1.7,0,3-0.5,3.8-1.5s1.3-2.6,1.3-4.9v-24.2H669.1
				z"/>
			<path fill="#EC1C24" d="M689.9,952c0-1.4-0.4-2.5-1.1-3.3s-2-1.6-3.8-2.4c-3.7-1.3-6.5-2.7-8.3-4.4c-1.8-1.6-2.8-3.9-2.8-6.9
				c0-2.9,1.1-5.3,3.2-7.1s4.9-2.7,8.2-2.7c3.4,0,6.1,1,8.3,3.1c2.1,2,3.1,4.6,3.1,7.7l0,0.1h-6.7c0-1.6-0.4-2.9-1.2-4
				c-0.8-1-2-1.5-3.4-1.5c-1.4,0-2.5,0.4-3.2,1.3c-0.8,0.8-1.2,1.9-1.2,3.2c0,1.2,0.4,2.1,1.3,2.9s2.4,1.6,4.5,2.5
				c3.4,1.1,5.9,2.6,7.6,4.3c1.7,1.8,2.6,4.1,2.6,7.1c0,3.1-1,5.5-3.1,7.2c-2.1,1.7-4.8,2.6-8.2,2.6c-3.4,0-6.3-1-8.8-3
				c-2.5-2-3.7-4.8-3.6-8.5l0-0.1h6.8c0,2.2,0.5,3.8,1.4,4.7c0.9,1,2.3,1.4,4.2,1.4c1.5,0,2.6-0.4,3.3-1.2S689.9,953.3,689.9,952z"
				/>
			<path fill="#EC1C24" d="M708.4,961.3h-6.9v-35.5h6.9V961.3z"/>
			<path fill="#EC1C24" d="M739.1,961.3h-6.9l-10.9-22.7l-0.1,0v22.7h-7v-35.5h7l10.9,22.7l0.1,0v-22.7h6.9V961.3z"/>
			<path fill="#EC1C24" d="M768,956c-1,1.5-2.4,2.9-4.3,4c-1.9,1.2-4.4,1.7-7.3,1.7c-3.8,0-6.9-1.1-9.2-3.3
				c-2.3-2.2-3.5-5.4-3.5-9.5v-10.8c0-4.1,1.1-7.3,3.3-9.5c2.2-2.2,5.2-3.4,8.8-3.4c3.9,0,6.9,1,8.9,2.9c2,1.9,3,4.7,3.1,8.3l0,0.1
				h-6.5c0-2-0.5-3.5-1.3-4.4c-0.8-0.9-2.1-1.4-3.8-1.4c-1.7,0-3,0.6-4,1.8c-1,1.2-1.4,3-1.4,5.5v10.9c0,2.5,0.5,4.3,1.5,5.5
				c1,1.2,2.4,1.8,4.2,1.8c1.4,0,2.4-0.2,3.1-0.6c0.7-0.4,1.2-0.9,1.6-1.7v-6.4h-4.7v-4.9H768V956z"/>
		</g>
	</g>
</g>
</svg>
