<?xml version="1.0" encoding="utf-8"?>
<!-- Generator: Adobe Illustrator 18.0.0, SVG Export Plug-In . SVG Version: 6.00 Build 0)  -->
<!DOCTYPE svg PUBLIC "-//W3C//DTD SVG 1.1//EN" "http://www.w3.org/Graphics/SVG/1.1/DTD/svg11.dtd">
<svg version="1.1" id="Layer_1" xmlns="http://www.w3.org/2000/svg" xmlns:xlink="http://www.w3.org/1999/xlink" x="0px" y="0px"
	 viewBox="0 0 277.9 792" enable-background="new 0 0 277.9 792" xml:space="preserve">
<g id="Pre-spill">
	<g>
		
			<linearGradient id="SVGID_1_" gradientUnits="userSpaceOnUse" x1="35.3348" y1="-173.8203" x2="162.835" y2="-253.0885" gradientTransform="matrix(0.227 0 0 -0.227 3.652954e-02 179.7833)">
			<stop  offset="0" style="stop-color:#B3B3B3;stop-opacity:0"/>
			<stop  offset="0.9739" style="stop-color:#9A9A9A;stop-opacity:0.9739"/>
			<stop  offset="1" style="stop-color:#999999"/>
		</linearGradient>
		<polygon fill="url(#SVGID_1_)" points="42.5,235.7 29.3,235.7 5,226.9 31.6,224.4 		"/>
		<g>
			<polygon fill="#754C24" points="42.5,235.2 26,230.8 26,220.2 42.5,222.9 			"/>
			<path d="M42.5,235.7C42.4,235.7,42.4,235.7,42.5,235.7l-16.5-4.4c-0.2,0-0.3-0.2-0.3-0.4v-10.6c0-0.1,0-0.2,0.2-0.3
				c0.1-0.1,0.2-0.1,0.4-0.1l16.4,2.7c0.2,0,0.4,0.2,0.4,0.4v12.4c0,0.1-0.1,0.2-0.2,0.3C42.6,235.6,42.6,235.7,42.5,235.7z
				 M26.5,230.5l15.6,4.2v-11.4l-15.6-2.5V230.5z"/>
		</g>
		<g>
			<polygon fill="#A67C52" points="42.5,222.8 26,220.3 42.7,219.5 59.2,221.4 			"/>
			<path d="M42.5,223.3C42.4,223.3,42.4,223.3,42.5,223.3L26,220.7c-0.2,0-0.4-0.2-0.4-0.5c0-0.2,0.2-0.4,0.4-0.4l16.7-0.8
				c0,0,0.1,0,0.1,0l16.4,2c0.2,0,0.4,0.2,0.4,0.4c0,0.2-0.2,0.4-0.4,0.4L42.5,223.3C42.5,223.3,42.5,223.3,42.5,223.3z M29.5,220.4
				l12.9,2l13.4-1l-13.1-1.5L29.5,220.4z"/>
		</g>
		<g>
			<g>
				<polygon fill="#A67C52" points="59.2,232.8 42.5,235.2 42.5,222.9 59.2,221.4 				"/>
				<path d="M42.5,235.7c-0.1,0-0.2,0-0.3-0.1c-0.1-0.1-0.2-0.2-0.2-0.3v-12.4c0-0.2,0.2-0.4,0.4-0.4l16.7-1.5c0.1,0,0.2,0,0.3,0.1
					c0.1,0.1,0.2,0.2,0.2,0.3v11.4c0,0.2-0.2,0.4-0.4,0.4L42.5,235.7C42.5,235.7,42.5,235.7,42.5,235.7z M42.9,223.3v11.5l15.8-2.3
					v-10.6L42.9,223.3z"/>
			</g>
			<g>
				<g>
					<polygon fill="#CCCCCC" points="55,233.4 46.6,234.6 46.6,228.1 55,226.9 					"/>
					<path d="M46.6,235.1c-0.1,0-0.2,0-0.3-0.1c-0.1-0.1-0.2-0.2-0.2-0.3V228c0-0.2,0.2-0.4,0.4-0.4l8.4-1.2c0.1,0,0.2,0,0.3,0.1
						s0.2,0.2,0.2,0.3v6.6c0,0.2-0.2,0.4-0.4,0.4L46.6,235.1C46.7,235.1,46.7,235.1,46.6,235.1z M47.1,228.4v5.7l7.5-1.1v-5.7
						L47.1,228.4z"/>
				</g>
				<g>
					<path d="M48.1,230.1c-0.2,0-0.4-0.2-0.4-0.4c0-0.2,0.1-0.5,0.4-0.5l5.4-0.8c0.2,0,0.5,0.1,0.5,0.4c0,0.2-0.1,0.5-0.4,0.5
						L48.1,230.1C48.1,230.1,48.1,230.1,48.1,230.1z"/>
				</g>
				<g>
					<path d="M48.1,231.7c-0.2,0-0.4-0.2-0.4-0.4c0-0.2,0.1-0.5,0.4-0.5l5.4-0.8c0.2,0,0.5,0.1,0.5,0.4c0,0.2-0.1,0.5-0.4,0.5
						L48.1,231.7C48.1,231.7,48.1,231.7,48.1,231.7z"/>
				</g>
				<g>
					<path d="M48.1,233.2c-0.2,0-0.4-0.2-0.4-0.4c0-0.2,0.1-0.5,0.4-0.5l5.4-0.8c0.2,0,0.5,0.1,0.5,0.4c0,0.2-0.1,0.5-0.4,0.5
						L48.1,233.2C48.1,233.2,48.1,233.2,48.1,233.2z"/>
				</g>
			</g>
			<g>
				<g>
					<path fill="#FFFFFF" d="M51.4,225.4c0-0.1,0-0.2-0.1-0.2c-0.1,0-0.2-0.1-0.3-0.1c-0.3-0.1-0.5-0.1-0.6-0.2s-0.2-0.3-0.2-0.5
						c0-0.2,0.1-0.4,0.2-0.5c0.1-0.2,0.3-0.2,0.5-0.3v-0.4l0.3,0v0.4c0.2,0,0.4,0.1,0.5,0.2c0.1,0.1,0.2,0.3,0.2,0.5l0,0l-0.5,0.1
						c0-0.1,0-0.2-0.1-0.3c-0.1-0.1-0.1-0.1-0.2-0.1c-0.1,0-0.2,0-0.2,0.1c0,0.1-0.1,0.2-0.1,0.2c0,0.1,0,0.2,0.1,0.2
						c0,0,0.2,0.1,0.3,0.1c0.3,0.1,0.5,0.2,0.6,0.2c0.1,0.1,0.2,0.3,0.2,0.5c0,0.2-0.1,0.4-0.2,0.5c-0.1,0.1-0.3,0.2-0.5,0.3v0.4
						l-0.3,0v-0.4c-0.2,0-0.4,0-0.6-0.2c-0.2-0.1-0.2-0.3-0.2-0.6l0,0l0.5-0.1c0,0.2,0,0.3,0.1,0.3s0.2,0.1,0.3,0.1
						c0.1,0,0.2-0.1,0.2-0.1C51.4,225.6,51.4,225.5,51.4,225.4z"/>
				</g>
			</g>
		</g>
		
			<linearGradient id="SVGID_2_" gradientUnits="userSpaceOnUse" x1="186.8" y1="-213.85" x2="260.5" y2="-213.85" gradientTransform="matrix(0.227 0 0 -0.227 3.652954e-02 179.7833)">
			<stop  offset="0" style="stop-color:#8C6239;stop-opacity:0"/>
			<stop  offset="0.3934" style="stop-color:#BDA521;stop-opacity:0.3934"/>
			<stop  offset="0.8053" style="stop-color:#ECE609;stop-opacity:0.8053"/>
			<stop  offset="1" style="stop-color:#FFFF00"/>
		</linearGradient>
		<polygon opacity="0.32" fill="url(#SVGID_2_)" enable-background="new    " points="59.1,221.6 59.2,232.8 42.5,235.2 42.4,222.3 
			59.1,221.4 		"/>
	</g>
</g>
</svg>
