<?xml version="1.0" encoding="utf-8"?>
<!-- Generator: Adobe Illustrator 18.0.0, SVG Export Plug-In . SVG Version: 6.00 Build 0)  -->
<!DOCTYPE svg PUBLIC "-//W3C//DTD SVG 1.1//EN" "http://www.w3.org/Graphics/SVG/1.1/DTD/svg11.dtd">
<svg version="1.1" id="Layer_1" xmlns="http://www.w3.org/2000/svg" xmlns:xlink="http://www.w3.org/1999/xlink" x="0px" y="0px"
	 width="277.9px" height="792px" viewBox="0 0 277.9 792" enable-background="new 0 0 277.9 792" xml:space="preserve">
<g id="Pre-spill">
	<g>
		
			<linearGradient id="SVGID_1_" gradientUnits="userSpaceOnUse" x1="148.3348" y1="-146.8203" x2="275.835" y2="-226.0885" gradientTransform="matrix(0.227 0 0 -0.227 3.652954e-02 179.7833)">
			<stop  offset="0" style="stop-color:#B3B3B3;stop-opacity:0"/>
			<stop  offset="0.9739" style="stop-color:#9A9A9A;stop-opacity:0.9739"/>
			<stop  offset="1" style="stop-color:#999999"/>
		</linearGradient>
		<polygon fill="url(#SVGID_1_)" points="68.1,229.6 54.9,229.6 30.7,220.7 57.2,218.2 		"/>
		<g>
			<polygon fill="#754C24" points="68.1,229.1 51.7,224.7 51.7,214.1 68.1,216.7 			"/>
			<path d="M68.1,229.6C68.1,229.6,68,229.6,68.1,229.6l-16.5-4.4c-0.2,0-0.3-0.2-0.3-0.4v-10.6c0-0.1,0-0.2,0.2-0.3
				c0.1-0.1,0.2-0.1,0.4-0.1l16.4,2.7c0.2,0,0.4,0.2,0.4,0.4v12.4c0,0.1-0.1,0.2-0.2,0.3C68.3,229.5,68.2,229.6,68.1,229.6z
				 M52.1,224.3l15.6,4.2v-11.4l-15.6-2.5V224.3z"/>
		</g>
		<g>
			<polygon fill="#A67C52" points="68.1,216.7 51.7,214.2 68.4,213.3 84.8,215.3 			"/>
			<path d="M68.1,217.1C68.1,217.1,68.1,217.1,68.1,217.1l-16.5-2.6c-0.2,0-0.4-0.2-0.4-0.5c0-0.2,0.2-0.4,0.4-0.4l16.7-0.8
				c0,0,0.1,0,0.1,0l16.4,2c0.2,0,0.4,0.2,0.4,0.4s-0.2,0.4-0.4,0.4L68.1,217.1C68.2,217.1,68.1,217.1,68.1,217.1z M55.2,214.3
				l12.9,2l13.4-1l-13.1-1.5L55.2,214.3z"/>
		</g>
		<g>
			<g>
				<polygon fill="#A67C52" points="84.8,226.7 68.1,229.1 68.1,216.7 84.8,215.3 				"/>
				<path d="M68.1,229.6c-0.1,0-0.2,0-0.3-0.1c-0.1-0.1-0.2-0.2-0.2-0.3v-12.4c0-0.2,0.2-0.4,0.4-0.4l16.7-1.5c0.1,0,0.2,0,0.3,0.1
					s0.2,0.2,0.2,0.3v11.4c0,0.2-0.2,0.4-0.4,0.4L68.1,229.6C68.2,229.6,68.1,229.6,68.1,229.6z M68.5,217.1v11.5l15.8-2.3v-10.6
					L68.5,217.1z"/>
			</g>
			<g>
				<g>
					<polygon fill="#CCCCCC" points="80.6,227.3 72.3,228.5 72.3,221.9 80.6,220.7 					"/>
					<path d="M72.3,229c-0.1,0-0.2,0-0.3-0.1c-0.1-0.1-0.2-0.2-0.2-0.3v-6.6c0-0.2,0.2-0.4,0.4-0.4l8.4-1.2c0.1,0,0.2,0,0.3,0.1
						s0.2,0.2,0.2,0.3v6.6c0,0.2-0.2,0.4-0.4,0.4L72.3,229C72.3,229,72.3,229,72.3,229z M72.7,222.3v5.7l7.5-1.1v-5.7L72.7,222.3z"
						/>
				</g>
				<g>
					<path d="M73.8,224c-0.2,0-0.4-0.2-0.4-0.4c0-0.2,0.1-0.5,0.4-0.5l5.4-0.8c0.2,0,0.5,0.1,0.5,0.4c0,0.2-0.1,0.5-0.4,0.5
						L73.8,224C73.8,224,73.8,224,73.8,224z"/>
				</g>
				<g>
					<path d="M73.8,225.5c-0.2,0-0.4-0.2-0.4-0.4c0-0.2,0.1-0.5,0.4-0.5l5.4-0.8c0.2,0,0.5,0.1,0.5,0.4c0,0.2-0.1,0.5-0.4,0.5
						L73.8,225.5C73.8,225.5,73.8,225.5,73.8,225.5z"/>
				</g>
				<g>
					<path d="M73.8,227.1c-0.2,0-0.4-0.2-0.4-0.4c0-0.2,0.1-0.5,0.4-0.5l5.4-0.8c0.2,0,0.5,0.1,0.5,0.4c0,0.2-0.1,0.5-0.4,0.5
						L73.8,227.1C73.8,227.1,73.8,227.1,73.8,227.1z"/>
				</g>
			</g>
			<g>
				<g>
					<path fill="#FFFFFF" d="M77.1,219.3c0-0.1,0-0.2-0.1-0.2c-0.1,0-0.2-0.1-0.3-0.1c-0.3-0.1-0.5-0.1-0.6-0.2
						c-0.1-0.1-0.2-0.3-0.2-0.5c0-0.2,0.1-0.4,0.2-0.5s0.3-0.2,0.5-0.3V217l0.3,0v0.4c0.2,0,0.4,0.1,0.5,0.2s0.2,0.3,0.2,0.5l0,0
						l-0.5,0.1c0-0.1,0-0.2-0.1-0.3c-0.1-0.1-0.1-0.1-0.2-0.1c-0.1,0-0.2,0-0.2,0.1s-0.1,0.2-0.1,0.2c0,0.1,0,0.2,0.1,0.2
						c0,0,0.2,0.1,0.3,0.1c0.3,0.1,0.5,0.2,0.6,0.2c0.1,0.1,0.2,0.3,0.2,0.5c0,0.2-0.1,0.4-0.2,0.5c-0.1,0.1-0.3,0.2-0.5,0.3v0.4
						l-0.3,0v-0.4c-0.2,0-0.4,0-0.6-0.2c-0.2-0.1-0.2-0.3-0.2-0.6l0,0l0.5-0.1c0,0.2,0,0.3,0.1,0.3s0.2,0.1,0.3,0.1
						c0.1,0,0.2-0.1,0.2-0.1C77,219.5,77.1,219.4,77.1,219.3z"/>
				</g>
			</g>
		</g>
		
			<linearGradient id="SVGID_2_" gradientUnits="userSpaceOnUse" x1="299.8" y1="-186.85" x2="373.5" y2="-186.85" gradientTransform="matrix(0.227 0 0 -0.227 3.652954e-02 179.7833)">
			<stop  offset="0" style="stop-color:#8C6239;stop-opacity:0"/>
			<stop  offset="0.3934" style="stop-color:#BDA521;stop-opacity:0.3934"/>
			<stop  offset="0.8053" style="stop-color:#ECE609;stop-opacity:0.8053"/>
			<stop  offset="1" style="stop-color:#FFFF00"/>
		</linearGradient>
		<polygon opacity="0.32" fill="url(#SVGID_2_)" enable-background="new    " points="84.7,215.5 84.8,226.7 68.1,229.1 68.1,216.1 
			84.7,215.3 		"/>
	</g>
</g>
</svg>
