<?xml version="1.0" encoding="utf-8"?>
<!-- Generator: Adobe Illustrator 18.0.0, SVG Export Plug-In . SVG Version: 6.00 Build 0)  -->
<!DOCTYPE svg PUBLIC "-//W3C//DTD SVG 1.1//EN" "http://www.w3.org/Graphics/SVG/1.1/DTD/svg11.dtd">
<svg version="1.1" id="Layer_1" xmlns="http://www.w3.org/2000/svg" xmlns:xlink="http://www.w3.org/1999/xlink" x="0px" y="0px"
	 viewBox="0 0 277.9 792" enable-background="new 0 0 277.9 792" xml:space="preserve">
<g id="Pre-spill">
	<g>
		
			<linearGradient id="SVGID_1_" gradientUnits="userSpaceOnUse" x1="252.3348" y1="-219.8203" x2="379.835" y2="-299.0885" gradientTransform="matrix(0.227 0 0 -0.227 3.652954e-02 179.7833)">
			<stop  offset="0" style="stop-color:#B3B3B3;stop-opacity:0"/>
			<stop  offset="0.9739" style="stop-color:#9A9A9A;stop-opacity:0.9739"/>
			<stop  offset="1" style="stop-color:#999999"/>
		</linearGradient>
		<polygon fill="url(#SVGID_1_)" points="91.7,246.2 78.5,246.1 54.3,237.3 80.8,234.8 		"/>
		<g>
			<polygon fill="#754C24" points="91.7,245.7 75.3,241.3 75.3,230.7 91.7,233.3 			"/>
			<path d="M91.7,246.1C91.7,246.1,91.7,246.1,91.7,246.1l-16.5-4.4c-0.2,0-0.3-0.2-0.3-0.4v-10.6c0-0.1,0-0.2,0.2-0.3
				c0.1-0.1,0.2-0.1,0.4-0.1l16.4,2.7c0.2,0,0.4,0.2,0.4,0.4v12.4c0,0.1-0.1,0.2-0.2,0.3C91.9,246.1,91.8,246.1,91.7,246.1z
				 M75.7,240.9l15.6,4.2v-11.4l-15.6-2.5V240.9z"/>
		</g>
		<g>
			<polygon fill="#A67C52" points="91.7,233.3 75.3,230.7 92,229.9 108.4,231.9 			"/>
			<path d="M91.7,233.7C91.7,233.7,91.7,233.7,91.7,233.7l-16.5-2.6c-0.2,0-0.4-0.2-0.4-0.5c0-0.2,0.2-0.4,0.4-0.4l16.7-0.8
				c0,0,0.1,0,0.1,0l16.4,2c0.2,0,0.4,0.2,0.4,0.4s-0.2,0.4-0.4,0.4L91.7,233.7C91.8,233.7,91.7,233.7,91.7,233.7z M78.8,230.9
				l12.9,2l13.4-1L92,230.4L78.8,230.9z"/>
		</g>
		<g>
			<g>
				<polygon fill="#A67C52" points="108.4,243.3 91.7,245.7 91.7,233.3 108.4,231.9 				"/>
				<path d="M91.7,246.1c-0.1,0-0.2,0-0.3-0.1c-0.1-0.1-0.2-0.2-0.2-0.3v-12.4c0-0.2,0.2-0.4,0.4-0.4l16.7-1.5c0.1,0,0.2,0,0.3,0.1
					s0.2,0.2,0.2,0.3v11.4c0,0.2-0.2,0.4-0.4,0.4L91.7,246.1C91.8,246.1,91.7,246.1,91.7,246.1z M92.2,233.7v11.5l15.8-2.3v-10.6
					L92.2,233.7z"/>
			</g>
			<g>
				<g>
					<polygon fill="#CCCCCC" points="104.3,243.9 95.9,245.1 95.9,238.5 104.3,237.3 					"/>
					<path d="M95.9,245.5c-0.1,0-0.2,0-0.3-0.1c-0.1-0.1-0.2-0.2-0.2-0.3v-6.6c0-0.2,0.2-0.4,0.4-0.4l8.4-1.2c0.1,0,0.2,0,0.3,0.1
						s0.2,0.2,0.2,0.3v6.6c0,0.2-0.2,0.4-0.4,0.4L95.9,245.5C95.9,245.5,95.9,245.5,95.9,245.5z M96.3,238.9v5.7l7.5-1.1v-5.7
						L96.3,238.9z"/>
				</g>
				<g>
					<path d="M97.4,240.6c-0.2,0-0.4-0.2-0.4-0.4c0-0.2,0.1-0.5,0.4-0.5l5.4-0.8c0.2,0,0.5,0.1,0.5,0.4c0,0.2-0.1,0.5-0.4,0.5
						L97.4,240.6C97.4,240.6,97.4,240.6,97.4,240.6z"/>
				</g>
				<g>
					<path d="M97.4,242.1c-0.2,0-0.4-0.2-0.4-0.4c0-0.2,0.1-0.5,0.4-0.5l5.4-0.8c0.2,0,0.5,0.1,0.5,0.4c0,0.2-0.1,0.5-0.4,0.5
						L97.4,242.1C97.4,242.1,97.4,242.1,97.4,242.1z"/>
				</g>
				<g>
					<path d="M97.4,243.7c-0.2,0-0.4-0.2-0.4-0.4c0-0.2,0.1-0.5,0.4-0.5l5.4-0.8c0.2,0,0.5,0.1,0.5,0.4c0,0.2-0.1,0.5-0.4,0.5
						L97.4,243.7C97.4,243.7,97.4,243.7,97.4,243.7z"/>
				</g>
			</g>
			<g>
				<g>
					<path fill="#FFFFFF" d="M100.7,235.9c0-0.1,0-0.2-0.1-0.2c-0.1,0-0.2-0.1-0.3-0.1c-0.3-0.1-0.5-0.1-0.6-0.2
						c-0.1-0.1-0.2-0.3-0.2-0.5s0.1-0.4,0.2-0.5c0.1-0.2,0.3-0.2,0.5-0.3v-0.4l0.3,0v0.4c0.2,0,0.4,0.1,0.5,0.2
						c0.1,0.1,0.2,0.3,0.2,0.5l0,0l-0.5,0.1c0-0.1,0-0.2-0.1-0.3s-0.1-0.1-0.2-0.1c-0.1,0-0.2,0-0.2,0.1c0,0.1-0.1,0.2-0.1,0.2
						s0,0.2,0.1,0.2c0,0,0.2,0.1,0.3,0.1c0.3,0.1,0.5,0.2,0.6,0.2c0.1,0.1,0.2,0.3,0.2,0.5s-0.1,0.4-0.2,0.5
						c-0.1,0.1-0.3,0.2-0.5,0.3v0.4l-0.3,0v-0.4c-0.2,0-0.4,0-0.6-0.2c-0.2-0.1-0.2-0.3-0.2-0.6l0,0l0.5-0.1c0,0.2,0,0.3,0.1,0.3
						c0.1,0.1,0.2,0.1,0.3,0.1c0.1,0,0.2-0.1,0.2-0.1C100.6,236.1,100.7,236,100.7,235.9z"/>
				</g>
			</g>
		</g>
		
			<linearGradient id="SVGID_2_" gradientUnits="userSpaceOnUse" x1="403.8" y1="-259.85" x2="477.5" y2="-259.85" gradientTransform="matrix(0.227 0 0 -0.227 3.652954e-02 179.7833)">
			<stop  offset="0" style="stop-color:#8C6239;stop-opacity:0"/>
			<stop  offset="0.3934" style="stop-color:#BDA521;stop-opacity:0.3934"/>
			<stop  offset="0.8053" style="stop-color:#ECE609;stop-opacity:0.8053"/>
			<stop  offset="1" style="stop-color:#FFFF00"/>
		</linearGradient>
		<polygon opacity="0.32" fill="url(#SVGID_2_)" enable-background="new    " points="108.3,232.1 108.4,243.3 91.7,245.7 
			91.7,232.7 108.3,231.9 		"/>
	</g>
</g>
</svg>
