<?xml version="1.0" encoding="utf-8"?>
<!-- Generator: Adobe Illustrator 18.0.0, SVG Export Plug-In . SVG Version: 6.00 Build 0)  -->
<!DOCTYPE svg PUBLIC "-//W3C//DTD SVG 1.1//EN" "http://www.w3.org/Graphics/SVG/1.1/DTD/svg11.dtd">
<svg version="1.1" id="Layer_1" xmlns="http://www.w3.org/2000/svg" xmlns:xlink="http://www.w3.org/1999/xlink" x="0px" y="0px"
	 width="67.8px" height="42.3px" viewBox="179.4 163.6 67.8 42.3" enable-background="new 179.4 163.6 67.8 42.3"
	 xml:space="preserve">
<g>
	<g>
		
			<linearGradient id="SVGID_1_" gradientUnits="userSpaceOnUse" x1="891.0604" y1="-20.5501" x2="961.2365" y2="-26.748" gradientTransform="matrix(0.227 0 0 -0.227 5.654734e-02 179.7833)">
			<stop  offset="0" style="stop-color:#6D6E71;stop-opacity:0"/>
			<stop  offset="1" style="stop-color:#6D6E71"/>
		</linearGradient>
		<path fill="url(#SVGID_1_)" d="M215.8,182.4c-2.8,0-5.5,0.2-7.6,0.6c-0.3-0.1-0.7-0.2-0.7-0.4c0-0.5,0.9-0.7,0.6-1.1
			c-0.3-0.4-0.8,0.4-1.3,0.4s-0.6-0.2-1.7-0.4s-1,0.6-1.1,0.9c-0.2,0.3-0.8,0.3-1.3,0.4c-0.5,0.1,0.4,0.6,1.1,0.6
			c0.5,0,1.2,0.1,1.7,0.2c-1.9,0.6-3,1.3-3,2.1c0,1.8,6,3.3,13.5,3.3c7.4,0,13.5-1.5,13.5-3.3C229.2,183.9,223.2,182.4,215.8,182.4z
			"/>
		<g>
			<path fill="#39B54A" d="M230.2,182.7c0-2-0.8-3.7-2-5.2c-1-1.2-2.2-2.2-3.7-2.9c0,0,0,0-0.1,0c-0.4-0.2-1.4-0.7-1.3-2l0,0v-0.1
				c0-0.3,0-0.6,0.1-1c0.1-0.9,0.5-1.8,0.9-2.6c0.1-0.2,0.1-0.4,0.2-0.6c0-0.3-0.2-0.5-0.5-0.6c-0.4,0-0.7,0.1-1,0.2
				c-0.2,0.1-0.3,0.2-0.5,0.3c-0.4,0.2-0.6,0.1-0.8-0.3c0-0.1-0.1-0.2-0.1-0.3c-0.1-0.2-0.2-0.4-0.3-0.5c-0.5-0.6-1.2-0.6-1.6,0
				c-0.2,0.2-0.3,0.4-0.3,0.6c-0.2,0.4-0.4,0.7-0.9,0.7c-0.3,0-0.6,0-1,0c-0.2,0-0.4,0-0.7,0c-0.6,0-0.9,0.5-0.6,1.1
				c0,0.1,0.1,0.2,0.2,0.3c0.4,1,0.8,1.9,1.2,2.9c0,0.1,0.1,0.2,0.2,0.3c0.3,0.8-0.3,0.9-0.4,1c-2.3,0.7-4.1,2.1-5.5,4
				c-0.7,0.9-1.2,1.9-1.4,3c-0.3,1-0.3,2-0.2,3c0.1,0.7,0.3,1.3,0.6,2c0.5,0.9,1.3,1.5,2.3,1.8c1,0.4,2,0.6,3.1,0.7
				c1.3,0.1,2.7,0.2,3.9,0.2c1.4-0.1,2.6-0.1,3.8-0.2c1.1-0.1,2.3-0.3,3.4-0.7c1.3-0.5,2.3-1.3,2.7-2.7
				C230.2,184.4,230.2,183.6,230.2,182.7z"/>
			<path d="M220,189.1L220,189.1c-0.4,0-0.7,0-1.1-0.1c-0.9,0-1.9-0.1-2.8-0.2c-1.2-0.1-2.2-0.3-3.2-0.7c-1.1-0.5-1.9-1.1-2.4-2
				c-0.3-0.6-0.5-1.2-0.7-2.1c-0.1-1.1-0.1-2.2,0.2-3.1c0.3-1.1,0.8-2.1,1.5-3c1.5-2,3.4-3.4,5.7-4.1c0.1,0,0.1,0,0.2-0.1
				c0-0.1,0-0.2,0-0.4c-0.1-0.1-0.2-0.2-0.2-0.4c-0.3-0.7-0.6-1.4-0.9-2.1c-0.1-0.2-0.2-0.5-0.3-0.7c0-0.1-0.1-0.1-0.1-0.2
				c0,0,0-0.1-0.1-0.1c-0.2-0.4-0.2-0.7,0-1s0.5-0.5,0.9-0.5c0.1,0,0.2,0,0.4,0c0.1,0,0.2,0,0.3,0h0.1c0.3,0,0.5,0,0.8,0
				s0.5-0.2,0.6-0.6c0.1-0.3,0.2-0.5,0.4-0.7c0.3-0.3,0.6-0.5,1-0.5l0,0c0.4,0,0.8,0.2,1,0.5c0.1,0.2,0.2,0.3,0.3,0.5v0.1
				c0,0.1,0.1,0.2,0.1,0.2v0.1c0.1,0.2,0.2,0.2,0.4,0.2c0.1,0,0.2-0.1,0.3-0.2c0,0,0.1-0.1,0.2-0.1c0.4-0.2,0.8-0.3,1.2-0.3
				c0.5,0.1,0.8,0.4,0.7,0.9c0,0.2-0.1,0.5-0.2,0.7c-0.5,0.9-0.7,1.7-0.9,2.5c0,0.3-0.1,0.6-0.1,0.9c0,0,0,0.1,0,0.2
				c-0.1,1.1,0.7,1.5,1.1,1.7h0.1c1.5,0.7,2.8,1.7,3.8,3c1.4,1.7,2,3.4,2.1,5.3l0,0c0,1-0.1,1.8-0.3,2.5c-0.4,1.4-1.4,2.3-2.9,2.9
				c-1,0.4-2.1,0.6-3.5,0.7c-0.8,0.1-1.7,0.1-2.6,0.1C220.9,189,220.5,189.1,220,189.1L220,189.1z M216.7,168.9L216.7,168.9
				c-0.3,0-0.4,0.1-0.5,0.2c-0.1,0.1,0,0.3,0,0.5c0,0,0,0.1,0.1,0.1c0,0.1,0.1,0.2,0.1,0.2c0.1,0.2,0.2,0.5,0.3,0.7
				c0.3,0.7,0.6,1.4,0.9,2.1c0,0.1,0.1,0.2,0.2,0.2l0,0v0.1c0.1,0.4,0.1,0.7,0,0.9s-0.3,0.3-0.5,0.4c-2.2,0.7-3.9,2-5.4,3.9
				c-0.7,0.9-1.1,1.8-1.4,2.8c-0.2,0.9-0.3,1.8-0.1,2.9c0.1,0.7,0.3,1.3,0.6,1.8c0.5,0.7,1.1,1.3,2.1,1.7c0.9,0.4,1.9,0.6,3,0.7
				c0.9,0.1,1.9,0.1,2.8,0.2c0.4,0,0.7,0,1.1,0.1c0.4,0,0.8,0,1.2,0c0.9,0,1.7-0.1,2.5-0.1c1.3-0.1,2.3-0.3,3.3-0.7
				c1.3-0.5,2.2-1.3,2.5-2.5c0.2-0.7,0.3-1.5,0.3-2.3l0,0c0-1.7-0.7-3.4-2-5c-1-1.2-2.2-2.2-3.6-2.8l0,0l0,0
				c-0.5-0.2-1.5-0.8-1.5-2.2v-0.1c0-0.3,0-0.7,0.1-1c0.1-0.9,0.4-1.7,0.9-2.7c0.1-0.1,0.1-0.3,0.1-0.5c0-0.1,0-0.2-0.2-0.2
				s-0.5,0-0.8,0.2c0,0-0.1,0-0.1,0.1c-0.1,0.1-0.2,0.1-0.4,0.2c-0.5,0.2-0.9,0.1-1.2-0.5c0,0,0-0.1-0.1-0.2c0,0,0-0.1-0.1-0.2v-0.1
				c-0.1-0.1-0.1-0.3-0.2-0.4c-0.2-0.2-0.4-0.3-0.6-0.3s-0.4,0.1-0.6,0.3c-0.1,0.1-0.2,0.3-0.3,0.5c-0.2,0.5-0.6,0.9-1.1,1
				c-0.3,0-0.6,0-0.9,0h-0.1c-0.1,0-0.2,0-0.3,0C216.9,168.9,216.8,168.9,216.7,168.9z"/>
		</g>
		<path opacity="0.51" fill="#A7A9AC" enable-background="new    " d="M218.1,173.5c0,0-1.2-2.6-1.4-3.2c-0.2-0.6-0.7-1.2-0.4-1.3
			s1.1,0,1.6,0s1.1-0.1,1.2-0.4c0.1-0.3,0.5-1.2,0.9,0s0.2,2.5,0.5,3.4c0.2,1,0.4,1.8,0.4,1.8s-1-0.8-1.3-1.6
			c-0.3-0.7-1.7-2.2-1.4-0.6c0.3,1.6,1.7,2.2,1.7,2.2S218.6,173.8,218.1,173.5z"/>
		
			<linearGradient id="SVGID_2_" gradientUnits="userSpaceOnUse" x1="925.038" y1="9.2877" x2="1013.8478" y2="9.2877" gradientTransform="matrix(0.227 0 0 -0.227 5.654734e-02 179.7833)">
			<stop  offset="0" style="stop-color:#39B54A;stop-opacity:0"/>
			<stop  offset="1.641512e-02" style="stop-color:#3DB649;stop-opacity:1.641512e-02"/>
			<stop  offset="0.5039" style="stop-color:#A4DD22;stop-opacity:0.5039"/>
			<stop  offset="0.8417" style="stop-color:#E6F609;stop-opacity:0.8417"/>
			<stop  offset="1" style="stop-color:#FFFF00"/>
		</linearGradient>
		<path opacity="0.4" fill="url(#SVGID_2_)" enable-background="new    " d="M230.2,182.7c0-2-0.8-3.7-2-5.2c-1-1.2-2.2-2.2-3.7-2.9
			c0,0,0,0-0.1,0c-0.4-0.2-1.4-0.7-1.3-2l0,0v-0.1c0-0.3,0-0.6,0.1-1c0.1-0.9,0.5-1.8,0.9-2.6c0.1-0.2,0.1-0.4,0.2-0.6
			c0-0.3-0.2-0.5-0.5-0.6c-0.4,0-0.7,0.1-1,0.2c-0.2,0.1-0.3,0.2-0.5,0.3c-0.4,0.2-0.6,0.1-0.8-0.3c0-0.1-0.1-0.2-0.1-0.3
			c-0.1-0.2-0.2-0.4-0.3-0.5c-0.5-0.6-1.2-0.6-1.6,0c-0.2,0.2-0.3,0.4-0.3,0.6c-0.2,0.4-0.4,0.7-0.9,0.7c-0.3,0-0.6,0-1,0
			c-0.2,0-0.4,0-0.7,0c-0.6,0-0.9,0.5-0.6,1.1c0,0.1,0.1,0.2,0.2,0.3c0.4,1,0.8,1.9,1.2,2.9c0,0.1,0.1,0.2,0.2,0.3
			c0.3,0.8-0.3,0.9-0.4,1c-2.3,0.7-4.1,2.1-5.5,4c-0.7,0.9-1.2,1.9-1.4,3c-0.3,1-0.3,2-0.2,3c0.1,0.7,0.3,1.3,0.6,2
			c0.5,0.9,1.3,1.5,2.3,1.8c1,0.4,2,0.6,3.1,0.7c1.3,0.1,2.7,0.2,3.9,0.2c1.4-0.1,2.6-0.1,3.8-0.2c1.1-0.1,2.3-0.3,3.4-0.7
			c1.3-0.5,2.3-1.3,2.7-2.7C230.2,184.4,230.2,183.6,230.2,182.7z"/>
		<path opacity="0.51" fill="#A7A9AC" enable-background="new    " d="M220.5,175.1c0,0-2.3,1-3.5,2.2s-2.2,2.5-1.8,4.8
			s1.6,4.1,3.4,4.7s6.9,1.3,3.3,1.4c-3.6,0.1-4.4,0.4-8.4-0.6c-3.9-1-3-6.2-3-6.2s0.9-3,3.2-4.9c2.2-1.9,4.1-2.2,4.1-2.2
			S219.4,175.1,220.5,175.1z"/>
		<g>
			<path fill="#FFFFFF" d="M219.7,184.8V184c-1.1-0.2-1.7-0.7-1.8-1.9h1.2c0,0.4,0.2,0.9,0.6,1v-2c-1.2-0.6-1.7-1.1-1.7-1.9
				c0-0.9,0.7-1.5,1.7-1.6v-0.4h0.7v0.4c1.2,0.1,1.8,0.8,1.8,1.7H221c-0.1-0.5-0.2-0.7-0.6-0.8v1.6c1.2,0.5,2.1,1,2.1,2.2
				c0,1-0.8,1.8-2.1,1.8v0.8L219.7,184.8L219.7,184.8z M219.7,178.5c-0.4,0.1-0.5,0.2-0.5,0.5s0.1,0.4,0.5,0.7V178.5z M221.3,182.3
				c0-0.4-0.3-0.7-0.9-1v1.7C221,183.1,221.3,182.7,221.3,182.3z"/>
		</g>
		<path d="M217.8,173.1c0,0,0.1,0.3,1.6,0.6s3.5-0.6,3.5-0.6s0.2-0.2,0.6-0.1s0.7,0.6,0.4,0.9c-0.4,0.3-1,0.9-1.7,1
			s-2.6-0.1-3.7-0.5c-1.2-0.4-1.5-0.7-1.5-1C216.9,173.1,217.4,172.8,217.8,173.1z"/>
	</g>
	<g>
		
			<linearGradient id="SVGID_3_" gradientUnits="userSpaceOnUse" x1="795.0725" y1="-36.4134" x2="865.2487" y2="-42.6112" gradientTransform="matrix(0.227 0 0 -0.227 5.654734e-02 179.7833)">
			<stop  offset="0" style="stop-color:#6D6E71;stop-opacity:0"/>
			<stop  offset="1" style="stop-color:#6D6E71"/>
		</linearGradient>
		<path fill="url(#SVGID_3_)" d="M194,186c-2.8,0-5.5,0.2-7.6,0.6c-0.3-0.1-0.7-0.2-0.7-0.4c0-0.5,0.9-0.7,0.6-1.1
			c-0.3-0.4-0.8,0.4-1.3,0.4s-0.6-0.2-1.7-0.4s-1,0.6-1.1,0.9s-0.8,0.3-1.3,0.4s0.4,0.6,1.1,0.6c0.5,0,1.2,0.1,1.7,0.2
			c-1.9,0.6-3,1.3-3,2.1c0,1.8,6,3.3,13.5,3.3c7.4,0,13.5-1.5,13.5-3.3S201.4,186,194,186z"/>
		<g>
			<path fill="#39B54A" d="M208.4,186.4c0-2-0.8-3.7-2-5.2c-1-1.2-2.2-2.2-3.7-2.9c0,0,0,0-0.1,0c-0.4-0.2-1.4-0.7-1.3-2l0,0v-0.1
				c0-0.3,0-0.6,0.1-1c0.1-0.9,0.5-1.8,0.9-2.6c0.1-0.2,0.1-0.4,0.2-0.6c0-0.3-0.2-0.5-0.5-0.6c-0.4,0-0.7,0.1-1,0.2
				c-0.2,0.1-0.3,0.2-0.5,0.3c-0.4,0.2-0.6,0.1-0.8-0.3c0-0.1-0.1-0.2-0.1-0.3c-0.1-0.2-0.2-0.4-0.3-0.5c-0.5-0.6-1.2-0.6-1.6,0
				c-0.2,0.2-0.3,0.4-0.3,0.6c-0.2,0.4-0.4,0.7-0.9,0.7c-0.3,0-0.6,0-1,0c-0.2,0-0.4,0-0.7,0c-0.6,0-0.9,0.5-0.6,1.1
				c0,0.1,0.1,0.2,0.2,0.3c0.4,1,0.8,1.9,1.2,2.9c0,0.1,0.1,0.2,0.2,0.3c0.3,0.8-0.3,0.9-0.4,1c-2.3,0.7-4.1,2.1-5.5,4
				c-0.7,0.9-1.2,1.9-1.4,3c-0.3,1-0.3,2-0.2,3c0.1,0.7,0.3,1.3,0.6,2c0.5,0.9,1.3,1.5,2.3,1.8c1,0.4,2,0.6,3.1,0.7
				c1.3,0.1,2.7,0.2,3.9,0.2c1.4-0.1,2.6-0.1,3.8-0.2c1.1-0.1,2.3-0.3,3.4-0.7c1.3-0.5,2.3-1.3,2.7-2.7
				C208.4,188,208.4,187.2,208.4,186.4z"/>
			<path d="M198.2,192.7L198.2,192.7c-0.4,0-0.7,0-1.1-0.1c-0.9,0-1.9-0.1-2.8-0.2c-1.2-0.1-2.2-0.3-3.2-0.7c-1.1-0.5-1.9-1.1-2.4-2
				c-0.3-0.6-0.5-1.2-0.7-2.1c-0.1-1.1-0.1-2.2,0.2-3.1c0.3-1.1,0.8-2.1,1.5-3c1.5-2,3.4-3.4,5.7-4.1c0.1,0,0.1,0,0.2-0.1
				c0-0.1,0-0.2,0-0.4c-0.1-0.1-0.2-0.2-0.2-0.4c-0.3-0.7-0.6-1.4-0.9-2.1c-0.1-0.2-0.2-0.5-0.3-0.7c0-0.1-0.1-0.1-0.1-0.2
				c0,0,0-0.1-0.1-0.1c-0.2-0.4-0.2-0.7,0-1s0.5-0.5,0.9-0.5c0.1,0,0.2,0,0.4,0c0.1,0,0.2,0,0.3,0h0.1c0.3,0,0.5,0,0.8,0
				s0.5-0.2,0.6-0.6c0.1-0.3,0.2-0.5,0.4-0.7c0.3-0.3,0.6-0.5,1-0.5l0,0c0.4,0,0.8,0.2,1,0.5c0.1,0.2,0.2,0.3,0.3,0.5v0.1
				c0,0.1,0.1,0.2,0.1,0.2v0.1c0.1,0.2,0.2,0.2,0.4,0.2c0.1,0,0.2-0.1,0.3-0.2c0,0,0.1-0.1,0.2-0.1c0.4-0.2,0.8-0.3,1.2-0.3
				c0.5,0.1,0.8,0.4,0.7,0.9c0,0.2-0.1,0.5-0.2,0.7c-0.5,0.9-0.7,1.7-0.9,2.5c0,0.3-0.1,0.6-0.1,0.9c0,0,0,0.1,0,0.2
				c-0.1,1.1,0.7,1.5,1.1,1.7h0.1c1.5,0.7,2.8,1.7,3.8,3c1.4,1.7,2,3.4,2.1,5.3l0,0c0,1-0.1,1.8-0.3,2.5c-0.4,1.4-1.4,2.3-2.9,2.9
				c-1,0.4-2.1,0.6-3.5,0.7c-0.8,0.1-1.7,0.1-2.6,0.1C199.1,192.7,198.7,192.7,198.2,192.7L198.2,192.7z M194.9,172.5L194.9,172.5
				c-0.3,0-0.4,0.1-0.5,0.2c-0.1,0.1,0,0.3,0,0.5c0,0,0,0.1,0.1,0.1c0,0.1,0.1,0.2,0.1,0.2c0.1,0.2,0.2,0.5,0.3,0.7
				c0.3,0.7,0.6,1.4,0.9,2.1c0,0.1,0.1,0.2,0.2,0.2l0,0v0.1c0.1,0.4,0.1,0.7,0,0.9s-0.3,0.3-0.5,0.4c-2.2,0.7-3.9,2-5.4,3.9
				c-0.7,0.9-1.1,1.8-1.4,2.8c-0.2,0.9-0.3,1.8-0.1,2.9c0.1,0.7,0.3,1.3,0.6,1.8c0.5,0.7,1.1,1.3,2.1,1.7c0.9,0.4,1.9,0.6,3,0.7
				c0.9,0.1,1.9,0.1,2.8,0.2c0.4,0,0.7,0,1.1,0.1c0.4,0,0.8,0,1.2,0c0.9,0,1.7-0.1,2.5-0.1c1.3-0.1,2.3-0.3,3.3-0.7
				c1.3-0.5,2.2-1.3,2.5-2.5c0.2-0.7,0.3-1.5,0.3-2.3l0,0c0-1.7-0.7-3.4-2-5c-1-1.2-2.2-2.2-3.6-2.8l0,0l0,0
				c-0.5-0.2-1.5-0.8-1.5-2.2v-0.1c0-0.3,0-0.7,0.1-1c0.1-0.9,0.4-1.7,0.9-2.7c0.1-0.1,0.1-0.3,0.1-0.5c0-0.1,0-0.2-0.2-0.2
				s-0.5,0-0.8,0.2c0,0-0.1,0-0.1,0.1c-0.1,0.1-0.2,0.1-0.4,0.2c-0.5,0.2-0.9,0.1-1.2-0.5c0,0,0-0.1-0.1-0.2c0,0,0-0.1-0.1-0.2v-0.1
				c-0.1-0.1-0.1-0.3-0.2-0.4c-0.2-0.2-0.4-0.3-0.6-0.3s-0.4,0.1-0.6,0.3c-0.1,0.1-0.2,0.3-0.3,0.5c-0.2,0.5-0.6,0.9-1.1,1
				c-0.3,0-0.6,0-0.9,0h-0.1c-0.1,0-0.2,0-0.3,0C195.1,172.5,195,172.5,194.9,172.5z"/>
		</g>
		<path opacity="0.51" fill="#A7A9AC" enable-background="new    " d="M196.3,177.2c0,0-1.2-2.6-1.4-3.2c-0.2-0.6-0.7-1.2-0.4-1.3
			s1.1,0,1.6,0s1.1-0.1,1.2-0.4c0.1-0.3,0.5-1.2,0.9,0s0.2,2.5,0.5,3.4c0.2,1,0.4,1.8,0.4,1.8s-1-0.8-1.3-1.6
			c-0.3-0.7-1.7-2.2-1.4-0.6c0.3,1.6,1.7,2.2,1.7,2.2S196.8,177.4,196.3,177.2z"/>
		
			<linearGradient id="SVGID_4_" gradientUnits="userSpaceOnUse" x1="829.2142" y1="-7.0118" x2="918.024" y2="-7.0118" gradientTransform="matrix(0.227 0 0 -0.227 5.654734e-02 179.7833)">
			<stop  offset="0" style="stop-color:#39B54A;stop-opacity:0"/>
			<stop  offset="1.641512e-02" style="stop-color:#3DB649;stop-opacity:1.641512e-02"/>
			<stop  offset="0.5039" style="stop-color:#A4DD22;stop-opacity:0.5039"/>
			<stop  offset="0.8417" style="stop-color:#E6F609;stop-opacity:0.8417"/>
			<stop  offset="1" style="stop-color:#FFFF00"/>
		</linearGradient>
		<path opacity="0.4" fill="url(#SVGID_4_)" enable-background="new    " d="M208.4,186.4c0-2-0.8-3.7-2-5.2c-1-1.2-2.2-2.2-3.7-2.9
			c0,0,0,0-0.1,0c-0.4-0.2-1.4-0.7-1.3-2l0,0v-0.1c0-0.3,0-0.6,0.1-1c0.1-0.9,0.5-1.8,0.9-2.6c0.1-0.2,0.1-0.4,0.2-0.6
			c0-0.3-0.2-0.5-0.5-0.6c-0.4,0-0.7,0.1-1,0.2c-0.2,0.1-0.3,0.2-0.5,0.3c-0.4,0.2-0.6,0.1-0.8-0.3c0-0.1-0.1-0.2-0.1-0.3
			c-0.1-0.2-0.2-0.4-0.3-0.5c-0.5-0.6-1.2-0.6-1.6,0c-0.2,0.2-0.3,0.4-0.3,0.6c-0.2,0.4-0.4,0.7-0.9,0.7c-0.3,0-0.6,0-1,0
			c-0.2,0-0.4,0-0.7,0c-0.6,0-0.9,0.5-0.6,1.1c0,0.1,0.1,0.2,0.2,0.3c0.4,1,0.8,1.9,1.2,2.9c0,0.1,0.1,0.2,0.2,0.3
			c0.3,0.8-0.3,0.9-0.4,1c-2.3,0.7-4.1,2.1-5.5,4c-0.7,0.9-1.2,1.9-1.4,3c-0.3,1-0.3,2-0.2,3c0.1,0.7,0.3,1.3,0.6,2
			c0.5,0.9,1.3,1.5,2.3,1.8c1,0.4,2,0.6,3.1,0.7c1.3,0.1,2.7,0.2,3.9,0.2c1.4-0.1,2.6-0.1,3.8-0.2c1.1-0.1,2.3-0.3,3.4-0.7
			c1.3-0.5,2.3-1.3,2.7-2.7C208.4,188,208.4,187.2,208.4,186.4z"/>
		<path opacity="0.51" fill="#A7A9AC" enable-background="new    " d="M198.8,178.7c0,0-2.3,1-3.5,2.2s-2.2,2.5-1.8,4.8
			s1.6,4.1,3.4,4.7c1.8,0.6,6.9,1.3,3.3,1.4c-3.6,0.1-4.4,0.4-8.4-0.6c-3.9-1-3-6.2-3-6.2s0.9-3,3.2-4.9c2.2-1.9,4.1-2.2,4.1-2.2
			S197.6,178.7,198.8,178.7z"/>
		<g>
			<path fill="#FFFFFF" d="M197.9,188.4v-0.8c-1.1-0.2-1.7-0.7-1.8-1.9h1.2c0,0.4,0.2,0.9,0.6,1v-2c-1.2-0.6-1.7-1.1-1.7-1.9
				c0-0.9,0.7-1.5,1.7-1.6v-0.4h0.7v0.4c1.2,0.1,1.8,0.8,1.8,1.7h-1.2c-0.1-0.5-0.2-0.7-0.6-0.8v1.6c1.2,0.5,2.1,1,2.1,2.2
				c0,1-0.8,1.8-2.1,1.8v0.8L197.9,188.4L197.9,188.4z M197.9,182.1c-0.4,0.1-0.5,0.2-0.5,0.5s0.1,0.4,0.5,0.7V182.1z M199.5,185.9
				c0-0.4-0.3-0.7-0.9-1v1.7C199.2,186.7,199.5,186.3,199.5,185.9z"/>
		</g>
		<path d="M196,176.7c0,0,0.1,0.3,1.6,0.6s3.5-0.6,3.5-0.6s0.2-0.2,0.6-0.1c0.4,0.1,0.7,0.6,0.4,0.9s-1,0.9-1.7,1s-2.6-0.1-3.7-0.5
			c-1.2-0.4-1.5-0.7-1.5-1C195.1,176.7,195.6,176.5,196,176.7z"/>
	</g>
	<g>
		
			<linearGradient id="SVGID_5_" gradientUnits="userSpaceOnUse" x1="841.0736" y1="-77.3989" x2="911.2498" y2="-83.5969" gradientTransform="matrix(0.227 0 0 -0.227 5.654734e-02 179.7833)">
			<stop  offset="0" style="stop-color:#6D6E71;stop-opacity:0"/>
			<stop  offset="1" style="stop-color:#6D6E71"/>
		</linearGradient>
		<path fill="url(#SVGID_5_)" d="M204.4,195.3c-2.8,0-5.5,0.2-7.6,0.6c-0.3-0.1-0.7-0.2-0.7-0.4c0-0.5,0.9-0.7,0.6-1.1
			c-0.3-0.4-0.8,0.4-1.3,0.4s-0.6-0.2-1.7-0.4c-1.1-0.2-1,0.6-1.1,0.9c-0.2,0.3-0.8,0.3-1.3,0.4c-0.5,0.1,0.4,0.6,1.1,0.6
			c0.5,0,1.2,0.1,1.7,0.2c-1.9,0.6-3,1.3-3,2.1c0,1.8,6,3.3,13.5,3.3c7.4,0,13.5-1.5,13.5-3.3S211.8,195.3,204.4,195.3z"/>
		<path fill="#39B54A" d="M218.9,195.7c0-2-0.8-3.7-2-5.2c-1-1.2-2.2-2.2-3.7-2.9c0,0,0,0-0.1,0c-0.4-0.2-1.4-0.7-1.3-2l0,0v-0.1
			c0-0.3,0-0.6,0.1-1c0.1-0.9,0.5-1.8,0.9-2.6c0.1-0.2,0.1-0.4,0.2-0.6c0-0.3-0.2-0.5-0.5-0.6c-0.4,0-0.7,0.1-1,0.2
			c-0.2,0.1-0.3,0.2-0.5,0.3c-0.4,0.2-0.6,0.1-0.8-0.3c0-0.1-0.1-0.2-0.1-0.3c-0.1-0.2-0.2-0.4-0.3-0.5c-0.5-0.6-1.2-0.6-1.6,0
			c-0.2,0.2-0.3,0.4-0.3,0.6c-0.2,0.4-0.4,0.7-0.9,0.7c-0.3,0-0.6,0-1,0c-0.2,0-0.4,0-0.7,0c-0.6,0-0.9,0.5-0.6,1.1
			c0,0.1,0.1,0.2,0.2,0.3c0.4,1,0.8,1.9,1.2,2.9c0,0.1,0.1,0.2,0.2,0.3c0.3,0.8-0.3,0.9-0.4,1c-2.3,0.7-4.1,2.1-5.5,4
			c-0.7,0.9-1.2,1.9-1.4,3c-0.3,1-0.3,2-0.2,3c0.1,0.7,0.3,1.3,0.6,2c0.5,0.9,1.3,1.5,2.3,1.8c1,0.4,2,0.6,3.1,0.7
			c1.3,0.1,2.7,0.2,3.9,0.2c1.4-0.1,2.6-0.1,3.8-0.2c1.1-0.1,2.3-0.3,3.4-0.7c1.3-0.5,2.3-1.3,2.7-2.7
			C218.8,197.3,218.9,196.5,218.9,195.7z"/>
		<path d="M208.7,202L208.7,202c-0.4,0-0.7,0-1.1-0.1c-0.9,0-1.9-0.1-2.8-0.2c-1.2-0.1-2.2-0.3-3.2-0.7c-1.1-0.5-1.9-1.1-2.4-2
			c-0.3-0.6-0.5-1.2-0.7-2.1c-0.1-1.1-0.1-2.2,0.2-3.1c0.3-1.1,0.8-2.1,1.5-3c1.5-2,3.4-3.4,5.7-4.1c0.1,0,0.1,0,0.2-0.1
			c0-0.1,0-0.2,0-0.4c-0.1-0.1-0.2-0.2-0.2-0.4c-0.3-0.7-0.6-1.4-0.9-2.1c-0.1-0.2-0.2-0.5-0.3-0.7c0-0.1-0.1-0.1-0.1-0.2
			c0,0,0-0.1-0.1-0.1c-0.2-0.4-0.2-0.7,0-1s0.5-0.5,0.9-0.5c0.1,0,0.2,0,0.4,0c0.1,0,0.2,0,0.3,0h0.1c0.3,0,0.5,0,0.8,0
			s0.5-0.2,0.6-0.6c0.1-0.3,0.2-0.5,0.4-0.7c0.3-0.3,0.6-0.5,1-0.5l0,0c0.4,0,0.8,0.2,1,0.5c0.1,0.2,0.2,0.3,0.3,0.5v0.1
			c0,0.1,0.1,0.2,0.1,0.2v0.1c0.1,0.2,0.2,0.2,0.4,0.2c0.1,0,0.2-0.1,0.3-0.2c0,0,0.1-0.1,0.2-0.1c0.4-0.2,0.8-0.3,1.2-0.3
			c0.5,0.1,0.8,0.4,0.7,0.9c0,0.2-0.1,0.5-0.2,0.7c-0.5,0.9-0.7,1.7-0.9,2.5c0,0.3-0.1,0.6-0.1,0.9c0,0,0,0.1,0,0.2
			c-0.1,1.1,0.7,1.5,1.1,1.7h0.1c1.5,0.7,2.8,1.7,3.8,3c1.4,1.7,2,3.4,2.1,5.3l0,0c0,1-0.1,1.8-0.3,2.5c-0.4,1.4-1.4,2.3-2.9,2.9
			c-1,0.4-2.1,0.6-3.5,0.7c-0.8,0.1-1.7,0.1-2.6,0.1C209.5,202,209.1,202,208.7,202L208.7,202z M205.4,181.8
			C205.4,181.8,205.3,181.8,205.4,181.8c-0.3,0-0.4,0.1-0.5,0.2c-0.1,0.1,0,0.3,0,0.5c0,0,0,0.1,0.1,0.1c0,0.1,0.1,0.2,0.1,0.2
			c0.1,0.2,0.2,0.5,0.3,0.7c0.3,0.7,0.6,1.4,0.9,2.1c0,0.1,0.1,0.2,0.2,0.2l0,0v0.1c0.1,0.4,0.1,0.7,0,0.9s-0.3,0.3-0.5,0.4
			c-2.2,0.7-3.9,2-5.4,3.9c-0.7,0.9-1.1,1.8-1.4,2.8c-0.2,0.9-0.3,1.8-0.1,2.9c0.1,0.7,0.3,1.3,0.6,1.8c0.5,0.7,1.1,1.3,2.1,1.7
			c0.9,0.4,1.9,0.6,3,0.7c0.9,0.1,1.9,0.1,2.8,0.2c0.4,0,0.7,0,1.1,0.1c0.4,0,0.8,0,1.2,0c0.9,0,1.7-0.1,2.5-0.1
			c1.3-0.1,2.3-0.3,3.3-0.7c1.3-0.5,2.2-1.3,2.5-2.5c0.2-0.7,0.3-1.5,0.3-2.3l0,0c0-1.7-0.7-3.4-2-5c-1-1.2-2.2-2.2-3.6-2.8l0,0l0,0
			c-0.5-0.2-1.5-0.8-1.5-2.2v-0.1c0-0.3,0-0.7,0.1-1c0.1-0.9,0.4-1.7,0.9-2.7c0.1-0.1,0.1-0.3,0.1-0.5c0-0.1,0-0.2-0.2-0.2
			s-0.5,0-0.8,0.2c0,0-0.1,0-0.1,0.1c-0.1,0.1-0.2,0.1-0.4,0.2c-0.5,0.2-0.9,0.1-1.2-0.5c0,0,0-0.1-0.1-0.2c0,0,0-0.1-0.1-0.2v-0.1
			c-0.1-0.1-0.1-0.3-0.2-0.4c-0.2-0.2-0.4-0.3-0.6-0.3c-0.2,0-0.4,0.1-0.6,0.3c-0.1,0.1-0.2,0.3-0.3,0.5c-0.2,0.5-0.6,0.9-1.1,1
			c-0.3,0-0.6,0-0.9,0h0.1c-0.1,0-0.2,0-0.3,0C205.5,181.8,205.4,181.8,205.4,181.8z"/>
		<path opacity="0.51" fill="#A7A9AC" enable-background="new    " d="M206.8,186.5c0,0-1.2-2.6-1.4-3.2c-0.2-0.6-0.7-1.2-0.4-1.3
			s1.1,0,1.6,0s1.1-0.1,1.2-0.4c0.1-0.3,0.5-1.2,0.9,0s0.2,2.5,0.5,3.4c0.2,1,0.4,1.8,0.4,1.8s-1-0.8-1.3-1.6
			c-0.3-0.7-1.7-2.2-1.4-0.6c0.3,1.6,1.7,2.2,1.7,2.2S207.2,186.7,206.8,186.5z"/>
		
			<linearGradient id="SVGID_6_" gradientUnits="userSpaceOnUse" x1="875.2582" y1="-47.981" x2="964.0681" y2="-47.981" gradientTransform="matrix(0.227 0 0 -0.227 5.654734e-02 179.7833)">
			<stop  offset="0" style="stop-color:#39B54A;stop-opacity:0"/>
			<stop  offset="1.641512e-02" style="stop-color:#3DB649;stop-opacity:1.641512e-02"/>
			<stop  offset="0.5039" style="stop-color:#A4DD22;stop-opacity:0.5039"/>
			<stop  offset="0.8417" style="stop-color:#E6F609;stop-opacity:0.8417"/>
			<stop  offset="1" style="stop-color:#FFFF00"/>
		</linearGradient>
		<path display="none" opacity="0.4" fill="url(#SVGID_6_)" enable-background="new    " d="M218.9,195.7c0-2-0.8-3.7-2-5.2
			c-1-1.2-2.2-2.2-3.7-2.9c0,0,0,0-0.1,0c-0.4-0.2-1.4-0.7-1.3-2l0,0v-0.1c0-0.3,0-0.6,0.1-1c0.1-0.9,0.5-1.8,0.9-2.6
			c0.1-0.2,0.1-0.4,0.2-0.6c0-0.3-0.2-0.5-0.5-0.6c-0.4,0-0.7,0.1-1,0.2c-0.2,0.1-0.3,0.2-0.5,0.3c-0.4,0.2-0.6,0.1-0.8-0.3
			c0-0.1-0.1-0.2-0.1-0.3c-0.1-0.2-0.2-0.4-0.3-0.5c-0.5-0.6-1.2-0.6-1.6,0c-0.2,0.2-0.3,0.4-0.3,0.6c-0.2,0.4-0.4,0.7-0.9,0.7
			c-0.3,0-0.6,0-1,0c-0.2,0-0.4,0-0.7,0c-0.6,0-0.9,0.5-0.6,1.1c0,0.1,0.1,0.2,0.2,0.3c0.4,1,0.8,1.9,1.2,2.9c0,0.1,0.1,0.2,0.2,0.3
			c0.3,0.8-0.3,0.9-0.4,1c-2.3,0.7-4.1,2.1-5.5,4c-0.7,0.9-1.2,1.9-1.4,3c-0.3,1-0.3,2-0.2,3c0.1,0.7,0.3,1.3,0.6,2
			c0.5,0.9,1.3,1.5,2.3,1.8c1,0.4,2,0.6,3.1,0.7c1.3,0.1,2.7,0.2,3.9,0.2c1.4-0.1,2.6-0.1,3.8-0.2c1.1-0.1,2.3-0.3,3.4-0.7
			c1.3-0.5,2.3-1.3,2.7-2.7C218.8,197.3,218.9,196.5,218.9,195.7z"/>
		<path opacity="0.51" fill="#A7A9AC" enable-background="new    " d="M209.2,188c0,0-2.3,1-3.5,2.2s-2.2,2.5-1.8,4.8
			s1.6,4.1,3.4,4.7c1.8,0.6,6.9,1.3,3.3,1.4c-3.6,0.1-4.4,0.4-8.4-0.6c-3.9-1-3-6.2-3-6.2s0.9-3,3.2-4.9c2.2-1.9,4.1-2.2,4.1-2.2
			S208,188,209.2,188z"/>
		<g>
			<path fill="#FFFFFF" d="M208.4,197.7v-0.8c-1.1-0.2-1.7-0.7-1.8-1.9h1.2c0,0.4,0.2,0.9,0.6,1v-2c-1.2-0.6-1.7-1.1-1.7-1.9
				c0-0.9,0.7-1.5,1.7-1.6V190h0.7v0.4c1.2,0.1,1.8,0.8,1.8,1.7h-1.2c-0.1-0.5-0.2-0.7-0.6-0.8v1.6c1.2,0.5,2.1,1,2.1,2.2
				c0,1-0.8,1.8-2.1,1.8v0.8H208.4L208.4,197.7z M208.4,191.4c-0.4,0.1-0.5,0.2-0.5,0.5s0.1,0.4,0.5,0.7V191.4z M209.9,195.2
				c0-0.4-0.3-0.7-0.9-1v1.7C209.6,196,209.9,195.7,209.9,195.2z"/>
		</g>
		<path d="M206.4,186c0,0,0.1,0.3,1.6,0.6s3.5-0.6,3.5-0.6s0.2-0.2,0.6-0.1s0.7,0.6,0.4,0.9c-0.4,0.3-1,0.9-1.7,1s-2.6-0.1-3.7-0.5
			c-1.2-0.4-1.5-0.7-1.5-1C205.5,186.1,206.1,185.8,206.4,186z"/>
	</g>
	<g>
		
			<linearGradient id="SVGID_7_" gradientUnits="userSpaceOnUse" x1="955.0486" y1="-56.6833" x2="1025.2247" y2="-62.8813" gradientTransform="matrix(0.227 0 0 -0.227 5.654734e-02 179.7833)">
			<stop  offset="0" style="stop-color:#6D6E71;stop-opacity:0"/>
			<stop  offset="1" style="stop-color:#6D6E71"/>
		</linearGradient>
		<path fill="url(#SVGID_7_)" d="M230.3,190.6c-2.8,0-5.5,0.2-7.6,0.6c-0.3-0.1-0.7-0.2-0.7-0.4c0-0.5,0.9-0.7,0.6-1.1
			c-0.3-0.4-0.8,0.4-1.3,0.4s-0.6-0.2-1.7-0.4c-1.1-0.2-1,0.6-1.1,0.9c-0.2,0.3-0.8,0.3-1.3,0.4c-0.5,0.1,0.4,0.6,1.1,0.6
			c0.5,0,1.2,0.1,1.7,0.2c-1.9,0.6-3,1.3-3,2.1c0,1.8,6,3.3,13.5,3.3c7.4,0,13.5-1.5,13.5-3.3S237.7,190.6,230.3,190.6z"/>
		<g>
			<path fill="#39B54A" d="M244.7,190.9c0-2-0.8-3.7-2-5.2c-1-1.2-2.2-2.2-3.7-2.9c0,0,0,0-0.1,0c-0.4-0.2-1.4-0.7-1.3-2l0,0v-0.1
				c0-0.3,0-0.6,0.1-1c0.1-0.9,0.5-1.8,0.9-2.6c0.1-0.2,0.1-0.4,0.2-0.6c0-0.3-0.2-0.5-0.5-0.6c-0.4,0-0.7,0.1-1,0.2
				c-0.2,0.1-0.3,0.2-0.5,0.3c-0.4,0.2-0.6,0.1-0.8-0.3c0-0.1-0.1-0.2-0.1-0.3c-0.1-0.2-0.2-0.4-0.3-0.5c-0.5-0.6-1.2-0.6-1.6,0
				c-0.2,0.2-0.3,0.4-0.3,0.6c-0.2,0.4-0.4,0.7-0.9,0.7c-0.3,0-0.6,0-1,0c-0.2,0-0.4,0-0.7,0c-0.6,0-0.9,0.5-0.6,1.1
				c0,0.1,0.1,0.2,0.2,0.3c0.4,1,0.8,1.9,1.2,2.9c0,0.1,0.1,0.2,0.2,0.3c0.3,0.8-0.3,0.9-0.4,1c-2.3,0.7-4.1,2.1-5.5,4
				c-0.7,0.9-1.2,1.9-1.4,3c-0.3,1-0.3,2-0.2,3c0.1,0.7,0.3,1.3,0.6,2c0.5,0.9,1.3,1.5,2.3,1.8c1,0.4,2,0.6,3.1,0.7
				c1.3,0.1,2.7,0.2,3.9,0.2c1.4-0.1,2.6-0.1,3.8-0.2c1.1-0.1,2.3-0.3,3.4-0.7c1.3-0.5,2.3-1.3,2.7-2.7
				C244.7,192.5,244.8,191.7,244.7,190.9z"/>
			<path d="M234.5,197.2L234.5,197.2c-0.4,0-0.7,0-1.1-0.1c-0.9,0-1.9-0.1-2.8-0.2c-1.2-0.1-2.2-0.3-3.2-0.7c-1.1-0.5-1.9-1.1-2.4-2
				c-0.3-0.6-0.5-1.2-0.7-2.1c-0.1-1.1-0.1-2.2,0.2-3.1c0.3-1.1,0.8-2.1,1.5-3c1.5-2,3.4-3.4,5.7-4.1c0.1,0,0.1,0,0.2-0.1
				c0-0.1,0-0.2,0-0.4c-0.1-0.1-0.2-0.2-0.2-0.4c-0.3-0.7-0.6-1.4-0.9-2.1c-0.1-0.2-0.2-0.5-0.3-0.7c0-0.1-0.1-0.1-0.1-0.2
				c0,0,0-0.1-0.1-0.1c-0.2-0.4-0.2-0.7,0-1s0.5-0.5,0.9-0.5c0.1,0,0.2,0,0.4,0c0.1,0,0.2,0,0.3,0h0.1c0.3,0,0.5,0,0.8,0
				s0.5-0.2,0.6-0.6c0.1-0.3,0.2-0.5,0.4-0.7c0.3-0.3,0.6-0.5,1-0.5l0,0c0.4,0,0.8,0.2,1,0.5c0.1,0.2,0.2,0.3,0.3,0.5v0.1
				c0,0.1,0.1,0.2,0.1,0.2v0.1c0.1,0.2,0.2,0.2,0.4,0.2c0.1,0,0.2-0.1,0.3-0.2c0,0,0.1-0.1,0.2-0.1c0.4-0.2,0.8-0.3,1.2-0.3
				c0.5,0.1,0.8,0.4,0.7,0.9c0,0.2-0.1,0.5-0.2,0.7c-0.5,0.9-0.7,1.7-0.9,2.5c0,0.3-0.1,0.6-0.1,0.9c0,0,0,0.1,0,0.2
				c-0.1,1.1,0.7,1.5,1.1,1.7h0.1c1.5,0.7,2.8,1.7,3.8,3c1.4,1.7,2,3.4,2.1,5.3l0,0c0,1-0.1,1.8-0.3,2.5c-0.4,1.4-1.4,2.3-2.9,2.9
				c-1,0.4-2.1,0.6-3.5,0.7c-0.8,0.1-1.7,0.1-2.6,0.1C235.4,197.2,235,197.2,234.5,197.2L234.5,197.2z M231.3,177.1
				C231.2,177.1,231.2,177.1,231.3,177.1c-0.3,0-0.4,0.1-0.5,0.2c-0.1,0.1,0,0.3,0,0.5c0,0,0,0.1,0.1,0.1c0,0.1,0.1,0.2,0.1,0.2
				c0.1,0.2,0.2,0.5,0.3,0.7c0.3,0.7,0.6,1.4,0.9,2.1c0,0.1,0.1,0.2,0.2,0.2l0,0v0.1c0.1,0.4,0.1,0.7,0,0.9s-0.3,0.3-0.5,0.4
				c-2.2,0.7-3.9,2-5.4,3.9c-0.7,0.9-1.1,1.8-1.4,2.8c-0.2,0.9-0.3,1.8-0.1,2.9c0.1,0.7,0.3,1.3,0.6,1.8c0.5,0.7,1.1,1.3,2.1,1.7
				c0.9,0.4,1.9,0.6,3,0.7c0.9,0.1,1.9,0.1,2.8,0.2c0.4,0,0.7,0,1.1,0.1c0.4,0,0.8,0,1.2,0c0.9,0,1.7-0.1,2.5-0.1
				c1.3-0.1,2.3-0.3,3.3-0.7c1.3-0.5,2.2-1.3,2.5-2.5c0.2-0.7,0.3-1.5,0.3-2.3l0,0c0-1.7-0.7-3.4-2-5c-1-1.2-2.2-2.2-3.6-2.8l0,0
				l0,0c-0.5-0.2-1.5-0.8-1.5-2.2v-0.1c0-0.3,0-0.7,0.1-1c0.1-0.9,0.4-1.7,0.9-2.7c0.1-0.1,0.1-0.3,0.1-0.5c0-0.1,0-0.2-0.2-0.2
				s-0.5,0-0.8,0.2c0,0-0.1,0-0.1,0.1c-0.1,0.1-0.2,0.1-0.4,0.2c-0.5,0.2-0.9,0.1-1.2-0.5c0,0,0-0.1-0.1-0.2c0,0,0-0.1-0.1-0.2V176
				c-0.1-0.1-0.1-0.3-0.2-0.4c-0.2-0.2-0.4-0.3-0.6-0.3c-0.2,0-0.4,0.1-0.6,0.3c-0.1,0.1-0.2,0.3-0.3,0.5c-0.2,0.5-0.6,0.9-1.1,1
				c-0.3,0-0.6,0-0.9,0h-0.1c-0.1,0-0.2,0-0.3,0C231.4,177.1,231.3,177.1,231.3,177.1z"/>
		</g>
		<path opacity="0.51" fill="#A7A9AC" enable-background="new    " d="M232.7,181.7c0,0-1.2-2.6-1.4-3.2c-0.2-0.6-0.7-1.2-0.4-1.3
			s1.1,0,1.6,0s1.1-0.1,1.2-0.4c0.1-0.3,0.5-1.2,0.9,0s0.2,2.5,0.5,3.4c0.2,1,0.4,1.8,0.4,1.8s-1-0.8-1.3-1.6s-1.7-2.2-1.4-0.6
			c0.3,1.6,1.7,2.2,1.7,2.2S233.1,182,232.7,181.7z"/>
		
			<linearGradient id="SVGID_8_" gradientUnits="userSpaceOnUse" x1="989.2142" y1="-26.8356" x2="1078.0387" y2="-26.8356" gradientTransform="matrix(0.227 0 0 -0.227 5.654734e-02 179.7833)">
			<stop  offset="0" style="stop-color:#39B54A;stop-opacity:0"/>
			<stop  offset="1.641512e-02" style="stop-color:#3DB649;stop-opacity:1.641512e-02"/>
			<stop  offset="0.5039" style="stop-color:#A4DD22;stop-opacity:0.5039"/>
			<stop  offset="0.8417" style="stop-color:#E6F609;stop-opacity:0.8417"/>
			<stop  offset="1" style="stop-color:#FFFF00"/>
		</linearGradient>
		<path opacity="0.4" fill="url(#SVGID_8_)" enable-background="new    " d="M244.7,190.9c0-2-0.8-3.7-2-5.2c-1-1.2-2.2-2.2-3.7-2.9
			c0,0,0,0-0.1,0c-0.4-0.2-1.4-0.7-1.3-2l0,0v-0.1c0-0.3,0-0.6,0.1-1c0.1-0.9,0.5-1.8,0.9-2.6c0.1-0.2,0.1-0.4,0.2-0.6
			c0-0.3-0.2-0.5-0.5-0.6c-0.4,0-0.7,0.1-1,0.2c-0.2,0.1-0.3,0.2-0.5,0.3c-0.4,0.2-0.6,0.1-0.8-0.3c0-0.1-0.1-0.2-0.1-0.3
			c-0.1-0.2-0.2-0.4-0.3-0.5c-0.5-0.6-1.2-0.6-1.6,0c-0.2,0.2-0.3,0.4-0.3,0.6c-0.2,0.4-0.4,0.7-0.9,0.7c-0.3,0-0.6,0-1,0
			c-0.2,0-0.4,0-0.7,0c-0.6,0-0.9,0.5-0.6,1.1c0,0.1,0.1,0.2,0.2,0.3c0.4,1,0.8,1.9,1.2,2.9c0,0.1,0.1,0.2,0.2,0.3
			c0.3,0.8-0.3,0.9-0.4,1c-2.3,0.7-4.1,2.1-5.5,4c-0.7,0.9-1.2,1.9-1.4,3c-0.3,1-0.3,2-0.2,3c0.1,0.7,0.3,1.3,0.6,2
			c0.5,0.9,1.3,1.5,2.3,1.8c1,0.4,2,0.6,3.1,0.7c1.3,0.1,2.7,0.2,3.9,0.2c1.4-0.1,2.6-0.1,3.8-0.2c1.1-0.1,2.3-0.3,3.4-0.7
			c1.3-0.5,2.3-1.3,2.7-2.7C244.7,192.5,244.8,191.7,244.7,190.9z"/>
		<path opacity="0.51" fill="#A7A9AC" enable-background="new    " d="M235.1,183.3c0,0-2.3,1-3.5,2.2s-2.2,2.5-1.8,4.8
			s1.6,4.1,3.4,4.7c1.8,0.6,6.9,1.3,3.3,1.4c-3.6,0.1-4.4,0.4-8.4-0.6c-3.9-1-3-6.2-3-6.2s0.9-3,3.2-4.9c2.2-1.9,4.1-2.2,4.1-2.2
			S233.9,183.3,235.1,183.3z"/>
		<g>
			<path fill="#FFFFFF" d="M234.3,193v-0.8c-1.1-0.2-1.7-0.7-1.8-1.9h1.2c0,0.4,0.2,0.9,0.6,1v-2c-1.2-0.6-1.7-1.1-1.7-1.9
				c0-0.9,0.7-1.5,1.7-1.6v-0.4h0.7v0.4c1.2,0.1,1.8,0.8,1.8,1.7h-1.2c-0.1-0.5-0.2-0.7-0.6-0.8v1.6c1.2,0.5,2.1,1,2.1,2.2
				c0,1-0.8,1.8-2.1,1.8v0.8L234.3,193L234.3,193z M234.3,186.6c-0.4,0.1-0.5,0.2-0.5,0.5s0.1,0.4,0.5,0.7V186.6z M235.8,190.5
				c0-0.4-0.3-0.7-0.9-1v1.7C235.5,191.2,235.8,190.9,235.8,190.5z"/>
		</g>
		<path d="M232.3,181.2c0,0,0.1,0.3,1.6,0.6s3.5-0.6,3.5-0.6s0.2-0.2,0.6-0.1c0.4,0.1,0.7,0.6,0.4,0.9c-0.4,0.3-1,0.9-1.7,1
			s-2.6-0.1-3.7-0.5c-1.2-0.4-1.5-0.7-1.5-1C231.4,181.3,232,181,232.3,181.2z"/>
	</g>
</g>
</svg>
