<?xml version="1.0" encoding="utf-8"?>
<!-- Generator: Adobe Illustrator 18.0.0, SVG Export Plug-In . SVG Version: 6.00 Build 0)  -->
<!DOCTYPE svg PUBLIC "-//W3C//DTD SVG 1.1//EN" "http://www.w3.org/Graphics/SVG/1.1/DTD/svg11.dtd">
<svg version="1.1" id="Layer_1" xmlns="http://www.w3.org/2000/svg" xmlns:xlink="http://www.w3.org/1999/xlink" x="0px" y="0px"
	 width="57.4px" height="34px" viewBox="28.5 166 57.4 34" enable-background="new 28.5 166 57.4 34" xml:space="preserve">
<g>
	<g id="Leftside_money_bags_material">
		
			<linearGradient id="SVGID_1_" gradientUnits="userSpaceOnUse" x1="243.0476" y1="-41.6959" x2="313.2238" y2="-47.8939" gradientTransform="matrix(0.227 0 0 -0.227 5.654865e-02 179.7833)">
			<stop  offset="0" style="stop-color:#6D6E71;stop-opacity:0"/>
			<stop  offset="1" style="stop-color:#6D6E71"/>
		</linearGradient>
		<path fill="url(#SVGID_1_)" d="M68.7,187.2c-2.8,0-5.5,0.2-7.6,0.6c-0.3-0.1-0.7-0.2-0.7-0.4c0-0.5,0.9-0.7,0.6-1.1
			c-0.3-0.4-0.8,0.4-1.3,0.4s-0.6-0.2-1.7-0.4c-1.1-0.2-1,0.6-1.1,0.9c-0.2,0.3-0.8,0.3-1.3,0.4c-0.5,0.1,0.4,0.6,1.1,0.6
			c0.5,0,1.2,0.1,1.7,0.2c-1.9,0.6-3,1.3-3,2.1c0,1.8,6,3.3,13.5,3.3s13.5-1.5,13.5-3.3S76.1,187.2,68.7,187.2z"/>
		<g>
			<path fill="#39B54A" d="M83.1,187.5c0-2-0.8-3.7-2-5.2c-1-1.2-2.2-2.2-3.7-2.9c0,0,0,0-0.1,0c-0.4-0.2-1.4-0.7-1.3-2l0,0v-0.1
				c0-0.3,0-0.6,0.1-1c0.1-0.9,0.5-1.8,0.9-2.6c0.1-0.2,0.1-0.4,0.2-0.6c0-0.3-0.2-0.5-0.5-0.6c-0.4,0-0.7,0.1-1,0.2
				c-0.2,0.1-0.3,0.2-0.5,0.3c-0.4,0.2-0.6,0.1-0.8-0.3c0-0.1-0.1-0.2-0.1-0.3c-0.1-0.2-0.2-0.4-0.3-0.5c-0.5-0.6-1.2-0.6-1.6,0
				c-0.2,0.2-0.3,0.4-0.3,0.6c-0.2,0.4-0.4,0.7-0.9,0.7c-0.3,0-0.6,0-1,0c-0.2,0-0.4,0-0.7,0c-0.6,0-0.9,0.5-0.6,1.1
				c0,0.1,0.1,0.2,0.2,0.3c0.4,1,0.8,1.9,1.2,2.9c0,0.1,0.1,0.2,0.2,0.3c0.3,0.8-0.3,0.9-0.4,1c-2.3,0.7-4.1,2.1-5.5,4
				c-0.7,0.9-1.2,1.9-1.4,3c-0.3,1-0.3,2-0.2,3c0.1,0.7,0.3,1.3,0.6,2c0.5,0.9,1.3,1.5,2.3,1.8c1,0.4,2,0.6,3.1,0.7
				c1.3,0.1,2.7,0.2,3.9,0.2c1.4-0.1,2.6-0.1,3.8-0.2c1.1-0.1,2.3-0.3,3.4-0.7c1.3-0.5,2.3-1.3,2.7-2.7
				C83.1,189.1,83.1,188.3,83.1,187.5z"/>
			<path d="M72.9,193.8L72.9,193.8c-0.4,0-0.7,0-1.1-0.1c-0.9,0-1.9-0.1-2.8-0.2c-1.2-0.1-2.2-0.3-3.2-0.7c-1.1-0.5-1.9-1.1-2.4-2
				c-0.3-0.6-0.5-1.2-0.7-2.1c-0.1-1.1-0.1-2.2,0.2-3.1c0.3-1.1,0.8-2.1,1.5-3c1.5-2,3.4-3.4,5.7-4.1c0.1,0,0.1,0,0.2-0.1
				c0-0.1,0-0.2,0-0.4c-0.1-0.1-0.2-0.2-0.2-0.4c-0.3-0.7-0.6-1.4-0.9-2.1c-0.1-0.2-0.2-0.5-0.3-0.7c0-0.1-0.1-0.1-0.1-0.2
				c0,0,0-0.1-0.1-0.1c-0.2-0.4-0.2-0.7,0-1s0.5-0.5,0.9-0.5c0.1,0,0.2,0,0.4,0c0.1,0,0.2,0,0.3,0h0.1c0.3,0,0.5,0,0.8,0
				s0.5-0.2,0.6-0.6c0.1-0.3,0.2-0.5,0.4-0.7c0.3-0.3,0.6-0.5,1-0.5l0,0c0.4,0,0.8,0.2,1,0.5c0.1,0.2,0.2,0.3,0.3,0.5v0.1
				c0,0.1,0.1,0.2,0.1,0.2v0.1c0.1,0.2,0.2,0.2,0.4,0.2c0.1,0,0.2-0.1,0.3-0.2c0,0,0.1-0.1,0.2-0.1c0.4-0.2,0.8-0.3,1.2-0.3
				c0.5,0.1,0.8,0.4,0.7,0.9c0,0.2-0.1,0.5-0.2,0.7c-0.5,0.9-0.7,1.7-0.9,2.5c0,0.3-0.1,0.6-0.1,0.9c0,0,0,0.1,0,0.2
				c-0.1,1.1,0.7,1.5,1.1,1.7h0.1c1.5,0.7,2.8,1.7,3.8,3c1.4,1.7,2,3.4,2.1,5.3l0,0c0,1-0.1,1.8-0.3,2.5c-0.4,1.4-1.4,2.3-2.9,2.9
				c-1,0.4-2.1,0.6-3.5,0.7c-0.8,0.1-1.7,0.1-2.6,0.1C73.8,193.8,73.4,193.8,72.9,193.8L72.9,193.8z M69.6,173.7L69.6,173.7
				c-0.3,0-0.4,0.1-0.5,0.2c-0.1,0.1,0,0.3,0,0.5c0,0,0,0.1,0.1,0.1c0,0.1,0.1,0.2,0.1,0.2c0.1,0.2,0.2,0.5,0.3,0.7
				c0.3,0.7,0.6,1.4,0.9,2.1c0,0.1,0.1,0.2,0.2,0.2l0,0v0.1c0.1,0.4,0.1,0.7,0,0.9s-0.3,0.3-0.5,0.4c-2.2,0.7-3.9,2-5.4,3.9
				c-0.7,0.9-1.1,1.8-1.4,2.8c-0.2,0.9-0.3,1.8-0.1,2.9c0.1,0.7,0.3,1.3,0.6,1.8c0.5,0.7,1.1,1.3,2.1,1.7c0.9,0.4,1.9,0.6,3,0.7
				c0.9,0.1,1.9,0.1,2.8,0.2c0.4,0,0.7,0,1.1,0.1c0.4,0,0.8,0,1.2,0c0.9,0,1.7-0.1,2.5-0.1c1.3-0.1,2.3-0.3,3.3-0.7
				c1.3-0.5,2.2-1.3,2.5-2.5c0.2-0.7,0.3-1.5,0.3-2.3l0,0c0-1.7-0.7-3.4-2-5c-1-1.2-2.2-2.2-3.6-2.8l0,0l0,0
				c-0.5-0.2-1.5-0.8-1.5-2.2v-0.1c0-0.3,0-0.7,0.1-1c0.1-0.9,0.4-1.7,0.9-2.7c0.1-0.1,0.1-0.3,0.1-0.5c0-0.1,0-0.2-0.2-0.2
				s-0.5,0-0.8,0.2c0,0-0.1,0-0.1,0.1c-0.1,0.1-0.2,0.1-0.4,0.2c-0.5,0.2-0.9,0.1-1.2-0.5c0,0,0-0.1-0.1-0.2c0,0,0-0.1-0.1-0.2v-0.1
				c-0.1-0.1-0.1-0.3-0.2-0.4c-0.2-0.2-0.4-0.3-0.6-0.3s-0.4,0.1-0.6,0.3c-0.1,0.1-0.2,0.3-0.3,0.5c-0.2,0.5-0.6,0.9-1.1,1
				c-0.3,0-0.6,0-0.9,0H70C69.9,173.7,69.8,173.7,69.6,173.7C69.8,173.7,69.7,173.7,69.6,173.7z"/>
		</g>
		<path opacity="0.51" fill="#A7A9AC" enable-background="new    " d="M71,178.3c0,0-1.2-2.6-1.4-3.2c-0.2-0.6-0.7-1.2-0.4-1.3
			c0.3-0.1,1.1,0,1.6,0c0.4,0,1.1-0.1,1.2-0.4c0.1-0.3,0.5-1.2,0.9,0s0.2,2.5,0.5,3.4c0.2,1,0.4,1.8,0.4,1.8s-1-0.8-1.3-1.6
			c-0.3-0.7-1.7-2.2-1.4-0.6c0.3,1.6,1.7,2.2,1.7,2.2S71.5,178.6,71,178.3z"/>
		
			<linearGradient id="SVGID_2_" gradientUnits="userSpaceOnUse" x1="277.2142" y1="-11.8576" x2="366.024" y2="-11.8576" gradientTransform="matrix(0.227 0 0 -0.227 5.654865e-02 179.7833)">
			<stop  offset="0" style="stop-color:#39B54A;stop-opacity:0"/>
			<stop  offset="1.641512e-02" style="stop-color:#3DB649;stop-opacity:1.641512e-02"/>
			<stop  offset="0.5039" style="stop-color:#A4DD22;stop-opacity:0.5039"/>
			<stop  offset="0.8417" style="stop-color:#E6F609;stop-opacity:0.8417"/>
			<stop  offset="1" style="stop-color:#FFFF00"/>
		</linearGradient>
		<path opacity="0.4" fill="url(#SVGID_2_)" enable-background="new    " d="M83.1,187.5c0-2-0.8-3.7-2-5.2c-1-1.2-2.2-2.2-3.7-2.9
			c0,0,0,0-0.1,0c-0.4-0.2-1.4-0.7-1.3-2l0,0v-0.1c0-0.3,0-0.6,0.1-1c0.1-0.9,0.5-1.8,0.9-2.6c0.1-0.2,0.1-0.4,0.2-0.6
			c0-0.3-0.2-0.5-0.5-0.6c-0.4,0-0.7,0.1-1,0.2c-0.2,0.1-0.3,0.2-0.5,0.3c-0.4,0.2-0.6,0.1-0.8-0.3c0-0.1-0.1-0.2-0.1-0.3
			c-0.1-0.2-0.2-0.4-0.3-0.5c-0.5-0.6-1.2-0.6-1.6,0c-0.2,0.2-0.3,0.4-0.3,0.6c-0.2,0.4-0.4,0.7-0.9,0.7c-0.3,0-0.6,0-1,0
			c-0.2,0-0.4,0-0.7,0c-0.6,0-0.9,0.5-0.6,1.1c0,0.1,0.1,0.2,0.2,0.3c0.4,1,0.8,1.9,1.2,2.9c0,0.1,0.1,0.2,0.2,0.3
			c0.3,0.8-0.3,0.9-0.4,1c-2.3,0.7-4.1,2.1-5.5,4c-0.7,0.9-1.2,1.9-1.4,3c-0.3,1-0.3,2-0.2,3c0.1,0.7,0.3,1.3,0.6,2
			c0.5,0.9,1.3,1.5,2.3,1.8c1,0.4,2,0.6,3.1,0.7c1.3,0.1,2.7,0.2,3.9,0.2c1.4-0.1,2.6-0.1,3.8-0.2c1.1-0.1,2.3-0.3,3.4-0.7
			c1.3-0.5,2.3-1.3,2.7-2.7C83.1,189.1,83.1,188.3,83.1,187.5z"/>
		<path opacity="0.51" fill="#A7A9AC" enable-background="new    " d="M73.4,179.9c0,0-2.3,1-3.5,2.2s-2.2,2.5-1.8,4.8
			c0.4,2.3,1.6,4.1,3.4,4.7c1.8,0.6,6.9,1.3,3.3,1.4c-3.6,0.1-4.4,0.4-8.4-0.6s-3-6.2-3-6.2s0.9-3,3.2-4.9s4.1-2.2,4.1-2.2
			S72.3,179.9,73.4,179.9z"/>
		<g>
			<path fill="#FFFFFF" d="M72.6,189.6v-0.8c-1.1-0.2-1.7-0.7-1.8-1.9H72c0,0.4,0.2,0.9,0.6,1v-2c-1.2-0.6-1.7-1.1-1.7-1.9
				c0-0.9,0.7-1.5,1.7-1.6V182h0.7v0.4c1.2,0.1,1.8,0.8,1.8,1.7h-1.2c-0.1-0.5-0.2-0.7-0.6-0.8v1.6c1.2,0.5,2.1,1,2.1,2.2
				c0,1-0.8,1.8-2.1,1.8v0.8L72.6,189.6L72.6,189.6z M72.6,183.2c-0.4,0.1-0.5,0.2-0.5,0.5s0.1,0.4,0.5,0.7V183.2z M74.2,187.1
				c0-0.4-0.3-0.7-0.9-1v1.7C73.9,187.8,74.2,187.5,74.2,187.1z"/>
		</g>
		<path d="M70.7,177.8c0,0,0.1,0.3,1.6,0.6s3.5-0.6,3.5-0.6s0.2-0.2,0.6-0.1c0.4,0.1,0.7,0.6,0.4,0.9c-0.4,0.3-1,0.9-1.7,1
			s-2.6-0.1-3.7-0.5c-1.2-0.4-1.5-0.7-1.5-1C69.7,177.9,70.3,177.6,70.7,177.8z"/>
		<g>
			
				<linearGradient id="SVGID_3_" gradientUnits="userSpaceOnUse" x1="137.0629" y1="-50.5226" x2="207.239" y2="-56.7205" gradientTransform="matrix(0.227 0 0 -0.227 5.654865e-02 179.7833)">
				<stop  offset="0" style="stop-color:#6D6E71;stop-opacity:0"/>
				<stop  offset="1" style="stop-color:#6D6E71"/>
			</linearGradient>
			<path fill="url(#SVGID_3_)" d="M44.6,189.2c-2.8,0-5.5,0.2-7.6,0.6c-0.3-0.1-0.7-0.2-0.7-0.4c0-0.5,0.9-0.7,0.6-1.1
				c-0.3-0.4-0.8,0.4-1.3,0.4s-0.6-0.2-1.7-0.4c-1.1-0.2-1,0.6-1.1,0.9c-0.2,0.3-0.8,0.3-1.3,0.4c-0.5,0.1,0.4,0.6,1.1,0.6
				c0.5,0,1.2,0.1,1.7,0.2c-1.9,0.6-3,1.3-3,2.1c0,1.8,6,3.3,13.5,3.3s13.5-1.5,13.5-3.3S52,189.2,44.6,189.2z"/>
			<g>
				<path fill="#39B54A" d="M59.1,189.5c0-2-0.8-3.7-2-5.2c-1-1.2-2.2-2.2-3.7-2.9c0,0,0,0-0.1,0c-0.4-0.2-1.4-0.7-1.3-2l0,0v-0.1
					c0-0.3,0-0.6,0.1-1c0.1-0.9,0.5-1.8,0.9-2.6c0.1-0.2,0.1-0.4,0.2-0.6c0-0.3-0.2-0.5-0.5-0.6c-0.4,0-0.7,0.1-1,0.2
					c-0.2,0.1-0.3,0.2-0.5,0.3c-0.4,0.2-0.6,0.1-0.8-0.3c0-0.1-0.1-0.2-0.1-0.3c-0.1-0.2-0.2-0.4-0.3-0.5c-0.5-0.6-1.2-0.6-1.6,0
					c-0.2,0.2-0.3,0.4-0.3,0.6c-0.2,0.4-0.4,0.7-0.9,0.7c-0.3,0-0.6,0-1,0c-0.2,0-0.4,0-0.7,0c-0.6,0-0.9,0.5-0.6,1.1
					c0,0.1,0.1,0.2,0.2,0.3c0.4,1,0.8,1.9,1.2,2.9c0,0.1,0.1,0.2,0.2,0.3c0.3,0.8-0.3,0.9-0.4,1c-2.3,0.7-4.1,2.1-5.5,4
					c-0.7,0.9-1.2,1.9-1.4,3c-0.3,1-0.3,2-0.2,3c0.1,0.7,0.3,1.3,0.6,2c0.5,0.9,1.3,1.5,2.3,1.8c1,0.4,2,0.6,3.1,0.7
					c1.3,0.1,2.7,0.2,3.9,0.2c1.4-0.1,2.6-0.1,3.8-0.2c1.1-0.1,2.3-0.3,3.4-0.7c1.3-0.5,2.3-1.3,2.7-2.7
					C59,191.2,59.1,190.4,59.1,189.5z"/>
				<path d="M48.9,195.9L48.9,195.9c-0.4,0-0.7,0-1.1-0.1c-0.9,0-1.9-0.1-2.8-0.2c-1.2-0.1-2.2-0.3-3.2-0.7c-1.1-0.5-1.9-1.1-2.4-2
					c-0.3-0.6-0.5-1.2-0.7-2.1c-0.1-1.1-0.1-2.2,0.2-3.1c0.3-1.1,0.8-2.1,1.5-3c1.5-2,3.4-3.4,5.7-4.1c0.1,0,0.1,0,0.2-0.1
					c0-0.1,0-0.2,0-0.4c-0.1-0.1-0.2-0.2-0.2-0.4c-0.3-0.7-0.6-1.4-0.9-2.1c-0.1-0.2-0.2-0.5-0.3-0.7c0-0.1-0.1-0.1-0.1-0.2
					c0,0,0-0.1-0.1-0.1c-0.2-0.4-0.2-0.7,0-1s0.5-0.5,0.9-0.5c0.1,0,0.2,0,0.4,0c0.1,0,0.2,0,0.3,0h0.1c0.3,0,0.5,0,0.8,0
					s0.5-0.2,0.6-0.6c0.1-0.3,0.2-0.5,0.4-0.7c0.3-0.3,0.6-0.5,1-0.5l0,0c0.4,0,0.8,0.2,1,0.5c0.1,0.2,0.2,0.3,0.3,0.5v0.1
					c0,0.1,0.1,0.2,0.1,0.2v0.1c0.1,0.2,0.2,0.2,0.4,0.2c0.1,0,0.2-0.1,0.3-0.2c0,0,0.1-0.1,0.2-0.1c0.4-0.2,0.8-0.3,1.2-0.3
					c0.5,0.1,0.8,0.4,0.7,0.9c0,0.2-0.1,0.5-0.2,0.7c-0.5,0.9-0.7,1.7-0.9,2.5c0,0.3-0.1,0.6-0.1,0.9c0,0,0,0.1,0,0.2
					c-0.1,1.1,0.7,1.5,1.1,1.7h0.1c1.5,0.7,2.8,1.7,3.8,3c1.4,1.7,2,3.4,2.1,5.3l0,0c0,1-0.1,1.8-0.3,2.5c-0.4,1.4-1.4,2.3-2.9,2.9
					c-1,0.4-2.1,0.6-3.5,0.7c-0.8,0.1-1.7,0.1-2.6,0.1C49.7,195.9,49.3,195.9,48.9,195.9L48.9,195.9z M45.6,175.7
					C45.5,175.7,45.5,175.7,45.6,175.7c-0.3,0-0.4,0.1-0.5,0.2c-0.1,0.1,0,0.3,0,0.5c0,0,0,0.1,0.1,0.1c0,0.1,0.1,0.2,0.1,0.2
					c0.1,0.2,0.2,0.5,0.3,0.7c0.3,0.7,0.6,1.4,0.9,2.1c0,0.1,0.1,0.2,0.2,0.2l0,0v0.1c0.1,0.4,0.1,0.7,0,0.9s-0.3,0.3-0.5,0.4
					c-2.2,0.7-3.9,2-5.4,3.9c-0.7,0.9-1.1,1.8-1.4,2.8c-0.2,0.9-0.3,1.8-0.1,2.9c0.1,0.7,0.3,1.3,0.6,1.8c0.5,0.7,1.1,1.3,2.1,1.7
					c0.9,0.4,1.9,0.6,3,0.7c0.9,0.1,1.9,0.1,2.8,0.2c0.4,0,0.7,0,1.1,0.1c0.4,0,0.8,0,1.2,0c0.9,0,1.7-0.1,2.5-0.1
					c1.3-0.1,2.3-0.3,3.3-0.7c1.3-0.5,2.2-1.3,2.5-2.5c0.2-0.7,0.3-1.5,0.3-2.3l0,0c0-1.7-0.7-3.4-2-5c-1-1.2-2.2-2.2-3.6-2.8l0,0
					l0,0c-0.5-0.2-1.5-0.8-1.5-2.2v-0.1c0-0.3,0-0.7,0.1-1c0.1-0.9,0.4-1.7,0.9-2.7c0.1-0.1,0.1-0.3,0.1-0.5c0-0.1,0-0.2-0.2-0.2
					s-0.5,0-0.8,0.2c0,0-0.1,0-0.1,0.1c-0.1,0.1-0.2,0.1-0.4,0.2c-0.5,0.2-0.9,0.1-1.2-0.5c0,0,0-0.1-0.1-0.2c0,0,0-0.1-0.1-0.2
					v-0.1c-0.1-0.1-0.1-0.3-0.2-0.4c-0.2-0.2-0.4-0.3-0.6-0.3c-0.2,0-0.4,0.1-0.6,0.3c-0.1,0.1-0.2,0.3-0.3,0.5
					c-0.2,0.5-0.6,0.9-1.1,1c-0.3,0-0.6,0-0.9,0H46C45.9,175.7,45.8,175.7,45.6,175.7C45.7,175.7,45.6,175.7,45.6,175.7z"/>
			</g>
			<path opacity="0.51" fill="#A7A9AC" enable-background="new    " d="M47,180.3c0,0-1.2-2.6-1.4-3.2c-0.2-0.6-0.7-1.2-0.4-1.3
				s1.1,0,1.6,0s1.1-0.1,1.2-0.4c0.1-0.3,0.5-1.2,0.9,0s0.2,2.5,0.5,3.4c0.2,1,0.4,1.8,0.4,1.8s-1-0.8-1.3-1.6
				c-0.3-0.7-1.7-2.2-1.4-0.6c0.3,1.6,1.7,2.2,1.7,2.2S47.4,180.6,47,180.3z"/>
			
				<linearGradient id="SVGID_4_" gradientUnits="userSpaceOnUse" x1="171.2936" y1="-20.6682" x2="260.1033" y2="-20.6682" gradientTransform="matrix(0.227 0 0 -0.227 5.654865e-02 179.7833)">
				<stop  offset="0" style="stop-color:#39B54A;stop-opacity:0"/>
				<stop  offset="1.641512e-02" style="stop-color:#3DB649;stop-opacity:1.641512e-02"/>
				<stop  offset="0.5039" style="stop-color:#A4DD22;stop-opacity:0.5039"/>
				<stop  offset="0.8417" style="stop-color:#E6F609;stop-opacity:0.8417"/>
				<stop  offset="1" style="stop-color:#FFFF00"/>
			</linearGradient>
			<path opacity="0.4" fill="url(#SVGID_4_)" enable-background="new    " d="M59.1,189.5c0-2-0.8-3.7-2-5.2c-1-1.2-2.2-2.2-3.7-2.9
				c0,0,0,0-0.1,0c-0.4-0.2-1.4-0.7-1.3-2l0,0v-0.1c0-0.3,0-0.6,0.1-1c0.1-0.9,0.5-1.8,0.9-2.6c0.1-0.2,0.1-0.4,0.2-0.6
				c0-0.3-0.2-0.5-0.5-0.6c-0.4,0-0.7,0.1-1,0.2c-0.2,0.1-0.3,0.2-0.5,0.3c-0.4,0.2-0.6,0.1-0.8-0.3c0-0.1-0.1-0.2-0.1-0.3
				c-0.1-0.2-0.2-0.4-0.3-0.5c-0.5-0.6-1.2-0.6-1.6,0c-0.2,0.2-0.3,0.4-0.3,0.6c-0.2,0.4-0.4,0.7-0.9,0.7c-0.3,0-0.6,0-1,0
				c-0.2,0-0.4,0-0.7,0c-0.6,0-0.9,0.5-0.6,1.1c0,0.1,0.1,0.2,0.2,0.3c0.4,1,0.8,1.9,1.2,2.9c0,0.1,0.1,0.2,0.2,0.3
				c0.3,0.8-0.3,0.9-0.4,1c-2.3,0.7-4.1,2.1-5.5,4c-0.7,0.9-1.2,1.9-1.4,3c-0.3,1-0.3,2-0.2,3c0.1,0.7,0.3,1.3,0.6,2
				c0.5,0.9,1.3,1.5,2.3,1.8c1,0.4,2,0.6,3.1,0.7c1.3,0.1,2.7,0.2,3.9,0.2c1.4-0.1,2.6-0.1,3.8-0.2c1.1-0.1,2.3-0.3,3.4-0.7
				c1.3-0.5,2.3-1.3,2.7-2.7C59,191.2,59.1,190.4,59.1,189.5z"/>
			<path opacity="0.51" fill="#A7A9AC" enable-background="new    " d="M49.4,181.9c0,0-2.3,1-3.5,2.2s-2.2,2.5-1.8,4.8
				s1.6,4.1,3.4,4.7c1.8,0.6,6.9,1.3,3.3,1.4s-4.4,0.4-8.4-0.6c-3.9-1-3-6.2-3-6.2s0.9-3,3.2-4.9c2.2-1.9,4.1-2.2,4.1-2.2
				S48.2,181.9,49.4,181.9z"/>
			<g>
				<path fill="#FFFFFF" d="M48.6,191.6v-0.8c-1.1-0.2-1.7-0.7-1.8-1.9H48c0,0.4,0.2,0.9,0.6,1v-2c-1.2-0.6-1.7-1.1-1.7-1.9
					c0-0.9,0.7-1.5,1.7-1.6V184h0.7v0.4c1.2,0.1,1.8,0.8,1.8,1.7h-1.2c-0.1-0.5-0.2-0.7-0.6-0.8v1.6c1.2,0.5,2.1,1,2.1,2.2
					c0,1-0.8,1.8-2.1,1.8v0.8L48.6,191.6L48.6,191.6z M48.6,185.3c-0.4,0.1-0.5,0.2-0.5,0.5s0.1,0.4,0.5,0.7V185.3z M50.1,189.1
					c0-0.4-0.3-0.7-0.9-1v1.7C49.8,189.9,50.1,189.5,50.1,189.1z"/>
			</g>
			<path d="M46.6,179.9c0,0,0.1,0.3,1.6,0.6s3.5-0.6,3.5-0.6s0.2-0.2,0.6-0.1c0.4,0.1,0.7,0.6,0.4,0.9c-0.4,0.3-1,0.9-1.7,1
				s-2.6-0.1-3.7-0.5c-1.2-0.4-1.5-0.7-1.5-1C45.7,179.9,46.3,179.6,46.6,179.9z"/>
		</g>
	</g>
</g>
</svg>
