<?xml version="1.0" encoding="utf-8"?>
<!-- Generator: Adobe Illustrator 18.0.0, SVG Export Plug-In . SVG Version: 6.00 Build 0)  -->
<!DOCTYPE svg PUBLIC "-//W3C//DTD SVG 1.1//EN" "http://www.w3.org/Graphics/SVG/1.1/DTD/svg11.dtd">
<svg version="1.1" id="Layer_1" xmlns="http://www.w3.org/2000/svg" xmlns:xlink="http://www.w3.org/1999/xlink" x="0px" y="0px"
	 width="257.3px" height="40.7px" viewBox="10.3 102 257.3 40.7" enable-background="new 10.3 102 257.3 40.7" xml:space="preserve"
	>
<g id="Layer_1_1_">
	<g>
		<line fill="none" stroke="#000000" stroke-width="2" stroke-miterlimit="10" x1="15.4" y1="126.4" x2="260.1" y2="126.4"/>
		<line fill="none" stroke="#000000" stroke-width="5" stroke-miterlimit="10" x1="15.4" y1="124.5" x2="260.1" y2="124.5"/>
	</g>
	<g>
		<g>
			<polygon fill="#FFFFFF" points="69.7,136.8 77.3,125.9 69.7,115.1 98.5,115.1 98.5,136.8 			"/>
			<path d="M97.9,115.6v20.6H70.8L78,126l-7.2-10.3L97.9,115.6 M99.1,114.5H98H70.8h-2.2l1.2,1.8l6.7,9.7l-6.7,9.7l-1.2,1.8h2.2H98
				h1.1v-1.1v-20.6V114.5L99.1,114.5z"/>
		</g>
		<g>
			<polygon fill="#FFFFFF" points="176,136.8 176,115.1 204.8,115.1 197.2,125.9 204.8,136.8 			"/>
			<path d="M203.7,115.6l-7.2,10.3l7.2,10.3h-27.2v-20.6H203.7 M205.9,114.5h-2.2h-27.2h-1.1v1.1v20.6v1.1h1.1h27.2h2.2l-1.2-1.8
				l-6.7-9.7l6.7-9.7L205.9,114.5L205.9,114.5z"/>
		</g>
		<g>
			<rect x="84.3" y="110.7" fill="#FFFFFF" width="105.7" height="21.8"/>
			<path d="M189.5,111.2v20.6H84.9v-20.6L189.5,111.2 M190.6,110.1h-1.1H84.9h-1.1v1.1v20.6v1.1h1.1h104.6h1.1v-1.1v-20.6V110.1
				L190.6,110.1z"/>
		</g>
		<g>
			<path fill="#666666" d="M110.3,122.9v3.6h-2v-10.1h3.5c1,0,1.8,0.3,2.4,0.9s0.9,1.4,0.9,2.3c0,1-0.3,1.7-0.9,2.3
				c-0.6,0.6-1.4,0.9-2.4,0.9L110.3,122.9L110.3,122.9z M110.3,121.3h1.5c0.4,0,0.7-0.2,1-0.5c0.2-0.3,0.3-0.7,0.3-1.2
				s-0.1-0.9-0.3-1.2c-0.2-0.3-0.5-0.5-1-0.5h-1.5V121.3L110.3,121.3z"/>
			<path fill="#666666" d="M118.4,122.5v4h-2v-10.1h3.3c1,0,1.8,0.3,2.3,0.8c0.6,0.5,0.8,1.2,0.8,2.2c0,0.5-0.1,1-0.4,1.4
				c-0.2,0.4-0.6,0.7-1,0.9c0.5,0.2,0.9,0.5,1.1,0.9s0.3,0.9,0.3,1.5v0.7c0,0.3,0,0.6,0.1,0.9s0.2,0.5,0.3,0.7v0.1h-2
				c-0.2-0.1-0.3-0.4-0.3-0.7c0-0.3-0.1-0.7-0.1-1V124c0-0.5-0.1-0.9-0.3-1.2c-0.2-0.3-0.5-0.4-0.9-0.4L118.4,122.5L118.4,122.5z
				 M118.4,120.9h1.3c0.4,0,0.7-0.1,0.9-0.4c0.2-0.2,0.3-0.6,0.3-1c0-0.5-0.1-0.8-0.3-1.1c-0.2-0.3-0.5-0.4-0.9-0.4h-1.3V120.9z"/>
			<path fill="#666666" d="M129.7,122.1h-3.4v2.8h4v1.6h-5.9v-10.1h5.9v1.6h-4v2.5h3.4L129.7,122.1L129.7,122.1z"/>
			<path fill="#666666" d="M134.9,123h-3.4v-1.6h3.4V123z"/>
			<path fill="#666666" d="M141,123.9c0-0.4-0.1-0.7-0.3-0.9c-0.2-0.2-0.6-0.5-1.1-0.7c-1-0.4-1.8-0.8-2.4-1.2
				c-0.5-0.5-0.8-1.1-0.8-2c0-0.8,0.3-1.5,0.9-2c0.6-0.5,1.4-0.8,2.3-0.8s1.7,0.3,2.3,0.9s0.9,1.3,0.9,2.2l0,0H141
				c0-0.5-0.1-0.8-0.3-1.1c-0.2-0.3-0.5-0.4-1-0.4c-0.4,0-0.7,0.1-0.9,0.4c-0.2,0.2-0.3,0.5-0.3,0.9s0.1,0.6,0.4,0.8
				c0.2,0.2,0.7,0.5,1.3,0.7c1,0.3,1.7,0.7,2.2,1.2s0.7,1.2,0.7,2c0,0.9-0.3,1.5-0.9,2c-0.6,0.5-1.4,0.7-2.3,0.7s-1.8-0.3-2.5-0.8
				c-0.7-0.6-1-1.4-1-2.4l0,0h1.9c0,0.6,0.1,1.1,0.4,1.3c0.3,0.3,0.7,0.4,1.2,0.4c0.4,0,0.7-0.1,0.9-0.3
				C140.9,124.5,141,124.2,141,123.9z"/>
			<path fill="#666666" d="M146.2,122.9v3.6h-2v-10.1h3.5c1,0,1.8,0.3,2.4,0.9c0.6,0.6,0.9,1.4,0.9,2.3c0,1-0.3,1.7-0.9,2.3
				c-0.6,0.6-1.4,0.9-2.4,0.9L146.2,122.9L146.2,122.9z M146.2,121.3h1.5c0.4,0,0.7-0.2,1-0.5s0.3-0.7,0.3-1.2s-0.1-0.9-0.3-1.2
				c-0.2-0.3-0.5-0.5-1-0.5h-1.5V121.3z"/>
			<path fill="#666666" d="M154.3,126.5h-2v-10.1h2V126.5L154.3,126.5z"/>
			<path fill="#666666" d="M157.9,124.9h3.7v1.6h-5.7v-10.1h2V124.9z"/>
			<path fill="#666666" d="M164.5,124.9h3.7v1.6h-5.7v-10.1h2V124.9z"/>
		</g>
	</g>
</g>
</svg>
