<?xml version="1.0" encoding="utf-8"?>
<!-- Generator: Adobe Illustrator 18.0.0, SVG Export Plug-In . SVG Version: 6.00 Build 0)  -->
<!DOCTYPE svg PUBLIC "-//W3C//DTD SVG 1.1//EN" "http://www.w3.org/Graphics/SVG/1.1/DTD/svg11.dtd">
<svg version="1.1" id="Layer_1" xmlns="http://www.w3.org/2000/svg" xmlns:xlink="http://www.w3.org/1999/xlink" x="0px" y="0px"
	 width="64px" height="30.3px" viewBox="175.7 226 64 30.3" enable-background="new 175.7 226 64 30.3" xml:space="preserve">
<g>
	
		<linearGradient id="SVGID_1_" gradientUnits="userSpaceOnUse" x1="809.5838" y1="-233.9829" x2="937.084" y2="-313.2511" gradientTransform="matrix(0.227 0 0 -0.227 5.655301e-02 179.7833)">
		<stop  offset="0" style="stop-color:#B3B3B3;stop-opacity:0"/>
		<stop  offset="0.9739" style="stop-color:#9A9A9A;stop-opacity:0.9739"/>
		<stop  offset="1" style="stop-color:#999999"/>
	</linearGradient>
	<polygon fill="url(#SVGID_1_)" points="218.2,249.4 205,249.4 180.8,240.5 207.3,238 	"/>
	<g>
		<polygon fill="#754C24" points="218.2,248.9 201.8,244.5 201.8,233.9 218.2,236.5 		"/>
		<path d="M218.2,249.4C218.2,249.4,218.1,249.4,218.2,249.4l-16.5-4.4c-0.2,0-0.3-0.2-0.3-0.4V234c0-0.1,0-0.2,0.2-0.3
			c0.1-0.1,0.2-0.1,0.4-0.1l16.4,2.7c0.2,0,0.4,0.2,0.4,0.4v12.4c0,0.1-0.1,0.2-0.2,0.3C218.4,249.3,218.3,249.4,218.2,249.4z
			 M202.2,244.1l15.6,4.2v-11.4l-15.6-2.5V244.1z"/>
	</g>
	<g>
		<polygon fill="#A67C52" points="218.2,236.5 201.8,233.9 218.5,233.1 234.9,235.1 		"/>
		<path d="M218.2,236.9L218.2,236.9l-16.5-2.6c-0.2,0-0.4-0.2-0.4-0.5c0-0.2,0.2-0.4,0.4-0.4l16.7-0.8h0.1l16.4,2
			c0.2,0,0.4,0.2,0.4,0.4s-0.2,0.4-0.4,0.4L218.2,236.9C218.3,236.9,218.2,236.9,218.2,236.9z M205.3,234.1l12.9,2l13.4-1l-13.1-1.5
			L205.3,234.1z"/>
	</g>
	<g>
		<g>
			<polygon fill="#A67C52" points="234.9,246.5 218.2,248.9 218.2,236.5 234.9,235.1 			"/>
			<path d="M218.2,249.4c-0.1,0-0.2,0-0.3-0.1s-0.2-0.2-0.2-0.3v-12.4c0-0.2,0.2-0.4,0.4-0.4l16.7-1.5c0.1,0,0.2,0,0.3,0.1
				s0.2,0.2,0.2,0.3v11.4c0,0.2-0.2,0.4-0.4,0.4L218.2,249.4C218.3,249.4,218.2,249.4,218.2,249.4z M218.6,236.9v11.5l15.8-2.3
				v-10.6L218.6,236.9z"/>
		</g>
		<g>
			<g>
				<polygon fill="#CCCCCC" points="230.7,247.1 222.4,248.3 222.4,241.7 230.7,240.5 				"/>
				<path d="M222.4,248.7c-0.1,0-0.2,0-0.3-0.1s-0.2-0.2-0.2-0.3v-6.6c0-0.2,0.2-0.4,0.4-0.4l8.4-1.2c0.1,0,0.2,0,0.3,0.1
					s0.2,0.2,0.2,0.3v6.6c0,0.2-0.2,0.4-0.4,0.4L222.4,248.7L222.4,248.7z M222.8,242.1v5.7l7.5-1.1V241L222.8,242.1z"/>
			</g>
			<g>
				<path d="M223.9,243.8c-0.2,0-0.4-0.2-0.4-0.4s0.1-0.5,0.4-0.5l5.4-0.8c0.2,0,0.5,0.1,0.5,0.4c0,0.2-0.1,0.5-0.4,0.5L223.9,243.8
					L223.9,243.8z"/>
			</g>
			<g>
				<path d="M223.9,245.3c-0.2,0-0.4-0.2-0.4-0.4s0.1-0.5,0.4-0.5l5.4-0.8c0.2,0,0.5,0.1,0.5,0.4c0,0.2-0.1,0.5-0.4,0.5L223.9,245.3
					L223.9,245.3z"/>
			</g>
			<g>
				<path d="M223.9,246.9c-0.2,0-0.4-0.2-0.4-0.4s0.1-0.5,0.4-0.5l5.4-0.8c0.2,0,0.5,0.1,0.5,0.4c0,0.2-0.1,0.5-0.4,0.5L223.9,246.9
					L223.9,246.9z"/>
			</g>
		</g>
		<g>
			<g>
				<path fill="#FFFFFF" d="M227.2,239.1c0-0.1,0-0.2-0.1-0.2s-0.2-0.1-0.3-0.1c-0.3-0.1-0.5-0.1-0.6-0.2s-0.2-0.3-0.2-0.5
					s0.1-0.4,0.2-0.5c0.1-0.2,0.3-0.2,0.5-0.3v-0.4h0.3v0.4c0.2,0,0.4,0.1,0.5,0.2c0.1,0.1,0.2,0.3,0.2,0.5l0,0l-0.5,0.1
					c0-0.1,0-0.2-0.1-0.3s-0.1-0.1-0.2-0.1c-0.1,0-0.2,0-0.2,0.1s-0.1,0.2-0.1,0.2s0,0.2,0.1,0.2c0,0,0.2,0.1,0.3,0.1
					c0.3,0.1,0.5,0.2,0.6,0.2c0.1,0.1,0.2,0.3,0.2,0.5s-0.1,0.4-0.2,0.5c-0.1,0.1-0.3,0.2-0.5,0.3v0.4h-0.3v-0.4
					c-0.2,0-0.4,0-0.6-0.2c-0.2-0.1-0.2-0.3-0.2-0.6l0,0l0.5-0.1c0,0.2,0,0.3,0.1,0.3c0.1,0.1,0.2,0.1,0.3,0.1s0.2-0.1,0.2-0.1
					C227.1,239.3,227.2,239.2,227.2,239.1z"/>
			</g>
		</g>
	</g>
	
		<linearGradient id="SVGID_2_" gradientUnits="userSpaceOnUse" x1="960.9844" y1="-274.0824" x2="1034.6844" y2="-274.0824" gradientTransform="matrix(0.227 0 0 -0.227 5.655301e-02 179.7833)">
		<stop  offset="0" style="stop-color:#8C6239;stop-opacity:0"/>
		<stop  offset="0.3934" style="stop-color:#BDA521;stop-opacity:0.3934"/>
		<stop  offset="0.8053" style="stop-color:#ECE609;stop-opacity:0.8053"/>
		<stop  offset="1" style="stop-color:#FFFF00"/>
	</linearGradient>
	<polygon opacity="0.32" fill="url(#SVGID_2_)" enable-background="new    " points="234.8,235.3 234.9,246.5 218.2,248.9 
		218.2,235.9 234.8,235.1 	"/>
</g>
</svg>
