<?xml version="1.0" encoding="utf-8"?>
<!-- Generator: Adobe Illustrator 18.0.0, SVG Export Plug-In . SVG Version: 6.00 Build 0)  -->
<!DOCTYPE svg PUBLIC "-//W3C//DTD SVG 1.1//EN" "http://www.w3.org/Graphics/SVG/1.1/DTD/svg11.dtd">
<svg version="1.1" id="Layer_1" xmlns="http://www.w3.org/2000/svg" xmlns:xlink="http://www.w3.org/1999/xlink" x="0px" y="0px"
	 width="120.3px" height="59.3px" viewBox="0 208.7 120.3 59.3" enable-background="new 0 208.7 120.3 59.3" xml:space="preserve">
<g>
	
		<linearGradient id="SVGID_1_" gradientUnits="userSpaceOnUse" x1="265.5157" y1="-233.0924" x2="393.0159" y2="-312.3606" gradientTransform="matrix(0.227 0 0 -0.227 5.654908e-02 179.7833)">
		<stop  offset="0" style="stop-color:#B3B3B3;stop-opacity:0"/>
		<stop  offset="0.9739" style="stop-color:#9A9A9A;stop-opacity:0.9739"/>
		<stop  offset="1" style="stop-color:#999999"/>
	</linearGradient>
	<polygon fill="url(#SVGID_1_)" points="94.7,249.2 81.5,249.1 57.3,240.3 83.8,237.8 	"/>
	<g>
		<polygon fill="#754C24" points="94.7,248.7 78.3,244.3 78.3,233.7 94.7,236.3 		"/>
		<path d="M94.7,249.1L94.7,249.1l-16.5-4.4c-0.2,0-0.3-0.2-0.3-0.4v-10.6c0-0.1,0-0.2,0.2-0.3c0.1-0.1,0.2-0.1,0.4-0.1l16.4,2.7
			c0.2,0,0.4,0.2,0.4,0.4v12.4c0,0.1-0.1,0.2-0.2,0.3C94.9,249.1,94.8,249.1,94.7,249.1z M78.7,243.9l15.6,4.2v-11.4l-15.6-2.5
			V243.9z"/>
	</g>
	<g>
		<polygon fill="#A67C52" points="94.7,236.3 78.3,233.7 95,232.9 111.4,234.9 		"/>
		<path d="M94.7,236.7L94.7,236.7l-16.5-2.6c-0.2,0-0.4-0.2-0.4-0.5c0-0.2,0.2-0.4,0.4-0.4l16.7-0.8H95l16.4,2
			c0.2,0,0.4,0.2,0.4,0.4s-0.2,0.4-0.4,0.4L94.7,236.7C94.8,236.7,94.7,236.7,94.7,236.7z M81.8,233.9l12.9,2l13.4-1L95,233.4
			L81.8,233.9z"/>
	</g>
	<g>
		<g>
			<polygon fill="#A67C52" points="111.4,246.3 94.7,248.7 94.7,236.3 111.4,234.9 			"/>
			<path d="M94.7,249.1c-0.1,0-0.2,0-0.3-0.1c-0.1-0.1-0.2-0.2-0.2-0.3v-12.4c0-0.2,0.2-0.4,0.4-0.4l16.7-1.5c0.1,0,0.2,0,0.3,0.1
				s0.2,0.2,0.2,0.3v11.4c0,0.2-0.2,0.4-0.4,0.4L94.7,249.1C94.8,249.1,94.7,249.1,94.7,249.1z M95.2,236.7v11.5l15.8-2.3v-10.6
				L95.2,236.7z"/>
		</g>
		<g>
			<g>
				<polygon fill="#CCCCCC" points="107.3,246.9 98.9,248.1 98.9,241.5 107.3,240.3 				"/>
				<path d="M98.9,248.5c-0.1,0-0.2,0-0.3-0.1c-0.1-0.1-0.2-0.2-0.2-0.3v-6.6c0-0.2,0.2-0.4,0.4-0.4l8.4-1.2c0.1,0,0.2,0,0.3,0.1
					s0.2,0.2,0.2,0.3v6.6c0,0.2-0.2,0.4-0.4,0.4L98.9,248.5L98.9,248.5z M99.3,241.9v5.7l7.5-1.1v-5.7L99.3,241.9z"/>
			</g>
			<g>
				<path d="M100.4,243.6c-0.2,0-0.4-0.2-0.4-0.4s0.1-0.5,0.4-0.5l5.4-0.8c0.2,0,0.5,0.1,0.5,0.4c0,0.2-0.1,0.5-0.4,0.5L100.4,243.6
					L100.4,243.6z"/>
			</g>
			<g>
				<path d="M100.4,245.1c-0.2,0-0.4-0.2-0.4-0.4s0.1-0.5,0.4-0.5l5.4-0.8c0.2,0,0.5,0.1,0.5,0.4c0,0.2-0.1,0.5-0.4,0.5L100.4,245.1
					L100.4,245.1z"/>
			</g>
			<g>
				<path d="M100.4,246.7c-0.2,0-0.4-0.2-0.4-0.4s0.1-0.5,0.4-0.5l5.4-0.8c0.2,0,0.5,0.1,0.5,0.4c0,0.2-0.1,0.5-0.4,0.5L100.4,246.7
					L100.4,246.7z"/>
			</g>
		</g>
		<g>
			<g>
				<path fill="#FFFFFF" d="M103.7,238.9c0-0.1,0-0.2-0.1-0.2s-0.2-0.1-0.3-0.1c-0.3-0.1-0.5-0.1-0.6-0.2c-0.1-0.1-0.2-0.3-0.2-0.5
					s0.1-0.4,0.2-0.5c0.1-0.2,0.3-0.2,0.5-0.3v-0.4h0.3v0.4c0.2,0,0.4,0.1,0.5,0.2c0.1,0.1,0.2,0.3,0.2,0.5l0,0l-0.5,0.1
					c0-0.1,0-0.2-0.1-0.3s-0.1-0.1-0.2-0.1s-0.2,0-0.2,0.1s-0.1,0.2-0.1,0.2s0,0.2,0.1,0.2c0,0,0.2,0.1,0.3,0.1
					c0.3,0.1,0.5,0.2,0.6,0.2c0.1,0.1,0.2,0.3,0.2,0.5s-0.1,0.4-0.2,0.5s-0.3,0.2-0.5,0.3v0.4h-0.3v-0.4c-0.2,0-0.4,0-0.6-0.2
					c-0.2-0.1-0.2-0.3-0.2-0.6l0,0l0.5-0.1c0,0.2,0,0.3,0.1,0.3c0.1,0.1,0.2,0.1,0.3,0.1C103.5,239.1,103.6,239,103.7,238.9
					C103.6,239.1,103.7,239,103.7,238.9z"/>
			</g>
		</g>
	</g>
	
		<linearGradient id="SVGID_2_" gradientUnits="userSpaceOnUse" x1="416.9315" y1="-273.2013" x2="490.6315" y2="-273.2013" gradientTransform="matrix(0.227 0 0 -0.227 5.654908e-02 179.7833)">
		<stop  offset="0" style="stop-color:#8C6239;stop-opacity:0"/>
		<stop  offset="0.3934" style="stop-color:#BDA521;stop-opacity:0.3934"/>
		<stop  offset="0.8053" style="stop-color:#ECE609;stop-opacity:0.8053"/>
		<stop  offset="1" style="stop-color:#FFFF00"/>
	</linearGradient>
	<polygon opacity="0.32" fill="url(#SVGID_2_)" enable-background="new    " points="111.3,235.1 111.4,246.3 94.7,248.7 
		94.7,235.7 111.3,234.9 	"/>
	<g>
		
			<linearGradient id="SVGID_3_" gradientUnits="userSpaceOnUse" x1="161.5829" y1="-159.9845" x2="289.0831" y2="-239.2526" gradientTransform="matrix(0.227 0 0 -0.227 5.654908e-02 179.7833)">
			<stop  offset="0" style="stop-color:#B3B3B3;stop-opacity:0"/>
			<stop  offset="0.9739" style="stop-color:#9A9A9A;stop-opacity:0.9739"/>
			<stop  offset="1" style="stop-color:#999999"/>
		</linearGradient>
		<polygon fill="url(#SVGID_3_)" points="71.1,232.6 57.9,232.6 33.7,223.7 60.2,221.2 		"/>
		<g>
			<polygon fill="#754C24" points="71.1,232.1 54.7,227.7 54.7,217.1 71.1,219.7 			"/>
			<path d="M71.1,232.6C71.1,232.6,71,232.6,71.1,232.6l-16.5-4.4c-0.2,0-0.3-0.2-0.3-0.4v-10.6c0-0.1,0-0.2,0.2-0.3
				c0.1-0.1,0.2-0.1,0.4-0.1l16.4,2.7c0.2,0,0.4,0.2,0.4,0.4v12.4c0,0.1-0.1,0.2-0.2,0.3C71.3,232.5,71.2,232.6,71.1,232.6z
				 M55.1,227.3l15.6,4.2v-11.4l-15.6-2.5V227.3z"/>
		</g>
		<g>
			<polygon fill="#A67C52" points="71.1,219.7 54.7,217.2 71.4,216.3 87.8,218.3 			"/>
			<path d="M71.1,220.1L71.1,220.1l-16.5-2.6c-0.2,0-0.4-0.2-0.4-0.5c0-0.2,0.2-0.4,0.4-0.4l16.7-0.8h0.1l16.4,2
				c0.2,0,0.4,0.2,0.4,0.4s-0.2,0.4-0.4,0.4L71.1,220.1C71.2,220.1,71.1,220.1,71.1,220.1z M58.2,217.3l12.9,2l13.4-1l-13.1-1.5
				L58.2,217.3z"/>
		</g>
		<g>
			<g>
				<polygon fill="#A67C52" points="87.8,229.7 71.1,232.1 71.1,219.7 87.8,218.3 				"/>
				<path d="M71.1,232.6c-0.1,0-0.2,0-0.3-0.1c-0.1-0.1-0.2-0.2-0.2-0.3v-12.4c0-0.2,0.2-0.4,0.4-0.4l16.7-1.5c0.1,0,0.2,0,0.3,0.1
					s0.2,0.2,0.2,0.3v11.4c0,0.2-0.2,0.4-0.4,0.4L71.1,232.6C71.2,232.6,71.1,232.6,71.1,232.6z M71.5,220.1v11.5l15.8-2.3v-10.6
					L71.5,220.1z"/>
			</g>
			<g>
				<g>
					<polygon fill="#CCCCCC" points="83.6,230.3 75.3,231.5 75.3,224.9 83.6,223.7 					"/>
					<path d="M75.3,232c-0.1,0-0.2,0-0.3-0.1c-0.1-0.1-0.2-0.2-0.2-0.3V225c0-0.2,0.2-0.4,0.4-0.4l8.4-1.2c0.1,0,0.2,0,0.3,0.1
						s0.2,0.2,0.2,0.3v6.6c0,0.2-0.2,0.4-0.4,0.4L75.3,232L75.3,232z M75.7,225.3v5.7l7.5-1.1v-5.7L75.7,225.3z"/>
				</g>
				<g>
					<path d="M76.8,227c-0.2,0-0.4-0.2-0.4-0.4s0.1-0.5,0.4-0.5l5.4-0.8c0.2,0,0.5,0.1,0.5,0.4c0,0.2-0.1,0.5-0.4,0.5L76.8,227
						L76.8,227z"/>
				</g>
				<g>
					<path d="M76.8,228.5c-0.2,0-0.4-0.2-0.4-0.4s0.1-0.5,0.4-0.5l5.4-0.8c0.2,0,0.5,0.1,0.5,0.4c0,0.2-0.1,0.5-0.4,0.5L76.8,228.5
						L76.8,228.5z"/>
				</g>
				<g>
					<path d="M76.8,230.1c-0.2,0-0.4-0.2-0.4-0.4s0.1-0.5,0.4-0.5l5.4-0.8c0.2,0,0.5,0.1,0.5,0.4c0,0.2-0.1,0.5-0.4,0.5L76.8,230.1
						L76.8,230.1z"/>
				</g>
			</g>
			<g>
				<g>
					<path fill="#FFFFFF" d="M80.1,222.3c0-0.1,0-0.2-0.1-0.2s-0.2-0.1-0.3-0.1c-0.3-0.1-0.5-0.1-0.6-0.2c-0.1-0.1-0.2-0.3-0.2-0.5
						s0.1-0.4,0.2-0.5s0.3-0.2,0.5-0.3V220h0.3v0.4c0.2,0,0.4,0.1,0.5,0.2s0.2,0.3,0.2,0.5l0,0l-0.5,0.1c0-0.1,0-0.2-0.1-0.3
						s-0.1-0.1-0.2-0.1s-0.2,0-0.2,0.1s-0.1,0.2-0.1,0.2c0,0.1,0,0.2,0.1,0.2c0,0,0.2,0.1,0.3,0.1c0.3,0.1,0.5,0.2,0.6,0.2
						c0.1,0.1,0.2,0.3,0.2,0.5s-0.1,0.4-0.2,0.5s-0.3,0.2-0.5,0.3v0.4h-0.3v-0.4c-0.2,0-0.4,0-0.6-0.2c-0.2-0.1-0.2-0.3-0.2-0.6l0,0
						l0.5-0.1c0,0.2,0,0.3,0.1,0.3s0.2,0.1,0.3,0.1C79.9,222.4,80,222.3,80.1,222.3C80,222.5,80.1,222.4,80.1,222.3z"/>
				</g>
			</g>
		</g>
		
			<linearGradient id="SVGID_4_" gradientUnits="userSpaceOnUse" x1="312.9667" y1="-200.0736" x2="386.6667" y2="-200.0736" gradientTransform="matrix(0.227 0 0 -0.227 5.654908e-02 179.7833)">
			<stop  offset="0" style="stop-color:#8C6239;stop-opacity:0"/>
			<stop  offset="0.3934" style="stop-color:#BDA521;stop-opacity:0.3934"/>
			<stop  offset="0.8053" style="stop-color:#ECE609;stop-opacity:0.8053"/>
			<stop  offset="1" style="stop-color:#FFFF00"/>
		</linearGradient>
		<polygon opacity="0.32" fill="url(#SVGID_4_)" enable-background="new    " points="87.7,218.5 87.8,229.7 71.1,232.1 71.1,219.1 
			87.7,218.3 		"/>
		<g>
			
				<linearGradient id="SVGID_5_" gradientUnits="userSpaceOnUse" x1="48.4438" y1="-187.208" x2="175.9441" y2="-266.4763" gradientTransform="matrix(0.227 0 0 -0.227 5.654908e-02 179.7833)">
				<stop  offset="0" style="stop-color:#B3B3B3;stop-opacity:0"/>
				<stop  offset="0.9739" style="stop-color:#9A9A9A;stop-opacity:0.9739"/>
				<stop  offset="1" style="stop-color:#999999"/>
			</linearGradient>
			<polygon fill="url(#SVGID_5_)" points="45.5,238.7 32.3,238.7 8,229.9 34.6,227.4 			"/>
			<g>
				<polygon fill="#754C24" points="45.5,238.2 29,233.8 29,223.2 45.5,225.9 				"/>
				<path d="M45.5,238.7C45.4,238.7,45.4,238.7,45.5,238.7L29,234.3c-0.2,0-0.3-0.2-0.3-0.4v-10.6c0-0.1,0-0.2,0.2-0.3
					c0.1-0.1,0.2-0.1,0.4-0.1l16.4,2.7c0.2,0,0.4,0.2,0.4,0.4v12.4c0,0.1-0.1,0.2-0.2,0.3C45.6,238.6,45.6,238.7,45.5,238.7z
					 M29.5,233.5l15.6,4.2v-11.4l-15.6-2.5C29.5,223.8,29.5,233.5,29.5,233.5z"/>
			</g>
			<g>
				<polygon fill="#A67C52" points="45.5,225.8 29,223.3 45.7,222.5 62.2,224.4 				"/>
				<path d="M45.5,226.3C45.4,226.3,45.4,226.3,45.5,226.3L29,223.7c-0.2,0-0.4-0.2-0.4-0.5c0-0.2,0.2-0.4,0.4-0.4l16.7-0.8h0.1
					l16.4,2c0.2,0,0.4,0.2,0.4,0.4s-0.2,0.4-0.4,0.4L45.5,226.3L45.5,226.3z M32.5,223.4l12.9,2l13.4-1l-13.1-1.5L32.5,223.4z"/>
			</g>
			<g>
				<g>
					<polygon fill="#A67C52" points="62.2,235.8 45.5,238.2 45.5,225.9 62.2,224.4 					"/>
					<path d="M45.5,238.7c-0.1,0-0.2,0-0.3-0.1s-0.2-0.2-0.2-0.3v-12.4c0-0.2,0.2-0.4,0.4-0.4l16.7-1.5c0.1,0,0.2,0,0.3,0.1
						s0.2,0.2,0.2,0.3v11.4c0,0.2-0.2,0.4-0.4,0.4L45.5,238.7L45.5,238.7z M45.9,226.3v11.5l15.8-2.3v-10.6L45.9,226.3z"/>
				</g>
				<g>
					<g>
						<polygon fill="#CCCCCC" points="58,236.4 49.6,237.6 49.6,231.1 58,229.9 						"/>
						<path d="M49.6,238.1c-0.1,0-0.2,0-0.3-0.1s-0.2-0.2-0.2-0.3V231c0-0.2,0.2-0.4,0.4-0.4l8.4-1.2c0.1,0,0.2,0,0.3,0.1
							s0.2,0.2,0.2,0.3v6.6c0,0.2-0.2,0.4-0.4,0.4L49.6,238.1C49.7,238.1,49.7,238.1,49.6,238.1z M50.1,231.4v5.7l7.5-1.1v-5.7
							L50.1,231.4z"/>
					</g>
					<g>
						<path d="M51.1,233.1c-0.2,0-0.4-0.2-0.4-0.4s0.1-0.5,0.4-0.5l5.4-0.8c0.2,0,0.5,0.1,0.5,0.4c0,0.2-0.1,0.5-0.4,0.5L51.1,233.1
							L51.1,233.1z"/>
					</g>
					<g>
						<path d="M51.1,234.7c-0.2,0-0.4-0.2-0.4-0.4s0.1-0.5,0.4-0.5l5.4-0.8c0.2,0,0.5,0.1,0.5,0.4c0,0.2-0.1,0.5-0.4,0.5L51.1,234.7
							L51.1,234.7z"/>
					</g>
					<g>
						<path d="M51.1,236.2c-0.2,0-0.4-0.2-0.4-0.4s0.1-0.5,0.4-0.5l5.4-0.8c0.2,0,0.5,0.1,0.5,0.4c0,0.2-0.1,0.5-0.4,0.5L51.1,236.2
							L51.1,236.2z"/>
					</g>
				</g>
				<g>
					<g>
						<path fill="#FFFFFF" d="M54.4,228.4c0-0.1,0-0.2-0.1-0.2s-0.2-0.1-0.3-0.1c-0.3-0.1-0.5-0.1-0.6-0.2s-0.2-0.3-0.2-0.5
							s0.1-0.4,0.2-0.5c0.1-0.2,0.3-0.2,0.5-0.3v-0.4h0.3v0.4c0.2,0,0.4,0.1,0.5,0.2c0.1,0.1,0.2,0.3,0.2,0.5l0,0l-0.5,0.1
							c0-0.1,0-0.2-0.1-0.3s-0.1-0.1-0.2-0.1c-0.1,0-0.2,0-0.2,0.1s-0.1,0.2-0.1,0.2c0,0.1,0,0.2,0.1,0.2c0,0,0.2,0.1,0.3,0.1
							c0.3,0.1,0.5,0.2,0.6,0.2c0.1,0.1,0.2,0.3,0.2,0.5s-0.1,0.4-0.2,0.5c-0.1,0.1-0.3,0.2-0.5,0.3v0.4H54v-0.4
							c-0.2,0-0.4,0-0.6-0.2c-0.2-0.1-0.2-0.3-0.2-0.6l0,0l0.5-0.1c0,0.2,0,0.3,0.1,0.3s0.2,0.1,0.3,0.1S54.3,228.5,54.4,228.4
							C54.4,228.6,54.4,228.5,54.4,228.4z"/>
					</g>
				</g>
			</g>
			
				<linearGradient id="SVGID_6_" gradientUnits="userSpaceOnUse" x1="200.0159" y1="-226.9458" x2="273.7159" y2="-226.9458" gradientTransform="matrix(0.227 0 0 -0.227 5.654908e-02 179.7833)">
				<stop  offset="0" style="stop-color:#8C6239;stop-opacity:0"/>
				<stop  offset="0.3934" style="stop-color:#BDA521;stop-opacity:0.3934"/>
				<stop  offset="0.8053" style="stop-color:#ECE609;stop-opacity:0.8053"/>
				<stop  offset="1" style="stop-color:#FFFF00"/>
			</linearGradient>
			<polygon opacity="0.32" fill="url(#SVGID_6_)" enable-background="new    " points="62.1,224.6 62.2,235.8 45.5,238.2 
				45.4,225.3 62.1,224.4 			"/>
		</g>
	</g>
	<g>
		
			<linearGradient id="SVGID_7_" gradientUnits="userSpaceOnUse" x1="146.4823" y1="-258.1461" x2="273.9825" y2="-337.4143" gradientTransform="matrix(0.227 0 0 -0.227 5.654908e-02 179.7833)">
			<stop  offset="0" style="stop-color:#B3B3B3;stop-opacity:0"/>
			<stop  offset="0.9739" style="stop-color:#9A9A9A;stop-opacity:0.9739"/>
			<stop  offset="1" style="stop-color:#999999"/>
		</linearGradient>
		<polygon fill="url(#SVGID_7_)" points="67.7,254.9 54.5,254.8 30.3,246 56.8,243.5 		"/>
		<g>
			<polygon fill="#754C24" points="67.7,254.4 51.3,250 51.3,239.3 67.7,242 			"/>
			<path d="M67.7,254.8C67.7,254.8,67.6,254.8,67.7,254.8l-16.5-4.4c-0.2,0-0.3-0.2-0.3-0.4v-10.6c0-0.1,0-0.2,0.2-0.3
				c0.1-0.1,0.2-0.1,0.4-0.1l16.4,2.7c0.2,0,0.4,0.2,0.4,0.4v12.4c0,0.1-0.1,0.2-0.2,0.3C67.9,254.8,67.8,254.8,67.7,254.8z
				 M51.7,249.6l15.6,4.2v-11.4l-15.6-2.5C51.7,239.9,51.7,249.6,51.7,249.6z"/>
		</g>
		<g>
			<polygon fill="#A67C52" points="67.7,242 51.3,239.4 68,238.6 84.4,240.5 			"/>
			<path d="M67.7,242.4L67.7,242.4l-16.5-2.6c-0.2,0-0.4-0.2-0.4-0.5c0-0.2,0.2-0.4,0.4-0.4l16.7-0.8H68l16.4,2
				c0.2,0,0.4,0.2,0.4,0.4s-0.2,0.4-0.4,0.4L67.7,242.4C67.8,242.4,67.7,242.4,67.7,242.4z M54.8,239.5l12.9,2l13.4-1L68,239.1
				L54.8,239.5z"/>
		</g>
		<g>
			<g>
				<polygon fill="#A67C52" points="84.4,251.9 67.7,254.4 67.7,242 84.4,240.5 				"/>
				<path d="M67.7,254.8c-0.1,0-0.2,0-0.3-0.1c-0.1-0.1-0.2-0.2-0.2-0.3V242c0-0.2,0.2-0.4,0.4-0.4l16.7-1.5c0.1,0,0.2,0,0.3,0.1
					s0.2,0.2,0.2,0.3V252c0,0.2-0.2,0.4-0.4,0.4L67.7,254.8C67.8,254.8,67.7,254.8,67.7,254.8z M68.1,242.4v11.5l15.8-2.3V241
					L68.1,242.4z"/>
			</g>
			<g>
				<g>
					<polygon fill="#CCCCCC" points="80.2,252.6 71.9,253.8 71.9,247.2 80.2,246 					"/>
					<path d="M71.9,254.2c-0.1,0-0.2,0-0.3-0.1c-0.1-0.1-0.2-0.2-0.2-0.3v-6.6c0-0.2,0.2-0.4,0.4-0.4l8.4-1.2c0.1,0,0.2,0,0.3,0.1
						s0.2,0.2,0.2,0.3v6.6c0,0.2-0.2,0.4-0.4,0.4L71.9,254.2L71.9,254.2z M72.3,247.5v5.7l7.5-1.1v-5.7L72.3,247.5z"/>
				</g>
				<g>
					<path d="M73.4,249.2c-0.2,0-0.4-0.2-0.4-0.4s0.1-0.5,0.4-0.5l5.4-0.8c0.2,0,0.5,0.1,0.5,0.4c0,0.2-0.1,0.5-0.4,0.5L73.4,249.2
						L73.4,249.2z"/>
				</g>
				<g>
					<path d="M73.4,250.8c-0.2,0-0.4-0.2-0.4-0.4s0.1-0.5,0.4-0.5l5.4-0.8c0.2,0,0.5,0.1,0.5,0.4c0,0.2-0.1,0.5-0.4,0.5L73.4,250.8
						L73.4,250.8z"/>
				</g>
				<g>
					<path d="M73.4,252.4c-0.2,0-0.4-0.2-0.4-0.4s0.1-0.5,0.4-0.5l5.4-0.8c0.2,0,0.5,0.1,0.5,0.4c0,0.2-0.1,0.5-0.4,0.5L73.4,252.4
						L73.4,252.4z"/>
				</g>
			</g>
			<g>
				<g>
					<path fill="#FFFFFF" d="M76.7,244.5c0-0.1,0-0.2-0.1-0.2s-0.2-0.1-0.3-0.1c-0.3-0.1-0.5-0.1-0.6-0.2c-0.1-0.1-0.2-0.3-0.2-0.5
						s0.1-0.4,0.2-0.5s0.3-0.2,0.5-0.3v-0.4h0.3v0.4c0.2,0,0.4,0.1,0.5,0.2c0.1,0.1,0.2,0.3,0.2,0.5l0,0l-0.5,0.1
						c0-0.1,0-0.2-0.1-0.3s-0.1-0.1-0.2-0.1s-0.2,0-0.2,0.1s-0.1,0.2-0.1,0.2s0,0.2,0.1,0.2c0,0,0.2,0.1,0.3,0.1
						c0.3,0.1,0.5,0.2,0.6,0.2c0.1,0.1,0.2,0.3,0.2,0.5s-0.1,0.4-0.2,0.5s-0.3,0.2-0.5,0.3v0.4h-0.3v-0.4c-0.2,0-0.4,0-0.6-0.2
						c-0.2-0.1-0.2-0.3-0.2-0.6l0,0l0.5-0.1c0,0.2,0,0.3,0.1,0.3c0.1,0.1,0.2,0.1,0.3,0.1C76.5,244.7,76.6,244.6,76.7,244.5
						C76.6,244.7,76.7,244.7,76.7,244.5z"/>
				</g>
			</g>
		</g>
		
			<linearGradient id="SVGID_8_" gradientUnits="userSpaceOnUse" x1="297.9888" y1="-298.0912" x2="371.6887" y2="-298.0912" gradientTransform="matrix(0.227 0 0 -0.227 5.654908e-02 179.7833)">
			<stop  offset="0" style="stop-color:#8C6239;stop-opacity:0"/>
			<stop  offset="0.3934" style="stop-color:#BDA521;stop-opacity:0.3934"/>
			<stop  offset="0.8053" style="stop-color:#ECE609;stop-opacity:0.8053"/>
			<stop  offset="1" style="stop-color:#FFFF00"/>
		</linearGradient>
		<polygon opacity="0.32" fill="url(#SVGID_8_)" enable-background="new    " points="84.3,240.8 84.4,251.9 67.7,254.4 67.7,241.4 
			84.3,240.5 		"/>
	</g>
	<g>
		
			<linearGradient id="SVGID_9_" gradientUnits="userSpaceOnUse" x1="33.4875" y1="-284.1378" x2="160.9877" y2="-363.406" gradientTransform="matrix(0.227 0 0 -0.227 5.654908e-02 179.7833)">
			<stop  offset="0" style="stop-color:#B3B3B3;stop-opacity:0"/>
			<stop  offset="0.9739" style="stop-color:#9A9A9A;stop-opacity:0.9739"/>
			<stop  offset="1" style="stop-color:#999999"/>
		</linearGradient>
		<polygon fill="url(#SVGID_9_)" points="42.1,260.8 28.9,260.7 4.6,251.9 31.2,249.4 		"/>
		<g>
			<polygon fill="#754C24" points="42.1,260.3 25.6,255.9 25.6,245.2 42.1,247.9 			"/>
			<path d="M42.1,260.7C42,260.7,42,260.7,42.1,260.7l-16.5-4.4c-0.2,0-0.3-0.2-0.3-0.4v-10.6c0-0.1,0-0.2,0.2-0.3
				c0.1-0.1,0.2-0.1,0.4-0.1l16.4,2.7c0.2,0,0.4,0.2,0.4,0.4v12.4c0,0.1-0.1,0.2-0.2,0.3C42.2,260.7,42.1,260.7,42.1,260.7z
				 M26.1,255.5l15.6,4.2v-11.4l-15.6-2.5V255.5z"/>
		</g>
		<g>
			<polygon fill="#A67C52" points="42.1,247.9 25.6,245.3 42.3,244.5 58.8,246.4 			"/>
			<path d="M42.1,248.3C42,248.3,42,248.3,42.1,248.3l-16.5-2.6c-0.2,0-0.4-0.2-0.4-0.5c0-0.2,0.2-0.4,0.4-0.4l16.7-0.8h0.1l16.4,2
				c0.2,0,0.4,0.2,0.4,0.4s-0.2,0.4-0.4,0.4L42.1,248.3L42.1,248.3z M29.1,245.4l12.9,2l13.4-1L42.3,245L29.1,245.4z"/>
		</g>
		<g>
			<g>
				<polygon fill="#A67C52" points="58.8,257.9 42.1,260.3 42.1,247.9 58.8,246.4 				"/>
				<path d="M42.1,260.7c-0.1,0-0.2,0-0.3-0.1s-0.2-0.2-0.2-0.3v-12.4c0-0.2,0.2-0.4,0.4-0.4l16.7-1.5c0.1,0,0.2,0,0.3,0.1
					s0.2,0.2,0.2,0.3v11.4c0,0.2-0.2,0.4-0.4,0.4L42.1,260.7L42.1,260.7z M42.5,248.3v11.5l15.8-2.3v-10.6L42.5,248.3z"/>
			</g>
			<g>
				<g>
					<polygon fill="#CCCCCC" points="54.6,258.5 46.2,259.7 46.2,253.1 54.6,251.9 					"/>
					<path d="M46.2,260.1c-0.1,0-0.2,0-0.3-0.1s-0.2-0.2-0.2-0.3v-6.6c0-0.2,0.2-0.4,0.4-0.4l8.4-1.2c0.1,0,0.2,0,0.3,0.1
						s0.2,0.2,0.2,0.3v6.6c0,0.2-0.2,0.4-0.4,0.4L46.2,260.1C46.3,260.1,46.3,260.1,46.2,260.1z M46.7,253.4v5.7l7.5-1.1v-5.7
						L46.7,253.4z"/>
				</g>
				<g>
					<path d="M47.7,255.1c-0.2,0-0.4-0.2-0.4-0.4s0.1-0.5,0.4-0.5l5.4-0.8c0.2,0,0.5,0.1,0.5,0.4c0,0.2-0.1,0.5-0.4,0.5L47.7,255.1
						L47.7,255.1z"/>
				</g>
				<g>
					<path d="M47.7,256.7c-0.2,0-0.4-0.2-0.4-0.4c0-0.2,0.1-0.5,0.4-0.5l5.4-0.8c0.2,0,0.5,0.1,0.5,0.4c0,0.2-0.1,0.5-0.4,0.5
						L47.7,256.7L47.7,256.7z"/>
				</g>
				<g>
					<path d="M47.7,258.3c-0.2,0-0.4-0.2-0.4-0.4c0-0.2,0.1-0.5,0.4-0.5l5.4-0.8c0.2,0,0.5,0.1,0.5,0.4c0,0.2-0.1,0.5-0.4,0.5
						L47.7,258.3L47.7,258.3z"/>
				</g>
			</g>
			<g>
				<g>
					<path fill="#FFFFFF" d="M51,250.5c0-0.1,0-0.2-0.1-0.2s-0.2-0.1-0.3-0.1c-0.3-0.1-0.5-0.1-0.6-0.2c-0.1-0.1-0.2-0.3-0.2-0.5
						s0.1-0.4,0.2-0.5c0.1-0.2,0.3-0.2,0.5-0.3v-0.4h0.3v0.4c0.2,0,0.4,0.1,0.5,0.2c0.1,0.1,0.2,0.3,0.2,0.5l0,0l-0.5,0.1
						c0-0.1,0-0.2-0.1-0.3s-0.1-0.1-0.2-0.1c-0.1,0-0.2,0-0.2,0.1s-0.1,0.2-0.1,0.2s0,0.2,0.1,0.2c0,0,0.2,0.1,0.3,0.1
						c0.3,0.1,0.5,0.2,0.6,0.2c0.1,0.1,0.2,0.3,0.2,0.5s-0.1,0.4-0.2,0.5c-0.1,0.1-0.3,0.2-0.5,0.3v0.4h-0.3v-0.4
						c-0.2,0-0.4,0-0.6-0.2c-0.2-0.1-0.2-0.3-0.2-0.6l0,0l0.5-0.1c0,0.2,0,0.3,0.1,0.3s0.2,0.1,0.3,0.1S50.9,250.6,51,250.5
						C51,250.6,51,250.6,51,250.5z"/>
				</g>
			</g>
		</g>
		
			<linearGradient id="SVGID_10_" gradientUnits="userSpaceOnUse" x1="185.0159" y1="-324.0824" x2="258.7159" y2="-324.0824" gradientTransform="matrix(0.227 0 0 -0.227 5.654908e-02 179.7833)">
			<stop  offset="0" style="stop-color:#8C6239;stop-opacity:0"/>
			<stop  offset="0.3934" style="stop-color:#BDA521;stop-opacity:0.3934"/>
			<stop  offset="0.8053" style="stop-color:#ECE609;stop-opacity:0.8053"/>
			<stop  offset="1" style="stop-color:#FFFF00"/>
		</linearGradient>
		<polygon opacity="0.32" fill="url(#SVGID_10_)" enable-background="new    " points="58.7,246.7 58.8,257.9 42.1,260.3 42,247.3 
			58.7,246.4 		"/>
	</g>
</g>
</svg>
