<?xml version="1.0" encoding="utf-8"?>
<!-- Generator: Adobe Illustrator 18.0.0, SVG Export Plug-In . SVG Version: 6.00 Build 0)  -->
<!DOCTYPE svg PUBLIC "-//W3C//DTD SVG 1.1//EN" "http://www.w3.org/Graphics/SVG/1.1/DTD/svg11.dtd">
<svg version="1.1" id="Layer_1" xmlns="http://www.w3.org/2000/svg" xmlns:xlink="http://www.w3.org/1999/xlink" x="0px" y="0px"
	 width="277.9px" height="792px" viewBox="0 0 277.9 792" enable-background="new 0 0 277.9 792" xml:space="preserve">
<g>
	<g>
		
			<linearGradient id="SVGID_1_" gradientUnits="userSpaceOnUse" x1="228.7458" y1="-1082.0339" x2="337.5135" y2="-1115.6927" gradientTransform="matrix(0.227 0 0 -0.227 5.654908e-02 179.7833)">
			<stop  offset="0" style="stop-color:#CCCCCC;stop-opacity:0"/>
			<stop  offset="0.2581" style="stop-color:#C6C6C6;stop-opacity:0.2581"/>
			<stop  offset="0.5974" style="stop-color:#B6B6B6;stop-opacity:0.5974"/>
			<stop  offset="0.9803" style="stop-color:#9B9B9B;stop-opacity:0.9803"/>
			<stop  offset="1" style="stop-color:#999999"/>
		</linearGradient>
		<path fill="url(#SVGID_1_)" d="M87,443.6c0,0-20.4-4.1-29-7.7s0.3-18,20.6-11.1s22.2,9.6,22.2,9.6L87,443.6z"/>
		<g>
			
				<linearGradient id="SVGID_2_" gradientUnits="userSpaceOnUse" x1="332.8346" y1="-1125.8444" x2="454.979" y2="-1125.8444" gradientTransform="matrix(0.227 0 0 -0.227 5.654908e-02 179.7833)">
				<stop  offset="0" style="stop-color:#2E3192"/>
				<stop  offset="1.550877e-02" style="stop-color:#2E3695"/>
				<stop  offset="0.1474" style="stop-color:#2C5AAD"/>
				<stop  offset="0.2865" style="stop-color:#2B77C0"/>
				<stop  offset="0.4333" style="stop-color:#2A8ECF"/>
				<stop  offset="0.5909" style="stop-color:#2A9EDA"/>
				<stop  offset="0.7671" style="stop-color:#29A8E0"/>
				<stop  offset="1" style="stop-color:#29ABE2"/>
			</linearGradient>
			<path fill="url(#SVGID_2_)" d="M92.1,442.9c-0.9,0-1.9,0-2.9,0c-13.3-1-13.6-6.6-13.6-7.1v-7.2c0-0.2,0.1-0.5,0.3-0.6
				c0.2-0.1,0.4-0.2,0.6-0.2c0,0,0,0,0.1,0l26,1.8c0.4,0,0.8,0.4,0.8,0.8v7.1l0,0C103.3,437.7,102.6,442.9,92.1,442.9L92.1,442.9z"
				/>
			<path d="M76.5,428.5l25.9,1.8v7.1c0,0-0.5,4.7-10.4,4.7c-0.9,0-1.8,0-2.8-0.1c-12.9-1-12.7-6.3-12.7-6.3V428.5 M76.5,426.8
				c-0.4,0-0.9,0.2-1.2,0.5c-0.3,0.3-0.6,0.8-0.6,1.2v7.2c0,0.4,0.1,2.2,2.1,4c2.4,2.2,6.5,3.5,12.3,4c1,0.1,2.1,0.1,3,0.1
				c4.5,0,7.9-0.9,10-2.8c1.8-1.5,2-3.1,2.1-3.5c0-0.1,0-0.1,0-0.2v-7.1c0-0.9-0.7-1.6-1.6-1.7L76.5,426.8
				C76.6,426.8,76.5,426.8,76.5,426.8L76.5,426.8z"/>
		</g>
		<g>
			
				<linearGradient id="SVGID_3_" gradientUnits="userSpaceOnUse" x1="623.4553" y1="-1024.1177" x2="573.3565" y2="-934.2853" gradientTransform="matrix(0.2954 -4.063285e-02 -0.1153 -0.1586 -200.2585 298.6796)">
				<stop  offset="0" style="stop-color:#29ABE2"/>
				<stop  offset="0.1866" style="stop-color:#2CACE2"/>
				<stop  offset="0.3279" style="stop-color:#36B0E4"/>
				<stop  offset="0.4543" style="stop-color:#46B6E6"/>
				<stop  offset="0.572" style="stop-color:#5DBFE9"/>
				<stop  offset="0.6837" style="stop-color:#7BCBED"/>
				<stop  offset="0.7908" style="stop-color:#9FD9F2"/>
				<stop  offset="0.8943" style="stop-color:#CAEAF8"/>
				<stop  offset="0.9926" style="stop-color:#FBFDFE"/>
				<stop  offset="1" style="stop-color:#FFFFFF"/>
			</linearGradient>
			<path fill="url(#SVGID_3_)" d="M102.2,428.1c2.7,3.7-0.7,7.5-7.6,8.4c-6.9,1-14.7-1.3-17.4-5s0.7-7.5,7.6-8.4
				S99.5,424.4,102.2,428.1z"/>
			<g>
				<path fill="#231F20" d="M85.1,423.5c-6.2,0.9-9.3,4.3-6.9,7.6s9.5,5.4,15.7,4.5s9.3-4.3,6.9-7.6
					C98.3,424.7,91.3,422.6,85.1,423.5 M94.8,437.4c-7.5,1-16-1.9-18.9-6c-2.9-4,0.8-8.1,8.3-9.2c7.5-1,16,1.4,18.9,5.4
					C106,431.7,102.3,436.4,94.8,437.4"/>
			</g>
			<g>
				<path fill="#231F20" d="M86.3,425.2c-0.5,0.1-1-0.1-1.2-0.4l-0.2-0.3c-0.2-0.3,0-0.5,0.5-0.6s1,0.1,1.2,0.4l0.2,0.3
					C87.1,424.9,86.8,425.1,86.3,425.2"/>
			</g>
			<g>
				<path fill="#231F20" d="M93.6,435.2c-0.5,0.1-1-0.1-1.2-0.4l-0.2-0.3c-0.2-0.3,0-0.5,0.5-0.6s1,0.1,1.2,0.4l0.2,0.3
					C94.3,434.8,94.1,435.1,93.6,435.2"/>
			</g>
			<g>
				<path fill="#231F20" d="M99.4,428.7l-0.6,0.1c-0.5,0.1-1-0.1-1.2-0.4s0-0.5,0.5-0.6l0.6-0.1c0.5-0.1,1,0.1,1.2,0.4
					S99.9,428.6,99.4,428.7"/>
			</g>
			<g>
				<path fill="#231F20" d="M80.9,431.3l-0.6,0.1c-0.5,0.1-1-0.1-1.2-0.4s0-0.5,0.5-0.6l0.6-0.1c0.5-0.1,1,0.1,1.2,0.4
					C81.6,430.9,81.4,431.2,80.9,431.3"/>
			</g>
			<g>
				<path fill="#231F20" d="M91,425.4c-0.1,0-0.2,0-0.2,0c-0.3,0-0.5-0.2-0.4-0.3l0.1-0.3c0-0.1,0.3-0.2,0.5-0.2
					c0.3,0,0.5,0.2,0.4,0.3l-0.1,0.3C91.3,425.4,91.2,425.4,91,425.4"/>
			</g>
			<g>
				<path fill="#231F20" d="M88.3,434.4c-0.1,0-0.2,0-0.2,0c-0.3,0-0.5-0.2-0.4-0.3l0.1-0.3c0-0.1,0.3-0.2,0.5-0.2
					c0.3,0,0.5,0.2,0.4,0.3l-0.1,0.3C88.5,434.3,88.4,434.4,88.3,434.4"/>
			</g>
			<g>
				<path fill="#231F20" d="M98.9,431.1c-0.1,0-0.2,0-0.2,0l-0.6-0.1c-0.3,0-0.5-0.2-0.4-0.3c0-0.1,0.3-0.2,0.5-0.2l0.6,0.1
					c0.3,0,0.5,0.2,0.4,0.3C99.1,431,99,431.1,98.9,431.1"/>
			</g>
			<g>
				<path fill="#231F20" d="M81,428.6c-0.1,0-0.2,0-0.2,0l-0.6-0.1c-0.3,0-0.5-0.2-0.4-0.3c0-0.1,0.3-0.2,0.5-0.2l0.6,0.1
					c0.3,0,0.5,0.2,0.4,0.3C81.3,428.5,81.2,428.6,81,428.6"/>
			</g>
			<g>
				<path fill="#231F20" d="M82.8,426.6c-0.2,0-0.3,0-0.5-0.1l-0.4-0.2c-0.2-0.1-0.2-0.2-0.1-0.3c0.2-0.1,0.5-0.1,0.7,0l0.4,0.2
					c0.2,0.1,0.2,0.2,0.1,0.3C83,426.5,82.9,426.6,82.8,426.6"/>
			</g>
			<g>
				<path fill="#231F20" d="M96.9,433.2c-0.2,0-0.3,0-0.5-0.1L96,433c-0.2-0.1-0.2-0.2-0.1-0.3c0.2-0.1,0.5-0.1,0.7,0l0.5,0.2
					c0.2,0.1,0.2,0.2,0.1,0.3C97.1,433.2,97,433.2,96.9,433.2"/>
			</g>
			<g>
				<path fill="#231F20" d="M83.8,433.2c-0.2,0-0.3,0-0.5-0.1s-0.2-0.2-0.1-0.3l0.4-0.2c0.2-0.1,0.5-0.1,0.7,0s0.2,0.2,0.1,0.3
					l-0.4,0.2C84,433.1,83.9,433.1,83.8,433.2"/>
			</g>
			<g>
				<path fill="#231F20" d="M95.1,426.6c-0.2,0-0.3,0-0.5-0.1s-0.2-0.2-0.1-0.3L95,426c0.2-0.1,0.5-0.1,0.7,0s0.2,0.2,0.1,0.3
					l-0.4,0.2C95.3,426.6,95.2,426.6,95.1,426.6"/>
			</g>
			<g>
				<path fill="#231F20" d="M89.8,430c-0.5,0.1-1-0.1-1.2-0.3l-2.8-3.8c-0.2-0.2,0-0.5,0.5-0.6s1,0.1,1.2,0.3l2.8,3.8
					C90.5,429.7,90.2,430,89.8,430z"/>
			</g>
			<g>
				<path fill="#231F20" d="M94.8,431.2c-0.2,0-0.4,0-0.6,0l-5-1.2c-0.5-0.1-0.7-0.4-0.6-0.6c0.2-0.2,0.7-0.3,1.2-0.2l5,1.2
					c0.5,0.1,0.7,0.4,0.6,0.6C95.3,431.1,95.1,431.2,94.8,431.2z"/>
			</g>
			<g>
				<path fill="#FFFFFF" d="M91.1,430.9c0.6-0.2,0.5-0.4,0.2-0.7c-0.2-0.2-0.4-0.5-1.1-0.5L91.1,430.9z M88,428
					c-0.4,0.1-0.5,0.3-0.2,0.7c0.2,0.3,0.3,0.4,1,0.5L88,428z M88.6,430.8c0.5,0.2,0.9,0.3,1.6,0.2l-0.9-1.3c-1.5,0-2.1-0.3-2.5-0.9
					c-0.5-0.7-0.2-1.2,0.8-1.4l-0.3-0.4l0.8-0.1l0.3,0.4c0.7-0.1,1.2,0,1.9,0.2L90,428c-0.5-0.1-0.8-0.2-1.2-0.1l0.9,1.2
					c1.5,0,2.2,0.3,2.6,0.9c0.5,0.6,0.2,1.2-0.9,1.4l0.5,0.6l-0.8,0.1l-0.5-0.6c-0.8,0.1-1.6,0-2.4-0.3L88.6,430.8z"/>
			</g>
			<path fill="#808080" d="M82.6,424.6c0,0,7-2.4,14.7,1.4c7.6,3.8,1.9,7.3,1.9,7.3s4.7-3.5-2.2-7C90.2,422.9,82.6,424.6,82.6,424.6
				z"/>
		</g>
	</g>
</g>
</svg>
