<?xml version="1.0" encoding="utf-8"?>
<!-- Generator: Adobe Illustrator 18.0.0, SVG Export Plug-In . SVG Version: 6.00 Build 0)  -->
<!DOCTYPE svg PUBLIC "-//W3C//DTD SVG 1.1//EN" "http://www.w3.org/Graphics/SVG/1.1/DTD/svg11.dtd">
<svg version="1.1" id="Layer_1" xmlns="http://www.w3.org/2000/svg" xmlns:xlink="http://www.w3.org/1999/xlink" x="0px" y="0px"
	 width="277.9px" height="792px" viewBox="0 0 277.9 792" enable-background="new 0 0 277.9 792" xml:space="preserve">
<g>
	<g id="time_right">
		
			<linearGradient id="SVGID_1_" gradientUnits="userSpaceOnUse" x1="784.7584" y1="-1110.9928" x2="893.5261" y2="-1144.6516" gradientTransform="matrix(0.227 0 0 -0.227 5.654908e-02 179.7833)">
			<stop  offset="0" style="stop-color:#CCCCCC;stop-opacity:0"/>
			<stop  offset="0.2581" style="stop-color:#C6C6C6;stop-opacity:0.2581"/>
			<stop  offset="0.5974" style="stop-color:#B6B6B6;stop-opacity:0.5974"/>
			<stop  offset="0.9803" style="stop-color:#9B9B9B;stop-opacity:0.9803"/>
			<stop  offset="1" style="stop-color:#999999"/>
		</linearGradient>
		<path fill="url(#SVGID_1_)" d="M213.3,450.2c0,0-20.4-4.1-29-7.7s0.3-18,20.6-11.1s22.2,9.6,22.2,9.6L213.3,450.2z"/>
		<g>
			
				<linearGradient id="SVGID_2_" gradientUnits="userSpaceOnUse" x1="888.7818" y1="-1154.9193" x2="1010.9261" y2="-1154.9193" gradientTransform="matrix(0.227 0 0 -0.227 5.654908e-02 179.7833)">
				<stop  offset="0" style="stop-color:#2E3192"/>
				<stop  offset="1.550877e-02" style="stop-color:#2E3695"/>
				<stop  offset="0.1474" style="stop-color:#2C5AAD"/>
				<stop  offset="0.2865" style="stop-color:#2B77C0"/>
				<stop  offset="0.4333" style="stop-color:#2A8ECF"/>
				<stop  offset="0.5909" style="stop-color:#2A9EDA"/>
				<stop  offset="0.7671" style="stop-color:#29A8E0"/>
				<stop  offset="1" style="stop-color:#29ABE2"/>
			</linearGradient>
			<path fill="url(#SVGID_2_)" d="M218.3,449.5c-0.9,0-1.9,0-2.9,0c-13.3-1-13.6-6.6-13.6-7.1v-7.2c0-0.2,0.1-0.5,0.3-0.6
				s0.4-0.2,0.6-0.2c0,0,0,0,0.1,0l26,1.8c0.4,0,0.8,0.4,0.8,0.8v7.1l0,0C229.5,444.3,228.9,449.5,218.3,449.5L218.3,449.5z"/>
			<path d="M202.7,435.1l25.9,1.8v7.1c0,0-0.5,4.7-10.4,4.7c-0.9,0-1.8,0-2.8-0.1c-12.9-1-12.7-6.3-12.7-6.3V435.1 M202.7,433.4
				c-0.4,0-0.9,0.2-1.2,0.5s-0.6,0.8-0.6,1.2v7.2c0,0.4,0.1,2.2,2.1,4c2.4,2.2,6.5,3.5,12.3,4c1,0.1,2.1,0.1,3,0.1
				c4.5,0,7.9-0.9,10-2.8c1.8-1.5,2-3.1,2.1-3.5c0-0.1,0-0.1,0-0.2V437c0-0.9-0.7-1.6-1.6-1.7l-26.1-1.8
				C202.8,433.4,202.7,433.4,202.7,433.4L202.7,433.4z"/>
		</g>
		<g>
			
				<linearGradient id="SVGID_3_" gradientUnits="userSpaceOnUse" x1="997.0751" y1="-1161.36" x2="946.9764" y2="-1071.5276" gradientTransform="matrix(0.2954 -4.063285e-02 -0.1153 -0.1586 -200.2585 298.6796)">
				<stop  offset="0" style="stop-color:#29ABE2"/>
				<stop  offset="0.1866" style="stop-color:#2CACE2"/>
				<stop  offset="0.3279" style="stop-color:#36B0E4"/>
				<stop  offset="0.4543" style="stop-color:#46B6E6"/>
				<stop  offset="0.572" style="stop-color:#5DBFE9"/>
				<stop  offset="0.6837" style="stop-color:#7BCBED"/>
				<stop  offset="0.7908" style="stop-color:#9FD9F2"/>
				<stop  offset="0.8943" style="stop-color:#CAEAF8"/>
				<stop  offset="0.9926" style="stop-color:#FBFDFE"/>
				<stop  offset="1" style="stop-color:#FFFFFF"/>
			</linearGradient>
			<path fill="url(#SVGID_3_)" d="M228.4,434.7c2.7,3.7-0.7,7.5-7.6,8.4c-6.9,1-14.7-1.3-17.4-5s0.7-7.5,7.6-8.4
				C217.9,428.7,225.7,431,228.4,434.7z"/>
			<g>
				<path fill="#231F20" d="M211.3,430.1c-6.2,0.9-9.3,4.3-6.9,7.6c2.4,3.3,9.5,5.4,15.7,4.5s9.3-4.3,6.9-7.6
					C224.6,431.3,217.5,429.2,211.3,430.1 M221,444c-7.5,1-16-1.9-18.9-6c-2.9-4,0.8-8.1,8.3-9.2c7.5-1,16,1.4,18.9,5.4
					C232.3,438.3,228.5,442.9,221,444"/>
			</g>
			<g>
				<path fill="#231F20" d="M212.6,431.8c-0.5,0.1-1-0.1-1.2-0.4l-0.2-0.3c-0.2-0.3,0-0.5,0.5-0.6s1,0.1,1.2,0.4l0.2,0.3
					C213.3,431.5,213.1,431.7,212.6,431.8"/>
			</g>
			<g>
				<path fill="#231F20" d="M219.8,441.7c-0.5,0.1-1-0.1-1.2-0.4l-0.2-0.3c-0.2-0.3,0-0.5,0.5-0.6s1,0.1,1.2,0.4l0.2,0.3
					C220.5,441.4,220.3,441.7,219.8,441.7"/>
			</g>
			<g>
				<path fill="#231F20" d="M225.6,435.3l-0.6,0.1c-0.5,0.1-1-0.1-1.2-0.4s0-0.5,0.5-0.6l0.6-0.1c0.5-0.1,1,0.1,1.2,0.4
					C226.4,435,226.1,435.2,225.6,435.3"/>
			</g>
			<g>
				<path fill="#231F20" d="M207.1,437.9l-0.6,0.1c-0.5,0.1-1-0.1-1.2-0.4s0-0.5,0.5-0.6l0.6-0.1c0.5-0.1,1,0.1,1.2,0.4
					C207.8,437.5,207.6,437.8,207.1,437.9"/>
			</g>
			<g>
				<path fill="#231F20" d="M217.2,432c-0.1,0-0.2,0-0.2,0c-0.3,0-0.5-0.2-0.4-0.3l0.1-0.3c0-0.1,0.3-0.2,0.5-0.2
					c0.3,0,0.5,0.2,0.4,0.3l-0.1,0.3C217.5,431.9,217.4,432,217.2,432"/>
			</g>
			<g>
				<path fill="#231F20" d="M214.5,441c-0.1,0-0.2,0-0.2,0c-0.3,0-0.5-0.2-0.4-0.3l0.1-0.3c0-0.1,0.3-0.2,0.5-0.2
					c0.3,0,0.5,0.2,0.4,0.3l-0.1,0.3C214.8,440.9,214.6,441,214.5,441"/>
			</g>
			<g>
				<path fill="#231F20" d="M225.1,437.7c-0.1,0-0.2,0-0.2,0l-0.6-0.1c-0.3,0-0.5-0.2-0.4-0.3c0-0.1,0.3-0.2,0.5-0.2l0.6,0.1
					c0.3,0,0.5,0.2,0.4,0.3C225.4,437.6,225.2,437.7,225.1,437.7"/>
			</g>
			<g>
				<path fill="#231F20" d="M207.2,435.2c-0.1,0-0.2,0-0.2,0l-0.6-0.1c-0.3,0-0.5-0.2-0.4-0.3c0-0.1,0.3-0.2,0.5-0.2l0.6,0.1
					c0.3,0,0.5,0.2,0.4,0.3C207.5,435.1,207.4,435.1,207.2,435.2"/>
			</g>
			<g>
				<path fill="#231F20" d="M209.1,433.1c-0.2,0-0.3,0-0.5-0.1l-0.4-0.2c-0.2-0.1-0.2-0.2-0.1-0.3c0.2-0.1,0.5-0.1,0.7,0l0.4,0.2
					c0.2,0.1,0.2,0.2,0.1,0.3C209.2,433.1,209.1,433.1,209.1,433.1"/>
			</g>
			<g>
				<path fill="#231F20" d="M223.2,439.8c-0.2,0-0.3,0-0.5-0.1l-0.5-0.2c-0.2-0.1-0.2-0.2-0.1-0.3c0.2-0.1,0.5-0.1,0.7,0l0.5,0.2
					c0.2,0.1,0.2,0.2,0.1,0.3C223.3,439.8,223.2,439.8,223.2,439.8"/>
			</g>
			<g>
				<path fill="#231F20" d="M210.1,439.7c-0.2,0-0.3,0-0.5-0.1s-0.2-0.2-0.1-0.3l0.4-0.2c0.2-0.1,0.5-0.1,0.7,0s0.2,0.2,0.1,0.3
					l-0.4,0.2C210.2,439.7,210.1,439.7,210.1,439.7"/>
			</g>
			<g>
				<path fill="#231F20" d="M221.4,433.2c-0.2,0-0.3,0-0.5-0.1s-0.2-0.2-0.1-0.3l0.4-0.2c0.2-0.1,0.5-0.1,0.7,0s0.2,0.2,0.1,0.3
					l-0.4,0.2C221.5,433.2,221.4,433.2,221.4,433.2"/>
			</g>
			<g>
				<path fill="#231F20" d="M216,436.6c-0.5,0.1-1-0.1-1.2-0.3l-2.8-3.8c-0.2-0.2,0-0.5,0.5-0.6s1,0.1,1.2,0.3l2.8,3.8
					C216.7,436.3,216.5,436.5,216,436.6z"/>
			</g>
			<g>
				<path fill="#231F20" d="M221,437.8c-0.2,0-0.4,0-0.6,0l-5-1.2c-0.5-0.1-0.7-0.4-0.6-0.6c0.2-0.2,0.7-0.3,1.2-0.2l5,1.2
					c0.5,0.1,0.7,0.4,0.6,0.6C221.5,437.7,221.3,437.8,221,437.8z"/>
			</g>
			<g>
				<path fill="#FFFFFF" d="M217.3,437.5c0.6-0.2,0.5-0.4,0.2-0.7c-0.2-0.2-0.4-0.5-1.1-0.5L217.3,437.5z M214.2,434.5
					c-0.4,0.1-0.5,0.3-0.2,0.7c0.2,0.3,0.3,0.4,1,0.5L214.2,434.5z M214.8,437.3c0.5,0.2,0.9,0.3,1.6,0.2l-0.9-1.3
					c-1.5,0-2.1-0.3-2.5-0.9c-0.5-0.7-0.2-1.2,0.8-1.4l-0.3-0.4l0.8-0.1l0.3,0.4c0.7-0.1,1.2,0,1.9,0.2l-0.3,0.5
					c-0.5-0.1-0.8-0.2-1.2-0.1l0.9,1.2c1.5,0,2.2,0.3,2.6,0.9c0.5,0.6,0.2,1.2-0.9,1.4l0.5,0.6l-0.8,0.1l-0.5-0.6
					c-0.8,0.1-1.6,0-2.4-0.3L214.8,437.3z"/>
			</g>
			<path fill="#808080" d="M208.8,431.2c0,0,7-2.4,14.7,1.4c7.6,3.8,1.9,7.3,1.9,7.3s4.7-3.5-2.2-7
				C216.4,429.4,208.8,431.2,208.8,431.2z"/>
		</g>
	</g>
</g>
</svg>
