<?xml version="1.0" encoding="utf-8"?>
<!-- Generator: Adobe Illustrator 18.0.0, SVG Export Plug-In . SVG Version: 6.00 Build 0)  -->
<!DOCTYPE svg PUBLIC "-//W3C//DTD SVG 1.1//EN" "http://www.w3.org/Graphics/SVG/1.1/DTD/svg11.dtd">
<svg version="1.1" id="Layer_1" xmlns="http://www.w3.org/2000/svg" xmlns:xlink="http://www.w3.org/1999/xlink" x="0px" y="0px"
	 width="277.9px" height="792px" viewBox="0 0 277.9 792" enable-background="new 0 0 277.9 792" xml:space="preserve">
<g>
	<g>
		
			<linearGradient id="SVGID_1_" gradientUnits="userSpaceOnUse" x1="190.1776" y1="-535.0649" x2="190.1776" y2="-604.8682" gradientTransform="matrix(0.227 0 0 -0.227 5.654908e-02 179.7833)">
			<stop  offset="6.804837e-02" style="stop-color:#FFFFFF"/>
			<stop  offset="1" style="stop-color:#29ABE2"/>
		</linearGradient>
		<path fill="url(#SVGID_1_)" d="M49.9,318.2H36.7c-0.6,0-1-0.5-1-1v-12.3c0-0.6,0.5-1,1-1h13.1c0.6,0,1,0.5,1,1v12.3
			C50.9,317.8,50.4,318.2,49.9,318.2z"/>
		<path fill="#231F20" d="M43.2,317.8h2c1.7,0,3.5,0,5.2,0h0.1l0,0c0-4.2,0-8.4,0-12.5c0-0.7-0.4-0.9-0.9-0.9c-4.2,0-8.4,0-12.6,0
			c-0.8,0-0.9,0.4-0.9,0.9c0,4,0,8.1,0,12.1v0.4v0.1c0,0,0.1,0,0.2,0c1.8,0,3.5,0,5.3,0L43.2,317.8L43.2,317.8z M47.1,319
			c-0.7,0-1.3,0-2,0h-3.7c-1.8,0-3.5,0-5.3,0c-0.8,0-1.3-0.2-1.3-1.3v-0.4c0-4,0-8.1,0-12.1c0-1.3,0.8-2.1,2.1-2.1
			c4.2,0,8.4,0,12.6,0c1.3,0,2.1,0.8,2.1,2.1c0,4.1,0,8.3,0,12.5c0,1.1-0.6,1.3-1.2,1.3C49.3,319,48.2,319,47.1,319"/>
		<path fill="#231F20" d="M56.9,312.5c0.8,0,1.6,0,2.4,0c0.2,0,0.4-0.1,0.5-0.2c0.1-0.1,0-0.4-0.1-0.6c-0.6-0.9-1.2-1.8-1.8-2.7
			c-0.2-0.2-0.4-0.4-0.6-0.4c-0.9,0-1.8,0-2.7,0c-0.5,0-0.6,0.1-0.6,0.6c0,0.9,0,1.7,0,2.6c0,0.5,0.1,0.6,0.6,0.6
			C55.4,312.5,56.2,312.5,56.9,312.5 M62.6,319.5C62.9,319.5,62.3,319.5,62.6,319.5c0.4,0,0.5,0.2,0.5,0.5c0,0.4,0,0.7,0,1.1
			c0,0.4-0.1,0.6-0.5,0.6c-1,0-1.1,0-2.1,0c-0.2,0-0.2-0.1-0.3-0.3c-0.4-1.5-1.3-2.4-2.7-2.7c-1.6-0.3-3.4,0.9-3.8,2.6
			c-0.1,0.3-0.1,0.4-0.4,0.4c-2,0-4,0-6,0c-0.2,0-0.3,0-0.4-0.3c-0.1-0.7-0.5-1.3-1-1.8h6.3v-0.5c0-3.9,0-7.8,0-11.7
			c0-0.8,0.3-1.1,1.1-1.1c1.2,0,2.3,0,3.5,0s2.2,0.5,2.9,1.6c0.8,1.2,1.6,2.5,2.4,3.7c0.4,0.7,0.6,1.4,0.6,2.2c0,1.8,0,3.5,0,5.3
			L62.6,319.5L62.6,319.5z"/>
		<path fill="#231F20" d="M44.9,322.2c0-0.7-0.6-1.3-1.2-1.3c-0.7,0-1.3,0.6-1.3,1.4c0,0.7,0.6,1.3,1.2,1.3
			C44.4,323.5,44.9,323,44.9,322.2 M41.1,322.2c0-1.5,1.1-2.7,2.5-2.7s2.5,1.2,2.5,2.7S45,325,43.6,325
			C42.3,325,41.1,323.8,41.1,322.2"/>
		<path fill="#231F20" d="M58.2,322.2c0-0.7-0.5-1.3-1.2-1.4c-0.7,0-1.3,0.6-1.3,1.3s0.6,1.4,1.3,1.4
			C57.6,323.5,58.2,323,58.2,322.2 M54.4,322.2c0-1.5,1.1-2.7,2.5-2.7s2.5,1.2,2.5,2.7s-1.2,2.7-2.5,2.7S54.4,323.8,54.4,322.2"/>
		<path fill="#231F20" d="M41.4,319.5c-0.3,0.5-0.5,0.9-0.8,1.4c-0.1,0.1-0.1,0.2-0.1,0.4c0,0.3-0.2,0.4-0.5,0.4c-1.3,0-2.5,0-3.8,0
			c-0.7,0-0.7-0.1-0.7-0.8c0-0.3,0-0.6,0-0.9s0.2-0.5,0.5-0.5C37.7,319.5,39.5,319.5,41.4,319.5"/>
		<path fill="#B3B3B3" d="M44.9,322.2c0,0.7-0.6,1.4-1.3,1.4s-1.2-0.6-1.2-1.3c0-0.8,0.5-1.4,1.3-1.4
			C44.4,320.8,44.9,321.5,44.9,322.2"/>
		<path fill="#B3B3B3" d="M58.2,322.2c0,0.7-0.6,1.3-1.2,1.3c-0.7,0-1.3-0.6-1.3-1.4c0-0.7,0.6-1.3,1.3-1.3S58.2,321.5,58.2,322.2"
			/>
		<path fill="#FFFFFF" d="M43.8,313.3c0.6-0.2,0.7-0.6,0.7-1.1s0-0.8-0.7-1V313.3z M43,308c-0.4,0.1-0.6,0.4-0.6,1.1
			c0,0.5,0,0.7,0.6,0.9V308z M41.8,312.5c0.3,0.4,0.6,0.7,1.2,0.7V311c-1.2-0.3-1.6-1-1.6-2c0-1.2,0.5-1.9,1.6-2v-0.7h0.8v0.7
			c0.7,0,1,0.2,1.5,0.7l-0.6,0.7c-0.3-0.3-0.6-0.4-1-0.5v2.1c1.3,0.2,1.7,1,1.7,2.1s-0.6,1.9-1.7,2.1v1.1h-0.8v-1.1
			c-0.7,0-1.4-0.4-1.9-1L41.8,312.5z"/>
		<g>
			<path fill="#E6E6E6" d="M33,318.8c0.3,0,0.6,0.3,0.7,0.6h0.1c0.2,0,0.5,0.2,0.5,0.5c0,0.2-0.2,0.5-0.5,0.5
				c-0.2,0-0.4-0.1-0.4-0.3c-0.1,0.1-0.2,0.1-0.4,0.1c-0.4,0-0.7-0.3-0.7-0.7C32.4,319,32.7,318.8,33,318.8z"/>
			<path fill="#E6E6E6" d="M29.8,318.8c0.1,0,0.1,0,0.2,0c0.1-0.2,0.4-0.4,0.7-0.4c0.4,0,0.7,0.3,0.7,0.7l0,0
				c0.2,0.1,0.5,0.3,0.5,0.6s-0.2,0.6-0.6,0.6c-0.2,0-0.3-0.1-0.4-0.2c-0.1,0.5-0.5,0.8-1,0.8c-0.6,0-1.1-0.5-1.1-1.1
				S29.3,318.8,29.8,318.8z"/>
			<path fill="#E6E6E6" d="M25.2,316.8c0.1,0,0.3,0,0.4,0.1c0.1-0.8,0.7-1.4,1.5-1.4s1.5,0.7,1.5,1.5c0,0.6-0.4,1.1-0.9,1.4
				c0.1,0.2,0.2,0.4,0.2,0.6c0,0.6-0.5,1-1,1c-0.6,0-1-0.5-1-1l0,0c-0.2,0.2-0.5,0.2-0.7,0.2c-0.7,0-1.2-0.5-1.2-1.2
				C24,317.3,24.5,316.8,25.2,316.8z"/>
			<path fill="#E6E6E6" d="M14.3,314.3c0.1,0,0.1,0,0.2,0c0.1-0.2,0.4-0.4,0.7-0.4c0.4,0,0.7,0.3,0.7,0.7l0,0
				c0.2,0.1,0.5,0.3,0.5,0.6s-0.2,0.6-0.6,0.6c-0.2,0-0.3-0.1-0.4-0.2c-0.1,0.5-0.5,0.8-1,0.8c-0.6,0-1.1-0.5-1.1-1.1
				S13.7,314.3,14.3,314.3z"/>
			<path fill="#E6E6E6" d="M9.6,312.3c0.1,0,0.3,0,0.4,0.1c0.1-0.8,0.7-1.4,1.5-1.4s1.5,0.7,1.5,1.5c0,0.6-0.4,1.1-0.9,1.4
				c0.1,0.2,0.2,0.4,0.2,0.6c0,0.6-0.5,1-1,1c-0.6,0-1-0.5-1-1l0,0c-0.2,0.2-0.5,0.2-0.7,0.2c-0.7,0-1.2-0.5-1.2-1.2
				S9,312.3,9.6,312.3z"/>
			<path fill="#E6E6E6" d="M17.9,314.3c0.3,0,0.5,0.1,0.7,0.2c0.1-1.2,1.1-2.1,2.3-2.1c1.2,0,2.3,1,2.3,2.3c0,0.9-0.5,1.7-1.3,2.1
				c0.2,0.2,0.4,0.5,0.4,0.8c0,0.6-0.5,1-1,1c-0.6,0-1-0.5-1-1c0-0.2,0.1-0.5,0.2-0.6c-0.5-0.1-1-0.4-1.3-0.9
				c-0.2,0.4-0.6,0.7-1.1,0.7c-0.7,0-1.2-0.6-1.2-1.2C16.6,315,17.2,314.3,17.9,314.3z"/>
			<circle fill="#E6E6E6" cx="17.3" cy="312.5" r="1.2"/>
		</g>
	</g>
</g>
</svg>
