<?xml version="1.0" encoding="utf-8"?>
<!-- Generator: Adobe Illustrator 18.0.0, SVG Export Plug-In . SVG Version: 6.00 Build 0)  -->
<!DOCTYPE svg PUBLIC "-//W3C//DTD SVG 1.1//EN" "http://www.w3.org/Graphics/SVG/1.1/DTD/svg11.dtd">
<svg version="1.1" id="Layer_1" xmlns="http://www.w3.org/2000/svg" xmlns:xlink="http://www.w3.org/1999/xlink" x="0px" y="0px"
	 width="277.9px" height="792px" viewBox="0 0 277.9 792" enable-background="new 0 0 277.9 792" xml:space="preserve">
<g>
	<g id="transportation_top">
		<g>
			<path fill="#EC1C24" d="M104.5,299.1h-1.8v6.8h-1.6v-6.8h-1.8v-1.2h5.2C104.5,297.9,104.5,299.1,104.5,299.1z"/>
			<path fill="#EC1C24" d="M106.8,302.7v3.2h-1.6v-8.1h2.6c0.8,0,1.4,0.2,1.9,0.6s0.7,1,0.7,1.7c0,0.4-0.1,0.8-0.3,1.1
				s-0.5,0.5-0.8,0.7c0.4,0.1,0.7,0.4,0.9,0.7c0.2,0.3,0.3,0.7,0.3,1.2v0.6c0,0.2,0,0.5,0.1,0.7c0,0.2,0.1,0.4,0.3,0.5v0.1h-1.6
				c-0.1-0.1-0.2-0.3-0.2-0.6s0-0.5,0-0.8V304c0-0.4-0.1-0.7-0.2-0.9c-0.2-0.2-0.4-0.3-0.7-0.3h-1.4
				C106.8,302.8,106.8,302.7,106.8,302.7z M106.8,301.5h1c0.3,0,0.6-0.1,0.7-0.3c0.2-0.2,0.2-0.5,0.2-0.8s-0.1-0.7-0.2-0.9
				c-0.2-0.2-0.4-0.3-0.7-0.3h-1.1L106.8,301.5L106.8,301.5z"/>
			<path fill="#EC1C24" d="M115.3,304.2h-2.1l-0.4,1.7h-1.6l2.3-8.1h1.6l2.3,8.1h-1.6L115.3,304.2z M113.5,302.9h1.5l-0.7-2.9l0,0
				L113.5,302.9z"/>
			<path fill="#EC1C24" d="M123.6,305.9H122l-2.5-5.2l0,0v5.2H118v-8.1h1.6l2.5,5.2l0,0v-5.2h1.6L123.6,305.9L123.6,305.9z"/>
			<path fill="#EC1C24" d="M128.4,303.8c0-0.3-0.1-0.6-0.2-0.7c-0.2-0.2-0.5-0.4-0.9-0.5c-0.8-0.3-1.5-0.6-1.9-1s-0.6-0.9-0.6-1.6
				s0.2-1.2,0.7-1.6s1.1-0.6,1.9-0.6s1.4,0.2,1.9,0.7s0.7,1,0.7,1.7l0,0h-1.5c0-0.4-0.1-0.7-0.3-0.9c-0.2-0.2-0.5-0.3-0.8-0.3
				s-0.6,0.1-0.7,0.3c-0.2,0.2-0.3,0.4-0.3,0.7c0,0.3,0.1,0.5,0.3,0.7c0.2,0.2,0.5,0.4,1,0.6c0.8,0.2,1.3,0.6,1.7,1s0.6,0.9,0.6,1.6
				s-0.2,1.2-0.7,1.6s-1.1,0.6-1.9,0.6c-0.8,0-1.4-0.2-2-0.7s-0.8-1.1-0.8-1.9l0,0h1.5c0,0.5,0.1,0.9,0.3,1.1c0.2,0.2,0.5,0.3,1,0.3
				c0.3,0,0.6-0.1,0.7-0.3S128.4,304.1,128.4,303.8z"/>
			<path fill="#EC1C24" d="M132.6,303v2.9H131v-8.1h2.8c0.8,0,1.4,0.2,1.9,0.7s0.7,1.1,0.7,1.9s-0.2,1.4-0.7,1.9s-1.1,0.7-1.9,0.7
				H132.6z M132.6,301.7h1.2c0.3,0,0.6-0.1,0.8-0.4s0.3-0.6,0.3-1s-0.1-0.7-0.3-1c-0.2-0.2-0.4-0.4-0.8-0.4h-1.2V301.7z"/>
			<path fill="#EC1C24" d="M142.8,303c0,1-0.2,1.7-0.8,2.2c-0.5,0.5-1.2,0.8-2,0.8c-0.9,0-1.5-0.3-2-0.8s-0.8-1.3-0.8-2.2v-2.3
				c0-1,0.2-1.7,0.8-2.2s1.2-0.8,2-0.8s1.5,0.3,2,0.8s0.8,1.3,0.8,2.2V303z M141.3,300.7c0-0.6-0.1-1-0.3-1.3s-0.5-0.4-0.9-0.4
				s-0.7,0.1-0.9,0.4s-0.3,0.7-0.3,1.3v2.3c0,0.6,0.1,1,0.3,1.3s0.5,0.4,0.9,0.4s0.7-0.1,0.9-0.4s0.3-0.7,0.3-1.3V300.7z"/>
			<path fill="#EC1C24" d="M145.5,302.7v3.2h-1.6v-8.1h2.6c0.8,0,1.4,0.2,1.9,0.6s0.7,1,0.7,1.7c0,0.4-0.1,0.8-0.3,1.1
				s-0.5,0.5-0.8,0.7c0.4,0.1,0.7,0.4,0.9,0.7c0.2,0.3,0.3,0.7,0.3,1.2v0.6c0,0.2,0,0.5,0.1,0.7c0,0.2,0.1,0.4,0.3,0.5v0.1H148
				c-0.1-0.1-0.2-0.3-0.2-0.6c0-0.2,0-0.5,0-0.8V304c0-0.4-0.1-0.7-0.2-0.9c-0.2-0.2-0.4-0.3-0.7-0.3h-1.4L145.5,302.7L145.5,302.7z
				 M145.5,301.5h1c0.3,0,0.6-0.1,0.7-0.3c0.2-0.2,0.2-0.5,0.2-0.8s-0.1-0.7-0.2-0.9c-0.2-0.2-0.4-0.3-0.7-0.3h-1.1L145.5,301.5
				L145.5,301.5z"/>
			<path fill="#EC1C24" d="M154.6,299.1h-1.8v6.8h-1.6v-6.8h-1.8v-1.2h5.2L154.6,299.1L154.6,299.1z"/>
			<path fill="#EC1C24" d="M158.6,304.2h-2.1l-0.4,1.7h-1.6l2.3-8.1h1.6l2.3,8.1H159L158.6,304.2z M156.8,302.9h1.5l-0.7-2.9l0,0
				L156.8,302.9z"/>
			<path fill="#EC1C24" d="M165.2,299.1h-1.8v6.8h-1.6v-6.8H160v-1.2h5.2V299.1z"/>
			<path fill="#EC1C24" d="M167.7,305.9h-1.6v-8.1h1.6V305.9z"/>
			<path fill="#EC1C24" d="M174.4,303c0,1-0.2,1.7-0.8,2.2c-0.5,0.5-1.2,0.8-2,0.8s-1.5-0.3-2-0.8s-0.8-1.3-0.8-2.2v-2.3
				c0-1,0.2-1.7,0.8-2.2s1.2-0.8,2-0.8s1.5,0.3,2,0.8s0.8,1.3,0.8,2.2V303z M172.9,300.7c0-0.6-0.1-1-0.3-1.3s-0.5-0.4-0.9-0.4
				s-0.7,0.1-0.9,0.4s-0.3,0.7-0.3,1.3v2.3c0,0.6,0.1,1,0.3,1.3s0.5,0.4,0.9,0.4s0.7-0.1,0.9-0.4s0.3-0.7,0.3-1.3V300.7z"/>
			<path fill="#EC1C24" d="M181.1,305.9h-1.6l-2.5-5.2l0,0v5.2h-1.6v-8.1h1.6l2.5,5.2l0,0v-5.2h1.6V305.9z"/>
		</g>
	</g>
</g>
</svg>
