<?xml version="1.0" encoding="utf-8"?>
<!-- Generator: Adobe Illustrator 18.0.0, SVG Export Plug-In . SVG Version: 6.00 Build 0)  -->
<!DOCTYPE svg PUBLIC "-//W3C//DTD SVG 1.1//EN" "http://www.w3.org/Graphics/SVG/1.1/DTD/svg11.dtd">
<svg version="1.1" id="Layer_1" xmlns="http://www.w3.org/2000/svg" xmlns:xlink="http://www.w3.org/1999/xlink" x="0px" y="0px"
	 width="277.9px" height="792px" viewBox="0 0 277.9 792" enable-background="new 0 0 277.9 792" xml:space="preserve">
<g>
	<g>
		
			<linearGradient id="SVGID_1_" gradientUnits="userSpaceOnUse" x1="153.8114" y1="-641.25" x2="153.8114" y2="-711.0532" gradientTransform="matrix(-0.227 0 0 -0.227 140.2752 179.7833)">
			<stop  offset="6.804837e-02" style="stop-color:#FFFFFF"/>
			<stop  offset="1" style="stop-color:#29ABE2"/>
		</linearGradient>
		<path fill="url(#SVGID_1_)" d="M98.8,342.3h13.1c0.6,0,1-0.5,1-1V329c0-0.6-0.5-1-1-1H98.8c-0.6,0-1,0.5-1,1v12.3
			C97.8,341.8,98.2,342.3,98.8,342.3z"/>
		<path fill="#231F20" d="M107.2,341.9c1.8,0,3.5,0,5.3,0c0.1,0,0.1,0,0.2,0c0,0,0,0,0-0.1v-0.4c0-4,0-8.1,0-12.1
			c0-0.5-0.1-0.9-0.9-0.9c-4.2,0-8.4,0-12.6,0c-0.6,0-0.9,0.2-0.9,0.9c0,4.1,0,8.3,0,12.5l0,0h0.1c1.7,0,3.5,0,5.2,0h2L107.2,341.9
			L107.2,341.9z M101.5,343.1c-1.1,0-2.2,0-3.2,0c-0.6,0-1.2-0.2-1.2-1.3c0-4.2,0-8.4,0-12.5c0-1.3,0.8-2.1,2.1-2.1
			c4.2,0,8.4,0,12.6,0c1.3,0,2.1,0.8,2.1,2.1c0,4,0,8.1,0,12.1v0.4c0,1.1-0.5,1.3-1.3,1.3c-1.8,0-3.5,0-5.3,0h-3.7
			C102.8,343.1,102.2,343.1,101.5,343.1"/>
		<path fill="#231F20" d="M91.7,336.5c0.8,0,1.6,0,2.3,0c0.5,0,0.6-0.1,0.6-0.6c0-0.9,0-1.7,0-2.6c0-0.5-0.1-0.6-0.6-0.6
			c-0.9,0-1.8,0-2.7,0c-0.3,0-0.5,0.1-0.6,0.4c-0.6,0.9-1.2,1.8-1.8,2.7c-0.1,0.2-0.2,0.4-0.1,0.6c0.1,0.1,0.3,0.2,0.5,0.2
			C90.1,336.6,90.9,336.5,91.7,336.5 M86.1,343.2c0-1.8,0-3.5,0-5.3c0-0.8,0.2-1.5,0.6-2.2c0.8-1.2,1.6-2.5,2.4-3.7
			c0.7-1.1,1.7-1.6,2.9-1.6c1.2,0,2.3,0,3.5,0c0.8,0,1.1,0.3,1.1,1.1c0,3.9,0,7.8,0,11.7v0.5h6.3c-0.5,0.5-0.9,1.1-1,1.8
			c0,0.3-0.2,0.3-0.4,0.3c-2,0-4,0-6,0c-0.3,0-0.4-0.1-0.4-0.4c-0.3-1.7-2.1-3-3.8-2.6c-1.4,0.3-2.3,1.2-2.7,2.7
			c0,0.2-0.1,0.3-0.3,0.3c-1,0-1.1,0-2.1,0c-0.4,0-0.5-0.2-0.5-0.6s0-0.7,0-1.1s0.1-0.5,0.5-0.5c0.3,0-0.3,0,0,0L86.1,343.2
			L86.1,343.2z"/>
		<path fill="#231F20" d="M103.8,346.3c0,0.7,0.6,1.4,1.3,1.4s1.2-0.6,1.2-1.3c0-0.8-0.5-1.4-1.3-1.4
			C104.3,345,103.8,345.6,103.8,346.3 M107.5,346.3c0,1.5-1.2,2.7-2.5,2.7c-1.4,0-2.5-1.2-2.5-2.7s1.1-2.7,2.5-2.7
			S107.5,344.8,107.5,346.3"/>
		<path fill="#231F20" d="M90.5,346.3c0,0.7,0.6,1.3,1.2,1.3c0.7,0,1.3-0.6,1.3-1.4s-0.6-1.3-1.3-1.3C91,345,90.5,345.6,90.5,346.3
			 M94.2,346.3c0,1.5-1.1,2.7-2.5,2.7s-2.5-1.2-2.5-2.7s1.1-2.7,2.5-2.7C93.1,343.6,94.3,344.8,94.2,346.3"/>
		<path fill="#231F20" d="M107.3,343.6c0.3,0.5,0.5,0.9,0.8,1.4c0.1,0.1,0.1,0.2,0.1,0.4c0,0.3,0.2,0.4,0.5,0.4c1.3,0,2.5,0,3.8,0
			c0.7,0,0.7-0.1,0.7-0.8c0-0.3,0-0.6,0-0.9s-0.2-0.5-0.5-0.5C111,343.6,109.2,343.6,107.3,343.6"/>
		<path fill="#B3B3B3" d="M103.8,346.3c0,0.7,0.6,1.4,1.3,1.4s1.2-0.6,1.2-1.3c0-0.8-0.5-1.4-1.3-1.4
			C104.3,345,103.8,345.6,103.8,346.3"/>
		<path fill="#B3B3B3" d="M90.5,346.3c0,0.7,0.6,1.3,1.2,1.3c0.7,0,1.3-0.6,1.3-1.4s-0.6-1.3-1.3-1.3C91,345,90.5,345.6,90.5,346.3"
			/>
		<path fill="#FFFFFF" d="M105.8,337.4c0.6-0.2,0.7-0.6,0.7-1.1s0-0.8-0.7-1V337.4z M105,332.1c-0.4,0.1-0.6,0.4-0.6,1.1
			c0,0.5,0,0.7,0.6,0.9V332.1z M103.8,336.7c0.3,0.4,0.6,0.7,1.2,0.7v-2.2c-1.2-0.3-1.6-1-1.6-2c0-1.2,0.5-1.9,1.6-2v-0.7h0.8v0.7
			c0.7,0,1,0.2,1.5,0.7l-0.6,0.7c-0.3-0.3-0.6-0.4-1-0.5v2.1c1.3,0.2,1.7,1,1.7,2.1s-0.6,1.9-1.7,2.1v1.1H105v-1.1
			c-0.7,0-1.4-0.4-1.9-1L103.8,336.7z"/>
		<g>
			<path fill="#E6E6E6" d="M115.6,342.9c-0.3,0-0.6,0.3-0.7,0.6h-0.1c-0.2,0-0.5,0.2-0.5,0.5s0.2,0.5,0.5,0.5c0.2,0,0.4-0.1,0.4-0.3
				c0.1,0.1,0.2,0.1,0.4,0.1c0.4,0,0.7-0.3,0.7-0.7S116,342.9,115.6,342.9z"/>
			<path fill="#E6E6E6" d="M118.8,342.9c-0.1,0-0.1,0-0.2,0c-0.1-0.2-0.4-0.4-0.7-0.4c-0.4,0-0.7,0.3-0.7,0.7l0,0
				c-0.2,0.1-0.5,0.3-0.5,0.6c0,0.3,0.2,0.6,0.6,0.6c0.2,0,0.3-0.1,0.4-0.2c0.1,0.5,0.5,0.8,1,0.8c0.6,0,1.1-0.5,1.1-1.1
				C119.9,343.4,119.4,342.9,118.8,342.9z"/>
			<path fill="#E6E6E6" d="M123.5,340.9c-0.1,0-0.3,0-0.4,0.1c-0.1-0.8-0.7-1.4-1.5-1.4s-1.5,0.7-1.5,1.5c0,0.6,0.4,1.1,0.9,1.4
				c-0.1,0.2-0.2,0.4-0.2,0.6c0,0.6,0.5,1,1,1c0.6,0,1-0.5,1-1l0,0c0.2,0.2,0.5,0.2,0.7,0.2c0.7,0,1.2-0.5,1.2-1.2
				S124.1,340.9,123.5,340.9z"/>
			<path fill="#E6E6E6" d="M134.4,338.4c-0.1,0-0.1,0-0.2,0c-0.1-0.2-0.4-0.4-0.7-0.4c-0.4,0-0.7,0.3-0.7,0.7l0,0
				c-0.2,0.1-0.5,0.3-0.5,0.6c0,0.3,0.2,0.6,0.6,0.6c0.2,0,0.3-0.1,0.4-0.2c0.1,0.5,0.5,0.8,1,0.8c0.6,0,1.1-0.5,1.1-1.1
				C135.4,338.9,135,338.4,134.4,338.4z"/>
			<path fill="#E6E6E6" d="M139,336.4c-0.1,0-0.3,0-0.4,0.1c-0.1-0.8-0.7-1.4-1.5-1.4s-1.5,0.7-1.5,1.5c0,0.6,0.4,1.1,0.9,1.4
				c-0.1,0.2-0.2,0.4-0.2,0.6c0,0.6,0.5,1,1,1s1-0.5,1-1l0,0c0.2,0.2,0.5,0.2,0.7,0.2c0.7,0,1.2-0.5,1.2-1.2S139.7,336.4,139,336.4z
				"/>
			<path fill="#E6E6E6" d="M130.8,338.5c-0.3,0-0.5,0.1-0.7,0.2c-0.1-1.2-1.1-2.1-2.3-2.1s-2.3,1-2.3,2.3c0,0.9,0.5,1.7,1.3,2.1
				c-0.2,0.2-0.4,0.5-0.4,0.8c0,0.6,0.5,1,1,1s1-0.5,1-1c0-0.2-0.1-0.5-0.2-0.6c0.5-0.1,1-0.4,1.3-0.9c0.2,0.4,0.6,0.7,1.1,0.7
				c0.7,0,1.2-0.6,1.2-1.2S131.5,338.5,130.8,338.5z"/>
			<circle fill="#E6E6E6" cx="131.4" cy="336.5" r="1.2"/>
		</g>
	</g>
</g>
</svg>
