<?xml version="1.0" encoding="utf-8"?>
<!-- Generator: Adobe Illustrator 18.0.0, SVG Export Plug-In . SVG Version: 6.00 Build 0)  -->
<!DOCTYPE svg PUBLIC "-//W3C//DTD SVG 1.1//EN" "http://www.w3.org/Graphics/SVG/1.1/DTD/svg11.dtd">
<svg version="1.1" id="Layer_1" xmlns="http://www.w3.org/2000/svg" xmlns:xlink="http://www.w3.org/1999/xlink" x="0px" y="0px"
	 width="277.9px" height="792px" viewBox="0 0 277.9 792" enable-background="new 0 0 277.9 792" xml:space="preserve">
<g>
	<g>
		<g>
			<g>
				<g>
					<g>
						<defs>
							<polygon id="SVGID_1_" points="71.7,440.6 83.3,455 83.3,463.3 47.9,461.1 34.7,448.1 43.9,440.4 							"/>
						</defs>
						<clipPath id="SVGID_2_">
							<use xlink:href="#SVGID_1_"  overflow="visible"/>
						</clipPath>
						<g clip-path="url(#SVGID_2_)">
							
								<linearGradient id="SVGID_3_" gradientUnits="userSpaceOnUse" x1="167.724" y1="-1166.1041" x2="276.4918" y2="-1199.7629" gradientTransform="matrix(0.227 0 0 -0.227 5.654908e-02 179.7833)">
								<stop  offset="0" style="stop-color:#CCCCCC;stop-opacity:0"/>
								<stop  offset="0.2581" style="stop-color:#C6C6C6;stop-opacity:0.2581"/>
								<stop  offset="0.5974" style="stop-color:#B6B6B6;stop-opacity:0.5974"/>
								<stop  offset="0.9803" style="stop-color:#9B9B9B;stop-opacity:0.9803"/>
								<stop  offset="1" style="stop-color:#999999"/>
							</linearGradient>
							<path fill="url(#SVGID_3_)" d="M73.2,462.7c0,0-20.4-4.1-29-7.7s0.3-18,20.6-11.1s22.2,9.6,22.2,9.6L73.2,462.7z"/>
							<g>
								
									<linearGradient id="SVGID_4_" gradientUnits="userSpaceOnUse" x1="271.9" y1="-1209.5448" x2="394.0444" y2="-1209.5448" gradientTransform="matrix(0.227 0 0 -0.227 5.654908e-02 179.7833)">
									<stop  offset="0" style="stop-color:#2E3192"/>
									<stop  offset="1.550877e-02" style="stop-color:#2E3695"/>
									<stop  offset="0.1474" style="stop-color:#2C5AAD"/>
									<stop  offset="0.2865" style="stop-color:#2B77C0"/>
									<stop  offset="0.4333" style="stop-color:#2A8ECF"/>
									<stop  offset="0.5909" style="stop-color:#2A9EDA"/>
									<stop  offset="0.7671" style="stop-color:#29A8E0"/>
									<stop  offset="1" style="stop-color:#29ABE2"/>
								</linearGradient>
								<path fill="url(#SVGID_4_)" d="M78.2,461.9c-0.9,0-1.9,0-2.9,0c-13.3-1-13.6-6.6-13.6-7.1v-7.2c0-0.2,0.1-0.5,0.3-0.6
									s0.4-0.2,0.6-0.2c0,0,0,0,0.1,0l26,1.8c0.4,0,0.8,0.4,0.8,0.8v7.1l0,0C89.5,456.8,88.8,461.9,78.2,461.9L78.2,461.9z"/>
								<path d="M62.7,447.6l25.9,1.8v7.1c0,0-0.5,4.7-10.4,4.7c-0.9,0-1.8,0-2.8-0.1c-12.9-1-12.7-6.3-12.7-6.3L62.7,447.6
									 M62.6,445.9c-0.4,0-0.9,0.2-1.2,0.5s-0.6,0.8-0.6,1.2v7.2c0,0.4,0.1,2.2,2.1,4c2.4,2.2,6.5,3.5,12.3,4c1,0.1,2.1,0.1,3,0.1
									c4.5,0,7.9-0.9,10-2.8c1.8-1.5,2-3.1,2.1-3.5c0-0.1,0-0.1,0-0.2v-7.1c0-0.9-0.7-1.6-1.6-1.7L62.6,445.9
									C62.7,445.9,62.6,445.9,62.6,445.9L62.6,445.9z"/>
							</g>
							<g>
								
									<linearGradient id="SVGID_5_" gradientUnits="userSpaceOnUse" x1="538.3883" y1="-1122.4093" x2="488.2894" y2="-1032.5768" gradientTransform="matrix(0.2954 -4.063285e-02 -0.1153 -0.1586 -200.2585 298.6796)">
									<stop  offset="0" style="stop-color:#29ABE2"/>
									<stop  offset="0.1866" style="stop-color:#2CACE2"/>
									<stop  offset="0.3279" style="stop-color:#36B0E4"/>
									<stop  offset="0.4543" style="stop-color:#46B6E6"/>
									<stop  offset="0.572" style="stop-color:#5DBFE9"/>
									<stop  offset="0.6837" style="stop-color:#7BCBED"/>
									<stop  offset="0.7908" style="stop-color:#9FD9F2"/>
									<stop  offset="0.8943" style="stop-color:#CAEAF8"/>
									<stop  offset="0.9926" style="stop-color:#FBFDFE"/>
									<stop  offset="1" style="stop-color:#FFFFFF"/>
								</linearGradient>
								<path fill="url(#SVGID_5_)" d="M88.3,447.1c2.7,3.7-0.7,7.5-7.6,8.4c-6.9,1-14.7-1.3-17.4-5c-2.7-3.7,0.7-7.5,7.6-8.4
									C77.9,441.2,85.6,443.4,88.3,447.1z"/>
								<g>
									<path fill="#231F20" d="M71.2,442.6c-6.2,0.9-9.3,4.3-6.9,7.6c2.4,3.3,9.5,5.4,15.7,4.5s9.3-4.3,6.9-7.6
										C84.5,443.7,77.5,441.7,71.2,442.6 M81,456.4c-7.5,1-16-1.9-18.9-6c-2.9-4,0.8-8.1,8.3-9.2c7.5-1,16,1.4,18.9,5.4
										C92.2,450.8,88.5,455.4,81,456.4"/>
								</g>
								<g>
									<path fill="#231F20" d="M72.5,444.3c-0.5,0.1-1-0.1-1.2-0.4l-0.2-0.3c-0.2-0.3,0-0.5,0.5-0.6s1,0.1,1.2,0.4l0.2,0.3
										C73.2,443.9,73,444.2,72.5,444.3"/>
								</g>
								<g>
									<path fill="#231F20" d="M79.7,454.2c-0.5,0.1-1-0.1-1.2-0.4l-0.2-0.3c-0.2-0.3,0-0.5,0.5-0.6s1,0.1,1.2,0.4l0.2,0.3
										C80.5,453.9,80.2,454.2,79.7,454.2"/>
								</g>
								<g>
									<path fill="#231F20" d="M85.5,447.8l-0.6,0.1c-0.5,0.1-1-0.1-1.2-0.4s0-0.5,0.5-0.6l0.6-0.1c0.5-0.1,1,0.1,1.2,0.4
										C86.3,447.4,86,447.7,85.5,447.8"/>
								</g>
								<g>
									<path fill="#231F20" d="M67,450.3l-0.6,0.1c-0.5,0.1-1-0.1-1.2-0.4s0-0.5,0.5-0.6l0.6-0.1c0.5-0.1,1,0.1,1.2,0.4
										C67.8,450,67.5,450.3,67,450.3"/>
								</g>
								<g>
									<path fill="#231F20" d="M77.1,444.5c-0.1,0-0.2,0-0.2,0c-0.3,0-0.5-0.2-0.4-0.3l0.1-0.3c0-0.1,0.3-0.2,0.5-0.2
										c0.3,0,0.5,0.2,0.4,0.3l-0.1,0.3C77.4,444.4,77.3,444.5,77.1,444.5"/>
								</g>
								<g>
									<path fill="#231F20" d="M74.4,453.5c-0.1,0-0.2,0-0.2,0c-0.3,0-0.5-0.2-0.4-0.3l0.1-0.3c0-0.1,0.3-0.2,0.5-0.2
										c0.3,0,0.5,0.2,0.4,0.3l-0.1,0.3C74.7,453.4,74.6,453.5,74.4,453.5"/>
								</g>
								<g>
									<path fill="#231F20" d="M85,450.2c-0.1,0-0.2,0-0.2,0l-0.6-0.1c-0.3,0-0.5-0.2-0.4-0.3c0-0.1,0.3-0.2,0.5-0.2l0.6,0.1
										c0.3,0,0.5,0.2,0.4,0.3C85.3,450.1,85.2,450.1,85,450.2"/>
								</g>
								<g>
									<path fill="#231F20" d="M67.2,447.6c-0.1,0-0.2,0-0.2,0l-0.6-0.1c-0.3,0-0.5-0.2-0.4-0.3c0-0.1,0.3-0.2,0.5-0.2l0.6,0.1
										c0.3,0,0.5,0.2,0.4,0.3C67.5,447.6,67.3,447.6,67.2,447.6"/>
								</g>
								<g>
									<path fill="#231F20" d="M69,445.6c-0.2,0-0.3,0-0.5-0.1l-0.4-0.2c-0.2-0.1-0.2-0.2-0.1-0.3c0.2-0.1,0.5-0.1,0.7,0l0.4,0.2
										c0.2,0.1,0.2,0.2,0.1,0.3C69.1,445.6,69.1,445.6,69,445.6"/>
								</g>
								<g>
									<path fill="#231F20" d="M83.1,452.3c-0.2,0-0.3,0-0.5-0.1l-0.5-0.2c-0.2-0.1-0.2-0.2-0.1-0.3c0.2-0.1,0.5-0.1,0.7,0
										l0.5,0.2c0.2,0.1,0.2,0.2,0.1,0.3C83.3,452.3,83.2,452.3,83.1,452.3"/>
								</g>
								<g>
									<path fill="#231F20" d="M70,452.2c-0.2,0-0.3,0-0.5-0.1s-0.2-0.2-0.1-0.3l0.4-0.2c0.2-0.1,0.5-0.1,0.7,0s0.2,0.2,0.1,0.3
										l-0.4,0.2C70.2,452.2,70.1,452.2,70,452.2"/>
								</g>
								<g>
									<path fill="#231F20" d="M81.3,445.7c-0.2,0-0.3,0-0.5-0.1s-0.2-0.2-0.1-0.3l0.4-0.2c0.2-0.1,0.5-0.1,0.7,0s0.2,0.2,0.1,0.3
										l-0.4,0.2C81.4,445.7,81.4,445.7,81.3,445.7"/>
								</g>
								<g>
									<path fill="#231F20" d="M75.9,449.1c-0.5,0.1-1-0.1-1.2-0.3l-2.8-3.8c-0.2-0.2,0-0.5,0.5-0.6s1,0.1,1.2,0.3l2.8,3.8
										C76.6,448.8,76.4,449,75.9,449.1z"/>
								</g>
								<g>
									<path fill="#231F20" d="M81,450.3c-0.2,0-0.4,0-0.6,0l-5-1.2c-0.5-0.1-0.7-0.4-0.6-0.6c0.2-0.2,0.7-0.3,1.2-0.2l5,1.2
										c0.5,0.1,0.7,0.4,0.6,0.6C81.4,450.2,81.2,450.3,81,450.3z"/>
								</g>
								<g>
									<path fill="#FFFFFF" d="M77.2,450c0.6-0.2,0.5-0.4,0.2-0.7c-0.2-0.2-0.4-0.5-1.1-0.5L77.2,450z M74.2,447
										c-0.4,0.1-0.5,0.3-0.2,0.7c0.2,0.3,0.3,0.4,1,0.5L74.2,447z M74.8,449.8c0.5,0.2,0.9,0.3,1.6,0.2l-0.9-1.3
										c-1.5,0-2.1-0.3-2.5-0.9c-0.5-0.7-0.2-1.2,0.8-1.4l-0.3-0.4l0.8-0.1l0.3,0.4c0.7-0.1,1.2,0,1.9,0.2l-0.3,0.5
										c-0.5-0.1-0.8-0.2-1.2-0.1l0.9,1.2c1.5,0,2.2,0.3,2.6,0.9c0.5,0.6,0.2,1.2-0.9,1.4l0.5,0.6l-0.8,0.1l-0.5-0.6
										c-0.8,0.1-1.6,0-2.4-0.3L74.8,449.8z"/>
								</g>
								<path fill="#808080" d="M68.7,443.6c0,0,7-2.4,14.7,1.4c7.6,3.8,1.9,7.3,1.9,7.3s4.7-3.5-2.2-7
									C76.3,441.9,68.7,443.6,68.7,443.6z"/>
							</g>
						</g>
					</g>
				</g>
			</g>
		</g>
		<polyline fill="none" stroke="#000000" stroke-linecap="round" stroke-miterlimit="10" points="72.4,442 83.3,455.1 83.3,461.5 		
			"/>
	</g>
</g>
</svg>
