<?xml version="1.0" encoding="utf-8"?>
<!-- Generator: Adobe Illustrator 18.0.0, SVG Export Plug-In . SVG Version: 6.00 Build 0)  -->
<!DOCTYPE svg PUBLIC "-//W3C//DTD SVG 1.1//EN" "http://www.w3.org/Graphics/SVG/1.1/DTD/svg11.dtd">
<svg version="1.1" id="Layer_1" xmlns="http://www.w3.org/2000/svg" xmlns:xlink="http://www.w3.org/1999/xlink" x="0px" y="0px"
	 width="277.9px" height="792px" viewBox="0 0 277.9 792" enable-background="new 0 0 277.9 792" xml:space="preserve">
<g>
	<g>
		
			<linearGradient id="SVGID_1_" gradientUnits="userSpaceOnUse" x1="330.6392" y1="-896.1586" x2="137.8716" y2="-868.9736" gradientTransform="matrix(0.227 0 0 -0.227 5.654908e-02 179.7833)">
			<stop  offset="0" style="stop-color:#B3B3B3"/>
			<stop  offset="0.2807" style="stop-color:#B6B6B6;stop-opacity:0.7193"/>
			<stop  offset="0.493" style="stop-color:#C0C0C0;stop-opacity:0.507"/>
			<stop  offset="0.6829" style="stop-color:#D0D0D0;stop-opacity:0.3171"/>
			<stop  offset="0.8586" style="stop-color:#E7E7E7;stop-opacity:0.1414"/>
			<stop  offset="1" style="stop-color:#FFFFFF;stop-opacity:0"/>
		</linearGradient>
		<path fill="url(#SVGID_1_)" d="M62.5,384.9c0,0-23.2-3.4-26.2-4.2c-3-0.7-5.4,0.5-6.4,0c-1.1-0.5,2.1-4.1,4.3-4.3
			c2.3-0.2,9-1.8,12.5-1.1c2.6,0.5,24.7,4.5,33.8,6.2c3.1,0.6-0.6,0.5-0.6,0.5l-21.1-3.9l-6.1,0.4l16.8,3.9l-1.6,2.1L56.1,381
			l-5.8-0.6l13.6,3L62.5,384.9z"/>
		<g>
			<circle fill="#C7B299" cx="72.8" cy="358.2" r="2.3"/>
			<path d="M72.8,360.9c-1.5,0-2.7-1.2-2.7-2.7s1.2-2.7,2.7-2.7s2.7,1.2,2.7,2.7C75.5,359.7,74.3,360.9,72.8,360.9z M72.8,356.2
				c-1.1,0-2,0.9-2,2s0.9,2,2,2s2-0.9,2-2C74.7,357.1,73.9,356.2,72.8,356.2z"/>
		</g>
		<g>
			<path fill="#B3B3B3" d="M62.7,384.5c-0.1,0-0.3,0-0.4,0c-0.4-0.1-0.8-0.4-1-0.8s-0.3-0.8-0.2-1.3l1.5-5.8l-0.6-7.3
				c0-0.1,0-0.2,0-0.3c0-2.5,2.2-5.7,3.8-7.6l-2-0.2l-0.9,3.8c-0.2,0.7-0.7,1.1-1.4,1.1c-0.1,0-0.2,0-0.3,0
				c-0.4-0.1-0.7-0.3-0.9-0.6c-0.2-0.3-0.3-0.7-0.2-1.1l1.1-5c0.2-0.7,0.7-1.1,1.4-1.1h0.1l5.1,0.5c0.3,0,0.5,0.1,0.7,0.3l4.2,3.3
				c0.3,0.2,0.5,0.7,0.5,1.1v9.1c0,0.8-0.7,1.4-1.5,1.4c-0.1,0-0.2,0-0.2,0l0.5,0.7c0.3,0.4,0.4,1,0.2,1.4l-2.1,6.9
				c-0.2,0.7-0.9,1.2-1.6,1.2c-0.2,0-0.3,0-0.5-0.1c-0.4-0.1-0.8-0.4-1-0.8s-0.2-0.8-0.1-1.3l1.9-6.2l-3.5-5.1l0.5,5.7
				c0,0.2,0,0.4,0,0.6l-1.6,6.1C64.1,384,63.5,384.5,62.7,384.5L62.7,384.5z M70.4,372.3v-5.5l-2,2.5L70.4,372.3z"/>
			<path d="M62.7,358.6L62.7,358.6l5.2,0.5c0.2,0,0.4,0.1,0.5,0.2l4.1,3.3c0.2,0.2,0.3,0.5,0.3,0.8v9.1c0,0.6-0.6,1-1.1,1
				s-1.1-0.5-1.1-1v-6.9l-2.8,3.6l3.9,5.7c0.2,0.3,0.3,0.7,0.2,1.1l-2.1,6.9c-0.2,0.5-0.7,0.9-1.2,0.9c-0.1,0-0.2,0-0.4,0
				c-0.7-0.2-1.1-0.9-0.9-1.6l1.9-6.3l-3.7-5.5c-0.2,0.1-0.4,0.1-0.6,0.2l0.5,6.1c0,0.1,0,0.3,0,0.4l-1.6,6.2c-0.2,0.6-0.7,1-1.2,1
				l0,0c-0.1,0-0.2-0.1-0.3-0.1c-0.7-0.2-1.1-0.9-0.9-1.6l1.5-5.9l-0.6-7.4c0-0.1,0-0.2,0-0.3c0-2.7,2.7-6.2,4.2-7.9l-3.1-0.3
				l-0.9,4.1c-0.1,0.5-0.5,0.8-1,0.8c-0.1,0-0.2,0-0.2,0c-0.5-0.1-0.9-0.7-0.8-1.2l1.1-5C61.8,359,62.2,358.6,62.7,358.6
				 M62.7,357.8c-0.8,0-1.6,0.6-1.7,1.4l-1.1,5c-0.1,0.5,0,1,0.2,1.4s0.7,0.7,1.1,0.8c0.1,0,0.3,0,0.4,0c0.2,0,0.5,0,0.7-0.1
				c-0.4,0.9-0.6,1.8-0.6,2.7c0,0.1,0,0.2,0,0.4l0.6,7.2l-1.5,5.8c-0.1,0.5-0.1,1.1,0.2,1.6s0.7,0.8,1.2,1c0.2,0,0.3,0.1,0.5,0.1
				c0.9,0,1.8-0.6,2-1.5l1.6-6.1c0.1-0.2,0.1-0.5,0.1-0.7l-0.4-4.3l2.5,3.7l-1.8,6c-0.2,0.5-0.1,1.1,0.2,1.6c0.2,0.5,0.7,0.8,1.2,1
				c0.2,0.1,0.4,0.1,0.6,0.1c0.9,0,1.7-0.6,2-1.5l2.1-6.9c0.2-0.6,0.1-1.2-0.3-1.8l-0.2-0.2c0.8-0.2,1.3-0.9,1.3-1.7v-9.1
				c0-0.6-0.2-1.1-0.6-1.4l-4.1-3.3c-0.3-0.2-0.6-0.4-0.9-0.4l-5.1-0.5C62.8,357.9,62.7,357.8,62.7,357.8L62.7,357.8z M63.6,363.8
				l0.5-2.2l1,0.1C64.5,362.3,64.1,363,63.6,363.8L63.6,363.8z M69,369.3l1.2-1.4v3.1L69,369.3L69,369.3z"/>
		</g>
		<g>
			<path d="M80.2,379c-0.1,0-0.1,0-0.2-0.1l-17.4-13.3c-0.1-0.1-0.2-0.3-0.1-0.5c0.1-0.1,0.3-0.2,0.5-0.1l17.4,13.3
				c0.1,0.1,0.2,0.3,0.1,0.5S80.3,379,80.2,379z"/>
		</g>
		<g>
			<path d="M60.3,363.8c-0.1,0-0.1,0-0.2-0.1l-1.5-1.1c-0.1-0.1-0.2-0.3-0.1-0.5c0.1-0.1,0.3-0.2,0.5-0.1l1.5,1.1
				c0.1,0.1,0.2,0.3,0.1,0.5C60.5,363.7,60.4,363.8,60.3,363.8z"/>
		</g>
		<path d="M75.9,379.3l4.2-4.7l1.8,1.6c2.2,2,1,5.2,1,5.2s-2.8,1.7-5.2-0.4C76.4,379.7,75.9,379.3,75.9,379.3z"/>
		<path d="M74.9,384.5c0,0,0.2-1.3,1.3-1.3c1,0,1.4,0.3,1.4,0.3s0.1-2.5,1.9-2.5s1.9,0.5,1.9,0.5s0.9-0.8,2.6-0.8s2.1,1.5,2.1,1.5
			s0.9-0.1,1.3,0.2c0.4,0.3,0.4,0.7,0.4,0.7s0.9,0.1,1.1,0.4s0.7,1,0.7,1L74.9,384.5L74.9,384.5z"/>
		<path fill="#B3B3B3" d="M70.6,361.2c0,0-3.1,1.1-4.2,2.2c-1,1.2-2.5,3.8-2.8,5.4s0.4,7.9,0.4,7.9s-1.8,5.5-1.8,6.2
			c0,0.6,1,1.5,1,1.5s-1.9,0-2.2-1.1s1.7-6.7,1.7-6.7s-0.9-6.7-0.8-7.9c0.1-1.2,1-3.4,2-4.9s1.9-2.5,1.9-2.5l-2.4-0.4
			c0,0-1.1,0.1-1.5,0.9c-0.5,0.9-0.7,2.1-0.6,2.9s0.5,1.4,0.5,1.4s-0.9,0.2-1.5-1s1-5.6,1-5.6s0.2-1.6,2.2-1.4c2,0.2,5,0.7,5,0.7
			L70.6,361.2z"/>
		<path fill="#B3B3B3" d="M65.4,370.5c0,0,1.2-0.7,2.2,0.6c1,1.3,2.9,4.4,2.9,4.4s-1.5,5.6-1.9,6.5c-0.3,1,0.1,2.1,0.1,2.1
			s-1.5-0.3-1.6-1c-0.2-0.6,1.7-7.1,1.7-7.1L65.4,370.5z"/>
		<path fill="#B3B3B3" d="M70.5,366.2c0,0,1.5-2.4,1.5-2.2c0,0.2-0.2,6.1-0.2,7.2s0.9,2.2,0.9,2.2s-0.7,1-1.1,0.8
			c-0.5-0.2-1.4-1.2-1.3-2.1C70.3,371.1,70.5,366.2,70.5,366.2z"/>
		<path d="M77,359.4l-1-0.5c0.2-0.5,0.3-1.1,0.3-1.7c-0.2-1.7-1.8-3-3.5-2.8c-1.1,0.1-2,0.8-2.5,1.8h-0.1c-0.1,0-0.2,0-0.3,0.1
			c0,0.1,0,0.2,0.1,0.3l6.8,3.2h0.1c0.1,0,0.2,0,0.2-0.1C77.2,359.6,77.1,359.4,77,359.4z"/>
		<path fill="#B3B3B3" d="M74.9,359.2c0,0-1.4-0.7-2.5-0.6c-1,0.1-1.4,0.9-1.4,0.9s-0.8-1.4-0.4-2.2c0.4-0.8,0.7-0.8,0.7-0.8l4,2.2
			L74.9,359.2z"/>
		<g>
			<path fill="#FFFFFF" d="M68.2,366.1c0.1-0.1,0.1-0.2,0.1-0.4c0-0.1-0.1-0.3-0.2-0.5c-0.2-0.4-0.4-0.7-0.4-1s0-0.5,0.2-0.8
				c0.2-0.2,0.4-0.4,0.7-0.4c0.3,0,0.6,0,0.9,0.2l0.4-0.5l0.4,0.3l-0.4,0.5c0.2,0.2,0.4,0.5,0.4,0.8s-0.1,0.6-0.3,0.9l0,0l-0.7-0.5
				c0.1-0.2,0.2-0.3,0.2-0.5s-0.1-0.3-0.2-0.4s-0.2-0.1-0.4-0.1c-0.1,0-0.2,0.1-0.3,0.2c-0.1,0.1-0.1,0.2-0.1,0.4
				c0,0.1,0.1,0.3,0.2,0.5c0.2,0.4,0.4,0.7,0.4,1s0,0.5-0.2,0.8s-0.5,0.4-0.7,0.5c-0.3,0-0.6,0-0.9-0.2l-0.3,0.5l-0.4-0.3l0.3-0.5
				c-0.2-0.2-0.4-0.5-0.5-0.8c0-0.3,0-0.6,0.3-1l0,0l0.7,0.5c-0.2,0.2-0.2,0.4-0.2,0.5c0,0.2,0.1,0.3,0.2,0.4s0.3,0.2,0.4,0.1
				C68,366.3,68.1,366.2,68.2,366.1z"/>
		</g>
	</g>
</g>
</svg>
