<?xml version="1.0" encoding="utf-8"?>
<!-- Generator: Adobe Illustrator 18.0.0, SVG Export Plug-In . SVG Version: 6.00 Build 0)  -->
<!DOCTYPE svg PUBLIC "-//W3C//DTD SVG 1.1//EN" "http://www.w3.org/Graphics/SVG/1.1/DTD/svg11.dtd">
<svg version="1.1" id="Layer_1" xmlns="http://www.w3.org/2000/svg" xmlns:xlink="http://www.w3.org/1999/xlink" x="0px" y="0px"
	 width="277.9px" height="792px" viewBox="0 0 277.9 792" enable-background="new 0 0 277.9 792" xml:space="preserve">
<g>
	<g>
		
			<linearGradient id="SVGID_1_" gradientUnits="userSpaceOnUse" x1="977.8314" y1="-978.8576" x2="722.6895" y2="-942.876" gradientTransform="matrix(0.227 0 0 -0.227 5.654908e-02 179.7833)">
			<stop  offset="0" style="stop-color:#B3B3B3"/>
			<stop  offset="0.2807" style="stop-color:#B6B6B6;stop-opacity:0.7193"/>
			<stop  offset="0.493" style="stop-color:#C0C0C0;stop-opacity:0.507"/>
			<stop  offset="0.6829" style="stop-color:#D0D0D0;stop-opacity:0.3171"/>
			<stop  offset="0.8586" style="stop-color:#E7E7E7;stop-opacity:0.1414"/>
			<stop  offset="1" style="stop-color:#FFFFFF;stop-opacity:0"/>
		</linearGradient>
		<path fill="url(#SVGID_1_)" d="M205.4,404.2c0,0-30.7-4.5-34.7-5.5s-7.1,0.6-8.5,0s2.7-5.4,5.7-5.7s11.9-2.5,16.5-1.5
			c3.4,0.7,32.7,6,44.7,8.3c4.1,0.8-0.8,0.6-0.8,0.6l-27.9-5.2l-8.1,0.5l22.3,5.2l-2.1,2.7l-15.7-4.6l-7.7-0.7l18,4L205.4,404.2z"/>
		<g>
			<circle fill="#C7B299" cx="219" cy="368.9" r="3.1"/>
			<path d="M219,372.5c-2,0-3.6-1.6-3.6-3.6s1.6-3.6,3.6-3.6s3.6,1.6,3.6,3.6C222.6,370.8,221,372.5,219,372.5z M219,366.3
				c-1.4,0-2.6,1.2-2.6,2.6s1.2,2.6,2.6,2.6s2.6-1.2,2.6-2.6C221.5,367.4,220.4,366.3,219,366.3z"/>
		</g>
		<g>
			<path fill="#B3B3B3" d="M205.6,403.8c-0.2,0-0.4-0.1-0.6-0.1c-0.6-0.2-1-0.5-1.4-1c-0.3-0.5-0.4-1.1-0.2-1.7l2-7.7l-0.8-9.6
				c0-0.1,0-0.3,0-0.4c0-3.3,2.9-7.5,5-10.1l-2.7-0.3l-1.1,5c-0.2,0.9-1,1.5-1.8,1.5c-0.1,0-0.3,0-0.4,0c-0.5-0.1-0.9-0.4-1.2-0.8
				s-0.4-0.9-0.2-1.4l1.5-6.6c0.2-0.9,1-1.5,1.8-1.5c0.1,0,0.1,0,0.2,0l6.8,0.7c0.4,0,0.7,0.2,1,0.4l5.4,4.4
				c0.4,0.3,0.6,0.9,0.6,1.5v12c0,1-0.8,1.9-1.8,1.9c-0.1,0-0.2,0-0.3,0l0.7,0.9c0.4,0.6,0.5,1.2,0.3,1.9l-2.8,9.1
				c-0.3,0.9-1.1,1.6-2.1,1.6c-0.2,0-0.4,0-0.7-0.1c-0.6-0.2-1-0.6-1.3-1.1s-0.3-1.1-0.2-1.7l2.5-8.1l-4.6-6.7l0.7,7.6
				c0,0.2,0,0.5-0.1,0.7l-2.1,8.1C207.5,403.1,206.6,403.8,205.6,403.8L205.6,403.8z M215.7,387.5v-7.2l-2.7,3.3L215.7,387.5z"/>
			<path d="M205.6,369.4h0.1l6.8,0.7c0.3,0,0.5,0.1,0.7,0.3l5.5,4.4c0.3,0.2,0.5,0.7,0.5,1.1v12c0,0.7-0.7,1.4-1.5,1.4
				c-0.7,0-1.5-0.6-1.5-1.4v-9.2l-3.7,4.8l5.2,7.5c0.3,0.4,0.4,1,0.2,1.5l-2.8,9.1c-0.2,0.7-0.9,1.2-1.6,1.2c-0.2,0-0.3,0-0.5-0.1
				c-0.9-0.3-1.4-1.2-1.1-2.1l2.6-8.4l-4.9-7.3c-0.2,0.1-0.5,0.2-0.7,0.2l0.7,8c0,0.2,0,0.4,0,0.6l-2.1,8.2
				c-0.2,0.8-0.9,1.4-1.7,1.4l0,0c-0.1,0-0.3-0.1-0.4-0.1c-0.9-0.2-1.5-1.2-1.2-2.1l2-7.8l-0.9-9.7c0-0.1,0-0.2,0-0.3
				c0-3.5,3.6-8.3,5.5-10.5l-4.1-0.4l-1.2,5.4c-0.1,0.6-0.7,1.1-1.3,1.1c-0.1,0-0.2,0-0.3,0c-0.7-0.2-1.2-0.9-1-1.6l1.5-6.6
				C204.4,369.8,204.9,369.4,205.6,369.4 M205.6,368.4c-1.1,0-2.1,0.8-2.3,1.9l-1.5,6.6c-0.1,0.6,0,1.3,0.3,1.8s0.9,0.9,1.5,1.1
				c0.2,0,0.4,0.1,0.5,0.1c0.3,0,0.6-0.1,0.9-0.2c-0.5,1.2-0.8,2.4-0.8,3.5c0,0.2,0,0.3,0,0.5l0.8,9.5l-2,7.6
				c-0.2,0.7-0.1,1.4,0.3,2.1c0.4,0.6,1,1.1,1.7,1.2c0.2,0.1,0.5,0.1,0.7,0.1c1.2,0,2.3-0.8,2.6-2l2.1-8.1c0.1-0.3,0.1-0.6,0.1-0.9
				l-0.5-5.7l3.3,4.9l-2.4,7.9c-0.2,0.7-0.1,1.4,0.2,2.1c0.3,0.6,0.9,1.1,1.6,1.3c0.2,0.1,0.5,0.1,0.8,0.1c1.2,0,2.2-0.8,2.6-1.9
				l2.8-9.1c0.2-0.8,0.1-1.6-0.4-2.3l-0.2-0.2c1-0.3,1.7-1.2,1.7-2.3v-12c0-0.7-0.2-1.4-0.8-1.9l-5.4-4.4c-0.4-0.3-0.8-0.5-1.2-0.5
				l-6.8-0.7C205.7,368.4,205.6,368.4,205.6,368.4L205.6,368.4z M206.8,376.2l0.6-2.8l1.3,0.1C208.1,374.3,207.4,375.3,206.8,376.2
				L206.8,376.2z M213.9,383.6l1.5-1.9v4.1L213.9,383.6L213.9,383.6z"/>
		</g>
		<g>
			<path d="M228.8,396.4c-0.1,0-0.2,0-0.2-0.1l-23.1-17.7c-0.2-0.1-0.2-0.4-0.1-0.6c0.1-0.2,0.4-0.2,0.6-0.1l23.1,17.7
				c0.2,0.1,0.2,0.4,0.1,0.6C229,396.3,228.9,396.4,228.8,396.4z"/>
		</g>
		<g>
			<path d="M202.4,376.2c-0.1,0-0.2,0-0.2-0.1l-2-1.5c-0.2-0.1-0.2-0.4-0.1-0.6c0.1-0.2,0.4-0.2,0.6-0.1l2,1.5
				c0.2,0.1,0.2,0.4,0.1,0.6C202.6,376.2,202.5,376.2,202.4,376.2z"/>
		</g>
		<path d="M223.1,396.8l5.6-6.2l2.4,2.2c2.9,2.6,1.3,6.8,1.3,6.8s-3.7,2.2-6.9-0.5C223.7,397.3,223.1,396.8,223.1,396.8z"/>
		<path d="M221.7,403.8c0,0,0.3-1.8,1.7-1.8s1.9,0.4,1.9,0.4s0.2-3.3,2.6-3.3c2.4,0,2.5,0.6,2.5,0.6s1.1-1.1,3.4-1.1s2.8,2,2.8,2
			s1.2-0.1,1.7,0.2c0.5,0.4,0.5,1,0.5,1s1.1,0.2,1.5,0.6c0.3,0.4,0.9,1.3,0.9,1.3L221.7,403.8L221.7,403.8z"/>
		<path fill="#B3B3B3" d="M216.1,372.8c0,0-4.1,1.4-5.5,3s-3.3,5-3.7,7.2s0.5,10.4,0.5,10.4s-2.5,7.3-2.5,8.2c0,0.9,1.4,2,1.4,2
			s-2.5,0-3-1.5s2.3-8.9,2.3-8.9s-1.2-8.9-1.1-10.4c0.1-1.5,1.3-4.5,2.7-6.5c1.4-1.9,2.5-3.4,2.5-3.4l-3.2-0.5c0,0-1.4,0.1-2,1.2
			s-0.9,2.7-0.9,3.9c0.1,1.1,0.7,1.9,0.7,1.9s-1.2,0.2-2-1.4s1.3-7.4,1.3-7.4s0.3-2.2,2.9-1.8c2.6,0.3,6.7,0.9,6.7,0.9L216.1,372.8z
			"/>
		<path fill="#B3B3B3" d="M209.1,385.1c0,0,1.5-0.9,2.9,0.8c1.4,1.7,3.8,5.9,3.8,5.9s-2.1,7.4-2.5,8.6s0.2,2.8,0.2,2.8
			s-1.9-0.5-2.2-1.3c-0.2-0.9,2.3-9.4,2.3-9.4L209.1,385.1z"/>
		<path fill="#B3B3B3" d="M215.9,379.5c0,0,2-3.2,2-3s-0.2,8-0.3,9.5c0,1.5,1.2,2.9,1.2,2.9s-0.9,1.3-1.5,1.1
			c-0.6-0.2-1.9-1.6-1.8-2.7C215.7,386,215.9,379.5,215.9,379.5z"/>
		<path d="M224.6,370.4l-1.3-0.6c0.3-0.7,0.5-1.4,0.4-2.2c-0.3-2.3-2.4-3.9-4.7-3.7c-1.5,0.2-2.7,1.1-3.3,2.4l-0.1-0.1
			c-0.2-0.1-0.3,0-0.4,0.2c-0.1,0.2,0,0.3,0.2,0.4l9,4.2c0,0,0.1,0,0.2,0c0.1,0,0.2-0.1,0.2-0.2
			C224.8,370.7,224.7,370.5,224.6,370.4z"/>
		<path fill="#B3B3B3" d="M221.7,370.3c0,0-1.9-1-3.2-0.8s-1.8,1.2-1.8,1.2s-1.1-1.9-0.6-3c0.6-1.1,0.9-1.1,0.9-1.1l5.3,2.9
			L221.7,370.3z"/>
		<g>
			<path fill="#FFFFFF" d="M212.9,379.3c0.1-0.2,0.2-0.3,0.2-0.5s-0.1-0.4-0.2-0.7c-0.3-0.5-0.5-0.9-0.6-1.3s0-0.7,0.3-1.1
				c0.2-0.3,0.6-0.5,1-0.6c0.4,0,0.8,0,1.2,0.3l0.5-0.6l0.5,0.4l-0.5,0.7c0.3,0.3,0.5,0.7,0.5,1.1s-0.1,0.8-0.4,1.2l0,0l-0.9-0.7
				c0.2-0.2,0.3-0.5,0.3-0.7s-0.1-0.4-0.2-0.5c-0.2-0.1-0.3-0.2-0.5-0.2s-0.3,0.1-0.4,0.3c-0.1,0.2-0.2,0.3-0.2,0.5s0.1,0.4,0.3,0.7
				c0.3,0.5,0.5,1,0.5,1.3c0.1,0.4,0,0.7-0.3,1.1c-0.3,0.3-0.6,0.5-1,0.6c-0.4,0-0.8-0.1-1.2-0.3l-0.5,0.6l-0.5-0.4l0.5-0.6
				c-0.3-0.3-0.5-0.7-0.6-1.1s0.1-0.8,0.4-1.3l0,0l0.9,0.7c-0.2,0.3-0.3,0.5-0.2,0.7c0,0.2,0.1,0.4,0.3,0.5s0.4,0.2,0.5,0.2
				C212.6,379.5,212.8,379.5,212.9,379.3z"/>
		</g>
	</g>
</g>
</svg>
