<?xml version="1.0" encoding="utf-8"?>
<!-- Generator: Adobe Illustrator 18.0.0, SVG Export Plug-In . SVG Version: 6.00 Build 0)  -->
<!DOCTYPE svg PUBLIC "-//W3C//DTD SVG 1.1//EN" "http://www.w3.org/Graphics/SVG/1.1/DTD/svg11.dtd">
<svg version="1.1" id="Layer_1" xmlns="http://www.w3.org/2000/svg" xmlns:xlink="http://www.w3.org/1999/xlink" x="0px" y="0px"
	 width="277.9px" height="792px" viewBox="0 0 277.9 792" enable-background="new 0 0 277.9 792" xml:space="preserve">
<g>
	<g id="labour">
		<g>
			<path fill="#EC1C24" d="M128.6,380.4h3v1.2h-4.5v-8.1h1.6L128.6,380.4L128.6,380.4z"/>
			<path fill="#EC1C24" d="M136.1,380H134l-0.4,1.7H132l2.3-8.1h1.6l2.3,8.1h-1.6L136.1,380z M134.3,378.7h1.5l-0.7-2.9l0,0
				L134.3,378.7z"/>
			<path fill="#EC1C24" d="M138.8,381.7v-8.1h2.4c0.8,0,1.5,0.2,2,0.5c0.5,0.4,0.7,0.9,0.7,1.7c0,0.4-0.1,0.7-0.2,1
				s-0.4,0.5-0.8,0.7c0.4,0.1,0.7,0.3,1,0.7c0.2,0.3,0.3,0.7,0.3,1.2c0,0.8-0.2,1.4-0.7,1.7s-1.1,0.6-1.9,0.6L138.8,381.7
				L138.8,381.7z M140.3,377h0.9c0.3,0,0.6-0.1,0.7-0.3s0.2-0.4,0.2-0.8s-0.1-0.7-0.3-0.8s-0.5-0.3-0.8-0.3h-0.8L140.3,377
				L140.3,377z M140.3,378.1v2.3h1.1c0.3,0,0.6-0.1,0.7-0.3c0.2-0.2,0.2-0.5,0.2-0.8c0-0.4-0.1-0.7-0.2-0.9s-0.4-0.3-0.7-0.3
				L140.3,378.1L140.3,378.1z"/>
			<path fill="#EC1C24" d="M150.5,378.8c0,1-0.2,1.7-0.8,2.2c-0.5,0.5-1.2,0.8-2,0.8s-1.5-0.3-2-0.8s-0.8-1.3-0.8-2.2v-2.3
				c0-1,0.2-1.7,0.8-2.2c0.5-0.5,1.2-0.8,2-0.8s1.5,0.3,2,0.8s0.8,1.3,0.8,2.2V378.8z M148.9,376.5c0-0.6-0.1-1-0.3-1.3
				s-0.5-0.4-0.9-0.4s-0.7,0.1-0.9,0.4s-0.3,0.7-0.3,1.3v2.3c0,0.6,0.1,1,0.3,1.3s0.5,0.4,0.9,0.4s0.7-0.1,0.9-0.4s0.3-0.7,0.3-1.3
				V376.5z"/>
			<path fill="#EC1C24" d="M156.9,373.6v5.5c0,0.9-0.2,1.5-0.7,2s-1.2,0.7-2,0.7s-1.5-0.2-2-0.7s-0.7-1.1-0.7-2v-5.5h1.6v5.5
				c0,0.5,0.1,0.9,0.3,1.1s0.5,0.3,0.9,0.3s0.7-0.1,0.9-0.3c0.2-0.2,0.3-0.6,0.3-1.1v-5.5H156.9L156.9,373.6z"/>
			<path fill="#EC1C24" d="M159.6,378.5v3.2H158v-8.1h2.6c0.8,0,1.4,0.2,1.9,0.6s0.7,1,0.7,1.7c0,0.4-0.1,0.8-0.3,1.1
				s-0.5,0.5-0.8,0.7c0.4,0.1,0.7,0.4,0.9,0.7c0.2,0.3,0.3,0.7,0.3,1.2v0.6c0,0.2,0,0.5,0.1,0.7c0,0.2,0.1,0.4,0.3,0.5v0.1H162
				c-0.1-0.1-0.2-0.3-0.2-0.6c0-0.2,0-0.5,0-0.8v-0.5c0-0.4-0.1-0.7-0.2-0.9s-0.4-0.3-0.7-0.3L159.6,378.5L159.6,378.5z
				 M159.6,377.2h1c0.3,0,0.6-0.1,0.7-0.3c0.2-0.2,0.2-0.5,0.2-0.8c0-0.4-0.1-0.7-0.2-0.9c-0.2-0.2-0.4-0.3-0.7-0.3h-1V377.2z"/>
		</g>
	</g>
</g>
</svg>
