<?xml version="1.0" encoding="utf-8"?>
<!-- Generator: Adobe Illustrator 18.0.0, SVG Export Plug-In . SVG Version: 6.00 Build 0)  -->
<!DOCTYPE svg PUBLIC "-//W3C//DTD SVG 1.1//EN" "http://www.w3.org/Graphics/SVG/1.1/DTD/svg11.dtd">
<svg version="1.1" id="Layer_1" xmlns="http://www.w3.org/2000/svg" xmlns:xlink="http://www.w3.org/1999/xlink" x="0px" y="0px"
	 width="277.9px" height="792px" viewBox="0 0 277.9 792" enable-background="new 0 0 277.9 792" xml:space="preserve">
<g>
	<g id="time">
		<g>
			<path fill="#EC1C24" d="M138.3,434.3h-1.8v6.8h-1.6v-6.8h-1.8V433h5.2L138.3,434.3L138.3,434.3z"/>
			<path fill="#EC1C24" d="M140.7,441.1h-1.6V433h1.6V441.1z"/>
			<path fill="#EC1C24" d="M144,433l1.5,5.9l0,0l1.5-5.9h2.1v8.1h-1.6v-2.3l0.1-3.1l0,0l-1.5,5.5h-1l-1.5-5.4l0,0l0.1,3.1v2.3H142
				V433H144L144,433z"/>
			<path fill="#EC1C24" d="M154.5,437.6h-2.7v2.3h3.2v1.2h-4.8V433h4.7v1.2h-3.2v2h2.7L154.5,437.6L154.5,437.6z"/>
		</g>
	</g>
</g>
</svg>
