<?xml version="1.0" encoding="utf-8"?>
<!-- Generator: Adobe Illustrator 18.0.0, SVG Export Plug-In . SVG Version: 6.00 Build 0)  -->
<!DOCTYPE svg PUBLIC "-//W3C//DTD SVG 1.1//EN" "http://www.w3.org/Graphics/SVG/1.1/DTD/svg11.dtd">
<svg version="1.1" id="Layer_1" xmlns="http://www.w3.org/2000/svg" xmlns:xlink="http://www.w3.org/1999/xlink" x="0px" y="0px"
	 width="113.7px" height="86px" viewBox="0 637.3 113.7 86" enable-background="new 0 637.3 113.7 86" xml:space="preserve">
<g>
	<g>
		
			<linearGradient id="SVGID_1_" gradientUnits="userSpaceOnUse" x1="176.4807" y1="-2124.5498" x2="246.6568" y2="-2130.7478" gradientTransform="matrix(0.227 0 0 -0.227 5.654908e-02 179.7833)">
			<stop  offset="0" style="stop-color:#6D6E71;stop-opacity:0"/>
			<stop  offset="1" style="stop-color:#6D6E71"/>
		</linearGradient>
		<path fill="url(#SVGID_1_)" d="M53.5,660c-2.8,0-5.5,0.2-7.6,0.6c-0.3-0.1-0.7-0.2-0.7-0.4c0-0.5,0.9-0.7,0.6-1.1
			c-0.3-0.4-0.8,0.4-1.3,0.4s-0.6-0.2-1.7-0.4s-1,0.6-1.1,0.9c-0.2,0.3-0.8,0.3-1.3,0.4c-0.5,0.1,0.4,0.6,1.1,0.6
			c0.5,0,1.2,0.1,1.7,0.2c-1.9,0.6-3,1.3-3,2.1c0,1.8,6,3.3,13.5,3.3c7.4,0,13.5-1.5,13.5-3.3C67,661.5,61,660,53.5,660z"/>
		<g>
			<path fill="#39B54A" d="M68,660.3c0-2-0.8-3.7-2-5.2c-1-1.2-2.2-2.2-3.7-2.9c0,0,0,0-0.1,0c-0.4-0.2-1.4-0.7-1.3-2l0,0v-0.1
				c0-0.3,0-0.6,0.1-1c0.1-0.9,0.5-1.8,0.9-2.6c0.1-0.2,0.1-0.4,0.2-0.6c0-0.3-0.2-0.5-0.5-0.6c-0.4,0-0.7,0.1-1,0.2
				c-0.2,0.1-0.3,0.2-0.5,0.3c-0.4,0.2-0.6,0.1-0.8-0.3c0-0.1-0.1-0.2-0.1-0.3c-0.1-0.2-0.2-0.4-0.3-0.5c-0.5-0.6-1.2-0.6-1.6,0
				c-0.2,0.2-0.3,0.4-0.3,0.6c-0.2,0.4-0.4,0.7-0.9,0.7c-0.3,0-0.6,0-1,0c-0.2,0-0.4,0-0.7,0c-0.6,0-0.9,0.5-0.6,1.1
				c0,0.1,0.1,0.2,0.2,0.3c0.4,1,0.8,1.9,1.2,2.9c0,0.1,0.1,0.2,0.2,0.3c0.3,0.8-0.3,0.9-0.4,1c-2.3,0.7-4.1,2.1-5.5,4
				c-0.7,0.9-1.2,1.9-1.4,3c-0.3,1-0.3,2-0.2,3c0.1,0.7,0.3,1.3,0.6,2c0.5,0.9,1.3,1.5,2.3,1.8c1,0.4,2,0.6,3.1,0.7
				c1.3,0.1,2.7,0.2,3.9,0.2c1.4-0.1,2.6-0.1,3.8-0.2c1.1-0.1,2.3-0.3,3.4-0.7c1.3-0.5,2.3-1.3,2.7-2.7C68,662,68,661.2,68,660.3z"
				/>
			<path d="M57.8,666.7L57.8,666.7c-0.4,0-0.7,0-1.1-0.1c-0.9,0-1.9-0.1-2.8-0.2c-1.2-0.1-2.2-0.3-3.2-0.7c-1.1-0.5-1.9-1.1-2.4-2
				c-0.3-0.6-0.5-1.2-0.7-2.1c-0.1-1.1-0.1-2.2,0.2-3.1c0.3-1.1,0.8-2.1,1.5-3c1.5-2,3.4-3.4,5.7-4.1c0.1,0,0.1,0,0.2-0.1
				c0-0.1,0-0.2,0-0.4c-0.1-0.1-0.2-0.2-0.2-0.4c-0.3-0.7-0.6-1.4-0.9-2.1c-0.1-0.2-0.2-0.5-0.3-0.7c0-0.1-0.1-0.1-0.1-0.2
				c0,0,0-0.1-0.1-0.1c-0.2-0.4-0.2-0.7,0-1s0.5-0.5,0.9-0.5c0.1,0,0.2,0,0.4,0c0.1,0,0.2,0,0.3,0h0.1c0.3,0,0.5,0,0.8,0
				s0.5-0.2,0.6-0.6c0.1-0.3,0.2-0.5,0.4-0.7c0.3-0.3,0.6-0.5,1-0.5l0,0c0.4,0,0.8,0.2,1,0.5c0.1,0.2,0.2,0.3,0.3,0.5v0.1
				c0,0.1,0.1,0.2,0.1,0.2v0.1c0.1,0.2,0.2,0.2,0.4,0.2c0.1,0,0.2-0.1,0.3-0.2c0,0,0.1-0.1,0.2-0.1c0.4-0.2,0.8-0.3,1.2-0.3
				c0.5,0.1,0.8,0.4,0.7,0.9c0,0.2-0.1,0.5-0.2,0.7c-0.5,0.9-0.7,1.7-0.9,2.5c0,0.3-0.1,0.6-0.1,0.9c0,0,0,0.1,0,0.2
				c-0.1,1.1,0.7,1.5,1.1,1.7h0.1c1.5,0.7,2.8,1.7,3.8,3c1.4,1.7,2,3.4,2.1,5.3l0,0c0,1-0.1,1.8-0.3,2.5c-0.4,1.4-1.4,2.3-2.9,2.9
				c-1,0.4-2.1,0.6-3.5,0.7c-0.8,0.1-1.7,0.1-2.6,0.1C58.6,666.7,58.2,666.7,57.8,666.7L57.8,666.7z M54.5,646.5L54.5,646.5
				c-0.3,0-0.4,0.1-0.5,0.2c-0.1,0.1,0,0.3,0,0.5c0,0,0,0.1,0.1,0.1c0,0.1,0.1,0.2,0.1,0.2c0.1,0.2,0.2,0.5,0.3,0.7
				c0.3,0.7,0.6,1.4,0.9,2.1c0,0.1,0.1,0.2,0.2,0.2l0,0v0.1c0.1,0.4,0.1,0.7,0,0.9s-0.3,0.3-0.5,0.4c-2.2,0.7-3.9,2-5.4,3.9
				c-0.7,0.9-1.1,1.8-1.4,2.8c-0.2,0.9-0.3,1.8-0.1,2.9c0.1,0.7,0.3,1.3,0.6,1.8c0.5,0.7,1.1,1.3,2.1,1.7c0.9,0.4,1.9,0.6,3,0.7
				c0.9,0.1,1.9,0.1,2.8,0.2c0.4,0,0.7,0,1.1,0.1c0.4,0,0.8,0,1.2,0c0.9,0,1.7-0.1,2.5-0.1c1.3-0.1,2.3-0.3,3.3-0.7
				c1.3-0.5,2.2-1.3,2.5-2.5c0.2-0.7,0.3-1.5,0.3-2.3l0,0c0-1.7-0.7-3.4-2-5c-1-1.2-2.2-2.2-3.6-2.8l0,0l0,0
				c-0.5-0.2-1.5-0.8-1.5-2.2v-0.1c0-0.3,0-0.7,0.1-1c0.1-0.9,0.4-1.7,0.9-2.7c0.1-0.1,0.1-0.3,0.1-0.5c0-0.1,0-0.2-0.2-0.2
				s-0.5,0-0.8,0.2c0,0-0.1,0-0.1,0.1c-0.1,0.1-0.2,0.1-0.4,0.2c-0.5,0.2-0.9,0.1-1.2-0.5c0,0,0-0.1-0.1-0.2c0,0,0-0.1-0.1-0.2v-0.1
				c-0.1-0.1-0.1-0.3-0.2-0.4c-0.2-0.2-0.4-0.3-0.6-0.3c-0.2,0-0.4,0.1-0.6,0.3c-0.1,0.1-0.2,0.3-0.3,0.5c-0.2,0.5-0.6,0.9-1.1,1
				c-0.3,0-0.6,0-0.9,0h-0.1c-0.1,0-0.2,0-0.3,0C54.7,646.5,54.6,646.5,54.5,646.5z"/>
		</g>
		<path opacity="0.51" fill="#A7A9AC" enable-background="new    " d="M55.9,651.1c0,0-1.2-2.6-1.4-3.2c-0.2-0.6-0.7-1.2-0.4-1.3
			s1.1,0,1.6,0c0.4,0,1.1-0.1,1.2-0.4s0.5-1.2,0.9,0s0.2,2.5,0.5,3.4c0.2,1,0.4,1.8,0.4,1.8s-1-0.8-1.3-1.6
			c-0.3-0.7-1.7-2.2-1.4-0.6c0.3,1.6,1.7,2.2,1.7,2.2S56.4,651.4,55.9,651.1z"/>
		
			<linearGradient id="SVGID_2_" gradientUnits="userSpaceOnUse" x1="210.5007" y1="-2094.6775" x2="299.3104" y2="-2094.6775" gradientTransform="matrix(0.227 0 0 -0.227 5.654908e-02 179.7833)">
			<stop  offset="0" style="stop-color:#39B54A;stop-opacity:0"/>
			<stop  offset="1.641512e-02" style="stop-color:#3DB649;stop-opacity:1.641512e-02"/>
			<stop  offset="0.5039" style="stop-color:#A4DD22;stop-opacity:0.5039"/>
			<stop  offset="0.8417" style="stop-color:#E6F609;stop-opacity:0.8417"/>
			<stop  offset="1" style="stop-color:#FFFF00"/>
		</linearGradient>
		<path opacity="0.4" fill="url(#SVGID_2_)" enable-background="new    " d="M68,660.3c0-2-0.8-3.7-2-5.2c-1-1.2-2.2-2.2-3.7-2.9
			c0,0,0,0-0.1,0c-0.4-0.2-1.4-0.7-1.3-2l0,0v-0.1c0-0.3,0-0.6,0.1-1c0.1-0.9,0.5-1.8,0.9-2.6c0.1-0.2,0.1-0.4,0.2-0.6
			c0-0.3-0.2-0.5-0.5-0.6c-0.4,0-0.7,0.1-1,0.2c-0.2,0.1-0.3,0.2-0.5,0.3c-0.4,0.2-0.6,0.1-0.8-0.3c0-0.1-0.1-0.2-0.1-0.3
			c-0.1-0.2-0.2-0.4-0.3-0.5c-0.5-0.6-1.2-0.6-1.6,0c-0.2,0.2-0.3,0.4-0.3,0.6c-0.2,0.4-0.4,0.7-0.9,0.7c-0.3,0-0.6,0-1,0
			c-0.2,0-0.4,0-0.7,0c-0.6,0-0.9,0.5-0.6,1.1c0,0.1,0.1,0.2,0.2,0.3c0.4,1,0.8,1.9,1.2,2.9c0,0.1,0.1,0.2,0.2,0.3
			c0.3,0.8-0.3,0.9-0.4,1c-2.3,0.7-4.1,2.1-5.5,4c-0.7,0.9-1.2,1.9-1.4,3c-0.3,1-0.3,2-0.2,3c0.1,0.7,0.3,1.3,0.6,2
			c0.5,0.9,1.3,1.5,2.3,1.8c1,0.4,2,0.6,3.1,0.7c1.3,0.1,2.7,0.2,3.9,0.2c1.4-0.1,2.6-0.1,3.8-0.2c1.1-0.1,2.3-0.3,3.4-0.7
			c1.3-0.5,2.3-1.3,2.7-2.7C68,662,68,661.2,68,660.3z"/>
		<path opacity="0.51" fill="#A7A9AC" enable-background="new    " d="M58.3,652.7c0,0-2.3,1-3.5,2.2s-2.2,2.5-1.8,4.8
			s1.6,4.1,3.4,4.7s6.9,1.3,3.3,1.4c-3.6,0.1-4.4,0.4-8.4-0.6c-3.9-1-3-6.2-3-6.2s0.9-3,3.2-4.9c2.2-1.9,4.1-2.2,4.1-2.2
			S57.1,652.7,58.3,652.7z"/>
		<g>
			<path fill="#FFFFFF" d="M57.5,662.4v-0.8c-1.1-0.2-1.7-0.7-1.8-1.9h1.2c0,0.4,0.2,0.9,0.6,1v-2c-1.2-0.6-1.7-1.1-1.7-1.9
				c0-0.9,0.7-1.5,1.7-1.6v-0.4h0.7v0.4c1.2,0.1,1.8,0.8,1.8,1.7h-1.2c-0.1-0.5-0.2-0.7-0.6-0.8v1.6c1.2,0.5,2.1,1,2.1,2.2
				c0,1-0.8,1.8-2.1,1.8v0.8L57.5,662.4L57.5,662.4z M57.5,656.1c-0.4,0.1-0.5,0.2-0.5,0.5s0.1,0.4,0.5,0.7V656.1z M59.1,659.9
				c0-0.4-0.3-0.7-0.9-1v1.7C58.7,660.7,59.1,660.3,59.1,659.9z"/>
		</g>
		<path d="M55.6,650.7c0,0,0.1,0.3,1.6,0.6c1.5,0.2,3.5-0.6,3.5-0.6s0.2-0.2,0.6-0.1c0.4,0.1,0.7,0.6,0.4,0.9c-0.4,0.3-1,0.9-1.7,1
			s-2.6-0.1-3.7-0.5c-1.2-0.4-1.5-0.7-1.5-1C54.6,650.7,55.2,650.4,55.6,650.7z"/>
	</g>
	<g>
		
			<linearGradient id="SVGID_3_" gradientUnits="userSpaceOnUse" x1="80.4454" y1="-2115.7393" x2="150.6216" y2="-2121.9373" gradientTransform="matrix(0.227 0 0 -0.227 5.654908e-02 179.7833)">
			<stop  offset="0" style="stop-color:#6D6E71;stop-opacity:0"/>
			<stop  offset="1" style="stop-color:#6D6E71"/>
		</linearGradient>
		<path fill="url(#SVGID_3_)" d="M31.7,658c-2.8,0-5.5,0.2-7.6,0.6c-0.3-0.1-0.7-0.2-0.7-0.4c0-0.5,0.9-0.7,0.6-1.1
			c-0.3-0.4-0.8,0.4-1.3,0.4s-0.6-0.2-1.7-0.4s-1,0.6-1.1,0.9c-0.2,0.3-0.8,0.3-1.3,0.4c-0.5,0.1,0.4,0.6,1.1,0.6
			c0.5,0,1.2,0.1,1.7,0.2c-1.9,0.6-3,1.3-3,2.1c0,1.8,6,3.3,13.5,3.3s13.5-1.5,13.5-3.3C45.2,659.5,39.2,658,31.7,658z"/>
		<g>
			<path fill="#39B54A" d="M46.2,658.3c0-2-0.8-3.7-2-5.2c-1-1.2-2.2-2.2-3.7-2.9c0,0,0,0-0.1,0c-0.4-0.2-1.4-0.7-1.3-2l0,0v-0.1
				c0-0.3,0-0.6,0.1-1c0.1-0.9,0.5-1.8,0.9-2.6c0.1-0.2,0.1-0.4,0.2-0.6c0-0.3-0.2-0.5-0.5-0.6c-0.4,0-0.7,0.1-1,0.2
				c-0.2,0.1-0.3,0.2-0.5,0.3c-0.4,0.2-0.6,0.1-0.8-0.3c0-0.1-0.1-0.2-0.1-0.3c-0.1-0.2-0.2-0.4-0.3-0.5c-0.5-0.6-1.2-0.6-1.6,0
				c-0.2,0.2-0.3,0.4-0.3,0.6c-0.2,0.4-0.4,0.7-0.9,0.7c-0.3,0-0.6,0-1,0c-0.2,0-0.4,0-0.7,0c-0.6,0-0.9,0.5-0.6,1.1
				c0,0.1,0.1,0.2,0.2,0.3c0.4,1,0.8,1.9,1.2,2.9c0,0.1,0.1,0.2,0.2,0.3c0.3,0.8-0.3,0.9-0.4,1c-2.3,0.7-4.1,2.1-5.5,4
				c-0.7,0.9-1.2,1.9-1.4,3c-0.3,1-0.3,2-0.2,3c0.1,0.7,0.3,1.3,0.6,2c0.5,0.9,1.3,1.5,2.3,1.8c1,0.4,2,0.6,3.1,0.7
				c1.3,0.1,2.7,0.2,3.9,0.2c1.4-0.1,2.6-0.1,3.8-0.2c1.1-0.1,2.3-0.3,3.4-0.7c1.3-0.5,2.3-1.3,2.7-2.7
				C46.2,659.9,46.2,659.1,46.2,658.3z"/>
			<path d="M36,664.6L36,664.6c-0.4,0-0.7,0-1.1-0.1c-0.9,0-1.9-0.1-2.8-0.2c-1.2-0.1-2.2-0.3-3.2-0.7c-1.1-0.5-1.9-1.1-2.4-2
				c-0.3-0.6-0.5-1.2-0.7-2.1c-0.1-1.1-0.1-2.2,0.2-3.1c0.3-1.1,0.8-2.1,1.5-3c1.5-2,3.4-3.4,5.7-4.1c0.1,0,0.1,0,0.2-0.1
				c0-0.1,0-0.2,0-0.4c-0.1-0.1-0.2-0.2-0.2-0.4c-0.3-0.7-0.6-1.4-0.9-2.1c-0.1-0.2-0.2-0.5-0.3-0.7c0-0.1-0.1-0.1-0.1-0.2
				c0,0,0-0.1-0.1-0.1c-0.2-0.4-0.2-0.7,0-1s0.5-0.5,0.9-0.5c0.1,0,0.2,0,0.4,0c0.1,0,0.2,0,0.3,0h0.1c0.3,0,0.5,0,0.8,0
				s0.5-0.2,0.6-0.6c0.1-0.3,0.2-0.5,0.4-0.7c0.3-0.3,0.6-0.5,1-0.5l0,0c0.4,0,0.8,0.2,1,0.5c0.1,0.2,0.2,0.3,0.3,0.5v0.1
				c0,0.1,0.1,0.2,0.1,0.2v0.1c0.1,0.2,0.2,0.2,0.4,0.2c0.1,0,0.2-0.1,0.3-0.2c0,0,0.1-0.1,0.2-0.1c0.4-0.2,0.8-0.3,1.2-0.3
				c0.5,0.1,0.8,0.4,0.7,0.9c0,0.2-0.1,0.5-0.2,0.7c-0.5,0.9-0.7,1.7-0.9,2.5c0,0.3-0.1,0.6-0.1,0.9c0,0,0,0.1,0,0.2
				c-0.1,1.1,0.7,1.5,1.1,1.7h0.1c1.5,0.7,2.8,1.7,3.8,3c1.4,1.7,2,3.4,2.1,5.3l0,0c0,1-0.1,1.8-0.3,2.5c-0.4,1.4-1.4,2.3-2.9,2.9
				c-1,0.4-2.1,0.6-3.5,0.7c-0.8,0.1-1.7,0.1-2.6,0.1C36.9,664.6,36.4,664.6,36,664.6L36,664.6z M32.7,644.5L32.7,644.5
				c-0.3,0-0.4,0.1-0.5,0.2c-0.1,0.1,0,0.3,0,0.5c0,0,0,0.1,0.1,0.1c0,0.1,0.1,0.2,0.1,0.2c0.1,0.2,0.2,0.5,0.3,0.7
				c0.3,0.7,0.6,1.4,0.9,2.1c0,0.1,0.1,0.2,0.2,0.2l0,0v0.1c0.1,0.4,0.1,0.7,0,0.9s-0.3,0.3-0.5,0.4c-2.2,0.7-3.9,2-5.4,3.9
				c-0.7,0.9-1.1,1.8-1.4,2.8c-0.2,0.9-0.3,1.8-0.1,2.9c0.1,0.7,0.3,1.3,0.6,1.8c0.5,0.7,1.1,1.3,2.1,1.7c0.9,0.4,1.9,0.6,3,0.7
				c0.9,0.1,1.9,0.1,2.8,0.2c0.4,0,0.7,0,1.1,0.1c0.4,0,0.8,0,1.2,0c0.9,0,1.7-0.1,2.5-0.1c1.3-0.1,2.3-0.3,3.3-0.7
				c1.3-0.5,2.2-1.3,2.5-2.5c0.2-0.7,0.3-1.5,0.3-2.3l0,0c0-1.7-0.7-3.4-2-5c-1-1.2-2.2-2.2-3.6-2.8l0,0l0,0
				c-0.5-0.2-1.5-0.8-1.5-2.2v-0.1c0-0.3,0-0.7,0.1-1c0.1-0.9,0.4-1.7,0.9-2.7c0.1-0.1,0.1-0.3,0.1-0.5c0-0.1,0-0.2-0.2-0.2
				s-0.5,0-0.8,0.2c0,0-0.1,0-0.1,0.1c-0.1,0.1-0.2,0.1-0.4,0.2c-0.5,0.2-0.9,0.1-1.2-0.5c0,0,0-0.1-0.1-0.2c0,0,0-0.1-0.1-0.2v-0.1
				c-0.1-0.1-0.1-0.3-0.2-0.4c-0.2-0.2-0.4-0.3-0.6-0.3c-0.2,0-0.4,0.1-0.6,0.3c-0.1,0.1-0.2,0.3-0.3,0.5c-0.2,0.5-0.6,0.9-1.1,1
				c-0.3,0-0.6,0-0.9,0h-0.1c-0.1,0-0.2,0-0.3,0C32.9,644.5,32.8,644.5,32.7,644.5z"/>
		</g>
		<path opacity="0.51" fill="#A7A9AC" enable-background="new    " d="M34.1,649.1c0,0-1.2-2.6-1.4-3.2c-0.2-0.6-0.7-1.2-0.4-1.3
			s1.1,0,1.6,0c0.4,0,1.1-0.1,1.2-0.4c0.1-0.3,0.5-1.2,0.9,0s0.2,2.5,0.5,3.4c0.2,1,0.4,1.8,0.4,1.8s-1-0.8-1.3-1.6
			c-0.3-0.7-1.7-2.2-1.4-0.6c0.3,1.6,1.7,2.2,1.7,2.2S34.6,649.4,34.1,649.1z"/>
		
			<linearGradient id="SVGID_4_" gradientUnits="userSpaceOnUse" x1="114.4654" y1="-2085.8669" x2="203.2751" y2="-2085.8669" gradientTransform="matrix(0.227 0 0 -0.227 5.654908e-02 179.7833)">
			<stop  offset="0" style="stop-color:#39B54A;stop-opacity:0"/>
			<stop  offset="1.641512e-02" style="stop-color:#3DB649;stop-opacity:1.641512e-02"/>
			<stop  offset="0.5039" style="stop-color:#A4DD22;stop-opacity:0.5039"/>
			<stop  offset="0.8417" style="stop-color:#E6F609;stop-opacity:0.8417"/>
			<stop  offset="1" style="stop-color:#FFFF00"/>
		</linearGradient>
		<path opacity="0.4" fill="url(#SVGID_4_)" enable-background="new    " d="M46.2,658.3c0-2-0.8-3.7-2-5.2c-1-1.2-2.2-2.2-3.7-2.9
			c0,0,0,0-0.1,0c-0.4-0.2-1.4-0.7-1.3-2l0,0v-0.1c0-0.3,0-0.6,0.1-1c0.1-0.9,0.5-1.8,0.9-2.6c0.1-0.2,0.1-0.4,0.2-0.6
			c0-0.3-0.2-0.5-0.5-0.6c-0.4,0-0.7,0.1-1,0.2c-0.2,0.1-0.3,0.2-0.5,0.3c-0.4,0.2-0.6,0.1-0.8-0.3c0-0.1-0.1-0.2-0.1-0.3
			c-0.1-0.2-0.2-0.4-0.3-0.5c-0.5-0.6-1.2-0.6-1.6,0c-0.2,0.2-0.3,0.4-0.3,0.6c-0.2,0.4-0.4,0.7-0.9,0.7c-0.3,0-0.6,0-1,0
			c-0.2,0-0.4,0-0.7,0c-0.6,0-0.9,0.5-0.6,1.1c0,0.1,0.1,0.2,0.2,0.3c0.4,1,0.8,1.9,1.2,2.9c0,0.1,0.1,0.2,0.2,0.3
			c0.3,0.8-0.3,0.9-0.4,1c-2.3,0.7-4.1,2.1-5.5,4c-0.7,0.9-1.2,1.9-1.4,3c-0.3,1-0.3,2-0.2,3c0.1,0.7,0.3,1.3,0.6,2
			c0.5,0.9,1.3,1.5,2.3,1.8c1,0.4,2,0.6,3.1,0.7c1.3,0.1,2.7,0.2,3.9,0.2c1.4-0.1,2.6-0.1,3.8-0.2c1.1-0.1,2.3-0.3,3.4-0.7
			c1.3-0.5,2.3-1.3,2.7-2.7C46.2,659.9,46.2,659.1,46.2,658.3z"/>
		<path opacity="0.51" fill="#A7A9AC" enable-background="new    " d="M36.5,650.7c0,0-2.3,1-3.5,2.2s-2.2,2.5-1.8,4.8
			c0.4,2.3,1.6,4.1,3.4,4.7c1.8,0.6,6.9,1.3,3.3,1.4s-4.4,0.4-8.4-0.6c-3.9-1-3-6.2-3-6.2s0.9-3,3.2-4.9s4.1-2.2,4.1-2.2
			S35.4,650.7,36.5,650.7z"/>
		<g>
			<path fill="#FFFFFF" d="M35.7,660.4v-0.8c-1.1-0.2-1.7-0.7-1.8-1.9h1.2c0,0.4,0.2,0.9,0.6,1v-2c-1.2-0.6-1.7-1.1-1.7-1.9
				c0-0.9,0.7-1.5,1.7-1.6v-0.4h0.7v0.4c1.2,0.1,1.8,0.8,1.8,1.7H37c-0.1-0.5-0.2-0.7-0.6-0.8v1.6c1.2,0.5,2.1,1,2.1,2.2
				c0,1-0.8,1.8-2.1,1.8v0.8L35.7,660.4L35.7,660.4z M35.7,654c-0.4,0.1-0.5,0.2-0.5,0.5s0.1,0.4,0.5,0.7V654z M37.3,657.8
				c0-0.4-0.3-0.7-0.9-1v1.7C36.9,658.6,37.3,658.3,37.3,657.8z"/>
		</g>
		<path d="M33.8,648.6c0,0,0.1,0.3,1.6,0.6c1.5,0.2,3.5-0.6,3.5-0.6s0.2-0.2,0.6-0.1c0.4,0.1,0.7,0.6,0.4,0.9c-0.4,0.3-1,0.9-1.7,1
			s-2.6-0.1-3.7-0.5c-1.2-0.4-1.5-0.7-1.5-1C32.8,648.7,33.4,648.4,33.8,648.6z"/>
	</g>
	<g>
		
			<linearGradient id="SVGID_5_" gradientUnits="userSpaceOnUse" x1="290.3948" y1="-2155.6636" x2="368.8775" y2="-2162.5952" gradientTransform="matrix(0.227 0 0 -0.227 5.654908e-02 179.7833)">
			<stop  offset="0" style="stop-color:#6D6E71;stop-opacity:0"/>
			<stop  offset="1" style="stop-color:#6D6E71"/>
		</linearGradient>
		<path fill="url(#SVGID_5_)" d="M81,666.7c-3.2,0-6.1,0.2-8.6,0.7c-0.4-0.1-0.7-0.2-0.7-0.5c0-0.6,1-0.8,0.7-1.2
			c-0.4-0.4-0.9,0.4-1.4,0.5s-0.7-0.2-1.9-0.4c-1.3-0.2-1.1,0.7-1.3,1c-0.2,0.4-0.9,0.4-1.5,0.5s0.5,0.7,1.2,0.7
			c0.5,0,1.4,0.1,1.9,0.2c-2.1,0.6-3.4,1.5-3.4,2.4c0,2,6.7,3.7,15.1,3.7s15.1-1.7,15.1-3.7S89.3,666.7,81,666.7z"/>
		<g>
			<path fill="#39B54A" d="M97.2,667.1c0-2.2-0.9-4.1-2.2-5.8c-1.1-1.4-2.5-2.5-4.1-3.2c0,0,0,0-0.1,0c-0.5-0.2-1.5-0.7-1.5-2.2l0,0
				v-0.1c0-0.4,0-0.7,0.1-1.1c0.2-1,0.5-2,1-2.9c0.1-0.2,0.2-0.4,0.2-0.7c0-0.4-0.2-0.6-0.5-0.6c-0.4,0-0.8,0.1-1.1,0.2
				c-0.2,0.1-0.4,0.2-0.5,0.3c-0.4,0.2-0.7,0.1-0.9-0.3c-0.1-0.1-0.1-0.2-0.2-0.4s-0.2-0.4-0.3-0.6c-0.5-0.6-1.3-0.6-1.8,0
				c-0.2,0.2-0.3,0.5-0.4,0.7c-0.2,0.5-0.5,0.8-1,0.8c-0.3,0-0.7,0-1.1,0.1c-0.2,0-0.5,0-0.7,0c-0.7,0-1,0.6-0.7,1.2
				c0.1,0.1,0.1,0.2,0.2,0.4c0.5,1.1,0.9,2.1,1.3,3.2c0.1,0.2,0.1,0.3,0.2,0.4c0.3,0.9-0.3,1-0.4,1.1c-2.5,0.8-4.6,2.3-6.2,4.4
				c-0.7,1-1.3,2.1-1.6,3.3c-0.3,1.1-0.3,2.2-0.2,3.3c0.1,0.8,0.3,1.5,0.7,2.2c0.6,1,1.5,1.6,2.5,2c1.1,0.4,2.3,0.7,3.5,0.8
				c1.5,0.1,3,0.2,4.4,0.2c1.5-0.1,2.9-0.1,4.2-0.2c1.3-0.1,2.5-0.3,3.8-0.8c1.5-0.6,2.6-1.5,3-3.1C97.1,668.9,97.2,668,97.2,667.1z
				"/>
			<path d="M85.8,674.2L85.8,674.2c-0.4,0-0.8,0-1.2-0.1c-1,0-2.1-0.1-3.1-0.2c-1.3-0.1-2.5-0.4-3.6-0.8c-1.2-0.5-2.1-1.2-2.7-2.2
				c-0.4-0.7-0.6-1.4-0.7-2.3c-0.2-1.3-0.1-2.4,0.2-3.5c0.3-1.2,0.9-2.4,1.7-3.4c1.7-2.2,3.8-3.8,6.3-4.6c0.1,0,0.2-0.1,0.2-0.1
				c0-0.1,0-0.2,0-0.5c-0.1-0.1-0.2-0.3-0.2-0.4c-0.3-0.8-0.7-1.6-1-2.4c-0.1-0.3-0.2-0.5-0.3-0.8c0-0.1-0.1-0.2-0.1-0.2
				s0-0.1-0.1-0.1c-0.2-0.4-0.2-0.8,0-1.2c0.2-0.3,0.5-0.5,1-0.5c0.1,0,0.3,0,0.4,0s0.2,0,0.3,0H83c0.3,0,0.6,0,0.9,0
				c0.4,0,0.6-0.2,0.7-0.6c0.1-0.3,0.3-0.6,0.5-0.8c0.3-0.4,0.7-0.6,1.1-0.6l0,0c0.4,0,0.9,0.2,1.2,0.6c0.1,0.2,0.2,0.4,0.3,0.5v0.1
				c0,0.1,0.1,0.2,0.1,0.2s0,0.1,0.1,0.1c0.1,0.2,0.2,0.3,0.4,0.2c0.1,0,0.2-0.1,0.3-0.2c0.1,0,0.1-0.1,0.2-0.1
				c0.5-0.2,0.9-0.3,1.3-0.3c0.5,0.1,0.9,0.5,0.8,1c0,0.3-0.1,0.6-0.2,0.8c-0.5,1-0.8,1.9-1,2.8c0,0.3-0.1,0.7-0.1,1
				c0,0.1,0,0.1,0,0.2c-0.1,1.2,0.8,1.6,1.2,1.9h0.1c1.7,0.8,3.1,1.9,4.2,3.3c1.5,1.9,2.3,3.8,2.3,6l0,0c0,1-0.1,2-0.4,2.8
				c-0.5,1.6-1.5,2.6-3.2,3.3c-1.1,0.4-2.4,0.7-3.9,0.8c-1,0.1-1.9,0.1-2.9,0.2C86.7,674.1,86.3,674.1,85.8,674.2L85.8,674.2z
				 M82.1,651.6C82.1,651.6,82,651.6,82.1,651.6c-0.3,0-0.5,0.1-0.5,0.2c-0.1,0.1-0.1,0.3,0,0.5c0,0,0,0.1,0.1,0.1
				c0,0.1,0.1,0.2,0.1,0.3c0.1,0.3,0.2,0.5,0.3,0.8c0.3,0.8,0.7,1.6,1,2.4c0,0.1,0.1,0.2,0.2,0.3l0,0v0.1c0.1,0.4,0.1,0.8,0,1
				s-0.3,0.4-0.6,0.5c-2.4,0.7-4.4,2.2-6,4.3c-0.7,1-1.2,2-1.5,3.2c-0.2,1-0.3,2-0.2,3.2c0.1,0.8,0.3,1.5,0.7,2
				c0.5,0.8,1.2,1.5,2.4,1.9c1,0.4,2.1,0.6,3.4,0.7c1,0.1,2.1,0.1,3.1,0.2c0.4,0,0.8,0,1.2,0.1c0.5,0,0.9,0,1.4-0.1
				c1,0,1.9-0.1,2.9-0.2c1.4-0.1,2.6-0.3,3.7-0.7c1.5-0.6,2.4-1.5,2.8-2.8c0.2-0.8,0.3-1.6,0.3-2.6l0,0c0-2-0.7-3.8-2.2-5.6
				c-1.1-1.4-2.4-2.4-4-3.1c0,0,0,0-0.1,0l0,0c-0.5-0.2-1.7-0.9-1.6-2.5v-0.1c0-0.4,0-0.7,0.1-1.1c0.2-1,0.5-2,1-3
				c0.1-0.2,0.1-0.3,0.1-0.5c0-0.1,0-0.2-0.2-0.3c-0.3,0-0.6,0-0.9,0.2c0,0-0.1,0.1-0.2,0.1c-0.1,0.1-0.3,0.2-0.4,0.2
				c-0.6,0.2-1,0.1-1.3-0.5c0-0.1,0-0.1-0.1-0.2s0-0.1-0.1-0.2v-0.1c-0.1-0.2-0.2-0.3-0.2-0.4c-0.2-0.2-0.4-0.3-0.6-0.3
				s-0.5,0.1-0.6,0.3s-0.2,0.4-0.3,0.6c-0.2,0.6-0.7,1-1.3,1.1c-0.3,0-0.6,0-1,0.1h-0.1c-0.1,0-0.2,0-0.4,0
				C82.3,651.6,82.2,651.6,82.1,651.6z"/>
		</g>
		<path opacity="0.51" fill="#A7A9AC" enable-background="new    " d="M83.7,656.8c0,0-1.3-3-1.5-3.6s-0.8-1.4-0.4-1.5
			c0.3-0.1,1.2,0,1.7,0s1.2-0.1,1.4-0.4c0.2-0.3,0.6-1.3,1,0c0.5,1.3,0.3,2.7,0.5,3.8s0.4,2,0.4,2s-1.1-0.9-1.5-1.8
			c-0.4-0.8-1.9-2.5-1.5-0.7c0.3,1.8,1.9,2.5,1.9,2.5S84.2,657.1,83.7,656.8z"/>
		
			<linearGradient id="SVGID_6_" gradientUnits="userSpaceOnUse" x1="328.5623" y1="-2122.2104" x2="427.8077" y2="-2122.2104" gradientTransform="matrix(0.227 0 0 -0.227 5.654908e-02 179.7833)">
			<stop  offset="0" style="stop-color:#39B54A;stop-opacity:0"/>
			<stop  offset="1.641512e-02" style="stop-color:#3DB649;stop-opacity:1.641512e-02"/>
			<stop  offset="0.5039" style="stop-color:#A4DD22;stop-opacity:0.5039"/>
			<stop  offset="0.8417" style="stop-color:#E6F609;stop-opacity:0.8417"/>
			<stop  offset="1" style="stop-color:#FFFF00"/>
		</linearGradient>
		<path opacity="0.4" fill="url(#SVGID_6_)" enable-background="new    " d="M97.2,667.1c0-2.2-0.9-4.1-2.2-5.8
			c-1.1-1.4-2.5-2.5-4.1-3.2c0,0,0,0-0.1,0c-0.5-0.2-1.5-0.7-1.5-2.2l0,0v-0.1c0-0.4,0-0.7,0.1-1.1c0.2-1,0.5-2,1-2.9
			c0.1-0.2,0.2-0.4,0.2-0.7c0-0.4-0.2-0.6-0.5-0.6c-0.4,0-0.8,0.1-1.1,0.2c-0.2,0.1-0.4,0.2-0.5,0.3c-0.4,0.2-0.7,0.1-0.9-0.3
			c-0.1-0.1-0.1-0.2-0.2-0.4s-0.2-0.4-0.3-0.6c-0.5-0.6-1.3-0.6-1.8,0c-0.2,0.2-0.3,0.5-0.4,0.7c-0.2,0.5-0.5,0.8-1,0.8
			c-0.3,0-0.7,0-1.1,0.1c-0.2,0-0.5,0-0.7,0c-0.7,0-1,0.6-0.7,1.2c0.1,0.1,0.1,0.2,0.2,0.4c0.5,1.1,0.9,2.1,1.3,3.2
			c0.1,0.2,0.1,0.3,0.2,0.4c0.3,0.9-0.3,1-0.4,1.1c-2.5,0.8-4.6,2.3-6.2,4.4c-0.7,1-1.3,2.1-1.6,3.3c-0.3,1.1-0.3,2.2-0.2,3.3
			c0.1,0.8,0.3,1.5,0.7,2.2c0.6,1,1.5,1.6,2.5,2c1.1,0.4,2.3,0.7,3.5,0.8c1.5,0.1,3,0.2,4.4,0.2c1.5-0.1,2.9-0.1,4.2-0.2
			c1.3-0.1,2.5-0.3,3.8-0.8c1.5-0.6,2.6-1.5,3-3.1C97.1,668.9,97.2,668,97.2,667.1z"/>
		<path opacity="0.51" fill="#A7A9AC" enable-background="new    " d="M86.4,658.6c0,0-2.6,1.1-3.9,2.4s-2.5,2.9-2.1,5.4
			c0.5,2.5,1.8,4.6,3.8,5.2c2,0.7,7.7,1.5,3.7,1.6c-4.1,0.2-4.9,0.5-9.3-0.7c-4.4-1.1-3.3-6.9-3.3-6.9s1-3.4,3.5-5.5
			s4.5-2.5,4.5-2.5S85,658.6,86.4,658.6z"/>
		<g>
			<path fill="#FFFFFF" d="M85.5,669.4v-0.9c-1.2-0.2-2-0.8-2-2.2h1.3c0,0.4,0.2,1,0.7,1.1v-2.2c-1.4-0.6-1.9-1.2-1.9-2.1
				c0-1,0.8-1.7,1.9-1.8v-0.5h0.7v0.5c1.3,0.1,2,0.9,2,1.9h-1.3c-0.1-0.5-0.3-0.8-0.7-0.9v1.7c1.4,0.5,2.3,1.1,2.3,2.4
				c0,1.2-0.9,2-2.3,2v0.9L85.5,669.4L85.5,669.4z M85.5,662.3c-0.4,0.1-0.6,0.3-0.6,0.6s0.1,0.5,0.6,0.8V662.3z M87.2,666.6
				c0-0.5-0.4-0.8-1-1.1v2C86.8,667.4,87.2,667.1,87.2,666.6z"/>
		</g>
		<path d="M83.3,656.3c0,0,0.1,0.4,1.8,0.7s3.9-0.7,3.9-0.7s0.3-0.2,0.7-0.1c0.4,0.1,0.8,0.6,0.4,1s-1.1,1-2,1.1s-2.9-0.1-4.2-0.5
			c-1.3-0.4-1.7-0.8-1.7-1.1C82.3,656.3,82.9,656,83.3,656.3z"/>
	</g>
	<g>
		<g>
			
				<linearGradient id="SVGID_7_" gradientUnits="userSpaceOnUse" x1="97.4433" y1="-2168.8794" x2="175.926" y2="-2175.811" gradientTransform="matrix(0.227 0 0 -0.227 5.654908e-02 179.7833)">
				<stop  offset="0" style="stop-color:#6D6E71;stop-opacity:0"/>
				<stop  offset="1" style="stop-color:#6D6E71"/>
			</linearGradient>
			<path fill="url(#SVGID_7_)" d="M37.2,669.7c-3.2,0-6.1,0.2-8.6,0.7c-0.4-0.1-0.7-0.2-0.7-0.5c0-0.6,1-0.8,0.7-1.2
				c-0.4-0.4-0.9,0.4-1.4,0.5s-0.7-0.2-1.9-0.4c-1.3-0.2-1.1,0.7-1.3,1s-0.9,0.4-1.5,0.5s0.5,0.7,1.2,0.7c0.5,0,1.4,0.1,1.9,0.2
				c-2.1,0.6-3.4,1.5-3.4,2.4c0,2,6.7,3.7,15.1,3.7s15.1-1.7,15.1-3.7S45.5,669.7,37.2,669.7z"/>
			<g>
				<path fill="#39B54A" d="M53.4,670c0-2.2-0.9-4.1-2.2-5.8c-1.1-1.4-2.5-2.5-4.1-3.2c0,0,0,0-0.1,0c-0.5-0.2-1.5-0.7-1.5-2.2l0,0
					v-0.1c0-0.4,0-0.7,0.1-1.1c0.2-1,0.5-2,1-2.9c0.1-0.2,0.2-0.4,0.2-0.7c0-0.4-0.2-0.6-0.5-0.6c-0.4,0-0.8,0.1-1.1,0.2
					c-0.2,0.1-0.4,0.2-0.5,0.3c-0.4,0.2-0.7,0.1-0.9-0.3c-0.1-0.1-0.1-0.2-0.2-0.4c-0.1-0.2-0.2-0.4-0.3-0.6c-0.5-0.6-1.3-0.6-1.8,0
					c-0.2,0.2-0.3,0.5-0.4,0.7c-0.2,0.5-0.5,0.8-1,0.8c-0.3,0-0.7,0-1.1,0.1c-0.2,0-0.5,0-0.7,0c-0.7,0-1,0.6-0.7,1.2
					c0.1,0.1,0.1,0.2,0.2,0.4c0.5,1.1,0.9,2.1,1.3,3.2c0.1,0.2,0.1,0.3,0.2,0.4c0.3,0.9-0.3,1-0.4,1.1c-2.5,0.8-4.6,2.3-6.2,4.4
					c-0.7,1-1.3,2.1-1.6,3.3c-0.3,1.1-0.3,2.2-0.2,3.3c0.1,0.8,0.3,1.5,0.7,2.2c0.6,1,1.5,1.6,2.5,2c1.1,0.4,2.3,0.7,3.5,0.8
					c1.5,0.1,3,0.2,4.4,0.2c1.5-0.1,2.9-0.1,4.2-0.2c1.3-0.1,2.5-0.3,3.8-0.8c1.5-0.6,2.6-1.5,3-3.1C53.3,671.9,53.4,671,53.4,670z"
					/>
				<path d="M42,677.1L42,677.1c-0.4,0-0.8,0-1.2-0.1c-1,0-2.1-0.1-3.1-0.2c-1.3-0.1-2.5-0.4-3.6-0.8c-1.2-0.5-2.1-1.2-2.7-2.2
					c-0.4-0.7-0.6-1.4-0.7-2.3c-0.2-1.3-0.1-2.4,0.2-3.5c0.3-1.2,0.9-2.4,1.7-3.4c1.7-2.2,3.8-3.8,6.3-4.6c0.1,0,0.2-0.1,0.2-0.1
					c0-0.1,0-0.2,0-0.5c-0.1-0.1-0.2-0.3-0.2-0.4c-0.3-0.8-0.7-1.6-1-2.4c-0.1-0.3-0.2-0.5-0.3-0.8c0-0.1-0.1-0.2-0.1-0.2
					s0-0.1-0.1-0.1c-0.2-0.4-0.2-0.8,0-1.2c0.2-0.3,0.5-0.5,1-0.5c0.1,0,0.3,0,0.4,0c0.1,0,0.2,0,0.3,0h0.1c0.3,0,0.6,0,0.9,0
					c0.4,0,0.6-0.2,0.7-0.6c0.1-0.3,0.3-0.6,0.5-0.8c0.3-0.4,0.7-0.6,1.1-0.6l0,0c0.4,0,0.9,0.2,1.2,0.6c0.1,0.2,0.2,0.4,0.3,0.5
					v0.1c0,0.1,0.1,0.2,0.1,0.2s0,0.1,0.1,0.1c0.1,0.2,0.2,0.3,0.4,0.2c0.1,0,0.2-0.1,0.3-0.2c0.1,0,0.1-0.1,0.2-0.1
					c0.5-0.2,0.9-0.3,1.3-0.3c0.5,0.1,0.9,0.5,0.8,1c0,0.3-0.1,0.6-0.2,0.8c-0.5,1-0.8,1.9-1,2.8c0,0.3-0.1,0.7-0.1,1
					c0,0.1,0,0.1,0,0.2c-0.1,1.2,0.8,1.6,1.2,1.9h0.1c1.7,0.8,3.1,1.9,4.2,3.3c1.5,1.9,2.3,3.8,2.3,6l0,0c0,1-0.1,2-0.4,2.8
					c-0.5,1.6-1.5,2.6-3.2,3.3c-1.1,0.4-2.4,0.7-3.9,0.8c-1,0.1-1.9,0.1-2.9,0.2C42.9,677.1,42.5,677.1,42,677.1L42,677.1z
					 M38.3,654.6C38.3,654.6,38.2,654.6,38.3,654.6c-0.3,0-0.5,0.1-0.5,0.2c-0.1,0.1-0.1,0.3,0,0.5c0,0,0,0.1,0.1,0.1
					c0,0.1,0.1,0.2,0.1,0.3c0.1,0.3,0.2,0.5,0.3,0.8c0.3,0.8,0.7,1.6,1,2.4c0,0.1,0.1,0.2,0.2,0.3l0,0v0.1c0.1,0.4,0.1,0.8,0,1
					s-0.3,0.4-0.6,0.5c-2.4,0.7-4.4,2.2-6,4.3c-0.7,1-1.2,2-1.5,3.2c-0.2,1-0.3,2-0.2,3.2c0.1,0.8,0.3,1.5,0.7,2
					c0.5,0.8,1.2,1.5,2.4,1.9c1,0.4,2.1,0.6,3.4,0.7c1,0.1,2.1,0.1,3.1,0.2c0.4,0,0.8,0,1.2,0.1c0.5,0,0.9,0,1.4-0.1
					c1,0,1.9-0.1,2.9-0.2c1.4-0.1,2.6-0.3,3.7-0.7c1.5-0.6,2.4-1.5,2.8-2.8c0.2-0.8,0.3-1.6,0.3-2.6l0,0c0-2-0.7-3.8-2.2-5.6
					c-1.1-1.4-2.4-2.4-4-3.1c0,0,0,0-0.1,0l0,0c-0.5-0.2-1.7-0.9-1.6-2.5v-0.1c0-0.4,0-0.7,0.1-1.1c0.2-1,0.5-2,1-3
					c0.1-0.2,0.1-0.3,0.1-0.5c0-0.1,0-0.2-0.2-0.3c-0.3,0-0.6,0-0.9,0.2c0,0-0.1,0.1-0.2,0.1c-0.1,0.1-0.3,0.2-0.4,0.2
					c-0.6,0.2-1,0.1-1.3-0.5c0-0.1,0-0.1-0.1-0.2s0-0.1-0.1-0.2v-0.1c-0.1-0.2-0.2-0.3-0.2-0.4c-0.2-0.2-0.4-0.3-0.6-0.3
					c-0.2,0-0.5,0.1-0.6,0.3s-0.2,0.4-0.3,0.6c-0.2,0.6-0.7,1-1.3,1.1c-0.3,0-0.6,0-1,0.1h-0.1c-0.1,0-0.2,0-0.4,0
					C38.5,654.6,38.4,654.6,38.3,654.6z"/>
			</g>
			<path opacity="0.51" fill="#A7A9AC" enable-background="new    " d="M39.9,659.7c0,0-1.3-3-1.5-3.6s-0.8-1.4-0.4-1.5
				c0.3-0.1,1.2,0,1.7,0s1.2-0.1,1.4-0.4c0.2-0.3,0.6-1.3,1,0c0.5,1.3,0.3,2.7,0.5,3.8s0.4,2,0.4,2s-1.1-0.9-1.5-1.8
				c-0.4-0.8-1.9-2.5-1.5-0.7s1.9,2.5,1.9,2.5S40.4,660,39.9,659.7z"/>
			
				<linearGradient id="SVGID_8_" gradientUnits="userSpaceOnUse" x1="135.6108" y1="-2134.9858" x2="234.8561" y2="-2134.9858" gradientTransform="matrix(0.227 0 0 -0.227 5.654908e-02 179.7833)">
				<stop  offset="0" style="stop-color:#39B54A;stop-opacity:0"/>
				<stop  offset="1.641512e-02" style="stop-color:#3DB649;stop-opacity:1.641512e-02"/>
				<stop  offset="0.5039" style="stop-color:#A4DD22;stop-opacity:0.5039"/>
				<stop  offset="0.8417" style="stop-color:#E6F609;stop-opacity:0.8417"/>
				<stop  offset="1" style="stop-color:#FFFF00"/>
			</linearGradient>
			<path opacity="0.4" fill="url(#SVGID_8_)" enable-background="new    " d="M53.4,670c0-2.2-0.9-4.1-2.2-5.8
				c-1.1-1.4-2.5-2.5-4.1-3.2c0,0,0,0-0.1,0c-0.5-0.2-1.5-0.7-1.5-2.2l0,0v-0.1c0-0.4,0-0.7,0.1-1.1c0.2-1,0.5-2,1-2.9
				c0.1-0.2,0.2-0.4,0.2-0.7c0-0.4-0.2-0.6-0.5-0.6c-0.4,0-0.8,0.1-1.1,0.2c-0.2,0.1-0.4,0.2-0.5,0.3c-0.4,0.2-0.7,0.1-0.9-0.3
				c-0.1-0.1-0.1-0.2-0.2-0.4c-0.1-0.2-0.2-0.4-0.3-0.6c-0.5-0.6-1.3-0.6-1.8,0c-0.2,0.2-0.3,0.5-0.4,0.7c-0.2,0.5-0.5,0.8-1,0.8
				c-0.3,0-0.7,0-1.1,0.1c-0.2,0-0.5,0-0.7,0c-0.7,0-1,0.6-0.7,1.2c0.1,0.1,0.1,0.2,0.2,0.4c0.5,1.1,0.9,2.1,1.3,3.2
				c0.1,0.2,0.1,0.3,0.2,0.4c0.3,0.9-0.3,1-0.4,1.1c-2.5,0.8-4.6,2.3-6.2,4.4c-0.7,1-1.3,2.1-1.6,3.3c-0.3,1.1-0.3,2.2-0.2,3.3
				c0.1,0.8,0.3,1.5,0.7,2.2c0.6,1,1.5,1.6,2.5,2c1.1,0.4,2.3,0.7,3.5,0.8c1.5,0.1,3,0.2,4.4,0.2c1.5-0.1,2.9-0.1,4.2-0.2
				c1.3-0.1,2.5-0.3,3.8-0.8c1.5-0.6,2.6-1.5,3-3.1C53.3,671.9,53.4,671,53.4,670z"/>
			<path opacity="0.51" fill="#A7A9AC" enable-background="new    " d="M42.6,661.5c0,0-2.6,1.1-3.9,2.4c-1.3,1.3-2.5,2.9-2.1,5.4
				c0.5,2.5,1.8,4.6,3.8,5.2c2,0.7,7.7,1.5,3.7,1.6c-4.1,0.2-4.9,0.5-9.3-0.7c-4.4-1.1-3.3-6.9-3.3-6.9s1-3.4,3.5-5.5
				s4.5-2.5,4.5-2.5S41.2,661.5,42.6,661.5z"/>
		</g>
		<g>
			<path fill="#FFFFFF" d="M41.6,672.3v-0.9c-1.2-0.2-2-0.8-2-2.2h1.3c0,0.4,0.2,1,0.7,1.1v-2.2c-1.4-0.6-1.9-1.2-1.9-2.1
				c0-1,0.8-1.7,1.9-1.8v-0.5h0.7v0.5c1.3,0.1,2,0.9,2,1.9H43c-0.1-0.5-0.3-0.8-0.7-0.9v1.7c1.4,0.5,2.3,1.1,2.3,2.4
				c0,1.2-0.9,2-2.3,2v0.9L41.6,672.3L41.6,672.3z M41.6,665.2c-0.4,0.1-0.6,0.3-0.6,0.6s0.1,0.5,0.6,0.8V665.2z M43.4,669.5
				c0-0.5-0.4-0.8-1-1.1v2C43,670.4,43.4,670,43.4,669.5z"/>
		</g>
		<path d="M39.5,659.2c0,0,0.1,0.4,1.8,0.7s3.9-0.7,3.9-0.7s0.3-0.2,0.7-0.1c0.4,0.1,0.8,0.6,0.4,1c-0.4,0.4-1.1,1-2,1.1
			s-2.9-0.1-4.2-0.5s-1.7-0.8-1.7-1.1C38.4,659.3,39.1,658.9,39.5,659.2z"/>
	</g>
	<g>
		
			<linearGradient id="SVGID_9_" gradientUnits="userSpaceOnUse" x1="14.404" y1="-2226.3684" x2="92.8867" y2="-2233.3" gradientTransform="matrix(0.227 0 0 -0.227 5.654908e-02 179.7833)">
			<stop  offset="0" style="stop-color:#6D6E71;stop-opacity:0"/>
			<stop  offset="1" style="stop-color:#6D6E71"/>
		</linearGradient>
		<path fill="url(#SVGID_9_)" d="M18.4,682.8c-3.2,0-6.1,0.2-8.6,0.7c-0.4-0.1-0.7-0.2-0.7-0.5c0-0.6,1-0.8,0.7-1.2
			c-0.4-0.4-0.9,0.4-1.4,0.5s-0.7-0.2-1.9-0.4c-1.3-0.2-1.1,0.7-1.3,1s-0.9,0.4-1.5,0.5c-0.7,0,0.4,0.6,1.1,0.6
			c0.5,0,1.4,0.1,1.9,0.2c-2.1,0.6-3.4,1.5-3.4,2.4c0,2,6.7,3.7,15.1,3.7s15.1-1.7,15.1-3.7S26.7,682.8,18.4,682.8z"/>
		<g>
			<path fill="#39B54A" d="M34.5,683.2c0-2.2-0.9-4.1-2.2-5.8c-1.1-1.4-2.5-2.5-4.1-3.2c0,0,0,0-0.1,0c-0.5-0.2-1.5-0.7-1.5-2.2l0,0
				v-0.1c0-0.4,0-0.7,0.1-1.1c0.2-1,0.5-2,1-2.9c0.1-0.2,0.2-0.4,0.2-0.7c0-0.4-0.2-0.6-0.5-0.6c-0.4,0-0.8,0.1-1.1,0.2
				c-0.2,0.1-0.4,0.2-0.5,0.3c-0.4,0.2-0.7,0.1-0.9-0.3c-0.1-0.1-0.1-0.2-0.2-0.4s-0.2-0.4-0.3-0.6c-0.5-0.6-1.3-0.6-1.8,0
				c-0.2,0.2-0.3,0.5-0.4,0.7c-0.2,0.5-0.5,0.8-1,0.8c-0.3,0-0.7,0-1.1,0.1c-0.2,0-0.5,0-0.7,0c-0.7,0-1,0.6-0.7,1.2
				c0.1,0.1,0.1,0.2,0.2,0.4c0.5,1.1,0.9,2.1,1.3,3.2c0.1,0.2,0.1,0.3,0.2,0.4c0.3,0.9-0.3,1-0.4,1.1c-2.5,0.8-4.6,2.3-6.2,4.4
				c-0.7,1-1.3,2.1-1.6,3.3c-0.3,1.1-0.3,2.2-0.2,3.3c0.1,0.8,0.3,1.5,0.7,2.2c0.6,1,1.5,1.6,2.5,2c1.1,0.4,2.3,0.7,3.5,0.8
				c1.5,0.1,3,0.2,4.4,0.2c1.5-0.1,2.9-0.1,4.2-0.2c1.3-0.1,2.5-0.3,3.8-0.8c1.5-0.6,2.6-1.5,3-3.1C34.5,685,34.6,684.1,34.5,683.2z
				"/>
			<path d="M23.1,690.3L23.1,690.3c-0.4,0-0.8,0-1.2-0.1c-1,0-2.1-0.1-3.1-0.2c-1.3-0.1-2.5-0.4-3.6-0.8c-1.2-0.5-2.1-1.2-2.7-2.2
				c-0.4-0.7-0.6-1.4-0.7-2.3c-0.2-1.3-0.1-2.4,0.2-3.5c0.3-1.2,0.9-2.4,1.7-3.4c1.7-2.2,3.8-3.8,6.3-4.6c0.1,0,0.2-0.1,0.2-0.1
				c0-0.1,0-0.2,0-0.5c-0.1-0.1-0.2-0.3-0.2-0.4c-0.3-0.8-0.7-1.6-1-2.4c-0.1-0.3-0.2-0.5-0.3-0.8c0-0.1-0.1-0.2-0.1-0.2
				s0-0.1-0.1-0.1c-0.2-0.4-0.2-0.8,0-1.2c0.2-0.3,0.5-0.5,1-0.5c0.1,0,0.3,0,0.4,0s0.2,0,0.3,0h0.1c0.3,0,0.6,0,0.9,0
				c0.4,0,0.6-0.2,0.7-0.6c0.1-0.3,0.3-0.6,0.5-0.8c0.3-0.4,0.7-0.6,1.1-0.6l0,0c0.4,0,0.9,0.2,1.2,0.6c0.1,0.2,0.2,0.4,0.3,0.5v0.1
				c0,0.1,0.1,0.2,0.1,0.2s0,0.1,0.1,0.1c0.1,0.2,0.2,0.3,0.4,0.2c0.1,0,0.2-0.1,0.3-0.2c0.1,0,0.1-0.1,0.2-0.1
				c0.5-0.2,0.9-0.3,1.3-0.3c0.5,0.1,0.9,0.5,0.8,1c0,0.3-0.1,0.6-0.2,0.8c-0.5,1-0.8,1.9-1,2.8c0,0.3-0.1,0.7-0.1,1
				c0,0.1,0,0.1,0,0.2c-0.1,1.2,0.8,1.6,1.2,1.9h0.1c1.7,0.8,3.1,1.9,4.2,3.3c1.5,1.9,2.3,3.8,2.3,6l0,0c0,1-0.1,2-0.4,2.8
				c-0.5,1.6-1.5,2.6-3.2,3.3c-1.1,0.4-2.4,0.7-3.9,0.8c-1,0.1-1.9,0.1-2.9,0.2C24.1,690.3,23.6,690.3,23.1,690.3L23.1,690.3z
				 M19.4,667.7L19.4,667.7c-0.3,0-0.5,0.1-0.5,0.2c-0.1,0.1-0.1,0.3,0,0.5c0,0,0,0.1,0.1,0.1c0,0.1,0.1,0.2,0.1,0.3
				c0.1,0.3,0.2,0.5,0.3,0.8c0.3,0.8,0.7,1.6,1,2.4c0,0.1,0.1,0.2,0.2,0.3l0,0v0.1c0.1,0.4,0.1,0.8,0,1s-0.3,0.4-0.6,0.5
				c-2.4,0.7-4.4,2.2-6,4.3c-0.7,1-1.2,2-1.5,3.2c-0.2,1-0.3,2-0.2,3.2c0.1,0.8,0.3,1.5,0.7,2c0.5,0.8,1.2,1.5,2.4,1.9
				c1,0.4,2.1,0.6,3.4,0.7c1,0.1,2.1,0.1,3.1,0.2c0.4,0,0.8,0,1.2,0.1c0.5,0,0.9,0,1.4-0.1c1,0,1.9-0.1,2.9-0.2
				c1.4-0.1,2.6-0.3,3.7-0.7c1.5-0.6,2.4-1.5,2.8-2.8c0.2-0.8,0.3-1.6,0.3-2.6l0,0c0-2-0.7-3.8-2.2-5.6c-1.1-1.4-2.4-2.4-4-3.1
				c0,0,0,0-0.1,0l0,0c-0.5-0.2-1.7-0.9-1.6-2.5v-0.1c0-0.4,0-0.7,0.1-1.1c0.2-1,0.5-2,1-3c0.1-0.2,0.1-0.3,0.1-0.5
				c0-0.1,0-0.2-0.2-0.3c-0.3,0-0.6,0-0.9,0.2c0,0-0.1,0.1-0.2,0.1c-0.1,0.1-0.3,0.2-0.4,0.2c-0.6,0.2-1,0.1-1.3-0.5
				c0-0.1,0-0.1-0.1-0.2c0-0.1,0-0.1-0.1-0.2v-0.1c-0.1-0.2-0.2-0.3-0.2-0.4c-0.2-0.2-0.4-0.3-0.6-0.3s-0.5,0.1-0.6,0.3
				s-0.2,0.4-0.3,0.6c-0.2,0.6-0.7,1-1.3,1.1c-0.3,0-0.6,0-1,0.1h-0.1c-0.1,0-0.2,0-0.4,0C19.6,667.7,19.5,667.7,19.4,667.7z"/>
		</g>
		<path opacity="0.51" fill="#A7A9AC" enable-background="new    " d="M21,672.9c0,0-1.3-3-1.5-3.6s-0.8-1.4-0.4-1.5
			c0.3-0.1,1.2,0,1.7,0s1.2-0.1,1.4-0.4c0.2-0.3,0.6-1.3,1,0c0.5,1.3,0.3,2.7,0.5,3.8s0.4,2,0.4,2s-1.1-0.9-1.5-1.8
			c-0.4-0.8-1.9-2.5-1.5-0.7c0.3,1.8,1.9,2.5,1.9,2.5S21.5,673.2,21,672.9z"/>
		
			<linearGradient id="SVGID_10_" gradientUnits="userSpaceOnUse" x1="52.6656" y1="-2193.1357" x2="151.9109" y2="-2193.1357" gradientTransform="matrix(0.227 0 0 -0.227 5.654908e-02 179.7833)">
			<stop  offset="0" style="stop-color:#39B54A;stop-opacity:0"/>
			<stop  offset="1.641512e-02" style="stop-color:#3DB649;stop-opacity:1.641512e-02"/>
			<stop  offset="0.5039" style="stop-color:#A4DD22;stop-opacity:0.5039"/>
			<stop  offset="0.8417" style="stop-color:#E6F609;stop-opacity:0.8417"/>
			<stop  offset="1" style="stop-color:#FFFF00"/>
		</linearGradient>
		<path opacity="0.4" fill="url(#SVGID_10_)" enable-background="new    " d="M34.5,683.2c0-2.2-0.9-4.1-2.2-5.8
			c-1.1-1.4-2.5-2.5-4.1-3.2c0,0,0,0-0.1,0c-0.5-0.2-1.5-0.7-1.5-2.2l0,0v-0.1c0-0.4,0-0.7,0.1-1.1c0.2-1,0.5-2,1-2.9
			c0.1-0.2,0.2-0.4,0.2-0.7c0-0.4-0.2-0.6-0.5-0.6c-0.4,0-0.8,0.1-1.1,0.2c-0.2,0.1-0.4,0.2-0.5,0.3c-0.4,0.2-0.7,0.1-0.9-0.3
			c-0.1-0.1-0.1-0.2-0.2-0.4s-0.2-0.4-0.3-0.6c-0.5-0.6-1.3-0.6-1.8,0c-0.2,0.2-0.3,0.5-0.4,0.7c-0.2,0.5-0.5,0.8-1,0.8
			c-0.3,0-0.7,0-1.1,0.1c-0.2,0-0.5,0-0.7,0c-0.7,0-1,0.6-0.7,1.2c0.1,0.1,0.1,0.2,0.2,0.4c0.5,1.1,0.9,2.1,1.3,3.2
			c0.1,0.2,0.1,0.3,0.2,0.4c0.3,0.9-0.3,1-0.4,1.1c-2.5,0.8-4.6,2.3-6.2,4.4c-0.7,1-1.3,2.1-1.6,3.3c-0.3,1.1-0.3,2.2-0.2,3.3
			c0.1,0.8,0.3,1.5,0.7,2.2c0.6,1,1.5,1.6,2.5,2c1.1,0.4,2.3,0.7,3.5,0.8c1.5,0.1,3,0.2,4.4,0.2c1.5-0.1,2.9-0.1,4.2-0.2
			c1.3-0.1,2.5-0.3,3.8-0.8c1.5-0.6,2.6-1.5,3-3.1C34.5,685,34.6,684.1,34.5,683.2z"/>
		<path opacity="0.51" fill="#A7A9AC" enable-background="new    " d="M23.7,674.7c0,0-2.6,1.1-3.9,2.4c-1.3,1.3-2.5,2.9-2.1,5.4
			c0.5,2.5,1.8,4.6,3.8,5.2s7.7,1.5,3.7,1.6c-4.1,0.2-4.9,0.5-9.3-0.7c-4.4-1.1-3.3-6.9-3.3-6.9s1-3.4,3.5-5.5s4.5-2.5,4.5-2.5
			S22.4,674.7,23.7,674.7z"/>
		<g>
			<path fill="#FFFFFF" d="M22.8,685.5v-0.9c-1.2-0.2-2-0.8-2-2.2h1.3c0,0.4,0.2,1,0.7,1.1v-2.2c-1.4-0.6-1.9-1.2-1.9-2.1
				c0-1,0.8-1.7,1.9-1.8v-0.5h0.7v0.5c1.3,0.1,2,0.9,2,1.9h-1.3c-0.1-0.5-0.3-0.8-0.7-0.9v1.7c1.4,0.5,2.3,1.1,2.3,2.4
				c0,1.2-0.9,2-2.3,2v0.9L22.8,685.5L22.8,685.5z M22.8,678.4c-0.4,0.1-0.6,0.3-0.6,0.6s0.1,0.5,0.6,0.8V678.4z M24.6,682.7
				c0-0.5-0.4-0.8-1-1.1v2C24.2,683.6,24.6,683.2,24.6,682.7z"/>
		</g>
		<path d="M20.6,672.4c0,0,0.1,0.4,1.8,0.7s3.9-0.7,3.9-0.7s0.3-0.2,0.7-0.1c0.4,0.1,0.8,0.6,0.4,1s-1.1,1-2,1.1s-2.9-0.1-4.2-0.5
			s-1.7-0.8-1.7-1.1C19.6,672.4,20.2,672.1,20.6,672.4z"/>
	</g>
	<g>
		
			<linearGradient id="SVGID_11_" gradientUnits="userSpaceOnUse" x1="134.4477" y1="-2214.6943" x2="212.9304" y2="-2221.626" gradientTransform="matrix(0.227 0 0 -0.227 5.654908e-02 179.7833)">
			<stop  offset="0" style="stop-color:#6D6E71;stop-opacity:0"/>
			<stop  offset="1" style="stop-color:#6D6E71"/>
		</linearGradient>
		<path fill="url(#SVGID_11_)" d="M45.6,680.1c-3.2,0-6.1,0.2-8.6,0.7c-0.4-0.1-0.7-0.2-0.7-0.5c0-0.6,1-0.8,0.7-1.2
			c-0.4-0.4-0.9,0.4-1.4,0.5s-0.7-0.2-1.9-0.4c-1.3-0.2-1.1,0.7-1.3,1s-0.9,0.4-1.5,0.5s0.5,0.7,1.2,0.7c0.5,0,1.4,0.1,1.9,0.2
			c-2.1,0.6-3.4,1.5-3.4,2.4c0,2,6.7,3.7,15.1,3.7s15.1-1.7,15.1-3.7C60.6,681.8,53.9,680.1,45.6,680.1z"/>
		<g>
			<path fill="#39B54A" d="M61.8,680.5c0-2.2-0.9-4.1-2.2-5.8c-1.1-1.4-2.5-2.5-4.1-3.2c0,0,0,0-0.1,0c-0.5-0.2-1.5-0.7-1.5-2.2l0,0
				v-0.1c0-0.4,0-0.7,0.1-1.1c0.2-1,0.5-2,1-2.9c0.1-0.2,0.2-0.4,0.2-0.7c0-0.4-0.2-0.6-0.5-0.6c-0.4,0-0.8,0.1-1.1,0.2
				c-0.2,0.1-0.4,0.2-0.5,0.3c-0.4,0.2-0.7,0.1-0.9-0.3c-0.1-0.1-0.1-0.2-0.2-0.4c-0.1-0.2-0.2-0.4-0.3-0.6c-0.5-0.6-1.3-0.6-1.8,0
				c-0.2,0.2-0.3,0.5-0.4,0.7c-0.2,0.5-0.5,0.8-1,0.8c-0.3,0-0.7,0-1.1,0.1c-0.2,0-0.5,0-0.7,0c-0.7,0-1,0.6-0.7,1.2
				c0.1,0.1,0.1,0.2,0.2,0.4c0.5,1.1,0.9,2.1,1.3,3.2c0.1,0.2,0.1,0.3,0.2,0.4c0.3,0.9-0.3,1-0.4,1.1c-2.5,0.8-4.6,2.3-6.2,4.4
				c-0.7,1-1.3,2.1-1.6,3.3c-0.3,1.1-0.3,2.2-0.2,3.3c0.1,0.8,0.3,1.5,0.7,2.2c0.6,1,1.5,1.6,2.5,2c1.1,0.4,2.3,0.7,3.5,0.8
				c1.5,0.1,3,0.2,4.4,0.2c1.5-0.1,2.9-0.1,4.2-0.2c1.3-0.1,2.5-0.3,3.8-0.8c1.5-0.6,2.6-1.5,3-3.1
				C61.7,682.3,61.8,681.4,61.8,680.5z"/>
			<path d="M50.4,687.6L50.4,687.6c-0.4,0-0.8,0-1.2-0.1c-1,0-2.1-0.1-3.1-0.2c-1.3-0.1-2.5-0.4-3.6-0.8c-1.2-0.5-2.1-1.2-2.7-2.2
				c-0.4-0.7-0.6-1.4-0.7-2.3c-0.2-1.3-0.1-2.4,0.2-3.5c0.3-1.2,0.9-2.4,1.7-3.4c1.7-2.2,3.8-3.8,6.3-4.6c0.1,0,0.2-0.1,0.2-0.1
				c0-0.1,0-0.2,0-0.5c-0.1-0.1-0.2-0.3-0.2-0.4c-0.3-0.8-0.7-1.6-1-2.4c-0.1-0.3-0.2-0.5-0.3-0.8c0-0.1-0.1-0.2-0.1-0.2
				s0-0.1-0.1-0.1c-0.2-0.4-0.2-0.8,0-1.2c0.2-0.3,0.5-0.5,1-0.5c0.1,0,0.3,0,0.4,0c0.1,0,0.2,0,0.3,0h0.1c0.3,0,0.6,0,0.9,0
				c0.4,0,0.6-0.2,0.7-0.6c0.1-0.3,0.3-0.6,0.5-0.8c0.3-0.4,0.7-0.6,1.1-0.6l0,0c0.4,0,0.9,0.2,1.2,0.6c0.1,0.2,0.2,0.4,0.3,0.5v0.1
				c0,0.1,0.1,0.2,0.1,0.2s0,0.1,0.1,0.1c0.1,0.2,0.2,0.3,0.4,0.2c0.1,0,0.2-0.1,0.3-0.2c0.1,0,0.1-0.1,0.2-0.1
				c0.5-0.2,0.9-0.3,1.3-0.3c0.5,0.1,0.9,0.5,0.8,1c0,0.3-0.1,0.6-0.2,0.8c-0.5,1-0.8,1.9-1,2.8c0,0.3-0.1,0.7-0.1,1
				c0,0.1,0,0.1,0,0.2c-0.1,1.2,0.8,1.6,1.2,1.9h0.1c1.7,0.8,3.1,1.9,4.2,3.3c1.5,1.9,2.3,3.8,2.3,6l0,0c0,1-0.1,2-0.4,2.8
				c-0.5,1.6-1.5,2.6-3.2,3.3c-1.1,0.4-2.4,0.7-3.9,0.8c-1,0.1-1.9,0.1-2.9,0.2C51.3,687.5,50.9,687.5,50.4,687.6L50.4,687.6z
				 M46.7,665C46.7,665,46.6,665,46.7,665c-0.3,0-0.5,0.1-0.5,0.2c-0.1,0.1-0.1,0.3,0,0.5c0,0,0,0.1,0.1,0.1c0,0.1,0.1,0.2,0.1,0.3
				c0.1,0.3,0.2,0.5,0.3,0.8c0.3,0.8,0.7,1.6,1,2.4c0,0.1,0.1,0.2,0.2,0.3l0,0v0.1c0.1,0.4,0.1,0.8,0,1s-0.3,0.4-0.6,0.5
				c-2.4,0.7-4.4,2.2-6,4.3c-0.7,1-1.2,2-1.5,3.2c-0.2,1-0.3,2-0.2,3.2c0.1,0.8,0.3,1.5,0.7,2c0.5,0.8,1.2,1.5,2.4,1.9
				c1,0.4,2.1,0.6,3.4,0.7c1,0.1,2.1,0.1,3.1,0.2c0.4,0,0.8,0,1.2,0.1c0.5,0,0.9,0,1.4-0.1c1,0,1.9-0.1,2.9-0.2
				c1.4-0.1,2.6-0.3,3.7-0.7c1.5-0.6,2.4-1.5,2.8-2.8c0.2-0.8,0.3-1.6,0.3-2.6l0,0c0-2-0.7-3.8-2.2-5.6c-1.1-1.4-2.4-2.4-4-3.1
				c0,0,0,0-0.1,0l0,0c-0.5-0.2-1.7-0.9-1.6-2.5v-0.1c0-0.4,0-0.7,0.1-1.1c0.2-1,0.5-2,1-3c0.1-0.2,0.1-0.3,0.1-0.5
				c0-0.1,0-0.2-0.2-0.3c-0.3,0-0.6,0-0.9,0.2c0,0-0.1,0.1-0.2,0.1c-0.1,0.1-0.3,0.2-0.4,0.2c-0.6,0.2-1,0.1-1.3-0.5
				c0-0.1,0-0.1-0.1-0.2c0-0.1,0-0.1-0.1-0.2v-0.1c-0.1-0.2-0.2-0.3-0.2-0.4c-0.2-0.2-0.4-0.3-0.6-0.3c-0.2,0-0.5,0.1-0.6,0.3
				s-0.2,0.4-0.3,0.6c-0.2,0.6-0.7,1-1.3,1.1c-0.3,0-0.6,0-1,0.1h-0.1c-0.1,0-0.2,0-0.4,0C46.9,665,46.8,665,46.7,665z"/>
		</g>
		<path opacity="0.51" fill="#A7A9AC" enable-background="new    " d="M48.3,670.2c0,0-1.3-3-1.5-3.6s-0.8-1.4-0.4-1.5
			c0.3-0.1,1.2,0,1.7,0s1.2-0.1,1.4-0.4c0.2-0.3,0.6-1.3,1,0c0.5,1.3,0.3,2.7,0.5,3.8s0.4,2,0.4,2s-1.1-0.9-1.5-1.8
			c-0.4-0.8-1.9-2.5-1.5-0.7s1.9,2.5,1.9,2.5S48.8,670.5,48.3,670.2z"/>
		
			<linearGradient id="SVGID_12_" gradientUnits="userSpaceOnUse" x1="172.6152" y1="-2181.2412" x2="271.8604" y2="-2181.2412" gradientTransform="matrix(0.227 0 0 -0.227 5.654908e-02 179.7833)">
			<stop  offset="0" style="stop-color:#39B54A;stop-opacity:0"/>
			<stop  offset="1.641512e-02" style="stop-color:#3DB649;stop-opacity:1.641512e-02"/>
			<stop  offset="0.5039" style="stop-color:#A4DD22;stop-opacity:0.5039"/>
			<stop  offset="0.8417" style="stop-color:#E6F609;stop-opacity:0.8417"/>
			<stop  offset="1" style="stop-color:#FFFF00"/>
		</linearGradient>
		<path opacity="0.4" fill="url(#SVGID_12_)" enable-background="new    " d="M61.8,680.5c0-2.2-0.9-4.1-2.2-5.8
			c-1.1-1.4-2.5-2.5-4.1-3.2c0,0,0,0-0.1,0c-0.5-0.2-1.5-0.7-1.5-2.2l0,0v-0.1c0-0.4,0-0.7,0.1-1.1c0.2-1,0.5-2,1-2.9
			c0.1-0.2,0.2-0.4,0.2-0.7c0-0.4-0.2-0.6-0.5-0.6c-0.4,0-0.8,0.1-1.1,0.2c-0.2,0.1-0.4,0.2-0.5,0.3c-0.4,0.2-0.7,0.1-0.9-0.3
			c-0.1-0.1-0.1-0.2-0.2-0.4c-0.1-0.2-0.2-0.4-0.3-0.6c-0.5-0.6-1.3-0.6-1.8,0c-0.2,0.2-0.3,0.5-0.4,0.7c-0.2,0.5-0.5,0.8-1,0.8
			c-0.3,0-0.7,0-1.1,0.1c-0.2,0-0.5,0-0.7,0c-0.7,0-1,0.6-0.7,1.2c0.1,0.1,0.1,0.2,0.2,0.4c0.5,1.1,0.9,2.1,1.3,3.2
			c0.1,0.2,0.1,0.3,0.2,0.4c0.3,0.9-0.3,1-0.4,1.1c-2.5,0.8-4.6,2.3-6.2,4.4c-0.7,1-1.3,2.1-1.6,3.3c-0.3,1.1-0.3,2.2-0.2,3.3
			c0.1,0.8,0.3,1.5,0.7,2.2c0.6,1,1.5,1.6,2.5,2c1.1,0.4,2.3,0.7,3.5,0.8c1.5,0.1,3,0.2,4.4,0.2c1.5-0.1,2.9-0.1,4.2-0.2
			c1.3-0.1,2.5-0.3,3.8-0.8c1.5-0.6,2.6-1.5,3-3.1C61.7,682.3,61.8,681.4,61.8,680.5z"/>
		<path opacity="0.51" fill="#A7A9AC" enable-background="new    " d="M51,671.9c0,0-2.6,1.1-3.9,2.4c-1.3,1.3-2.5,2.9-2.1,5.4
			c0.5,2.5,1.8,4.6,3.8,5.2c2,0.7,7.7,1.5,3.7,1.6c-4.1,0.2-4.9,0.5-9.3-0.7c-4.4-1.1-3.3-6.9-3.3-6.9s1-3.4,3.5-5.5
			s4.5-2.5,4.5-2.5S49.6,672,51,671.9z"/>
		<g>
			<path fill="#FFFFFF" d="M50,682.8v-0.9c-1.2-0.2-2-0.8-2-2.2h1.3c0,0.4,0.2,1,0.7,1.1v-2.2c-1.4-0.6-1.9-1.2-1.9-2.1
				c0-1,0.8-1.7,1.9-1.8v-0.5h0.7v0.5c1.3,0.1,2,0.9,2,1.9h-1.3c-0.1-0.5-0.3-0.8-0.7-0.9v1.7c1.4,0.5,2.3,1.1,2.3,2.4
				c0,1.2-0.9,2-2.3,2v0.9L50,682.8L50,682.8z M50,675.7c-0.4,0.1-0.6,0.3-0.6,0.6s0.1,0.5,0.6,0.8V675.7z M51.8,680
				c0-0.5-0.4-0.8-1-1.1v2C51.4,680.8,51.8,680.5,51.8,680z"/>
		</g>
		<path d="M47.9,669.7c0,0,0.1,0.4,1.8,0.7s3.9-0.7,3.9-0.7s0.3-0.2,0.7-0.1c0.4,0.1,0.8,0.6,0.4,1c-0.4,0.4-1.1,1-2,1.1
			s-2.9-0.1-4.2-0.5s-1.7-0.8-1.7-1.1C46.8,669.7,47.5,669.4,47.9,669.7z"/>
	</g>
	<g>
		
			<linearGradient id="SVGID_13_" gradientUnits="userSpaceOnUse" x1="224.3155" y1="-2178.571" x2="302.7982" y2="-2185.5027" gradientTransform="matrix(0.227 0 0 -0.227 5.654908e-02 179.7833)">
			<stop  offset="0" style="stop-color:#6D6E71;stop-opacity:0"/>
			<stop  offset="1" style="stop-color:#6D6E71"/>
		</linearGradient>
		<path fill="url(#SVGID_13_)" d="M66,671.9c-3.2,0-6.1,0.2-8.6,0.7c-0.4-0.1-0.7-0.2-0.7-0.5c0-0.6,1-0.8,0.7-1.2
			c-0.4-0.4-0.9,0.4-1.4,0.5c-0.6,0-0.7-0.2-1.9-0.4c-1.3-0.2-1.1,0.7-1.3,1c-0.2,0.4-0.9,0.4-1.5,0.5s0.5,0.7,1.2,0.7
			c0.5,0,1.4,0.1,1.9,0.2c-2.1,0.6-3.4,1.5-3.4,2.4c0,2,6.7,3.7,15.1,3.7s15.1-1.7,15.1-3.7S74.3,671.9,66,671.9z"/>
		<g>
			<path fill="#39B54A" d="M82.2,672.3c0-2.2-0.9-4.1-2.2-5.8c-1.1-1.4-2.5-2.5-4.1-3.2c0,0,0,0-0.1,0c-0.5-0.2-1.5-0.7-1.5-2.2l0,0
				V661c0-0.4,0-0.7,0.1-1.1c0.2-1,0.5-2,1-2.9c0.1-0.2,0.2-0.4,0.2-0.7c0-0.4-0.2-0.6-0.5-0.6c-0.4,0-0.8,0.1-1.1,0.2
				c-0.2,0.1-0.4,0.2-0.5,0.3c-0.4,0.2-0.7,0.1-0.9-0.3c-0.1-0.1-0.1-0.2-0.2-0.4s-0.2-0.4-0.3-0.6c-0.5-0.6-1.3-0.6-1.8,0
				c-0.2,0.2-0.3,0.5-0.4,0.7c-0.2,0.5-0.5,0.8-1,0.8c-0.3,0-0.7,0-1.1,0.1c-0.2,0-0.5,0-0.7,0c-0.7,0-1,0.6-0.7,1.2
				c0.1,0.1,0.1,0.2,0.2,0.4c0.5,1.1,0.9,2.1,1.3,3.2c0.1,0.2,0.1,0.3,0.2,0.4c0.3,0.9-0.3,1-0.4,1.1c-2.5,0.8-4.6,2.3-6.2,4.4
				c-0.7,1-1.3,2.1-1.6,3.3c-0.3,1.1-0.3,2.2-0.2,3.3c0.1,0.8,0.3,1.5,0.7,2.2c0.6,1,1.5,1.6,2.5,2c1.1,0.4,2.3,0.7,3.5,0.8
				c1.5,0.1,3,0.2,4.4,0.2c1.5-0.1,2.9-0.1,4.2-0.2c1.3-0.1,2.5-0.3,3.8-0.8c1.5-0.6,2.6-1.5,3-3.1
				C82.1,674.1,82.2,673.2,82.2,672.3z"/>
			<path d="M70.8,679.4L70.8,679.4c-0.4,0-0.8,0-1.2-0.1c-1,0-2.1-0.1-3.1-0.2c-1.3-0.1-2.5-0.4-3.6-0.8c-1.2-0.5-2.1-1.2-2.7-2.2
				c-0.4-0.7-0.6-1.4-0.7-2.3c-0.2-1.3-0.1-2.4,0.2-3.5c0.3-1.2,0.9-2.4,1.7-3.4c1.7-2.2,3.8-3.8,6.3-4.6c0.1,0,0.2-0.1,0.2-0.1
				c0-0.1,0-0.2,0-0.5c-0.1-0.1-0.2-0.3-0.2-0.4c-0.3-0.8-0.7-1.6-1-2.4c-0.1-0.3-0.2-0.5-0.3-0.8c0-0.1-0.1-0.2-0.1-0.2
				s0-0.1-0.1-0.1c-0.2-0.4-0.2-0.8,0-1.2c0.2-0.3,0.5-0.5,1-0.5c0.1,0,0.3,0,0.4,0s0.2,0,0.3,0H68c0.3,0,0.6,0,0.9,0
				c0.4,0,0.6-0.2,0.7-0.6c0.1-0.3,0.3-0.6,0.5-0.8c0.3-0.4,0.7-0.6,1.1-0.6l0,0c0.4,0,0.9,0.2,1.2,0.6c0.1,0.2,0.2,0.4,0.3,0.5v0.1
				c0,0.1,0.1,0.2,0.1,0.2s0,0.1,0.1,0.1c0.1,0.2,0.2,0.3,0.4,0.2c0.1,0,0.2-0.1,0.3-0.2c0.1,0,0.1-0.1,0.2-0.1
				c0.5-0.2,0.9-0.3,1.3-0.3c0.5,0.1,0.9,0.5,0.8,1c0,0.3-0.1,0.6-0.2,0.8c-0.5,1-0.8,1.9-1,2.8c0,0.3-0.1,0.7-0.1,1
				c0,0.1,0,0.1,0,0.2c-0.1,1.2,0.8,1.6,1.2,1.9h0.1c1.7,0.8,3.1,1.9,4.2,3.3c1.5,1.9,2.3,3.8,2.3,6l0,0c0,1-0.1,2-0.4,2.8
				c-0.5,1.6-1.5,2.6-3.2,3.3c-1.1,0.4-2.4,0.7-3.9,0.8c-1,0.1-1.9,0.1-2.9,0.2C71.7,679.4,71.3,679.4,70.8,679.4L70.8,679.4z
				 M67.1,656.8C67.1,656.8,67,656.8,67.1,656.8c-0.3,0-0.5,0.1-0.5,0.2c-0.1,0.1-0.1,0.3,0,0.5c0,0,0,0.1,0.1,0.1
				c0,0.1,0.1,0.2,0.1,0.3c0.1,0.3,0.2,0.5,0.3,0.8c0.3,0.8,0.7,1.6,1,2.4c0,0.1,0.1,0.2,0.2,0.3l0,0v0.1c0.1,0.4,0.1,0.8,0,1
				s-0.3,0.4-0.6,0.5c-2.4,0.7-4.4,2.2-6,4.3c-0.7,1-1.2,2-1.5,3.2c-0.2,1-0.3,2-0.2,3.2c0.1,0.8,0.3,1.5,0.7,2
				c0.5,0.8,1.2,1.5,2.4,1.9c1,0.4,2.1,0.6,3.4,0.7c1,0.1,2.1,0.1,3.1,0.2c0.4,0,0.8,0,1.2,0.1c0.5,0,0.9,0,1.4-0.1
				c1,0,1.9-0.1,2.9-0.2c1.4-0.1,2.6-0.3,3.7-0.7c1.5-0.6,2.4-1.5,2.8-2.8c0.2-0.8,0.3-1.6,0.3-2.6l0,0c0-2-0.7-3.8-2.2-5.6
				c-1.1-1.4-2.4-2.4-4-3.1c0,0,0,0-0.1,0l0,0c-0.5-0.2-1.7-0.9-1.6-2.5v-0.1c0-0.4,0-0.7,0.1-1.1c0.2-1,0.5-2,1-3
				c0.1-0.2,0.1-0.3,0.1-0.5c0-0.1,0-0.2-0.2-0.3c-0.3,0-0.6,0-0.9,0.2c0,0-0.1,0.1-0.2,0.1c-0.1,0.1-0.3,0.2-0.4,0.2
				c-0.6,0.2-1,0.1-1.3-0.5c0-0.1,0-0.1-0.1-0.2s0-0.1-0.1-0.2v-0.1c-0.1-0.2-0.2-0.3-0.2-0.4c-0.2-0.2-0.4-0.3-0.6-0.3
				s-0.5,0.1-0.6,0.3s-0.2,0.4-0.3,0.6c-0.2,0.6-0.7,1-1.3,1.1c-0.3,0-0.6,0-1,0.1h-0.1c-0.1,0-0.2,0-0.4,0
				C67.3,656.8,67.2,656.8,67.1,656.8z"/>
		</g>
		<path opacity="0.51" fill="#A7A9AC" enable-background="new    " d="M68.7,662c0,0-1.3-3-1.5-3.6s-0.8-1.4-0.4-1.5
			c0.3-0.1,1.2,0,1.7,0s1.2-0.1,1.4-0.4c0.2-0.3,0.6-1.3,1,0c0.5,1.3,0.3,2.7,0.5,3.8s0.4,2,0.4,2s-1.1-0.9-1.5-1.8
			s-1.9-2.5-1.5-0.7c0.3,1.8,1.9,2.5,1.9,2.5S69.2,662.3,68.7,662z"/>
		
			<linearGradient id="SVGID_14_" gradientUnits="userSpaceOnUse" x1="262.483" y1="-2145.1179" x2="361.7284" y2="-2145.1179" gradientTransform="matrix(0.227 0 0 -0.227 5.654908e-02 179.7833)">
			<stop  offset="0" style="stop-color:#39B54A;stop-opacity:0"/>
			<stop  offset="1.641512e-02" style="stop-color:#3DB649;stop-opacity:1.641512e-02"/>
			<stop  offset="0.5039" style="stop-color:#A4DD22;stop-opacity:0.5039"/>
			<stop  offset="0.8417" style="stop-color:#E6F609;stop-opacity:0.8417"/>
			<stop  offset="1" style="stop-color:#FFFF00"/>
		</linearGradient>
		<path opacity="0.4" fill="url(#SVGID_14_)" enable-background="new    " d="M82.2,672.3c0-2.2-0.9-4.1-2.2-5.8
			c-1.1-1.4-2.5-2.5-4.1-3.2c0,0,0,0-0.1,0c-0.5-0.2-1.5-0.7-1.5-2.2l0,0V661c0-0.4,0-0.7,0.1-1.1c0.2-1,0.5-2,1-2.9
			c0.1-0.2,0.2-0.4,0.2-0.7c0-0.4-0.2-0.6-0.5-0.6c-0.4,0-0.8,0.1-1.1,0.2c-0.2,0.1-0.4,0.2-0.5,0.3c-0.4,0.2-0.7,0.1-0.9-0.3
			c-0.1-0.1-0.1-0.2-0.2-0.4s-0.2-0.4-0.3-0.6c-0.5-0.6-1.3-0.6-1.8,0c-0.2,0.2-0.3,0.5-0.4,0.7c-0.2,0.5-0.5,0.8-1,0.8
			c-0.3,0-0.7,0-1.1,0.1c-0.2,0-0.5,0-0.7,0c-0.7,0-1,0.6-0.7,1.2c0.1,0.1,0.1,0.2,0.2,0.4c0.5,1.1,0.9,2.1,1.3,3.2
			c0.1,0.2,0.1,0.3,0.2,0.4c0.3,0.9-0.3,1-0.4,1.1c-2.5,0.8-4.6,2.3-6.2,4.4c-0.7,1-1.3,2.1-1.6,3.3c-0.3,1.1-0.3,2.2-0.2,3.3
			c0.1,0.8,0.3,1.5,0.7,2.2c0.6,1,1.5,1.6,2.5,2c1.1,0.4,2.3,0.7,3.5,0.8c1.5,0.1,3,0.2,4.4,0.2c1.5-0.1,2.9-0.1,4.2-0.2
			c1.3-0.1,2.5-0.3,3.8-0.8c1.5-0.6,2.6-1.5,3-3.1C82.1,674.1,82.2,673.2,82.2,672.3z"/>
		<path opacity="0.51" fill="#A7A9AC" enable-background="new    " d="M71.4,663.8c0,0-2.6,1.1-3.9,2.4c-1.3,1.3-2.5,2.9-2.1,5.4
			c0.5,2.5,1.8,4.6,3.8,5.2c2,0.7,7.7,1.5,3.7,1.6c-4.1,0.2-4.9,0.5-9.3-0.7c-4.4-1.1-3.3-6.9-3.3-6.9s1-3.4,3.5-5.5
			s4.5-2.5,4.5-2.5S70.1,663.8,71.4,663.8z"/>
		<g>
			<path fill="#FFFFFF" d="M70.5,674.6v-0.9c-1.2-0.2-2-0.8-2-2.2h1.3c0,0.4,0.2,1,0.7,1.1v-2.2c-1.4-0.6-1.9-1.2-1.9-2.1
				c0-1,0.8-1.7,1.9-1.8V666h0.7v0.5c1.3,0.1,2,0.9,2,1.9h-1.3c-0.1-0.5-0.3-0.8-0.7-0.9v1.7c1.4,0.5,2.3,1.1,2.3,2.4
				c0,1.2-0.9,2-2.3,2v0.9L70.5,674.6L70.5,674.6z M70.5,667.5c-0.4,0.1-0.6,0.3-0.6,0.6s0.1,0.5,0.6,0.8V667.5z M72.2,671.8
				c0-0.5-0.4-0.8-1-1.1v2C71.8,672.7,72.2,672.3,72.2,671.8z"/>
		</g>
		<path d="M68.3,661.5c0,0,0.1,0.4,1.8,0.7c1.7,0.3,3.9-0.7,3.9-0.7s0.3-0.2,0.7-0.1c0.4,0.1,0.8,0.6,0.4,1s-1.1,1-2,1.1
			c-0.8,0.2-2.9-0.1-4.2-0.5c-1.3-0.4-1.7-0.8-1.7-1.1C67.3,661.5,67.9,661.2,68.3,661.5z"/>
	</g>
	<g>
		
			<linearGradient id="SVGID_15_" gradientUnits="userSpaceOnUse" x1="90.3948" y1="-2288.7034" x2="168.8775" y2="-2295.635" gradientTransform="matrix(0.227 0 0 -0.227 5.654908e-02 179.7833)">
			<stop  offset="0" style="stop-color:#6D6E71;stop-opacity:0"/>
			<stop  offset="1" style="stop-color:#6D6E71"/>
		</linearGradient>
		<path fill="url(#SVGID_15_)" d="M35.6,696.9c-3.2,0-6.1,0.2-8.6,0.7c-0.4-0.1-0.7-0.2-0.7-0.5c0-0.6,1-0.8,0.7-1.2
			c-0.4-0.4-0.9,0.4-1.4,0.5c-0.6,0-0.7-0.2-1.9-0.4s-1.1,0.7-1.3,1c-0.2,0.4-0.9,0.4-1.5,0.5s0.5,0.7,1.2,0.7
			c0.5,0,1.4,0.1,1.9,0.2c-2.1,0.6-3.4,1.5-3.4,2.4c0,2,6.7,3.7,15.1,3.7s15.1-1.7,15.1-3.7C50.6,698.6,43.9,696.9,35.6,696.9z"/>
		<g>
			<path fill="#39B54A" d="M51.8,697.3c0-2.2-0.9-4.1-2.2-5.8c-1.1-1.4-2.5-2.5-4.1-3.2c0,0,0,0-0.1,0c-0.5-0.2-1.5-0.7-1.5-2.2l0,0
				V686c0-0.4,0-0.7,0.1-1.1c0.2-1,0.5-2,1-2.9c0.1-0.2,0.2-0.4,0.2-0.7c0-0.4-0.2-0.6-0.5-0.6c-0.4,0-0.8,0.1-1.1,0.2
				c-0.2,0.1-0.4,0.2-0.5,0.3c-0.4,0.2-0.7,0.1-0.9-0.3c-0.1-0.1-0.1-0.2-0.2-0.4c-0.1-0.2-0.2-0.4-0.3-0.6c-0.5-0.6-1.3-0.6-1.8,0
				c-0.2,0.2-0.3,0.5-0.4,0.7c-0.2,0.5-0.5,0.8-1,0.8c-0.3,0-0.7,0-1.1,0.1c-0.2,0-0.5,0-0.7,0c-0.7,0-1,0.6-0.7,1.2
				c0.1,0.1,0.1,0.2,0.2,0.4c0.5,1.1,0.9,2.1,1.3,3.2c0.1,0.2,0.1,0.3,0.2,0.4c0.3,0.9-0.3,1-0.4,1.1c-2.5,0.8-4.6,2.3-6.2,4.4
				c-0.7,1-1.3,2.1-1.6,3.3c-0.3,1.1-0.3,2.2-0.2,3.3c0.1,0.8,0.3,1.5,0.7,2.2c0.6,1,1.5,1.6,2.5,2c1.1,0.4,2.3,0.7,3.5,0.8
				c1.5,0.1,3,0.2,4.4,0.2c1.5-0.1,2.9-0.1,4.2-0.2c1.3-0.1,2.5-0.3,3.8-0.8c1.5-0.6,2.6-1.5,3-3.1
				C51.7,699.1,51.8,698.2,51.8,697.3z"/>
			<path d="M40.4,704.4L40.4,704.4c-0.4,0-0.8,0-1.2-0.1c-1,0-2.1-0.1-3.1-0.2c-1.3-0.1-2.5-0.4-3.6-0.8c-1.2-0.5-2.1-1.2-2.7-2.2
				c-0.4-0.7-0.6-1.4-0.7-2.3c-0.2-1.3-0.1-2.4,0.2-3.5c0.3-1.2,0.9-2.4,1.7-3.4c1.7-2.2,3.8-3.8,6.3-4.6c0.1,0,0.2-0.1,0.2-0.1
				c0-0.1,0-0.2,0-0.5c-0.1-0.1-0.2-0.3-0.2-0.4c-0.3-0.8-0.7-1.6-1-2.4c-0.1-0.3-0.2-0.5-0.3-0.8c0-0.1-0.1-0.2-0.1-0.2
				s0-0.1-0.1-0.1c-0.2-0.4-0.2-0.8,0-1.2c0.2-0.3,0.5-0.5,1-0.5c0.1,0,0.3,0,0.4,0c0.1,0,0.2,0,0.3,0h0.1c0.3,0,0.6,0,0.9,0
				c0.4,0,0.6-0.2,0.7-0.6c0.1-0.3,0.3-0.6,0.5-0.8c0.3-0.4,0.7-0.6,1.1-0.6l0,0c0.4,0,0.9,0.2,1.2,0.6c0.1,0.2,0.2,0.4,0.3,0.5v0.1
				c0,0.1,0.1,0.2,0.1,0.2s0,0.1,0.1,0.1c0.1,0.2,0.2,0.3,0.4,0.2c0.1,0,0.2-0.1,0.3-0.2c0.1,0,0.1-0.1,0.2-0.1
				c0.5-0.2,0.9-0.3,1.3-0.3c0.5,0.1,0.9,0.5,0.8,1c0,0.3-0.1,0.6-0.2,0.8c-0.5,1-0.8,1.9-1,2.8c0,0.3-0.1,0.7-0.1,1
				c0,0.1,0,0.1,0,0.2c-0.1,1.2,0.8,1.6,1.2,1.9h0.1c1.7,0.8,3.1,1.9,4.2,3.3c1.5,1.9,2.3,3.8,2.3,6l0,0c0,1-0.1,2-0.4,2.8
				c-0.5,1.6-1.5,2.6-3.2,3.3c-1.1,0.4-2.4,0.7-3.9,0.8c-1,0.1-1.9,0.1-2.9,0.2C41.3,704.3,40.9,704.3,40.4,704.4L40.4,704.4z
				 M36.7,681.8C36.7,681.8,36.6,681.8,36.7,681.8c-0.3,0-0.5,0.1-0.5,0.2c-0.1,0.1-0.1,0.3,0,0.5c0,0,0,0.1,0.1,0.1
				c0,0.1,0.1,0.2,0.1,0.3c0.1,0.3,0.2,0.5,0.3,0.8c0.3,0.8,0.7,1.6,1,2.4c0,0.1,0.1,0.2,0.2,0.3l0,0v0.1c0.1,0.4,0.1,0.8,0,1
				s-0.3,0.4-0.6,0.5c-2.4,0.7-4.4,2.2-6,4.3c-0.7,1-1.2,2-1.5,3.2c-0.2,1-0.3,2-0.2,3.2c0.1,0.8,0.3,1.5,0.7,2
				c0.5,0.8,1.2,1.5,2.4,1.9c1,0.4,2.1,0.6,3.4,0.7c1,0.1,2.1,0.1,3.1,0.2c0.4,0,0.8,0,1.2,0.1c0.5,0,0.9,0,1.4-0.1
				c1,0,1.9-0.1,2.9-0.2c1.4-0.1,2.6-0.3,3.7-0.7c1.5-0.6,2.4-1.5,2.8-2.8c0.2-0.8,0.3-1.6,0.3-2.6l0,0c0-2-0.7-3.8-2.2-5.6
				c-1.1-1.4-2.4-2.4-4-3.1c0,0,0,0-0.1,0l0,0c-0.5-0.2-1.7-0.9-1.6-2.5v-0.1c0-0.4,0-0.7,0.1-1.1c0.2-1,0.5-2,1-3
				c0.1-0.2,0.1-0.3,0.1-0.5c0-0.1,0-0.2-0.2-0.3c-0.3,0-0.6,0-0.9,0.2c0,0-0.1,0.1-0.2,0.1c-0.1,0.1-0.3,0.2-0.4,0.2
				c-0.6,0.2-1,0.1-1.3-0.5c0-0.1,0-0.1-0.1-0.2s0-0.1-0.1-0.2v-0.1c-0.1-0.2-0.2-0.3-0.2-0.4c-0.2-0.2-0.4-0.3-0.6-0.3
				c-0.2,0-0.5,0.1-0.6,0.3s-0.2,0.4-0.3,0.6c-0.2,0.6-0.7,1-1.3,1.1c-0.3,0-0.6,0-1,0.1h-0.1c-0.1,0-0.2,0-0.4,0
				C36.9,681.8,36.8,681.8,36.7,681.8z"/>
		</g>
		<path opacity="0.51" fill="#A7A9AC" enable-background="new    " d="M38.3,687c0,0-1.3-3-1.5-3.6s-0.8-1.4-0.4-1.5
			c0.3-0.1,1.2,0,1.7,0s1.2-0.1,1.4-0.4c0.2-0.3,0.6-1.3,1,0c0.5,1.3,0.3,2.7,0.5,3.8s0.4,2,0.4,2s-1.1-0.9-1.5-1.8
			c-0.4-0.8-1.9-2.5-1.5-0.7s1.9,2.5,1.9,2.5S38.8,687.3,38.3,687z"/>
		
			<linearGradient id="SVGID_16_" gradientUnits="userSpaceOnUse" x1="128.5623" y1="-2255.25" x2="227.8076" y2="-2255.25" gradientTransform="matrix(0.227 0 0 -0.227 5.654908e-02 179.7833)">
			<stop  offset="0" style="stop-color:#39B54A;stop-opacity:0"/>
			<stop  offset="1.641512e-02" style="stop-color:#3DB649;stop-opacity:1.641512e-02"/>
			<stop  offset="0.5039" style="stop-color:#A4DD22;stop-opacity:0.5039"/>
			<stop  offset="0.8417" style="stop-color:#E6F609;stop-opacity:0.8417"/>
			<stop  offset="1" style="stop-color:#FFFF00"/>
		</linearGradient>
		<path opacity="0.4" fill="url(#SVGID_16_)" enable-background="new    " d="M51.8,697.3c0-2.2-0.9-4.1-2.2-5.8
			c-1.1-1.4-2.5-2.5-4.1-3.2c0,0,0,0-0.1,0c-0.5-0.2-1.5-0.7-1.5-2.2l0,0V686c0-0.4,0-0.7,0.1-1.1c0.2-1,0.5-2,1-2.9
			c0.1-0.2,0.2-0.4,0.2-0.7c0-0.4-0.2-0.6-0.5-0.6c-0.4,0-0.8,0.1-1.1,0.2c-0.2,0.1-0.4,0.2-0.5,0.3c-0.4,0.2-0.7,0.1-0.9-0.3
			c-0.1-0.1-0.1-0.2-0.2-0.4c-0.1-0.2-0.2-0.4-0.3-0.6c-0.5-0.6-1.3-0.6-1.8,0c-0.2,0.2-0.3,0.5-0.4,0.7c-0.2,0.5-0.5,0.8-1,0.8
			c-0.3,0-0.7,0-1.1,0.1c-0.2,0-0.5,0-0.7,0c-0.7,0-1,0.6-0.7,1.2c0.1,0.1,0.1,0.2,0.2,0.4c0.5,1.1,0.9,2.1,1.3,3.2
			c0.1,0.2,0.1,0.3,0.2,0.4c0.3,0.9-0.3,1-0.4,1.1c-2.5,0.8-4.6,2.3-6.2,4.4c-0.7,1-1.3,2.1-1.6,3.3c-0.3,1.1-0.3,2.2-0.2,3.3
			c0.1,0.8,0.3,1.5,0.7,2.2c0.6,1,1.5,1.6,2.5,2c1.1,0.4,2.3,0.7,3.5,0.8c1.5,0.1,3,0.2,4.4,0.2c1.5-0.1,2.9-0.1,4.2-0.2
			c1.3-0.1,2.5-0.3,3.8-0.8c1.5-0.6,2.6-1.5,3-3.1C51.7,699.1,51.8,698.2,51.8,697.3z"/>
		<path opacity="0.51" fill="#A7A9AC" enable-background="new    " d="M41,688.7c0,0-2.6,1.1-3.9,2.4c-1.3,1.3-2.5,2.9-2.1,5.4
			c0.5,2.5,1.8,4.6,3.8,5.2c2,0.7,7.7,1.5,3.7,1.6c-4.1,0.2-4.9,0.5-9.3-0.7c-4.4-1.1-3.3-6.9-3.3-6.9s1-3.4,3.5-5.5
			s4.5-2.5,4.5-2.5S39.6,688.8,41,688.7z"/>
		<g>
			<path fill="#FFFFFF" d="M40.1,699.6v-0.9c-1.2-0.2-2-0.8-2-2.2h1.3c0,0.4,0.2,1,0.7,1.1v-2.2c-1.4-0.6-1.9-1.2-1.9-2.1
				c0-1,0.8-1.7,1.9-1.8V691h0.7v0.5c1.3,0.1,2,0.9,2,1.9h-1.3c-0.1-0.5-0.3-0.8-0.7-0.9v1.7c1.4,0.5,2.3,1.1,2.3,2.4
				c0,1.2-0.9,2-2.3,2v0.9L40.1,699.6L40.1,699.6z M40.1,692.5c-0.4,0.1-0.6,0.3-0.6,0.6s0.1,0.5,0.6,0.8V692.5z M41.8,696.8
				c0-0.5-0.4-0.8-1-1.1v2C41.4,697.6,41.8,697.3,41.8,696.8z"/>
		</g>
		<path d="M37.9,686.4c0,0,0.1,0.4,1.8,0.7s3.9-0.7,3.9-0.7s0.3-0.2,0.7-0.1c0.4,0.1,0.8,0.6,0.4,1c-0.4,0.4-1.1,1-2,1.1
			c-0.8,0.2-2.9-0.1-4.2-0.5s-1.7-0.8-1.7-1.1C36.8,686.5,37.5,686.2,37.9,686.4z"/>
	</g>
	<g>
		
			<linearGradient id="SVGID_17_" gradientUnits="userSpaceOnUse" x1="201.408" y1="-2256.5444" x2="279.8907" y2="-2263.4761" gradientTransform="matrix(0.227 0 0 -0.227 5.654908e-02 179.7833)">
			<stop  offset="0" style="stop-color:#6D6E71;stop-opacity:0"/>
			<stop  offset="1" style="stop-color:#6D6E71"/>
		</linearGradient>
		<path fill="url(#SVGID_17_)" d="M60.8,689.6c-3.2,0-6.1,0.2-8.6,0.7c-0.4-0.1-0.7-0.2-0.7-0.5c0-0.6,1-0.8,0.7-1.2
			c-0.4-0.4-0.9,0.4-1.4,0.5c-0.6,0-0.7-0.2-1.9-0.4c-1.3-0.2-1.1,0.7-1.3,1c-0.2,0.4-0.9,0.4-1.5,0.5s0.5,0.7,1.2,0.7
			c0.5,0,1.4,0.1,1.9,0.2c-2.1,0.6-3.4,1.5-3.4,2.4c0,2,6.7,3.7,15.1,3.7s15.1-1.7,15.1-3.7S69.1,689.6,60.8,689.6z"/>
		<g>
			<path fill="#39B54A" d="M77,690c0-2.2-0.9-4.1-2.2-5.8c-1.1-1.4-2.5-2.5-4.1-3.2c0,0,0,0-0.1,0c-0.5-0.2-1.5-0.7-1.5-2.2l0,0
				v-0.1c0-0.4,0-0.7,0.1-1.1c0.2-1,0.5-2,1-2.9c0.1-0.2,0.2-0.4,0.2-0.7c0-0.4-0.2-0.6-0.5-0.6c-0.4,0-0.8,0.1-1.1,0.2
				c-0.2,0.1-0.4,0.2-0.5,0.3c-0.4,0.2-0.7,0.1-0.9-0.3c-0.1-0.1-0.1-0.2-0.2-0.4s-0.2-0.4-0.3-0.6c-0.5-0.6-1.3-0.6-1.8,0
				c-0.2,0.2-0.3,0.5-0.4,0.7c-0.2,0.5-0.5,0.8-1,0.8c-0.3,0-0.7,0-1.1,0.1c-0.2,0-0.5,0-0.7,0c-0.7,0-1,0.6-0.7,1.2
				c0.1,0.1,0.1,0.2,0.2,0.4c0.5,1.1,0.9,2.1,1.3,3.2c0.1,0.2,0.1,0.3,0.2,0.4c0.3,0.9-0.3,1-0.4,1.1c-2.5,0.8-4.6,2.3-6.2,4.4
				c-0.7,1-1.3,2.1-1.6,3.3c-0.3,1.1-0.3,2.2-0.2,3.3c0.1,0.8,0.3,1.5,0.7,2.2c0.6,1,1.5,1.6,2.5,2c1.1,0.4,2.3,0.7,3.5,0.8
				c1.5,0.1,3,0.2,4.4,0.2c1.5-0.1,2.9-0.1,4.2-0.2c1.3-0.1,2.5-0.3,3.8-0.8c1.5-0.6,2.6-1.5,3-3.1C76.9,691.9,77,690.9,77,690z"/>
			<path d="M65.6,697.1L65.6,697.1c-0.4,0-0.8,0-1.2-0.1c-1,0-2.1-0.1-3.1-0.2c-1.3-0.1-2.5-0.4-3.6-0.8c-1.2-0.5-2.1-1.2-2.7-2.2
				c-0.4-0.7-0.6-1.4-0.7-2.3c-0.2-1.3-0.1-2.4,0.2-3.5c0.3-1.2,0.9-2.4,1.7-3.4c1.7-2.2,3.8-3.8,6.3-4.6c0.1,0,0.2-0.1,0.2-0.1
				c0-0.1,0-0.2,0-0.5c-0.1-0.1-0.2-0.3-0.2-0.4c-0.3-0.8-0.7-1.6-1-2.4c-0.1-0.3-0.2-0.5-0.3-0.8c0-0.1-0.1-0.2-0.1-0.2
				s0-0.1-0.1-0.1c-0.2-0.4-0.2-0.8,0-1.2c0.2-0.3,0.5-0.5,1-0.5c0.1,0,0.3,0,0.4,0c0.1,0,0.2,0,0.3,0h0.1c0.3,0,0.6,0,0.9,0
				c0.4,0,0.6-0.2,0.7-0.6c0.1-0.3,0.3-0.6,0.5-0.8c0.3-0.4,0.7-0.6,1.1-0.6l0,0c0.4,0,0.9,0.2,1.2,0.6c0.1,0.2,0.2,0.4,0.3,0.5v0.1
				c0,0.1,0.1,0.2,0.1,0.2s0,0.1,0.1,0.1c0.1,0.2,0.2,0.3,0.4,0.2c0.1,0,0.2-0.1,0.3-0.2c0.1,0,0.1-0.1,0.2-0.1
				c0.5-0.2,0.9-0.3,1.3-0.3c0.5,0.1,0.9,0.5,0.8,1c0,0.3-0.1,0.6-0.2,0.8c-0.5,1-0.8,1.9-1,2.8c0,0.3-0.1,0.7-0.1,1
				c0,0.1,0,0.1,0,0.2c-0.1,1.2,0.8,1.6,1.2,1.9h0.1c1.7,0.8,3.1,1.9,4.2,3.3c1.5,1.9,2.3,3.8,2.3,6l0,0c0,1-0.1,2-0.4,2.8
				c-0.5,1.6-1.5,2.6-3.2,3.3c-1.1,0.4-2.4,0.7-3.9,0.8c-1,0.1-1.9,0.1-2.9,0.2C66.5,697.1,66.1,697.1,65.6,697.1L65.6,697.1z
				 M61.9,674.5C61.9,674.5,61.8,674.5,61.9,674.5c-0.3,0-0.5,0.1-0.5,0.2c-0.1,0.1-0.1,0.3,0,0.5c0,0,0,0.1,0.1,0.1
				c0,0.1,0.1,0.2,0.1,0.3c0.1,0.3,0.2,0.5,0.3,0.8c0.3,0.8,0.7,1.6,1,2.4c0,0.1,0.1,0.2,0.2,0.3l0,0v0.1c0.1,0.4,0.1,0.8,0,1
				s-0.3,0.4-0.6,0.5c-2.4,0.7-4.4,2.2-6,4.3c-0.7,1-1.2,2-1.5,3.2c-0.2,1-0.3,2-0.2,3.2c0.1,0.8,0.3,1.5,0.7,2
				c0.5,0.8,1.2,1.5,2.4,1.9c1,0.4,2.1,0.6,3.4,0.7c1,0.1,2.1,0.1,3.1,0.2c0.4,0,0.8,0,1.2,0.1c0.5,0,0.9,0,1.4-0.1
				c1,0,1.9-0.1,2.9-0.2c1.4-0.1,2.6-0.3,3.7-0.7c1.5-0.6,2.4-1.5,2.8-2.8c0.2-0.8,0.3-1.6,0.3-2.6l0,0c0-2-0.7-3.8-2.2-5.6
				c-1.1-1.4-2.4-2.4-4-3.1c0,0,0,0-0.1,0l0,0c-0.5-0.2-1.7-0.9-1.6-2.5v-0.1c0-0.4,0-0.7,0.1-1.1c0.2-1,0.5-2,1-3
				c0.1-0.2,0.1-0.3,0.1-0.5c0-0.1,0-0.2-0.2-0.3c-0.3,0-0.6,0-0.9,0.2c0,0-0.1,0.1-0.2,0.1c-0.1,0.1-0.3,0.2-0.4,0.2
				c-0.6,0.2-1,0.1-1.3-0.5c0-0.1,0-0.1-0.1-0.2c0-0.1,0-0.1-0.1-0.2v-0.1c-0.1-0.2-0.2-0.3-0.2-0.4c-0.2-0.2-0.4-0.3-0.6-0.3
				s-0.5,0.1-0.6,0.3s-0.2,0.4-0.3,0.6c-0.2,0.6-0.7,1-1.3,1.1c-0.3,0-0.6,0-1,0.1h-0.1c-0.1,0-0.2,0-0.4,0
				C62.1,674.5,62,674.5,61.9,674.5z"/>
		</g>
		<path opacity="0.51" fill="#A7A9AC" enable-background="new    " d="M63.5,679.7c0,0-1.3-3-1.5-3.6s-0.8-1.4-0.4-1.5
			c0.3-0.1,1.2,0,1.7,0s1.2-0.1,1.4-0.4c0.2-0.3,0.6-1.3,1,0c0.5,1.3,0.3,2.7,0.5,3.8s0.4,2,0.4,2s-1.1-0.9-1.5-1.8
			c-0.4-0.8-1.9-2.5-1.5-0.7c0.3,1.8,1.9,2.5,1.9,2.5S64,680,63.5,679.7z"/>
		
			<linearGradient id="SVGID_18_" gradientUnits="userSpaceOnUse" x1="239.5755" y1="-2223.0916" x2="338.8209" y2="-2223.0916" gradientTransform="matrix(0.227 0 0 -0.227 5.654908e-02 179.7833)">
			<stop  offset="0" style="stop-color:#39B54A;stop-opacity:0"/>
			<stop  offset="1.641512e-02" style="stop-color:#3DB649;stop-opacity:1.641512e-02"/>
			<stop  offset="0.5039" style="stop-color:#A4DD22;stop-opacity:0.5039"/>
			<stop  offset="0.8417" style="stop-color:#E6F609;stop-opacity:0.8417"/>
			<stop  offset="1" style="stop-color:#FFFF00"/>
		</linearGradient>
		<path opacity="0.4" fill="url(#SVGID_18_)" enable-background="new    " d="M77,690c0-2.2-0.9-4.1-2.2-5.8
			c-1.1-1.4-2.5-2.5-4.1-3.2c0,0,0,0-0.1,0c-0.5-0.2-1.5-0.7-1.5-2.2l0,0v-0.1c0-0.4,0-0.7,0.1-1.1c0.2-1,0.5-2,1-2.9
			c0.1-0.2,0.2-0.4,0.2-0.7c0-0.4-0.2-0.6-0.5-0.6c-0.4,0-0.8,0.1-1.1,0.2c-0.2,0.1-0.4,0.2-0.5,0.3c-0.4,0.2-0.7,0.1-0.9-0.3
			c-0.1-0.1-0.1-0.2-0.2-0.4s-0.2-0.4-0.3-0.6c-0.5-0.6-1.3-0.6-1.8,0c-0.2,0.2-0.3,0.5-0.4,0.7c-0.2,0.5-0.5,0.8-1,0.8
			c-0.3,0-0.7,0-1.1,0.1c-0.2,0-0.5,0-0.7,0c-0.7,0-1,0.6-0.7,1.2c0.1,0.1,0.1,0.2,0.2,0.4c0.5,1.1,0.9,2.1,1.3,3.2
			c0.1,0.2,0.1,0.3,0.2,0.4c0.3,0.9-0.3,1-0.4,1.1c-2.5,0.8-4.6,2.3-6.2,4.4c-0.7,1-1.3,2.1-1.6,3.3c-0.3,1.1-0.3,2.2-0.2,3.3
			c0.1,0.8,0.3,1.5,0.7,2.2c0.6,1,1.5,1.6,2.5,2c1.1,0.4,2.3,0.7,3.5,0.8c1.5,0.1,3,0.2,4.4,0.2c1.5-0.1,2.9-0.1,4.2-0.2
			c1.3-0.1,2.5-0.3,3.8-0.8c1.5-0.6,2.6-1.5,3-3.1C76.9,691.9,77,690.9,77,690z"/>
		<path opacity="0.51" fill="#A7A9AC" enable-background="new    " d="M66.2,681.5c0,0-2.6,1.1-3.9,2.4c-1.3,1.3-2.5,2.9-2.1,5.4
			c0.5,2.5,1.8,4.6,3.8,5.2c2,0.7,7.7,1.5,3.7,1.6c-4.1,0.2-4.9,0.5-9.3-0.7c-4.4-1.1-3.3-6.9-3.3-6.9s1-3.4,3.5-5.5
			s4.5-2.5,4.5-2.5S64.8,681.5,66.2,681.5z"/>
		<g>
			<path fill="#FFFFFF" d="M65.3,692.3v-0.9c-1.2-0.2-2-0.8-2-2.2h1.3c0,0.4,0.2,1,0.7,1.1v-2.2c-1.4-0.6-1.9-1.2-1.9-2.1
				c0-1,0.8-1.7,1.9-1.8v-0.5H66v0.5c1.3,0.1,2,0.9,2,1.9h-1.3c-0.1-0.5-0.3-0.8-0.7-0.9v1.7c1.4,0.5,2.3,1.1,2.3,2.4
				c0,1.2-0.9,2-2.3,2v0.9L65.3,692.3L65.3,692.3z M65.3,685.2c-0.4,0.1-0.6,0.3-0.6,0.6s0.1,0.5,0.6,0.8V685.2z M67,689.5
				c0-0.5-0.4-0.8-1-1.1v2C66.6,690.4,67,690,67,689.5z"/>
		</g>
		<path d="M63.1,679.2c0,0,0.1,0.4,1.8,0.7c1.7,0.3,3.9-0.7,3.9-0.7s0.3-0.2,0.7-0.1c0.4,0.1,0.8,0.6,0.4,1s-1.1,1-2,1.1
			c-0.8,0.2-2.9-0.1-4.2-0.5s-1.7-0.8-1.7-1.1S62.7,678.9,63.1,679.2z"/>
	</g>
	<g>
		
			<linearGradient id="SVGID_19_" gradientUnits="userSpaceOnUse" x1="45.4609" y1="-2343.7693" x2="123.9436" y2="-2350.7009" gradientTransform="matrix(0.227 0 0 -0.227 5.654908e-02 179.7833)">
			<stop  offset="0" style="stop-color:#6D6E71;stop-opacity:0"/>
			<stop  offset="1" style="stop-color:#6D6E71"/>
		</linearGradient>
		<path fill="url(#SVGID_19_)" d="M25.4,709.4c-3.2,0-6.1,0.2-8.6,0.7c-0.4-0.1-0.7-0.2-0.7-0.5c0-0.6,1-0.8,0.7-1.2
			c-0.4-0.4-0.9,0.4-1.4,0.5c-0.6,0-0.7-0.2-1.9-0.4c-1.3-0.2-1.1,0.7-1.3,1s-0.9,0.4-1.5,0.5s0.5,0.7,1.2,0.7
			c0.5,0,1.4,0.1,1.9,0.2c-2.1,0.6-3.4,1.5-3.4,2.4c0,2,6.7,3.7,15.1,3.7s15.1-1.7,15.1-3.7S33.7,709.4,25.4,709.4z"/>
		<g>
			<path fill="#39B54A" d="M41.6,709.8c0-2.2-0.9-4.1-2.2-5.8c-1.1-1.4-2.5-2.5-4.1-3.2c0,0,0,0-0.1,0c-0.5-0.2-1.5-0.7-1.5-2.2l0,0
				v-0.1c0-0.4,0-0.7,0.1-1.1c0.2-1,0.5-2,1-2.9c0.1-0.2,0.2-0.4,0.2-0.7c0-0.4-0.2-0.6-0.5-0.6c-0.4,0-0.8,0.1-1.1,0.2
				c-0.2,0.1-0.4,0.2-0.5,0.3c-0.4,0.2-0.7,0.1-0.9-0.3c-0.1-0.1-0.1-0.2-0.2-0.4s-0.2-0.4-0.3-0.6c-0.5-0.6-1.3-0.6-1.8,0
				c-0.2,0.2-0.3,0.5-0.4,0.7c-0.2,0.5-0.5,0.8-1,0.8c-0.3,0-0.7,0-1.1,0.1c-0.2,0-0.5,0-0.7,0c-0.7,0-1,0.6-0.7,1.2
				c0.1,0.1,0.1,0.2,0.2,0.4c0.5,1.1,0.9,2.1,1.3,3.2c0.1,0.2,0.1,0.3,0.2,0.4c0.3,0.9-0.3,1-0.4,1.1c-2.5,0.8-4.6,2.3-6.2,4.4
				c-0.7,1-1.3,2.1-1.6,3.3c-0.3,1.1-0.3,2.2-0.2,3.3c0.1,0.8,0.3,1.5,0.7,2.2c0.6,1,1.5,1.6,2.5,2c1.1,0.4,2.3,0.7,3.5,0.8
				c1.5,0.1,3,0.2,4.4,0.2c1.5-0.1,2.9-0.1,4.2-0.2c1.3-0.1,2.5-0.3,3.8-0.8c1.5-0.6,2.6-1.5,3-3.1
				C41.5,711.6,41.6,710.7,41.6,709.8z"/>
			<path d="M30.2,716.8L30.2,716.8c-0.4,0-0.8,0-1.2-0.1c-1,0-2.1-0.1-3.1-0.2c-1.3-0.1-2.5-0.4-3.6-0.8c-1.2-0.5-2.1-1.2-2.7-2.2
				c-0.4-0.7-0.6-1.4-0.7-2.3c-0.2-1.3-0.1-2.4,0.2-3.5c0.3-1.2,0.9-2.4,1.7-3.4c1.7-2.2,3.8-3.8,6.3-4.6c0.1,0,0.2-0.1,0.2-0.1
				c0-0.1,0-0.2,0-0.5c-0.1-0.1-0.2-0.3-0.2-0.4c-0.3-0.8-0.7-1.6-1-2.4c-0.1-0.3-0.2-0.5-0.3-0.8c0-0.1-0.1-0.2-0.1-0.2
				s0-0.1-0.1-0.1c-0.2-0.4-0.2-0.8,0-1.2c0.2-0.3,0.5-0.5,1-0.5c0.1,0,0.3,0,0.4,0s0.2,0,0.3,0h0.1c0.3,0,0.6,0,0.9,0
				c0.4,0,0.6-0.2,0.7-0.6c0.1-0.3,0.3-0.6,0.5-0.8c0.3-0.4,0.7-0.6,1.1-0.6l0,0c0.4,0,0.9,0.2,1.2,0.6c0.1,0.2,0.2,0.4,0.3,0.5v0.1
				c0,0.1,0.1,0.2,0.1,0.2s0,0.1,0.1,0.1c0.1,0.2,0.2,0.3,0.4,0.2c0.1,0,0.2-0.1,0.3-0.2c0.1,0,0.1-0.1,0.2-0.1
				c0.5-0.2,0.9-0.3,1.3-0.3c0.5,0.1,0.9,0.5,0.8,1c0,0.3-0.1,0.6-0.2,0.8c-0.5,1-0.8,1.9-1,2.8c0,0.3-0.1,0.7-0.1,1
				c0,0.1,0,0.1,0,0.2c-0.1,1.2,0.8,1.6,1.2,1.9h0.1c1.7,0.8,3.1,1.9,4.2,3.3c1.5,1.9,2.3,3.8,2.3,6l0,0c0,1-0.1,2-0.4,2.8
				c-0.5,1.6-1.5,2.6-3.2,3.3c-1.1,0.4-2.4,0.7-3.9,0.8c-1,0.1-1.9,0.1-2.9,0.2C31.1,716.8,30.7,716.8,30.2,716.8L30.2,716.8z
				 M26.5,694.3C26.5,694.3,26.4,694.3,26.5,694.3c-0.3,0-0.5,0.1-0.5,0.2c-0.1,0.1-0.1,0.3,0,0.5c0,0,0,0.1,0.1,0.1
				c0,0.1,0.1,0.2,0.1,0.3c0.1,0.3,0.2,0.5,0.3,0.8c0.3,0.8,0.7,1.6,1,2.4c0,0.1,0.1,0.2,0.2,0.3l0,0v0.1c0.1,0.4,0.1,0.8,0,1
				s-0.3,0.4-0.6,0.5c-2.4,0.7-4.4,2.2-6,4.3c-0.7,1-1.2,2-1.5,3.2c-0.2,1-0.3,2-0.2,3.2c0.1,0.8,0.3,1.5,0.7,2
				c0.5,0.8,1.2,1.5,2.4,1.9c1,0.4,2.1,0.6,3.4,0.7c1,0.1,2.1,0.1,3.1,0.2c0.4,0,0.8,0,1.2,0.1c0.5,0,0.9,0,1.4-0.1
				c1,0,1.9-0.1,2.9-0.2c1.4-0.1,2.6-0.3,3.7-0.7c1.5-0.6,2.4-1.5,2.8-2.8c0.2-0.8,0.3-1.6,0.3-2.6l0,0c0-2-0.7-3.8-2.2-5.6
				c-1.1-1.4-2.4-2.4-4-3.1c0,0,0,0-0.1,0l0,0c-0.5-0.2-1.7-0.9-1.6-2.5v-0.1c0-0.4,0-0.7,0.1-1.1c0.2-1,0.5-2,1-3
				c0.1-0.2,0.1-0.3,0.1-0.5c0-0.1,0-0.2-0.2-0.3c-0.3,0-0.6,0-0.9,0.2c0,0-0.1,0.1-0.2,0.1c-0.1,0.1-0.3,0.2-0.4,0.2
				c-0.6,0.2-1,0.1-1.3-0.5c0-0.1,0-0.1-0.1-0.2s0-0.1-0.1-0.2V693c-0.1-0.2-0.2-0.3-0.2-0.4c-0.2-0.2-0.4-0.3-0.6-0.3
				s-0.5,0.1-0.6,0.3s-0.2,0.4-0.3,0.6c-0.2,0.6-0.7,1-1.3,1.1c-0.3,0-0.6,0-1,0.1h-0.1c-0.1,0-0.2,0-0.4,0
				C26.7,694.3,26.6,694.3,26.5,694.3z"/>
		</g>
		<path opacity="0.51" fill="#A7A9AC" enable-background="new    " d="M28.1,699.5c0,0-1.3-3-1.5-3.6s-0.8-1.4-0.4-1.5
			c0.3-0.1,1.2,0,1.7,0s1.2-0.1,1.4-0.4s0.6-1.3,1,0c0.5,1.3,0.3,2.7,0.5,3.8s0.4,2,0.4,2s-1.1-0.9-1.5-1.8
			c-0.4-0.8-1.9-2.5-1.5-0.7c0.3,1.8,1.9,2.5,1.9,2.5S28.6,699.8,28.1,699.5z"/>
		
			<linearGradient id="SVGID_20_" gradientUnits="userSpaceOnUse" x1="83.6284" y1="-2310.3162" x2="182.8737" y2="-2310.3162" gradientTransform="matrix(0.227 0 0 -0.227 5.654908e-02 179.7833)">
			<stop  offset="0" style="stop-color:#39B54A;stop-opacity:0"/>
			<stop  offset="1.641512e-02" style="stop-color:#3DB649;stop-opacity:1.641512e-02"/>
			<stop  offset="0.5039" style="stop-color:#A4DD22;stop-opacity:0.5039"/>
			<stop  offset="0.8417" style="stop-color:#E6F609;stop-opacity:0.8417"/>
			<stop  offset="1" style="stop-color:#FFFF00"/>
		</linearGradient>
		<path opacity="0.4" fill="url(#SVGID_20_)" enable-background="new    " d="M41.6,709.8c0-2.2-0.9-4.1-2.2-5.8
			c-1.1-1.4-2.5-2.5-4.1-3.2c0,0,0,0-0.1,0c-0.5-0.2-1.5-0.7-1.5-2.2l0,0v-0.1c0-0.4,0-0.7,0.1-1.1c0.2-1,0.5-2,1-2.9
			c0.1-0.2,0.2-0.4,0.2-0.7c0-0.4-0.2-0.6-0.5-0.6c-0.4,0-0.8,0.1-1.1,0.2c-0.2,0.1-0.4,0.2-0.5,0.3c-0.4,0.2-0.7,0.1-0.9-0.3
			c-0.1-0.1-0.1-0.2-0.2-0.4s-0.2-0.4-0.3-0.6c-0.5-0.6-1.3-0.6-1.8,0c-0.2,0.2-0.3,0.5-0.4,0.7c-0.2,0.5-0.5,0.8-1,0.8
			c-0.3,0-0.7,0-1.1,0.1c-0.2,0-0.5,0-0.7,0c-0.7,0-1,0.6-0.7,1.2c0.1,0.1,0.1,0.2,0.2,0.4c0.5,1.1,0.9,2.1,1.3,3.2
			c0.1,0.2,0.1,0.3,0.2,0.4c0.3,0.9-0.3,1-0.4,1.1c-2.5,0.8-4.6,2.3-6.2,4.4c-0.7,1-1.3,2.1-1.6,3.3c-0.3,1.1-0.3,2.2-0.2,3.3
			c0.1,0.8,0.3,1.5,0.7,2.2c0.6,1,1.5,1.6,2.5,2c1.1,0.4,2.3,0.7,3.5,0.8c1.5,0.1,3,0.2,4.4,0.2c1.5-0.1,2.9-0.1,4.2-0.2
			c1.3-0.1,2.5-0.3,3.8-0.8c1.5-0.6,2.6-1.5,3-3.1C41.5,711.6,41.6,710.7,41.6,709.8z"/>
		<path opacity="0.51" fill="#A7A9AC" enable-background="new    " d="M30.7,701.2c0,0-2.6,1.1-3.9,2.4s-2.5,2.9-2.1,5.4
			c0.5,2.5,1.8,4.6,3.8,5.2s7.7,1.5,3.7,1.6c-4.1,0.2-4.9,0.5-9.3-0.7c-4.4-1.1-3.3-6.9-3.3-6.9s1-3.4,3.5-5.5s4.5-2.5,4.5-2.5
			S29.4,701.2,30.7,701.2z"/>
		<g>
			<path fill="#FFFFFF" d="M29.8,712.1v-0.9c-1.2-0.2-2-0.8-2-2.2h1.3c0,0.4,0.2,1,0.7,1.1v-2.2c-1.4-0.6-1.9-1.2-1.9-2.1
				c0-1,0.8-1.7,1.9-1.8v-0.5h0.7v0.5c1.3,0.1,2,0.9,2,1.9h-1.3c-0.1-0.5-0.3-0.8-0.7-0.9v1.7c1.4,0.5,2.3,1.1,2.3,2.4
				c0,1.2-0.9,2-2.3,2v0.9L29.8,712.1L29.8,712.1z M29.8,705c-0.4,0.1-0.6,0.3-0.6,0.6s0.1,0.5,0.6,0.8V705z M31.6,709.3
				c0-0.5-0.4-0.8-1-1.1v2C31.2,710.1,31.6,709.7,31.6,709.3z"/>
		</g>
		<path d="M27.7,698.9c0,0,0.1,0.4,1.8,0.7s3.9-0.7,3.9-0.7s0.3-0.2,0.7-0.1s0.8,0.6,0.4,1c-0.4,0.4-1.1,1-2,1.1
			c-0.8,0.2-2.9-0.1-4.2-0.5s-1.7-0.8-1.7-1.1C26.6,699,27.3,698.7,27.7,698.9z"/>
	</g>
	<g>
		
			<linearGradient id="SVGID_21_" gradientUnits="userSpaceOnUse" x1="336.2098" y1="-2198.8354" x2="414.6925" y2="-2205.7671" gradientTransform="matrix(0.227 0 0 -0.227 5.654908e-02 179.7833)">
			<stop  offset="0" style="stop-color:#6D6E71;stop-opacity:0"/>
			<stop  offset="1" style="stop-color:#6D6E71"/>
		</linearGradient>
		<path fill="url(#SVGID_21_)" d="M91.4,676.5c-3.2,0-6.1,0.2-8.6,0.7c-0.4-0.1-0.7-0.2-0.7-0.5c0-0.6,1-0.8,0.7-1.2
			c-0.4-0.4-0.9,0.4-1.4,0.5c-0.6,0-0.7-0.2-1.9-0.4c-1.3-0.2-1.1,0.7-1.3,1c-0.2,0.4-0.9,0.4-1.5,0.5s0.5,0.7,1.2,0.7
			c0.5,0,1.4,0.1,1.9,0.2c-2.1,0.6-3.4,1.5-3.4,2.4c0,2,6.7,3.7,15.1,3.7s15.1-1.7,15.1-3.7S99.8,676.5,91.4,676.5z"/>
		<g>
			<path fill="#39B54A" d="M107.6,676.8c0-2.2-0.9-4.1-2.2-5.8c-1.1-1.4-2.5-2.5-4.1-3.2c0,0,0,0-0.1,0c-0.5-0.2-1.5-0.7-1.5-2.2
				l0,0v-0.1c0-0.4,0-0.7,0.1-1.1c0.2-1,0.5-2,1-2.9c0.1-0.2,0.2-0.4,0.2-0.7c0-0.4-0.2-0.6-0.5-0.6c-0.4,0-0.8,0.1-1.1,0.2
				c-0.2,0.1-0.4,0.2-0.5,0.3c-0.4,0.2-0.7,0.1-0.9-0.3c-0.1-0.1-0.1-0.2-0.2-0.4s-0.2-0.4-0.3-0.6c-0.5-0.6-1.3-0.6-1.8,0
				c-0.2,0.2-0.3,0.5-0.4,0.7c-0.2,0.5-0.5,0.8-1,0.8c-0.3,0-0.7,0-1.1,0.1c-0.2,0-0.5,0-0.7,0c-0.7,0-1,0.6-0.7,1.2
				c0.1,0.1,0.1,0.2,0.2,0.4c0.5,1.1,0.9,2.1,1.3,3.2c0.1,0.2,0.1,0.3,0.2,0.4c0.3,0.9-0.3,1-0.4,1.1c-2.5,0.8-4.6,2.3-6.2,4.4
				c-0.7,1-1.3,2.1-1.6,3.3c-0.3,1.1-0.3,2.2-0.2,3.3c0.1,0.8,0.3,1.5,0.7,2.2c0.6,1,1.5,1.6,2.5,2c1.1,0.4,2.3,0.7,3.5,0.8
				c1.5,0.1,3,0.2,4.4,0.2c1.5-0.1,2.9-0.1,4.2-0.2c1.3-0.1,2.5-0.3,3.8-0.8c1.5-0.6,2.6-1.5,3-3.1
				C107.6,678.7,107.7,677.8,107.6,676.8z"/>
			<path d="M96.2,683.9L96.2,683.9c-0.4,0-0.8,0-1.2-0.1c-1,0-2.1-0.1-3.1-0.2c-1.3-0.1-2.5-0.4-3.6-0.8c-1.2-0.5-2.1-1.2-2.7-2.2
				c-0.4-0.7-0.6-1.4-0.7-2.3c-0.2-1.3-0.1-2.4,0.2-3.5c0.3-1.2,0.9-2.4,1.7-3.4c1.7-2.2,3.8-3.8,6.3-4.6c0.1,0,0.2-0.1,0.2-0.1
				c0-0.1,0-0.2,0-0.5c-0.1-0.1-0.2-0.3-0.2-0.4c-0.3-0.8-0.7-1.6-1-2.4c-0.1-0.3-0.2-0.5-0.3-0.8c0-0.1-0.1-0.2-0.1-0.2
				s0-0.1-0.1-0.1c-0.2-0.4-0.2-0.8,0-1.2c0.2-0.3,0.5-0.5,1-0.5c0.1,0,0.3,0,0.4,0s0.2,0,0.3,0h0.1c0.3,0,0.6,0,0.9,0
				c0.4,0,0.6-0.2,0.7-0.6c0.1-0.3,0.3-0.6,0.5-0.8c0.3-0.4,0.7-0.6,1.1-0.6l0,0c0.4,0,0.9,0.2,1.2,0.6c0.1,0.2,0.2,0.4,0.3,0.5v0.1
				c0,0.1,0.1,0.2,0.1,0.2s0,0.1,0.1,0.1c0.1,0.2,0.2,0.3,0.4,0.2c0.1,0,0.2-0.1,0.3-0.2c0.1,0,0.1-0.1,0.2-0.1
				c0.5-0.2,0.9-0.3,1.3-0.3c0.5,0.1,0.9,0.5,0.8,1c0,0.3-0.1,0.6-0.2,0.8c-0.5,1-0.8,1.9-1,2.8c0,0.3-0.1,0.7-0.1,1
				c0,0.1,0,0.1,0,0.2c-0.1,1.2,0.8,1.6,1.2,1.9h0.1c1.7,0.8,3.1,1.9,4.2,3.3c1.5,1.9,2.3,3.8,2.3,6l0,0c0,1-0.1,2-0.4,2.8
				c-0.5,1.6-1.5,2.6-3.2,3.3c-1.1,0.4-2.4,0.7-3.9,0.8c-1,0.1-1.9,0.1-2.9,0.2C97.2,683.9,96.7,683.9,96.2,683.9L96.2,683.9z
				 M92.5,661.4L92.5,661.4c-0.3,0-0.5,0.1-0.5,0.2c-0.1,0.1-0.1,0.3,0,0.5c0,0,0,0.1,0.1,0.1c0,0.1,0.1,0.2,0.1,0.3
				c0.1,0.3,0.2,0.5,0.3,0.8c0.3,0.8,0.7,1.6,1,2.4c0,0.1,0.1,0.2,0.2,0.3l0,0v0.1c0.1,0.4,0.1,0.8,0,1s-0.3,0.4-0.6,0.5
				c-2.4,0.7-4.4,2.2-6,4.3c-0.7,1-1.2,2-1.5,3.2c-0.2,1-0.3,2-0.2,3.2c0.1,0.8,0.3,1.5,0.7,2c0.5,0.8,1.2,1.5,2.4,1.9
				c1,0.4,2.1,0.6,3.4,0.7c1,0.1,2.1,0.1,3.1,0.2c0.4,0,0.8,0,1.2,0.1c0.5,0,0.9,0,1.4-0.1c1,0,1.9-0.1,2.9-0.2
				c1.4-0.1,2.6-0.3,3.7-0.7c1.5-0.6,2.4-1.5,2.8-2.8c0.2-0.8,0.3-1.6,0.3-2.6l0,0c0-2-0.7-3.8-2.2-5.6c-1.1-1.4-2.4-2.4-4-3.1
				c0,0,0,0-0.1,0l0,0c-0.5-0.2-1.7-0.9-1.6-2.5v-0.1c0-0.4,0-0.7,0.1-1.1c0.2-1,0.5-2,1-3c0.1-0.2,0.1-0.3,0.1-0.5
				c0-0.1,0-0.2-0.2-0.3c-0.3,0-0.6,0-0.9,0.2c0,0-0.1,0.1-0.2,0.1c-0.1,0.1-0.3,0.2-0.4,0.2c-0.6,0.2-1,0.1-1.3-0.5
				c0-0.1,0-0.1-0.1-0.2c0-0.1,0-0.1-0.1-0.2v-0.1c-0.1-0.2-0.2-0.3-0.2-0.4c-0.2-0.2-0.4-0.3-0.6-0.3s-0.5,0.1-0.6,0.3
				s-0.2,0.4-0.3,0.6c-0.2,0.6-0.7,1-1.3,1.1c-0.3,0-0.6,0-1,0.1h-0.1c-0.1,0-0.2,0-0.4,0C92.7,661.4,92.6,661.4,92.5,661.4z"/>
		</g>
		<path opacity="0.51" fill="#A7A9AC" enable-background="new    " d="M94.1,666.5c0,0-1.3-3-1.5-3.6s-0.8-1.4-0.4-1.5
			c0.3-0.1,1.2,0,1.7,0s1.2-0.1,1.4-0.4c0.2-0.3,0.6-1.3,1,0c0.5,1.3,0.3,2.7,0.5,3.8s0.4,2,0.4,2s-1.1-0.9-1.5-1.8
			c-0.4-0.8-1.9-2.5-1.5-0.7c0.3,1.8,1.9,2.5,1.9,2.5S94.6,666.8,94.1,666.5z"/>
		
			<linearGradient id="SVGID_22_" gradientUnits="userSpaceOnUse" x1="374.6656" y1="-2164.9417" x2="473.911" y2="-2164.9417" gradientTransform="matrix(0.227 0 0 -0.227 5.654908e-02 179.7833)">
			<stop  offset="0" style="stop-color:#39B54A;stop-opacity:0"/>
			<stop  offset="1.641512e-02" style="stop-color:#3DB649;stop-opacity:1.641512e-02"/>
			<stop  offset="0.5039" style="stop-color:#A4DD22;stop-opacity:0.5039"/>
			<stop  offset="0.8417" style="stop-color:#E6F609;stop-opacity:0.8417"/>
			<stop  offset="1" style="stop-color:#FFFF00"/>
		</linearGradient>
		<path opacity="0.4" fill="url(#SVGID_22_)" enable-background="new    " d="M107.6,676.8c0-2.2-0.9-4.1-2.2-5.8
			c-1.1-1.4-2.5-2.5-4.1-3.2c0,0,0,0-0.1,0c-0.5-0.2-1.5-0.7-1.5-2.2l0,0v-0.1c0-0.4,0-0.7,0.1-1.1c0.2-1,0.5-2,1-2.9
			c0.1-0.2,0.2-0.4,0.2-0.7c0-0.4-0.2-0.6-0.5-0.6c-0.4,0-0.8,0.1-1.1,0.2c-0.2,0.1-0.4,0.2-0.5,0.3c-0.4,0.2-0.7,0.1-0.9-0.3
			c-0.1-0.1-0.1-0.2-0.2-0.4s-0.2-0.4-0.3-0.6c-0.5-0.6-1.3-0.6-1.8,0c-0.2,0.2-0.3,0.5-0.4,0.7c-0.2,0.5-0.5,0.8-1,0.8
			c-0.3,0-0.7,0-1.1,0.1c-0.2,0-0.5,0-0.7,0c-0.7,0-1,0.6-0.7,1.2c0.1,0.1,0.1,0.2,0.2,0.4c0.5,1.1,0.9,2.1,1.3,3.2
			c0.1,0.2,0.1,0.3,0.2,0.4c0.3,0.9-0.3,1-0.4,1.1c-2.5,0.8-4.6,2.3-6.2,4.4c-0.7,1-1.3,2.1-1.6,3.3c-0.3,1.1-0.3,2.2-0.2,3.3
			c0.1,0.8,0.3,1.5,0.7,2.2c0.6,1,1.5,1.6,2.5,2c1.1,0.4,2.3,0.7,3.5,0.8c1.5,0.1,3,0.2,4.4,0.2c1.5-0.1,2.9-0.1,4.2-0.2
			c1.3-0.1,2.5-0.3,3.8-0.8c1.5-0.6,2.6-1.5,3-3.1C107.6,678.7,107.7,677.8,107.6,676.8z"/>
		<path opacity="0.51" fill="#A7A9AC" enable-background="new    " d="M96.8,668.3c0,0-2.6,1.1-3.9,2.4c-1.3,1.3-2.5,2.9-2.1,5.4
			c0.5,2.5,1.8,4.6,3.8,5.2c2,0.7,7.7,1.5,3.7,1.6c-4.1,0.2-4.9,0.5-9.3-0.7c-4.4-1.1-3.3-6.9-3.3-6.9s1-3.4,3.5-5.5
			s4.5-2.5,4.5-2.5S95.5,668.3,96.8,668.3z"/>
		<g>
			<path fill="#FFFFFF" d="M95.9,679.1v-0.9c-1.2-0.2-2-0.8-2-2.2h1.3c0,0.4,0.2,1,0.7,1.1v-2.2c-1.4-0.6-1.9-1.2-1.9-2.1
				c0-1,0.8-1.7,1.9-1.8v-0.5h0.7v0.5c1.3,0.1,2,0.9,2,1.9h-1.3c-0.1-0.5-0.3-0.8-0.7-0.9v1.7c1.4,0.5,2.3,1.1,2.3,2.4
				c0,1.2-0.9,2-2.3,2v0.9L95.9,679.1L95.9,679.1z M95.9,672.1c-0.4,0.1-0.6,0.3-0.6,0.6s0.1,0.5,0.6,0.8V672.1z M97.7,676.3
				c0-0.5-0.4-0.8-1-1.1v2C97.3,677.2,97.7,676.8,97.7,676.3z"/>
		</g>
		<path d="M93.7,666c0,0,0.1,0.4,1.8,0.7c1.7,0.3,3.9-0.7,3.9-0.7s0.3-0.2,0.7-0.1c0.4,0.1,0.8,0.6,0.4,1s-1.1,1-2,1.1
			c-0.8,0.2-2.9-0.1-4.2-0.5c-1.3-0.4-1.7-0.8-1.7-1.1C92.7,666.1,93.3,665.7,93.7,666z"/>
	</g>
</g>
</svg>
