<?xml version="1.0" encoding="utf-8"?>
<!-- Generator: Adobe Illustrator 18.0.0, SVG Export Plug-In . SVG Version: 6.00 Build 0)  -->
<!DOCTYPE svg PUBLIC "-//W3C//DTD SVG 1.1//EN" "http://www.w3.org/Graphics/SVG/1.1/DTD/svg11.dtd">
<svg version="1.1" id="Layer_1" xmlns="http://www.w3.org/2000/svg" xmlns:xlink="http://www.w3.org/1999/xlink" x="0px" y="0px"
	 width="253.3px" height="76.7px" viewBox="11 685.3 253.3 76.7" enable-background="new 11 685.3 253.3 76.7" xml:space="preserve"
	>
<g id="Layer_1_1_">
	<g>
		<g>
			<path fill="#EC1C24" d="M105,738.6c0,0,7.5-2.5,11.7,3.8c0,0,3.5,5.4,1,10.8c0,0.1,0,0.1-0.1,0.2c-2.6,5.4-10,3.5-10.6,2.9
				c0,0-3-1.3-3.2-4.4c0,0-1.2-4.2,2-6.4c0,0,3-2.9,6.3,0.3c0,0,1.9,2,1,4.8c0,0-1.3,3.8-4.5,2.4c0,0-3.4-1.5-2.2-3.4
				c0,0,0.5-0.2,0.8,0.9c0,0,0.5,1.5,3.2,1.2c0,0,2.3-0.5,1.4-3.6c0,0-1.3-3.7-5.2-1.6c0,0-3.1,2.7-0.6,6.6c0,0,1.4,3,6.4,2
				c0,0,3.1-0.9,3.5-5.4c0,0,0.6-5.6-4.6-7.9c0,0-3.1-1.3-6.4,0.4c0,0-4.1,3.1-4.5,6.7c0,0-0.1,4.9,2,7.8c0,0,0.2,1.1-0.8,0.2
				c0,0-3.5-5.3-1.8-9.1c0,0,1.6-4.7,4.1-5.9c0,0,0.4-0.4-0.2-0.2l-2.9,2.7c0,0-1,1-0.6,0c0,0,2-3.2,3.7-3.6c0,0,3.5-1.7,6.7-0.6
				c0,0,3.2,0.4,5.4,4.2c0,0,1.8,3.6,0.9,5.4c0,0-0.3,1.8,0.5,0.2c0,0,0.5-3.9-1.4-6.4c0,0-3.5-4.2-6.1-4.4c0,0-2.9-0.6-4.8,0
				C105.3,739.1,104.1,739.2,105,738.6"/>
			<path fill="#EC1C24" d="M104,744.8c0,0,1-0.8,0.5,0.2c0,0-3.2,2.5-2.3,6.9c0,0,1.2,5.2,6.3,5.6c0,0,0.7,0.2-0.1,0.4l-1.7-0.2
				c0,0,0.7,1,4.9,0.1c0,0,1.1,0.8-2.6,1c0,0-4.1,0.4-6.5-4.1C102.4,754.8,99.1,748.9,104,744.8"/>
			<path fill="#ED2526" d="M111,748.8c0,1-0.9,1.8-1.9,1.8s-1.8-0.9-1.8-1.9s0.9-1.8,1.9-1.8C110.2,747,111,747.8,111,748.8"/>
		</g>
		<g>
			<path fill="#EC1C24" d="M136.5,749c0,0.6,0,1.3,0.8,1.3s0.8-0.6,0.8-1.3c0-0.6,0-1.3-0.8-1.3S136.5,748.4,136.5,749 M135.7,745.2
				h0.8v2.1c0.3-0.3,0.6-0.5,1.1-0.5s0.9,0.2,1.1,0.5c0.2,0.3,0.3,0.6,0.3,1.6s-0.1,1.3-0.3,1.6s-0.6,0.5-1.1,0.5
				c-0.4,0-0.8-0.2-1.1-0.5v0.4h-0.8V745.2z"/>
			<path fill="#EC1C24" d="M141.9,748.6c0-0.6-0.4-1-0.9-1s-0.9,0.3-0.9,1H141.9z M140.2,749.3c0,0.7,0.4,1,1,1
				c0.3,0,0.7-0.1,0.9-0.4l0.6,0.5c-0.4,0.5-0.9,0.7-1.5,0.7c-0.8,0-1.8-0.4-1.8-2.1c0-1.6,0.9-2.1,1.7-2.1c0.9,0,1.7,0.7,1.7,1.7
				v0.7L140.2,749.3L140.2,749.3z"/>
			<path fill="#EC1C24" d="M143.3,747h0.8v0.4l0,0c0.2-0.3,0.6-0.5,1.1-0.5c0.3,0,0.6,0.1,0.9,0.3l-0.6,0.7
				c-0.2-0.1-0.3-0.2-0.5-0.2c-0.4,0-0.8,0.2-0.8,0.9v2.5h-0.8L143.3,747L143.3,747z"/>
			<path fill="#EC1C24" d="M148.8,748.5v1.7h1.3c0.7,0,0.9-0.4,0.9-0.9s-0.3-0.9-0.9-0.9L148.8,748.5L148.8,748.5z M148.8,746.1v1.7
				h1.3c0.6,0,0.9-0.4,0.9-0.8s-0.3-0.8-0.9-0.8L148.8,746.1L148.8,746.1z M148,745.3h2.2c1.1,0,1.7,0.6,1.7,1.5
				c0,0.5-0.2,0.9-0.9,1.2l0,0c0.6,0.1,0.9,0.7,0.9,1.3c0,1-0.7,1.6-1.6,1.6h-2.4L148,745.3L148,745.3z"/>
			<path fill="#EC1C24" d="M155,748.6c0-0.6-0.4-1-0.9-1s-0.9,0.3-0.9,1H155z M153.3,749.3c0,0.7,0.4,1,1,1c0.3,0,0.7-0.1,0.9-0.4
				l0.6,0.5c-0.4,0.5-0.9,0.7-1.5,0.7c-0.8,0-1.8-0.4-1.8-2.1c0-1.6,0.9-2.1,1.7-2.1c0.9,0,1.7,0.7,1.7,1.7v0.7L153.3,749.3
				L153.3,749.3z"/>
			<path fill="#EC1C24" d="M158.7,749.3h-1c-0.5,0-0.7,0.2-0.7,0.5s0.2,0.5,0.8,0.5c0.7,0,0.9-0.1,0.9-0.7V749.3z M158.7,750.7
				L158.7,750.7c-0.2,0.3-0.5,0.4-1,0.4c-0.9,0-1.5-0.5-1.5-1.2s0.5-1.2,1.3-1.2h1.1v-0.4c0-0.4-0.2-0.5-0.8-0.5
				c-0.4,0-0.6,0.1-0.8,0.3l-0.7-0.5c0.3-0.4,0.8-0.6,1.4-0.6c1,0,1.7,0.3,1.7,1.4v2.8h-0.8L158.7,750.7L158.7,750.7z"/>
			<path fill="#EC1C24" d="M160.8,749c0,0.6,0,1.3,0.8,1.3s0.8-0.7,0.8-1.3s0-1.3-0.8-1.3S160.8,748.3,160.8,749 M162.4,750.6
				c-0.2,0.3-0.6,0.5-1.1,0.5s-0.9-0.2-1.1-0.5c-0.2-0.3-0.3-0.6-0.3-1.6s0.1-1.3,0.3-1.6s0.6-0.5,1.1-0.5c0.4,0,0.7,0.2,1.1,0.5
				v-2.1h0.8v5.8h-0.8V750.6z"/>
			<path fill="#EC1C24" d="M164.2,749.7c0.4,0.3,0.7,0.5,1.3,0.5c0.5,0,0.8-0.2,0.8-0.5s-0.2-0.4-0.5-0.4l-0.7-0.1
				c-0.7-0.1-1.2-0.5-1.2-1.2c0-0.8,0.7-1.3,1.5-1.3c0.7,0,1.2,0.2,1.6,0.6l-0.5,0.6c-0.3-0.2-0.7-0.4-1.1-0.4
				c-0.5,0-0.7,0.2-0.7,0.5c0,0.2,0.1,0.4,0.5,0.4h0.7c0.9,0.1,1.2,0.6,1.2,1.2c0,0.8-0.7,1.3-1.7,1.3c-0.7,0-1.3-0.2-1.8-0.7
				L164.2,749.7z"/>
			<path fill="#EC1C24" d="M168.1,747.4h0.2c0.2,0,0.4,0,0.4-0.2s-0.2-0.2-0.3-0.2h-0.2L168.1,747.4L168.1,747.4z M167.8,746.8h0.5
				c0.3,0,0.5,0.1,0.5,0.4c0,0.3-0.2,0.4-0.3,0.4l0.4,0.5h-0.3l-0.4-0.5h-0.1v0.5h-0.2L167.8,746.8L167.8,746.8z M168.3,748.4
				c0.5,0,0.9-0.4,0.9-0.9s-0.4-0.9-0.9-0.9s-0.9,0.4-0.9,0.9C167.4,748,167.7,748.4,168.3,748.4 M168.3,746.3
				c0.6,0,1.2,0.5,1.2,1.2s-0.5,1.2-1.2,1.2s-1.2-0.5-1.2-1.2S167.6,746.3,168.3,746.3"/>
			<path fill="#EC1C24" d="M123.6,747h0.8v0.4l0,0c0.2-0.3,0.6-0.5,1.1-0.5c0.6,0,0.9,0.2,1.2,0.5c0.3-0.4,0.7-0.5,1.3-0.5
				s1.4,0.5,1.4,1.4v2.7h-0.8v-2.5c0-0.6-0.3-0.9-0.8-0.9s-0.8,0.3-0.8,0.9v2.5h-0.8v-2.5c0-0.6-0.3-0.9-0.8-0.9s-0.8,0.3-0.8,0.9
				v2.5h-0.8L123.6,747L123.6,747z"/>
			<path fill="#EC1C24" d="M131,749c0,0.6,0,1.3,0.8,1.3s0.8-0.6,0.8-1.3c0-0.6,0-1.3-0.8-1.3S131,748.4,131,749 M130.2,745.2h0.8
				v2.1c0.3-0.3,0.6-0.5,1.1-0.5s0.9,0.2,1.1,0.5c0.2,0.3,0.3,0.6,0.3,1.6s-0.1,1.3-0.3,1.6s-0.6,0.5-1.1,0.5
				c-0.4,0-0.8-0.2-1.1-0.5v0.4h-0.8V745.2z"/>
			<rect x="122.1" y="745.3" fill="#EC1C24" width="0.9" height="5.8"/>
			<path fill="#EC1C24" d="M134.1,747h0.8v4.1h-0.8V747z M134.1,745.3h0.8v0.8h-0.8V745.3z"/>
		</g>
	</g>
	<g>
		<g>
			<path d="M129.8,736.2v3.1c0,0.5-0.1,0.9-0.4,1.1c-0.3,0.2-0.7,0.4-1.1,0.4c-0.5,0-0.8-0.1-1.1-0.4c-0.3-0.3-0.4-0.6-0.4-1.1v-3.1
				h0.9v3.1c0,0.3,0.1,0.5,0.2,0.6s0.3,0.2,0.5,0.2s0.4-0.1,0.5-0.2c0.1-0.1,0.2-0.3,0.2-0.6v-3.1H129.8L129.8,736.2z"/>
			<path d="M132.4,739.5c0-0.2,0-0.3-0.1-0.4c-0.1-0.1-0.2-0.2-0.5-0.3c-0.5-0.2-0.8-0.3-1.1-0.6c-0.2-0.2-0.4-0.5-0.4-0.9
				s0.1-0.7,0.4-0.9s0.6-0.3,1-0.3s0.8,0.1,1,0.4c0.3,0.2,0.4,0.6,0.4,1l0,0h-0.9c0-0.2,0-0.4-0.2-0.5c-0.1-0.1-0.2-0.2-0.4-0.2
				s-0.3,0-0.4,0.2c-0.1,0.1-0.1,0.2-0.1,0.4s0,0.3,0.2,0.4c0.1,0.1,0.3,0.2,0.6,0.3c0.4,0.1,0.7,0.3,1,0.5c0.2,0.2,0.3,0.5,0.3,0.9
				s-0.1,0.7-0.4,0.9c-0.2,0.2-0.6,0.3-1,0.3s-0.8-0.1-1.1-0.4c-0.3-0.2-0.5-0.6-0.5-1.1l0,0h0.9c0,0.3,0.1,0.5,0.2,0.6
				c0.1,0.1,0.3,0.2,0.5,0.2s0.3,0,0.4-0.2C132.4,739.8,132.4,739.7,132.4,739.5z"/>
			<path d="M134.8,740.7h-0.9v-4.5h0.9V740.7z"/>
			<path d="M138.7,740.7h-0.9l-1.4-2.9l0,0v2.9h-0.9v-4.5h0.9l1.4,2.9l0,0v-2.9h0.9V740.7L138.7,740.7z"/>
			<path d="M142.3,740c-0.1,0.2-0.3,0.4-0.5,0.5c-0.2,0.2-0.5,0.2-0.9,0.2c-0.5,0-0.9-0.1-1.2-0.4c-0.3-0.3-0.4-0.7-0.4-1.2v-1.4
				c0-0.5,0.1-0.9,0.4-1.2s0.7-0.4,1.1-0.4c0.5,0,0.9,0.1,1.1,0.4c0.2,0.2,0.4,0.6,0.4,1l0,0h-0.8c0-0.2-0.1-0.4-0.2-0.6
				c-0.1-0.1-0.3-0.2-0.5-0.2s-0.4,0.1-0.5,0.2c-0.1,0.2-0.2,0.4-0.2,0.7v1.4c0,0.3,0.1,0.5,0.2,0.7c0.1,0.2,0.3,0.2,0.5,0.2
				s0.3,0,0.4-0.1c0.1,0,0.2-0.1,0.2-0.2v-0.8h-0.6v-0.6h1.5V740L142.3,740z"/>
		</g>
	</g>
	<g>
		<line fill="none" stroke="#000000" stroke-width="2" stroke-miterlimit="10" x1="15.2" y1="730.2" x2="259.9" y2="730.2"/>
		<line fill="none" stroke="#000000" stroke-width="5" stroke-miterlimit="10" x1="15.2" y1="728.3" x2="259.9" y2="728.3"/>
	</g>
	<g>
		<g>
			<polygon fill="#FFFFFF" points="65.6,737.6 71.3,729.3 65.6,721 87.6,721 87.6,737.6 			"/>
			<path d="M87,721.6v15.5H66.6l5.4-7.7l-5.4-7.7L87,721.6 M88.2,720.5H87H66.6h-2.2l1.2,1.8l4.9,7.1l-4.9,7.1l-1.2,1.8h2.2H87h1.1
				v-1.1v-15.5L88.2,720.5L88.2,720.5z"/>
		</g>
		<g>
			<polygon fill="#FFFFFF" points="184.3,737.6 184.3,721 206.3,721 200.5,729.3 206.3,737.6 			"/>
			<path d="M205.2,721.6l-5.4,7.7l5.4,7.7h-20.4v-15.5L205.2,721.6 M207.4,720.5h-2.2h-20.4h-1.1v1.1v15.5v1.1h1.1h20.4h2.2
				l-1.2-1.8l-4.9-7.1l4.9-7.1L207.4,720.5L207.4,720.5z"/>
		</g>
		<g>
			<rect x="77" y="716.2" fill="#FFFFFF" width="118.6" height="17.7"/>
			<path d="M195,716.8v16.5H77.6v-16.5H195 M196.2,715.7H195H77.6h-1.1v1.1v16.5v1.1h1.1H195h1.1v-1.1v-16.5L196.2,715.7
				L196.2,715.7z"/>
		</g>
		<g>
			<g>
				<path fill="#666666" d="M89.6,726.4c0,0.9-0.2,1.6-0.7,2.1s-1.1,0.7-1.9,0.7s-1.5-0.2-1.9-0.7s-0.7-1.2-0.7-2.1v-2.1
					c0-0.9,0.2-1.6,0.7-2.1s1.1-0.7,1.9-0.7s1.4,0.2,1.9,0.7s0.7,1.2,0.7,2.1V726.4L89.6,726.4z M88.2,724.2c0-0.5-0.1-1-0.3-1.2
					c-0.2-0.3-0.5-0.4-0.9-0.4s-0.7,0.1-0.9,0.4s-0.3,0.7-0.3,1.2v2.1c0,0.5,0.1,1,0.3,1.2s0.5,0.4,0.9,0.4s0.7-0.1,0.9-0.4
					c0.2-0.3,0.3-0.7,0.3-1.2V724.2z"/>
				<path fill="#666666" d="M92.8,727.2l0.1,0.3l0,0l0.1-0.3l1.3-5.7h1.6l-2.1,7.6h-1.5l-2.1-7.6h1.6L92.8,727.2z"/>
				<path fill="#666666" d="M100.4,725.8h-2.5v2.2h3v1.2h-4.5v-7.6h4.5v1.2h-3v1.9h2.5V725.8L100.4,725.8z"/>
				<path fill="#666666" d="M103.1,726.1v3h-1.5v-7.6h2.5c0.7,0,1.3,0.2,1.7,0.6c0.4,0.4,0.6,0.9,0.6,1.6c0,0.4-0.1,0.7-0.3,1
					c-0.2,0.3-0.4,0.5-0.8,0.7c0.4,0.1,0.7,0.3,0.8,0.7c0.2,0.3,0.2,0.7,0.2,1.1v0.5c0,0.2,0,0.4,0.1,0.7c0,0.2,0.1,0.4,0.2,0.5v0.1
					h-1.5c-0.1-0.1-0.2-0.3-0.2-0.5s0-0.5,0-0.8v-0.5c0-0.4-0.1-0.7-0.2-0.9s-0.4-0.3-0.7-0.3L103.1,726.1L103.1,726.1z
					 M103.1,724.9h1c0.3,0,0.5-0.1,0.7-0.3s0.2-0.5,0.2-0.8s-0.1-0.6-0.2-0.8c-0.2-0.2-0.4-0.3-0.7-0.3h-1V724.9z"/>
				<path fill="#666666" d="M111.1,727.5h-2l-0.4,1.6h-1.5l2.1-7.6h1.5l2.1,7.6h-1.5L111.1,727.5z M109.4,726.3h1.4l-0.7-2.7l0,0
					L109.4,726.3z"/>
				<path fill="#666666" d="M115.1,727.9h2.8v1.2h-4.2v-7.6h1.5C115.1,721.5,115.1,727.9,115.1,727.9z"/>
				<path fill="#666666" d="M120.1,727.9h2.8v1.2h-4.2v-7.6h1.5v6.4L120.1,727.9L120.1,727.9z"/>
				<path fill="#666666" d="M130.7,726.6L130.7,726.6c0,0.9-0.2,1.5-0.6,1.9c-0.4,0.4-1,0.6-1.8,0.6s-1.4-0.2-1.9-0.7
					s-0.7-1.2-0.7-2v-2.3c0-0.9,0.2-1.6,0.7-2c0.5-0.5,1.1-0.7,1.8-0.7c0.8,0,1.4,0.2,1.8,0.6c0.4,0.4,0.6,1.1,0.6,1.9l0,0h-1.4
					c0-0.5,0-0.9-0.2-1.1c-0.2-0.2-0.4-0.3-0.8-0.3c-0.3,0-0.6,0.1-0.8,0.4c-0.2,0.2-0.3,0.7-0.3,1.2v2.3c0,0.5,0.1,0.9,0.3,1.2
					c0.2,0.2,0.5,0.4,0.8,0.4c0.4,0,0.6-0.1,0.7-0.3c0.1-0.2,0.2-0.6,0.2-1.1L130.7,726.6L130.7,726.6z"/>
				<path fill="#666666" d="M136.7,726.4c0,0.9-0.2,1.6-0.7,2.1s-1.1,0.7-1.9,0.7s-1.5-0.2-1.9-0.7c-0.5-0.5-0.7-1.2-0.7-2.1v-2.1
					c0-0.9,0.2-1.6,0.7-2.1s1.1-0.7,1.9-0.7c0.8,0,1.4,0.2,1.9,0.7s0.7,1.2,0.7,2.1V726.4L136.7,726.4z M135.2,724.2
					c0-0.5-0.1-1-0.3-1.2c-0.2-0.3-0.5-0.4-0.9-0.4s-0.7,0.1-0.9,0.4c-0.2,0.3-0.3,0.7-0.3,1.2v2.1c0,0.5,0.1,1,0.3,1.2
					c0.2,0.3,0.5,0.4,0.9,0.4s0.7-0.1,0.9-0.4s0.3-0.7,0.3-1.2V724.2z"/>
				<path fill="#666666" d="M141,727.1c0-0.3-0.1-0.5-0.2-0.7c-0.2-0.2-0.4-0.3-0.8-0.5c-0.8-0.3-1.4-0.6-1.8-0.9
					c-0.4-0.3-0.6-0.8-0.6-1.5c0-0.6,0.2-1.1,0.7-1.5s1-0.6,1.7-0.6s1.3,0.2,1.8,0.7c0.5,0.4,0.7,1,0.7,1.7l0,0h-1.4
					c0-0.3-0.1-0.6-0.2-0.8c-0.2-0.2-0.4-0.3-0.7-0.3s-0.5,0.1-0.7,0.3s-0.2,0.4-0.2,0.7c0,0.2,0.1,0.5,0.3,0.6
					c0.2,0.2,0.5,0.3,1,0.5c0.7,0.2,1.2,0.5,1.6,0.9c0.4,0.4,0.5,0.9,0.5,1.5c0,0.7-0.2,1.2-0.7,1.5s-1,0.6-1.7,0.6
					s-1.3-0.2-1.9-0.6c-0.5-0.4-0.8-1-0.8-1.8l0,0h1.5c0,0.5,0.1,0.8,0.3,1s0.5,0.3,0.9,0.3c0.3,0,0.5-0.1,0.7-0.2
					C141,727.6,141,727.4,141,727.1z"/>
				<path fill="#666666" d="M147.9,722.7h-1.7v6.4h-1.5v-6.4H143v-1.2h4.9V722.7L147.9,722.7z"/>
				<path fill="#666666" d="M154.3,727.1c0-0.3-0.1-0.5-0.2-0.7c-0.2-0.2-0.4-0.3-0.8-0.5c-0.8-0.3-1.4-0.6-1.8-0.9
					c-0.4-0.3-0.6-0.8-0.6-1.5c0-0.6,0.2-1.1,0.7-1.5s1-0.6,1.7-0.6s1.3,0.2,1.8,0.7c0.5,0.4,0.7,1,0.7,1.7l0,0h-1.4
					c0-0.3-0.1-0.6-0.2-0.8c-0.2-0.2-0.4-0.3-0.7-0.3s-0.5,0.1-0.7,0.3s-0.2,0.4-0.2,0.7c0,0.2,0.1,0.5,0.3,0.6
					c0.2,0.2,0.5,0.3,1,0.5c0.7,0.2,1.2,0.5,1.6,0.9c0.4,0.4,0.5,0.9,0.5,1.5c0,0.7-0.2,1.2-0.7,1.5s-1,0.6-1.7,0.6
					s-1.3-0.2-1.9-0.6c-0.5-0.4-0.8-1-0.8-1.8l0,0h1.5c0,0.5,0.1,0.8,0.3,1s0.5,0.3,0.9,0.3c0.3,0,0.5-0.1,0.7-0.2
					C154.2,727.6,154.3,727.4,154.3,727.1z"/>
				<path fill="#666666" d="M160.1,727.5h-2l-0.4,1.6h-1.5l2.1-7.6h1.5l2.1,7.6h-1.5L160.1,727.5z M158.4,726.3h1.4l-0.7-2.7l0,0
					L158.4,726.3z"/>
				<path fill="#666666" d="M164.5,727.2l0.1,0.3l0,0l0.1-0.3l1.3-5.7h1.6l-2.1,7.6H164l-2.1-7.6h1.6L164.5,727.2z"/>
				<path fill="#666666" d="M169.6,729.1h-1.5v-7.6h1.5V729.1z"/>
				<path fill="#666666" d="M176.2,729.1h-1.5l-2.3-4.9l0,0v4.8h-1.5v-7.6h1.5l2.3,4.8l0,0v-4.8h1.5V729.1z"/>
				<path fill="#666666" d="M182.3,728c-0.2,0.3-0.5,0.6-0.9,0.9c-0.4,0.2-0.9,0.4-1.6,0.4c-0.8,0-1.5-0.2-2-0.7s-0.7-1.2-0.7-2
					v-2.3c0-0.9,0.2-1.5,0.7-2s1.1-0.7,1.9-0.7c0.8,0,1.5,0.2,1.9,0.6c0.4,0.4,0.6,1,0.7,1.8l0,0h-1.4c0-0.4-0.1-0.7-0.3-0.9
					s-0.5-0.3-0.8-0.3s-0.6,0.1-0.8,0.4c-0.2,0.2-0.3,0.6-0.3,1.2v2.3c0,0.5,0.1,0.9,0.3,1.2c0.2,0.2,0.5,0.4,0.9,0.4
					c0.3,0,0.5,0,0.7-0.1c0.1-0.1,0.2-0.2,0.3-0.4v-1.4h-1v-1h2.5L182.3,728L182.3,728z"/>
				<path fill="#666666" d="M186.8,727.1c0-0.3-0.1-0.5-0.2-0.7c-0.2-0.2-0.4-0.3-0.8-0.5c-0.8-0.3-1.4-0.6-1.8-0.9
					c-0.4-0.3-0.6-0.8-0.6-1.5c0-0.6,0.2-1.1,0.7-1.5s1-0.6,1.7-0.6s1.3,0.2,1.8,0.7s0.7,1,0.7,1.7l0,0h-1.4c0-0.3-0.1-0.6-0.2-0.8
					c-0.2-0.2-0.4-0.3-0.7-0.3s-0.5,0.1-0.7,0.3s-0.2,0.4-0.2,0.7c0,0.2,0.1,0.5,0.3,0.6c0.2,0.2,0.5,0.3,1,0.5
					c0.7,0.2,1.2,0.5,1.6,0.9c0.4,0.4,0.5,0.9,0.5,1.5c0,0.7-0.2,1.2-0.7,1.5s-1,0.6-1.7,0.6s-1.3-0.2-1.9-0.6
					c-0.5-0.4-0.8-1-0.8-1.8l0,0h1.5c0,0.5,0.1,0.8,0.3,1s0.5,0.3,0.9,0.3c0.3,0,0.5-0.1,0.7-0.2
					C186.7,727.6,186.8,727.4,186.8,727.1z"/>
			</g>
		</g>
	</g>
</g>
<g>
	<g id="percent_shdaow" opacity="0.53">
		<g>
			<path fill="#666666" d="M90.5,715.7H77.1v-3l6.2-7.9c0.8-1.2,1.4-2.2,1.8-3c0.4-0.9,0.5-1.7,0.5-2.4c0-1-0.2-1.7-0.6-2.3
				s-0.9-0.9-1.6-0.9s-1.3,0.4-1.7,1.1c-0.4,0.7-0.6,1.7-0.6,2.8h-4.3V700c0-2.1,0.5-3.8,1.7-5.2s2.8-2.1,4.9-2.1s3.7,0.6,4.9,1.8
				c1.2,1.2,1.7,2.8,1.7,4.9c0,1.4-0.3,2.7-1,3.9s-1.7,2.7-3.2,4.7l-3,4.2h7.7V715.7z"/>
			<path fill="#666666" d="M93.4,705.7l1.1-12.7h11.1v3.6h-7.5l-0.5,5.4c0.3-0.3,0.7-0.6,1.2-0.8s1-0.3,1.5-0.3c1.9,0,3.3,0.6,4.4,2
				c1,1.3,1.5,3.2,1.5,5.6c0,2.2-0.6,4-1.7,5.4c-1.2,1.5-2.8,2.2-4.9,2.2c-1.8,0-3.4-0.6-4.7-1.7c-1.3-1.2-2-2.7-1.9-4.7v-0.1
				l4.3-0.2c0,1,0.2,1.8,0.6,2.4c0.4,0.6,1,0.8,1.6,0.8c0.8,0,1.3-0.4,1.7-1.1c0.4-0.7,0.5-1.7,0.5-2.9c0-1.3-0.2-2.4-0.6-3.2
				s-1-1.2-1.8-1.2c-0.6,0-1.1,0.2-1.4,0.5s-0.6,0.8-0.7,1.3L93.4,705.7z"/>
			<path fill="#666666" d="M109,697.4c0-1.3,0.4-2.5,1.2-3.4c0.8-0.9,1.9-1.3,3.3-1.3s2.5,0.5,3.3,1.3c0.8,0.9,1.2,2,1.2,3.4v1.2
				c0,1.4-0.4,2.5-1.2,3.3c-0.8,0.9-1.9,1.3-3.3,1.3s-2.5-0.4-3.3-1.3s-1.2-2-1.2-3.3V697.4L109,697.4z M111.9,698.6
				c0,0.6,0.1,1.1,0.4,1.5s0.7,0.6,1.2,0.6s0.8-0.2,1.1-0.6c0.3-0.4,0.4-0.9,0.4-1.5v-1.2c0-0.6-0.1-1.1-0.4-1.5s-0.7-0.6-1.1-0.6
				c-0.5,0-0.9,0.2-1.1,0.6c-0.3,0.4-0.4,0.9-0.4,1.5L111.9,698.6L111.9,698.6z M114.1,714l-2.1-1.2l9.4-17.8l2.1,1.2L114.1,714z
				 M118.5,710.2c0-1.3,0.4-2.5,1.2-3.3c0.8-0.9,1.9-1.3,3.3-1.3s2.5,0.5,3.3,1.3c0.8,0.9,1.2,2,1.2,3.3v1.2c0,1.4-0.4,2.5-1.2,3.4
				c-0.8,0.9-1.9,1.3-3.3,1.3s-2.5-0.4-3.3-1.3c-0.8-0.9-1.2-2-1.2-3.4V710.2z M121.4,711.4c0,0.6,0.2,1.1,0.5,1.5s0.7,0.6,1.1,0.6
				c0.6,0,1-0.2,1.2-0.6c0.2-0.4,0.3-0.9,0.3-1.6v-1.2c0-0.6-0.1-1.1-0.4-1.5s-0.7-0.6-1.1-0.6c-0.5,0-0.9,0.2-1.1,0.6
				s-0.4,0.9-0.4,1.5L121.4,711.4L121.4,711.4z"/>
			<path fill="#666666" d="M138.4,707.7h-7.7v-3.5h7.7V707.7z"/>
			<path fill="#666666" d="M142.1,705.7l1.1-12.7h11.1v3.6h-7.5l-0.5,5.4c0.3-0.3,0.7-0.6,1.2-0.8s1-0.3,1.5-0.3
				c1.9,0,3.3,0.6,4.4,2c1,1.3,1.5,3.2,1.5,5.6c0,2.2-0.6,4-1.7,5.4c-1.2,1.5-2.8,2.2-4.9,2.2c-1.8,0-3.4-0.6-4.7-1.7
				s-2-2.7-1.9-4.7v-0.1l4.3-0.2c0,1,0.2,1.8,0.6,2.4c0.4,0.6,1,0.8,1.6,0.8c0.8,0,1.3-0.4,1.7-1.1c0.4-0.7,0.5-1.7,0.5-2.9
				c0-1.3-0.2-2.4-0.6-3.2c-0.4-0.8-1-1.2-1.8-1.2c-0.6,0-1.1,0.2-1.4,0.5c-0.3,0.3-0.6,0.8-0.7,1.3L142.1,705.7z"/>
			<path fill="#666666" d="M170.8,706.8c0,3-0.6,5.3-1.8,6.9c-1.2,1.6-2.8,2.3-4.8,2.3s-3.7-0.8-4.9-2.3c-1.2-1.6-1.8-3.9-1.8-6.9
				V702c0-3,0.6-5.3,1.8-6.9c1.2-1.6,2.8-2.4,4.8-2.4s3.6,0.8,4.9,2.4c1.2,1.6,1.8,3.9,1.8,6.9V706.8z M166.4,701.5
				c0-1.8-0.2-3.2-0.6-4c-0.4-0.8-0.9-1.2-1.6-1.2h-0.1c-0.7,0-1.2,0.3-1.6,1.2c-0.4,0.8-0.6,2.2-0.6,4v5.6c0,1.9,0.2,3.2,0.6,4
				c0.4,0.8,0.9,1.2,1.6,1.2h0.1c0.7,0.1,1.2-0.3,1.6-1.2c0.4-0.8,0.6-2.2,0.6-4.1V701.5L166.4,701.5z"/>
			<path fill="#666666" d="M173.5,697.4c0-1.3,0.4-2.5,1.2-3.4s1.9-1.3,3.3-1.3c1.4,0,2.5,0.5,3.3,1.3c0.8,0.9,1.2,2,1.2,3.4v1.2
				c0,1.4-0.4,2.5-1.2,3.3c-0.8,0.9-1.9,1.3-3.3,1.3s-2.5-0.4-3.3-1.3s-1.2-2-1.2-3.3V697.4L173.5,697.4z M176.4,698.6
				c0,0.6,0.1,1.1,0.4,1.5s0.7,0.6,1.2,0.6s0.8-0.2,1.1-0.6s0.4-0.9,0.4-1.5v-1.2c0-0.6-0.1-1.1-0.4-1.5s-0.7-0.6-1.1-0.6
				c-0.5,0-0.9,0.2-1.1,0.6c-0.3,0.4-0.4,0.9-0.4,1.5L176.4,698.6L176.4,698.6z M178.6,714l-2.1-1.2l9.4-17.8l2.1,1.2L178.6,714z
				 M183,710.2c0-1.3,0.4-2.5,1.2-3.3c0.8-0.9,1.9-1.3,3.3-1.3c1.4,0,2.5,0.5,3.3,1.3c0.8,0.9,1.2,2,1.2,3.3v1.2
				c0,1.4-0.4,2.5-1.2,3.4s-1.9,1.3-3.3,1.3c-1.4,0-2.5-0.4-3.3-1.3c-0.8-0.9-1.2-2-1.2-3.4V710.2z M185.9,711.4
				c0,0.6,0.2,1.1,0.5,1.5s0.7,0.6,1.1,0.6c0.6,0,1-0.2,1.2-0.6c0.2-0.4,0.3-0.9,0.3-1.6v-1.2c0-0.6-0.1-1.1-0.4-1.5
				c-0.3-0.4-0.7-0.6-1.1-0.6c-0.5,0-0.9,0.2-1.1,0.6s-0.4,0.9-0.4,1.5v1.3H185.9z"/>
		</g>
	</g>
	<g>
		<g>
			<path fill="#FFFFFF" d="M79.3,714v-3.5l6.3-7.9c0.8-1.1,1.4-2.1,1.7-3c0.3-0.8,0.5-1.6,0.5-2.2c0-0.9-0.2-1.6-0.5-2.2
				c-0.3-0.5-0.7-0.7-1.3-0.7c-0.6,0-1,0.3-1.4,0.9c-0.4,0.7-0.5,1.6-0.5,2.7v0.3h-4.9l-0.1-0.3V698c0-2.1,0.6-4,1.8-5.4
				c1.3-1.5,3-2.3,5.1-2.3c2.2,0,3.9,0.6,5.1,1.9c1.2,1.3,1.8,3,1.8,5.2c0,1.5-0.3,2.8-1,4s-1.8,2.8-3.3,4.7l-2.6,3.7h7.4v4.2
				L79.3,714L79.3,714z"/>
			<path d="M85.9,690.6c2.1,0,3.7,0.6,4.9,1.8c1.2,1.2,1.7,2.8,1.7,4.9c0,1.4-0.3,2.7-1,3.9s-1.7,2.7-3.2,4.7l-3,4.2H93v3.5H79.6v-3
				l6.2-7.9c0.8-1.2,1.4-2.2,1.8-3c0.4-0.9,0.5-1.7,0.5-2.4c0-1-0.2-1.7-0.6-2.3s-0.9-0.9-1.6-0.9s-1.3,0.4-1.7,1.1
				c-0.4,0.7-0.6,1.7-0.6,2.8h-4.3v-0.1c0-2.1,0.5-3.8,1.7-5.2C82.3,691.4,83.9,690.6,85.9,690.6 M85.9,690c-2.2,0-4,0.8-5.4,2.4
				c-1.3,1.5-2,3.5-1.9,5.7v0.1v0.1v0.1l0.2,0.4h0.5h4.3h0.7v-0.7c0-1,0.2-1.9,0.5-2.5s0.7-0.7,1.1-0.7c0.5,0,0.8,0.2,1,0.6
				c0.3,0.5,0.5,1.2,0.5,2c0,0.6-0.2,1.3-0.5,2.1s-0.9,1.8-1.7,2.9l-6.2,7.8l-0.1,0.2v0.2v3v0.7h0.7H93h0.7v-0.7v-3.5v-0.7H93h-6.4
				l2.2-3.2c1.5-1.9,2.6-3.5,3.3-4.7c0.7-1.3,1.1-2.7,1.1-4.2c0-2.2-0.7-4.1-1.9-5.4C90,690.6,88.2,690,85.9,690L85.9,690z"/>
		</g>
		<g>
			<path fill="#FFFFFF" d="M102.1,714.3c-1.9,0-3.5-0.6-4.9-1.8s-2.1-2.9-2-5v-0.1l0.1-0.3l4.9-0.3v0.4c0,0.9,0.2,1.7,0.6,2.2
				c0.3,0.5,0.8,0.7,1.4,0.7c0.7,0,1.1-0.3,1.4-0.9c0.3-0.7,0.5-1.6,0.5-2.8c0-1.3-0.2-2.3-0.5-3s-0.8-1-1.5-1
				c-0.5,0-0.9,0.1-1.2,0.4c-0.3,0.3-0.5,0.7-0.6,1.2l-0.1,0.3l-4.6-0.3l1.2-13.3h11.8v4.3H101l-0.4,4.2c0.2-0.1,0.4-0.2,0.7-0.4
				c0.5-0.2,1.1-0.4,1.6-0.4h0.1c1.9,0,3.5,0.7,4.5,2.1c1,1.4,1.6,3.4,1.6,5.8c0,2.2-0.6,4.1-1.8,5.6
				C106.1,713.6,104.4,714.3,102.1,714.3z"/>
			<path d="M108.1,691v3.6h-7.5l-0.5,5.4c0.3-0.3,0.7-0.6,1.2-0.8s1-0.3,1.5-0.3h0.1c1.8,0,3.2,0.7,4.2,2s1.5,3.2,1.5,5.6
				c0,2.2-0.6,4-1.7,5.4c-1.2,1.5-2.8,2.2-4.9,2.2c-1.8,0-3.4-0.6-4.7-1.7c-1.3-1.2-2-2.7-1.9-4.7v-0.1l4.3-0.2c0,1,0.2,1.8,0.6,2.4
				s1,0.8,1.6,0.8c0.8,0,1.3-0.4,1.7-1.1c0.4-0.7,0.5-1.7,0.5-2.9c0-1.3-0.2-2.4-0.6-3.2s-1-1.2-1.8-1.2c-0.6,0-1.1,0.2-1.4,0.5
				s-0.6,0.8-0.7,1.3l-3.9-0.3L97,691H108.1 M108.8,690.3h-0.7H97h-0.6v0.6l-1.1,12.7l-0.1,0.7h0.7l3.9,0.3h0.6l0.1-0.6
				c0.1-0.4,0.3-0.7,0.5-1c0.2-0.2,0.5-0.3,0.9-0.3c0.5,0,0.9,0.2,1.2,0.8c0.3,0.7,0.5,1.7,0.5,2.9c0,1.1-0.2,2-0.5,2.6
				c-0.2,0.5-0.6,0.7-1.1,0.7s-0.8-0.2-1.1-0.6c-0.3-0.5-0.5-1.1-0.5-2v-0.7h-0.7l-4.3,0.2H95l-0.2,0.4v0.1v0.1v0.1
				c0,2.2,0.7,3.9,2.1,5.2s3.2,1.9,5.1,1.9c2.3,0,4.2-0.8,5.4-2.5c1.2-1.6,1.9-3.5,1.9-5.9c0-2.6-0.6-4.6-1.7-6
				c-1.1-1.5-2.7-2.2-4.8-2.2h-0.1l0,0l0,0c-0.6,0-1.2,0.2-1.8,0.4c0,0-0.1,0-0.1,0.1l0.3-3.3h6.9h0.7v-0.7V691L108.8,690.3
				L108.8,690.3z"/>
		</g>
		<g>
			<path fill="#FFFFFF" d="M125.5,714.3c-1.5,0-2.7-0.5-3.5-1.4c-0.8-1-1.3-2.2-1.3-3.6v-1.2c0-1.4,0.4-2.6,1.2-3.6
				c0.8-1,2-1.5,3.5-1.5s2.7,0.5,3.5,1.5s1.2,2.2,1.2,3.6v1.2c0,1.4-0.4,2.6-1.2,3.6C128.2,713.8,127,714.3,125.5,714.3z
				 M125.5,711.1c0.6,0,0.7-0.2,0.8-0.4c0.2-0.3,0.3-0.8,0.3-1.4v-1.2c0-0.5-0.1-1-0.3-1.3c-0.2-0.3-0.5-0.5-0.9-0.5
				s-0.7,0.1-0.8,0.5c-0.2,0.4-0.3,0.8-0.3,1.3v1.2c0,0.5,0.1,1,0.4,1.3C124.9,711,125.1,711.1,125.5,711.1L125.5,711.1L125.5,711.1
				z M114.1,710.9l9.7-18.3l2.7,1.5l-9.7,18.3L114.1,710.9z M116,701.5c-1.5,0-2.7-0.5-3.5-1.4c-0.8-1-1.2-2.1-1.2-3.6v-1.2
				c0-1.4,0.4-2.6,1.2-3.6c0.8-1,2-1.5,3.5-1.5s2.7,0.5,3.5,1.5s1.2,2.2,1.2,3.6v1.2c0,1.4-0.4,2.6-1.2,3.6
				C118.6,701.1,117.5,701.5,116,701.5z M115.9,693.5c-0.4,0-0.6,0.2-0.8,0.5c-0.2,0.4-0.3,0.8-0.3,1.3v1.2c0,0.5,0.1,1,0.3,1.3
				c0.2,0.3,0.5,0.5,0.9,0.5s0.6-0.1,0.8-0.5c0.2-0.3,0.3-0.8,0.3-1.3v-1.2c0-0.5-0.1-1-0.3-1.3S116.3,693.5,115.9,693.5z"/>
			<path d="M115.9,690.6c1.4,0,2.5,0.5,3.3,1.3c0.8,0.9,1.2,2,1.2,3.4v1.2c0,1.4-0.4,2.5-1.2,3.3c-0.8,0.9-1.9,1.3-3.3,1.3
				s-2.5-0.4-3.3-1.3c-0.8-0.9-1.2-2-1.2-3.3v-1.2c0-1.3,0.4-2.5,1.2-3.4C113.4,691.1,114.5,690.6,115.9,690.6 M116,698.7
				c0.5,0,0.8-0.2,1.1-0.6c0.3-0.4,0.4-0.9,0.4-1.5v-1.2c0-0.6-0.1-1.1-0.4-1.5s-0.7-0.6-1.1-0.6c-0.5,0-0.9,0.2-1.1,0.6
				c-0.3,0.4-0.4,0.9-0.4,1.5v1.2c0,0.6,0.1,1.1,0.4,1.5C115.1,698.5,115.5,698.7,116,698.7 M123.9,693.1l2.1,1.2l-9.4,17.8
				l-2.1-1.2L123.9,693.1 M125.5,703.5c1.4,0,2.5,0.5,3.3,1.3c0.8,0.9,1.2,2,1.2,3.3v1.2c0,1.4-0.4,2.5-1.2,3.4s-1.9,1.3-3.3,1.3
				s-2.5-0.4-3.3-1.3c-0.8-0.9-1.2-2-1.2-3.4v-1.2c0-1.3,0.4-2.5,1.2-3.3C123,703.9,124,703.5,125.5,703.5 M125.5,711.5L125.5,711.5
				L125.5,711.5c0.6,0,1-0.2,1.2-0.6c0.2-0.4,0.3-0.9,0.3-1.6v-1.2c0-0.6-0.1-1.1-0.4-1.5s-0.7-0.6-1.1-0.6c-0.5,0-0.9,0.2-1.1,0.6
				c-0.2,0.4-0.4,0.9-0.4,1.5v1.2c0,0.6,0.2,1.1,0.5,1.5C124.7,711.2,125,711.5,125.5,711.5 M115.9,690c-1.6,0-2.9,0.5-3.8,1.6
				c-0.9,1-1.3,2.3-1.3,3.8v1.2c0,1.5,0.5,2.8,1.3,3.8c0.9,1,2.2,1.6,3.8,1.6c1.1,0,2.1-0.3,2.9-0.8l-5,9.4l-0.3,0.6l0.6,0.3
				l2.1,1.2l0.6,0.3l0.3-0.6l9.4-17.8l0.3-0.6l-0.6-0.3l-2.1-1.2l-0.6-0.3l-0.3,0.6L121,697c0-0.1,0-0.3,0-0.5v-1.2
				c0-1.5-0.5-2.8-1.3-3.8C118.8,690.5,117.6,690,115.9,690L115.9,690z M116,698c-0.3,0-0.4-0.1-0.6-0.3c-0.2-0.3-0.3-0.7-0.3-1.1
				v-1.2c0-0.5,0.1-0.8,0.3-1.2c0.1-0.2,0.3-0.3,0.5-0.3s0.4,0.1,0.6,0.3c0.2,0.3,0.3,0.7,0.3,1.2v1.2c0,0.5-0.1,0.8-0.3,1.1
				C116.4,697.9,116.2,698,116,698L116,698z M125.5,702.8c-1.6,0-2.9,0.5-3.8,1.6c-0.9,1-1.3,2.3-1.3,3.8v1.2c0,1.5,0.5,2.8,1.3,3.8
				c0.9,1,2.2,1.5,3.8,1.5c1.6,0,2.9-0.5,3.8-1.6c0.9-1,1.3-2.3,1.3-3.8v-1.2c0-1.5-0.5-2.8-1.3-3.8
				C128.4,703.3,127.1,702.8,125.5,702.8L125.5,702.8z M125.5,710.8c-0.1,0-0.3,0-0.5-0.3s-0.3-0.7-0.3-1.1v-1.2
				c0-0.5,0.1-0.8,0.3-1.2c0.1-0.2,0.3-0.3,0.6-0.3c0.2,0,0.4,0.1,0.6,0.3c0.2,0.3,0.3,0.7,0.3,1.1v1.2c0,0.5-0.1,1-0.2,1.2
				C126,710.6,126,710.8,125.5,710.8L125.5,710.8L125.5,710.8L125.5,710.8L125.5,710.8L125.5,710.8z"/>
		</g>
		<g>
			<rect x="132.8" y="701.8" fill="#FFFFFF" width="8.4" height="4.2"/>
			<path d="M140.9,702.2v3.5h-7.7v-3.5H140.9 M141.5,701.5h-0.7h-7.7h-0.7v0.7v3.5v0.7h0.7h7.7h0.7v-0.7v-3.5V701.5L141.5,701.5z"/>
		</g>
		<g>
			<path fill="#FFFFFF" d="M150.8,714.3c-1.9,0-3.5-0.6-4.9-1.8s-2.1-2.9-2-5v-0.1l0.1-0.3l4.9-0.3v0.4c0,0.9,0.2,1.7,0.6,2.2
				c0.3,0.5,0.8,0.7,1.4,0.7c0.7,0,1.1-0.3,1.4-0.9c0.3-0.7,0.5-1.6,0.5-2.8c0-1.3-0.2-2.3-0.5-3s-0.8-1-1.5-1
				c-0.5,0-0.9,0.1-1.2,0.4c-0.3,0.3-0.5,0.7-0.6,1.2l-0.1,0.3l-4.6-0.3l1.2-13.3h11.8v4.3h-7.5l-0.4,4.2c0.2-0.1,0.4-0.2,0.7-0.4
				c0.5-0.2,1.1-0.4,1.6-0.4h0.1c1.9,0,3.5,0.7,4.5,2.1c1,1.4,1.6,3.4,1.6,5.8c0,2.2-0.6,4.1-1.8,5.6
				C154.8,713.6,153.1,714.3,150.8,714.3z"/>
			<path d="M156.8,691v3.6h-7.5l-0.5,5.4c0.3-0.3,0.7-0.6,1.2-0.8s1-0.3,1.5-0.3h0.1c1.8,0,3.2,0.7,4.2,2s1.5,3.2,1.5,5.6
				c0,2.2-0.6,4-1.7,5.4c-1.2,1.5-2.8,2.2-4.9,2.2c-1.8,0-3.4-0.6-4.7-1.7c-1.3-1.2-2-2.7-1.9-4.7v-0.1l4.3-0.2c0,1,0.2,1.8,0.6,2.4
				c0.4,0.6,1,0.8,1.6,0.8c0.8,0,1.3-0.4,1.7-1.1c0.4-0.7,0.5-1.7,0.5-2.9c0-1.3-0.2-2.4-0.6-3.2s-1-1.2-1.8-1.2
				c-0.6,0-1.1,0.2-1.4,0.5c-0.3,0.3-0.6,0.8-0.7,1.3l-3.9-0.3l1.1-12.7H156.8 M157.5,690.3h-0.7h-11.1h-0.6v0.6l-1.1,12.7l-0.1,0.7
				h0.7l3.9,0.3h0.6l0.1-0.6c0.1-0.4,0.3-0.7,0.5-1c0.2-0.2,0.5-0.3,0.9-0.3c0.5,0,0.9,0.2,1.2,0.8c0.3,0.7,0.5,1.7,0.5,2.9
				c0,1.1-0.2,2-0.5,2.6c-0.2,0.5-0.6,0.7-1.1,0.7s-0.8-0.2-1.1-0.6c-0.3-0.5-0.5-1.1-0.5-2v-0.7h-0.7l-4.3,0.2h-0.4l-0.2,0.4v0.1
				v0.1v0.1c0,2.2,0.7,3.9,2.1,5.2c1.4,1.3,3.2,1.9,5.1,1.9c2.3,0,4.2-0.8,5.4-2.5c1.2-1.6,1.9-3.5,1.9-5.9c0-2.6-0.6-4.6-1.7-6
				c-1.1-1.5-2.7-2.2-4.8-2.2h-0.1l0,0l0,0c-0.6,0-1.2,0.2-1.8,0.4c0,0-0.1,0-0.1,0.1l0.3-3.3h6.9h0.7v-0.7V691L157.5,690.3
				L157.5,690.3z"/>
		</g>
		<g>
			<path fill="#FFFFFF" d="M166.7,714.3c-2.1,0-3.9-0.8-5.1-2.5c-1.2-1.6-1.9-4-1.9-7.1v-4.9c0-3.1,0.6-5.5,1.9-7.1
				c1.3-1.7,3-2.5,5.1-2.5s3.9,0.8,5.1,2.5c1.2,1.6,1.9,4,1.9,7.1v4.9c0,3.1-0.6,5.5-1.9,7.1C170.5,713.5,168.8,714.3,166.7,714.3z
				 M166.8,710L166.8,710h0.1c0.5,0,0.8-0.3,1.1-1c0.4-0.8,0.5-2.1,0.5-3.9v-5.6c0-1.8-0.2-3.1-0.5-3.9c-0.3-0.7-0.7-1-1.2-1h-0.1
				h-0.1l0,0h-0.1c-0.5,0-0.9,0.3-1.2,1c-0.4,0.8-0.5,2.1-0.5,3.9v5.6c0,1.8,0.2,3.1,0.5,3.9c0.3,0.7,0.7,1,1.2,1h0.1l0,0H166.8
				L166.8,710z"/>
			<path d="M166.7,690.6c2,0,3.6,0.8,4.9,2.4c1.2,1.6,1.8,3.9,1.8,6.9v4.9c0,3-0.6,5.3-1.8,6.9c-1.2,1.6-2.8,2.3-4.8,2.3
				s-3.7-0.8-4.9-2.3c-1.2-1.6-1.8-3.9-1.8-6.9v-4.9c0-3,0.6-5.3,1.8-6.9C163,691.4,164.7,690.6,166.7,690.6 M166.6,694.3h-0.1
				c-0.6,0-1.1,0.4-1.5,1.2s-0.6,2.2-0.6,4v5.6c0,1.9,0.2,3.2,0.6,4c0.4,0.8,0.9,1.2,1.5,1.2h0.1h0.1h0.1c0.6,0,1.1-0.4,1.5-1.2
				s0.6-2.2,0.6-4.1v-5.6c0-1.8-0.2-3.2-0.6-4c-0.4-0.8-0.9-1.2-1.5-1.2C166.8,694.3,166.8,694.3,166.6,694.3L166.6,694.3
				 M166.7,690c-2.2,0-4.1,0.9-5.4,2.6c-1.3,1.7-1.9,4.2-1.9,7.3v4.9c0,3.2,0.7,5.6,2,7.3s3.2,2.6,5.4,2.6s4-0.9,5.4-2.6
				c1.3-1.7,2-4.1,2-7.3v-4.9c0-3.2-0.7-5.6-2-7.3C170.7,690.9,168.9,690,166.7,690L166.7,690z M166.5,709.7c-0.1,0-0.5,0-0.9-0.8
				c-0.3-0.7-0.5-2-0.5-3.8v-5.6c0-1.7,0.2-3,0.5-3.7c0.3-0.8,0.7-0.8,0.9-0.8l0,0c0,0,0,0,0.1,0l0,0l0,0h0.1l0,0l0,0c0,0,0,0,0.1,0
				s0.5,0,0.9,0.8c0.3,0.7,0.5,2,0.5,3.7v5.6c0,1.7-0.2,3-0.5,3.8s-0.7,0.8-0.8,0.8c0,0,0,0-0.1,0l0,0l0,0h-0.1l0,0H166.5
				C166.6,709.7,166.5,709.7,166.5,709.7L166.5,709.7z"/>
		</g>
		<g>
			<path fill="#FFFFFF" d="M190,714.3c-1.5,0-2.7-0.5-3.5-1.4c-0.8-1-1.3-2.2-1.3-3.6v-1.2c0-1.4,0.4-2.6,1.2-3.6s2-1.5,3.5-1.5
				s2.7,0.5,3.5,1.5s1.2,2.2,1.2,3.6v1.2c0,1.4-0.4,2.6-1.2,3.6C192.7,713.8,191.5,714.3,190,714.3z M190,711.1
				c0.6,0,0.7-0.2,0.8-0.4c0.2-0.3,0.3-0.8,0.3-1.4v-1.2c0-0.5-0.1-1-0.3-1.3s-0.5-0.5-0.9-0.5s-0.7,0.1-0.8,0.5
				c-0.2,0.4-0.3,0.8-0.3,1.3v1.2c0,0.5,0.1,1,0.4,1.3C189.4,711,189.6,711.1,190,711.1L190,711.1L190,711.1z M178.5,710.9l9.7-18.3
				l2.7,1.5l-9.7,18.3L178.5,710.9z M180.5,701.5c-1.5,0-2.7-0.5-3.5-1.4c-0.8-1-1.2-2.1-1.2-3.6v-1.2c0-1.4,0.4-2.6,1.2-3.6
				s2-1.5,3.5-1.5s2.7,0.5,3.5,1.5s1.2,2.2,1.2,3.6v1.2c0,1.4-0.4,2.6-1.2,3.6C183.1,701.1,182,701.5,180.5,701.5z M180.4,693.5
				c-0.4,0-0.6,0.2-0.8,0.5c-0.2,0.4-0.3,0.8-0.3,1.3v1.2c0,0.5,0.1,1,0.3,1.3s0.5,0.5,0.9,0.5s0.6-0.1,0.8-0.5
				c0.2-0.3,0.3-0.8,0.3-1.3v-1.2c0-0.5-0.1-1-0.3-1.3C181.1,693.7,180.8,693.5,180.4,693.5z"/>
			<path d="M180.4,690.6c1.4,0,2.5,0.5,3.3,1.3c0.8,0.9,1.2,2,1.2,3.4v1.2c0,1.4-0.4,2.5-1.2,3.3c-0.8,0.9-1.9,1.3-3.3,1.3
				c-1.4,0-2.5-0.4-3.3-1.3c-0.8-0.9-1.2-2-1.2-3.3v-1.2c0-1.3,0.4-2.5,1.2-3.4C177.9,691.1,179,690.6,180.4,690.6 M180.5,698.7
				c0.5,0,0.8-0.2,1.1-0.6c0.3-0.4,0.4-0.9,0.4-1.5v-1.2c0-0.6-0.1-1.1-0.4-1.5c-0.3-0.4-0.7-0.6-1.1-0.6c-0.5,0-0.9,0.2-1.1,0.6
				c-0.3,0.4-0.4,0.9-0.4,1.5v1.2c0,0.6,0.1,1.1,0.4,1.5C179.6,698.5,180,698.7,180.5,698.7 M188.4,693.1l2.1,1.2l-9.4,17.8
				l-2.1-1.2L188.4,693.1 M190,703.5c1.4,0,2.5,0.5,3.3,1.3c0.8,0.9,1.2,2,1.2,3.3v1.2c0,1.4-0.4,2.5-1.2,3.4s-1.9,1.3-3.3,1.3
				c-1.4,0-2.5-0.4-3.3-1.3c-0.8-0.9-1.2-2-1.2-3.4v-1.2c0-1.3,0.4-2.5,1.2-3.3C187.5,703.9,188.6,703.5,190,703.5 M190,711.5
				L190,711.5L190,711.5c0.6,0,1-0.2,1.2-0.6c0.2-0.4,0.3-0.9,0.3-1.6v-1.2c0-0.6-0.1-1.1-0.4-1.5c-0.3-0.4-0.7-0.6-1.1-0.6
				c-0.5,0-0.9,0.2-1.1,0.6c-0.2,0.4-0.4,0.9-0.4,1.5v1.2c0,0.6,0.2,1.1,0.5,1.5C189.2,711.2,189.5,711.5,190,711.5 M180.4,690
				c-1.6,0-2.9,0.5-3.8,1.6c-0.9,1-1.3,2.3-1.3,3.8v1.2c0,1.5,0.5,2.8,1.3,3.8c0.9,1,2.2,1.6,3.8,1.6c1.1,0,2.1-0.3,2.9-0.8l-5,9.4
				l-0.3,0.6l0.6,0.3l2.1,1.2l0.6,0.3l0.3-0.6l9.4-17.8l0.3-0.6l-0.6-0.3l-2.1-1.2l-0.6-0.3l-0.3,0.6l-2.2,4.2c0-0.1,0-0.3,0-0.5
				v-1.2c0-1.5-0.5-2.8-1.3-3.8C183.3,690.5,182,690,180.4,690L180.4,690z M180.5,698c-0.3,0-0.4-0.1-0.6-0.3
				c-0.2-0.3-0.3-0.7-0.3-1.1v-1.2c0-0.5,0.1-0.8,0.3-1.2c0.1-0.2,0.3-0.3,0.5-0.3s0.4,0.1,0.6,0.3c0.2,0.3,0.3,0.7,0.3,1.2v1.2
				c0,0.5-0.1,0.8-0.3,1.1C180.9,697.9,180.7,698,180.5,698L180.5,698z M190,702.8c-1.6,0-2.9,0.5-3.8,1.6c-0.9,1-1.3,2.3-1.3,3.8
				v1.2c0,1.5,0.5,2.8,1.3,3.8c0.9,1,2.2,1.5,3.8,1.5s2.9-0.5,3.8-1.6c0.9-1,1.3-2.3,1.3-3.8v-1.2c0-1.5-0.5-2.8-1.3-3.8
				C192.9,703.3,191.6,702.8,190,702.8L190,702.8z M190,710.8c-0.1,0-0.3,0-0.5-0.3s-0.3-0.7-0.3-1.1v-1.2c0-0.5,0.1-0.8,0.3-1.2
				c0.1-0.2,0.3-0.3,0.6-0.3c0.2,0,0.4,0.1,0.6,0.3c0.2,0.3,0.3,0.7,0.3,1.1v1.2c0,0.5-0.1,1-0.2,1.2
				C190.6,710.6,190.5,710.8,190,710.8L190,710.8L190,710.8L190,710.8L190,710.8L190,710.8z"/>
		</g>
	</g>
</g>
</svg>
