<?xml version="1.0" encoding="utf-8"?>
<!-- Generator: Adobe Illustrator 18.0.0, SVG Export Plug-In . SVG Version: 6.00 Build 0)  -->
<!DOCTYPE svg PUBLIC "-//W3C//DTD SVG 1.1//EN" "http://www.w3.org/Graphics/SVG/1.1/DTD/svg11.dtd">
<svg version="1.1" id="Layer_1" xmlns="http://www.w3.org/2000/svg" xmlns:xlink="http://www.w3.org/1999/xlink" x="0px" y="0px"
	 width="261.3px" height="42.7px" viewBox="7 608 261.3 42.7" enable-background="new 7 608 261.3 42.7" xml:space="preserve">
<g id="Layer_1_1_">
	<g>
		<line fill="none" stroke="#000000" stroke-width="2" stroke-miterlimit="10" x1="15.2" y1="634.2" x2="259.9" y2="634.2"/>
		<line fill="none" stroke="#000000" stroke-width="5" stroke-miterlimit="10" x1="15.2" y1="632.3" x2="259.9" y2="632.3"/>
	</g>
	<g>
		<g>
			<polygon fill="#FFFFFF" points="62.9,645.5 71.4,633.3 62.9,621.2 95.1,621.2 95.1,645.5 			"/>
			<path d="M94.5,621.7v23.2H64l8.1-11.6L64,621.7H94.5 M95.7,620.6h-1.1H64h-2.2l1.2,1.8l7.6,10.9L63,644.2l-1.2,1.8H64h30.5h1.1
				v-1.1v-23.2L95.7,620.6L95.7,620.6z"/>
		</g>
		<g>
			<polygon fill="#FFFFFF" points="182.3,645.5 182.3,621.2 214.5,621.2 206,633.3 214.5,645.5 			"/>
			<path d="M213.4,621.7l-8.1,11.6l8.1,11.6h-30.5v-23.2L213.4,621.7 M215.6,620.6h-2.2h-30.5h-1.1v1.1v23.2v1.1h1.1h30.5h2.2
				l-1.2-1.8l-7.6-10.9l7.6-10.9L215.6,620.6L215.6,620.6z"/>
		</g>
		<g>
			<rect x="79.3" y="616.2" fill="#FFFFFF" width="118.6" height="24.3"/>
			<path d="M197.3,616.8V640H79.9v-23.2H197.3 M198.5,615.6h-1.1H79.9h-1.1v1.1v23.2v1.1h1.1h117.4h1.1v-1.1v-23.2L198.5,615.6
				L198.5,615.6z"/>
		</g>
		<g>
			<g>
				<path fill="#666666" d="M107.2,625.4h-2.3v8.5h-2v-8.5h-2.2v-1.6h6.5V625.4L107.2,625.4z"/>
				<path fill="#666666" d="M114.7,630.3c0,1.2-0.3,2.1-1,2.8c-0.6,0.7-1.5,1-2.6,1s-1.9-0.3-2.5-1s-1-1.6-1-2.8v-2.8
					c0-1.2,0.3-2.1,1-2.8c0.6-0.7,1.5-1,2.5-1c1.1,0,1.9,0.3,2.6,1c0.6,0.7,1,1.6,1,2.8V630.3L114.7,630.3z M112.8,627.5
					c0-0.7-0.1-1.3-0.4-1.6c-0.3-0.4-0.7-0.5-1.2-0.5s-0.9,0.2-1.2,0.5c-0.2,0.4-0.4,0.9-0.4,1.6v2.8c0,0.7,0.1,1.3,0.4,1.6
					c0.2,0.4,0.7,0.5,1.2,0.5s0.9-0.2,1.2-0.5c0.3-0.4,0.4-0.9,0.4-1.6V627.5z"/>
				<path fill="#666666" d="M121.7,625.4h-2.3v8.5h-2v-8.5h-2.2v-1.6h6.5V625.4L121.7,625.4z"/>
				<path fill="#666666" d="M126.7,631.8H124l-0.5,2.2h-2l2.8-10.1h2l2.8,10.1h-2L126.7,631.8z M124.4,630.2h1.9l-0.9-3.6l0,0
					L124.4,630.2z"/>
				<path fill="#666666" d="M132,632.4h3.7v1.6H130v-10.1h2V632.4z"/>
				<path fill="#666666" d="M146,630.7L146,630.7c0,1.2-0.2,2-0.8,2.5c-0.5,0.6-1.3,0.8-2.4,0.8c-1,0-1.9-0.3-2.5-1
					s-0.9-1.5-0.9-2.7v-3c0-1.2,0.3-2.1,0.9-2.7c0.6-0.6,1.4-1,2.4-1c1.1,0,1.9,0.3,2.4,0.9c0.5,0.6,0.8,1.4,0.8,2.5l0,0H144
					c0-0.7-0.1-1.1-0.3-1.4s-0.6-0.4-1.1-0.4c-0.4,0-0.8,0.2-1,0.5s-0.4,0.9-0.4,1.6v3c0,0.7,0.1,1.2,0.4,1.6
					c0.2,0.3,0.6,0.5,1.1,0.5s0.8-0.1,1-0.4c0.2-0.3,0.3-0.7,0.2-1.4L146,630.7L146,630.7z"/>
				<path fill="#666666" d="M154,630.3c0,1.2-0.3,2.1-1,2.8c-0.6,0.7-1.5,1-2.6,1s-1.9-0.3-2.5-1s-1-1.6-1-2.8v-2.8
					c0-1.2,0.3-2.1,1-2.8c0.6-0.7,1.5-1,2.5-1c1.1,0,1.9,0.3,2.6,1c0.6,0.7,1,1.6,1,2.8V630.3L154,630.3z M152.1,627.5
					c0-0.7-0.1-1.3-0.4-1.6s-0.7-0.5-1.2-0.5s-0.9,0.2-1.2,0.5c-0.2,0.4-0.4,0.9-0.4,1.6v2.8c0,0.7,0.1,1.3,0.4,1.6
					c0.2,0.4,0.7,0.5,1.2,0.5s0.9-0.2,1.2-0.5c0.3-0.4,0.4-0.9,0.4-1.6V627.5z"/>
				<path fill="#666666" d="M159.8,631.3c0-0.4-0.1-0.7-0.3-0.9s-0.6-0.5-1.1-0.7c-1-0.4-1.8-0.8-2.4-1.2c-0.5-0.5-0.8-1.1-0.8-2
					c0-0.8,0.3-1.5,0.9-2c0.6-0.5,1.4-0.8,2.3-0.8s1.7,0.3,2.3,0.9c0.6,0.6,0.9,1.3,0.9,2.2l0,0h-1.9c0-0.5-0.1-0.8-0.3-1.1
					s-0.5-0.4-1-0.4c-0.4,0-0.7,0.1-0.9,0.4c-0.2,0.2-0.3,0.5-0.3,0.9c0,0.3,0.1,0.6,0.4,0.8c0.2,0.2,0.7,0.5,1.3,0.7
					c1,0.3,1.7,0.7,2.2,1.2s0.7,1.2,0.7,2c0,0.9-0.3,1.5-0.9,2c-0.6,0.5-1.4,0.7-2.3,0.7s-1.8-0.3-2.5-0.8s-1-1.4-1-2.4l0,0h1.9
					c0,0.6,0.1,1.1,0.4,1.3c0.3,0.3,0.7,0.4,1.2,0.4c0.4,0,0.7-0.1,0.9-0.3C159.7,632,159.8,631.7,159.8,631.3z"/>
				<path fill="#666666" d="M168.9,625.4h-2.3v8.5h-2v-8.5h-2.2v-1.6h6.5V625.4z"/>
				<path fill="#666666" d="M174.2,631.3c0-0.4-0.1-0.7-0.3-0.9s-0.6-0.5-1.1-0.7c-1-0.4-1.8-0.8-2.4-1.2c-0.5-0.5-0.8-1.1-0.8-2
					c0-0.8,0.3-1.5,0.9-2c0.6-0.5,1.4-0.8,2.3-0.8s1.7,0.3,2.3,0.9s0.9,1.3,0.9,2.2l0,0h-1.9c0-0.5-0.1-0.8-0.3-1.1s-0.5-0.4-1-0.4
					c-0.4,0-0.7,0.1-0.9,0.4c-0.2,0.2-0.3,0.5-0.3,0.9c0,0.3,0.1,0.6,0.4,0.8c0.2,0.2,0.7,0.5,1.3,0.7c1,0.3,1.7,0.7,2.2,1.2
					s0.7,1.2,0.7,2c0,0.9-0.3,1.5-0.9,2c-0.6,0.5-1.4,0.7-2.3,0.7s-1.8-0.3-2.5-0.8s-1-1.4-1-2.4l0,0h1.9c0,0.6,0.1,1.1,0.4,1.3
					c0.3,0.3,0.7,0.4,1.2,0.4c0.4,0,0.7-0.1,0.9-0.3C174.1,632,174.2,631.7,174.2,631.3z"/>
			</g>
		</g>
	</g>
</g>
</svg>
