<?xml version="1.0" encoding="utf-8"?>
<!-- Generator: Adobe Illustrator 18.0.0, SVG Export Plug-In . SVG Version: 6.00 Build 0)  -->
<!DOCTYPE svg PUBLIC "-//W3C//DTD SVG 1.1//EN" "http://www.w3.org/Graphics/SVG/1.1/DTD/svg11.dtd">
<svg version="1.1" id="Layer_1" xmlns="http://www.w3.org/2000/svg" xmlns:xlink="http://www.w3.org/1999/xlink" x="0px" y="0px"
	 width="74px" height="59.3px" viewBox="177.7 644.7 74 59.3" enable-background="new 177.7 644.7 74 59.3" xml:space="preserve">
<g>
	<g>
		
			<linearGradient id="SVGID_1_" gradientUnits="userSpaceOnUse" x1="795.4482" y1="-2185.7468" x2="865.6245" y2="-2191.9448" gradientTransform="matrix(0.227 0 0 -0.227 5.655301e-02 179.7833)">
			<stop  offset="0" style="stop-color:#6D6E71;stop-opacity:0"/>
			<stop  offset="1" style="stop-color:#6D6E71"/>
		</linearGradient>
		<path fill="url(#SVGID_1_)" d="M194.1,673.9c-2.8,0-5.5,0.2-7.6,0.6c-0.3-0.1-0.7-0.2-0.7-0.4c0-0.5,0.9-0.7,0.6-1.1
			c-0.3-0.4-0.8,0.4-1.3,0.4s-0.6-0.2-1.7-0.4c-1.1-0.2-1,0.6-1.1,0.9s-0.8,0.3-1.3,0.4c-0.5,0.1,0.4,0.6,1.1,0.6
			c0.5,0,1.2,0.1,1.7,0.2c-1.9,0.6-3,1.3-3,2.1c0,1.8,6,3.3,13.5,3.3c7.4,0,13.5-1.5,13.5-3.3C207.5,675.3,201.5,673.9,194.1,673.9z
			"/>
		<g>
			<path fill="#39B54A" d="M208.5,674.2c0-2-0.8-3.7-2-5.2c-1-1.2-2.2-2.2-3.7-2.9c0,0,0,0-0.1,0c-0.4-0.2-1.4-0.7-1.3-2l0,0V664
				c0-0.3,0-0.6,0.1-1c0.1-0.9,0.5-1.8,0.9-2.6c0.1-0.2,0.1-0.4,0.2-0.6c0-0.3-0.2-0.5-0.5-0.6c-0.4,0-0.7,0.1-1,0.2
				c-0.2,0.1-0.3,0.2-0.5,0.3c-0.4,0.2-0.6,0.1-0.8-0.3c0-0.1-0.1-0.2-0.1-0.3c-0.1-0.2-0.2-0.4-0.3-0.5c-0.5-0.6-1.2-0.6-1.6,0
				c-0.2,0.2-0.3,0.4-0.3,0.6c-0.2,0.4-0.4,0.7-0.9,0.7c-0.3,0-0.6,0-1,0c-0.2,0-0.4,0-0.7,0c-0.6,0-0.9,0.5-0.6,1.1
				c0,0.1,0.1,0.2,0.2,0.3c0.4,1,0.8,1.9,1.2,2.9c0,0.1,0.1,0.2,0.2,0.3c0.3,0.8-0.3,0.9-0.4,1c-2.3,0.7-4.1,2.1-5.5,4
				c-0.7,0.9-1.2,1.9-1.4,3c-0.3,1-0.3,2-0.2,3c0.1,0.7,0.3,1.3,0.6,2c0.5,0.9,1.3,1.5,2.3,1.8c1,0.4,2,0.6,3.1,0.7
				c1.3,0.1,2.7,0.2,3.9,0.2c1.4-0.1,2.6-0.1,3.8-0.2c1.1-0.1,2.3-0.3,3.4-0.7c1.3-0.5,2.3-1.3,2.7-2.7
				C208.5,675.8,208.5,675,208.5,674.2z"/>
			<path d="M198.3,680.5L198.3,680.5c-0.4,0-0.7,0-1.1-0.1c-0.9,0-1.9-0.1-2.8-0.2c-1.2-0.1-2.2-0.3-3.2-0.7c-1.1-0.5-1.9-1.1-2.4-2
				c-0.3-0.6-0.5-1.2-0.7-2.1c-0.1-1.1-0.1-2.2,0.2-3.1c0.3-1.1,0.8-2.1,1.5-3c1.5-2,3.4-3.4,5.7-4.1c0.1,0,0.1,0,0.2-0.1
				c0-0.1,0-0.2,0-0.4c-0.1-0.1-0.2-0.2-0.2-0.4c-0.3-0.7-0.6-1.4-0.9-2.1c-0.1-0.2-0.2-0.5-0.3-0.7c0-0.1-0.1-0.1-0.1-0.2
				c0,0,0-0.1-0.1-0.1c-0.2-0.4-0.2-0.7,0-1s0.5-0.5,0.9-0.5c0.1,0,0.2,0,0.4,0c0.1,0,0.2,0,0.3,0h0.1c0.3,0,0.5,0,0.8,0
				s0.5-0.2,0.6-0.6c0.1-0.3,0.2-0.5,0.4-0.7c0.3-0.3,0.6-0.5,1-0.5l0,0c0.4,0,0.8,0.2,1,0.5c0.1,0.2,0.2,0.3,0.3,0.5v0.1
				c0,0.1,0.1,0.2,0.1,0.2v0.1c0.1,0.2,0.2,0.2,0.4,0.2c0.1,0,0.2-0.1,0.3-0.2c0,0,0.1-0.1,0.2-0.1c0.4-0.2,0.8-0.3,1.2-0.3
				c0.5,0.1,0.8,0.4,0.7,0.9c0,0.2-0.1,0.5-0.2,0.7c-0.5,0.9-0.7,1.7-0.9,2.5c0,0.3-0.1,0.6-0.1,0.9c0,0,0,0.1,0,0.2
				c-0.1,1.1,0.7,1.5,1.1,1.7h0.1c1.5,0.7,2.8,1.7,3.8,3c1.4,1.7,2,3.4,2.1,5.3l0,0c0,1-0.1,1.8-0.3,2.5c-0.4,1.4-1.4,2.3-2.9,2.9
				c-1,0.4-2.1,0.6-3.5,0.7c-0.8,0.1-1.7,0.1-2.6,0.1C199.2,680.5,198.8,680.5,198.3,680.5L198.3,680.5z M195,660.3L195,660.3
				c-0.3,0-0.4,0.1-0.5,0.2c-0.1,0.1,0,0.3,0,0.5c0,0,0,0.1,0.1,0.1c0,0.1,0.1,0.2,0.1,0.2c0.1,0.2,0.2,0.5,0.3,0.7
				c0.3,0.7,0.6,1.4,0.9,2.1c0,0.1,0.1,0.2,0.2,0.2l0,0v0.1c0.1,0.4,0.1,0.7,0,0.9s-0.3,0.3-0.5,0.4c-2.2,0.7-3.9,2-5.4,3.9
				c-0.7,0.9-1.1,1.8-1.4,2.8c-0.2,0.9-0.3,1.8-0.1,2.9c0.1,0.7,0.3,1.3,0.6,1.8c0.5,0.7,1.1,1.3,2.1,1.7c0.9,0.4,1.9,0.6,3,0.7
				c0.9,0.1,1.9,0.1,2.8,0.2c0.4,0,0.7,0,1.1,0.1c0.4,0,0.8,0,1.2,0c0.9,0,1.7-0.1,2.5-0.1c1.3-0.1,2.3-0.3,3.3-0.7
				c1.3-0.5,2.2-1.3,2.5-2.5c0.2-0.7,0.3-1.5,0.3-2.3l0,0c0-1.7-0.7-3.4-2-5c-1-1.2-2.2-2.2-3.6-2.8l0,0l0,0
				c-0.5-0.2-1.5-0.8-1.5-2.2v-0.1c0-0.3,0-0.7,0.1-1c0.1-0.9,0.4-1.7,0.9-2.7c0.1-0.1,0.1-0.3,0.1-0.5c0-0.1,0-0.2-0.2-0.2
				s-0.5,0-0.8,0.2c0,0-0.1,0-0.1,0.1c-0.1,0.1-0.2,0.1-0.4,0.2c-0.5,0.2-0.9,0.1-1.2-0.5c0,0,0-0.1-0.1-0.2c0,0,0-0.1-0.1-0.2v-0.1
				c-0.1-0.1-0.1-0.3-0.2-0.4c-0.2-0.2-0.4-0.3-0.6-0.3c-0.2,0-0.4,0.1-0.6,0.3c-0.1,0.1-0.2,0.3-0.3,0.5c-0.2,0.5-0.6,0.9-1.1,1
				c-0.3,0-0.6,0-0.9,0h-0.1c-0.1,0-0.2,0-0.3,0C195.2,660.3,195.1,660.3,195,660.3z"/>
		</g>
		<path opacity="0.51" fill="#A7A9AC" enable-background="new    " d="M196.4,665c0,0-1.2-2.6-1.4-3.2c-0.2-0.6-0.7-1.2-0.4-1.3
			s1.1,0,1.6,0c0.4,0,1.1-0.1,1.2-0.4c0.1-0.3,0.5-1.2,0.9,0s0.2,2.5,0.5,3.4c0.2,1,0.4,1.8,0.4,1.8s-1-0.8-1.3-1.6
			c-0.3-0.7-1.7-2.2-1.4-0.6c0.3,1.6,1.7,2.2,1.7,2.2S196.9,665.2,196.4,665z"/>
		
			<linearGradient id="SVGID_2_" gradientUnits="userSpaceOnUse" x1="829.4432" y1="-2155.9109" x2="918.2531" y2="-2155.9109" gradientTransform="matrix(0.227 0 0 -0.227 5.655301e-02 179.7833)">
			<stop  offset="0" style="stop-color:#39B54A;stop-opacity:0"/>
			<stop  offset="1.641512e-02" style="stop-color:#3DB649;stop-opacity:1.641512e-02"/>
			<stop  offset="0.5039" style="stop-color:#A4DD22;stop-opacity:0.5039"/>
			<stop  offset="0.8417" style="stop-color:#E6F609;stop-opacity:0.8417"/>
			<stop  offset="1" style="stop-color:#FFFF00"/>
		</linearGradient>
		<path opacity="0.4" fill="url(#SVGID_2_)" enable-background="new    " d="M208.5,674.2c0-2-0.8-3.7-2-5.2c-1-1.2-2.2-2.2-3.7-2.9
			c0,0,0,0-0.1,0c-0.4-0.2-1.4-0.7-1.3-2l0,0V664c0-0.3,0-0.6,0.1-1c0.1-0.9,0.5-1.8,0.9-2.6c0.1-0.2,0.1-0.4,0.2-0.6
			c0-0.3-0.2-0.5-0.5-0.6c-0.4,0-0.7,0.1-1,0.2c-0.2,0.1-0.3,0.2-0.5,0.3c-0.4,0.2-0.6,0.1-0.8-0.3c0-0.1-0.1-0.2-0.1-0.3
			c-0.1-0.2-0.2-0.4-0.3-0.5c-0.5-0.6-1.2-0.6-1.6,0c-0.2,0.2-0.3,0.4-0.3,0.6c-0.2,0.4-0.4,0.7-0.9,0.7c-0.3,0-0.6,0-1,0
			c-0.2,0-0.4,0-0.7,0c-0.6,0-0.9,0.5-0.6,1.1c0,0.1,0.1,0.2,0.2,0.3c0.4,1,0.8,1.9,1.2,2.9c0,0.1,0.1,0.2,0.2,0.3
			c0.3,0.8-0.3,0.9-0.4,1c-2.3,0.7-4.1,2.1-5.5,4c-0.7,0.9-1.2,1.9-1.4,3c-0.3,1-0.3,2-0.2,3c0.1,0.7,0.3,1.3,0.6,2
			c0.5,0.9,1.3,1.5,2.3,1.8c1,0.4,2,0.6,3.1,0.7c1.3,0.1,2.7,0.2,3.9,0.2c1.4-0.1,2.6-0.1,3.8-0.2c1.1-0.1,2.3-0.3,3.4-0.7
			c1.3-0.5,2.3-1.3,2.7-2.7C208.5,675.8,208.5,675,208.5,674.2z"/>
		<path opacity="0.51" fill="#A7A9AC" enable-background="new    " d="M198.8,666.6c0,0-2.3,1-3.5,2.2s-2.2,2.5-1.8,4.8
			s1.6,4.1,3.4,4.7c1.8,0.6,6.9,1.3,3.3,1.4s-4.4,0.4-8.4-0.6c-3.9-1-3-6.2-3-6.2s0.9-3,3.2-4.9c2.2-1.9,4.1-2.2,4.1-2.2
			S197.7,666.6,198.8,666.6z"/>
		<g>
			<path fill="#FFFFFF" d="M198,676.3v-0.8c-1.1-0.2-1.7-0.7-1.8-1.9h1.2c0,0.4,0.2,0.9,0.6,1v-2c-1.2-0.6-1.7-1.1-1.7-1.9
				c0-0.9,0.7-1.5,1.7-1.6v-0.4h0.7v0.4c1.2,0.1,1.8,0.8,1.8,1.7h-1.2c-0.1-0.5-0.2-0.7-0.6-0.8v1.6c1.2,0.5,2.1,1,2.1,2.2
				c0,1-0.8,1.8-2.1,1.8v0.8L198,676.3L198,676.3z M198,669.9c-0.4,0.1-0.5,0.2-0.5,0.5s0.1,0.4,0.5,0.7V669.9z M199.6,673.7
				c0-0.4-0.3-0.7-0.9-1v1.7C199.3,674.5,199.6,674.2,199.6,673.7z"/>
		</g>
		<path d="M196.1,664.5c0,0,0.1,0.3,1.6,0.6s3.5-0.6,3.5-0.6s0.2-0.2,0.6-0.1c0.4,0.1,0.7,0.6,0.4,0.9c-0.4,0.3-1,0.9-1.7,1
			s-2.6-0.1-3.7-0.5c-1.2-0.4-1.5-0.7-1.5-1C195.1,664.6,195.7,664.3,196.1,664.5z"/>
	</g>
	<g>
		
			<linearGradient id="SVGID_3_" gradientUnits="userSpaceOnUse" x1="903.4618" y1="-2153.5952" x2="973.6378" y2="-2159.7932" gradientTransform="matrix(0.227 0 0 -0.227 5.655301e-02 179.7833)">
			<stop  offset="0" style="stop-color:#6D6E71;stop-opacity:0"/>
			<stop  offset="1" style="stop-color:#6D6E71"/>
		</linearGradient>
		<path fill="url(#SVGID_3_)" d="M218.6,666.6c-2.8,0-5.5,0.2-7.6,0.6c-0.3-0.1-0.7-0.2-0.7-0.4c0-0.5,0.9-0.7,0.6-1.1
			c-0.3-0.4-0.8,0.4-1.3,0.4s-0.6-0.2-1.7-0.4c-1.1-0.2-1,0.6-1.1,0.9s-0.8,0.3-1.3,0.4c-0.5,0.1,0.4,0.6,1.1,0.6
			c0.5,0,1.2,0.1,1.7,0.2c-1.9,0.6-3,1.3-3,2.1c0,1.8,6,3.3,13.5,3.3c7.4,0,13.5-1.5,13.5-3.3C232,668.1,226,666.6,218.6,666.6z"/>
		<g>
			<path fill="#39B54A" d="M233,666.9c0-2-0.8-3.7-2-5.2c-1-1.2-2.2-2.2-3.7-2.9c0,0,0,0-0.1,0c-0.4-0.2-1.4-0.7-1.3-2l0,0v-0.1
				c0-0.3,0-0.6,0.1-1c0.1-0.9,0.5-1.8,0.9-2.6c0.1-0.2,0.1-0.4,0.2-0.6c0-0.3-0.2-0.5-0.5-0.6c-0.4,0-0.7,0.1-1,0.2
				c-0.2,0.1-0.3,0.2-0.5,0.3c-0.4,0.2-0.6,0.1-0.8-0.3c0-0.1-0.1-0.2-0.1-0.3c-0.1-0.2-0.2-0.4-0.3-0.5c-0.5-0.6-1.2-0.6-1.6,0
				c-0.2,0.2-0.3,0.4-0.3,0.6c-0.2,0.4-0.4,0.7-0.9,0.7c-0.3,0-0.6,0-1,0c-0.2,0-0.4,0-0.7,0c-0.6,0-0.9,0.5-0.6,1.1
				c0,0.1,0.1,0.2,0.2,0.3c0.4,1,0.8,1.9,1.2,2.9c0,0.1,0.1,0.2,0.2,0.3c0.3,0.8-0.3,0.9-0.4,1c-2.3,0.7-4.1,2.1-5.5,4
				c-0.7,0.9-1.2,1.9-1.4,3c-0.3,1-0.3,2-0.2,3c0.1,0.7,0.3,1.3,0.6,2c0.5,0.9,1.3,1.5,2.3,1.8c1,0.4,2,0.6,3.1,0.7
				c1.3,0.1,2.7,0.2,3.9,0.2c1.4-0.1,2.6-0.1,3.8-0.2c1.1-0.1,2.3-0.3,3.4-0.7c1.3-0.5,2.3-1.3,2.7-2.7
				C233,668.6,233.1,667.7,233,666.9z"/>
			<path d="M222.8,673.3L222.8,673.3c-0.4,0-0.7,0-1.1-0.1c-0.9,0-1.9-0.1-2.8-0.2c-1.2-0.1-2.2-0.3-3.2-0.7c-1.1-0.5-1.9-1.1-2.4-2
				c-0.3-0.6-0.5-1.2-0.7-2.1c-0.1-1.1-0.1-2.2,0.2-3.1c0.3-1.1,0.8-2.1,1.5-3c1.5-2,3.4-3.4,5.7-4.1c0.1,0,0.1,0,0.2-0.1
				c0-0.1,0-0.2,0-0.4c-0.1-0.1-0.2-0.2-0.2-0.4c-0.3-0.7-0.6-1.4-0.9-2.1c-0.1-0.2-0.2-0.5-0.3-0.7c0-0.1-0.1-0.1-0.1-0.2
				c0,0,0-0.1-0.1-0.1c-0.2-0.4-0.2-0.7,0-1s0.5-0.5,0.9-0.5c0.1,0,0.2,0,0.4,0c0.1,0,0.2,0,0.3,0h0.1c0.3,0,0.5,0,0.8,0
				s0.5-0.2,0.6-0.6c0.1-0.3,0.2-0.5,0.4-0.7c0.3-0.3,0.6-0.5,1-0.5l0,0c0.4,0,0.8,0.2,1,0.5c0.1,0.2,0.2,0.3,0.3,0.5v0.1
				c0,0.1,0.1,0.2,0.1,0.2v0.1c0.1,0.2,0.2,0.2,0.4,0.2c0.1,0,0.2-0.1,0.3-0.2c0,0,0.1-0.1,0.2-0.1c0.4-0.2,0.8-0.3,1.2-0.3
				c0.5,0.1,0.8,0.4,0.7,0.9c0,0.2-0.1,0.5-0.2,0.7c-0.5,0.9-0.7,1.7-0.9,2.5c0,0.3-0.1,0.6-0.1,0.9c0,0,0,0.1,0,0.2
				c-0.1,1.1,0.7,1.5,1.1,1.7h0.1c1.5,0.7,2.8,1.7,3.8,3c1.4,1.7,2,3.4,2.1,5.3l0,0c0,1-0.1,1.8-0.3,2.5c-0.4,1.4-1.4,2.3-2.9,2.9
				c-1,0.4-2.1,0.6-3.5,0.7c-0.8,0.1-1.7,0.1-2.6,0.1C223.7,673.2,223.3,673.3,222.8,673.3L222.8,673.3z M219.5,653.1L219.5,653.1
				c-0.3,0-0.4,0.1-0.5,0.2c-0.1,0.1,0,0.3,0,0.5c0,0,0,0.1,0.1,0.1c0,0.1,0.1,0.2,0.1,0.2c0.1,0.2,0.2,0.5,0.3,0.7
				c0.3,0.7,0.6,1.4,0.9,2.1c0,0.1,0.1,0.2,0.2,0.2l0,0v0.1c0.1,0.4,0.1,0.7,0,0.9s-0.3,0.3-0.5,0.4c-2.2,0.7-3.9,2-5.4,3.9
				c-0.7,0.9-1.1,1.8-1.4,2.8c-0.2,0.9-0.3,1.8-0.1,2.9c0.1,0.7,0.3,1.3,0.6,1.8c0.5,0.7,1.1,1.3,2.1,1.7c0.9,0.4,1.9,0.6,3,0.7
				c0.9,0.1,1.9,0.1,2.8,0.2c0.4,0,0.7,0,1.1,0.1c0.4,0,0.8,0,1.2,0c0.9,0,1.7-0.1,2.5-0.1c1.3-0.1,2.3-0.3,3.3-0.7
				c1.3-0.5,2.2-1.3,2.5-2.5c0.2-0.7,0.3-1.5,0.3-2.3l0,0c0-1.7-0.7-3.4-2-5c-1-1.2-2.2-2.2-3.6-2.8l0,0l0,0
				c-0.5-0.2-1.5-0.8-1.5-2.2v-0.1c0-0.3,0-0.7,0.1-1c0.1-0.9,0.4-1.7,0.9-2.7c0.1-0.1,0.1-0.3,0.1-0.5c0-0.1,0-0.2-0.2-0.2
				s-0.5,0-0.8,0.2c0,0-0.1,0-0.1,0.1c-0.1,0.1-0.2,0.1-0.4,0.2c-0.5,0.2-0.9,0.1-1.2-0.5c0,0,0-0.1-0.1-0.2c0,0,0-0.1-0.1-0.2V652
				c-0.1-0.1-0.1-0.3-0.2-0.4c-0.2-0.2-0.4-0.3-0.6-0.3s-0.4,0.1-0.6,0.3c-0.1,0.1-0.2,0.3-0.3,0.5c-0.2,0.5-0.6,0.9-1.1,1
				c-0.3,0-0.6,0-0.9,0h-0.1c-0.1,0-0.2,0-0.3,0C219.7,653.1,219.6,653.1,219.5,653.1z"/>
		</g>
		<path opacity="0.51" fill="#A7A9AC" enable-background="new    " d="M221,657.7c0,0-1.2-2.6-1.4-3.2s-0.7-1.2-0.4-1.3s1.1,0,1.6,0
			c0.4,0,1.1-0.1,1.2-0.4c0.1-0.3,0.5-1.2,0.9,0s0.2,2.5,0.5,3.4c0.2,1,0.4,1.8,0.4,1.8s-1-0.8-1.3-1.6c-0.3-0.7-1.7-2.2-1.4-0.6
			c0.3,1.6,1.7,2.2,1.7,2.2S221.4,658,221,657.7z"/>
		
			<linearGradient id="SVGID_4_" gradientUnits="userSpaceOnUse" x1="937.6195" y1="-2123.7524" x2="1026.444" y2="-2123.7524" gradientTransform="matrix(0.227 0 0 -0.227 5.655301e-02 179.7833)">
			<stop  offset="0" style="stop-color:#39B54A;stop-opacity:0"/>
			<stop  offset="1.641512e-02" style="stop-color:#3DB649;stop-opacity:1.641512e-02"/>
			<stop  offset="0.5039" style="stop-color:#A4DD22;stop-opacity:0.5039"/>
			<stop  offset="0.8417" style="stop-color:#E6F609;stop-opacity:0.8417"/>
			<stop  offset="1" style="stop-color:#FFFF00"/>
		</linearGradient>
		<path opacity="0.4" fill="url(#SVGID_4_)" enable-background="new    " d="M233,666.9c0-2-0.8-3.7-2-5.2c-1-1.2-2.2-2.2-3.7-2.9
			c0,0,0,0-0.1,0c-0.4-0.2-1.4-0.7-1.3-2l0,0v-0.1c0-0.3,0-0.6,0.1-1c0.1-0.9,0.5-1.8,0.9-2.6c0.1-0.2,0.1-0.4,0.2-0.6
			c0-0.3-0.2-0.5-0.5-0.6c-0.4,0-0.7,0.1-1,0.2c-0.2,0.1-0.3,0.2-0.5,0.3c-0.4,0.2-0.6,0.1-0.8-0.3c0-0.1-0.1-0.2-0.1-0.3
			c-0.1-0.2-0.2-0.4-0.3-0.5c-0.5-0.6-1.2-0.6-1.6,0c-0.2,0.2-0.3,0.4-0.3,0.6c-0.2,0.4-0.4,0.7-0.9,0.7c-0.3,0-0.6,0-1,0
			c-0.2,0-0.4,0-0.7,0c-0.6,0-0.9,0.5-0.6,1.1c0,0.1,0.1,0.2,0.2,0.3c0.4,1,0.8,1.9,1.2,2.9c0,0.1,0.1,0.2,0.2,0.3
			c0.3,0.8-0.3,0.9-0.4,1c-2.3,0.7-4.1,2.1-5.5,4c-0.7,0.9-1.2,1.9-1.4,3c-0.3,1-0.3,2-0.2,3c0.1,0.7,0.3,1.3,0.6,2
			c0.5,0.9,1.3,1.5,2.3,1.8c1,0.4,2,0.6,3.1,0.7c1.3,0.1,2.7,0.2,3.9,0.2c1.4-0.1,2.6-0.1,3.8-0.2c1.1-0.1,2.3-0.3,3.4-0.7
			c1.3-0.5,2.3-1.3,2.7-2.7C233,668.6,233.1,667.7,233,666.9z"/>
		<path opacity="0.51" fill="#A7A9AC" enable-background="new    " d="M223.4,659.3c0,0-2.3,1-3.5,2.2s-2.2,2.5-1.8,4.8
			s1.6,4.1,3.4,4.7c1.8,0.6,6.9,1.3,3.3,1.4c-3.6,0.1-4.4,0.4-8.4-0.6c-3.9-1-3-6.2-3-6.2s0.9-3,3.2-4.9c2.2-1.9,4.1-2.2,4.1-2.2
			S222.2,659.3,223.4,659.3z"/>
		<g>
			<path fill="#FFFFFF" d="M222.5,669v-0.8c-1.1-0.2-1.7-0.7-1.8-1.9h1.2c0,0.4,0.2,0.9,0.6,1v-2c-1.2-0.6-1.7-1.1-1.7-1.9
				c0-0.9,0.7-1.5,1.7-1.6v-0.4h0.7v0.4c1.2,0.1,1.8,0.8,1.8,1.7h-1.2c-0.1-0.5-0.2-0.7-0.6-0.8v1.6c1.2,0.5,2.1,1,2.1,2.2
				c0,1-0.8,1.8-2.1,1.8v0.8L222.5,669L222.5,669z M222.5,662.7c-0.4,0.1-0.5,0.2-0.5,0.5s0.1,0.4,0.5,0.7V662.7z M224.1,666.5
				c0-0.4-0.3-0.7-0.9-1v1.7C223.8,667.2,224.1,666.9,224.1,666.5z"/>
		</g>
		<path d="M220.6,657.3c0,0,0.1,0.3,1.6,0.6c1.5,0.2,3.5-0.6,3.5-0.6s0.2-0.2,0.6-0.1c0.4,0.1,0.7,0.6,0.4,0.9c-0.4,0.3-1,0.9-1.7,1
			s-2.6-0.1-3.7-0.5c-1.2-0.4-1.5-0.7-1.5-1C219.7,657.3,220.2,657,220.6,657.3z"/>
	</g>
	<g>
		
			<linearGradient id="SVGID_5_" gradientUnits="userSpaceOnUse" x1="856.4486" y1="-2200.7429" x2="926.6248" y2="-2206.9409" gradientTransform="matrix(0.227 0 0 -0.227 5.655301e-02 179.7833)">
			<stop  offset="0" style="stop-color:#6D6E71;stop-opacity:0"/>
			<stop  offset="1" style="stop-color:#6D6E71"/>
		</linearGradient>
		<path fill="url(#SVGID_5_)" d="M207.9,677.3c-2.8,0-5.5,0.2-7.6,0.6c-0.3-0.1-0.7-0.2-0.7-0.4c0-0.5,0.9-0.7,0.6-1.1
			c-0.3-0.4-0.8,0.4-1.3,0.4s-0.6-0.2-1.7-0.4c-1.1-0.2-1,0.6-1.1,0.9c-0.2,0.3-0.8,0.3-1.3,0.4s0.4,0.6,1.1,0.6
			c0.5,0,1.2,0.1,1.7,0.2c-1.9,0.6-3,1.3-3,2.1c0,1.8,6,3.3,13.5,3.3c7.4,0,13.5-1.5,13.5-3.3C221.4,678.8,215.3,677.3,207.9,677.3z
			"/>
		<g>
			<path fill="#39B54A" d="M222.4,677.6c0-2-0.8-3.7-2-5.2c-1-1.2-2.2-2.2-3.7-2.9c0,0,0,0-0.1,0c-0.4-0.2-1.4-0.7-1.3-2l0,0v-0.1
				c0-0.3,0-0.6,0.1-1c0.1-0.9,0.5-1.8,0.9-2.6c0.1-0.2,0.1-0.4,0.2-0.6c0-0.3-0.2-0.5-0.5-0.6c-0.4,0-0.7,0.1-1,0.2
				c-0.2,0.1-0.3,0.2-0.5,0.3c-0.4,0.2-0.6,0.1-0.8-0.3c0-0.1-0.1-0.2-0.1-0.3c-0.1-0.2-0.2-0.4-0.3-0.5c-0.5-0.6-1.2-0.6-1.6,0
				c-0.2,0.2-0.3,0.4-0.3,0.6c-0.2,0.4-0.4,0.7-0.9,0.7c-0.3,0-0.6,0-1,0c-0.2,0-0.4,0-0.7,0c-0.6,0-0.9,0.5-0.6,1.1
				c0,0.1,0.1,0.2,0.2,0.3c0.4,1,0.8,1.9,1.2,2.9c0,0.1,0.1,0.2,0.2,0.3c0.3,0.8-0.3,0.9-0.4,1c-2.3,0.7-4.1,2.1-5.5,4
				c-0.7,0.9-1.2,1.9-1.4,3c-0.3,1-0.3,2-0.2,3c0.1,0.7,0.3,1.3,0.6,2c0.5,0.9,1.3,1.5,2.3,1.8c1,0.4,2,0.6,3.1,0.7
				c1.3,0.1,2.7,0.2,3.9,0.2c1.4-0.1,2.6-0.1,3.8-0.2c1.1-0.1,2.3-0.3,3.4-0.7c1.3-0.5,2.3-1.3,2.7-2.7
				C222.3,679.2,222.4,678.4,222.4,677.6z"/>
			<path d="M212.2,683.9L212.2,683.9c-0.4,0-0.7,0-1.1-0.1c-0.9,0-1.9-0.1-2.8-0.2c-1.2-0.1-2.2-0.3-3.2-0.7c-1.1-0.5-1.9-1.1-2.4-2
				c-0.3-0.6-0.5-1.2-0.7-2.1c-0.1-1.1-0.1-2.2,0.2-3.1c0.3-1.1,0.8-2.1,1.5-3c1.5-2,3.4-3.4,5.7-4.1c0.1,0,0.1,0,0.2-0.1
				c0-0.1,0-0.2,0-0.4c-0.1-0.1-0.2-0.2-0.2-0.4c-0.3-0.7-0.6-1.4-0.9-2.1c-0.1-0.2-0.2-0.5-0.3-0.7c0-0.1-0.1-0.1-0.1-0.2
				c0,0,0-0.1-0.1-0.1c-0.2-0.4-0.2-0.7,0-1s0.5-0.5,0.9-0.5c0.1,0,0.2,0,0.4,0c0.1,0,0.2,0,0.3,0h0.1c0.3,0,0.5,0,0.8,0
				s0.5-0.2,0.6-0.6c0.1-0.3,0.2-0.5,0.4-0.7c0.3-0.3,0.6-0.5,1-0.5l0,0c0.4,0,0.8,0.2,1,0.5c0.1,0.2,0.2,0.3,0.3,0.5v0.1
				c0,0.1,0.1,0.2,0.1,0.2v0.1c0.1,0.2,0.2,0.2,0.4,0.2c0.1,0,0.2-0.1,0.3-0.2c0,0,0.1-0.1,0.2-0.1c0.4-0.2,0.8-0.3,1.2-0.3
				c0.5,0.1,0.8,0.4,0.7,0.9c0,0.2-0.1,0.5-0.2,0.7c-0.5,0.9-0.7,1.7-0.9,2.5c0,0.3-0.1,0.6-0.1,0.9c0,0,0,0.1,0,0.2
				c-0.1,1.1,0.7,1.5,1.1,1.7h0.1c1.5,0.7,2.8,1.7,3.8,3c1.4,1.7,2,3.4,2.1,5.3l0,0c0,1-0.1,1.8-0.3,2.5c-0.4,1.4-1.4,2.3-2.9,2.9
				c-1,0.4-2.1,0.6-3.5,0.7c-0.8,0.1-1.7,0.1-2.6,0.1C213,683.9,212.6,683.9,212.2,683.9L212.2,683.9z M208.9,663.7
				C208.9,663.7,208.8,663.7,208.9,663.7c-0.3,0-0.4,0.1-0.5,0.2c-0.1,0.1,0,0.3,0,0.5c0,0,0,0.1,0.1,0.1c0,0.1,0.1,0.2,0.1,0.2
				c0.1,0.2,0.2,0.5,0.3,0.7c0.3,0.7,0.6,1.4,0.9,2.1c0,0.1,0.1,0.2,0.2,0.2l0,0v0.1c0.1,0.4,0.1,0.7,0,0.9s-0.3,0.3-0.5,0.4
				c-2.2,0.7-3.9,2-5.4,3.9c-0.7,0.9-1.1,1.8-1.4,2.8c-0.2,0.9-0.3,1.8-0.1,2.9c0.1,0.7,0.3,1.3,0.6,1.8c0.5,0.7,1.1,1.3,2.1,1.7
				c0.9,0.4,1.9,0.6,3,0.7c0.9,0.1,1.9,0.1,2.8,0.2c0.4,0,0.7,0,1.1,0.1c0.4,0,0.8,0,1.2,0c0.9,0,1.7-0.1,2.5-0.1
				c1.3-0.1,2.3-0.3,3.3-0.7c1.3-0.5,2.2-1.3,2.5-2.5c0.2-0.7,0.3-1.5,0.3-2.3l0,0c0-1.7-0.7-3.4-2-5c-1-1.2-2.2-2.2-3.6-2.8l0,0
				l0,0c-0.5-0.2-1.5-0.8-1.5-2.2v-0.1c0-0.3,0-0.7,0.1-1c0.1-0.9,0.4-1.7,0.9-2.7c0.1-0.1,0.1-0.3,0.1-0.5c0-0.1,0-0.2-0.2-0.2
				s-0.5,0-0.8,0.2c0,0-0.1,0-0.1,0.1c-0.1,0.1-0.2,0.1-0.4,0.2c-0.5,0.2-0.9,0.1-1.2-0.5c0,0,0-0.1-0.1-0.2c0,0,0-0.1-0.1-0.2v-0.1
				c-0.1-0.1-0.1-0.3-0.2-0.4c-0.2-0.2-0.4-0.3-0.6-0.3s-0.4,0.1-0.6,0.3c-0.1,0.1-0.2,0.3-0.3,0.5c-0.2,0.5-0.6,0.9-1.1,1
				c-0.3,0-0.6,0-0.9,0h-0.1c-0.1,0-0.2,0-0.3,0C209,663.7,208.9,663.7,208.9,663.7z"/>
		</g>
		<path opacity="0.51" fill="#A7A9AC" enable-background="new    " d="M210.3,668.4c0,0-1.2-2.6-1.4-3.2s-0.7-1.2-0.4-1.3
			s1.1,0,1.6,0c0.4,0,1.1-0.1,1.2-0.4c0.1-0.3,0.5-1.2,0.9,0s0.2,2.5,0.5,3.4c0.2,1,0.4,1.8,0.4,1.8s-1-0.8-1.3-1.6
			s-1.7-2.2-1.4-0.6c0.3,1.6,1.7,2.2,1.7,2.2S210.7,668.7,210.3,668.4z"/>
		
			<linearGradient id="SVGID_6_" gradientUnits="userSpaceOnUse" x1="890.6767" y1="-2170.8889" x2="979.4866" y2="-2170.8889" gradientTransform="matrix(0.227 0 0 -0.227 5.655301e-02 179.7833)">
			<stop  offset="0" style="stop-color:#39B54A;stop-opacity:0"/>
			<stop  offset="1.641512e-02" style="stop-color:#3DB649;stop-opacity:1.641512e-02"/>
			<stop  offset="0.5039" style="stop-color:#A4DD22;stop-opacity:0.5039"/>
			<stop  offset="0.8417" style="stop-color:#E6F609;stop-opacity:0.8417"/>
			<stop  offset="1" style="stop-color:#FFFF00"/>
		</linearGradient>
		<path opacity="0.4" fill="url(#SVGID_6_)" enable-background="new    " d="M222.4,677.6c0-2-0.8-3.7-2-5.2c-1-1.2-2.2-2.2-3.7-2.9
			c0,0,0,0-0.1,0c-0.4-0.2-1.4-0.7-1.3-2l0,0v-0.1c0-0.3,0-0.6,0.1-1c0.1-0.9,0.5-1.8,0.9-2.6c0.1-0.2,0.1-0.4,0.2-0.6
			c0-0.3-0.2-0.5-0.5-0.6c-0.4,0-0.7,0.1-1,0.2c-0.2,0.1-0.3,0.2-0.5,0.3c-0.4,0.2-0.6,0.1-0.8-0.3c0-0.1-0.1-0.2-0.1-0.3
			c-0.1-0.2-0.2-0.4-0.3-0.5c-0.5-0.6-1.2-0.6-1.6,0c-0.2,0.2-0.3,0.4-0.3,0.6c-0.2,0.4-0.4,0.7-0.9,0.7c-0.3,0-0.6,0-1,0
			c-0.2,0-0.4,0-0.7,0c-0.6,0-0.9,0.5-0.6,1.1c0,0.1,0.1,0.2,0.2,0.3c0.4,1,0.8,1.9,1.2,2.9c0,0.1,0.1,0.2,0.2,0.3
			c0.3,0.8-0.3,0.9-0.4,1c-2.3,0.7-4.1,2.1-5.5,4c-0.7,0.9-1.2,1.9-1.4,3c-0.3,1-0.3,2-0.2,3c0.1,0.7,0.3,1.3,0.6,2
			c0.5,0.9,1.3,1.5,2.3,1.8c1,0.4,2,0.6,3.1,0.7c1.3,0.1,2.7,0.2,3.9,0.2c1.4-0.1,2.6-0.1,3.8-0.2c1.1-0.1,2.3-0.3,3.4-0.7
			c1.3-0.5,2.3-1.3,2.7-2.7C222.3,679.2,222.4,678.4,222.4,677.6z"/>
		<path opacity="0.51" fill="#A7A9AC" enable-background="new    " d="M212.7,670c0,0-2.3,1-3.5,2.2s-2.2,2.5-1.8,4.8
			s1.6,4.1,3.4,4.7s6.9,1.3,3.3,1.4c-3.6,0.1-4.4,0.4-8.4-0.6c-3.9-1-3-6.2-3-6.2s0.9-3,3.2-4.9c2.2-1.9,4.1-2.2,4.1-2.2
			S211.5,670,212.7,670z"/>
		<g>
			<path fill="#FFFFFF" d="M211.9,679.7v-0.8c-1.1-0.2-1.7-0.7-1.8-1.9h1.2c0,0.4,0.2,0.9,0.6,1v-2c-1.2-0.6-1.7-1.1-1.7-1.9
				c0-0.9,0.7-1.5,1.7-1.6V672h0.7v0.4c1.2,0.1,1.8,0.8,1.8,1.7h-1.2c-0.1-0.5-0.2-0.7-0.6-0.8v1.6c1.2,0.5,2.1,1,2.1,2.2
				c0,1-0.8,1.8-2.1,1.8v0.8H211.9L211.9,679.7z M211.9,673.3c-0.4,0.1-0.5,0.2-0.5,0.5s0.1,0.4,0.5,0.7V673.3z M213.4,677.1
				c0-0.4-0.3-0.7-0.9-1v1.7C213.1,677.9,213.4,677.6,213.4,677.1z"/>
		</g>
		<path d="M209.9,667.9c0,0,0.1,0.3,1.6,0.6c1.5,0.2,3.5-0.6,3.5-0.6s0.2-0.2,0.6-0.1c0.4,0.1,0.7,0.6,0.4,0.9c-0.4,0.3-1,0.9-1.7,1
			s-2.6-0.1-3.7-0.5c-1.2-0.4-1.5-0.7-1.5-1C209,668,209.6,667.7,209.9,667.9z"/>
	</g>
	<g>
		
			<linearGradient id="SVGID_7_" gradientUnits="userSpaceOnUse" x1="960.6464" y1="-2180.4602" x2="1030.8226" y2="-2186.6582" gradientTransform="matrix(0.227 0 0 -0.227 5.655301e-02 179.7833)">
			<stop  offset="0" style="stop-color:#6D6E71;stop-opacity:0"/>
			<stop  offset="1" style="stop-color:#6D6E71"/>
		</linearGradient>
		<path fill="url(#SVGID_7_)" d="M231.6,672.7c-2.8,0-5.5,0.2-7.6,0.6c-0.3-0.1-0.7-0.2-0.7-0.4c0-0.5,0.9-0.7,0.6-1.1
			c-0.3-0.4-0.8,0.4-1.3,0.4s-0.6-0.2-1.7-0.4c-1.1-0.2-1,0.6-1.1,0.9s-0.8,0.3-1.3,0.4s0.4,0.6,1.1,0.6c0.5,0,1.2,0.1,1.7,0.2
			c-1.9,0.6-3,1.3-3,2.1c0,1.8,6,3.3,13.5,3.3c7.4,0,13.5-1.5,13.5-3.3C245,674.1,239,672.7,231.6,672.7z"/>
		<g>
			<path fill="#39B54A" d="M246,673c0-2-0.8-3.7-2-5.2c-1-1.2-2.2-2.2-3.7-2.9c0,0,0,0-0.1,0c-0.4-0.2-1.4-0.7-1.3-2l0,0v-0.1
				c0-0.3,0-0.6,0.1-1c0.1-0.9,0.5-1.8,0.9-2.6c0.1-0.2,0.1-0.4,0.2-0.6c0-0.3-0.2-0.5-0.5-0.6c-0.4,0-0.7,0.1-1,0.2
				c-0.2,0.1-0.3,0.2-0.5,0.3c-0.4,0.2-0.6,0.1-0.8-0.3c0-0.1-0.1-0.2-0.1-0.3c-0.1-0.2-0.2-0.4-0.3-0.5c-0.5-0.6-1.2-0.6-1.6,0
				c-0.2,0.2-0.3,0.4-0.3,0.6c-0.2,0.4-0.4,0.7-0.9,0.7c-0.3,0-0.6,0-1,0c-0.2,0-0.4,0-0.7,0c-0.6,0-0.9,0.5-0.6,1.1
				c0,0.1,0.1,0.2,0.2,0.3c0.4,1,0.8,1.9,1.2,2.9c0,0.1,0.1,0.2,0.2,0.3c0.3,0.8-0.3,0.9-0.4,1c-2.3,0.7-4.1,2.1-5.5,4
				c-0.7,0.9-1.2,1.9-1.4,3c-0.3,1-0.3,2-0.2,3c0.1,0.7,0.3,1.3,0.6,2c0.5,0.9,1.3,1.5,2.3,1.8c1,0.4,2,0.6,3.1,0.7
				c1.3,0.1,2.7,0.2,3.9,0.2c1.4-0.1,2.6-0.1,3.8-0.2c1.1-0.1,2.3-0.3,3.4-0.7c1.3-0.5,2.3-1.3,2.7-2.7C246,674.6,246,673.8,246,673
				z"/>
			<path d="M235.8,679.3L235.8,679.3c-0.4,0-0.7,0-1.1-0.1c-0.9,0-1.9-0.1-2.8-0.2c-1.2-0.1-2.2-0.3-3.2-0.7c-1.1-0.5-1.9-1.1-2.4-2
				c-0.3-0.6-0.5-1.2-0.7-2.1c-0.1-1.1-0.1-2.2,0.2-3.1c0.3-1.1,0.8-2.1,1.5-3c1.5-2,3.4-3.4,5.7-4.1c0.1,0,0.1,0,0.2-0.1
				c0-0.1,0-0.2,0-0.4c-0.1-0.1-0.2-0.2-0.2-0.4c-0.3-0.7-0.6-1.4-0.9-2.1c-0.1-0.2-0.2-0.5-0.3-0.7c0-0.1-0.1-0.1-0.1-0.2
				c0,0,0-0.1-0.1-0.1c-0.2-0.4-0.2-0.7,0-1s0.5-0.5,0.9-0.5c0.1,0,0.2,0,0.4,0c0.1,0,0.2,0,0.3,0h0.1c0.3,0,0.5,0,0.8,0
				s0.5-0.2,0.6-0.6c0.1-0.3,0.2-0.5,0.4-0.7c0.3-0.3,0.6-0.5,1-0.5l0,0c0.4,0,0.8,0.2,1,0.5c0.1,0.2,0.2,0.3,0.3,0.5v0.1
				c0,0.1,0.1,0.2,0.1,0.2v0.1c0.1,0.2,0.2,0.2,0.4,0.2c0.1,0,0.2-0.1,0.3-0.2c0,0,0.1-0.1,0.2-0.1c0.4-0.2,0.8-0.3,1.2-0.3
				c0.5,0.1,0.8,0.4,0.7,0.9c0,0.2-0.1,0.5-0.2,0.7c-0.5,0.9-0.7,1.7-0.9,2.5c0,0.3-0.1,0.6-0.1,0.9c0,0,0,0.1,0,0.2
				c-0.1,1.1,0.7,1.5,1.1,1.7h0.1c1.5,0.7,2.8,1.7,3.8,3c1.4,1.7,2,3.4,2.1,5.3l0,0c0,1-0.1,1.8-0.3,2.5c-0.4,1.4-1.4,2.3-2.9,2.9
				c-1,0.4-2.1,0.6-3.5,0.7c-0.8,0.1-1.7,0.1-2.6,0.1C236.7,679.3,236.3,679.3,235.8,679.3L235.8,679.3z M232.5,659.1L232.5,659.1
				c-0.3,0-0.4,0.1-0.5,0.2s0,0.3,0,0.5c0,0,0,0.1,0.1,0.1c0,0.1,0.1,0.2,0.1,0.2c0.1,0.2,0.2,0.5,0.3,0.7c0.3,0.7,0.6,1.4,0.9,2.1
				c0,0.1,0.1,0.2,0.2,0.2l0,0v0.1c0.1,0.4,0.1,0.7,0,0.9s-0.3,0.3-0.5,0.4c-2.2,0.7-3.9,2-5.4,3.9c-0.7,0.9-1.1,1.8-1.4,2.8
				c-0.2,0.9-0.3,1.8-0.1,2.9c0.1,0.7,0.3,1.3,0.6,1.8c0.5,0.7,1.1,1.3,2.1,1.7c0.9,0.4,1.9,0.6,3,0.7c0.9,0.1,1.9,0.1,2.8,0.2
				c0.4,0,0.7,0,1.1,0.1c0.4,0,0.8,0,1.2,0c0.9,0,1.7-0.1,2.5-0.1c1.3-0.1,2.3-0.3,3.3-0.7c1.3-0.5,2.2-1.3,2.5-2.5
				c0.2-0.7,0.3-1.5,0.3-2.3l0,0c0-1.7-0.7-3.4-2-5c-1-1.2-2.2-2.2-3.6-2.8l0,0l0,0c-0.5-0.2-1.5-0.8-1.5-2.2v-0.1
				c0-0.3,0-0.7,0.1-1c0.1-0.9,0.4-1.7,0.9-2.7c0.1-0.1,0.1-0.3,0.1-0.5c0-0.1,0-0.2-0.2-0.2s-0.5,0-0.8,0.2c0,0-0.1,0-0.1,0.1
				c-0.1,0.1-0.2,0.1-0.4,0.2c-0.5,0.2-0.9,0.1-1.2-0.5c0,0,0-0.1-0.1-0.2c0,0,0-0.1-0.1-0.2V658c-0.1-0.1-0.1-0.3-0.2-0.4
				c-0.2-0.2-0.4-0.3-0.6-0.3c-0.2,0-0.4,0.1-0.6,0.3c-0.1,0.1-0.2,0.3-0.3,0.5c-0.2,0.5-0.6,0.9-1.1,1c-0.3,0-0.6,0-0.9,0h-0.1
				c-0.1,0-0.2,0-0.3,0C232.7,659.1,232.6,659.1,232.5,659.1z"/>
		</g>
		<path opacity="0.51" fill="#A7A9AC" enable-background="new    " d="M233.9,663.8c0,0-1.2-2.6-1.4-3.2s-0.7-1.2-0.4-1.3
			s1.1,0,1.6,0c0.4,0,1.1-0.1,1.2-0.4c0.1-0.3,0.5-1.2,0.9,0s0.2,2.5,0.5,3.4c0.2,1,0.4,1.8,0.4,1.8s-1-0.8-1.3-1.6
			c-0.3-0.7-1.7-2.2-1.4-0.6c0.3,1.6,1.7,2.2,1.7,2.2S234.4,664,233.9,663.8z"/>
		
			<linearGradient id="SVGID_8_" gradientUnits="userSpaceOnUse" x1="994.6415" y1="-2150.6245" x2="1083.4513" y2="-2150.6245" gradientTransform="matrix(0.227 0 0 -0.227 5.655301e-02 179.7833)">
			<stop  offset="0" style="stop-color:#39B54A;stop-opacity:0"/>
			<stop  offset="1.641512e-02" style="stop-color:#3DB649;stop-opacity:1.641512e-02"/>
			<stop  offset="0.5039" style="stop-color:#A4DD22;stop-opacity:0.5039"/>
			<stop  offset="0.8417" style="stop-color:#E6F609;stop-opacity:0.8417"/>
			<stop  offset="1" style="stop-color:#FFFF00"/>
		</linearGradient>
		<path opacity="0.4" fill="url(#SVGID_8_)" enable-background="new    " d="M246,673c0-2-0.8-3.7-2-5.2c-1-1.2-2.2-2.2-3.7-2.9
			c0,0,0,0-0.1,0c-0.4-0.2-1.4-0.7-1.3-2l0,0v-0.1c0-0.3,0-0.6,0.1-1c0.1-0.9,0.5-1.8,0.9-2.6c0.1-0.2,0.1-0.4,0.2-0.6
			c0-0.3-0.2-0.5-0.5-0.6c-0.4,0-0.7,0.1-1,0.2c-0.2,0.1-0.3,0.2-0.5,0.3c-0.4,0.2-0.6,0.1-0.8-0.3c0-0.1-0.1-0.2-0.1-0.3
			c-0.1-0.2-0.2-0.4-0.3-0.5c-0.5-0.6-1.2-0.6-1.6,0c-0.2,0.2-0.3,0.4-0.3,0.6c-0.2,0.4-0.4,0.7-0.9,0.7c-0.3,0-0.6,0-1,0
			c-0.2,0-0.4,0-0.7,0c-0.6,0-0.9,0.5-0.6,1.1c0,0.1,0.1,0.2,0.2,0.3c0.4,1,0.8,1.9,1.2,2.9c0,0.1,0.1,0.2,0.2,0.3
			c0.3,0.8-0.3,0.9-0.4,1c-2.3,0.7-4.1,2.1-5.5,4c-0.7,0.9-1.2,1.9-1.4,3c-0.3,1-0.3,2-0.2,3c0.1,0.7,0.3,1.3,0.6,2
			c0.5,0.9,1.3,1.5,2.3,1.8c1,0.4,2,0.6,3.1,0.7c1.3,0.1,2.7,0.2,3.9,0.2c1.4-0.1,2.6-0.1,3.8-0.2c1.1-0.1,2.3-0.3,3.4-0.7
			c1.3-0.5,2.3-1.3,2.7-2.7C246,674.6,246,673.8,246,673z"/>
		<path opacity="0.51" fill="#A7A9AC" enable-background="new    " d="M236.3,665.4c0,0-2.3,1-3.5,2.2s-2.2,2.5-1.8,4.8
			s1.6,4.1,3.4,4.7c1.8,0.6,6.9,1.3,3.3,1.4c-3.6,0.1-4.4,0.4-8.4-0.6c-3.9-1-3-6.2-3-6.2s0.9-3,3.2-4.9c2.2-1.9,4.1-2.2,4.1-2.2
			S235.2,665.4,236.3,665.4z"/>
		<g>
			<path fill="#FFFFFF" d="M235.5,675.1v-0.8c-1.1-0.2-1.7-0.7-1.8-1.9h1.2c0,0.4,0.2,0.9,0.6,1v-2c-1.2-0.6-1.7-1.1-1.7-1.9
				c0-0.9,0.7-1.5,1.7-1.6v-0.4h0.7v0.4c1.2,0.1,1.8,0.8,1.8,1.7h-1.2c-0.1-0.5-0.2-0.7-0.6-0.8v1.6c1.2,0.5,2.1,1,2.1,2.2
				c0,1-0.8,1.8-2.1,1.8v0.8L235.5,675.1L235.5,675.1z M235.5,668.7c-0.4,0.1-0.5,0.2-0.5,0.5s0.1,0.4,0.5,0.7V668.7z M237.1,672.5
				c0-0.4-0.3-0.7-0.9-1v1.7C236.8,673.3,237.1,673,237.1,672.5z"/>
		</g>
		<path d="M233.6,663.3c0,0,0.1,0.3,1.6,0.6s3.5-0.6,3.5-0.6s0.2-0.2,0.6-0.1c0.4,0.1,0.7,0.6,0.4,0.9c-0.4,0.3-1,0.9-1.7,1
			s-2.6-0.1-3.7-0.5c-1.2-0.4-1.5-0.7-1.5-1C232.6,663.4,233.2,663.1,233.6,663.3z"/>
	</g>
	<g>
		
			<linearGradient id="SVGID_9_" gradientUnits="userSpaceOnUse" x1="972.5159" y1="-2224.5498" x2="1042.6921" y2="-2230.7478" gradientTransform="matrix(0.227 0 0 -0.227 5.655301e-02 179.7833)">
			<stop  offset="0" style="stop-color:#6D6E71;stop-opacity:0"/>
			<stop  offset="1" style="stop-color:#6D6E71"/>
		</linearGradient>
		<path fill="url(#SVGID_9_)" d="M234.2,682.7c-2.8,0-5.5,0.2-7.6,0.6c-0.3-0.1-0.7-0.2-0.7-0.4c0-0.5,0.9-0.7,0.6-1.1
			c-0.3-0.4-0.8,0.4-1.3,0.4s-0.6-0.2-1.7-0.4c-1.1-0.2-1,0.6-1.1,0.9s-0.8,0.3-1.3,0.4c-0.5,0.1,0.4,0.6,1.1,0.6
			c0.5,0,1.2,0.1,1.7,0.2c-1.9,0.6-3,1.3-3,2.1c0,1.8,6,3.3,13.5,3.3c7.4,0,13.5-1.5,13.5-3.3C247.7,684.2,241.7,682.7,234.2,682.7z
			"/>
		<g>
			<path fill="#39B54A" d="M248.7,683c0-2-0.8-3.7-2-5.2c-1-1.2-2.2-2.2-3.7-2.9c0,0,0,0-0.1,0c-0.4-0.2-1.4-0.7-1.3-2l0,0v-0.1
				c0-0.3,0-0.6,0.1-1c0.1-0.9,0.5-1.8,0.9-2.6c0.1-0.2,0.1-0.4,0.2-0.6c0-0.3-0.2-0.5-0.5-0.6c-0.4,0-0.7,0.1-1,0.2
				c-0.2,0.1-0.3,0.2-0.5,0.3c-0.4,0.2-0.6,0.1-0.8-0.3c0-0.1-0.1-0.2-0.1-0.3c-0.1-0.2-0.2-0.4-0.3-0.5c-0.5-0.6-1.2-0.6-1.6,0
				c-0.2,0.2-0.3,0.4-0.3,0.6c-0.2,0.4-0.4,0.7-0.9,0.7c-0.3,0-0.6,0-1,0c-0.2,0-0.4,0-0.7,0c-0.6,0-0.9,0.5-0.6,1.1
				c0,0.1,0.1,0.2,0.2,0.3c0.4,1,0.8,1.9,1.2,2.9c0,0.1,0.1,0.2,0.2,0.3c0.3,0.8-0.3,0.9-0.4,1c-2.3,0.7-4.1,2.1-5.5,4
				c-0.7,0.9-1.2,1.9-1.4,3c-0.3,1-0.3,2-0.2,3c0.1,0.7,0.3,1.3,0.6,2c0.5,0.9,1.3,1.5,2.3,1.8c1,0.4,2,0.6,3.1,0.7
				c1.3,0.1,2.7,0.2,3.9,0.2c1.4-0.1,2.6-0.1,3.8-0.2c1.1-0.1,2.3-0.3,3.4-0.7c1.3-0.5,2.3-1.3,2.7-2.7
				C248.6,684.7,248.7,683.9,248.7,683z"/>
			<path d="M238.5,689.4L238.5,689.4c-0.4,0-0.7,0-1.1-0.1c-0.9,0-1.9-0.1-2.8-0.2c-1.2-0.1-2.2-0.3-3.2-0.7c-1.1-0.5-1.9-1.1-2.4-2
				c-0.3-0.6-0.5-1.2-0.7-2.1c-0.1-1.1-0.1-2.2,0.2-3.1c0.3-1.1,0.8-2.1,1.5-3c1.5-2,3.4-3.4,5.7-4.1c0.1,0,0.1,0,0.2-0.1
				c0-0.1,0-0.2,0-0.4c-0.1-0.1-0.2-0.2-0.2-0.4c-0.3-0.7-0.6-1.4-0.9-2.1c-0.1-0.2-0.2-0.5-0.3-0.7c0-0.1-0.1-0.1-0.1-0.2
				c0,0,0-0.1-0.1-0.1c-0.2-0.4-0.2-0.7,0-1s0.5-0.5,0.9-0.5c0.1,0,0.2,0,0.4,0c0.1,0,0.2,0,0.3,0h0.1c0.3,0,0.5,0,0.8,0
				s0.5-0.2,0.6-0.6c0.1-0.3,0.2-0.5,0.4-0.7c0.3-0.3,0.6-0.5,1-0.5l0,0c0.4,0,0.8,0.2,1,0.5c0.1,0.2,0.2,0.3,0.3,0.5v0.1
				c0,0.1,0.1,0.2,0.1,0.2v0.1c0.1,0.2,0.2,0.2,0.4,0.2c0.1,0,0.2-0.1,0.3-0.2c0,0,0.1-0.1,0.2-0.1c0.4-0.2,0.8-0.3,1.2-0.3
				c0.5,0.1,0.8,0.4,0.7,0.9c0,0.2-0.1,0.5-0.2,0.7c-0.5,0.9-0.7,1.7-0.9,2.5c0,0.3-0.1,0.6-0.1,0.9c0,0,0,0.1,0,0.2
				c-0.1,1.1,0.7,1.5,1.1,1.7h0.1c1.5,0.7,2.8,1.7,3.8,3c1.4,1.7,2,3.4,2.1,5.3l0,0c0,1-0.1,1.8-0.3,2.5c-0.4,1.4-1.4,2.3-2.9,2.9
				c-1,0.4-2.1,0.6-3.5,0.7c-0.8,0.1-1.7,0.1-2.6,0.1C239.3,689.4,238.9,689.4,238.5,689.4L238.5,689.4z M235.2,669.2L235.2,669.2
				c-0.3,0-0.4,0.1-0.5,0.2c-0.1,0.1,0,0.3,0,0.5c0,0,0,0.1,0.1,0.1c0,0.1,0.1,0.2,0.1,0.2c0.1,0.2,0.2,0.5,0.3,0.7
				c0.3,0.7,0.6,1.4,0.9,2.1c0,0.1,0.1,0.2,0.2,0.2l0,0v0.1c0.1,0.4,0.1,0.7,0,0.9s-0.3,0.3-0.5,0.4c-2.2,0.7-3.9,2-5.4,3.9
				c-0.7,0.9-1.1,1.8-1.4,2.8c-0.2,0.9-0.3,1.8-0.1,2.9c0.1,0.7,0.3,1.3,0.6,1.8c0.5,0.7,1.1,1.3,2.1,1.7c0.9,0.4,1.9,0.6,3,0.7
				c0.9,0.1,1.9,0.1,2.8,0.2c0.4,0,0.7,0,1.1,0.1c0.4,0,0.8,0,1.2,0c0.9,0,1.7-0.1,2.5-0.1c1.3-0.1,2.3-0.3,3.3-0.7
				c1.3-0.5,2.2-1.3,2.5-2.5c0.2-0.7,0.3-1.5,0.3-2.3l0,0c0-1.7-0.7-3.4-2-5c-1-1.2-2.2-2.2-3.6-2.8l0,0l0,0
				c-0.5-0.2-1.5-0.8-1.5-2.2V673c0-0.3,0-0.7,0.1-1c0.1-0.9,0.4-1.7,0.9-2.7c0.1-0.1,0.1-0.3,0.1-0.5c0-0.1,0-0.2-0.2-0.2
				s-0.5,0-0.8,0.2c0,0-0.1,0-0.1,0.1c-0.1,0.1-0.2,0.1-0.4,0.2c-0.5,0.2-0.9,0.1-1.2-0.5c0,0,0-0.1-0.1-0.2c0,0,0-0.1-0.1-0.2v-0.1
				c-0.1-0.1-0.1-0.3-0.2-0.4c-0.2-0.2-0.4-0.3-0.6-0.3c-0.2,0-0.4,0.1-0.6,0.3c-0.1,0.1-0.2,0.3-0.3,0.5c-0.2,0.5-0.6,0.9-1.1,1
				c-0.3,0-0.6,0-0.9,0h-0.1c-0.1,0-0.2,0-0.3,0C235.4,669.2,235.3,669.2,235.2,669.2z"/>
		</g>
		<path opacity="0.51" fill="#A7A9AC" enable-background="new    " d="M236.6,673.8c0,0-1.2-2.6-1.4-3.2c-0.2-0.6-0.7-1.2-0.4-1.3
			s1.1,0,1.6,0c0.4,0,1.1-0.1,1.2-0.4c0.1-0.3,0.5-1.2,0.9,0s0.2,2.5,0.5,3.4c0.2,1,0.4,1.8,0.4,1.8s-1-0.8-1.3-1.6
			c-0.3-0.7-1.7-2.2-1.4-0.6c0.3,1.6,1.7,2.2,1.7,2.2S237.1,674.1,236.6,673.8z"/>
		
			<linearGradient id="SVGID_10_" gradientUnits="userSpaceOnUse" x1="1006.5358" y1="-2194.6775" x2="1095.3456" y2="-2194.6775" gradientTransform="matrix(0.227 0 0 -0.227 5.655301e-02 179.7833)">
			<stop  offset="0" style="stop-color:#39B54A;stop-opacity:0"/>
			<stop  offset="1.641512e-02" style="stop-color:#3DB649;stop-opacity:1.641512e-02"/>
			<stop  offset="0.5039" style="stop-color:#A4DD22;stop-opacity:0.5039"/>
			<stop  offset="0.8417" style="stop-color:#E6F609;stop-opacity:0.8417"/>
			<stop  offset="1" style="stop-color:#FFFF00"/>
		</linearGradient>
		<path opacity="0.4" fill="url(#SVGID_10_)" enable-background="new    " d="M248.7,683c0-2-0.8-3.7-2-5.2c-1-1.2-2.2-2.2-3.7-2.9
			c0,0,0,0-0.1,0c-0.4-0.2-1.4-0.7-1.3-2l0,0v-0.1c0-0.3,0-0.6,0.1-1c0.1-0.9,0.5-1.8,0.9-2.6c0.1-0.2,0.1-0.4,0.2-0.6
			c0-0.3-0.2-0.5-0.5-0.6c-0.4,0-0.7,0.1-1,0.2c-0.2,0.1-0.3,0.2-0.5,0.3c-0.4,0.2-0.6,0.1-0.8-0.3c0-0.1-0.1-0.2-0.1-0.3
			c-0.1-0.2-0.2-0.4-0.3-0.5c-0.5-0.6-1.2-0.6-1.6,0c-0.2,0.2-0.3,0.4-0.3,0.6c-0.2,0.4-0.4,0.7-0.9,0.7c-0.3,0-0.6,0-1,0
			c-0.2,0-0.4,0-0.7,0c-0.6,0-0.9,0.5-0.6,1.1c0,0.1,0.1,0.2,0.2,0.3c0.4,1,0.8,1.9,1.2,2.9c0,0.1,0.1,0.2,0.2,0.3
			c0.3,0.8-0.3,0.9-0.4,1c-2.3,0.7-4.1,2.1-5.5,4c-0.7,0.9-1.2,1.9-1.4,3c-0.3,1-0.3,2-0.2,3c0.1,0.7,0.3,1.3,0.6,2
			c0.5,0.9,1.3,1.5,2.3,1.8c1,0.4,2,0.6,3.1,0.7c1.3,0.1,2.7,0.2,3.9,0.2c1.4-0.1,2.6-0.1,3.8-0.2c1.1-0.1,2.3-0.3,3.4-0.7
			c1.3-0.5,2.3-1.3,2.7-2.7C248.6,684.7,248.7,683.9,248.7,683z"/>
		<path opacity="0.51" fill="#A7A9AC" enable-background="new    " d="M239,675.4c0,0-2.3,1-3.5,2.2s-2.2,2.5-1.8,4.8
			s1.6,4.1,3.4,4.7c1.8,0.6,6.9,1.3,3.3,1.4s-4.4,0.4-8.4-0.6c-3.9-1-3-6.2-3-6.2s0.9-3,3.2-4.9c2.2-1.9,4.1-2.2,4.1-2.2
			S237.8,675.4,239,675.4z"/>
		<g>
			<path fill="#FFFFFF" d="M238.2,685.1v-0.8c-1.1-0.2-1.7-0.7-1.8-1.9h1.2c0,0.4,0.2,0.9,0.6,1v-2c-1.2-0.6-1.7-1.1-1.7-1.9
				c0-0.9,0.7-1.5,1.7-1.6v-0.4h0.7v0.4c1.2,0.1,1.8,0.8,1.8,1.7h-1.2c-0.1-0.5-0.2-0.7-0.6-0.8v1.6c1.2,0.5,2.1,1,2.1,2.2
				c0,1-0.8,1.8-2.1,1.8v0.8L238.2,685.1L238.2,685.1z M238.2,678.8c-0.4,0.1-0.5,0.2-0.5,0.5s0.1,0.4,0.5,0.7V678.8z M239.8,682.6
				c0-0.4-0.3-0.7-0.9-1v1.7C239.4,683.4,239.8,683,239.8,682.6z"/>
		</g>
		<path d="M236.3,673.4c0,0,0.1,0.3,1.6,0.6s3.5-0.6,3.5-0.6s0.2-0.2,0.6-0.1c0.4,0.1,0.7,0.6,0.4,0.9c-0.4,0.3-1,0.9-1.7,1
			s-2.6-0.1-3.7-0.5c-1.2-0.4-1.5-0.7-1.5-1C235.3,673.4,235.9,673.1,236.3,673.4z"/>
	</g>
	<g>
		
			<linearGradient id="SVGID_11_" gradientUnits="userSpaceOnUse" x1="889.463" y1="-2268.582" x2="959.6389" y2="-2274.78" gradientTransform="matrix(0.227 0 0 -0.227 5.655301e-02 179.7833)">
			<stop  offset="0" style="stop-color:#6D6E71;stop-opacity:0"/>
			<stop  offset="1" style="stop-color:#6D6E71"/>
		</linearGradient>
		<path fill="url(#SVGID_11_)" d="M215.4,692.7c-2.8,0-5.5,0.2-7.6,0.6c-0.3-0.1-0.7-0.2-0.7-0.4c0-0.5,0.9-0.7,0.6-1.1
			c-0.3-0.4-0.8,0.4-1.3,0.4s-0.6-0.2-1.7-0.4s-1,0.6-1.1,0.9c-0.2,0.3-0.8,0.3-1.3,0.4c-0.5,0.1,0.4,0.6,1.1,0.6
			c0.5,0,1.2,0.1,1.7,0.2c-1.9,0.6-3,1.3-3,2.1c0,1.8,6,3.3,13.5,3.3c7.4,0,13.5-1.5,13.5-3.3C228.9,694.2,222.8,692.7,215.4,692.7z
			"/>
		<g>
			<path fill="#39B54A" d="M229.9,693c0-2-0.8-3.7-2-5.2c-1-1.2-2.2-2.2-3.7-2.9c0,0,0,0-0.1,0c-0.4-0.2-1.4-0.7-1.3-2l0,0v-0.1
				c0-0.3,0-0.6,0.1-1c0.1-0.9,0.5-1.8,0.9-2.6c0.1-0.2,0.1-0.4,0.2-0.6c0-0.3-0.2-0.5-0.5-0.6c-0.4,0-0.7,0.1-1,0.2
				c-0.2,0.1-0.3,0.2-0.5,0.3c-0.4,0.2-0.6,0.1-0.8-0.3c0-0.1-0.1-0.2-0.1-0.3c-0.1-0.2-0.2-0.4-0.3-0.5c-0.5-0.6-1.2-0.6-1.6,0
				c-0.2,0.2-0.3,0.4-0.3,0.6c-0.2,0.4-0.4,0.7-0.9,0.7c-0.3,0-0.6,0-1,0c-0.2,0-0.4,0-0.7,0c-0.6,0-0.9,0.5-0.6,1.1
				c0,0.1,0.1,0.2,0.2,0.3c0.4,1,0.8,1.9,1.2,2.9c0,0.1,0.1,0.2,0.2,0.3c0.3,0.8-0.3,0.9-0.4,1c-2.3,0.7-4.1,2.1-5.5,4
				c-0.7,0.9-1.2,1.9-1.4,3c-0.3,1-0.3,2-0.2,3c0.1,0.7,0.3,1.3,0.6,2c0.5,0.9,1.3,1.5,2.3,1.8c1,0.4,2,0.6,3.1,0.7
				c1.3,0.1,2.7,0.2,3.9,0.2c1.4-0.1,2.6-0.1,3.8-0.2c1.1-0.1,2.3-0.3,3.4-0.7c1.3-0.5,2.3-1.3,2.7-2.7
				C229.8,694.7,229.9,693.8,229.9,693z"/>
			<path d="M219.7,699.4L219.7,699.4c-0.4,0-0.7,0-1.1-0.1c-0.9,0-1.9-0.1-2.8-0.2c-1.2-0.1-2.2-0.3-3.2-0.7c-1.1-0.5-1.9-1.1-2.4-2
				c-0.3-0.6-0.5-1.2-0.7-2.1c-0.1-1.1-0.1-2.2,0.2-3.1c0.3-1.1,0.8-2.1,1.5-3c1.5-2,3.4-3.4,5.7-4.1c0.1,0,0.1,0,0.2-0.1
				c0-0.1,0-0.2,0-0.4c-0.1-0.1-0.2-0.2-0.2-0.4c-0.3-0.7-0.6-1.4-0.9-2.1c-0.1-0.2-0.2-0.5-0.3-0.7c0-0.1-0.1-0.1-0.1-0.2
				c0,0,0-0.1-0.1-0.1c-0.2-0.4-0.2-0.7,0-1s0.5-0.5,0.9-0.5c0.1,0,0.2,0,0.4,0c0.1,0,0.2,0,0.3,0h0.1c0.3,0,0.5,0,0.8,0
				s0.5-0.2,0.6-0.6c0.1-0.3,0.2-0.5,0.4-0.7c0.3-0.3,0.6-0.5,1-0.5l0,0c0.4,0,0.8,0.2,1,0.5c0.1,0.2,0.2,0.3,0.3,0.5v0.1
				c0,0.1,0.1,0.2,0.1,0.2v0.1c0.1,0.2,0.2,0.2,0.4,0.2c0.1,0,0.2-0.1,0.3-0.2c0,0,0.1-0.1,0.2-0.1c0.4-0.2,0.8-0.3,1.2-0.3
				c0.5,0.1,0.8,0.4,0.7,0.9c0,0.2-0.1,0.5-0.2,0.7c-0.5,0.9-0.7,1.7-0.9,2.5c0,0.3-0.1,0.6-0.1,0.9c0,0,0,0.1,0,0.2
				c-0.1,1.1,0.7,1.5,1.1,1.7h0.1c1.5,0.7,2.8,1.7,3.8,3c1.4,1.7,2,3.4,2.1,5.3l0,0c0,1-0.1,1.8-0.3,2.5c-0.4,1.4-1.4,2.3-2.9,2.9
				c-1,0.4-2.1,0.6-3.5,0.7c-0.8,0.1-1.7,0.1-2.6,0.1C220.5,699.3,220.1,699.4,219.7,699.4L219.7,699.4z M216.4,679.2
				C216.3,679.2,216.3,679.2,216.4,679.2c-0.3,0-0.4,0.1-0.5,0.2s0,0.3,0,0.5c0,0,0,0.1,0.1,0.1c0,0.1,0.1,0.2,0.1,0.2
				c0.1,0.2,0.2,0.5,0.3,0.7c0.3,0.7,0.6,1.4,0.9,2.1c0,0.1,0.1,0.2,0.2,0.2l0,0v0.1c0.1,0.4,0.1,0.7,0,0.9s-0.3,0.3-0.5,0.4
				c-2.2,0.7-3.9,2-5.4,3.9c-0.7,0.9-1.1,1.8-1.4,2.8c-0.2,0.9-0.3,1.8-0.1,2.9c0.1,0.7,0.3,1.3,0.6,1.8c0.5,0.7,1.1,1.3,2.1,1.7
				c0.9,0.4,1.9,0.6,3,0.7c0.9,0.1,1.9,0.1,2.8,0.2c0.4,0,0.7,0,1.1,0.1c0.4,0,0.8,0,1.2,0c0.9,0,1.7-0.1,2.5-0.1
				c1.3-0.1,2.3-0.3,3.3-0.7c1.3-0.5,2.2-1.3,2.5-2.5c0.2-0.7,0.3-1.5,0.3-2.3l0,0c0-1.7-0.7-3.4-2-5c-1-1.2-2.2-2.2-3.6-2.8l0,0
				l0,0c-0.5-0.2-1.5-0.8-1.5-2.2V683c0-0.3,0-0.7,0.1-1c0.1-0.9,0.4-1.7,0.9-2.7c0.1-0.1,0.1-0.3,0.1-0.5c0-0.1,0-0.2-0.2-0.2
				s-0.5,0-0.8,0.2c0,0-0.1,0-0.1,0.1c-0.1,0.1-0.2,0.1-0.4,0.2c-0.5,0.2-0.9,0.1-1.2-0.5c0,0,0-0.1-0.1-0.2s0-0.1-0.1-0.2v-0.1
				c-0.1-0.1-0.1-0.3-0.2-0.4c-0.2-0.2-0.4-0.3-0.6-0.3c-0.2,0-0.4,0.1-0.6,0.3c-0.1,0.1-0.2,0.3-0.3,0.5c-0.2,0.5-0.6,0.9-1.1,1
				c-0.3,0-0.6,0-0.9,0h0.1c-0.1,0-0.2,0-0.3,0C216.5,679.2,216.4,679.2,216.4,679.2z"/>
		</g>
		<path opacity="0.51" fill="#A7A9AC" enable-background="new    " d="M217.8,683.8c0,0-1.2-2.6-1.4-3.2c-0.2-0.6-0.7-1.2-0.4-1.3
			s1.1,0,1.6,0c0.4,0,1.1-0.1,1.2-0.4c0.1-0.3,0.5-1.2,0.9,0s0.2,2.5,0.5,3.4c0.2,1,0.4,1.8,0.4,1.8s-1-0.8-1.3-1.6
			c-0.3-0.7-1.7-2.2-1.4-0.6c0.3,1.6,1.7,2.2,1.7,2.2S218.2,684.1,217.8,683.8z"/>
		
			<linearGradient id="SVGID_12_" gradientUnits="userSpaceOnUse" x1="923.6195" y1="-2238.7302" x2="1012.4293" y2="-2238.7302" gradientTransform="matrix(0.227 0 0 -0.227 5.655301e-02 179.7833)">
			<stop  offset="0" style="stop-color:#39B54A;stop-opacity:0"/>
			<stop  offset="1.641512e-02" style="stop-color:#3DB649;stop-opacity:1.641512e-02"/>
			<stop  offset="0.5039" style="stop-color:#A4DD22;stop-opacity:0.5039"/>
			<stop  offset="0.8417" style="stop-color:#E6F609;stop-opacity:0.8417"/>
			<stop  offset="1" style="stop-color:#FFFF00"/>
		</linearGradient>
		<path opacity="0.4" fill="url(#SVGID_12_)" enable-background="new    " d="M229.9,693c0-2-0.8-3.7-2-5.2c-1-1.2-2.2-2.2-3.7-2.9
			c0,0,0,0-0.1,0c-0.4-0.2-1.4-0.7-1.3-2l0,0v-0.1c0-0.3,0-0.6,0.1-1c0.1-0.9,0.5-1.8,0.9-2.6c0.1-0.2,0.1-0.4,0.2-0.6
			c0-0.3-0.2-0.5-0.5-0.6c-0.4,0-0.7,0.1-1,0.2c-0.2,0.1-0.3,0.2-0.5,0.3c-0.4,0.2-0.6,0.1-0.8-0.3c0-0.1-0.1-0.2-0.1-0.3
			c-0.1-0.2-0.2-0.4-0.3-0.5c-0.5-0.6-1.2-0.6-1.6,0c-0.2,0.2-0.3,0.4-0.3,0.6c-0.2,0.4-0.4,0.7-0.9,0.7c-0.3,0-0.6,0-1,0
			c-0.2,0-0.4,0-0.7,0c-0.6,0-0.9,0.5-0.6,1.1c0,0.1,0.1,0.2,0.2,0.3c0.4,1,0.8,1.9,1.2,2.9c0,0.1,0.1,0.2,0.2,0.3
			c0.3,0.8-0.3,0.9-0.4,1c-2.3,0.7-4.1,2.1-5.5,4c-0.7,0.9-1.2,1.9-1.4,3c-0.3,1-0.3,2-0.2,3c0.1,0.7,0.3,1.3,0.6,2
			c0.5,0.9,1.3,1.5,2.3,1.8c1,0.4,2,0.6,3.1,0.7c1.3,0.1,2.7,0.2,3.9,0.2c1.4-0.1,2.6-0.1,3.8-0.2c1.1-0.1,2.3-0.3,3.4-0.7
			c1.3-0.5,2.3-1.3,2.7-2.7C229.8,694.7,229.9,693.8,229.9,693z"/>
		<path opacity="0.51" fill="#A7A9AC" enable-background="new    " d="M220.2,685.4c0,0-2.3,1-3.5,2.2s-2.2,2.5-1.8,4.8
			s1.6,4.1,3.4,4.7c1.8,0.6,6.9,1.3,3.3,1.4c-3.6,0.1-4.4,0.4-8.4-0.6c-3.9-1-3-6.2-3-6.2s0.9-3,3.2-4.9c2.2-1.9,4.1-2.2,4.1-2.2
			S219,685.4,220.2,685.4z"/>
		<g>
			<path fill="#FFFFFF" d="M219.4,695.1v-0.8c-1.1-0.2-1.7-0.7-1.8-1.9h1.2c0,0.4,0.2,0.9,0.6,1v-2c-1.2-0.6-1.7-1.1-1.7-1.9
				c0-0.9,0.7-1.5,1.7-1.6v-0.4h0.7v0.4c1.2,0.1,1.8,0.8,1.8,1.7h-1.2c-0.1-0.5-0.2-0.7-0.6-0.8v1.6c1.2,0.5,2.1,1,2.1,2.2
				c0,1-0.8,1.8-2.1,1.8v0.8L219.4,695.1L219.4,695.1z M219.4,688.8c-0.4,0.1-0.5,0.2-0.5,0.5s0.1,0.4,0.5,0.7V688.8z M220.9,692.6
				c0-0.4-0.3-0.7-0.9-1v1.7C220.6,693.3,220.9,693,220.9,692.6z"/>
		</g>
		<path d="M217.4,683.4c0,0,0.1,0.3,1.6,0.6c1.5,0.2,3.5-0.6,3.5-0.6s0.2-0.2,0.6-0.1s0.7,0.6,0.4,0.9c-0.4,0.3-1,0.9-1.7,1
			s-2.6-0.1-3.7-0.5c-1.2-0.4-1.5-0.7-1.5-1C216.5,683.4,217.1,683.1,217.4,683.4z"/>
	</g>
</g>
</svg>
