<?xml version="1.0" encoding="utf-8"?>
<!-- Generator: Adobe Illustrator 18.0.0, SVG Export Plug-In . SVG Version: 6.00 Build 0)  -->
<!DOCTYPE svg PUBLIC "-//W3C//DTD SVG 1.1//EN" "http://www.w3.org/Graphics/SVG/1.1/DTD/svg11.dtd">
<svg version="1.1" id="Layer_1" xmlns="http://www.w3.org/2000/svg" xmlns:xlink="http://www.w3.org/1999/xlink" x="0px" y="0px"
	 width="250px" height="71.3px" viewBox="10.3 12.7 250 71.3" enable-background="new 10.3 12.7 250 71.3" xml:space="preserve">
<g id="Layer_1_1_">
	<g opacity="0.35">
		<path fill="#4D4D4D" d="M23.9,36.9h8.3v3.5H19.5V17.8h4.4V36.9z"/>
		<path fill="#4D4D4D" d="M39,40.4h-4.4V17.8H39V40.4z"/>
		<path fill="#4D4D4D" d="M54.7,31H47v9.4h-4.4V17.8H56v3.5h-9v6.2h7.7V31z"/>
		<path fill="#4D4D4D" d="M70.4,30.5h-7.6v6.4h8.9v3.5H58.4V17.8h13.3v3.5h-8.9V27h7.6V30.5z"/>
		<path fill="#4D4D4D" d="M88.2,33.1L88.2,33.1c0.1,2.6-0.5,4.4-1.7,5.7s-3,1.9-5.3,1.9S77,40,75.6,38.6s-2.1-3.5-2.1-6.1v-6.7
			c0-2.6,0.7-4.7,2-6.1s3.2-2.2,5.4-2.2c2.4,0,4.2,0.6,5.4,1.9s1.9,3.2,1.9,5.7v0.1H84c0.1-1.5-0.1-2.6-0.6-3.2s-1.3-1-2.4-1
			c-1,0-1.7,0.4-2.3,1.2s-0.8,2-0.8,3.5v6.8c0,1.6,0.3,2.8,0.8,3.6c0.6,0.8,1.4,1.2,2.5,1.2s1.8-0.3,2.2-0.9
			c0.4-0.6,0.6-1.7,0.5-3.2C84,33.1,88.2,33.1,88.2,33.1z"/>
		<path fill="#4D4D4D" d="M97.9,27.5L97.9,27.5l3.9-9.7h4.8l-6.4,14.6v8h-4.4v-8.3l-6.4-14.3h4.8L97.9,27.5z"/>
		<path fill="#4D4D4D" d="M122.1,33.1L122.1,33.1c0.1,2.6-0.5,4.4-1.7,5.7s-3,1.9-5.3,1.9s-4.2-0.7-5.6-2.2
			c-1.4-1.4-2.1-3.5-2.1-6.1v-6.7c0-2.6,0.7-4.7,2-6.1s3.2-2.2,5.4-2.2c2.4,0,4.2,0.6,5.4,1.9c1.2,1.3,1.9,3.2,1.9,5.7v0.1h-4.2
			c0.1-1.5-0.1-2.6-0.6-3.2s-1.3-1-2.4-1c-1,0-1.7,0.4-2.3,1.2s-0.8,2-0.8,3.5v6.8c0,1.6,0.3,2.8,0.8,3.6c0.6,0.8,1.4,1.2,2.5,1.2
			s1.8-0.3,2.2-0.9c0.4-0.6,0.6-1.7,0.5-3.2H122.1z"/>
		<path fill="#4D4D4D" d="M129.2,36.9h8.3v3.5h-12.7V17.8h4.4V36.9L129.2,36.9z"/>
		<path fill="#4D4D4D" d="M151.7,30.5h-7.6v6.4h8.9v3.5h-13.3V17.8H153v3.5h-8.9V27h7.6L151.7,30.5L151.7,30.5z"/>
	</g>
	<g opacity="0.35">
		<path fill="#4D4D4D" d="M182.2,33.1L182.2,33.1c0.1,2.6-0.5,4.4-1.7,5.7s-3,1.9-5.3,1.9s-4.2-0.7-5.6-2.2
			c-1.4-1.4-2.1-3.5-2.1-6.1v-6.7c0-2.6,0.7-4.7,2-6.1s3.2-2.2,5.4-2.2c2.4,0,4.2,0.6,5.4,1.9s1.9,3.2,1.9,5.7v0.1H178
			c0.1-1.5-0.1-2.6-0.6-3.2s-1.3-1-2.4-1c-1,0-1.7,0.4-2.3,1.2s-0.8,2-0.8,3.5v6.8c0,1.6,0.3,2.8,0.8,3.6c0.6,0.8,1.4,1.2,2.5,1.2
			s1.8-0.3,2.2-0.9c0.4-0.6,0.6-1.7,0.5-3.2C178,33.1,182.2,33.1,182.2,33.1z"/>
		<path fill="#4D4D4D" d="M200.2,32.3c0,2.7-0.7,4.7-2.2,6.2c-1.4,1.5-3.4,2.2-5.7,2.2c-2.4,0-4.3-0.7-5.7-2.2s-2.1-3.6-2.1-6.2V26
			c0-2.6,0.7-4.7,2.1-6.2c1.4-1.5,3.3-2.2,5.7-2.2s4.3,0.7,5.7,2.2s2.2,3.6,2.2,6.2V32.3L200.2,32.3z M195.8,25.9
			c0-1.6-0.3-2.8-0.9-3.7c-0.6-0.8-1.5-1.2-2.6-1.2s-2,0.4-2.6,1.2c-0.6,0.8-0.9,2-0.9,3.7v6.4c0,1.6,0.3,2.9,0.9,3.7
			c0.6,0.8,1.5,1.2,2.6,1.2s2-0.4,2.6-1.2s0.9-2,0.9-3.7V25.9L195.8,25.9z"/>
		<path fill="#4D4D4D" d="M213.1,34.5c0-0.9-0.2-1.6-0.7-2.1s-1.2-1-2.4-1.5c-2.3-0.8-4.1-1.7-5.3-2.8c-1.2-1-1.8-2.5-1.8-4.4
			s0.7-3.4,2-4.5s3.1-1.7,5.2-1.7c2.2,0,3.9,0.7,5.2,2s2,2.9,2,4.9v0.1H213c0-1-0.2-1.9-0.8-2.5c-0.5-0.6-1.2-1-2.2-1
			c-0.9,0-1.6,0.3-2.1,0.8s-0.7,1.2-0.7,2c0,0.7,0.3,1.4,0.8,1.8s1.5,1,2.9,1.6c2.1,0.7,3.7,1.6,4.8,2.7s1.6,2.6,1.6,4.5
			c0,2-0.7,3.5-2,4.6s-3,1.7-5.2,1.7s-4-0.6-5.6-1.9c-1.6-1.2-2.3-3.1-2.3-5.4v-0.1h4.3c0,1.4,0.3,2.4,0.9,3
			c0.6,0.6,1.5,0.9,2.7,0.9c0.9,0,1.6-0.2,2.1-0.7C212.8,36,213.1,35.4,213.1,34.5z"/>
		<path fill="#4D4D4D" d="M233.5,21.3h-5.1v19.1H224V21.3h-5v-3.5h14.6v3.5H233.5z"/>
		<path fill="#4D4D4D" d="M245.5,34.5c0-0.9-0.2-1.6-0.7-2.1s-1.2-1-2.4-1.5c-2.3-0.8-4.1-1.7-5.3-2.8c-1.2-1-1.8-2.5-1.8-4.4
			s0.7-3.4,2-4.5s3.1-1.7,5.2-1.7c2.2,0,3.9,0.7,5.2,2s2,2.9,2,4.9v0.1h-4.3c0-1-0.2-1.9-0.8-2.5c-0.5-0.6-1.2-1-2.2-1
			c-0.9,0-1.6,0.3-2.1,0.8s-0.7,1.2-0.7,2c0,0.7,0.3,1.4,0.8,1.8c0.5,0.5,1.5,1,2.9,1.6c2.1,0.7,3.7,1.6,4.8,2.7s1.6,2.6,1.6,4.5
			c0,2-0.7,3.5-2,4.6s-3,1.7-5.2,1.7s-4-0.6-5.6-1.9c-1.6-1.2-2.3-3.1-2.3-5.4v-0.1h4.3c0,1.4,0.3,2.4,0.9,3
			c0.6,0.6,1.5,0.9,2.7,0.9c0.9,0,1.6-0.2,2.1-0.7S245.5,35.4,245.5,34.5z"/>
	</g>
	<g>
		<path fill="#FFFFFF" d="M26.6,35.1h8.3v3.5H22.2V16h4.4V35.1z"/>
		<path fill="#FFFFFF" d="M41.7,38.6h-4.4V16h4.4V38.6z"/>
		<path fill="#FFFFFF" d="M57.4,29.2h-7.7v9.4h-4.4V16h13.4v3.5h-9v6.2h7.7C57.4,25.7,57.4,29.2,57.4,29.2z"/>
		<path fill="#FFFFFF" d="M73.1,28.7h-7.6v6.4h8.9v3.5H61.1V16h13.3v3.5h-8.9v5.6h7.6V28.7z"/>
		<path fill="#FFFFFF" d="M90.9,31.3L90.9,31.3c0.1,2.6-0.5,4.4-1.7,5.7s-3,1.9-5.3,1.9s-4.2-0.7-5.6-2.2c-1.4-1.4-2.1-3.5-2.1-6.1
			v-6.7c0-2.6,0.7-4.7,2-6.1s3.2-2.2,5.4-2.2c2.4,0,4.2,0.6,5.4,1.9c1.2,1.3,1.9,3.2,1.9,5.7v0.1h-4.2c0.1-1.5-0.1-2.6-0.6-3.2
			s-1.3-1-2.4-1c-1,0-1.7,0.4-2.3,1.2s-0.8,2-0.8,3.5v6.8c0,1.6,0.3,2.8,0.8,3.6c0.6,0.8,1.4,1.2,2.5,1.2s1.8-0.3,2.2-0.9
			c0.4-0.6,0.6-1.7,0.5-3.2H90.9z"/>
		<path fill="#FFFFFF" d="M100.6,25.7L100.6,25.7l3.9-9.7h4.8l-6.4,14.6v8h-4.4v-8.3L92,16h4.8L100.6,25.7z"/>
		<path fill="#FFFFFF" d="M124.8,31.3L124.8,31.3c0.1,2.6-0.5,4.4-1.7,5.7s-3,1.9-5.3,1.9s-4.2-0.7-5.6-2.2
			c-1.4-1.4-2.1-3.5-2.1-6.1v-6.7c0-2.6,0.7-4.7,2-6.1s3.2-2.2,5.4-2.2c2.4,0,4.2,0.6,5.4,1.9c1.2,1.3,1.9,3.2,1.9,5.7v0.1h-4.2
			c0.1-1.5-0.1-2.6-0.6-3.2s-1.3-1-2.4-1c-1,0-1.7,0.4-2.3,1.2s-0.8,2-0.8,3.5v6.8c0,1.6,0.3,2.8,0.8,3.6c0.6,0.8,1.4,1.2,2.5,1.2
			s1.8-0.3,2.2-0.9c0.4-0.6,0.6-1.7,0.5-3.2H124.8z"/>
		<path fill="#FFFFFF" d="M132,35.1h8.3v3.5h-12.7V16h4.4V35.1z"/>
		<path fill="#FFFFFF" d="M154.4,28.7h-7.6v6.4h8.9v3.5h-13.3V16h13.3v3.5h-8.9v5.6h7.6V28.7L154.4,28.7z"/>
	</g>
	<g>
		<path fill="#FFFFFF" d="M185,31.3L185,31.3c0.1,2.6-0.5,4.4-1.7,5.7s-3,1.9-5.3,1.9s-4.2-0.7-5.6-2.2s-2.1-3.5-2.1-6.1v-6.7
			c0-2.6,0.7-4.7,2-6.1s3.2-2.2,5.4-2.2c2.4,0,4.2,0.6,5.4,1.9c1.2,1.3,1.9,3.2,1.9,5.7v0.1h-4.2c0.1-1.5-0.1-2.6-0.6-3.2
			s-1.3-1-2.4-1c-1,0-1.7,0.4-2.3,1.2c-0.5,0.8-0.8,2-0.8,3.5v6.8c0,1.6,0.3,2.8,0.8,3.6c0.6,0.8,1.4,1.2,2.5,1.2s1.8-0.3,2.2-0.9
			c0.4-0.6,0.6-1.7,0.5-3.2H185z"/>
		<path fill="#FFFFFF" d="M202.9,30.5c0,2.7-0.7,4.7-2.2,6.2c-1.4,1.5-3.4,2.2-5.7,2.2c-2.4,0-4.3-0.7-5.7-2.2s-2.1-3.6-2.1-6.2
			v-6.3c0-2.6,0.7-4.7,2.1-6.2s3.3-2.2,5.7-2.2s4.3,0.7,5.7,2.2c1.5,1.5,2.2,3.6,2.2,6.2V30.5L202.9,30.5z M198.5,24.1
			c0-1.6-0.3-2.8-0.9-3.7c-0.6-0.8-1.5-1.2-2.6-1.2c-1.2,0-2,0.4-2.6,1.2c-0.6,0.8-0.9,2-0.9,3.7v6.4c0,1.6,0.3,2.9,0.9,3.7
			c0.6,0.8,1.5,1.2,2.6,1.2s2-0.4,2.6-1.2s0.9-2,0.9-3.7V24.1L198.5,24.1z"/>
		<path fill="#FFFFFF" d="M215.8,32.7c0-0.9-0.2-1.6-0.7-2.1s-1.2-1-2.4-1.5c-2.3-0.8-4.1-1.7-5.3-2.8c-1.2-1-1.8-2.5-1.8-4.4
			s0.7-3.4,2-4.5c1.4-1.2,3.1-1.7,5.2-1.7c2.2,0,3.9,0.7,5.2,2s2,2.9,2,4.9v0.1h-4.3c0-1-0.2-1.9-0.8-2.5c-0.5-0.6-1.2-1-2.2-1
			c-0.9,0-1.6,0.3-2.1,0.8s-0.7,1.2-0.7,2c0,0.7,0.3,1.4,0.8,1.8c0.5,0.5,1.5,1,2.9,1.6c2.1,0.7,3.7,1.6,4.8,2.7s1.6,2.6,1.6,4.5
			c0,2-0.7,3.5-2,4.6s-3,1.7-5.2,1.7s-4-0.6-5.6-1.9c-1.6-1.2-2.3-3.1-2.3-5.4v-0.1h4.3c0,1.4,0.3,2.4,0.9,3
			c0.6,0.6,1.5,0.9,2.7,0.9c0.9,0,1.6-0.2,2.1-0.7C215.6,34.2,215.8,33.5,215.8,32.7z"/>
		<path fill="#FFFFFF" d="M236.3,19.5h-5.1v19.1h-4.4V19.5h-5.1V16h14.6V19.5z"/>
		<path fill="#FFFFFF" d="M248.2,32.7c0-0.9-0.2-1.6-0.7-2.1s-1.2-1-2.4-1.5c-2.3-0.8-4.1-1.7-5.3-2.8c-1.2-1-1.8-2.5-1.8-4.4
			s0.7-3.4,2-4.5c1.4-1.2,3.1-1.7,5.2-1.7c2.2,0,3.9,0.7,5.2,2s2,2.9,2,4.9v0.1h-4.3c0-1-0.2-1.9-0.8-2.5c-0.5-0.6-1.2-1-2.2-1
			c-0.9,0-1.6,0.3-2.1,0.8s-0.7,1.2-0.7,2c0,0.7,0.3,1.4,0.8,1.8s1.5,1,2.9,1.6c2.1,0.7,3.7,1.6,4.8,2.7s1.6,2.6,1.6,4.5
			c0,2-0.7,3.5-2,4.6s-3,1.7-5.2,1.7s-4-0.6-5.6-1.9c-1.6-1.2-2.3-3.1-2.3-5.4v-0.1h4.3c0,1.4,0.3,2.4,0.9,3s1.5,0.9,2.7,0.9
			c0.9,0,1.6-0.2,2.1-0.7C247.9,34.2,248.2,33.5,248.2,32.7z"/>
	</g>
	<g>
		<g opacity="0.35">
			<g>
				<path fill="#4D4D4D" d="M42.8,72.6c0-0.9-0.2-1.6-0.7-2.1s-1.2-1-2.4-1.5c-2.3-0.8-4.1-1.7-5.3-2.8c-1.2-1-1.8-2.5-1.8-4.4
					s0.7-3.4,2-4.5c1.4-1.2,3.1-1.7,5.2-1.7c2.2,0,3.9,0.7,5.2,2s2,2.9,2,4.9v0.1h-4.3c0-1-0.2-1.9-0.8-2.5c-0.5-0.6-1.2-1-2.2-1
					c-0.9,0-1.6,0.3-2.1,0.8s-0.7,1.2-0.7,2c0,0.7,0.3,1.4,0.8,1.8c0.5,0.5,1.5,1,2.9,1.6c2.1,0.7,3.7,1.6,4.8,2.7s1.6,2.6,1.6,4.5
					c0,2-0.7,3.5-2,4.6s-3,1.7-5.2,1.7s-4-0.6-5.6-1.9c-1.6-1.2-2.3-3.1-2.3-5.4v-0.1h4.3c0,1.4,0.3,2.4,0.9,3
					c0.6,0.6,1.5,0.9,2.7,0.9c0.9,0,1.6-0.2,2.1-0.7C42.6,74.1,42.8,73.4,42.8,72.6z"/>
				<path fill="#4D4D4D" d="M54.4,70.4v8.1H50V55.9h7.9c2.2,0,4,0.7,5.3,2s2,3.1,2,5.2c0,2.2-0.7,3.9-2,5.2c-1.3,1.3-3.1,2-5.3,2
					L54.4,70.4L54.4,70.4z M54.4,66.8h3.4c0.9,0,1.7-0.3,2.2-1s0.7-1.6,0.7-2.6c0-1.1-0.2-2-0.7-2.7s-1.2-1.1-2.2-1.1h-3.4V66.8
					L54.4,66.8z"/>
				<path fill="#4D4D4D" d="M72.6,78.5h-4.4V55.9h4.4V78.5z"/>
				<path fill="#4D4D4D" d="M80.7,74.9H89v3.5H76.3V55.9h4.4C80.7,55.9,80.7,74.9,80.7,74.9z"/>
				<path fill="#4D4D4D" d="M95.6,74.9h8.3v3.5H91.2V55.9h4.4V74.9z"/>
				<path fill="#4D4D4D" d="M127.2,71.2L127.2,71.2c0.1,2.6-0.5,4.4-1.7,5.7c-1.2,1.3-3,1.9-5.3,1.9s-4.2-0.7-5.6-2.2
					c-1.4-1.4-2.1-3.5-2.1-6.1v-6.7c0-2.6,0.7-4.7,2-6.1s3.2-2.2,5.4-2.2c2.4,0,4.2,0.6,5.4,1.9c1.2,1.3,1.9,3.2,1.9,5.7v0.1H123
					c0.1-1.5-0.1-2.6-0.6-3.2s-1.3-1-2.4-1c-1,0-1.7,0.4-2.3,1.2c-0.5,0.8-0.8,2-0.8,3.5v6.8c0,1.6,0.3,2.8,0.8,3.6
					c0.6,0.8,1.4,1.2,2.5,1.2s1.8-0.3,2.2-0.9c0.4-0.6,0.6-1.7,0.5-3.2H127.2z"/>
				<path fill="#4D4D4D" d="M134.3,74.9h8.3v3.5h-12.7V55.9h4.4V74.9L134.3,74.9z"/>
				<path fill="#4D4D4D" d="M156.8,68.6h-7.6V75h8.9v3.5h-13.3V55.9h13.3v3.5h-8.9V65h7.6V68.6z"/>
				<path fill="#4D4D4D" d="M170.6,73.7h-5.9l-1.2,4.8H159l6.4-22.6h4.6l6.4,22.6H172L170.6,73.7z M165.5,70.1h4.2l-2-8h-0.1
					L165.5,70.1z"/>
				<path fill="#4D4D4D" d="M193.8,78.5h-4.4L182.5,64h-0.1v14.4H178V55.9h4.4l6.9,14.4h0.1V55.9h4.4L193.8,78.5L193.8,78.5z"/>
				<path fill="#4D4D4D" d="M205.1,70.5h-7.7V67h7.7V70.5z"/>
				<path fill="#4D4D4D" d="M224,55.9v15.4c0,2.4-0.7,4.3-2.1,5.6c-1.4,1.3-3.3,2-5.5,2c-2.3,0-4.1-0.7-5.5-2s-2.1-3.2-2.1-5.6V55.9
					h4.4v15.4c0,1.4,0.3,2.4,0.9,3c0.6,0.7,1.4,1,2.4,1c1.1,0,1.9-0.3,2.4-0.9s0.8-1.7,0.8-3.1V55.9H224L224,55.9z"/>
				<path fill="#4D4D4D" d="M231.5,70.4v8.1h-4.4V55.9h7.9c2.2,0,4,0.7,5.3,2s2,3.1,2,5.2c0,2.2-0.7,3.9-2,5.2s-3.1,2-5.3,2
					L231.5,70.4L231.5,70.4z M231.5,66.8h3.4c0.9,0,1.7-0.3,2.2-1s0.7-1.6,0.7-2.6c0-1.1-0.2-2-0.7-2.7s-1.2-1.1-2.2-1.1h-3.5v7.4
					H231.5z"/>
			</g>
		</g>
		<g>
			<g>
				<path fill="#FFFFFF" d="M44.6,70.8c0-0.9-0.2-1.6-0.7-2.1s-1.2-1-2.4-1.5c-2.3-0.8-4.1-1.7-5.3-2.8c-1.2-1-1.8-2.5-1.8-4.4
					s0.7-3.4,2-4.5c1.4-1.2,3.1-1.7,5.2-1.7c2.2,0,3.9,0.7,5.2,2s2,2.9,2,4.9v0.1h-4.3c0-1-0.2-1.9-0.8-2.5c-0.5-0.6-1.2-1-2.2-1
					c-0.9,0-1.6,0.3-2.1,0.8s-0.7,1.2-0.7,2c0,0.7,0.3,1.4,0.8,1.8c0.5,0.5,1.5,1,2.9,1.6c2.1,0.7,3.7,1.6,4.8,2.7s1.6,2.6,1.6,4.5
					c0,2-0.7,3.5-2,4.6s-3,1.7-5.2,1.7s-4-0.6-5.6-1.9c-1.3-1.2-2-3.1-2-5.4v-0.1h4.3c0,1.4,0.3,2.4,0.9,3c0.6,0.6,1.5,0.9,2.7,0.9
					c0.9,0,1.6-0.2,2.1-0.7C44.4,72.3,44.6,71.6,44.6,70.8z"/>
				<path fill="#FFFFFF" d="M56.2,68.5v8.1h-4.4V54.1h7.9c2.2,0,4,0.7,5.3,2c1.3,1.3,2,3.1,2,5.2c0,2.2-0.7,3.9-2,5.2
					c-1.3,1.3-3.1,2-5.3,2H56.2L56.2,68.5z M56.2,65h3.4c0.9,0,1.7-0.3,2.2-1c0.5-0.7,0.7-1.6,0.7-2.6c0-1.1-0.2-2-0.7-2.7
					s-1.2-1.1-2.2-1.1h-3.4V65L56.2,65z"/>
				<path fill="#FFFFFF" d="M74.4,76.7H70V54.1h4.4V76.7z"/>
				<path fill="#FFFFFF" d="M82.5,73.1h8.3v3.5H78.1V54.1h4.4V73.1z"/>
				<path fill="#FFFFFF" d="M97.4,73.1h8.3v3.5H93V54.1h4.4V73.1z"/>
				<path fill="#FFFFFF" d="M129,69.4L129,69.4c0.1,2.6-0.5,4.4-1.7,5.7c-1.2,1.3-3,1.9-5.3,1.9s-4.2-0.7-5.6-2.2
					c-1.4-1.4-2.1-3.5-2.1-6.1V62c0-2.6,0.7-4.7,2-6.1c1.3-1.4,3.2-2.2,5.4-2.2c2.4,0,4.2,0.6,5.4,1.9c1.2,1.3,1.9,3.2,1.9,5.7v0.1
					h-4.2c0.1-1.5-0.1-2.6-0.6-3.2c-0.5-0.6-1.3-1-2.4-1c-1,0-1.7,0.4-2.3,1.2c-0.5,0.8-0.8,2-0.8,3.5v6.8c0,1.6,0.3,2.8,0.8,3.6
					c0.6,0.8,1.4,1.2,2.5,1.2s1.8-0.3,2.2-0.9c0.4-0.6,0.6-1.7,0.5-3.2H129z"/>
				<path fill="#FFFFFF" d="M136.1,73.1h8.3v3.5h-12.7V54.1h4.4V73.1L136.1,73.1z"/>
				<path fill="#FFFFFF" d="M158.6,66.8H151v6.4h8.9v3.5h-13.3V54.1h13.3v3.5H151v5.6h7.6V66.8z"/>
				<path fill="#FFFFFF" d="M172.4,71.8h-5.9l-1.2,4.8h-4.4l6.4-22.6h4.6l6.4,22.6h-4.4L172.4,71.8z M167.3,68.3h4.2l-2-8h-0.1
					L167.3,68.3z"/>
				<path fill="#FFFFFF" d="M195.6,76.7h-4.4l-6.9-14.5h-0.1v14.4h-4.4V54.1h4.4l6.9,14.4h0.1V54.1h4.4V76.7L195.6,76.7z"/>
				<path fill="#FFFFFF" d="M206.9,68.7h-7.7v-3.5h7.7V68.7z"/>
				<path fill="#FFFFFF" d="M225.8,54.1v15.4c0,2.4-0.7,4.3-2.1,5.6s-3.3,2-5.5,2c-2.3,0-4.1-0.7-5.5-2s-2.1-3.2-2.1-5.6V54.1h4.4
					v15.4c0,1.4,0.3,2.4,0.9,3c0.6,0.7,1.4,1,2.4,1c1.1,0,1.9-0.3,2.4-0.9s0.8-1.7,0.8-3.1V54.1H225.8L225.8,54.1z"/>
				<path fill="#FFFFFF" d="M233.4,68.5v8.1H229V54.1h7.9c2.2,0,4,0.7,5.3,2s2,3.1,2,5.2c0,2.2-0.7,3.9-2,5.2s-3.1,2-5.3,2H233.4
					L233.4,68.5z M233.4,65h3.4c0.9,0,1.7-0.3,2.2-1c0.5-0.7,0.7-1.6,0.7-2.6c0-1.1-0.2-2-0.7-2.7s-1.2-1.1-2.2-1.1h-3.5V65H233.4z"
					/>
			</g>
		</g>
	</g>
	<line fill="none" stroke="#000000" stroke-width="2" stroke-miterlimit="10" x1="22" y1="48.5" x2="129.4" y2="48.5"/>
	<line fill="none" stroke="#000000" stroke-width="5" stroke-miterlimit="10" x1="22" y1="46.6" x2="129.6" y2="46.6"/>
	<g>
		<line fill="none" stroke="#000000" stroke-width="2" stroke-miterlimit="10" x1="146.2" y1="48.5" x2="253.6" y2="48.5"/>
		<line fill="none" stroke="#000000" stroke-width="5" stroke-miterlimit="10" x1="146.2" y1="46.6" x2="253.8" y2="46.6"/>
	</g>
	<g>
		<g>
			<polygon fill="#FFFFFF" points="111.2,51.5 114.1,47.3 111.2,43.2 122.2,43.2 122.2,51.5 			"/>
			<path d="M121.9,43.5v7.6h-10.1l2.7-3.8l-2.6-3.8H121.9 M122.6,42.8h-0.7h-10.1h-1.3l0.7,1.1l2.4,3.4l-2.4,3.4l-0.7,1.1h1.3h10.1
				h0.7v-0.7v-7.6V42.8L122.6,42.8z"/>
		</g>
		<g>
			<polygon fill="#FFFFFF" points="153.4,51.5 153.4,43.2 164.4,43.2 161.5,47.3 164.4,51.5 			"/>
			<path d="M163.8,43.5l-2.7,3.8l2.7,3.8h-10.1v-7.6H163.8 M165.1,42.8h-1.3h-10.1H153v0.7v7.6v0.7h0.7h10.1h1.3l-0.7-1.1l-2.4-3.4
				l2.4-3.4L165.1,42.8L165.1,42.8z"/>
		</g>
		<g>
			<rect x="117.6" y="41.6" fill="#FFFFFF" width="39.4" height="8.3"/>
			<path d="M156.7,41.9v7.6H118v-7.6H156.7 M157.4,41.2h-0.7H118h-0.7v0.7v7.6v0.7h0.7h38.7h0.7v-0.7v-7.6V41.2L157.4,41.2z"/>
		</g>
		<g>
			<path fill="#EC1C24" d="M137.9,46c0,0.5-0.1,0.8-0.4,1.1c-0.3,0.3-0.7,0.5-1.1,0.5c-0.5,0-0.9-0.2-1.2-0.5s-0.4-0.7-0.4-1.1v-0.7
				c0-0.5,0.1-0.8,0.4-1.1c0.3-0.3,0.7-0.5,1.1-0.5c0.5,0,0.8,0.2,1.1,0.5s0.4,0.7,0.4,1.1L137.9,46L137.9,46z M137,45.3
				c0-0.3-0.1-0.5-0.2-0.7c-0.1-0.2-0.3-0.2-0.5-0.2s-0.4,0.1-0.5,0.2c-0.1,0.2-0.2,0.4-0.2,0.7V46c0,0.3,0.1,0.5,0.2,0.7
				c0.1,0.2,0.3,0.2,0.5,0.2s0.4-0.1,0.5-0.2c0.1-0.2,0.2-0.4,0.2-0.7V45.3z"/>
			<path fill="#EC1C24" d="M140.7,46h-1.5v1.5h-0.9v-3.7h2.6v0.7h-1.7v0.9h1.5L140.7,46L140.7,46z"/>
		</g>
	</g>
</g>
</svg>
