<?xml version="1.0" encoding="utf-8"?>
<!-- Generator: Adobe Illustrator 18.0.0, SVG Export Plug-In . SVG Version: 6.00 Build 0)  -->
<!DOCTYPE svg PUBLIC "-//W3C//DTD SVG 1.1//EN" "http://www.w3.org/Graphics/SVG/1.1/DTD/svg11.dtd">
<svg version="1.1" id="Layer_1" xmlns="http://www.w3.org/2000/svg" xmlns:xlink="http://www.w3.org/1999/xlink" x="0px" y="0px"
	 viewBox="0 0 277.9 792" enable-background="new 0 0 277.9 792" xml:space="preserve">
<g id="Total">
	<g>
		
			<linearGradient id="SVGID_1_" gradientUnits="userSpaceOnUse" x1="90.4444" y1="-2275.0823" x2="168.9271" y2="-2282.0139" gradientTransform="matrix(0.227 0 0 -0.227 3.652954e-02 179.7833)">
			<stop  offset="0" style="stop-color:#6D6E71;stop-opacity:0"/>
			<stop  offset="1" style="stop-color:#6D6E71"/>
		</linearGradient>
		<path fill="url(#SVGID_1_)" d="M35.6,693.9c-3.2,0-6.1,0.2-8.6,0.7c-0.4-0.1-0.7-0.2-0.7-0.5c0-0.6,1-0.8,0.7-1.2
			c-0.4-0.4-0.9,0.4-1.4,0.5c-0.6,0-0.7-0.2-1.9-0.4s-1.1,0.7-1.3,1c-0.2,0.4-0.9,0.4-1.5,0.5c-0.6,0.1,0.5,0.7,1.2,0.7
			c0.5,0,1.4,0.1,1.9,0.2c-2.1,0.6-3.4,1.5-3.4,2.4c0,2,6.7,3.7,15.1,3.7s15.1-1.7,15.1-3.7C50.6,695.6,43.9,693.9,35.6,693.9z"/>
		<g>
			<path fill="#39B54A" d="M51.8,694.3c0-2.2-0.9-4.1-2.2-5.8c-1.1-1.4-2.5-2.5-4.1-3.2c0,0,0,0-0.1,0c-0.5-0.2-1.5-0.7-1.5-2.2l0,0
				c0,0,0-0.1,0-0.1c0-0.4,0-0.7,0.1-1.1c0.2-1,0.5-2,1-2.9c0.1-0.2,0.2-0.4,0.2-0.7c0-0.4-0.2-0.6-0.5-0.6c-0.4,0-0.8,0.1-1.1,0.2
				c-0.2,0.1-0.4,0.2-0.5,0.3c-0.4,0.2-0.7,0.1-0.9-0.3c-0.1-0.1-0.1-0.2-0.2-0.4c-0.1-0.2-0.2-0.4-0.3-0.6c-0.5-0.6-1.3-0.6-1.8,0
				c-0.2,0.2-0.3,0.5-0.4,0.7c-0.2,0.5-0.5,0.8-1,0.8c-0.3,0-0.7,0-1.1,0.1c-0.2,0-0.5,0-0.7,0c-0.7,0-1,0.6-0.7,1.2
				c0.1,0.1,0.1,0.2,0.2,0.4c0.5,1.1,0.9,2.1,1.3,3.2c0.1,0.2,0.1,0.3,0.2,0.4c0.3,0.9-0.3,1-0.4,1.1c-2.5,0.8-4.6,2.3-6.2,4.4
				c-0.7,1-1.3,2.1-1.6,3.3c-0.3,1.1-0.3,2.2-0.2,3.3c0.1,0.8,0.3,1.5,0.7,2.2c0.6,1,1.5,1.6,2.5,2c1.1,0.4,2.3,0.7,3.5,0.8
				c1.5,0.1,3,0.2,4.4,0.2c1.5-0.1,2.9-0.1,4.2-0.2c1.3-0.1,2.5-0.3,3.8-0.8c1.5-0.6,2.6-1.5,3-3.1
				C51.7,696.1,51.8,695.2,51.8,694.3z"/>
			<path d="M40.4,701.4L40.4,701.4c-0.4,0-0.8,0-1.2-0.1c-1,0-2.1-0.1-3.1-0.2c-1.3-0.1-2.5-0.4-3.6-0.8c-1.2-0.5-2.1-1.2-2.7-2.2
				c-0.4-0.7-0.6-1.4-0.7-2.3c-0.2-1.3-0.1-2.4,0.2-3.5c0.3-1.2,0.9-2.4,1.7-3.4c1.7-2.2,3.8-3.8,6.3-4.6c0.1,0,0.2-0.1,0.2-0.1
				c0-0.1,0-0.2,0-0.5c-0.1-0.1-0.2-0.3-0.2-0.4c-0.3-0.8-0.7-1.6-1-2.4c-0.1-0.3-0.2-0.5-0.3-0.8c0-0.1-0.1-0.2-0.1-0.2
				c0,0,0-0.1-0.1-0.1c-0.2-0.4-0.2-0.8,0-1.2c0.2-0.3,0.5-0.5,1-0.5c0.1,0,0.3,0,0.4,0c0.1,0,0.2,0,0.3,0h0.1c0.3,0,0.6,0,0.9,0
				c0.4,0,0.6-0.2,0.7-0.6c0.1-0.3,0.3-0.6,0.5-0.8c0.3-0.4,0.7-0.6,1.1-0.6c0,0,0,0,0,0c0.4,0,0.9,0.2,1.2,0.6
				c0.1,0.2,0.2,0.4,0.3,0.5l0,0.1c0,0.1,0.1,0.2,0.1,0.2c0,0,0,0.1,0.1,0.1c0.1,0.2,0.2,0.3,0.4,0.2c0.1,0,0.2-0.1,0.3-0.2
				c0.1,0,0.1-0.1,0.2-0.1c0.5-0.2,0.9-0.3,1.3-0.3c0.5,0.1,0.9,0.5,0.8,1c0,0.3-0.1,0.6-0.2,0.8c-0.5,1-0.8,1.9-1,2.8
				c0,0.3-0.1,0.7-0.1,1c0,0.1,0,0.1,0,0.2c-0.1,1.2,0.8,1.6,1.2,1.9l0.1,0c1.7,0.8,3.1,1.9,4.2,3.3c1.5,1.9,2.3,3.8,2.3,6l0,0
				c0,1-0.1,2-0.4,2.8c-0.5,1.6-1.5,2.6-3.2,3.3c-1.1,0.4-2.4,0.7-3.9,0.8c-1,0.1-1.9,0.1-2.9,0.2C41.3,701.3,40.9,701.3,40.4,701.4
				L40.4,701.4z M36.7,678.8C36.7,678.8,36.6,678.8,36.7,678.8c-0.3,0-0.5,0.1-0.5,0.2c-0.1,0.1-0.1,0.3,0,0.5c0,0,0,0.1,0.1,0.1
				c0,0.1,0.1,0.2,0.1,0.3c0.1,0.3,0.2,0.5,0.3,0.8c0.3,0.8,0.7,1.6,1,2.4c0,0.1,0.1,0.2,0.2,0.3l0,0l0,0.1c0.1,0.4,0.1,0.8,0,1
				c-0.1,0.2-0.3,0.4-0.6,0.5c-2.4,0.7-4.4,2.2-6,4.3c-0.7,1-1.2,2-1.5,3.2c-0.2,1-0.3,2-0.2,3.2c0.1,0.8,0.3,1.5,0.7,2
				c0.5,0.8,1.2,1.5,2.4,1.9c1,0.4,2.1,0.6,3.4,0.7c1,0.1,2.1,0.1,3.1,0.2c0.4,0,0.8,0,1.2,0.1c0.5,0,0.9,0,1.4-0.1
				c1,0,1.9-0.1,2.9-0.2c1.4-0.1,2.6-0.3,3.7-0.7c1.5-0.6,2.4-1.5,2.8-2.8c0.2-0.8,0.3-1.6,0.3-2.6l0,0c0-2-0.7-3.8-2.2-5.6
				c-1.1-1.4-2.4-2.4-4-3.1c0,0,0,0-0.1,0l0,0c-0.5-0.2-1.7-0.9-1.6-2.5c0,0,0-0.1,0-0.1c0-0.4,0-0.7,0.1-1.1c0.2-1,0.5-2,1-3
				c0.1-0.2,0.1-0.3,0.1-0.5c0-0.1,0-0.2-0.2-0.3c-0.3,0-0.6,0-0.9,0.2c0,0-0.1,0.1-0.2,0.1c-0.1,0.1-0.3,0.2-0.4,0.2
				c-0.6,0.2-1,0.1-1.3-0.5c0-0.1,0-0.1-0.1-0.2s0-0.1-0.1-0.2l0-0.1c-0.1-0.2-0.2-0.3-0.2-0.4c-0.2-0.2-0.4-0.3-0.6-0.3
				c-0.2,0-0.5,0.1-0.6,0.3c-0.1,0.2-0.2,0.4-0.3,0.6c-0.2,0.6-0.7,1-1.3,1.1c-0.3,0-0.6,0-1,0.1h-0.1c-0.1,0-0.2,0-0.4,0
				C36.9,678.8,36.8,678.8,36.7,678.8z"/>
		</g>
		<path opacity="0.51" fill="#A7A9AC" enable-background="new    " d="M38.3,684c0,0-1.3-3-1.5-3.6c-0.2-0.6-0.8-1.4-0.4-1.5
			c0.3-0.1,1.2,0,1.7,0c0.5,0,1.2-0.1,1.4-0.4c0.2-0.3,0.6-1.3,1,0c0.5,1.3,0.3,2.7,0.5,3.8c0.2,1.1,0.4,2,0.4,2s-1.1-0.9-1.5-1.8
			c-0.4-0.8-1.9-2.5-1.5-0.7c0.4,1.8,1.9,2.5,1.9,2.5S38.8,684.3,38.3,684z"/>
		
			<linearGradient id="SVGID_2_" gradientUnits="userSpaceOnUse" x1="128.6656" y1="-2241.8123" x2="227.9109" y2="-2241.8123" gradientTransform="matrix(0.227 0 0 -0.227 3.652954e-02 179.7833)">
			<stop  offset="0" style="stop-color:#39B54A;stop-opacity:0"/>
			<stop  offset="1.641512e-02" style="stop-color:#3DB649;stop-opacity:1.641512e-02"/>
			<stop  offset="0.5039" style="stop-color:#A4DD22;stop-opacity:0.5039"/>
			<stop  offset="0.8417" style="stop-color:#E6F609;stop-opacity:0.8417"/>
			<stop  offset="1" style="stop-color:#FFFF00"/>
		</linearGradient>
		<path opacity="0.4" fill="url(#SVGID_2_)" enable-background="new    " d="M51.8,694.3c0-2.2-0.9-4.1-2.2-5.8
			c-1.1-1.4-2.5-2.5-4.1-3.2c0,0,0,0-0.1,0c-0.5-0.2-1.5-0.7-1.5-2.2l0,0c0,0,0-0.1,0-0.1c0-0.4,0-0.7,0.1-1.1c0.2-1,0.5-2,1-2.9
			c0.1-0.2,0.2-0.4,0.2-0.7c0-0.4-0.2-0.6-0.5-0.6c-0.4,0-0.8,0.1-1.1,0.2c-0.2,0.1-0.4,0.2-0.5,0.3c-0.4,0.2-0.7,0.1-0.9-0.3
			c-0.1-0.1-0.1-0.2-0.2-0.4c-0.1-0.2-0.2-0.4-0.3-0.6c-0.5-0.6-1.3-0.6-1.8,0c-0.2,0.2-0.3,0.5-0.4,0.7c-0.2,0.5-0.5,0.8-1,0.8
			c-0.3,0-0.7,0-1.1,0.1c-0.2,0-0.5,0-0.7,0c-0.7,0-1,0.6-0.7,1.2c0.1,0.1,0.1,0.2,0.2,0.4c0.5,1.1,0.9,2.1,1.3,3.2
			c0.1,0.2,0.1,0.3,0.2,0.4c0.3,0.9-0.3,1-0.4,1.1c-2.5,0.8-4.6,2.3-6.2,4.4c-0.7,1-1.3,2.1-1.6,3.3c-0.3,1.1-0.3,2.2-0.2,3.3
			c0.1,0.8,0.3,1.5,0.7,2.2c0.6,1,1.5,1.6,2.5,2c1.1,0.4,2.3,0.7,3.5,0.8c1.5,0.1,3,0.2,4.4,0.2c1.5-0.1,2.9-0.1,4.2-0.2
			c1.3-0.1,2.5-0.3,3.8-0.8c1.5-0.6,2.6-1.5,3-3.1C51.7,696.1,51.8,695.2,51.8,694.3z"/>
		<path opacity="0.51" fill="#A7A9AC" enable-background="new    " d="M41,685.7c0,0-2.6,1.1-3.9,2.4c-1.3,1.3-2.5,2.9-2.1,5.4
			c0.5,2.5,1.8,4.6,3.8,5.2c2,0.7,7.7,1.5,3.7,1.6c-4.1,0.2-4.9,0.5-9.3-0.7c-4.4-1.1-3.3-6.9-3.3-6.9s1-3.4,3.5-5.5
			s4.5-2.5,4.5-2.5S39.6,685.8,41,685.7z"/>
		<g>
			<path fill="#FFFFFF" d="M40.1,696.6v-0.9c-1.2-0.2-2-0.8-2-2.2h1.3c0,0.4,0.2,1,0.7,1.1v-2.2c-1.4-0.6-1.9-1.2-1.9-2.1
				c0-1,0.8-1.7,1.9-1.8V688h0.7v0.5c1.3,0.1,2,0.9,2,1.9h-1.3c-0.1-0.5-0.3-0.8-0.7-0.9v1.7c1.4,0.5,2.3,1.1,2.3,2.4
				c0,1.2-0.9,2-2.3,2v0.9H40.1z M40.1,689.5c-0.4,0.1-0.6,0.3-0.6,0.6c0,0.3,0.1,0.5,0.6,0.8V689.5z M41.8,693.8
				c0-0.5-0.4-0.8-1-1.1v2C41.4,694.6,41.8,694.3,41.8,693.8z"/>
		</g>
		<path d="M37.9,683.4c0,0,0.1,0.4,1.8,0.7c1.7,0.3,3.9-0.7,3.9-0.7s0.3-0.2,0.7-0.1c0.4,0.1,0.8,0.6,0.4,1c-0.4,0.4-1.1,1-2,1.1
			c-0.8,0.2-2.9-0.1-4.2-0.5c-1.3-0.4-1.7-0.8-1.7-1.1C36.8,683.5,37.5,683.2,37.9,683.4z"/>
	</g>
</g>
</svg>
