<?xml version="1.0" encoding="utf-8"?>
<!-- Generator: Adobe Illustrator 18.0.0, SVG Export Plug-In . SVG Version: 6.00 Build 0)  -->
<!DOCTYPE svg PUBLIC "-//W3C//DTD SVG 1.1//EN" "http://www.w3.org/Graphics/SVG/1.1/DTD/svg11.dtd">
<svg version="1.1" id="Layer_1" xmlns="http://www.w3.org/2000/svg" xmlns:xlink="http://www.w3.org/1999/xlink" x="0px" y="0px"
	 viewBox="0 0 1224 3489" enable-background="new 0 0 1224 3489" xml:space="preserve">
<g id="Total">
	<g opacity="0.53">
		<g>
			<path fill="#666666" d="M398.6,3139.8h-59.1v-13.3l27.3-34.6c3.6-5.1,6.2-9.6,7.8-13.4c1.6-3.8,2.4-7.3,2.4-10.4
				c0-4.3-0.8-7.7-2.5-10.3c-1.6-2.6-4-3.9-7.1-3.9c-3.2,0-5.7,1.6-7.4,4.8c-1.7,3.2-2.6,7.3-2.6,12.5h-19l-0.1-0.3
				c-0.2-9.1,2.4-16.7,7.7-23c5.3-6.3,12.5-9.4,21.4-9.4c9.2,0,16.3,2.7,21.4,8c5.1,5.3,7.7,12.5,7.7,21.7c0,6.1-1.4,11.8-4.3,17
				c-2.9,5.2-7.6,12-14.3,20.5l-13.1,18.7h33.8V3139.8z"/>
			<path fill="#666666" d="M411.4,3095.5l4.9-55.8h48.9v16h-33l-2.1,23.6c1.4-1.4,3.2-2.6,5.3-3.5s4.4-1.5,6.7-1.5
				c8.3-0.1,14.7,2.7,19.2,8.6c4.5,5.9,6.7,14.2,6.7,24.8c0,9.5-2.5,17.5-7.6,23.9c-5.1,6.4-12.3,9.6-21.7,9.6
				c-8,0-14.8-2.6-20.6-7.7c-5.8-5.1-8.6-12-8.4-20.8l0.1-0.3l19-1c0,4.5,0.9,8,2.7,10.5c1.8,2.5,4.2,3.7,7.2,3.7
				c3.4,0,5.9-1.6,7.5-4.9c1.6-3.3,2.3-7.6,2.3-12.9c0-5.9-0.9-10.6-2.6-14c-1.7-3.4-4.4-5.2-8-5.2c-2.7,0-4.8,0.7-6.3,2.2
				c-1.5,1.5-2.5,3.4-3,5.8L411.4,3095.5z"/>
			<path fill="#666666" d="M480,3059c0-5.9,1.7-10.8,5.1-14.8c3.4-3.9,8.2-5.9,14.4-5.9c6.3,0,11.1,2,14.5,5.9
				c3.4,3.9,5.1,8.9,5.1,14.8v5.3c0,6-1.7,10.9-5.1,14.7c-3.4,3.9-8.2,5.8-14.4,5.8c-6.2,0-11.1-1.9-14.5-5.8
				c-3.4-3.9-5.2-8.8-5.2-14.7V3059z M492.8,3064.3c0,2.6,0.6,4.8,1.8,6.6c1.2,1.8,2.9,2.7,5.1,2.7c2.1,0,3.7-0.9,4.9-2.7
				c1.2-1.8,1.8-4,1.8-6.7v-5.3c0-2.7-0.6-4.9-1.8-6.7c-1.2-1.8-2.9-2.7-5-2.7c-2.2,0-3.8,0.9-5,2.8c-1.2,1.9-1.8,4.1-1.8,6.7
				V3064.3z M502.5,3132.2l-9.2-5.1l41.3-78.2l9.2,5.1L502.5,3132.2z M521.9,3115.3c0-5.9,1.7-10.8,5.2-14.7
				c3.4-3.9,8.2-5.9,14.4-5.9c6.3,0,11.1,2,14.5,5.9c3.4,3.9,5.1,8.8,5.1,14.7v5.3c0,6-1.7,10.9-5.1,14.8c-3.4,3.9-8.2,5.8-14.4,5.8
				c-6.2,0-11.1-1.9-14.5-5.8c-3.5-3.9-5.2-8.8-5.2-14.8V3115.3z M534.8,3120.6c0,2.6,0.7,4.8,2,6.7c1.3,1.9,2.9,2.8,4.9,2.7
				c2.5,0,4.3-0.8,5.2-2.5c1-1.7,1.4-4,1.4-6.9v-5.3c0-2.6-0.6-4.8-1.8-6.7c-1.2-1.8-2.9-2.7-5-2.7c-2.2,0-3.9,0.9-5,2.7
				c-1.1,1.8-1.7,4.1-1.7,6.7V3120.6z"/>
			<path fill="#666666" d="M609.4,3104.6h-34.1V3089h34.1V3104.6z"/>
			<path fill="#666666" d="M625.9,3095.5l4.9-55.8h48.9v16h-33l-2.1,23.6c1.4-1.4,3.2-2.6,5.3-3.5c2.1-0.9,4.4-1.5,6.7-1.5
				c8.3-0.1,14.7,2.7,19.2,8.6c4.5,5.9,6.7,14.2,6.7,24.8c0,9.5-2.5,17.5-7.6,23.9c-5.1,6.4-12.3,9.6-21.7,9.6
				c-8,0-14.8-2.6-20.6-7.7c-5.8-5.1-8.6-12-8.4-20.8l0.1-0.3l19-1c0,4.5,0.9,8,2.7,10.5c1.8,2.5,4.2,3.7,7.2,3.7
				c3.4,0,5.9-1.6,7.5-4.9c1.6-3.3,2.3-7.6,2.3-12.9c0-5.9-0.9-10.6-2.6-14c-1.7-3.4-4.4-5.2-8-5.2c-2.7,0-4.8,0.7-6.3,2.2
				c-1.5,1.5-2.5,3.4-3,5.8L625.9,3095.5z"/>
			<path fill="#666666" d="M752.4,3100.6c0,13.3-2.6,23.4-7.9,30.3c-5.3,6.9-12.4,10.3-21.3,10.3c-9,0-16.1-3.4-21.4-10.3
				c-5.3-6.9-8-17-8-30.3v-21.5c0-13.3,2.6-23.4,7.9-30.3c5.3-6.9,12.4-10.4,21.3-10.4s16,3.5,21.4,10.4c5.3,6.9,8,17,8,30.3V3100.6
				z M732.9,3077.3c0-8.1-0.8-13.9-2.5-17.7c-1.7-3.7-4.1-5.4-7.1-5.2h-0.4c-3.1-0.2-5.4,1.5-7.1,5.2s-2.5,9.6-2.5,17.7v24.8
				c0,8.2,0.8,14.1,2.5,17.8c1.7,3.7,4.1,5.5,7.1,5.2h0.4c3,0.3,5.4-1.4,7-5.2c1.6-3.7,2.5-9.7,2.5-17.9V3077.3z"/>
			<path fill="#666666" d="M764.2,3059c0-5.9,1.7-10.8,5.1-14.8c3.4-3.9,8.2-5.9,14.4-5.9c6.3,0,11.1,2,14.5,5.9
				c3.4,3.9,5.1,8.9,5.1,14.8v5.3c0,6-1.7,10.9-5.1,14.7c-3.4,3.9-8.2,5.8-14.4,5.8c-6.2,0-11.1-1.9-14.5-5.8
				c-3.4-3.9-5.2-8.8-5.2-14.7V3059z M777,3064.3c0,2.6,0.6,4.8,1.8,6.6c1.2,1.8,2.9,2.7,5.1,2.7c2.1,0,3.7-0.9,4.9-2.7
				c1.2-1.8,1.8-4,1.8-6.7v-5.3c0-2.7-0.6-4.9-1.8-6.7c-1.2-1.8-2.9-2.7-5-2.7c-2.2,0-3.8,0.9-5,2.8c-1.2,1.9-1.8,4.1-1.8,6.7
				V3064.3z M786.7,3132.2l-9.2-5.1l41.3-78.2l9.2,5.1L786.7,3132.2z M806.1,3115.3c0-5.9,1.7-10.8,5.2-14.7
				c3.4-3.9,8.2-5.9,14.4-5.9c6.3,0,11.1,2,14.5,5.9c3.4,3.9,5.1,8.8,5.1,14.7v5.3c0,6-1.7,10.9-5.1,14.8c-3.4,3.9-8.2,5.8-14.4,5.8
				c-6.2,0-11.1-1.9-14.5-5.8c-3.5-3.9-5.2-8.8-5.2-14.8V3115.3z M818.9,3120.6c0,2.6,0.7,4.8,2,6.7c1.3,1.9,2.9,2.8,4.9,2.7
				c2.5,0,4.3-0.8,5.2-2.5c1-1.7,1.4-4,1.4-6.9v-5.3c0-2.6-0.6-4.8-1.8-6.7c-1.2-1.8-2.9-2.7-5-2.7c-2.2,0-3.9,0.9-5,2.7
				c-1.1,1.8-1.7,4.1-1.7,6.7V3120.6z"/>
		</g>
	</g>
	<g>
		<g>
			<g>
				<path fill="#FFFFFF" d="M349,3132.3V3117l27.6-35c3.5-5,6.1-9.4,7.6-13.1c1.5-3.6,2.3-6.9,2.3-9.8c0-4-0.8-7.2-2.2-9.5
					c-1.4-2.2-3.3-3.2-5.9-3.2c-2.6,0-4.6,1.3-6.1,4c-1.6,2.9-2.4,6.9-2.4,11.8v1.5h-21.5l-0.6-1.5l0-0.3c-0.2-9.4,2.5-17.5,8-24
					c5.6-6.6,13.2-10,22.6-10c9.5,0,17.1,2.8,22.5,8.4c5.4,5.6,8.1,13.2,8.1,22.7c0,6.4-1.5,12.3-4.5,17.8
					c-2.9,5.3-7.8,12.2-14.5,20.7l-11.3,16.3h32.4v18.6H349z"/>
				<path d="M378.4,3029.3c9.2,0,16.3,2.7,21.4,8c5.1,5.3,7.7,12.5,7.7,21.7c0,6.1-1.4,11.8-4.3,17c-2.9,5.2-7.6,12-14.3,20.5
					l-13.1,18.7h33.8v15.6h-59.1v-13.3l27.3-34.6c3.6-5.1,6.2-9.6,7.8-13.4c1.6-3.8,2.4-7.3,2.4-10.4c0-4.3-0.8-7.7-2.5-10.3
					c-1.6-2.6-4-3.9-7.1-3.9c-3.2,0-5.7,1.6-7.4,4.8c-1.7,3.2-2.6,7.3-2.6,12.5h-19l-0.1-0.3c-0.2-9.1,2.4-16.7,7.7-23
					C362.2,3032.5,369.4,3029.3,378.4,3029.3 M378.4,3026.3c-9.9,0-17.8,3.5-23.7,10.5c-5.8,6.8-8.6,15.3-8.4,25l0,0.5l0.2,0.5
					l0.1,0.3l0.8,1.9h2h19h3v-3c0-4.6,0.7-8.3,2.2-11.1c1.5-2.8,3.3-3.2,4.7-3.2c2.1,0,3.5,0.8,4.6,2.5c1.3,2.1,2,5.1,2,8.7
					c0,2.7-0.7,5.8-2.1,9.2c-1.5,3.6-4,7.9-7.4,12.8l-27.2,34.5l-0.6,0.8v1v13.3v3h3h59.1h3v-3v-15.6v-3h-3h-28l9.7-13.9
					c6.7-8.5,11.6-15.5,14.5-20.8c3.1-5.6,4.7-11.9,4.7-18.5c0-9.9-2.9-17.9-8.5-23.8C396.3,3029.3,388.3,3026.3,378.4,3026.3
					L378.4,3026.3z"/>
			</g>
			<g>
				<path fill="#FFFFFF" d="M449.8,3133.7c-8.3,0-15.6-2.7-21.6-8c-6.1-5.4-9.1-12.8-8.9-21.9l0-0.3l0.6-1.5l21.5-1.2v1.6
					c0,4.1,0.8,7.4,2.5,9.6c1.5,2.1,3.5,3.1,6,3.1c2.9,0,4.8-1.3,6.1-4.1c1.5-3.1,2.2-7.2,2.2-12.2c0-5.6-0.8-10.1-2.4-13.3
					c-1.5-2.9-3.6-4.3-6.6-4.3c-2.3,0-4,0.6-5.2,1.8c-1.3,1.3-2.1,3-2.6,5.1l-0.3,1.3l-20.2-1.4l5.2-58.7h51.8v19h-33.1L443,3067
					c0.9-0.6,1.9-1.1,2.9-1.6c2.3-1,4.7-1.6,7.2-1.7l0.6,0c8.5,0,15.2,3.1,19.8,9.2c4.6,6.1,7,14.8,7,25.7c0,9.8-2.7,18.2-7.9,24.8
					C467.3,3130.3,459.6,3133.7,449.8,3133.7z"/>
				<path d="M476.2,3030.8v16h-33l-2.1,23.6c1.4-1.4,3.2-2.6,5.3-3.5s4.4-1.5,6.7-1.5c0.2,0,0.4,0,0.6,0c8.1,0,14.3,2.9,18.6,8.6
					c4.5,5.9,6.7,14.2,6.7,24.8c0,9.5-2.5,17.5-7.6,23.9c-5.1,6.4-12.3,9.6-21.7,9.6c-8,0-14.8-2.6-20.6-7.7
					c-5.8-5.1-8.6-12-8.4-20.8l0.1-0.3l19-1c0,4.5,0.9,8,2.7,10.5c1.8,2.5,4.2,3.7,7.2,3.7c3.4,0,5.9-1.6,7.5-4.9
					c1.6-3.3,2.3-7.6,2.3-12.9c0-5.9-0.9-10.6-2.6-14c-1.7-3.4-4.4-5.2-8-5.2c-2.7,0-4.8,0.7-6.3,2.2c-1.5,1.5-2.5,3.4-3,5.8
					l-17.4-1.2l4.9-55.8H476.2 M479.2,3027.8h-3h-48.9h-2.7l-0.2,2.7l-4.9,55.8l-0.3,3.1l3.1,0.2l17.4,1.2l2.6,0.2l0.6-2.5
					c0.4-1.9,1.2-3.3,2.2-4.4c0.9-0.9,2.2-1.3,4.1-1.3c2.4,0,4.1,1.1,5.3,3.5c1.5,3,2.3,7.3,2.3,12.7c0,4.8-0.7,8.7-2,11.6
					c-1.1,2.2-2.5,3.2-4.8,3.2c-2,0-3.5-0.8-4.8-2.5c-1.4-2-2.2-4.9-2.2-8.7v-3.2l-3.2,0.2l-19,1l-1.9,0.1l-0.7,1.8l-0.1,0.3
					l-0.2,0.5l0,0.5c-0.2,9.6,3,17.4,9.4,23.1c6.3,5.6,13.9,8.4,22.6,8.4c10.3,0,18.4-3.6,24-10.8c5.5-6.9,8.2-15.6,8.2-25.8
					c0-11.3-2.5-20.3-7.3-26.6c-4.9-6.5-12-9.8-21-9.8c-0.2,0-0.4,0-0.6,0l0,0l0,0c-2.7,0.1-5.3,0.7-7.8,1.8
					c-0.2,0.1-0.4,0.2-0.6,0.3l1.3-14.5h30.2h3v-3v-16V3027.8L479.2,3027.8z"/>
			</g>
			<g>
				<path fill="#FFFFFF" d="M552.6,3133.7c-6.6,0-11.9-2.1-15.6-6.3c-3.7-4.2-5.6-9.5-5.6-15.8v-5.3c0-6.2,1.9-11.5,5.5-15.7
					c3.7-4.3,9-6.4,15.6-6.4c6.7,0,12,2.2,15.6,6.4c3.6,4.2,5.4,9.5,5.4,15.7v5.3c0,6.3-1.8,11.6-5.5,15.8
					C564.4,3131.5,559.2,3133.7,552.6,3133.7z M552.8,3119.5c2.5,0,3.3-1,3.7-1.7c0.8-1.5,1.2-3.5,1.2-6.2v-5.3
					c0-2.3-0.5-4.3-1.5-5.8c-0.9-1.4-2.1-2.1-3.8-2.1c-1.7,0-2.9,0.6-3.7,2c-1,1.6-1.5,3.6-1.5,5.9v5.3c0,2.3,0.6,4.2,1.7,5.8
					c1,1.4,2.1,2.1,3.5,2.1l0.1,0L552.8,3119.5z M502.3,3118.7l42.7-80.8l11.8,6.5l-42.7,80.8L502.3,3118.7z M510.7,3077.3
					c-6.6,0-11.9-2.1-15.6-6.3c-3.7-4.2-5.5-9.4-5.5-15.7v-5.3c0-6.3,1.8-11.6,5.5-15.8c3.7-4.3,8.9-6.4,15.5-6.4
					c6.7,0,12,2.2,15.6,6.4c3.6,4.2,5.4,9.5,5.4,15.8v5.3c0,6.3-1.8,11.6-5.5,15.7C522.5,3075.2,517.3,3077.3,510.7,3077.3z
					 M510.5,3042c-1.6,0-2.8,0.7-3.7,2.1c-1,1.6-1.5,3.6-1.5,5.9v5.3c0,2.3,0.5,4.3,1.5,5.8c0.9,1.4,2.1,2,3.8,2
					c1.6,0,2.8-0.6,3.7-2c1-1.5,1.5-3.5,1.5-5.8v-5.3c0-2.3-0.5-4.3-1.5-5.9C513.4,3042.7,512.2,3042,510.5,3042z"/>
				<path d="M510.5,3029.3c6.3,0,11.1,2,14.5,5.9c3.4,3.9,5.1,8.9,5.1,14.8v5.3c0,6-1.7,10.9-5.1,14.7c-3.4,3.9-8.2,5.8-14.4,5.8
					c-6.2,0-11.1-1.9-14.5-5.8c-3.4-3.9-5.2-8.8-5.2-14.7v-5.3c0-5.9,1.7-10.8,5.1-14.8C499.5,3031.3,504.3,3029.3,510.5,3029.3
					 M510.7,3064.6c2.1,0,3.7-0.9,4.9-2.7c1.2-1.8,1.8-4,1.8-6.7v-5.3c0-2.7-0.6-4.9-1.8-6.7c-1.2-1.8-2.9-2.7-5-2.7
					c-2.2,0-3.8,0.9-5,2.8c-1.2,1.9-1.8,4.1-1.8,6.7v5.3c0,2.6,0.6,4.8,1.8,6.6C506.8,3063.7,508.5,3064.6,510.7,3064.6 M545.6,3040
					l9.2,5.1l-41.3,78.2l-9.2-5.1L545.6,3040 M552.5,3085.7c6.3,0,11.1,2,14.5,5.9c3.4,3.9,5.1,8.8,5.1,14.7v5.3
					c0,6-1.7,10.9-5.1,14.8c-3.4,3.9-8.2,5.8-14.4,5.8c-6.2,0-11.1-1.9-14.5-5.8c-3.5-3.9-5.2-8.8-5.2-14.8v-5.3
					c0-5.9,1.7-10.8,5.2-14.7C541.5,3087.6,546.3,3085.7,552.5,3085.7 M552.5,3121c0,0,0.1,0,0.1,0c0.1,0,0.1,0,0.2,0
					c2.4,0,4.1-0.8,5-2.5c1-1.7,1.4-4,1.4-6.9v-5.3c0-2.6-0.6-4.8-1.8-6.7c-1.2-1.8-2.9-2.7-5-2.7c-2.2,0-3.9,0.9-5,2.7
					c-1.1,1.8-1.7,4.1-1.7,6.7v5.3c0,2.6,0.7,4.8,2,6.7C549,3120,550.6,3121,552.5,3121 M510.5,3026.3c-7.1,0-12.7,2.3-16.7,6.9
					c-3.9,4.5-5.9,10.1-5.9,16.7v5.3c0,6.6,2,12.2,5.9,16.7c4,4.5,9.6,6.9,16.7,6.9c5,0,9.3-1.2,12.8-3.5l-21.9,41.4l-1.4,2.6
					l2.6,1.4l9.2,5.1l2.7,1.5l1.4-2.7l41.3-78.2l1.4-2.6l-2.6-1.4l-9.2-5.1l-2.7-1.5l-1.4,2.7l-9.9,18.7c0-0.6,0.1-1.3,0.1-2v-5.3
					c0-6.7-2-12.3-5.8-16.8C523.3,3028.7,517.7,3026.3,510.5,3026.3L510.5,3026.3z M510.7,3061.6c-1.2,0-1.9-0.4-2.6-1.4
					c-0.9-1.3-1.3-2.9-1.3-5v-5.3c0-2.1,0.4-3.7,1.3-5.1c0.6-1,1.3-1.4,2.4-1.4c1.1,0,1.9,0.4,2.5,1.4c0.9,1.3,1.3,3,1.3,5.1v5.3
					c0,2.1-0.4,3.7-1.3,5C512.4,3061.3,511.8,3061.6,510.7,3061.6L510.7,3061.6z M552.5,3082.7c-7.1,0-12.7,2.3-16.7,6.9
					c-3.9,4.5-5.9,10.1-5.9,16.7v5.3c0,6.7,2,12.3,5.9,16.8c4,4.5,9.7,6.8,16.8,6.8c7.1,0,12.7-2.3,16.6-6.9
					c3.9-4.4,5.8-10.1,5.8-16.7v-5.3c0-6.6-2-12.2-5.8-16.7C565.3,3085,559.6,3082.7,552.5,3082.7L552.5,3082.7z M552.5,3118
					c-0.6,0-1.4-0.2-2.3-1.5c-1-1.4-1.4-3-1.4-5v-5.3c0-2.1,0.4-3.7,1.3-5.1c0.6-1,1.3-1.3,2.5-1.3c1.1,0,1.9,0.4,2.5,1.4
					c0.9,1.3,1.3,3,1.3,5v5.3c0,2.4-0.4,4.2-1.1,5.5c-0.2,0.3-0.5,1-2.4,1l-0.1,0l-0.1,0L552.5,3118L552.5,3118L552.5,3118z"/>
			</g>
			<g>
				<rect x="584.7" y="3078.5" fill="#FFFFFF" width="37.1" height="18.6"/>
				<path d="M620.4,3080v15.6h-34.1V3080H620.4 M623.4,3077h-3h-34.1h-3v3v15.6v3h3h34.1h3v-3V3080V3077L623.4,3077z"/>
			</g>
			<g>
				<path fill="#FFFFFF" d="M664.3,3133.7c-8.3,0-15.6-2.7-21.6-8c-6.1-5.4-9.1-12.8-8.9-21.9l0-0.3l0.6-1.5l21.5-1.2v1.6
					c0,4.1,0.8,7.4,2.5,9.6c1.5,2.1,3.5,3.1,6,3.1c2.9,0,4.8-1.3,6.1-4.1c1.5-3.1,2.2-7.2,2.2-12.2c0-5.6-0.8-10.1-2.4-13.3
					c-1.5-2.9-3.6-4.3-6.6-4.3c-2.3,0-4,0.6-5.2,1.8c-1.3,1.3-2.1,3-2.6,5.1l-0.3,1.3l-20.2-1.4l5.2-58.7h51.8v19h-33.1l-1.7,18.7
					c0.9-0.6,1.9-1.1,2.9-1.6c2.3-1,4.7-1.6,7.2-1.7l0.6,0c8.5,0,15.2,3.1,19.8,9.2c4.6,6.1,7,14.8,7,25.7c0,9.8-2.7,18.2-7.9,24.8
					C681.8,3130.3,674.1,3133.7,664.3,3133.7z"/>
				<path d="M690.8,3030.8v16h-33l-2.1,23.6c1.4-1.4,3.2-2.6,5.3-3.5c2.1-0.9,4.4-1.5,6.7-1.5c0.2,0,0.4,0,0.6,0
					c8.1,0,14.3,2.9,18.6,8.6c4.5,5.9,6.7,14.2,6.7,24.8c0,9.5-2.5,17.5-7.6,23.9c-5.1,6.4-12.3,9.6-21.7,9.6
					c-8,0-14.8-2.6-20.6-7.7c-5.8-5.1-8.6-12-8.4-20.8l0.1-0.3l19-1c0,4.5,0.9,8,2.7,10.5c1.8,2.5,4.2,3.7,7.2,3.7
					c3.4,0,5.9-1.6,7.5-4.9c1.6-3.3,2.3-7.6,2.3-12.9c0-5.9-0.9-10.6-2.6-14c-1.7-3.4-4.4-5.2-8-5.2c-2.7,0-4.8,0.7-6.3,2.2
					c-1.5,1.5-2.5,3.4-3,5.8l-17.4-1.2l4.9-55.8H690.8 M693.8,3027.8h-3h-48.9h-2.7l-0.2,2.7l-4.9,55.8l-0.3,3.1l3.1,0.2l17.4,1.2
					l2.6,0.2l0.6-2.5c0.4-1.9,1.2-3.3,2.2-4.4c0.9-0.9,2.2-1.3,4.1-1.3c2.4,0,4.1,1.1,5.3,3.5c1.5,3,2.3,7.3,2.3,12.7
					c0,4.8-0.7,8.7-2,11.6c-1.1,2.2-2.5,3.2-4.8,3.2c-2,0-3.5-0.8-4.8-2.5c-1.4-2-2.2-4.9-2.2-8.7v-3.2l-3.2,0.2l-19,1l-1.9,0.1
					l-0.7,1.8l-0.1,0.3l-0.2,0.5l0,0.5c-0.2,9.6,3,17.4,9.4,23.1c6.3,5.6,13.9,8.4,22.6,8.4c10.3,0,18.4-3.6,24-10.8
					c5.5-6.9,8.2-15.6,8.2-25.8c0-11.3-2.5-20.3-7.3-26.6c-4.9-6.5-12-9.8-21-9.8c-0.2,0-0.4,0-0.6,0l0,0l0,0
					c-2.7,0.1-5.3,0.7-7.8,1.8c-0.2,0.1-0.4,0.2-0.6,0.3l1.3-14.5h30.2h3v-3v-16V3027.8L693.8,3027.8z"/>
			</g>
			<g>
				<path fill="#FFFFFF" d="M734.2,3133.7c-9.4,0-17-3.7-22.6-10.9c-5.5-7.1-8.3-17.6-8.3-31.2v-21.5c0-13.6,2.8-24.1,8.2-31.2
					c5.6-7.3,13.1-11,22.5-11c9.4,0,17,3.7,22.6,11c5.5,7.2,8.3,17.7,8.3,31.2v21.5c0,13.6-2.8,24.1-8.2,31.2
					C751.1,3130.1,743.6,3133.7,734.2,3133.7z M734.5,3114.7L734.5,3114.7c0.2,0,0.4,0,0.5,0c2.1,0,3.7-1.4,5-4.3
					c1.6-3.5,2.3-9.3,2.3-17.2v-24.8c0-7.8-0.8-13.5-2.4-17c-1.3-2.9-3-4.4-5.2-4.4c-0.1,0-0.3,0-0.4,0l-0.6,0l-0.1,0
					c-0.1,0-0.3,0-0.4,0c-2.2,0-3.9,1.4-5.2,4.3c-1.6,3.5-2.3,9.2-2.3,17v24.8c0,7.9,0.8,13.7,2.4,17.2c1.3,2.9,3,4.3,5.2,4.3
					c0.2,0,0.3,0,0.5,0l0.1,0H734.5z"/>
				<path d="M734.1,3029.3c8.9,0,16,3.5,21.4,10.4c5.3,6.9,8,17,8,30.3v21.5c0,13.3-2.6,23.4-7.9,30.3c-5.3,6.9-12.4,10.3-21.3,10.3
					c-9,0-16.1-3.4-21.4-10.3c-5.3-6.9-8-17-8-30.3v-21.5c0-13.3,2.6-23.4,7.9-30.3C718.1,3032.8,725.2,3029.3,734.1,3029.3
					 M733.9,3045.5c-0.2,0-0.4,0-0.5,0c-2.8,0-5,1.7-6.5,5.2c-1.6,3.7-2.5,9.6-2.5,17.7v24.8c0,8.2,0.8,14.1,2.5,17.8
					c1.6,3.5,3.8,5.2,6.5,5.2c0.2,0,0.4,0,0.6,0h0.4c0.2,0,0.4,0,0.6,0c2.7,0,4.9-1.7,6.4-5.2c1.6-3.7,2.5-9.7,2.5-17.9v-24.8
					c0-8.1-0.8-13.9-2.5-17.7c-1.6-3.5-3.8-5.2-6.6-5.2c-0.2,0-0.3,0-0.5,0H733.9 M734.1,3026.3c-9.9,0-17.9,3.9-23.7,11.6
					c-5.7,7.4-8.5,18.3-8.5,32.1v21.5c0,13.9,2.9,24.8,8.6,32.2c5.9,7.6,13.9,11.5,23.8,11.5c9.8,0,17.8-3.9,23.6-11.5
					c5.7-7.4,8.6-18.2,8.6-32.2v-21.5c0-13.9-2.9-24.7-8.6-32.2C752,3030.2,744,3026.3,734.1,3026.3L734.1,3026.3z M733.4,3113.2
					c-0.6,0-2.2,0-3.8-3.5c-1.5-3.3-2.3-8.9-2.3-16.6v-24.8c0-7.6,0.7-13.1,2.2-16.4c1.5-3.4,3.2-3.5,3.8-3.5c0,0,0,0,0,0
					c0.1,0,0.2,0,0.3,0l0.1,0h0.1h0.4h0.1l0.1,0c0.1,0,0.2,0,0.3,0c0.6,0,2.2,0,3.8,3.5c1.5,3.3,2.3,8.8,2.3,16.4v24.8
					c0,7.7-0.7,13.3-2.2,16.6c-1.5,3.4-3.1,3.4-3.6,3.4c-0.1,0-0.2,0-0.3,0l-0.1,0h-0.1H734h-0.1l-0.1,0
					C733.7,3113.2,733.5,3113.2,733.4,3113.2L733.4,3113.2z"/>
			</g>
			<g>
				<path fill="#FFFFFF" d="M836.8,3133.7c-6.6,0-11.9-2.1-15.6-6.3c-3.7-4.2-5.6-9.5-5.6-15.8v-5.3c0-6.2,1.9-11.5,5.5-15.7
					c3.7-4.3,9-6.4,15.6-6.4c6.7,0,12,2.2,15.6,6.4c3.6,4.2,5.4,9.5,5.4,15.7v5.3c0,6.3-1.8,11.6-5.5,15.8
					C848.6,3131.5,843.4,3133.7,836.8,3133.7z M837,3119.5c2.5,0,3.3-1,3.7-1.7c0.8-1.5,1.2-3.5,1.2-6.2v-5.3c0-2.3-0.5-4.3-1.5-5.8
					c-0.9-1.4-2.1-2.1-3.8-2.1c-1.7,0-2.9,0.6-3.7,2c-1,1.6-1.5,3.6-1.5,5.9v5.3c0,2.3,0.6,4.2,1.7,5.8c1,1.4,2.1,2.1,3.5,2.1l0.1,0
					L837,3119.5z M786.4,3118.7l42.7-80.8l11.8,6.5l-42.7,80.8L786.4,3118.7z M794.8,3077.3c-6.6,0-11.9-2.1-15.6-6.3
					c-3.7-4.2-5.5-9.4-5.5-15.7v-5.3c0-6.3,1.8-11.6,5.5-15.8c3.7-4.3,8.9-6.4,15.5-6.4c6.7,0,12,2.2,15.6,6.4
					c3.6,4.2,5.4,9.5,5.4,15.8v5.3c0,6.3-1.8,11.6-5.5,15.7C806.6,3075.2,801.4,3077.3,794.8,3077.3z M794.7,3042
					c-1.6,0-2.8,0.7-3.7,2.1c-1,1.6-1.5,3.6-1.5,5.9v5.3c0,2.3,0.5,4.3,1.5,5.8c0.9,1.4,2.1,2,3.8,2c1.6,0,2.8-0.6,3.7-2
					c1-1.5,1.5-3.5,1.5-5.8v-5.3c0-2.3-0.5-4.3-1.5-5.9C797.5,3042.7,796.3,3042,794.7,3042z"/>
				<path d="M794.7,3029.3c6.3,0,11.1,2,14.5,5.9c3.4,3.9,5.1,8.9,5.1,14.8v5.3c0,6-1.7,10.9-5.1,14.7c-3.4,3.9-8.2,5.8-14.4,5.8
					c-6.2,0-11.1-1.9-14.5-5.8c-3.4-3.9-5.2-8.8-5.2-14.7v-5.3c0-5.9,1.7-10.8,5.1-14.8C783.7,3031.3,788.5,3029.3,794.7,3029.3
					 M794.8,3064.6c2.1,0,3.7-0.9,4.9-2.7c1.2-1.8,1.8-4,1.8-6.7v-5.3c0-2.7-0.6-4.9-1.8-6.7c-1.2-1.8-2.9-2.7-5-2.7
					c-2.2,0-3.8,0.9-5,2.8c-1.2,1.9-1.8,4.1-1.8,6.7v5.3c0,2.6,0.6,4.8,1.8,6.6C790.9,3063.7,792.6,3064.6,794.8,3064.6 M829.7,3040
					l9.2,5.1l-41.3,78.2l-9.2-5.1L829.7,3040 M836.7,3085.7c6.3,0,11.1,2,14.5,5.9c3.4,3.9,5.1,8.8,5.1,14.7v5.3
					c0,6-1.7,10.9-5.1,14.8c-3.4,3.9-8.2,5.8-14.4,5.8c-6.2,0-11.1-1.9-14.5-5.8c-3.5-3.9-5.2-8.8-5.2-14.8v-5.3
					c0-5.9,1.7-10.8,5.2-14.7C825.7,3087.6,830.5,3085.7,836.7,3085.7 M836.7,3121c0,0,0.1,0,0.1,0c0.1,0,0.1,0,0.2,0
					c2.4,0,4.1-0.8,5-2.5c1-1.7,1.4-4,1.4-6.9v-5.3c0-2.6-0.6-4.8-1.8-6.7c-1.2-1.8-2.9-2.7-5-2.7c-2.2,0-3.9,0.9-5,2.7
					c-1.1,1.8-1.7,4.1-1.7,6.7v5.3c0,2.6,0.7,4.8,2,6.7C833.2,3120,834.8,3121,836.7,3121 M794.7,3026.3c-7.1,0-12.7,2.3-16.7,6.9
					c-3.9,4.5-5.8,10.1-5.8,16.7v5.3c0,6.6,2,12.2,5.9,16.7c4,4.5,9.6,6.9,16.7,6.9c5,0,9.3-1.2,12.8-3.5l-21.9,41.4l-1.4,2.6
					l2.6,1.4l9.2,5.1l2.7,1.5l1.4-2.7l41.3-78.2l1.4-2.6l-2.6-1.4l-9.2-5.1l-2.7-1.5l-1.4,2.7l-9.9,18.7c0-0.6,0.1-1.3,0.1-2v-5.3
					c0-6.7-2-12.3-5.8-16.8C807.5,3028.7,801.8,3026.3,794.7,3026.3L794.7,3026.3z M794.8,3061.6c-1.2,0-1.9-0.4-2.6-1.4
					c-0.9-1.3-1.3-2.9-1.3-5v-5.3c0-2.1,0.4-3.7,1.3-5.1c0.6-1,1.3-1.4,2.4-1.4c1.1,0,1.9,0.4,2.5,1.4c0.9,1.3,1.3,3,1.3,5.1v5.3
					c0,2.1-0.4,3.7-1.3,5C796.6,3061.3,795.9,3061.6,794.8,3061.6L794.8,3061.6z M836.7,3082.7c-7.1,0-12.7,2.3-16.7,6.9
					c-3.9,4.5-5.9,10.1-5.9,16.7v5.3c0,6.7,2,12.3,5.9,16.8c4,4.5,9.7,6.8,16.8,6.8c7.1,0,12.6-2.3,16.6-6.9
					c3.9-4.4,5.8-10.1,5.8-16.7v-5.3c0-6.6-2-12.2-5.8-16.7C849.5,3085,843.8,3082.7,836.7,3082.7L836.7,3082.7z M836.7,3118
					c-0.6,0-1.4-0.2-2.3-1.5c-1-1.4-1.4-3-1.4-5v-5.3c0-2.1,0.4-3.7,1.3-5.1c0.6-1,1.3-1.3,2.5-1.3c1.1,0,1.9,0.4,2.5,1.4
					c0.9,1.3,1.3,3,1.3,5v5.3c0,2.4-0.4,4.2-1.1,5.5c-0.2,0.3-0.5,1-2.4,1l-0.1,0l-0.1,0L836.7,3118L836.7,3118L836.7,3118z"/>
			</g>
		</g>
	</g>
</g>
</svg>
