<?xml version="1.0" encoding="utf-8"?>
<!-- Generator: Adobe Illustrator 18.0.0, SVG Export Plug-In . SVG Version: 6.00 Build 0)  -->
<!DOCTYPE svg PUBLIC "-//W3C//DTD SVG 1.1//EN" "http://www.w3.org/Graphics/SVG/1.1/DTD/svg11.dtd">
<svg version="1.1" id="Layer_1" xmlns="http://www.w3.org/2000/svg" xmlns:xlink="http://www.w3.org/1999/xlink" x="0px" y="0px"
	 width="256px" height="43.3px" viewBox="9.7 460 256 43.3" enable-background="new 9.7 460 256 43.3" xml:space="preserve">
<g id="Layer_1_1_">
	<g>
		<line fill="none" stroke="#000000" stroke-width="2" stroke-miterlimit="10" x1="15.2" y1="486.9" x2="259.9" y2="486.9"/>
		<line fill="none" stroke="#000000" stroke-width="5" stroke-miterlimit="10" x1="15.2" y1="484.9" x2="259.9" y2="484.9"/>
	</g>
	<g>
		<g>
			<polygon fill="#FFFFFF" points="62.9,498.1 71.4,486 62.9,473.9 95.1,473.9 95.1,498.1 			"/>
			<path d="M94.5,474.4v23.2H64l8.1-11.6L64,474.4H94.5 M95.7,473.3h-1.1H64h-2.2l1.2,1.8l7.6,10.9l-7.5,11l-1.2,1.8H64h30.5h1.1
				v-1.1v-23.2L95.7,473.3L95.7,473.3z"/>
		</g>
		<g>
			<polygon fill="#FFFFFF" points="182.3,498.1 182.3,473.9 214.5,473.9 206,486 214.5,498.1 			"/>
			<path d="M213.4,474.4l-8.1,11.6l8.1,11.6h-30.5v-23.2H213.4 M215.6,473.3h-2.2h-30.5h-1.1v1.1v23.2v1.1h1.1h30.5h2.2l-1.2-1.8
				l-7.6-10.9l7.6-10.9L215.6,473.3L215.6,473.3z"/>
		</g>
		<g>
			<rect x="79.3" y="468.9" fill="#FFFFFF" width="118.6" height="24.3"/>
			<path d="M197.3,469.4v23.2H79.9v-23.2H197.3 M198.5,468.3h-1.1H79.9h-1.1v1.1v23.2v1.1h1.1h117.4h1.1v-1.1v-23.2L198.5,468.3
				L198.5,468.3z"/>
		</g>
		<g>
			<g>
				<path fill="#666666" d="M108.2,483v3.6h-2v-10.1h3.5c1,0,1.8,0.3,2.4,0.9s0.9,1.4,0.9,2.3s-0.3,1.7-0.9,2.3
					c-0.6,0.6-1.4,0.9-2.4,0.9L108.2,483L108.2,483z M108.2,481.4h1.5c0.4,0,0.7-0.2,1-0.5c0.2-0.3,0.3-0.7,0.3-1.2
					s-0.1-0.9-0.3-1.2c-0.2-0.3-0.5-0.5-1-0.5h-1.5V481.4L108.2,481.4z"/>
				<path fill="#666666" d="M121,483c0,1.2-0.3,2.1-1,2.8c-0.6,0.7-1.5,1-2.6,1s-1.9-0.3-2.5-1s-1-1.6-1-2.8v-2.8
					c0-1.2,0.3-2.1,1-2.8c0.6-0.7,1.5-1,2.5-1c1.1,0,1.9,0.3,2.6,1c0.6,0.7,1,1.6,1,2.8V483L121,483z M119,480.1
					c0-0.7-0.1-1.3-0.4-1.6c-0.3-0.4-0.7-0.5-1.2-0.5s-0.9,0.2-1.2,0.5c-0.2,0.4-0.4,0.9-0.4,1.6v2.8c0,0.7,0.1,1.3,0.4,1.6
					c0.2,0.4,0.7,0.5,1.2,0.5s0.9-0.2,1.2-0.5c0.3-0.4,0.4-0.9,0.4-1.6V480.1z"/>
				<path fill="#666666" d="M126.7,484c0-0.4-0.1-0.7-0.3-0.9c-0.2-0.2-0.6-0.5-1.1-0.7c-1-0.4-1.8-0.8-2.4-1.2
					c-0.5-0.5-0.8-1.1-0.8-2c0-0.8,0.3-1.5,0.9-2s1.4-0.8,2.3-0.8s1.7,0.3,2.3,0.9c0.6,0.6,0.9,1.3,0.9,2.2l0,0h-1.9
					c0-0.5-0.1-0.8-0.3-1.1c-0.2-0.3-0.5-0.4-1-0.4c-0.4,0-0.7,0.1-0.9,0.4c-0.2,0.2-0.3,0.5-0.3,0.9c0,0.3,0.1,0.6,0.4,0.8
					c0.2,0.2,0.7,0.5,1.3,0.7c1,0.3,1.7,0.7,2.2,1.2c0.5,0.5,0.7,1.2,0.7,2c0,0.9-0.3,1.5-0.9,2s-1.4,0.7-2.3,0.7s-1.8-0.3-2.5-0.8
					s-1-1.4-1-2.4l0,0h1.9c0,0.6,0.1,1.1,0.4,1.3c0.3,0.3,0.7,0.4,1.2,0.4c0.4,0,0.7-0.1,0.9-0.3C126.6,484.6,126.7,484.4,126.7,484
					z"/>
				<path fill="#666666" d="M135.8,478.1h-2.3v8.5h-2v-8.5h-2.2v-1.6h6.5V478.1L135.8,478.1z"/>
				<path fill="#666666" d="M144.4,484c0-0.4-0.1-0.7-0.3-0.9c-0.2-0.2-0.6-0.5-1.1-0.7c-1-0.4-1.8-0.8-2.4-1.2
					c-0.5-0.5-0.8-1.1-0.8-2c0-0.8,0.3-1.5,0.9-2c0.6-0.5,1.4-0.8,2.3-0.8s1.7,0.3,2.3,0.9s0.9,1.3,0.9,2.2l0,0h-1.9
					c0-0.5-0.1-0.8-0.3-1.1c-0.2-0.3-0.5-0.4-1-0.4c-0.4,0-0.7,0.1-0.9,0.4c-0.2,0.2-0.3,0.5-0.3,0.9c0,0.3,0.1,0.6,0.4,0.8
					c0.2,0.2,0.7,0.5,1.3,0.7c1,0.3,1.7,0.7,2.2,1.2s0.7,1.2,0.7,2c0,0.9-0.3,1.5-0.9,2c-0.6,0.5-1.4,0.7-2.3,0.7s-1.8-0.3-2.5-0.8
					s-1-1.4-1-2.4l0,0h1.9c0,0.6,0.1,1.1,0.4,1.3c0.3,0.3,0.7,0.4,1.2,0.4c0.4,0,0.7-0.1,0.9-0.3C144.3,484.7,144.4,484.4,144.4,484
					z"/>
				<path fill="#666666" d="M149.5,483v3.6h-2v-10.1h3.5c1,0,1.8,0.3,2.4,0.9c0.6,0.6,0.9,1.4,0.9,2.3s-0.3,1.7-0.9,2.3
					s-1.4,1-2.4,1L149.5,483L149.5,483z M149.5,481.4h1.5c0.4,0,0.7-0.2,1-0.5c0.2-0.3,0.3-0.7,0.3-1.2s-0.1-0.9-0.3-1.2
					c-0.2-0.3-0.5-0.5-1-0.5h-1.5V481.4L149.5,481.4z"/>
				<path fill="#666666" d="M157.6,486.6h-2v-10.1h2V486.6z"/>
				<path fill="#666666" d="M161.2,485h3.7v1.6h-5.7v-10.1h2V485z"/>
				<path fill="#666666" d="M167.9,485h3.7v1.6h-5.7v-10.1h2V485z"/>
			</g>
		</g>
	</g>
</g>
</svg>
