<?xml version="1.0" encoding="utf-8"?>
<!-- Generator: Adobe Illustrator 18.0.0, SVG Export Plug-In . SVG Version: 6.00 Build 0)  -->
<!DOCTYPE svg PUBLIC "-//W3C//DTD SVG 1.1//EN" "http://www.w3.org/Graphics/SVG/1.1/DTD/svg11.dtd">
<svg version="1.1" id="Layer_1" xmlns="http://www.w3.org/2000/svg" xmlns:xlink="http://www.w3.org/1999/xlink" x="0px" y="0px"
	 width="67.3px" height="34.7px" viewBox="167.7 504.7 67.3 34.7" enable-background="new 167.7 504.7 67.3 34.7"
	 xml:space="preserve">
<g>
	<g>
		
			<linearGradient id="SVGID_1_" gradientUnits="userSpaceOnUse" x1="919.7949" y1="-1452.4658" x2="919.7949" y2="-1522.269" gradientTransform="matrix(0.227 0 0 -0.227 5.655301e-02 179.7833)">
			<stop  offset="6.804837e-02" style="stop-color:#FFFFFF"/>
			<stop  offset="1" style="stop-color:#29ABE2"/>
		</linearGradient>
		<path fill="url(#SVGID_1_)" d="M215.4,526.4h-13.1c-0.6,0-1-0.5-1-1v-12.3c0-0.6,0.5-1,1-1h13.1c0.6,0,1,0.5,1,1v12.3
			C216.4,526,215.9,526.4,215.4,526.4z"/>
		<path fill="#231F20" d="M208.7,526h2c1.7,0,3.5,0,5.2,0h0.1l0,0c0-4.2,0-8.4,0-12.5c0-0.7-0.4-0.9-0.9-0.9c-4.2,0-8.4,0-12.6,0
			c-0.8,0-0.9,0.4-0.9,0.9c0,4,0,8.1,0,12.1v0.4v0.1c0,0,0.1,0,0.2,0c1.8,0,3.5,0,5.3,0L208.7,526L208.7,526z M212.6,527.2
			c-0.7,0-1.3,0-2,0H207c-1.8,0-3.5,0-5.3,0c-0.8,0-1.3-0.2-1.3-1.3v-0.4c0-4,0-8.1,0-12.1c0-1.3,0.8-2.1,2.1-2.1
			c4.2,0,8.4,0,12.6,0c1.3,0,2.1,0.8,2.1,2.1c0,4.1,0,8.3,0,12.5c0,1.1-0.6,1.3-1.2,1.3C214.8,527.2,213.7,527.2,212.6,527.2"/>
		<path fill="#231F20" d="M222.5,520.7c0.8,0,1.6,0,2.4,0c0.2,0,0.4-0.1,0.5-0.2c0.1-0.1,0-0.4-0.1-0.6c-0.6-0.9-1.2-1.8-1.8-2.7
			c-0.2-0.2-0.4-0.4-0.6-0.4c-0.9,0-1.8,0-2.7,0c-0.5,0-0.6,0.1-0.6,0.6c0,0.9,0,1.7,0,2.6c0,0.5,0.1,0.6,0.6,0.6
			C220.9,520.7,221.7,520.7,222.5,520.7 M228.1,527.8C228.4,527.8,227.8,527.8,228.1,527.8c0.4,0,0.5,0.2,0.5,0.5c0,0.4,0,0.7,0,1.1
			c0,0.4-0.1,0.6-0.5,0.6c-1,0-1.1,0-2.1,0c-0.2,0-0.2-0.1-0.3-0.3c-0.4-1.5-1.3-2.4-2.7-2.7c-1.6-0.3-3.4,0.9-3.8,2.6
			c-0.1,0.3-0.1,0.4-0.4,0.4c-2,0-4,0-6,0c-0.2,0-0.3,0-0.4-0.3c-0.1-0.7-0.5-1.3-1-1.8h6.3v-0.5c0-3.9,0-7.8,0-11.7
			c0-0.8,0.3-1.1,1.1-1.1c1.2,0,2.3,0,3.5,0s2.2,0.5,2.9,1.6c0.8,1.2,1.6,2.5,2.4,3.7c0.4,0.7,0.6,1.4,0.6,2.2c0,1.8,0,3.5,0,5.3
			L228.1,527.8L228.1,527.8z"/>
		<path fill="#231F20" d="M210.4,530.4c0-0.7-0.6-1.3-1.2-1.3c-0.7,0-1.3,0.6-1.3,1.4c0,0.7,0.6,1.3,1.2,1.3
			C209.9,531.8,210.4,531.2,210.4,530.4 M206.7,530.5c0-1.5,1.1-2.7,2.5-2.7s2.5,1.2,2.5,2.7s-1.1,2.7-2.5,2.7
			S206.7,532,206.7,530.5"/>
		<path fill="#231F20" d="M223.7,530.5c0-0.7-0.5-1.3-1.2-1.4c-0.7,0-1.3,0.6-1.3,1.3s0.6,1.4,1.3,1.4
			C223.1,531.8,223.7,531.2,223.7,530.5 M219.9,530.5c0-1.5,1.1-2.7,2.5-2.7s2.5,1.2,2.5,2.7s-1.2,2.7-2.5,2.7
			C221.1,533.2,219.9,532,219.9,530.5"/>
		<path fill="#231F20" d="M206.9,527.8c-0.3,0.5-0.5,0.9-0.8,1.4c-0.1,0.1-0.1,0.2-0.1,0.4c0,0.3-0.2,0.4-0.5,0.4
			c-1.3,0-2.5,0-3.8,0c-0.7,0-0.7-0.1-0.7-0.8c0-0.3,0-0.6,0-0.9s0.2-0.5,0.5-0.5C203.2,527.8,205,527.8,206.9,527.8"/>
		<path fill="#B3B3B3" d="M210.4,530.4c0,0.7-0.6,1.4-1.3,1.4s-1.2-0.6-1.2-1.3c0-0.8,0.5-1.4,1.3-1.4
			C209.9,529.1,210.4,529.7,210.4,530.4"/>
		<path fill="#B3B3B3" d="M223.7,530.5c0,0.7-0.6,1.3-1.2,1.3c-0.7,0-1.3-0.6-1.3-1.4c0-0.7,0.6-1.3,1.3-1.3
			S223.7,529.7,223.7,530.5"/>
		<path fill="#FFFFFF" d="M209.3,521.6c0.6-0.2,0.7-0.6,0.7-1.1s0-0.8-0.7-1V521.6z M208.5,516.2c-0.4,0.1-0.6,0.4-0.6,1.1
			c0,0.5,0,0.7,0.6,0.9V516.2z M207.3,520.8c0.3,0.4,0.6,0.7,1.2,0.7v-2.2c-1.2-0.3-1.6-1-1.6-2c0-1.2,0.5-1.9,1.6-2v-0.7h0.8v0.7
			c0.7,0,1,0.2,1.5,0.7l-0.6,0.7c-0.3-0.3-0.6-0.4-1-0.5v2.1c1.3,0.2,1.7,1,1.7,2.1s-0.6,1.9-1.7,2.1v1.1h-0.8v-1.1
			c-0.7,0-1.4-0.4-1.9-1L207.3,520.8z"/>
		<g>
			<path fill="#E6E6E6" d="M198.5,527.1c0.3,0,0.6,0.3,0.7,0.6h0.1c0.2,0,0.5,0.2,0.5,0.5c0,0.2-0.2,0.5-0.5,0.5
				c-0.2,0-0.4-0.1-0.4-0.3c-0.1,0.1-0.2,0.1-0.4,0.1c-0.4,0-0.7-0.3-0.7-0.7C197.9,527.3,198.2,527.1,198.5,527.1z"/>
			<path fill="#E6E6E6" d="M195.3,527.1c0.1,0,0.1,0,0.2,0c0.1-0.2,0.4-0.4,0.7-0.4c0.4,0,0.7,0.3,0.7,0.7l0,0
				c0.2,0.1,0.5,0.3,0.5,0.6s-0.2,0.6-0.6,0.6c-0.2,0-0.3-0.1-0.4-0.2c-0.1,0.5-0.5,0.8-1,0.8c-0.6,0-1.1-0.5-1.1-1.1
				S194.8,527.1,195.3,527.1z"/>
			<path fill="#E6E6E6" d="M190.7,525.1c0.1,0,0.3,0,0.4,0.1c0.1-0.8,0.7-1.4,1.5-1.4s1.5,0.7,1.5,1.5c0,0.6-0.4,1.1-0.9,1.4
				c0.1,0.2,0.2,0.4,0.2,0.6c0,0.6-0.5,1-1,1c-0.6,0-1-0.5-1-1l0,0c-0.2,0.2-0.5,0.2-0.7,0.2c-0.7,0-1.2-0.5-1.2-1.2
				C189.5,525.6,190,525.1,190.7,525.1z"/>
			<path fill="#E6E6E6" d="M179.8,522.6c0.1,0,0.1,0,0.2,0c0.1-0.2,0.4-0.4,0.7-0.4c0.4,0,0.7,0.3,0.7,0.7l0,0
				c0.2,0.1,0.5,0.3,0.5,0.6s-0.2,0.6-0.6,0.6c-0.2,0-0.3-0.1-0.4-0.2c-0.1,0.5-0.5,0.8-1,0.8c-0.6,0-1.1-0.5-1.1-1.1
				S179.2,522.6,179.8,522.6z"/>
			<path fill="#E6E6E6" d="M175.1,520.6c0.1,0,0.3,0,0.4,0.1c0.1-0.8,0.7-1.4,1.5-1.4s1.5,0.7,1.5,1.5c0,0.6-0.4,1.1-0.9,1.4
				c0.1,0.2,0.2,0.4,0.2,0.6c0,0.6-0.5,1-1,1c-0.6,0-1-0.5-1-1l0,0c-0.2,0.2-0.5,0.2-0.7,0.2c-0.7,0-1.2-0.5-1.2-1.2
				S174.5,520.6,175.1,520.6z"/>
			<path fill="#E6E6E6" d="M183.4,522.6c0.3,0,0.5,0.1,0.7,0.2c0.1-1.2,1.1-2.1,2.3-2.1s2.3,1,2.3,2.3c0,0.9-0.5,1.7-1.3,2.1
				c0.2,0.2,0.4,0.5,0.4,0.8c0,0.6-0.5,1-1,1s-1-0.5-1-1c0-0.2,0.1-0.5,0.2-0.6c-0.5-0.1-1-0.4-1.3-0.9c-0.2,0.4-0.6,0.7-1.1,0.7
				c-0.7,0-1.2-0.6-1.2-1.2C182.1,523.3,182.7,522.6,183.4,522.6z"/>
			<circle fill="#E6E6E6" cx="182.8" cy="520.7" r="1.2"/>
		</g>
	</g>
</g>
</svg>
