<?xml version="1.0" encoding="utf-8"?>
<!-- Generator: Adobe Illustrator 18.0.0, SVG Export Plug-In . SVG Version: 6.00 Build 0)  -->
<!DOCTYPE svg PUBLIC "-//W3C//DTD SVG 1.1//EN" "http://www.w3.org/Graphics/SVG/1.1/DTD/svg11.dtd">
<svg version="1.1" id="Layer_1" xmlns="http://www.w3.org/2000/svg" xmlns:xlink="http://www.w3.org/1999/xlink" x="0px" y="0px"
	 width="139.3px" height="58px" viewBox="4.3 504 139.3 58" enable-background="new 4.3 504 139.3 58" xml:space="preserve">
<g>
	<g>
		
			<linearGradient id="SVGID_1_" gradientUnits="userSpaceOnUse" x1="446.8071" y1="-1560.4658" x2="446.8071" y2="-1630.269" gradientTransform="matrix(-0.227 0 0 -0.227 140.2752 179.7833)">
			<stop  offset="6.804837e-02" style="stop-color:#FFFFFF"/>
			<stop  offset="1" style="stop-color:#29ABE2"/>
		</linearGradient>
		<path fill="url(#SVGID_1_)" d="M32.3,551h13.1c0.6,0,1-0.5,1-1v-12.3c0-0.6-0.5-1-1-1H32.3c-0.6,0-1,0.5-1,1V550
			C31.3,550.5,31.7,551,32.3,551z"/>
		<path fill="#231F20" d="M40.7,550.5c1.8,0,3.5,0,5.3,0c0.1,0,0.1,0,0.2,0c0,0,0,0,0-0.1V550c0-4,0-8.1,0-12.1
			c0-0.5-0.1-0.9-0.9-0.9c-4.2,0-8.4,0-12.6,0c-0.6,0-0.9,0.2-0.9,0.9c0,4.1,0,8.3,0,12.5l0,0h0.1c1.7,0,3.5,0,5.2,0h2L40.7,550.5
			L40.7,550.5z M35,551.7c-1.1,0-2.2,0-3.2,0c-0.6,0-1.2-0.2-1.2-1.3c0-4.2,0-8.4,0-12.5c0-1.3,0.8-2.1,2.1-2.1c4.2,0,8.4,0,12.6,0
			c1.3,0,2.1,0.8,2.1,2.1c0,4,0,8.1,0,12.1v0.4c0,1.1-0.5,1.3-1.3,1.3c-1.8,0-3.5,0-5.3,0H37C36.3,551.7,35.7,551.7,35,551.7"/>
		<path fill="#231F20" d="M25.2,545.2c0.8,0,1.6,0,2.3,0c0.5,0,0.6-0.1,0.6-0.6c0-0.9,0-1.7,0-2.6c0-0.5-0.1-0.6-0.6-0.6
			c-0.9,0-1.8,0-2.7,0c-0.3,0-0.5,0.1-0.6,0.4c-0.6,0.9-1.2,1.8-1.8,2.7c-0.1,0.2-0.2,0.4-0.1,0.6c0.1,0.1,0.3,0.2,0.5,0.2
			C23.6,545.2,24.4,545.2,25.2,545.2 M19.6,551.9c0-1.8,0-3.5,0-5.3c0-0.8,0.2-1.5,0.6-2.2c0.8-1.2,1.6-2.5,2.4-3.7
			c0.7-1.1,1.7-1.6,2.9-1.6c1.2,0,2.3,0,3.5,0c0.8,0,1.1,0.3,1.1,1.1c0,3.9,0,7.8,0,11.7v0.5h6.3c-0.5,0.5-0.9,1.1-1,1.8
			c0,0.3-0.2,0.3-0.4,0.3c-2,0-4,0-6,0c-0.3,0-0.4-0.1-0.4-0.4c-0.3-1.7-2.1-3-3.8-2.6c-1.4,0.3-2.3,1.2-2.7,2.7
			c0,0.2-0.1,0.3-0.3,0.3c-1,0-1.1,0-2.1,0c-0.4,0-0.5-0.2-0.5-0.6c0-0.4,0-0.7,0-1.1c0-0.4,0.1-0.5,0.5-0.5c0.3,0-0.3,0,0,0
			C19.6,552.3,19.6,551.9,19.6,551.9z"/>
		<path fill="#231F20" d="M37.2,554.9c0,0.7,0.6,1.4,1.3,1.4s1.2-0.6,1.2-1.3c0-0.8-0.5-1.4-1.3-1.4
			C37.8,553.6,37.2,554.2,37.2,554.9 M41,555c0,1.5-1.2,2.7-2.5,2.7c-1.4,0-2.5-1.2-2.5-2.7s1.1-2.7,2.5-2.7S41,553.5,41,555"/>
		<path fill="#231F20" d="M23.9,555c0,0.7,0.6,1.3,1.2,1.3c0.7,0,1.3-0.6,1.3-1.4c0-0.7-0.6-1.3-1.3-1.3
			C24.5,553.6,23.9,554.2,23.9,555 M27.7,555c0,1.5-1.1,2.7-2.5,2.7s-2.5-1.2-2.5-2.7s1.1-2.7,2.5-2.7S27.8,553.5,27.7,555"/>
		<path fill="#231F20" d="M40.8,552.3c0.3,0.5,0.5,0.9,0.8,1.4c0.1,0.1,0.1,0.2,0.1,0.4c0,0.3,0.2,0.4,0.5,0.4c1.3,0,2.5,0,3.8,0
			c0.7,0,0.7-0.1,0.7-0.8c0-0.3,0-0.6,0-0.9c0-0.3-0.2-0.5-0.5-0.5C44.5,552.3,42.6,552.3,40.8,552.3"/>
		<path fill="#B3B3B3" d="M37.2,554.9c0,0.7,0.6,1.4,1.3,1.4s1.2-0.6,1.2-1.3c0-0.8-0.5-1.4-1.3-1.4
			C37.8,553.6,37.2,554.2,37.2,554.9"/>
		<path fill="#B3B3B3" d="M23.9,555c0,0.7,0.6,1.3,1.2,1.3c0.7,0,1.3-0.6,1.3-1.4c0-0.7-0.6-1.3-1.3-1.3
			C24.5,553.6,23.9,554.2,23.9,555"/>
		<path fill="#FFFFFF" d="M39.2,546.1c0.6-0.2,0.7-0.6,0.7-1.1s0-0.8-0.7-1V546.1z M38.4,540.7c-0.4,0.1-0.6,0.4-0.6,1.1
			c0,0.5,0,0.7,0.6,0.9V540.7z M37.2,545.3c0.3,0.4,0.6,0.7,1.2,0.7v-2.2c-1.2-0.3-1.6-1-1.6-2c0-1.2,0.5-1.9,1.6-2v-0.7h0.8v0.7
			c0.7,0,1,0.2,1.5,0.7l-0.6,0.7c-0.3-0.3-0.6-0.4-1-0.5v2.1c1.3,0.2,1.7,1,1.7,2.1s-0.6,1.9-1.7,2.1v1.1h-0.8V547
			c-0.7,0-1.4-0.4-1.9-1L37.2,545.3z"/>
		<g>
			<path fill="#E6E6E6" d="M49.1,551.6c-0.3,0-0.6,0.3-0.7,0.6h-0.1c-0.2,0-0.5,0.2-0.5,0.5s0.2,0.5,0.5,0.5c0.2,0,0.4-0.1,0.4-0.3
				c0.1,0.1,0.2,0.1,0.4,0.1c0.4,0,0.7-0.3,0.7-0.7C49.8,551.9,49.5,551.6,49.1,551.6z"/>
			<path fill="#E6E6E6" d="M52.3,551.6c-0.1,0-0.1,0-0.2,0c-0.1-0.2-0.4-0.4-0.7-0.4c-0.4,0-0.7,0.3-0.7,0.7l0,0
				c-0.2,0.1-0.5,0.3-0.5,0.6s0.2,0.6,0.6,0.6c0.2,0,0.3-0.1,0.4-0.2c0.1,0.5,0.5,0.8,1,0.8c0.6,0,1.1-0.5,1.1-1.1
				S52.9,551.6,52.3,551.6z"/>
			<path fill="#E6E6E6" d="M57,549.6c-0.1,0-0.3,0-0.4,0.1c-0.1-0.8-0.7-1.4-1.5-1.4s-1.5,0.7-1.5,1.5c0,0.6,0.4,1.1,0.9,1.4
				c-0.1,0.2-0.2,0.4-0.2,0.6c0,0.6,0.5,1,1,1s1-0.5,1-1l0,0c0.2,0.2,0.5,0.2,0.7,0.2c0.7,0,1.2-0.5,1.2-1.2S57.6,549.6,57,549.6z"
				/>
			<path fill="#E6E6E6" d="M67.9,547.1c-0.1,0-0.1,0-0.2,0c-0.1-0.2-0.4-0.4-0.7-0.4c-0.4,0-0.7,0.3-0.7,0.7l0,0
				c-0.2,0.1-0.5,0.3-0.5,0.6s0.2,0.6,0.6,0.6c0.2,0,0.3-0.1,0.4-0.2c0.1,0.5,0.5,0.8,1,0.8c0.6,0,1.1-0.5,1.1-1.1
				C68.9,547.6,68.5,547.1,67.9,547.1z"/>
			<path fill="#E6E6E6" d="M72.5,545.1c-0.1,0-0.3,0-0.4,0.1c-0.1-0.8-0.7-1.4-1.5-1.4s-1.5,0.7-1.5,1.5c0,0.6,0.4,1.1,0.9,1.4
				c-0.1,0.2-0.2,0.4-0.2,0.6c0,0.6,0.5,1,1,1c0.6,0,1-0.5,1-1l0,0c0.2,0.2,0.5,0.2,0.7,0.2c0.7,0,1.2-0.5,1.2-1.2
				C73.7,545.6,73.2,545.1,72.5,545.1z"/>
			<path fill="#E6E6E6" d="M64.3,547.2c-0.3,0-0.5,0.1-0.7,0.2c-0.1-1.2-1.1-2.1-2.3-2.1s-2.3,1-2.3,2.3c0,0.9,0.5,1.7,1.3,2.1
				c-0.2,0.2-0.4,0.5-0.4,0.8c0,0.6,0.5,1,1,1s1-0.5,1-1c0-0.2-0.1-0.5-0.2-0.6c0.5-0.1,1-0.4,1.3-0.9c0.2,0.4,0.6,0.7,1.1,0.7
				c0.7,0,1.2-0.6,1.2-1.2C65.5,547.8,65,547.2,64.3,547.2z"/>
			<circle fill="#E6E6E6" cx="64.8" cy="545.2" r="1.2"/>
		</g>
	</g>
	<g>
		
			<linearGradient id="SVGID_2_" gradientUnits="userSpaceOnUse" x1="301.8732" y1="-1560.4658" x2="301.8732" y2="-1630.269" gradientTransform="matrix(-0.227 0 0 -0.227 140.2752 179.7833)">
			<stop  offset="6.804837e-02" style="stop-color:#FFFFFF"/>
			<stop  offset="1" style="stop-color:#29ABE2"/>
		</linearGradient>
		<path fill="url(#SVGID_2_)" d="M65.2,551h13.1c0.6,0,1-0.5,1-1v-12.3c0-0.6-0.5-1-1-1H65.2c-0.6,0-1,0.5-1,1V550
			C64.2,550.5,64.6,551,65.2,551z"/>
		<path fill="#231F20" d="M73.6,550.5c1.8,0,3.5,0,5.3,0c0.1,0,0.1,0,0.2,0c0,0,0,0,0-0.1V550c0-4,0-8.1,0-12.1
			c0-0.5-0.1-0.9-0.9-0.9c-4.2,0-8.4,0-12.6,0c-0.6,0-0.9,0.2-0.9,0.9c0,4.1,0,8.3,0,12.5l0,0h0.1c1.7,0,3.5,0,5.2,0h2L73.6,550.5
			L73.6,550.5z M67.9,551.7c-1.1,0-2.2,0-3.2,0c-0.6,0-1.2-0.2-1.2-1.3c0-4.2,0-8.4,0-12.5c0-1.3,0.8-2.1,2.1-2.1
			c4.2,0,8.4,0,12.6,0c1.3,0,2.1,0.8,2.1,2.1c0,4,0,8.1,0,12.1v0.4c0,1.1-0.5,1.3-1.3,1.3c-1.8,0-3.5,0-5.3,0H70
			C69.2,551.7,68.6,551.7,67.9,551.7"/>
		<path fill="#231F20" d="M58.1,545.2c0.8,0,1.6,0,2.3,0c0.5,0,0.6-0.1,0.6-0.6c0-0.9,0-1.7,0-2.6c0-0.5-0.1-0.6-0.6-0.6
			c-0.9,0-1.8,0-2.7,0c-0.3,0-0.5,0.1-0.6,0.4c-0.6,0.9-1.2,1.8-1.8,2.7c-0.1,0.2-0.2,0.4-0.1,0.6s0.3,0.2,0.5,0.2
			C56.5,545.2,57.3,545.2,58.1,545.2 M52.5,551.9c0-1.8,0-3.5,0-5.3c0-0.8,0.2-1.5,0.6-2.2c0.8-1.2,1.6-2.5,2.4-3.7
			c0.7-1.1,1.7-1.6,2.9-1.6s2.3,0,3.5,0c0.8,0,1.1,0.3,1.1,1.1c0,3.9,0,7.8,0,11.7v0.5h6.3c-0.5,0.5-0.9,1.1-1,1.8
			c0,0.3-0.2,0.3-0.4,0.3c-2,0-4,0-6,0c-0.3,0-0.4-0.1-0.4-0.4c-0.3-1.7-2.1-3-3.8-2.6c-1.4,0.3-2.3,1.2-2.7,2.7
			c0,0.2-0.1,0.3-0.3,0.3c-1,0-1.1,0-2.1,0c-0.4,0-0.5-0.2-0.5-0.6c0-0.4,0-0.7,0-1.1c0-0.4,0.1-0.5,0.5-0.5c0.3,0-0.3,0,0,0
			L52.5,551.9L52.5,551.9z"/>
		<path fill="#231F20" d="M70.2,554.9c0,0.7,0.6,1.4,1.3,1.4s1.2-0.6,1.2-1.3c0-0.8-0.5-1.4-1.3-1.4
			C70.7,553.6,70.2,554.2,70.2,554.9 M73.9,555c0,1.5-1.2,2.7-2.5,2.7c-1.4,0-2.5-1.2-2.5-2.7s1.1-2.7,2.5-2.7S73.9,553.5,73.9,555"
			/>
		<path fill="#231F20" d="M56.9,555c0,0.7,0.6,1.3,1.2,1.3c0.7,0,1.3-0.6,1.3-1.4c0-0.7-0.6-1.3-1.3-1.3S56.9,554.2,56.9,555
			 M60.6,555c0,1.5-1.1,2.7-2.5,2.7s-2.5-1.2-2.5-2.7s1.1-2.7,2.5-2.7S60.7,553.5,60.6,555"/>
		<path fill="#231F20" d="M73.7,552.3c0.3,0.5,0.5,0.9,0.8,1.4c0.1,0.1,0.1,0.2,0.1,0.4c0,0.3,0.2,0.4,0.5,0.4c1.3,0,2.5,0,3.8,0
			c0.7,0,0.7-0.1,0.7-0.8c0-0.3,0-0.6,0-0.9c0-0.3-0.2-0.5-0.5-0.5C77.4,552.3,75.6,552.3,73.7,552.3"/>
		<path fill="#B3B3B3" d="M70.2,554.9c0,0.7,0.6,1.4,1.3,1.4s1.2-0.6,1.2-1.3c0-0.8-0.5-1.4-1.3-1.4
			C70.7,553.6,70.2,554.2,70.2,554.9"/>
		<path fill="#B3B3B3" d="M56.9,555c0,0.7,0.6,1.3,1.2,1.3c0.7,0,1.3-0.6,1.3-1.4c0-0.7-0.6-1.3-1.3-1.3S56.9,554.2,56.9,555"/>
		<path fill="#FFFFFF" d="M72.2,546.1c0.6-0.2,0.7-0.6,0.7-1.1s0-0.8-0.7-1V546.1z M71.4,540.7c-0.4,0.1-0.6,0.4-0.6,1.1
			c0,0.5,0,0.7,0.6,0.9V540.7z M70.2,545.3c0.3,0.4,0.6,0.7,1.2,0.7v-2.2c-1.2-0.3-1.6-1-1.6-2c0-1.2,0.5-1.9,1.6-2v-0.7h0.8v0.7
			c0.7,0,1,0.2,1.5,0.7l-0.6,0.7c-0.3-0.3-0.6-0.4-1-0.5v2.1c1.3,0.2,1.7,1,1.7,2.1s-0.6,1.9-1.7,2.1v1.1h-0.8V547
			c-0.7,0-1.4-0.4-1.9-1L70.2,545.3z"/>
		<g>
			<path fill="#E6E6E6" d="M82,551.6c-0.3,0-0.6,0.3-0.7,0.6h-0.1c-0.2,0-0.5,0.2-0.5,0.5s0.2,0.5,0.5,0.5c0.2,0,0.4-0.1,0.4-0.3
				c0.1,0.1,0.2,0.1,0.4,0.1c0.4,0,0.7-0.3,0.7-0.7C82.7,551.9,82.4,551.6,82,551.6z"/>
			<path fill="#E6E6E6" d="M85.2,551.6c-0.1,0-0.1,0-0.2,0c-0.1-0.2-0.4-0.4-0.7-0.4c-0.4,0-0.7,0.3-0.7,0.7l0,0
				c-0.2,0.1-0.5,0.3-0.5,0.6s0.2,0.6,0.6,0.6c0.2,0,0.3-0.1,0.4-0.2c0.1,0.5,0.5,0.8,1,0.8c0.6,0,1.1-0.5,1.1-1.1
				S85.8,551.6,85.2,551.6z"/>
			<path fill="#E6E6E6" d="M89.9,549.6c-0.1,0-0.3,0-0.4,0.1c-0.1-0.8-0.7-1.4-1.5-1.4s-1.5,0.7-1.5,1.5c0,0.6,0.4,1.1,0.9,1.4
				c-0.1,0.2-0.2,0.4-0.2,0.6c0,0.6,0.5,1,1,1s1-0.5,1-1l0,0c0.2,0.2,0.5,0.2,0.7,0.2c0.7,0,1.2-0.5,1.2-1.2S90.5,549.6,89.9,549.6z
				"/>
			<path fill="#E6E6E6" d="M100.8,547.1c-0.1,0-0.1,0-0.2,0c-0.1-0.2-0.4-0.4-0.7-0.4c-0.4,0-0.7,0.3-0.7,0.7l0,0
				c-0.2,0.1-0.5,0.3-0.5,0.6s0.2,0.6,0.6,0.6c0.2,0,0.3-0.1,0.4-0.2c0.1,0.5,0.5,0.8,1,0.8c0.6,0,1.1-0.5,1.1-1.1
				C101.8,547.6,101.4,547.1,100.8,547.1z"/>
			<path fill="#E6E6E6" d="M105.4,545.1c-0.1,0-0.3,0-0.4,0.1c-0.1-0.8-0.7-1.4-1.5-1.4s-1.5,0.7-1.5,1.5c0,0.6,0.4,1.1,0.9,1.4
				c-0.1,0.2-0.2,0.4-0.2,0.6c0,0.6,0.5,1,1,1c0.6,0,1-0.5,1-1l0,0c0.2,0.2,0.5,0.2,0.7,0.2c0.7,0,1.2-0.5,1.2-1.2
				C106.6,545.6,106.1,545.1,105.4,545.1z"/>
			<path fill="#E6E6E6" d="M97.2,547.2c-0.3,0-0.5,0.1-0.7,0.2c-0.1-1.2-1.1-2.1-2.3-2.1c-1.2,0-2.3,1-2.3,2.3
				c0,0.9,0.5,1.7,1.3,2.1c-0.2,0.2-0.4,0.5-0.4,0.8c0,0.6,0.5,1,1,1s1-0.5,1-1c0-0.2-0.1-0.5-0.2-0.6c0.5-0.1,1-0.4,1.3-0.9
				c0.2,0.4,0.6,0.7,1.1,0.7c0.7,0,1.2-0.6,1.2-1.2C98.4,547.8,97.9,547.2,97.2,547.2z"/>
			<circle fill="#E6E6E6" cx="97.8" cy="545.2" r="1.2"/>
		</g>
	</g>
	<g>
		
			<linearGradient id="SVGID_3_" gradientUnits="userSpaceOnUse" x1="153.8555" y1="-1560.4658" x2="153.8555" y2="-1630.269" gradientTransform="matrix(-0.227 0 0 -0.227 140.2752 179.7833)">
			<stop  offset="6.804837e-02" style="stop-color:#FFFFFF"/>
			<stop  offset="1" style="stop-color:#29ABE2"/>
		</linearGradient>
		<path fill="url(#SVGID_3_)" d="M98.8,551h13.1c0.6,0,1-0.5,1-1v-12.3c0-0.6-0.5-1-1-1H98.8c-0.6,0-1,0.5-1,1V550
			C97.8,550.5,98.2,551,98.8,551z"/>
		<path fill="#231F20" d="M107.2,550.5c1.8,0,3.5,0,5.3,0c0.1,0,0.1,0,0.2,0c0,0,0,0,0-0.1V550c0-4,0-8.1,0-12.1
			c0-0.5-0.1-0.9-0.9-0.9c-4.2,0-8.4,0-12.6,0c-0.6,0-0.9,0.2-0.9,0.9c0,4.1,0,8.3,0,12.5l0,0h0.1c1.7,0,3.5,0,5.2,0h2L107.2,550.5
			L107.2,550.5z M101.5,551.7c-1.1,0-2.2,0-3.2,0c-0.6,0-1.2-0.2-1.2-1.3c0-4.2,0-8.4,0-12.5c0-1.3,0.8-2.1,2.1-2.1
			c4.2,0,8.4,0,12.6,0c1.3,0,2.1,0.8,2.1,2.1c0,4,0,8.1,0,12.1v0.4c0,1.1-0.5,1.3-1.3,1.3c-1.8,0-3.5,0-5.3,0h-3.7
			C102.8,551.7,102.2,551.7,101.5,551.7"/>
		<path fill="#231F20" d="M91.7,545.2c0.8,0,1.6,0,2.3,0c0.5,0,0.6-0.1,0.6-0.6c0-0.9,0-1.7,0-2.6c0-0.5-0.1-0.6-0.6-0.6
			c-0.9,0-1.8,0-2.7,0c-0.3,0-0.5,0.1-0.6,0.4c-0.6,0.9-1.2,1.8-1.8,2.7c-0.1,0.2-0.2,0.4-0.1,0.6c0.1,0.1,0.3,0.2,0.5,0.2
			C90.1,545.2,90.9,545.2,91.7,545.2 M86.1,551.9c0-1.8,0-3.5,0-5.3c0-0.8,0.2-1.5,0.6-2.2c0.8-1.2,1.6-2.5,2.4-3.7
			c0.7-1.1,1.7-1.6,2.9-1.6c1.2,0,2.3,0,3.5,0c0.8,0,1.1,0.3,1.1,1.1c0,3.9,0,7.8,0,11.7v0.5h6.3c-0.5,0.5-0.9,1.1-1,1.8
			c0,0.3-0.2,0.3-0.4,0.3c-2,0-4,0-6,0c-0.3,0-0.4-0.1-0.4-0.4c-0.3-1.7-2.1-3-3.8-2.6c-1.4,0.3-2.3,1.2-2.7,2.7
			c0,0.2-0.1,0.3-0.3,0.3c-1,0-1.1,0-2.1,0c-0.4,0-0.5-0.2-0.5-0.6c0-0.4,0-0.7,0-1.1c0-0.4,0.1-0.5,0.5-0.5c0.3,0-0.3,0,0,0
			L86.1,551.9L86.1,551.9z"/>
		<path fill="#231F20" d="M103.8,554.9c0,0.7,0.6,1.4,1.3,1.4s1.2-0.6,1.2-1.3c0-0.8-0.5-1.4-1.3-1.4
			C104.3,553.6,103.8,554.2,103.8,554.9 M107.5,555c0,1.5-1.2,2.7-2.5,2.7c-1.4,0-2.5-1.2-2.5-2.7s1.1-2.7,2.5-2.7
			S107.5,553.5,107.5,555"/>
		<path fill="#231F20" d="M90.5,555c0,0.7,0.6,1.3,1.2,1.3c0.7,0,1.3-0.6,1.3-1.4c0-0.7-0.6-1.3-1.3-1.3
			C91,553.6,90.5,554.2,90.5,555 M94.2,555c0,1.5-1.1,2.7-2.5,2.7s-2.5-1.2-2.5-2.7s1.1-2.7,2.5-2.7S94.3,553.5,94.2,555"/>
		<path fill="#231F20" d="M107.3,552.3c0.3,0.5,0.5,0.9,0.8,1.4c0.1,0.1,0.1,0.2,0.1,0.4c0,0.3,0.2,0.4,0.5,0.4c1.3,0,2.5,0,3.8,0
			c0.7,0,0.7-0.1,0.7-0.8c0-0.3,0-0.6,0-0.9c0-0.3-0.2-0.5-0.5-0.5C111,552.3,109.2,552.3,107.3,552.3"/>
		<path fill="#B3B3B3" d="M103.8,554.9c0,0.7,0.6,1.4,1.3,1.4s1.2-0.6,1.2-1.3c0-0.8-0.5-1.4-1.3-1.4
			C104.3,553.6,103.8,554.2,103.8,554.9"/>
		<path fill="#B3B3B3" d="M90.5,555c0,0.7,0.6,1.3,1.2,1.3c0.7,0,1.3-0.6,1.3-1.4c0-0.7-0.6-1.3-1.3-1.3
			C91,553.6,90.5,554.2,90.5,555"/>
		<path fill="#FFFFFF" d="M105.8,546.1c0.6-0.2,0.7-0.6,0.7-1.1s0-0.8-0.7-1V546.1z M105,540.7c-0.4,0.1-0.6,0.4-0.6,1.1
			c0,0.5,0,0.7,0.6,0.9V540.7z M103.8,545.3c0.3,0.4,0.6,0.7,1.2,0.7v-2.2c-1.2-0.3-1.6-1-1.6-2c0-1.2,0.5-1.9,1.6-2v-0.7h0.8v0.7
			c0.7,0,1,0.2,1.5,0.7l-0.6,0.7c-0.3-0.3-0.6-0.4-1-0.5v2.1c1.3,0.2,1.7,1,1.7,2.1s-0.6,1.9-1.7,2.1v1.1H105V547
			c-0.7,0-1.4-0.4-1.9-1L103.8,545.3z"/>
		<g>
			<path fill="#E6E6E6" d="M115.6,551.6c-0.3,0-0.6,0.3-0.7,0.6h-0.1c-0.2,0-0.5,0.2-0.5,0.5s0.2,0.5,0.5,0.5c0.2,0,0.4-0.1,0.4-0.3
				c0.1,0.1,0.2,0.1,0.4,0.1c0.4,0,0.7-0.3,0.7-0.7C116.3,551.9,116,551.6,115.6,551.6z"/>
			<path fill="#E6E6E6" d="M118.8,551.6c-0.1,0-0.1,0-0.2,0c-0.1-0.2-0.4-0.4-0.7-0.4c-0.4,0-0.7,0.3-0.7,0.7l0,0
				c-0.2,0.1-0.5,0.3-0.5,0.6s0.2,0.6,0.6,0.6c0.2,0,0.3-0.1,0.4-0.2c0.1,0.5,0.5,0.8,1,0.8c0.6,0,1.1-0.5,1.1-1.1
				S119.4,551.6,118.8,551.6z"/>
			<path fill="#E6E6E6" d="M123.5,549.6c-0.1,0-0.3,0-0.4,0.1c-0.1-0.8-0.7-1.4-1.5-1.4s-1.5,0.7-1.5,1.5c0,0.6,0.4,1.1,0.9,1.4
				c-0.1,0.2-0.2,0.4-0.2,0.6c0,0.6,0.5,1,1,1c0.6,0,1-0.5,1-1l0,0c0.2,0.2,0.5,0.2,0.7,0.2c0.7,0,1.2-0.5,1.2-1.2
				S124.1,549.6,123.5,549.6z"/>
			<path fill="#E6E6E6" d="M134.4,547.1c-0.1,0-0.1,0-0.2,0c-0.1-0.2-0.4-0.4-0.7-0.4c-0.4,0-0.7,0.3-0.7,0.7l0,0
				c-0.2,0.1-0.5,0.3-0.5,0.6s0.2,0.6,0.6,0.6c0.2,0,0.3-0.1,0.4-0.2c0.1,0.5,0.5,0.8,1,0.8c0.6,0,1.1-0.5,1.1-1.1
				C135.4,547.6,135,547.1,134.4,547.1z"/>
			<path fill="#E6E6E6" d="M139,545.1c-0.1,0-0.3,0-0.4,0.1c-0.1-0.8-0.7-1.4-1.5-1.4s-1.5,0.7-1.5,1.5c0,0.6,0.4,1.1,0.9,1.4
				c-0.1,0.2-0.2,0.4-0.2,0.6c0,0.6,0.5,1,1,1s1-0.5,1-1l0,0c0.2,0.2,0.5,0.2,0.7,0.2c0.7,0,1.2-0.5,1.2-1.2
				C140.2,545.6,139.7,545.1,139,545.1z"/>
			<path fill="#E6E6E6" d="M130.8,547.2c-0.3,0-0.5,0.1-0.7,0.2c-0.1-1.2-1.1-2.1-2.3-2.1s-2.3,1-2.3,2.3c0,0.9,0.5,1.7,1.3,2.1
				c-0.2,0.2-0.4,0.5-0.4,0.8c0,0.6,0.5,1,1,1s1-0.5,1-1c0-0.2-0.1-0.5-0.2-0.6c0.5-0.1,1-0.4,1.3-0.9c0.2,0.4,0.6,0.7,1.1,0.7
				c0.7,0,1.2-0.6,1.2-1.2C132,547.8,131.5,547.2,130.8,547.2z"/>
			<circle fill="#E6E6E6" cx="131.4" cy="545.2" r="1.2"/>
		</g>
	</g>
	<g>
		
			<linearGradient id="SVGID_4_" gradientUnits="userSpaceOnUse" x1="339.6187" y1="-1452.4658" x2="339.6187" y2="-1522.269" gradientTransform="matrix(0.227 0 0 -0.227 5.654920e-02 179.7833)">
			<stop  offset="6.804837e-02" style="stop-color:#FFFFFF"/>
			<stop  offset="1" style="stop-color:#29ABE2"/>
		</linearGradient>
		<path fill="url(#SVGID_4_)" d="M83.7,526.4H70.6c-0.6,0-1-0.5-1-1v-12.3c0-0.6,0.5-1,1-1h13.1c0.6,0,1,0.5,1,1v12.3
			C84.7,526,84.3,526.4,83.7,526.4z"/>
		<path fill="#231F20" d="M77.1,526h2c1.7,0,3.5,0,5.2,0h0.1l0,0c0-4.2,0-8.4,0-12.5c0-0.7-0.4-0.9-0.9-0.9c-4.2,0-8.4,0-12.6,0
			c-0.8,0-0.9,0.4-0.9,0.9c0,4,0,8.1,0,12.1v0.4v0.1c0,0,0.1,0,0.2,0c1.8,0,3.5,0,5.3,0L77.1,526L77.1,526z M81,527.2
			c-0.7,0-1.3,0-2,0h-3.7c-1.8,0-3.5,0-5.3,0c-0.8,0-1.3-0.2-1.3-1.3v-0.4c0-4,0-8.1,0-12.1c0-1.3,0.8-2.1,2.1-2.1
			c4.2,0,8.4,0,12.6,0c1.3,0,2.1,0.8,2.1,2.1c0,4.1,0,8.3,0,12.5c0,1.1-0.6,1.3-1.2,1.3C83.1,527.2,82.1,527.2,81,527.2"/>
		<path fill="#231F20" d="M90.8,520.7c0.8,0,1.6,0,2.4,0c0.2,0,0.4-0.1,0.5-0.2c0.1-0.1,0-0.4-0.1-0.6c-0.6-0.9-1.2-1.8-1.8-2.7
			c-0.2-0.2-0.4-0.4-0.6-0.4c-0.9,0-1.8,0-2.7,0c-0.5,0-0.6,0.1-0.6,0.6c0,0.9,0,1.7,0,2.6c0,0.5,0.1,0.6,0.6,0.6
			C89.2,520.7,90,520.7,90.8,520.7 M96.4,527.8C96.7,527.8,96.1,527.8,96.4,527.8c0.4,0,0.5,0.2,0.5,0.5c0,0.4,0,0.7,0,1.1
			c0,0.4-0.1,0.6-0.5,0.6c-1,0-1.1,0-2.1,0c-0.2,0-0.2-0.1-0.3-0.3c-0.4-1.5-1.3-2.4-2.7-2.7c-1.6-0.3-3.4,0.9-3.8,2.6
			c-0.1,0.3-0.1,0.4-0.4,0.4c-2,0-4,0-6,0c-0.2,0-0.3,0-0.4-0.3c-0.1-0.7-0.5-1.3-1-1.8H86v-0.5c0-3.9,0-7.8,0-11.7
			c0-0.8,0.3-1.1,1.1-1.1c1.2,0,2.3,0,3.5,0s2.2,0.5,2.9,1.6c0.8,1.2,1.6,2.5,2.4,3.7c0.4,0.7,0.6,1.4,0.6,2.2c0,1.8,0,3.5,0,5.3
			L96.4,527.8L96.4,527.8z"/>
		<path fill="#231F20" d="M78.8,530.4c0-0.7-0.6-1.3-1.2-1.3c-0.7,0-1.3,0.6-1.3,1.4c0,0.7,0.6,1.3,1.2,1.3
			C78.2,531.8,78.8,531.2,78.8,530.4 M75,530.5c0-1.5,1.1-2.7,2.5-2.7s2.5,1.2,2.5,2.7s-1.1,2.7-2.5,2.7S75,532,75,530.5"/>
		<path fill="#231F20" d="M92.1,530.5c0-0.7-0.5-1.3-1.2-1.4c-0.7,0-1.3,0.6-1.3,1.3s0.6,1.4,1.3,1.4
			C91.5,531.8,92,531.2,92.1,530.5 M88.3,530.5c0-1.5,1.1-2.7,2.5-2.7s2.5,1.2,2.5,2.7s-1.2,2.7-2.5,2.7
			C89.4,533.2,88.3,532,88.3,530.5"/>
		<path fill="#231F20" d="M75.2,527.8c-0.3,0.5-0.5,0.9-0.8,1.4c-0.1,0.1-0.1,0.2-0.1,0.4c0,0.3-0.2,0.4-0.5,0.4c-1.3,0-2.5,0-3.8,0
			c-0.7,0-0.7-0.1-0.7-0.8c0-0.3,0-0.6,0-0.9s0.2-0.5,0.5-0.5C71.5,527.8,73.4,527.8,75.2,527.8"/>
		<path fill="#B3B3B3" d="M78.8,530.4c0,0.7-0.6,1.4-1.3,1.4c-0.7,0-1.2-0.6-1.2-1.3c0-0.8,0.5-1.4,1.3-1.4
			C78.2,529.1,78.8,529.7,78.8,530.4"/>
		<path fill="#B3B3B3" d="M92.1,530.5c0,0.7-0.6,1.3-1.2,1.3c-0.7,0-1.3-0.6-1.3-1.4c0-0.7,0.6-1.3,1.3-1.3
			C91.5,529.1,92.1,529.7,92.1,530.5"/>
		<path fill="#FFFFFF" d="M77.6,521.6c0.6-0.2,0.7-0.6,0.7-1.1s0-0.8-0.7-1V521.6z M76.8,516.2c-0.4,0.1-0.6,0.4-0.6,1.1
			c0,0.5,0,0.7,0.6,0.9V516.2z M75.6,520.8c0.3,0.4,0.6,0.7,1.2,0.7v-2.2c-1.2-0.3-1.6-1-1.6-2c0-1.2,0.5-1.9,1.6-2v-0.7h0.8v0.7
			c0.7,0,1,0.2,1.5,0.7l-0.6,0.7c-0.3-0.3-0.6-0.4-1-0.5v2.1c1.3,0.2,1.7,1,1.7,2.1s-0.6,1.9-1.7,2.1v1.1h-0.8v-1.1
			c-0.7,0-1.4-0.4-1.9-1L75.6,520.8z"/>
		<g>
			<path fill="#E6E6E6" d="M66.9,527.1c0.3,0,0.6,0.3,0.7,0.6h0.1c0.2,0,0.5,0.2,0.5,0.5c0,0.2-0.2,0.5-0.5,0.5
				c-0.2,0-0.4-0.1-0.4-0.3c-0.1,0.1-0.2,0.1-0.4,0.1c-0.4,0-0.7-0.3-0.7-0.7C66.2,527.3,66.5,527.1,66.9,527.1z"/>
			<path fill="#E6E6E6" d="M63.7,527.1c0.1,0,0.1,0,0.2,0c0.1-0.2,0.4-0.4,0.7-0.4c0.4,0,0.7,0.3,0.7,0.7l0,0
				c0.2,0.1,0.5,0.3,0.5,0.6s-0.2,0.6-0.6,0.6c-0.2,0-0.3-0.1-0.4-0.2c-0.1,0.5-0.5,0.8-1,0.8c-0.6,0-1.1-0.5-1.1-1.1
				S63.1,527.1,63.7,527.1z"/>
			<path fill="#E6E6E6" d="M59,525.1c0.1,0,0.3,0,0.4,0.1c0.1-0.8,0.7-1.4,1.5-1.4s1.5,0.7,1.5,1.5c0,0.6-0.4,1.1-0.9,1.4
				c0.1,0.2,0.2,0.4,0.2,0.6c0,0.6-0.5,1-1,1c-0.6,0-1-0.5-1-1l0,0c-0.2,0.2-0.5,0.2-0.7,0.2c-0.7,0-1.2-0.5-1.2-1.2
				C57.9,525.6,58.4,525.1,59,525.1z"/>
			<path fill="#E6E6E6" d="M48.1,522.6c0.1,0,0.1,0,0.2,0c0.1-0.2,0.4-0.4,0.7-0.4c0.4,0,0.7,0.3,0.7,0.7l0,0
				c0.2,0.1,0.5,0.3,0.5,0.6s-0.2,0.6-0.6,0.6c-0.2,0-0.3-0.1-0.4-0.2c-0.1,0.5-0.5,0.8-1,0.8c-0.6,0-1.1-0.5-1.1-1.1
				S47.5,522.6,48.1,522.6z"/>
			<path fill="#E6E6E6" d="M43.5,520.6c0.1,0,0.3,0,0.4,0.1c0.1-0.8,0.7-1.4,1.5-1.4s1.5,0.7,1.5,1.5c0,0.6-0.4,1.1-0.9,1.4
				c0.1,0.2,0.2,0.4,0.2,0.6c0,0.6-0.5,1-1,1s-1-0.5-1-1l0,0c-0.2,0.2-0.5,0.2-0.7,0.2c-0.7,0-1.2-0.5-1.2-1.2
				S42.8,520.6,43.5,520.6z"/>
			<path fill="#E6E6E6" d="M51.7,522.6c0.3,0,0.5,0.1,0.7,0.2c0.1-1.2,1.1-2.1,2.3-2.1s2.3,1,2.3,2.3c0,0.9-0.5,1.7-1.3,2.1
				c0.2,0.2,0.4,0.5,0.4,0.8c0,0.6-0.5,1-1,1c-0.6,0-1-0.5-1-1c0-0.2,0.1-0.5,0.2-0.6c-0.5-0.1-1-0.4-1.3-0.9
				c-0.2,0.4-0.6,0.7-1.1,0.7c-0.7,0-1.2-0.6-1.2-1.2C50.5,523.3,51,522.6,51.7,522.6z"/>
			<circle fill="#E6E6E6" cx="51.2" cy="520.7" r="1.2"/>
		</g>
	</g>
	<g>
		
			<linearGradient id="SVGID_5_" gradientUnits="userSpaceOnUse" x1="193.3916" y1="-1452.4658" x2="193.3916" y2="-1522.269" gradientTransform="matrix(0.227 0 0 -0.227 5.654920e-02 179.7833)">
			<stop  offset="6.804837e-02" style="stop-color:#FFFFFF"/>
			<stop  offset="1" style="stop-color:#29ABE2"/>
		</linearGradient>
		<path fill="url(#SVGID_5_)" d="M50.6,526.4H37.4c-0.6,0-1-0.5-1-1v-12.3c0-0.6,0.5-1,1-1h13.1c0.6,0,1,0.5,1,1v12.3
			C51.6,526,51.1,526.4,50.6,526.4z"/>
		<path fill="#231F20" d="M43.9,526h2c1.7,0,3.5,0,5.2,0h0.1l0,0c0-4.2,0-8.4,0-12.5c0-0.7-0.4-0.9-0.9-0.9c-4.2,0-8.4,0-12.6,0
			c-0.8,0-0.9,0.4-0.9,0.9c0,4,0,8.1,0,12.1v0.4v0.1c0,0,0.1,0,0.2,0c1.8,0,3.5,0,5.3,0L43.9,526L43.9,526z M47.8,527.2
			c-0.7,0-1.3,0-2,0h-3.7c-1.8,0-3.5,0-5.3,0c-0.8,0-1.3-0.2-1.3-1.3v-0.4c0-4,0-8.1,0-12.1c0-1.3,0.8-2.1,2.1-2.1
			c4.2,0,8.4,0,12.6,0c1.3,0,2.1,0.8,2.1,2.1c0,4.1,0,8.3,0,12.5c0,1.1-0.6,1.3-1.2,1.3C50,527.2,48.9,527.2,47.8,527.2"/>
		<path fill="#231F20" d="M57.6,520.7c0.8,0,1.6,0,2.4,0c0.2,0,0.4-0.1,0.5-0.2c0.1-0.1,0-0.4-0.1-0.6c-0.6-0.9-1.2-1.8-1.8-2.7
			c-0.2-0.2-0.4-0.4-0.6-0.4c-0.9,0-1.8,0-2.7,0c-0.5,0-0.6,0.1-0.6,0.6c0,0.9,0,1.7,0,2.6c0,0.5,0.1,0.6,0.6,0.6
			C56.1,520.7,56.9,520.7,57.6,520.7 M63.3,527.8C63.6,527.8,63,527.8,63.3,527.8c0.4,0,0.5,0.2,0.5,0.5c0,0.4,0,0.7,0,1.1
			c0,0.4-0.1,0.6-0.5,0.6c-1,0-1.1,0-2.1,0c-0.2,0-0.2-0.1-0.3-0.3c-0.4-1.5-1.3-2.4-2.7-2.7c-1.6-0.3-3.4,0.9-3.8,2.6
			c-0.1,0.3-0.1,0.4-0.4,0.4c-2,0-4,0-6,0c-0.2,0-0.3,0-0.4-0.3c-0.1-0.7-0.5-1.3-1-1.8h6.3v-0.5c0-3.9,0-7.8,0-11.7
			c0-0.8,0.3-1.1,1.1-1.1c1.2,0,2.3,0,3.5,0s2.2,0.5,2.9,1.6c0.8,1.2,1.6,2.5,2.4,3.7c0.4,0.7,0.6,1.4,0.6,2.2c0,1.8,0,3.5,0,5.3
			L63.3,527.8L63.3,527.8z"/>
		<path fill="#231F20" d="M45.6,530.4c0-0.7-0.6-1.3-1.2-1.3c-0.7,0-1.3,0.6-1.3,1.4c0,0.7,0.6,1.3,1.2,1.3
			C45.1,531.8,45.6,531.2,45.6,530.4 M41.8,530.5c0-1.5,1.1-2.7,2.5-2.7s2.5,1.2,2.5,2.7s-1.1,2.7-2.5,2.7
			C43,533.2,41.8,532,41.8,530.5"/>
		<path fill="#231F20" d="M58.9,530.5c0-0.7-0.5-1.3-1.2-1.4c-0.7,0-1.3,0.6-1.3,1.3s0.6,1.4,1.3,1.4
			C58.3,531.8,58.9,531.2,58.9,530.5 M55.1,530.5c0-1.5,1.1-2.7,2.5-2.7s2.5,1.2,2.5,2.7s-1.2,2.7-2.5,2.7S55.1,532,55.1,530.5"/>
		<path fill="#231F20" d="M42.1,527.8c-0.3,0.5-0.5,0.9-0.8,1.4c-0.1,0.1-0.1,0.2-0.1,0.4c0,0.3-0.2,0.4-0.5,0.4c-1.3,0-2.5,0-3.8,0
			c-0.7,0-0.7-0.1-0.7-0.8c0-0.3,0-0.6,0-0.9s0.2-0.5,0.5-0.5C38.4,527.8,40.2,527.8,42.1,527.8"/>
		<path fill="#B3B3B3" d="M45.6,530.4c0,0.7-0.6,1.4-1.3,1.4s-1.2-0.6-1.2-1.3c0-0.8,0.5-1.4,1.3-1.4
			C45.1,529.1,45.6,529.7,45.6,530.4"/>
		<path fill="#B3B3B3" d="M58.9,530.5c0,0.7-0.6,1.3-1.2,1.3c-0.7,0-1.3-0.6-1.3-1.4c0-0.7,0.6-1.3,1.3-1.3S58.9,529.7,58.9,530.5"
			/>
		<path fill="#FFFFFF" d="M44.5,521.6c0.6-0.2,0.7-0.6,0.7-1.1s0-0.8-0.7-1V521.6z M43.7,516.2c-0.4,0.1-0.6,0.4-0.6,1.1
			c0,0.5,0,0.7,0.6,0.9V516.2z M42.5,520.8c0.3,0.4,0.6,0.7,1.2,0.7v-2.2c-1.2-0.3-1.6-1-1.6-2c0-1.2,0.5-1.9,1.6-2v-0.7h0.8v0.7
			c0.7,0,1,0.2,1.5,0.7l-0.6,0.7c-0.3-0.3-0.6-0.4-1-0.5v2.1c1.3,0.2,1.7,1,1.7,2.1s-0.6,1.9-1.7,2.1v1.1h-0.8v-1.1
			c-0.7,0-1.4-0.4-1.9-1L42.5,520.8z"/>
		<g>
			<path fill="#E6E6E6" d="M33.7,527.1c0.3,0,0.6,0.3,0.7,0.6h0.1c0.2,0,0.5,0.2,0.5,0.5c0,0.2-0.2,0.5-0.5,0.5
				c-0.2,0-0.4-0.1-0.4-0.3c-0.1,0.1-0.2,0.1-0.4,0.1c-0.4,0-0.7-0.3-0.7-0.7C33.1,527.3,33.4,527.1,33.7,527.1z"/>
			<path fill="#E6E6E6" d="M30.5,527.1c0.1,0,0.1,0,0.2,0c0.1-0.2,0.4-0.4,0.7-0.4c0.4,0,0.7,0.3,0.7,0.7l0,0
				c0.2,0.1,0.5,0.3,0.5,0.6s-0.2,0.6-0.6,0.6c-0.2,0-0.3-0.1-0.4-0.2c-0.1,0.5-0.5,0.8-1,0.8c-0.6,0-1.1-0.5-1.1-1.1
				S30,527.1,30.5,527.1z"/>
			<path fill="#E6E6E6" d="M25.9,525.1c0.1,0,0.3,0,0.4,0.1c0.1-0.8,0.7-1.4,1.5-1.4s1.5,0.7,1.5,1.5c0,0.6-0.4,1.1-0.9,1.4
				c0.1,0.2,0.2,0.4,0.2,0.6c0,0.6-0.5,1-1,1c-0.6,0-1-0.5-1-1l0,0c-0.2,0.2-0.5,0.2-0.7,0.2c-0.7,0-1.2-0.5-1.2-1.2
				C24.7,525.6,25.2,525.1,25.9,525.1z"/>
			<path fill="#E6E6E6" d="M15,522.6c0.1,0,0.1,0,0.2,0c0.1-0.2,0.4-0.4,0.7-0.4c0.4,0,0.7,0.3,0.7,0.7l0,0c0.2,0.1,0.5,0.3,0.5,0.6
				s-0.2,0.6-0.6,0.6c-0.2,0-0.3-0.1-0.4-0.2c-0.1,0.5-0.5,0.8-1,0.8c-0.6,0-1.1-0.5-1.1-1.1S14.4,522.6,15,522.6z"/>
			<path fill="#E6E6E6" d="M10.3,520.6c0.1,0,0.3,0,0.4,0.1c0.1-0.8,0.7-1.4,1.5-1.4s1.5,0.7,1.5,1.5c0,0.6-0.4,1.1-0.9,1.4
				c0.1,0.2,0.2,0.4,0.2,0.6c0,0.6-0.5,1-1,1c-0.6,0-1-0.5-1-1l0,0c-0.2,0.2-0.5,0.2-0.7,0.2c-0.7,0-1.2-0.5-1.2-1.2
				S9.7,520.6,10.3,520.6z"/>
			<path fill="#E6E6E6" d="M18.6,522.6c0.3,0,0.5,0.1,0.7,0.2c0.1-1.2,1.1-2.1,2.3-2.1c1.2,0,2.3,1,2.3,2.3c0,0.9-0.5,1.7-1.3,2.1
				c0.2,0.2,0.4,0.5,0.4,0.8c0,0.6-0.5,1-1,1c-0.6,0-1-0.5-1-1c0-0.2,0.1-0.5,0.2-0.6c-0.5-0.1-1-0.4-1.3-0.9
				c-0.2,0.4-0.6,0.7-1.1,0.7c-0.7,0-1.2-0.6-1.2-1.2C17.3,523.3,17.9,522.6,18.6,522.6z"/>
			<circle fill="#E6E6E6" cx="18" cy="520.7" r="1.2"/>
		</g>
	</g>
</g>
</svg>
