<?xml version="1.0" encoding="utf-8"?>
<!-- Generator: Adobe Illustrator 18.0.0, SVG Export Plug-In . SVG Version: 6.00 Build 0)  -->
<!DOCTYPE svg PUBLIC "-//W3C//DTD SVG 1.1//EN" "http://www.w3.org/Graphics/SVG/1.1/DTD/svg11.dtd">
<svg version="1.1" id="Layer_1" xmlns="http://www.w3.org/2000/svg" xmlns:xlink="http://www.w3.org/1999/xlink" x="0px" y="0px"
	 width="258px" height="46px" viewBox="9 253.3 258 46" enable-background="new 9 253.3 258 46" xml:space="preserve">
<g id="Layer_1_1_">
	<g>
		<line fill="none" stroke="#000000" stroke-width="2" stroke-miterlimit="10" x1="15.2" y1="281.4" x2="259.9" y2="281.4"/>
		<line fill="none" stroke="#000000" stroke-width="5" stroke-miterlimit="10" x1="15.2" y1="279.5" x2="259.9" y2="279.5"/>
	</g>
	<g>
		<g>
			<polygon fill="#FFFFFF" points="51.1,292.5 59.5,280.3 51.1,268.2 83.2,268.2 83.2,292.5 			"/>
			<path d="M82.7,268.8V292H52.2l8.1-11.6l-8.1-11.6H82.7 M83.8,267.6h-1.1H52.2H50l1.2,1.8l7.6,10.9l-7.6,10.9L50,293h2.2h30.5h1.1
				v-1v-23.2L83.8,267.6L83.8,267.6z"/>
		</g>
		<g>
			<polygon fill="#FFFFFF" points="191.8,292.5 191.8,268.2 223.9,268.2 215.5,280.3 223.9,292.5 			"/>
			<path d="M222.8,268.8l-8.1,11.6l8.1,11.6h-30.5v-23.2H222.8 M225,267.6h-2.2h-30.5h-1.1v1.1v23.2v1.1h1.1h30.5h2.2l-1.2-1.8
				l-7.6-10.9l7.6-10.9L225,267.6L225,267.6z"/>
		</g>
		<g>
			<rect x="67.4" y="263.2" fill="#FFFFFF" width="139.8" height="24.3"/>
			<path d="M206.6,263.8V287H68v-23.2H206.6 M207.7,262.7h-1.1H68h-1.1v1.1V287v1.1H68h138.7h1.1V287v-23.2L207.7,262.7L207.7,262.7
				z"/>
		</g>
		<g>
			<g>
				<path fill="#666666" d="M80.8,277.7L80.8,277.7c0,1.2-0.2,2-0.8,2.5c-0.5,0.6-1.3,0.8-2.4,0.8s-1.9-0.3-2.5-1s-0.9-1.5-0.9-2.7
					v-3c0-1.2,0.3-2.1,0.9-2.7s1.4-1,2.4-1c1.1,0,1.9,0.3,2.4,0.9s0.8,1.4,0.8,2.5l0,0h-1.9c0-0.7-0.1-1.1-0.3-1.4
					c-0.2-0.3-0.6-0.4-1.1-0.4c-0.4,0-0.8,0.2-1,0.5s-0.4,0.9-0.4,1.6v3c0,0.7,0.1,1.2,0.4,1.6c0.2,0.3,0.6,0.5,1.1,0.5
					s0.8-0.1,1-0.4s0.3-0.7,0.2-1.4L80.8,277.7L80.8,277.7z"/>
				<path fill="#666666" d="M83.9,279.4h3.7v1.6H82v-10.1h2C83.9,270.9,83.9,279.4,83.9,279.4z"/>
				<path fill="#666666" d="M94,276.5h-3.4v2.8h4v1.6h-5.9v-10.1h5.9v1.6h-3.9v2.5H94V276.5z"/>
				<path fill="#666666" d="M100.1,278.8h-2.7l-0.5,2.2h-2l2.8-10.1h2l2.8,10.1h-2L100.1,278.8z M97.9,277.2h1.9l-0.9-3.6l0,0
					L97.9,277.2z"/>
				<path fill="#666666" d="M110.5,280.9h-2l-3.1-6.4l0,0v6.4h-2v-10.1h2l3.1,6.4l0,0v-6.4h2V280.9z"/>
				<path fill="#666666" d="M115.5,277.4h-3.4v-1.6h3.4V277.4z"/>
				<path fill="#666666" d="M123.9,270.9v6.9c0,1.1-0.3,1.9-1,2.5c-0.6,0.6-1.5,0.9-2.5,0.9s-1.8-0.3-2.5-0.9c-0.6-0.6-1-1.4-1-2.5
					v-6.9h2v6.9c0,0.6,0.1,1.1,0.4,1.4c0.2,0.3,0.6,0.4,1.1,0.4s0.8-0.1,1.1-0.4c0.2-0.3,0.4-0.7,0.4-1.4v-6.9H123.9z"/>
				<path fill="#666666" d="M127.3,277.3v3.6h-2v-10.1h3.5c1,0,1.8,0.3,2.4,0.9c0.6,0.6,0.9,1.4,0.9,2.3s-0.3,1.7-0.9,2.3
					c-0.6,0.6-1.4,0.9-2.4,0.9L127.3,277.3L127.3,277.3z M127.3,275.7h1.5c0.4,0,0.7-0.2,1-0.5c0.2-0.3,0.3-0.7,0.3-1.2
					s-0.1-0.9-0.3-1.2c-0.2-0.3-0.5-0.5-1-0.5h-1.5V275.7L127.3,275.7z"/>
				<path fill="#666666" d="M143.2,277.3c0,1.2-0.3,2.1-1,2.8c-0.6,0.7-1.5,1-2.6,1s-1.9-0.3-2.5-1s-1-1.6-1-2.8v-2.8
					c0-1.2,0.3-2.1,1-2.8c0.6-0.7,1.5-1,2.5-1c1.1,0,1.9,0.3,2.6,1c0.6,0.7,1,1.6,1,2.8V277.3L143.2,277.3z M141.2,274.5
					c0-0.7-0.1-1.3-0.4-1.6s-0.7-0.5-1.2-0.5s-0.9,0.2-1.2,0.5s-0.4,0.9-0.4,1.6v2.8c0,0.7,0.1,1.3,0.4,1.6c0.3,0.4,0.7,0.5,1.2,0.5
					s0.9-0.2,1.2-0.5c0.3-0.4,0.4-0.9,0.4-1.6V274.5z"/>
				<path fill="#666666" d="M146.4,277.3v3.6h-2v-10.1h3.5c1,0,1.8,0.3,2.4,0.9c0.6,0.6,0.9,1.4,0.9,2.3s-0.3,1.7-0.9,2.3
					c-0.6,0.6-1.4,0.9-2.4,0.9L146.4,277.3L146.4,277.3z M146.4,275.7h1.5c0.4,0,0.7-0.2,1-0.5s0.3-0.7,0.3-1.2s-0.1-0.9-0.3-1.2
					c-0.2-0.3-0.5-0.5-1-0.5h-1.5V275.7L146.4,275.7z"/>
				<path fill="#666666" d="M157.8,276.5h-3.4v2.8h4v1.6h-5.9v-10.1h5.9v1.6h-4v2.5h3.4V276.5L157.8,276.5z"/>
				<path fill="#666666" d="M161.4,277v4h-2v-10.1h3.3c1,0,1.8,0.3,2.3,0.8c0.6,0.5,0.8,1.2,0.8,2.2c0,0.5-0.1,1-0.4,1.4
					c-0.2,0.4-0.6,0.7-1,0.9c0.5,0.2,0.9,0.5,1.1,0.9c0.2,0.4,0.3,0.9,0.3,1.5v0.7c0,0.3,0,0.6,0.1,0.9s0.2,0.5,0.3,0.7v0.1h-2
					c-0.2-0.1-0.3-0.4-0.3-0.7c0-0.3-0.1-0.7-0.1-1v-0.7c0-0.5-0.1-0.9-0.3-1.2c-0.2-0.3-0.5-0.4-0.9-0.4L161.4,277L161.4,277z
					 M161.4,275.4h1.3c0.4,0,0.7-0.1,0.9-0.4s0.3-0.6,0.3-1c0-0.5-0.1-0.8-0.3-1.1c-0.2-0.3-0.5-0.4-0.9-0.4h-1.3V275.4z"/>
				<path fill="#666666" d="M172,278.8h-2.7l-0.5,2.2h-2l2.8-10.1h2l2.8,10.1h-2L172,278.8z M169.7,277.2h1.9l-0.9-3.6l0,0
					L169.7,277.2z"/>
				<path fill="#666666" d="M180.3,272.5H178v8.5h-2v-8.5h-2.2v-1.6h6.5V272.5L180.3,272.5z"/>
				<path fill="#666666" d="M183.3,280.9h-2v-10.1h2V280.9z"/>
				<path fill="#666666" d="M191.8,277.3c0,1.2-0.3,2.1-1,2.8s-1.5,1-2.6,1s-1.9-0.3-2.5-1s-1-1.6-1-2.8v-2.8c0-1.2,0.3-2.1,1-2.8
					s1.5-1,2.5-1c1.1,0,1.9,0.3,2.6,1c0.6,0.7,1,1.6,1,2.8V277.3L191.8,277.3z M189.8,274.5c0-0.7-0.1-1.3-0.4-1.6
					c-0.3-0.4-0.7-0.5-1.2-0.5s-0.9,0.2-1.2,0.5s-0.4,0.9-0.4,1.6v2.8c0,0.7,0.1,1.3,0.4,1.6c0.2,0.4,0.7,0.5,1.2,0.5
					s0.9-0.2,1.2-0.5c0.3-0.4,0.4-0.9,0.4-1.6V274.5z"/>
				<path fill="#666666" d="M200.1,280.9h-2l-3.1-6.4l0,0v6.4h-2v-10.1h2l3.1,6.4l0,0v-6.4h2V280.9z"/>
			</g>
		</g>
	</g>
</g>
</svg>
