<?xml version="1.0" encoding="utf-8"?>
<!-- Generator: Adobe Illustrator 18.0.0, SVG Export Plug-In . SVG Version: 6.00 Build 0)  -->
<!DOCTYPE svg PUBLIC "-//W3C//DTD SVG 1.1//EN" "http://www.w3.org/Graphics/SVG/1.1/DTD/svg11.dtd">
<svg version="1.1" id="Layer_1" xmlns="http://www.w3.org/2000/svg" xmlns:xlink="http://www.w3.org/1999/xlink" x="0px" y="0px"
	 width="131px" height="64px" viewBox="0 353.3 131 64" enable-background="new 0 353.3 131 64" xml:space="preserve">
<g>
	<g>
		
			<linearGradient id="SVGID_1_" gradientUnits="userSpaceOnUse" x1="330.6383" y1="-909.3806" x2="137.8707" y2="-882.1956" gradientTransform="matrix(0.227 0 0 -0.227 5.654908e-02 179.7833)">
			<stop  offset="0" style="stop-color:#B3B3B3"/>
			<stop  offset="0.2807" style="stop-color:#B6B6B6;stop-opacity:0.7193"/>
			<stop  offset="0.493" style="stop-color:#C0C0C0;stop-opacity:0.507"/>
			<stop  offset="0.6829" style="stop-color:#D0D0D0;stop-opacity:0.3171"/>
			<stop  offset="0.8586" style="stop-color:#E7E7E7;stop-opacity:0.1414"/>
			<stop  offset="1" style="stop-color:#FFFFFF;stop-opacity:0"/>
		</linearGradient>
		<path fill="url(#SVGID_1_)" d="M62.5,387.9c0,0-23.2-3.4-26.2-4.2c-3-0.7-5.4,0.5-6.4,0c-1.1-0.5,2.1-4.1,4.3-4.3
			c2.3-0.2,9-1.8,12.5-1.1c2.6,0.5,24.7,4.5,33.8,6.2c3.1,0.6-0.6,0.5-0.6,0.5l-21.1-3.9l-6.1,0.4l16.8,3.9l-1.6,2.1L56.1,384
			l-5.8-0.6l13.6,3L62.5,387.9z"/>
		<g>
			<circle fill="#C7B299" cx="72.8" cy="361.2" r="2.3"/>
			<path d="M72.8,363.9c-1.5,0-2.7-1.2-2.7-2.7s1.2-2.7,2.7-2.7s2.7,1.2,2.7,2.7C75.5,362.7,74.3,363.9,72.8,363.9z M72.8,359.2
				c-1.1,0-2,0.9-2,2s0.9,2,2,2s2-0.9,2-2C74.7,360.1,73.9,359.2,72.8,359.2z"/>
		</g>
		<g>
			<path fill="#B3B3B3" d="M62.7,387.5c-0.1,0-0.3,0-0.4,0c-0.4-0.1-0.8-0.4-1-0.8s-0.3-0.8-0.2-1.3l1.5-5.8l-0.6-7.3
				c0-0.1,0-0.2,0-0.3c0-2.5,2.2-5.7,3.8-7.6l-2-0.2l-0.9,3.8c-0.2,0.7-0.7,1.1-1.4,1.1c-0.1,0-0.2,0-0.3,0
				c-0.4-0.1-0.7-0.3-0.9-0.6c-0.2-0.3-0.3-0.7-0.2-1.1l1.1-5c0.2-0.7,0.7-1.1,1.4-1.1h0.1l5.1,0.5c0.3,0,0.5,0.1,0.7,0.3l4.2,3.3
				c0.3,0.2,0.5,0.7,0.5,1.1v9.1c0,0.8-0.7,1.4-1.5,1.4c-0.1,0-0.2,0-0.2,0l0.5,0.7c0.3,0.4,0.4,1,0.2,1.4l-2.1,6.9
				c-0.2,0.7-0.9,1.2-1.6,1.2c-0.2,0-0.3,0-0.5-0.1c-0.4-0.1-0.8-0.4-1-0.8s-0.2-0.8-0.1-1.3l1.9-6.2l-3.5-5.1l0.5,5.7
				c0,0.2,0,0.4,0,0.6l-1.6,6.1C64.1,387,63.5,387.5,62.7,387.5L62.7,387.5z M70.4,375.3v-5.5l-2,2.5L70.4,375.3z"/>
			<path d="M62.7,361.6L62.7,361.6l5.2,0.5c0.2,0,0.4,0.1,0.5,0.2l4.1,3.3c0.2,0.2,0.3,0.5,0.3,0.8v9.1c0,0.6-0.6,1-1.1,1
				s-1.1-0.5-1.1-1v-6.9l-2.8,3.6l3.9,5.7c0.2,0.3,0.3,0.7,0.2,1.1l-2.1,6.9c-0.2,0.5-0.7,0.9-1.2,0.9c-0.1,0-0.2,0-0.4,0
				c-0.7-0.2-1.1-0.9-0.9-1.6l1.9-6.3l-3.7-5.5c-0.2,0.1-0.4,0.1-0.6,0.2l0.5,6.1c0,0.1,0,0.3,0,0.4l-1.6,6.2c-0.2,0.6-0.7,1-1.2,1
				l0,0c-0.1,0-0.2-0.1-0.3-0.1c-0.7-0.2-1.1-0.9-0.9-1.6l1.5-5.9l-0.6-7.4c0-0.1,0-0.2,0-0.3c0-2.7,2.7-6.2,4.2-7.9l-3.1-0.3
				l-0.9,4.1c-0.1,0.5-0.5,0.8-1,0.8c-0.1,0-0.2,0-0.2,0c-0.5-0.1-0.9-0.7-0.8-1.2l1.1-5C61.8,362,62.2,361.6,62.7,361.6
				 M62.7,360.8c-0.8,0-1.6,0.6-1.7,1.4l-1.1,5c-0.1,0.5,0,1,0.2,1.4s0.7,0.7,1.1,0.8c0.1,0,0.3,0,0.4,0c0.2,0,0.5,0,0.7-0.1
				c-0.4,0.9-0.6,1.8-0.6,2.7c0,0.1,0,0.2,0,0.4l0.6,7.2l-1.5,5.8c-0.1,0.5-0.1,1.1,0.2,1.6s0.7,0.8,1.2,1c0.2,0,0.3,0.1,0.5,0.1
				c0.9,0,1.8-0.6,2-1.5l1.6-6.1c0.1-0.2,0.1-0.5,0.1-0.7l-0.4-4.3l2.5,3.7l-1.8,6c-0.2,0.5-0.1,1.1,0.2,1.6c0.2,0.5,0.7,0.8,1.2,1
				c0.2,0.1,0.4,0.1,0.6,0.1c0.9,0,1.7-0.6,2-1.5l2.1-6.9c0.2-0.6,0.1-1.2-0.3-1.8l-0.2-0.2c0.8-0.2,1.3-0.9,1.3-1.7v-9.1
				c0-0.6-0.2-1.1-0.6-1.4l-4.1-3.3c-0.3-0.2-0.6-0.4-0.9-0.4l-5.1-0.5C62.8,360.9,62.7,360.8,62.7,360.8L62.7,360.8z M63.6,366.8
				l0.5-2.2l1,0.1C64.5,365.3,64.1,366,63.6,366.8L63.6,366.8z M69,372.3l1.2-1.4v3.1L69,372.3L69,372.3z"/>
		</g>
		<g>
			<path d="M80.2,382c-0.1,0-0.1,0-0.2-0.1l-17.4-13.3c-0.1-0.1-0.2-0.3-0.1-0.5c0.1-0.1,0.3-0.2,0.5-0.1l17.4,13.3
				c0.1,0.1,0.2,0.3,0.1,0.5S80.3,382,80.2,382z"/>
		</g>
		<g>
			<path d="M60.3,366.8c-0.1,0-0.1,0-0.2-0.1l-1.5-1.1c-0.1-0.1-0.2-0.3-0.1-0.5c0.1-0.1,0.3-0.2,0.5-0.1l1.5,1.1
				c0.1,0.1,0.2,0.3,0.1,0.5C60.5,366.7,60.4,366.8,60.3,366.8z"/>
		</g>
		<path d="M75.9,382.3l4.2-4.7l1.8,1.6c2.2,2,1,5.2,1,5.2s-2.8,1.7-5.2-0.4C76.4,382.7,75.9,382.3,75.9,382.3z"/>
		<path d="M74.9,387.5c0,0,0.2-1.3,1.3-1.3c1,0,1.4,0.3,1.4,0.3s0.1-2.5,1.9-2.5s1.9,0.5,1.9,0.5s0.9-0.8,2.6-0.8s2.1,1.5,2.1,1.5
			s0.9-0.1,1.3,0.2c0.4,0.3,0.4,0.7,0.4,0.7s0.9,0.1,1.1,0.4s0.7,1,0.7,1L74.9,387.5L74.9,387.5z"/>
		<path fill="#B3B3B3" d="M70.6,364.2c0,0-3.1,1.1-4.2,2.2c-1,1.2-2.5,3.8-2.8,5.4s0.4,7.9,0.4,7.9s-1.8,5.5-1.8,6.2
			c0,0.6,1,1.5,1,1.5s-1.9,0-2.2-1.1s1.7-6.7,1.7-6.7s-0.9-6.7-0.8-7.9c0.1-1.2,1-3.4,2-4.9s1.9-2.5,1.9-2.5l-2.4-0.4
			c0,0-1.1,0.1-1.5,0.9c-0.5,0.9-0.7,2.1-0.6,2.9s0.5,1.4,0.5,1.4s-0.9,0.2-1.5-1s1-5.6,1-5.6s0.2-1.6,2.2-1.4c2,0.2,5,0.7,5,0.7
			L70.6,364.2z"/>
		<path fill="#B3B3B3" d="M65.4,373.5c0,0,1.2-0.7,2.2,0.6c1,1.3,2.9,4.4,2.9,4.4s-1.5,5.6-1.9,6.5c-0.3,1,0.1,2.1,0.1,2.1
			s-1.5-0.3-1.6-1c-0.2-0.6,1.7-7.1,1.7-7.1L65.4,373.5z"/>
		<path fill="#B3B3B3" d="M70.5,369.2c0,0,1.5-2.4,1.5-2.2c0,0.2-0.2,6.1-0.2,7.2s0.9,2.2,0.9,2.2s-0.7,1-1.1,0.8
			c-0.5-0.2-1.4-1.2-1.3-2.1C70.3,374.1,70.5,369.2,70.5,369.2z"/>
		<path d="M77,362.4l-1-0.5c0.2-0.5,0.3-1.1,0.3-1.7c-0.2-1.7-1.8-3-3.5-2.8c-1.1,0.1-2,0.8-2.5,1.8h-0.1c-0.1,0-0.2,0-0.3,0.1
			c0,0.1,0,0.2,0.1,0.3l6.8,3.2h0.1c0.1,0,0.2,0,0.2-0.1C77.2,362.6,77.1,362.4,77,362.4z"/>
		<path fill="#B3B3B3" d="M74.9,362.2c0,0-1.4-0.7-2.5-0.6c-1,0.1-1.4,0.9-1.4,0.9s-0.8-1.4-0.4-2.2c0.4-0.8,0.7-0.8,0.7-0.8l4,2.2
			L74.9,362.2z"/>
		<g>
			<path fill="#FFFFFF" d="M68.2,369.1c0.1-0.1,0.1-0.2,0.1-0.4c0-0.1-0.1-0.3-0.2-0.5c-0.2-0.4-0.4-0.7-0.4-1s0-0.5,0.2-0.8
				c0.2-0.2,0.4-0.4,0.7-0.4c0.3,0,0.6,0,0.9,0.2l0.4-0.5l0.4,0.3l-0.4,0.5c0.2,0.2,0.4,0.5,0.4,0.8s-0.1,0.6-0.3,0.9l0,0l-0.7-0.5
				c0.1-0.2,0.2-0.3,0.2-0.5s-0.1-0.3-0.2-0.4s-0.2-0.1-0.4-0.1c-0.1,0-0.2,0.1-0.3,0.2c-0.1,0.1-0.1,0.2-0.1,0.4
				c0,0.1,0.1,0.3,0.2,0.5c0.2,0.4,0.4,0.7,0.4,1s0,0.5-0.2,0.8s-0.5,0.4-0.7,0.5c-0.3,0-0.6,0-0.9-0.2l-0.3,0.5l-0.4-0.3l0.3-0.5
				c-0.2-0.2-0.4-0.5-0.5-0.8c0-0.3,0-0.6,0.3-1l0,0l0.7,0.5c-0.2,0.2-0.2,0.4-0.2,0.5c0,0.2,0.1,0.3,0.2,0.4s0.3,0.2,0.4,0.1
				C68,369.3,68.1,369.2,68.2,369.1z"/>
		</g>
	</g>
	<g>
		
			<linearGradient id="SVGID_2_" gradientUnits="userSpaceOnUse" x1="224.8244" y1="-992.1215" x2="-30.3174" y2="-956.14" gradientTransform="matrix(0.227 0 0 -0.227 5.654908e-02 179.7833)">
			<stop  offset="0" style="stop-color:#B3B3B3"/>
			<stop  offset="0.2807" style="stop-color:#B6B6B6;stop-opacity:0.7193"/>
			<stop  offset="0.493" style="stop-color:#C0C0C0;stop-opacity:0.507"/>
			<stop  offset="0.6829" style="stop-color:#D0D0D0;stop-opacity:0.3171"/>
			<stop  offset="0.8586" style="stop-color:#E7E7E7;stop-opacity:0.1414"/>
			<stop  offset="1" style="stop-color:#FFFFFF;stop-opacity:0"/>
		</linearGradient>
		<path fill="url(#SVGID_2_)" d="M34.4,407.2c0,0-30.7-4.5-34.7-5.5s-7.1,0.6-8.5,0s2.7-5.4,5.7-5.7s11.9-2.5,16.5-1.5
			c3.4,0.7,32.7,6,44.7,8.3c4.1,0.8-0.8,0.6-0.8,0.6l-27.9-5.2l-8.1,0.5l22.3,5.2l-2.1,2.7L25.9,402l-7.7-0.7l18,4L34.4,407.2z"/>
		<g>
			<circle fill="#C7B299" cx="48" cy="371.9" r="3.1"/>
			<path d="M48,375.5c-2,0-3.6-1.6-3.6-3.6s1.6-3.6,3.6-3.6s3.6,1.6,3.6,3.6C51.6,373.8,50,375.5,48,375.5z M48,369.3
				c-1.4,0-2.6,1.2-2.6,2.6s1.2,2.6,2.6,2.6c1.4,0,2.6-1.2,2.6-2.6C50.6,370.4,49.5,369.3,48,369.3z"/>
		</g>
		<g>
			<path fill="#B3B3B3" d="M34.7,406.8c-0.2,0-0.4-0.1-0.6-0.1c-0.6-0.2-1-0.5-1.4-1c-0.3-0.5-0.4-1.1-0.2-1.7l2-7.7l-0.8-9.6
				c0-0.1,0-0.3,0-0.4c0-3.3,2.9-7.5,5-10.1l-2.7-0.3l-1.1,5c-0.2,0.9-1,1.5-1.8,1.5c-0.1,0-0.3,0-0.4,0c-0.5-0.1-0.9-0.4-1.2-0.8
				c-0.3-0.4-0.4-0.9-0.2-1.4l1.5-6.6c0.2-0.9,1-1.5,1.8-1.5c0.1,0,0.1,0,0.2,0l6.8,0.7c0.4,0,0.7,0.2,1,0.4l5.4,4.4
				c0.4,0.3,0.6,0.9,0.6,1.5v12c0,1-0.8,1.9-1.8,1.9c-0.1,0-0.2,0-0.3,0l0.7,0.9c0.4,0.6,0.5,1.2,0.3,1.9l-2.8,9.1
				c-0.3,0.9-1.1,1.6-2.1,1.6c-0.2,0-0.4,0-0.7-0.1c-0.6-0.2-1-0.6-1.3-1.1s-0.3-1.1-0.2-1.7l2.5-8.1l-4.6-6.7l0.7,7.6
				c0,0.2,0,0.5-0.1,0.7l-2.1,8.1C36.6,406.1,35.7,406.8,34.7,406.8L34.7,406.8z M44.8,390.5v-7.2l-2.7,3.3L44.8,390.5z"/>
			<path d="M34.6,372.4L34.6,372.4l6.9,0.7c0.3,0,0.5,0.1,0.7,0.3l5.5,4.4c0.3,0.2,0.5,0.7,0.5,1.1v12c0,0.7-0.7,1.4-1.5,1.4
				c-0.7,0-1.5-0.6-1.5-1.4v-9.2l-3.7,4.8l5.2,7.5c0.3,0.4,0.4,1,0.2,1.5l-2.8,9.1c-0.2,0.7-0.9,1.2-1.6,1.2c-0.2,0-0.3,0-0.5-0.1
				c-0.9-0.3-1.4-1.2-1.1-2.1l2.6-8.4l-4.9-7.3c-0.2,0.1-0.5,0.2-0.7,0.2l0.7,8c0,0.2,0,0.4,0,0.6l-2.1,8.2
				c-0.2,0.8-0.9,1.4-1.7,1.4l0,0c-0.1,0-0.3-0.1-0.4-0.1c-0.9-0.2-1.5-1.2-1.2-2.1l2-7.8l-0.9-9.7c0-0.1,0-0.2,0-0.3
				c0-3.5,3.6-8.3,5.5-10.5l-4.1-0.4l-1.2,5.4c-0.1,0.6-0.7,1.1-1.3,1.1c-0.1,0-0.2,0-0.3,0c-0.7-0.2-1.2-0.9-1-1.6l1.5-6.6
				C33.4,372.8,34,372.4,34.6,372.4 M34.6,371.4c-1.1,0-2.1,0.8-2.3,1.9l-1.5,6.6c-0.1,0.6,0,1.3,0.3,1.8s0.9,0.9,1.5,1.1
				c0.2,0,0.4,0.1,0.5,0.1c0.3,0,0.6-0.1,0.9-0.2c-0.5,1.2-0.8,2.4-0.8,3.5c0,0.2,0,0.3,0,0.5l0.8,9.5l-2,7.6
				c-0.2,0.7-0.1,1.4,0.3,2.1c0.4,0.6,1,1.1,1.7,1.2c0.2,0.1,0.5,0.1,0.7,0.1c1.2,0,2.3-0.8,2.6-2l2.1-8.1c0.1-0.3,0.1-0.6,0.1-0.9
				l-0.5-5.7l3.3,4.9l-2.4,7.9c-0.2,0.7-0.1,1.4,0.2,2.1c0.3,0.6,0.9,1.1,1.6,1.3c0.2,0.1,0.5,0.1,0.8,0.1c1.2,0,2.2-0.8,2.6-1.9
				l2.8-9.1c0.2-0.8,0.1-1.6-0.4-2.3l-0.2-0.2c1-0.3,1.7-1.2,1.7-2.3v-12c0-0.7-0.2-1.4-0.8-1.9l-5.4-4.4c-0.4-0.3-0.8-0.5-1.2-0.5
				l-6.8-0.7C34.8,371.4,34.7,371.4,34.6,371.4L34.6,371.4z M35.8,379.2l0.6-2.8l1.3,0.1C37.1,377.3,36.5,378.3,35.8,379.2
				L35.8,379.2z M43,386.6l1.5-1.9v4.1L43,386.6L43,386.6z"/>
		</g>
		<g>
			<path d="M57.8,399.4c-0.1,0-0.2,0-0.2-0.1l-23.1-17.7c-0.2-0.1-0.2-0.4-0.1-0.6c0.1-0.2,0.4-0.2,0.6-0.1l23.1,17.7
				c0.2,0.1,0.2,0.4,0.1,0.6C58.1,399.3,57.9,399.4,57.8,399.4z"/>
		</g>
		<g>
			<path d="M31.5,379.2c-0.1,0-0.2,0-0.2-0.1l-2-1.5c-0.2-0.1-0.2-0.4-0.1-0.6s0.4-0.2,0.6-0.1l2,1.5c0.2,0.1,0.2,0.4,0.1,0.6
				C31.7,379.2,31.6,379.2,31.5,379.2z"/>
		</g>
		<path d="M52.2,399.8l5.6-6.2l2.4,2.2c2.9,2.6,1.3,6.8,1.3,6.8s-3.7,2.2-6.9-0.5C52.8,400.3,52.2,399.8,52.2,399.8z"/>
		<path d="M50.8,406.8c0,0,0.3-1.8,1.7-1.8s1.9,0.4,1.9,0.4s0.2-3.3,2.6-3.3c2.4,0,2.5,0.6,2.5,0.6s1.1-1.1,3.4-1.1s2.8,2,2.8,2
			s1.2-0.1,1.7,0.2c0.5,0.4,0.5,1,0.5,1s1.1,0.2,1.5,0.6c0.3,0.4,0.9,1.3,0.9,1.3L50.8,406.8L50.8,406.8z"/>
		<path fill="#B3B3B3" d="M45.2,375.8c0,0-4.1,1.4-5.5,3s-3.3,5-3.7,7.2s0.5,10.4,0.5,10.4s-2.5,7.3-2.5,8.2c0,0.9,1.4,2,1.4,2
			s-2.5,0-3-1.5s2.3-8.9,2.3-8.9s-1.2-8.9-1.1-10.4c0.1-1.5,1.3-4.5,2.7-6.5c1.4-1.9,2.5-3.4,2.5-3.4l-3.2-0.5c0,0-1.4,0.1-2,1.2
			s-0.9,2.7-0.9,3.9c0.1,1.1,0.7,1.9,0.7,1.9s-1.2,0.2-2-1.4s1.3-7.4,1.3-7.4s0.3-2.2,2.9-1.8c2.6,0.3,6.7,0.9,6.7,0.9L45.2,375.8z"
			/>
		<path fill="#B3B3B3" d="M38.2,388.1c0,0,1.5-0.9,2.9,0.8c1.4,1.7,3.8,5.9,3.8,5.9s-2.1,7.4-2.5,8.6s0.2,2.8,0.2,2.8
			s-1.9-0.5-2.2-1.3c-0.2-0.9,2.3-9.4,2.3-9.4L38.2,388.1z"/>
		<path fill="#B3B3B3" d="M44.9,382.5c0,0,2-3.2,2-3s-0.2,8-0.3,9.5c0,1.5,1.2,2.9,1.2,2.9s-0.9,1.3-1.5,1.1s-1.9-1.6-1.8-2.7
			C44.8,389,44.9,382.5,44.9,382.5z"/>
		<path d="M53.6,373.4l-1.3-0.6c0.3-0.7,0.5-1.4,0.4-2.2c-0.3-2.3-2.4-3.9-4.7-3.7c-1.5,0.2-2.7,1.1-3.3,2.4l-0.1-0.1
			c-0.2-0.1-0.3,0-0.4,0.2c-0.1,0.2,0,0.3,0.2,0.4l9,4.2c0,0,0.1,0,0.2,0c0.1,0,0.2-0.1,0.2-0.2C53.9,373.7,53.8,373.5,53.6,373.4z"
			/>
		<path fill="#B3B3B3" d="M50.8,373.3c0,0-1.9-1-3.2-0.8c-1.4,0.1-1.8,1.2-1.8,1.2s-1.1-1.9-0.6-3c0.6-1.1,0.9-1.1,0.9-1.1l5.3,2.9
			L50.8,373.3z"/>
		<g>
			<path fill="#FFFFFF" d="M41.9,382.3c0.1-0.2,0.2-0.3,0.2-0.5s-0.1-0.4-0.2-0.7c-0.3-0.5-0.5-0.9-0.6-1.3s0-0.7,0.3-1.1
				c0.2-0.3,0.6-0.5,1-0.6c0.4,0,0.8,0,1.2,0.3l0.5-0.6l0.5,0.4l-0.5,0.7c0.3,0.3,0.5,0.7,0.5,1.1s-0.1,0.8-0.4,1.2l0,0l-0.9-0.7
				c0.2-0.2,0.3-0.5,0.3-0.7s-0.1-0.4-0.2-0.5c-0.2-0.1-0.3-0.2-0.5-0.2s-0.3,0.1-0.4,0.3c-0.1,0.2-0.2,0.3-0.2,0.5s0.1,0.4,0.3,0.7
				c0.3,0.5,0.5,1,0.5,1.3c0.1,0.4,0,0.7-0.3,1.1c-0.3,0.3-0.6,0.5-1,0.6c-0.4,0-0.8-0.1-1.2-0.3l-0.5,0.6l-0.5-0.4l0.5-0.6
				c-0.3-0.3-0.5-0.7-0.6-1.1s0.1-0.8,0.4-1.3l0,0l0.9,0.7c-0.2,0.3-0.3,0.5-0.2,0.7c0,0.2,0.1,0.4,0.3,0.5s0.4,0.2,0.5,0.2
				C41.7,382.5,41.8,382.5,41.9,382.3z"/>
		</g>
	</g>
	<g>
		
			<linearGradient id="SVGID_3_" gradientUnits="userSpaceOnUse" x1="471.8271" y1="-992.1041" x2="216.685" y2="-956.1225" gradientTransform="matrix(0.227 0 0 -0.227 5.654908e-02 179.7833)">
			<stop  offset="0" style="stop-color:#B3B3B3"/>
			<stop  offset="0.2807" style="stop-color:#B6B6B6;stop-opacity:0.7193"/>
			<stop  offset="0.493" style="stop-color:#C0C0C0;stop-opacity:0.507"/>
			<stop  offset="0.6829" style="stop-color:#D0D0D0;stop-opacity:0.3171"/>
			<stop  offset="0.8586" style="stop-color:#E7E7E7;stop-opacity:0.1414"/>
			<stop  offset="1" style="stop-color:#FFFFFF;stop-opacity:0"/>
		</linearGradient>
		<path fill="url(#SVGID_3_)" d="M90.5,407.2c0,0-30.7-4.5-34.7-5.5s-7.1,0.6-8.5,0s2.7-5.4,5.7-5.7c3-0.2,11.9-2.5,16.5-1.5
			c3.4,0.7,32.7,6,44.7,8.3c4.1,0.8-0.8,0.6-0.8,0.6l-27.9-5.2l-8.1,0.5l22.3,5.2l-2.1,2.7L81.9,402l-7.7-0.7l18,4L90.5,407.2z"/>
		<g>
			<circle fill="#C7B299" cx="104.1" cy="371.9" r="3.1"/>
			<path d="M104.1,375.5c-2,0-3.6-1.6-3.6-3.6s1.6-3.6,3.6-3.6s3.6,1.6,3.6,3.6C107.7,373.8,106.1,375.5,104.1,375.5z M104.1,369.3
				c-1.4,0-2.6,1.2-2.6,2.6s1.2,2.6,2.6,2.6s2.6-1.2,2.6-2.6C106.7,370.4,105.5,369.3,104.1,369.3z"/>
		</g>
		<g>
			<path fill="#B3B3B3" d="M90.7,406.8c-0.2,0-0.4-0.1-0.6-0.1c-0.6-0.2-1-0.5-1.4-1c-0.3-0.5-0.4-1.1-0.2-1.7l2-7.7l-0.8-9.6
				c0-0.1,0-0.3,0-0.4c0-3.3,2.9-7.5,5-10.1l-2.7-0.3l-1.1,5c-0.2,0.9-1,1.5-1.8,1.5c-0.1,0-0.3,0-0.4,0c-0.5-0.1-0.9-0.4-1.2-0.8
				c-0.3-0.4-0.4-0.9-0.2-1.4l1.5-6.6c0.2-0.9,1-1.5,1.8-1.5c0.1,0,0.1,0,0.2,0l6.8,0.7c0.4,0,0.7,0.2,1,0.4l5.4,4.4
				c0.4,0.3,0.6,0.9,0.6,1.5v12c0,1-0.8,1.9-1.8,1.9c-0.1,0-0.2,0-0.3,0l0.7,0.9c0.4,0.6,0.5,1.2,0.3,1.9l-2.8,9.1
				c-0.3,0.9-1.1,1.6-2.1,1.6c-0.2,0-0.4,0-0.7-0.1c-0.6-0.2-1-0.6-1.3-1.1s-0.3-1.1-0.2-1.7l2.5-8.1l-4.6-6.7l0.7,7.6
				c0,0.2,0,0.5-0.1,0.7l-2.1,8.1C92.7,406.1,91.8,406.8,90.7,406.8L90.7,406.8z M100.8,390.5v-7.2l-2.7,3.3L100.8,390.5z"/>
			<path d="M90.7,372.4L90.7,372.4l6.9,0.7c0.3,0,0.5,0.1,0.7,0.3l5.5,4.4c0.3,0.2,0.5,0.7,0.5,1.1v12c0,0.7-0.7,1.4-1.5,1.4
				c-0.7,0-1.5-0.6-1.5-1.4v-9.2l-3.7,4.8l5.2,7.5c0.3,0.4,0.4,1,0.2,1.5l-2.8,9.1c-0.2,0.7-0.9,1.2-1.6,1.2c-0.2,0-0.3,0-0.5-0.1
				c-0.9-0.3-1.4-1.2-1.1-2.1l2.6-8.4l-4.9-7.3c-0.2,0.1-0.5,0.2-0.7,0.2l0.7,8c0,0.2,0,0.4,0,0.6l-2.1,8.2
				c-0.2,0.8-0.9,1.4-1.7,1.4l0,0c-0.1,0-0.3-0.1-0.4-0.1c-0.9-0.2-1.5-1.2-1.2-2.1l2-7.8l-0.9-9.7c0-0.1,0-0.2,0-0.3
				c0-3.5,3.6-8.3,5.5-10.5l-4.1-0.4l-1.2,5.4c-0.1,0.6-0.7,1.1-1.3,1.1c-0.1,0-0.2,0-0.3,0c-0.7-0.2-1.2-0.9-1-1.6l1.5-6.6
				C89.5,372.8,90.1,372.4,90.7,372.4 M90.7,371.4c-1.1,0-2.1,0.8-2.3,1.9l-1.5,6.6c-0.1,0.6,0,1.3,0.3,1.8s0.9,0.9,1.5,1.1
				c0.2,0,0.4,0.1,0.5,0.1c0.3,0,0.6-0.1,0.9-0.2c-0.5,1.2-0.8,2.4-0.8,3.5c0,0.2,0,0.3,0,0.5l0.8,9.5l-2,7.6
				c-0.2,0.7-0.1,1.4,0.3,2.1c0.4,0.6,1,1.1,1.7,1.2c0.2,0.1,0.5,0.1,0.7,0.1c1.2,0,2.3-0.8,2.6-2l2.1-8.1c0.1-0.3,0.1-0.6,0.1-0.9
				l-0.5-5.7l3.3,4.9l-2.4,7.9c-0.2,0.7-0.1,1.4,0.2,2.1c0.3,0.6,0.9,1.1,1.6,1.3c0.2,0.1,0.5,0.1,0.8,0.1c1.2,0,2.2-0.8,2.6-1.9
				l2.8-9.1c0.2-0.8,0.1-1.6-0.4-2.3l-0.2-0.2c1-0.3,1.7-1.2,1.7-2.3v-12c0-0.7-0.2-1.4-0.8-1.9l-5.4-4.4c-0.4-0.3-0.8-0.5-1.2-0.5
				l-6.8-0.7C90.8,371.4,90.8,371.4,90.7,371.4L90.7,371.4z M91.9,379.2l0.6-2.8l1.3,0.1C93.2,377.3,92.5,378.3,91.9,379.2
				L91.9,379.2z M99.1,386.6l1.5-1.9v4.1L99.1,386.6L99.1,386.6z"/>
		</g>
		<g>
			<path d="M113.9,399.4c-0.1,0-0.2,0-0.2-0.1l-23.1-17.7c-0.2-0.1-0.2-0.4-0.1-0.6s0.4-0.2,0.6-0.1l23.1,17.7
				c0.2,0.1,0.2,0.4,0.1,0.6C114.1,399.3,114,399.4,113.9,399.4z"/>
		</g>
		<g>
			<path d="M87.5,379.2c-0.1,0-0.2,0-0.2-0.1l-2-1.5c-0.2-0.1-0.2-0.4-0.1-0.6s0.4-0.2,0.6-0.1l2,1.5c0.2,0.1,0.2,0.4,0.1,0.6
				S87.7,379.2,87.5,379.2z"/>
		</g>
		<path d="M108.2,399.8l5.6-6.2l2.4,2.2c2.9,2.6,1.3,6.8,1.3,6.8s-3.7,2.2-6.9-0.5C108.9,400.3,108.2,399.8,108.2,399.8z"/>
		<path d="M106.9,406.8c0,0,0.3-1.8,1.7-1.8c1.4,0,1.9,0.4,1.9,0.4s0.2-3.3,2.6-3.3s2.5,0.6,2.5,0.6s1.1-1.1,3.4-1.1s2.8,2,2.8,2
			s1.2-0.1,1.7,0.2c0.5,0.4,0.5,1,0.5,1s1.1,0.2,1.5,0.6c0.3,0.4,0.9,1.3,0.9,1.3L106.9,406.8L106.9,406.8z"/>
		<path fill="#B3B3B3" d="M101.3,375.8c0,0-4.1,1.4-5.5,3s-3.3,5-3.7,7.2c-0.4,2.2,0.5,10.4,0.5,10.4s-2.5,7.3-2.5,8.2
			c0,0.9,1.4,2,1.4,2s-2.5,0-3-1.5s2.3-8.9,2.3-8.9s-1.2-8.9-1.1-10.4s1.3-4.5,2.7-6.5c1.4-1.9,2.5-3.4,2.5-3.4l-3.2-0.5
			c0,0-1.4,0.1-2,1.2s-0.9,2.7-0.9,3.9c0.1,1.1,0.7,1.9,0.7,1.9s-1.2,0.2-2-1.4s1.3-7.4,1.3-7.4s0.3-2.2,2.9-1.8
			c2.6,0.3,6.7,0.9,6.7,0.9L101.3,375.8z"/>
		<path fill="#B3B3B3" d="M94.3,388.1c0,0,1.5-0.9,2.9,0.8c1.4,1.7,3.8,5.9,3.8,5.9s-2.1,7.4-2.5,8.6s0.2,2.8,0.2,2.8
			s-1.9-0.5-2.2-1.3s2.3-9.4,2.3-9.4L94.3,388.1z"/>
		<path fill="#B3B3B3" d="M101,382.5c0,0,2-3.2,2-3s-0.2,8-0.3,9.5c0,1.5,1.2,2.9,1.2,2.9s-0.9,1.3-1.5,1.1
			c-0.6-0.2-1.9-1.6-1.8-2.7C100.8,389,101,382.5,101,382.5z"/>
		<path d="M109.7,373.4l-1.3-0.6c0.3-0.7,0.5-1.4,0.4-2.2c-0.3-2.3-2.4-3.9-4.7-3.7c-1.5,0.2-2.7,1.1-3.3,2.4l-0.1-0.1
			c-0.2-0.1-0.3,0-0.4,0.2s0,0.3,0.2,0.4l9,4.2c0,0,0.1,0,0.2,0s0.2-0.1,0.2-0.2C109.9,373.7,109.9,373.5,109.7,373.4z"/>
		<path fill="#B3B3B3" d="M106.9,373.3c0,0-1.9-1-3.2-0.8s-1.8,1.2-1.8,1.2s-1.1-1.9-0.6-3c0.6-1.1,0.9-1.1,0.9-1.1l5.3,2.9
			L106.9,373.3z"/>
		<g>
			<path fill="#FFFFFF" d="M98,382.3c0.1-0.2,0.2-0.3,0.2-0.5s-0.1-0.4-0.2-0.7c-0.3-0.5-0.5-0.9-0.6-1.3s0-0.7,0.3-1.1
				c0.2-0.3,0.6-0.5,1-0.6c0.4,0,0.8,0,1.2,0.3l0.5-0.6l0.5,0.4l-0.5,0.7c0.3,0.3,0.5,0.7,0.5,1.1s-0.1,0.8-0.4,1.2l0,0l-0.9-0.7
				c0.2-0.2,0.3-0.5,0.3-0.7s-0.1-0.4-0.2-0.5c-0.2-0.1-0.3-0.2-0.5-0.2s-0.3,0.1-0.4,0.3c-0.1,0.2-0.2,0.3-0.2,0.5s0.1,0.4,0.3,0.7
				c0.3,0.5,0.5,1,0.5,1.3c0.1,0.4,0,0.7-0.3,1.1c-0.3,0.3-0.6,0.5-1,0.6c-0.4,0-0.8-0.1-1.2-0.3l-0.5,0.6l-0.5-0.4l0.5-0.6
				c-0.3-0.3-0.5-0.7-0.6-1.1s0.1-0.8,0.4-1.3l0,0l0.9,0.7c-0.2,0.3-0.3,0.5-0.2,0.7c0,0.2,0.1,0.4,0.3,0.5c0.2,0.1,0.4,0.2,0.5,0.2
				C97.7,382.5,97.9,382.5,98,382.3z"/>
		</g>
	</g>
</g>
</svg>
