<?xml version="1.0" encoding="utf-8"?>
<!-- Generator: Adobe Illustrator 18.0.0, SVG Export Plug-In . SVG Version: 6.00 Build 0)  -->
<!DOCTYPE svg PUBLIC "-//W3C//DTD SVG 1.1//EN" "http://www.w3.org/Graphics/SVG/1.1/DTD/svg11.dtd">
<svg version="1.1" id="Layer_1" xmlns="http://www.w3.org/2000/svg" xmlns:xlink="http://www.w3.org/1999/xlink" x="0px" y="0px"
	 width="102.7px" height="53.3px" viewBox="8.3 418 102.7 53.3" enable-background="new 8.3 418 102.7 53.3" xml:space="preserve">
<g>
	<g>
		
			<linearGradient id="SVGID_1_" gradientUnits="userSpaceOnUse" x1="228.7419" y1="-1095.2622" x2="337.5096" y2="-1128.921" gradientTransform="matrix(0.227 0 0 -0.227 5.654883e-02 179.7833)">
			<stop  offset="0" style="stop-color:#CCCCCC;stop-opacity:0"/>
			<stop  offset="0.2581" style="stop-color:#C6C6C6;stop-opacity:0.2581"/>
			<stop  offset="0.5974" style="stop-color:#B6B6B6;stop-opacity:0.5974"/>
			<stop  offset="0.9803" style="stop-color:#9B9B9B;stop-opacity:0.9803"/>
			<stop  offset="1" style="stop-color:#999999"/>
		</linearGradient>
		<path fill="url(#SVGID_1_)" d="M87,446.6c0,0-20.4-4.1-29-7.7s0.3-18,20.6-11.1s22.2,9.6,22.2,9.6L87,446.6z"/>
		<g>
			
				<linearGradient id="SVGID_2_" gradientUnits="userSpaceOnUse" x1="332.7905" y1="-1139.0603" x2="454.9349" y2="-1139.0603" gradientTransform="matrix(0.227 0 0 -0.227 5.654883e-02 179.7833)">
				<stop  offset="0" style="stop-color:#2E3192"/>
				<stop  offset="1.550877e-02" style="stop-color:#2E3695"/>
				<stop  offset="0.1474" style="stop-color:#2C5AAD"/>
				<stop  offset="0.2865" style="stop-color:#2B77C0"/>
				<stop  offset="0.4333" style="stop-color:#2A8ECF"/>
				<stop  offset="0.5909" style="stop-color:#2A9EDA"/>
				<stop  offset="0.7671" style="stop-color:#29A8E0"/>
				<stop  offset="1" style="stop-color:#29ABE2"/>
			</linearGradient>
			<path fill="url(#SVGID_2_)" d="M92.1,445.9c-0.9,0-1.9,0-2.9,0c-13.3-1-13.6-6.6-13.6-7.1v-7.2c0-0.2,0.1-0.5,0.3-0.6
				c0.2-0.1,0.4-0.2,0.6-0.2c0,0,0,0,0.1,0l26,1.8c0.4,0,0.8,0.4,0.8,0.8v7.1l0,0C103.3,440.7,102.6,445.9,92.1,445.9L92.1,445.9z"
				/>
			<path d="M76.5,431.5l25.9,1.8v7.1c0,0-0.5,4.7-10.4,4.7c-0.9,0-1.8,0-2.8-0.1c-12.9-1-12.7-6.3-12.7-6.3V431.5 M76.5,429.8
				c-0.4,0-0.9,0.2-1.2,0.5c-0.3,0.3-0.6,0.8-0.6,1.2v7.2c0,0.4,0.1,2.2,2.1,4c2.4,2.2,6.5,3.5,12.3,4c1,0.1,2.1,0.1,3,0.1
				c4.5,0,7.9-0.9,10-2.8c1.8-1.5,2-3.1,2.1-3.5c0-0.1,0-0.1,0-0.2v-7.1c0-0.9-0.7-1.6-1.6-1.7L76.5,429.8
				C76.6,429.8,76.5,429.8,76.5,429.8L76.5,429.8z"/>
		</g>
		<g>
			
				<linearGradient id="SVGID_3_" gradientUnits="userSpaceOnUse" x1="616.7233" y1="-1041.3248" x2="566.6245" y2="-951.4924" gradientTransform="matrix(0.2954 -4.063285e-02 -0.1153 -0.1586 -200.2585 298.6796)">
				<stop  offset="0" style="stop-color:#29ABE2"/>
				<stop  offset="0.1866" style="stop-color:#2CACE2"/>
				<stop  offset="0.3279" style="stop-color:#36B0E4"/>
				<stop  offset="0.4543" style="stop-color:#46B6E6"/>
				<stop  offset="0.572" style="stop-color:#5DBFE9"/>
				<stop  offset="0.6837" style="stop-color:#7BCBED"/>
				<stop  offset="0.7908" style="stop-color:#9FD9F2"/>
				<stop  offset="0.8943" style="stop-color:#CAEAF8"/>
				<stop  offset="0.9926" style="stop-color:#FBFDFE"/>
				<stop  offset="1" style="stop-color:#FFFFFF"/>
			</linearGradient>
			<path fill="url(#SVGID_3_)" d="M102.2,431.1c2.7,3.7-0.7,7.5-7.6,8.4c-6.9,1-14.7-1.3-17.4-5s0.7-7.5,7.6-8.4
				S99.5,427.4,102.2,431.1z"/>
			<g>
				<path fill="#231F20" d="M85.1,426.5c-6.2,0.9-9.3,4.3-6.9,7.6s9.5,5.4,15.7,4.5s9.3-4.3,6.9-7.6
					C98.3,427.7,91.3,425.6,85.1,426.5 M94.8,440.4c-7.5,1-16-1.9-18.9-6c-2.9-4,0.8-8.1,8.3-9.2c7.5-1,16,1.4,18.9,5.4
					C106,434.7,102.3,439.4,94.8,440.4"/>
			</g>
			<g>
				<path fill="#231F20" d="M86.3,428.2c-0.5,0.1-1-0.1-1.2-0.4l-0.2-0.3c-0.2-0.3,0-0.5,0.5-0.6s1,0.1,1.2,0.4l0.2,0.3
					C87.1,427.9,86.8,428.1,86.3,428.2"/>
			</g>
			<g>
				<path fill="#231F20" d="M93.6,438.2c-0.5,0.1-1-0.1-1.2-0.4l-0.2-0.3c-0.2-0.3,0-0.5,0.5-0.6s1,0.1,1.2,0.4l0.2,0.3
					C94.3,437.8,94.1,438.1,93.6,438.2"/>
			</g>
			<g>
				<path fill="#231F20" d="M99.4,431.7l-0.6,0.1c-0.5,0.1-1-0.1-1.2-0.4s0-0.5,0.5-0.6l0.6-0.1c0.5-0.1,1,0.1,1.2,0.4
					S99.9,431.6,99.4,431.7"/>
			</g>
			<g>
				<path fill="#231F20" d="M80.9,434.3l-0.6,0.1c-0.5,0.1-1-0.1-1.2-0.4s0-0.5,0.5-0.6l0.6-0.1c0.5-0.1,1,0.1,1.2,0.4
					C81.6,433.9,81.4,434.2,80.9,434.3"/>
			</g>
			<g>
				<path fill="#231F20" d="M91,428.4c-0.1,0-0.2,0-0.2,0c-0.3,0-0.5-0.2-0.4-0.3l0.1-0.3c0-0.1,0.3-0.2,0.5-0.2
					c0.3,0,0.5,0.2,0.4,0.3l-0.1,0.3C91.3,428.4,91.2,428.4,91,428.4"/>
			</g>
			<g>
				<path fill="#231F20" d="M88.3,437.4c-0.1,0-0.2,0-0.2,0c-0.3,0-0.5-0.2-0.4-0.3l0.1-0.3c0-0.1,0.3-0.2,0.5-0.2
					c0.3,0,0.5,0.2,0.4,0.3l-0.1,0.3C88.5,437.3,88.4,437.4,88.3,437.4"/>
			</g>
			<g>
				<path fill="#231F20" d="M98.9,434.1c-0.1,0-0.2,0-0.2,0l-0.6-0.1c-0.3,0-0.5-0.2-0.4-0.3c0-0.1,0.3-0.2,0.5-0.2l0.6,0.1
					c0.3,0,0.5,0.2,0.4,0.3C99.1,434,99,434.1,98.9,434.1"/>
			</g>
			<g>
				<path fill="#231F20" d="M81,431.6c-0.1,0-0.2,0-0.2,0l-0.6-0.1c-0.3,0-0.5-0.2-0.4-0.3c0-0.1,0.3-0.2,0.5-0.2l0.6,0.1
					c0.3,0,0.5,0.2,0.4,0.3C81.3,431.5,81.2,431.6,81,431.6"/>
			</g>
			<g>
				<path fill="#231F20" d="M82.8,429.6c-0.2,0-0.3,0-0.5-0.1l-0.4-0.2c-0.2-0.1-0.2-0.2-0.1-0.3c0.2-0.1,0.5-0.1,0.7,0l0.4,0.2
					c0.2,0.1,0.2,0.2,0.1,0.3C83,429.5,82.9,429.6,82.8,429.6"/>
			</g>
			<g>
				<path fill="#231F20" d="M96.9,436.2c-0.2,0-0.3,0-0.5-0.1L96,436c-0.2-0.1-0.2-0.2-0.1-0.3c0.2-0.1,0.5-0.1,0.7,0l0.5,0.2
					c0.2,0.1,0.2,0.2,0.1,0.3C97.1,436.2,97,436.2,96.9,436.2"/>
			</g>
			<g>
				<path fill="#231F20" d="M83.8,436.2c-0.2,0-0.3,0-0.5-0.1s-0.2-0.2-0.1-0.3l0.4-0.2c0.2-0.1,0.5-0.1,0.7,0s0.2,0.2,0.1,0.3
					l-0.4,0.2C84,436.1,83.9,436.1,83.8,436.2"/>
			</g>
			<g>
				<path fill="#231F20" d="M95.1,429.6c-0.2,0-0.3,0-0.5-0.1s-0.2-0.2-0.1-0.3L95,429c0.2-0.1,0.5-0.1,0.7,0s0.2,0.2,0.1,0.3
					l-0.4,0.2C95.3,429.6,95.2,429.6,95.1,429.6"/>
			</g>
			<g>
				<path fill="#231F20" d="M89.8,433c-0.5,0.1-1-0.1-1.2-0.3l-2.8-3.8c-0.2-0.2,0-0.5,0.5-0.6s1,0.1,1.2,0.3l2.8,3.8
					C90.5,432.7,90.2,433,89.8,433z"/>
			</g>
			<g>
				<path fill="#231F20" d="M94.8,434.2c-0.2,0-0.4,0-0.6,0l-5-1.2c-0.5-0.1-0.7-0.4-0.6-0.6c0.2-0.2,0.7-0.3,1.2-0.2l5,1.2
					c0.5,0.1,0.7,0.4,0.6,0.6C95.3,434.1,95.1,434.2,94.8,434.2z"/>
			</g>
			<g>
				<path fill="#FFFFFF" d="M91.1,433.9c0.6-0.2,0.5-0.4,0.2-0.7c-0.2-0.2-0.4-0.5-1.1-0.5L91.1,433.9z M88,431
					c-0.4,0.1-0.5,0.3-0.2,0.7c0.2,0.3,0.3,0.4,1,0.5L88,431z M88.6,433.8c0.5,0.2,0.9,0.3,1.6,0.2l-0.9-1.3c-1.5,0-2.1-0.3-2.5-0.9
					c-0.5-0.7-0.2-1.2,0.8-1.4l-0.3-0.4l0.8-0.1l0.3,0.4c0.7-0.1,1.2,0,1.9,0.2L90,431c-0.5-0.1-0.8-0.2-1.2-0.1l0.9,1.2
					c1.5,0,2.2,0.3,2.6,0.9c0.5,0.6,0.2,1.2-0.9,1.4l0.5,0.6l-0.8,0.1l-0.5-0.6c-0.8,0.1-1.6,0-2.4-0.3L88.6,433.8z"/>
			</g>
			<path fill="#808080" d="M82.6,427.6c0,0,7-2.4,14.7,1.4c7.6,3.8,1.9,7.3,1.9,7.3s4.7-3.5-2.2-7C90.2,425.9,82.6,427.6,82.6,427.6
				z"/>
		</g>
	</g>
	<g>
		
			<linearGradient id="SVGID_4_" gradientUnits="userSpaceOnUse" x1="53.7514" y1="-1095.2311" x2="162.5191" y2="-1128.8899" gradientTransform="matrix(0.227 0 0 -0.227 5.654883e-02 179.7833)">
			<stop  offset="0" style="stop-color:#CCCCCC;stop-opacity:0"/>
			<stop  offset="0.2581" style="stop-color:#C6C6C6;stop-opacity:0.2581"/>
			<stop  offset="0.5974" style="stop-color:#B6B6B6;stop-opacity:0.5974"/>
			<stop  offset="0.9803" style="stop-color:#9B9B9B;stop-opacity:0.9803"/>
			<stop  offset="1" style="stop-color:#999999"/>
		</linearGradient>
		<path fill="url(#SVGID_4_)" d="M47.3,446.6c0,0-20.4-4.1-29-7.7s0.3-18,20.6-11.1s22.2,9.6,22.2,9.6L47.3,446.6z"/>
		<g>
			
				<linearGradient id="SVGID_5_" gradientUnits="userSpaceOnUse" x1="157.9007" y1="-1139.0603" x2="280.0451" y2="-1139.0603" gradientTransform="matrix(0.227 0 0 -0.227 5.654883e-02 179.7833)">
				<stop  offset="0" style="stop-color:#2E3192"/>
				<stop  offset="1.550877e-02" style="stop-color:#2E3695"/>
				<stop  offset="0.1474" style="stop-color:#2C5AAD"/>
				<stop  offset="0.2865" style="stop-color:#2B77C0"/>
				<stop  offset="0.4333" style="stop-color:#2A8ECF"/>
				<stop  offset="0.5909" style="stop-color:#2A9EDA"/>
				<stop  offset="0.7671" style="stop-color:#29A8E0"/>
				<stop  offset="1" style="stop-color:#29ABE2"/>
			</linearGradient>
			<path fill="url(#SVGID_5_)" d="M52.4,445.9c-0.9,0-1.9,0-2.9,0c-13.3-1-13.6-6.6-13.6-7.1v-7.2c0-0.2,0.1-0.5,0.3-0.6
				s0.4-0.2,0.6-0.2c0,0,0,0,0.1,0l26,1.8c0.4,0,0.8,0.4,0.8,0.8v7.1l0,0C63.6,440.7,62.9,445.9,52.4,445.9L52.4,445.9z"/>
			<path d="M36.8,431.5l25.9,1.8v7.1c0,0-0.5,4.7-10.4,4.7c-0.9,0-1.8,0-2.8-0.1c-12.9-1-12.7-6.3-12.7-6.3L36.8,431.5 M36.7,429.8
				c-0.4,0-0.9,0.2-1.2,0.5s-0.6,0.8-0.6,1.2v7.2c0,0.4,0.1,2.2,2.1,4c2.4,2.2,6.5,3.5,12.3,4c1,0.1,2.1,0.1,3,0.1
				c4.5,0,7.9-0.9,10-2.8c1.8-1.5,2-3.1,2.1-3.5c0-0.1,0-0.1,0-0.2v-7.1c0-0.9-0.7-1.6-1.6-1.7L36.7,429.8
				C36.8,429.8,36.8,429.8,36.7,429.8L36.7,429.8z"/>
		</g>
		<g>
			
				<linearGradient id="SVGID_6_" gradientUnits="userSpaceOnUse" x1="494.3463" y1="-1010.088" x2="444.2474" y2="-920.2556" gradientTransform="matrix(0.2954 -4.063285e-02 -0.1153 -0.1586 -200.2585 298.6796)">
				<stop  offset="0" style="stop-color:#29ABE2"/>
				<stop  offset="0.1866" style="stop-color:#2CACE2"/>
				<stop  offset="0.3279" style="stop-color:#36B0E4"/>
				<stop  offset="0.4543" style="stop-color:#46B6E6"/>
				<stop  offset="0.572" style="stop-color:#5DBFE9"/>
				<stop  offset="0.6837" style="stop-color:#7BCBED"/>
				<stop  offset="0.7908" style="stop-color:#9FD9F2"/>
				<stop  offset="0.8943" style="stop-color:#CAEAF8"/>
				<stop  offset="0.9926" style="stop-color:#FBFDFE"/>
				<stop  offset="1" style="stop-color:#FFFFFF"/>
			</linearGradient>
			<path fill="url(#SVGID_6_)" d="M62.4,431.1c2.7,3.7-0.7,7.5-7.6,8.4c-6.9,1-14.7-1.3-17.4-5s0.7-7.5,7.6-8.4
				C52,425.2,59.7,427.4,62.4,431.1z"/>
			<g>
				<path fill="#231F20" d="M45.4,426.5c-6.2,0.9-9.3,4.3-6.9,7.6s9.5,5.4,15.7,4.5s9.3-4.3,6.9-7.6
					C58.6,427.7,51.6,425.6,45.4,426.5 M55.1,440.4c-7.5,1-16-1.9-18.9-6c-2.9-4,0.8-8.1,8.3-9.2c7.5-1,16,1.4,18.9,5.4
					C66.3,434.7,62.6,439.4,55.1,440.4"/>
			</g>
			<g>
				<path fill="#231F20" d="M46.6,428.2c-0.5,0.1-1-0.1-1.2-0.4l-0.2-0.3c-0.2-0.3,0-0.5,0.5-0.6s1,0.1,1.2,0.4l0.2,0.3
					C47.4,427.9,47.1,428.1,46.6,428.2"/>
			</g>
			<g>
				<path fill="#231F20" d="M53.9,438.2c-0.5,0.1-1-0.1-1.2-0.4l-0.2-0.3c-0.2-0.3,0-0.5,0.5-0.6s1,0.1,1.2,0.4l0.2,0.3
					C54.6,437.8,54.4,438.1,53.9,438.2"/>
			</g>
			<g>
				<path fill="#231F20" d="M59.7,431.7l-0.6,0.1c-0.5,0.1-1-0.1-1.2-0.4s0-0.5,0.5-0.6l0.6-0.1c0.5-0.1,1,0.1,1.2,0.4
					S60.2,431.6,59.7,431.7"/>
			</g>
			<g>
				<path fill="#231F20" d="M41.1,434.3l-0.6,0.1c-0.5,0.1-1-0.1-1.2-0.4s0-0.5,0.5-0.6l0.6-0.1c0.5-0.1,1,0.1,1.2,0.4
					C41.9,433.9,41.6,434.2,41.1,434.3"/>
			</g>
			<g>
				<path fill="#231F20" d="M51.3,428.4c-0.1,0-0.2,0-0.2,0c-0.3,0-0.5-0.2-0.4-0.3l0.1-0.3c0-0.1,0.3-0.2,0.5-0.2
					c0.3,0,0.5,0.2,0.4,0.3l-0.1,0.3C51.5,428.4,51.4,428.4,51.3,428.4"/>
			</g>
			<g>
				<path fill="#231F20" d="M48.5,437.4c-0.1,0-0.2,0-0.2,0c-0.3,0-0.5-0.2-0.4-0.3l0.1-0.3c0-0.1,0.3-0.2,0.5-0.2
					c0.3,0,0.5,0.2,0.4,0.3l-0.1,0.3C48.8,437.3,48.7,437.4,48.5,437.4"/>
			</g>
			<g>
				<path fill="#231F20" d="M59.1,434.1c-0.1,0-0.2,0-0.2,0l-0.6-0.1c-0.3,0-0.5-0.2-0.4-0.3c0-0.1,0.3-0.2,0.5-0.2l0.6,0.1
					c0.3,0,0.5,0.2,0.4,0.3C59.4,434,59.3,434.1,59.1,434.1"/>
			</g>
			<g>
				<path fill="#231F20" d="M41.3,431.6c-0.1,0-0.2,0-0.2,0l-0.6-0.1c-0.3,0-0.5-0.2-0.4-0.3c0-0.1,0.3-0.2,0.5-0.2l0.6,0.1
					c0.3,0,0.5,0.2,0.4,0.3C41.6,431.5,41.4,431.6,41.3,431.6"/>
			</g>
			<g>
				<path fill="#231F20" d="M43.1,429.6c-0.2,0-0.3,0-0.5-0.1l-0.4-0.2c-0.2-0.1-0.2-0.2-0.1-0.3c0.2-0.1,0.5-0.1,0.7,0l0.4,0.2
					c0.2,0.1,0.2,0.2,0.1,0.3C43.3,429.5,43.2,429.6,43.1,429.6"/>
			</g>
			<g>
				<path fill="#231F20" d="M57.2,436.2c-0.2,0-0.3,0-0.5-0.1l-0.5-0.2c-0.2-0.1-0.2-0.2-0.1-0.3c0.2-0.1,0.5-0.1,0.7,0l0.5,0.2
					c0.2,0.1,0.2,0.2,0.1,0.3C57.4,436.2,57.3,436.2,57.2,436.2"/>
			</g>
			<g>
				<path fill="#231F20" d="M44.1,436.2c-0.2,0-0.3,0-0.5-0.1s-0.2-0.2-0.1-0.3l0.4-0.2c0.2-0.1,0.5-0.1,0.7,0s0.2,0.2,0.1,0.3
					l-0.4,0.2C44.3,436.1,44.2,436.1,44.1,436.2"/>
			</g>
			<g>
				<path fill="#231F20" d="M55.4,429.6c-0.2,0-0.3,0-0.5-0.1s-0.2-0.2-0.1-0.3l0.4-0.2c0.2-0.1,0.5-0.1,0.7,0s0.2,0.2,0.1,0.3
					l-0.4,0.2C55.6,429.6,55.5,429.6,55.4,429.6"/>
			</g>
			<g>
				<path fill="#231F20" d="M50.1,433c-0.5,0.1-1-0.1-1.2-0.3l-2.8-3.8c-0.2-0.2,0-0.5,0.5-0.6s1,0.1,1.2,0.3l2.8,3.8
					C50.8,432.7,50.5,433,50.1,433z"/>
			</g>
			<g>
				<path fill="#231F20" d="M55.1,434.2c-0.2,0-0.4,0-0.6,0l-5-1.2c-0.5-0.1-0.7-0.4-0.6-0.6c0.2-0.2,0.7-0.3,1.2-0.2l5,1.2
					c0.5,0.1,0.7,0.4,0.6,0.6C55.6,434.1,55.4,434.2,55.1,434.2z"/>
			</g>
			<g>
				<path fill="#FFFFFF" d="M51.3,433.9c0.6-0.2,0.5-0.4,0.2-0.7c-0.2-0.2-0.4-0.5-1.1-0.5L51.3,433.9z M48.3,431
					c-0.4,0.1-0.5,0.3-0.2,0.7c0.2,0.3,0.3,0.4,1,0.5L48.3,431z M48.9,433.8c0.5,0.2,0.9,0.3,1.6,0.2l-0.9-1.3
					c-1.5,0-2.1-0.3-2.5-0.9c-0.5-0.7-0.2-1.2,0.8-1.4l-0.3-0.4l0.8-0.1l0.3,0.4c0.7-0.1,1.2,0,1.9,0.2l-0.3,0.5
					c-0.5-0.1-0.8-0.2-1.2-0.1l0.9,1.2c1.5,0,2.2,0.3,2.6,0.9c0.5,0.6,0.2,1.2-0.9,1.4l0.5,0.6l-0.8,0.1l-0.5-0.6
					c-0.8,0.1-1.6,0-2.4-0.3L48.9,433.8z"/>
			</g>
			<path fill="#808080" d="M42.9,427.6c0,0,7-2.4,14.7,1.4c7.6,3.8,1.9,7.3,1.9,7.3s4.7-3.5-2.2-7C50.4,425.9,42.9,427.6,42.9,427.6
				z"/>
		</g>
	</g>
	<g>
		<g>
			<g>
				<g>
					<g>
						<g>
							<g>
								<defs>
									<polygon id="SVGID_7_" points="71.7,443.6 83.3,458 83.3,466.3 47.9,464.1 34.7,451.1 43.9,443.4 									"/>
								</defs>
								<clipPath id="SVGID_8_">
									<use xlink:href="#SVGID_7_"  overflow="visible"/>
								</clipPath>
								<g clip-path="url(#SVGID_8_)">
									
										<linearGradient id="SVGID_9_" gradientUnits="userSpaceOnUse" x1="167.7201" y1="-1179.3324" x2="276.4879" y2="-1212.9912" gradientTransform="matrix(0.227 0 0 -0.227 5.654883e-02 179.7833)">
										<stop  offset="0" style="stop-color:#CCCCCC;stop-opacity:0"/>
										<stop  offset="0.2581" style="stop-color:#C6C6C6;stop-opacity:0.2581"/>
										<stop  offset="0.5974" style="stop-color:#B6B6B6;stop-opacity:0.5974"/>
										<stop  offset="0.9803" style="stop-color:#9B9B9B;stop-opacity:0.9803"/>
										<stop  offset="1" style="stop-color:#999999"/>
									</linearGradient>
									<path fill="url(#SVGID_9_)" d="M73.2,465.7c0,0-20.4-4.1-29-7.7s0.3-18,20.6-11.1s22.2,9.6,22.2,9.6L73.2,465.7z"/>
									<g>
										
											<linearGradient id="SVGID_10_" gradientUnits="userSpaceOnUse" x1="271.9" y1="-1222.7607" x2="394.0444" y2="-1222.7607" gradientTransform="matrix(0.227 0 0 -0.227 5.654883e-02 179.7833)">
											<stop  offset="0" style="stop-color:#2E3192"/>
											<stop  offset="1.550877e-02" style="stop-color:#2E3695"/>
											<stop  offset="0.1474" style="stop-color:#2C5AAD"/>
											<stop  offset="0.2865" style="stop-color:#2B77C0"/>
											<stop  offset="0.4333" style="stop-color:#2A8ECF"/>
											<stop  offset="0.5909" style="stop-color:#2A9EDA"/>
											<stop  offset="0.7671" style="stop-color:#29A8E0"/>
											<stop  offset="1" style="stop-color:#29ABE2"/>
										</linearGradient>
										<path fill="url(#SVGID_10_)" d="M78.2,464.9c-0.9,0-1.9,0-2.9,0c-13.3-1-13.6-6.6-13.6-7.1v-7.2c0-0.2,0.1-0.5,0.3-0.6
											s0.4-0.2,0.6-0.2c0,0,0,0,0.1,0l26,1.8c0.4,0,0.8,0.4,0.8,0.8v7.1l0,0C89.5,459.8,88.8,464.9,78.2,464.9L78.2,464.9z"/>
										<path d="M62.7,450.6l25.9,1.8v7.1c0,0-0.5,4.7-10.4,4.7c-0.9,0-1.8,0-2.8-0.1c-12.9-1-12.7-6.3-12.7-6.3L62.7,450.6
											 M62.6,448.9c-0.4,0-0.9,0.2-1.2,0.5s-0.6,0.8-0.6,1.2v7.2c0,0.4,0.1,2.2,2.1,4c2.4,2.2,6.5,3.5,12.3,4
											c1,0.1,2.1,0.1,3,0.1c4.5,0,7.9-0.9,10-2.8c1.8-1.5,2-3.1,2.1-3.5c0-0.1,0-0.1,0-0.2v-7.1c0-0.9-0.7-1.6-1.6-1.7
											L62.6,448.9C62.7,448.9,62.6,448.9,62.6,448.9L62.6,448.9z"/>
									</g>
									<g>
										
											<linearGradient id="SVGID_11_" gradientUnits="userSpaceOnUse" x1="531.6562" y1="-1139.6165" x2="481.5575" y2="-1049.7839" gradientTransform="matrix(0.2954 -4.063285e-02 -0.1153 -0.1586 -200.2585 298.6796)">
											<stop  offset="0" style="stop-color:#29ABE2"/>
											<stop  offset="0.1866" style="stop-color:#2CACE2"/>
											<stop  offset="0.3279" style="stop-color:#36B0E4"/>
											<stop  offset="0.4543" style="stop-color:#46B6E6"/>
											<stop  offset="0.572" style="stop-color:#5DBFE9"/>
											<stop  offset="0.6837" style="stop-color:#7BCBED"/>
											<stop  offset="0.7908" style="stop-color:#9FD9F2"/>
											<stop  offset="0.8943" style="stop-color:#CAEAF8"/>
											<stop  offset="0.9926" style="stop-color:#FBFDFE"/>
											<stop  offset="1" style="stop-color:#FFFFFF"/>
										</linearGradient>
										<path fill="url(#SVGID_11_)" d="M88.3,450.1c2.7,3.7-0.7,7.5-7.6,8.4c-6.9,1-14.7-1.3-17.4-5c-2.7-3.7,0.7-7.5,7.6-8.4
											C77.9,444.2,85.6,446.4,88.3,450.1z"/>
										<g>
											<path fill="#231F20" d="M71.2,445.6c-6.2,0.9-9.3,4.3-6.9,7.6c2.4,3.3,9.5,5.4,15.7,4.5s9.3-4.3,6.9-7.6
												C84.5,446.7,77.5,444.7,71.2,445.6 M81,459.4c-7.5,1-16-1.9-18.9-6c-2.9-4,0.8-8.1,8.3-9.2c7.5-1,16,1.4,18.9,5.4
												C92.2,453.8,88.5,458.4,81,459.4"/>
										</g>
										<g>
											<path fill="#231F20" d="M72.5,447.3c-0.5,0.1-1-0.1-1.2-0.4l-0.2-0.3c-0.2-0.3,0-0.5,0.5-0.6s1,0.1,1.2,0.4l0.2,0.3
												C73.2,446.9,73,447.2,72.5,447.3"/>
										</g>
										<g>
											<path fill="#231F20" d="M79.7,457.2c-0.5,0.1-1-0.1-1.2-0.4l-0.2-0.3c-0.2-0.3,0-0.5,0.5-0.6s1,0.1,1.2,0.4l0.2,0.3
												C80.5,456.9,80.2,457.2,79.7,457.2"/>
										</g>
										<g>
											<path fill="#231F20" d="M85.5,450.8l-0.6,0.1c-0.5,0.1-1-0.1-1.2-0.4s0-0.5,0.5-0.6l0.6-0.1c0.5-0.1,1,0.1,1.2,0.4
												C86.3,450.4,86,450.7,85.5,450.8"/>
										</g>
										<g>
											<path fill="#231F20" d="M67,453.3l-0.6,0.1c-0.5,0.1-1-0.1-1.2-0.4s0-0.5,0.5-0.6l0.6-0.1c0.5-0.1,1,0.1,1.2,0.4
												C67.8,453,67.5,453.3,67,453.3"/>
										</g>
										<g>
											<path fill="#231F20" d="M77.1,447.5c-0.1,0-0.2,0-0.2,0c-0.3,0-0.5-0.2-0.4-0.3l0.1-0.3c0-0.1,0.3-0.2,0.5-0.2
												c0.3,0,0.5,0.2,0.4,0.3l-0.1,0.3C77.4,447.4,77.3,447.5,77.1,447.5"/>
										</g>
										<g>
											<path fill="#231F20" d="M74.4,456.5c-0.1,0-0.2,0-0.2,0c-0.3,0-0.5-0.2-0.4-0.3l0.1-0.3c0-0.1,0.3-0.2,0.5-0.2
												c0.3,0,0.5,0.2,0.4,0.3l-0.1,0.3C74.7,456.4,74.6,456.5,74.4,456.5"/>
										</g>
										<g>
											<path fill="#231F20" d="M85,453.2c-0.1,0-0.2,0-0.2,0l-0.6-0.1c-0.3,0-0.5-0.2-0.4-0.3c0-0.1,0.3-0.2,0.5-0.2l0.6,0.1
												c0.3,0,0.5,0.2,0.4,0.3C85.3,453.1,85.2,453.1,85,453.2"/>
										</g>
										<g>
											<path fill="#231F20" d="M67.2,450.6c-0.1,0-0.2,0-0.2,0l-0.6-0.1c-0.3,0-0.5-0.2-0.4-0.3c0-0.1,0.3-0.2,0.5-0.2l0.6,0.1
												c0.3,0,0.5,0.2,0.4,0.3C67.5,450.6,67.3,450.6,67.2,450.6"/>
										</g>
										<g>
											<path fill="#231F20" d="M69,448.6c-0.2,0-0.3,0-0.5-0.1l-0.4-0.2c-0.2-0.1-0.2-0.2-0.1-0.3c0.2-0.1,0.5-0.1,0.7,0
												l0.4,0.2c0.2,0.1,0.2,0.2,0.1,0.3C69.1,448.6,69.1,448.6,69,448.6"/>
										</g>
										<g>
											<path fill="#231F20" d="M83.1,455.3c-0.2,0-0.3,0-0.5-0.1l-0.5-0.2c-0.2-0.1-0.2-0.2-0.1-0.3c0.2-0.1,0.5-0.1,0.7,0
												l0.5,0.2c0.2,0.1,0.2,0.2,0.1,0.3C83.3,455.3,83.2,455.3,83.1,455.3"/>
										</g>
										<g>
											<path fill="#231F20" d="M70,455.2c-0.2,0-0.3,0-0.5-0.1s-0.2-0.2-0.1-0.3l0.4-0.2c0.2-0.1,0.5-0.1,0.7,0s0.2,0.2,0.1,0.3
												l-0.4,0.2C70.2,455.2,70.1,455.2,70,455.2"/>
										</g>
										<g>
											<path fill="#231F20" d="M81.3,448.7c-0.2,0-0.3,0-0.5-0.1s-0.2-0.2-0.1-0.3l0.4-0.2c0.2-0.1,0.5-0.1,0.7,0
												s0.2,0.2,0.1,0.3l-0.4,0.2C81.4,448.7,81.4,448.7,81.3,448.7"/>
										</g>
										<g>
											<path fill="#231F20" d="M75.9,452.1c-0.5,0.1-1-0.1-1.2-0.3l-2.8-3.8c-0.2-0.2,0-0.5,0.5-0.6s1,0.1,1.2,0.3l2.8,3.8
												C76.6,451.8,76.4,452,75.9,452.1z"/>
										</g>
										<g>
											<path fill="#231F20" d="M81,453.3c-0.2,0-0.4,0-0.6,0l-5-1.2c-0.5-0.1-0.7-0.4-0.6-0.6c0.2-0.2,0.7-0.3,1.2-0.2l5,1.2
												c0.5,0.1,0.7,0.4,0.6,0.6C81.4,453.2,81.2,453.3,81,453.3z"/>
										</g>
										<g>
											<path fill="#FFFFFF" d="M77.2,453c0.6-0.2,0.5-0.4,0.2-0.7c-0.2-0.2-0.4-0.5-1.1-0.5L77.2,453z M74.2,450
												c-0.4,0.1-0.5,0.3-0.2,0.7c0.2,0.3,0.3,0.4,1,0.5L74.2,450z M74.8,452.8c0.5,0.2,0.9,0.3,1.6,0.2l-0.9-1.3
												c-1.5,0-2.1-0.3-2.5-0.9c-0.5-0.7-0.2-1.2,0.8-1.4l-0.3-0.4l0.8-0.1l0.3,0.4c0.7-0.1,1.2,0,1.9,0.2l-0.3,0.5
												c-0.5-0.1-0.8-0.2-1.2-0.1l0.9,1.2c1.5,0,2.2,0.3,2.6,0.9c0.5,0.6,0.2,1.2-0.9,1.4l0.5,0.6l-0.8,0.1l-0.5-0.6
												c-0.8,0.1-1.6,0-2.4-0.3L74.8,452.8z"/>
										</g>
										<path fill="#808080" d="M68.7,446.6c0,0,7-2.4,14.7,1.4c7.6,3.8,1.9,7.3,1.9,7.3s4.7-3.5-2.2-7
											C76.3,444.9,68.7,446.6,68.7,446.6z"/>
									</g>
								</g>
							</g>
						</g>
					</g>
				</g>
			</g>
		</g>
		<polyline fill="none" stroke="#000000" stroke-linecap="round" stroke-miterlimit="10" points="72.4,445 83.3,458.1 83.3,464.5 		
			"/>
	</g>
</g>
</svg>
