<?xml version="1.0" encoding="utf-8"?>
<!-- Generator: Adobe Illustrator 18.0.0, SVG Export Plug-In . SVG Version: 6.00 Build 0)  -->
<!DOCTYPE svg PUBLIC "-//W3C//DTD SVG 1.1//EN" "http://www.w3.org/Graphics/SVG/1.1/DTD/svg11.dtd">
<svg version="1.1" id="Layer_1" xmlns="http://www.w3.org/2000/svg" xmlns:xlink="http://www.w3.org/1999/xlink" x="0px" y="0px"
	 width="65.3px" height="38px" viewBox="173 421.3 65.3 38" enable-background="new 173 421.3 65.3 38" xml:space="preserve">
<g>
	<g id="time_right">
		
			<linearGradient id="SVGID_1_" gradientUnits="userSpaceOnUse" x1="784.7546" y1="-1124.2211" x2="893.5223" y2="-1157.8799" gradientTransform="matrix(0.227 0 0 -0.227 5.654908e-02 179.7833)">
			<stop  offset="0" style="stop-color:#CCCCCC;stop-opacity:0"/>
			<stop  offset="0.2581" style="stop-color:#C6C6C6;stop-opacity:0.2581"/>
			<stop  offset="0.5974" style="stop-color:#B6B6B6;stop-opacity:0.5974"/>
			<stop  offset="0.9803" style="stop-color:#9B9B9B;stop-opacity:0.9803"/>
			<stop  offset="1" style="stop-color:#999999"/>
		</linearGradient>
		<path fill="url(#SVGID_1_)" d="M213.3,453.2c0,0-20.4-4.1-29-7.7s0.3-18,20.6-11.1s22.2,9.6,22.2,9.6L213.3,453.2z"/>
		<g>
			
				<linearGradient id="SVGID_2_" gradientUnits="userSpaceOnUse" x1="888.7377" y1="-1168.1353" x2="1010.882" y2="-1168.1353" gradientTransform="matrix(0.227 0 0 -0.227 5.654908e-02 179.7833)">
				<stop  offset="0" style="stop-color:#2E3192"/>
				<stop  offset="1.550877e-02" style="stop-color:#2E3695"/>
				<stop  offset="0.1474" style="stop-color:#2C5AAD"/>
				<stop  offset="0.2865" style="stop-color:#2B77C0"/>
				<stop  offset="0.4333" style="stop-color:#2A8ECF"/>
				<stop  offset="0.5909" style="stop-color:#2A9EDA"/>
				<stop  offset="0.7671" style="stop-color:#29A8E0"/>
				<stop  offset="1" style="stop-color:#29ABE2"/>
			</linearGradient>
			<path fill="url(#SVGID_2_)" d="M218.3,452.5c-0.9,0-1.9,0-2.9,0c-13.3-1-13.6-6.6-13.6-7.1v-7.2c0-0.2,0.1-0.5,0.3-0.6
				s0.4-0.2,0.6-0.2c0,0,0,0,0.1,0l26,1.8c0.4,0,0.8,0.4,0.8,0.8v7.1l0,0C229.5,447.3,228.9,452.5,218.3,452.5L218.3,452.5z"/>
			<path d="M202.7,438.1l25.9,1.8v7.1c0,0-0.5,4.7-10.4,4.7c-0.9,0-1.8,0-2.8-0.1c-12.9-1-12.7-6.3-12.7-6.3V438.1 M202.7,436.4
				c-0.4,0-0.9,0.2-1.2,0.5s-0.6,0.8-0.6,1.2v7.2c0,0.4,0.1,2.2,2.1,4c2.4,2.2,6.5,3.5,12.3,4c1,0.1,2.1,0.1,3,0.1
				c4.5,0,7.9-0.9,10-2.8c1.8-1.5,2-3.1,2.1-3.5c0-0.1,0-0.1,0-0.2V440c0-0.9-0.7-1.6-1.6-1.7l-26.1-1.8
				C202.8,436.4,202.7,436.4,202.7,436.4L202.7,436.4z"/>
		</g>
		<g>
			
				<linearGradient id="SVGID_3_" gradientUnits="userSpaceOnUse" x1="990.3431" y1="-1178.5671" x2="940.2444" y2="-1088.7347" gradientTransform="matrix(0.2954 -4.063285e-02 -0.1153 -0.1586 -200.2585 298.6796)">
				<stop  offset="0" style="stop-color:#29ABE2"/>
				<stop  offset="0.1866" style="stop-color:#2CACE2"/>
				<stop  offset="0.3279" style="stop-color:#36B0E4"/>
				<stop  offset="0.4543" style="stop-color:#46B6E6"/>
				<stop  offset="0.572" style="stop-color:#5DBFE9"/>
				<stop  offset="0.6837" style="stop-color:#7BCBED"/>
				<stop  offset="0.7908" style="stop-color:#9FD9F2"/>
				<stop  offset="0.8943" style="stop-color:#CAEAF8"/>
				<stop  offset="0.9926" style="stop-color:#FBFDFE"/>
				<stop  offset="1" style="stop-color:#FFFFFF"/>
			</linearGradient>
			<path fill="url(#SVGID_3_)" d="M228.4,437.7c2.7,3.7-0.7,7.5-7.6,8.4c-6.9,1-14.7-1.3-17.4-5s0.7-7.5,7.6-8.4
				C217.9,431.7,225.7,434,228.4,437.7z"/>
			<g>
				<path fill="#231F20" d="M211.3,433.1c-6.2,0.9-9.3,4.3-6.9,7.6c2.4,3.3,9.5,5.4,15.7,4.5s9.3-4.3,6.9-7.6
					C224.6,434.3,217.5,432.2,211.3,433.1 M221,447c-7.5,1-16-1.9-18.9-6c-2.9-4,0.8-8.1,8.3-9.2c7.5-1,16,1.4,18.9,5.4
					C232.3,441.3,228.5,445.9,221,447"/>
			</g>
			<g>
				<path fill="#231F20" d="M212.6,434.8c-0.5,0.1-1-0.1-1.2-0.4l-0.2-0.3c-0.2-0.3,0-0.5,0.5-0.6s1,0.1,1.2,0.4l0.2,0.3
					C213.3,434.5,213.1,434.7,212.6,434.8"/>
			</g>
			<g>
				<path fill="#231F20" d="M219.8,444.7c-0.5,0.1-1-0.1-1.2-0.4l-0.2-0.3c-0.2-0.3,0-0.5,0.5-0.6s1,0.1,1.2,0.4l0.2,0.3
					C220.5,444.4,220.3,444.7,219.8,444.7"/>
			</g>
			<g>
				<path fill="#231F20" d="M225.6,438.3l-0.6,0.1c-0.5,0.1-1-0.1-1.2-0.4s0-0.5,0.5-0.6l0.6-0.1c0.5-0.1,1,0.1,1.2,0.4
					C226.4,438,226.1,438.2,225.6,438.3"/>
			</g>
			<g>
				<path fill="#231F20" d="M207.1,440.9l-0.6,0.1c-0.5,0.1-1-0.1-1.2-0.4s0-0.5,0.5-0.6l0.6-0.1c0.5-0.1,1,0.1,1.2,0.4
					C207.8,440.5,207.6,440.8,207.1,440.9"/>
			</g>
			<g>
				<path fill="#231F20" d="M217.2,435c-0.1,0-0.2,0-0.2,0c-0.3,0-0.5-0.2-0.4-0.3l0.1-0.3c0-0.1,0.3-0.2,0.5-0.2
					c0.3,0,0.5,0.2,0.4,0.3l-0.1,0.3C217.5,434.9,217.4,435,217.2,435"/>
			</g>
			<g>
				<path fill="#231F20" d="M214.5,444c-0.1,0-0.2,0-0.2,0c-0.3,0-0.5-0.2-0.4-0.3l0.1-0.3c0-0.1,0.3-0.2,0.5-0.2
					c0.3,0,0.5,0.2,0.4,0.3l-0.1,0.3C214.8,443.9,214.6,444,214.5,444"/>
			</g>
			<g>
				<path fill="#231F20" d="M225.1,440.7c-0.1,0-0.2,0-0.2,0l-0.6-0.1c-0.3,0-0.5-0.2-0.4-0.3c0-0.1,0.3-0.2,0.5-0.2l0.6,0.1
					c0.3,0,0.5,0.2,0.4,0.3C225.4,440.6,225.2,440.7,225.1,440.7"/>
			</g>
			<g>
				<path fill="#231F20" d="M207.2,438.2c-0.1,0-0.2,0-0.2,0l-0.6-0.1c-0.3,0-0.5-0.2-0.4-0.3c0-0.1,0.3-0.2,0.5-0.2l0.6,0.1
					c0.3,0,0.5,0.2,0.4,0.3C207.5,438.1,207.4,438.1,207.2,438.2"/>
			</g>
			<g>
				<path fill="#231F20" d="M209.1,436.1c-0.2,0-0.3,0-0.5-0.1l-0.4-0.2c-0.2-0.1-0.2-0.2-0.1-0.3c0.2-0.1,0.5-0.1,0.7,0l0.4,0.2
					c0.2,0.1,0.2,0.2,0.1,0.3C209.2,436.1,209.1,436.1,209.1,436.1"/>
			</g>
			<g>
				<path fill="#231F20" d="M223.2,442.8c-0.2,0-0.3,0-0.5-0.1l-0.5-0.2c-0.2-0.1-0.2-0.2-0.1-0.3c0.2-0.1,0.5-0.1,0.7,0l0.5,0.2
					c0.2,0.1,0.2,0.2,0.1,0.3C223.3,442.8,223.2,442.8,223.2,442.8"/>
			</g>
			<g>
				<path fill="#231F20" d="M210.1,442.7c-0.2,0-0.3,0-0.5-0.1s-0.2-0.2-0.1-0.3l0.4-0.2c0.2-0.1,0.5-0.1,0.7,0s0.2,0.2,0.1,0.3
					l-0.4,0.2C210.2,442.7,210.1,442.7,210.1,442.7"/>
			</g>
			<g>
				<path fill="#231F20" d="M221.4,436.2c-0.2,0-0.3,0-0.5-0.1s-0.2-0.2-0.1-0.3l0.4-0.2c0.2-0.1,0.5-0.1,0.7,0s0.2,0.2,0.1,0.3
					l-0.4,0.2C221.5,436.2,221.4,436.2,221.4,436.2"/>
			</g>
			<g>
				<path fill="#231F20" d="M216,439.6c-0.5,0.1-1-0.1-1.2-0.3l-2.8-3.8c-0.2-0.2,0-0.5,0.5-0.6s1,0.1,1.2,0.3l2.8,3.8
					C216.7,439.3,216.5,439.5,216,439.6z"/>
			</g>
			<g>
				<path fill="#231F20" d="M221,440.8c-0.2,0-0.4,0-0.6,0l-5-1.2c-0.5-0.1-0.7-0.4-0.6-0.6c0.2-0.2,0.7-0.3,1.2-0.2l5,1.2
					c0.5,0.1,0.7,0.4,0.6,0.6C221.5,440.7,221.3,440.8,221,440.8z"/>
			</g>
			<g>
				<path fill="#FFFFFF" d="M217.3,440.5c0.6-0.2,0.5-0.4,0.2-0.7c-0.2-0.2-0.4-0.5-1.1-0.5L217.3,440.5z M214.2,437.5
					c-0.4,0.1-0.5,0.3-0.2,0.7c0.2,0.3,0.3,0.4,1,0.5L214.2,437.5z M214.8,440.3c0.5,0.2,0.9,0.3,1.6,0.2l-0.9-1.3
					c-1.5,0-2.1-0.3-2.5-0.9c-0.5-0.7-0.2-1.2,0.8-1.4l-0.3-0.4l0.8-0.1l0.3,0.4c0.7-0.1,1.2,0,1.9,0.2l-0.3,0.5
					c-0.5-0.1-0.8-0.2-1.2-0.1l0.9,1.2c1.5,0,2.2,0.3,2.6,0.9c0.5,0.6,0.2,1.2-0.9,1.4l0.5,0.6l-0.8,0.1l-0.5-0.6
					c-0.8,0.1-1.6,0-2.4-0.3L214.8,440.3z"/>
			</g>
			<path fill="#808080" d="M208.8,434.2c0,0,7-2.4,14.7,1.4c7.6,3.8,1.9,7.3,1.9,7.3s4.7-3.5-2.2-7
				C216.4,432.4,208.8,434.2,208.8,434.2z"/>
		</g>
	</g>
</g>
</svg>
