<?xml version="1.0" encoding="utf-8"?>
<!-- Generator: Adobe Illustrator 18.0.0, SVG Export Plug-In . SVG Version: 6.00 Build 0)  -->
<!DOCTYPE svg PUBLIC "-//W3C//DTD SVG 1.1//EN" "http://www.w3.org/Graphics/SVG/1.1/DTD/svg11.dtd">
<svg version="1.1" id="Layer_1" xmlns="http://www.w3.org/2000/svg" xmlns:xlink="http://www.w3.org/1999/xlink" x="0px" y="0px"
	 width="64px" height="35.3px" viewBox="170.3 297.3 64 35.3" enable-background="new 170.3 297.3 64 35.3" xml:space="preserve">
<g>
	<g>
		
			<linearGradient id="SVGID_1_" gradientUnits="userSpaceOnUse" x1="919.7949" y1="-546.4659" x2="919.7949" y2="-616.2692" gradientTransform="matrix(0.227 0 0 -0.227 5.654515e-02 179.7833)">
			<stop  offset="6.804837e-02" style="stop-color:#FFFFFF"/>
			<stop  offset="1" style="stop-color:#29ABE2"/>
		</linearGradient>
		<path fill="url(#SVGID_1_)" d="M215.4,320.8h-13.1c-0.6,0-1-0.5-1-1v-12.3c0-0.6,0.5-1,1-1h13.1c0.6,0,1,0.5,1,1v12.3
			C216.4,320.3,215.9,320.8,215.4,320.8z"/>
		<path fill="#231F20" d="M208.7,320.3h2c1.7,0,3.5,0,5.2,0h0.1l0,0c0-4.2,0-8.4,0-12.5c0-0.7-0.4-0.9-0.9-0.9c-4.2,0-8.4,0-12.6,0
			c-0.8,0-0.9,0.4-0.9,0.9c0,4,0,8.1,0,12.1v0.4v0.1c0,0,0.1,0,0.2,0c1.8,0,3.5,0,5.3,0L208.7,320.3L208.7,320.3z M212.6,321.5
			c-0.7,0-1.3,0-2,0H207c-1.8,0-3.5,0-5.3,0c-0.8,0-1.3-0.2-1.3-1.3v-0.4c0-4,0-8.1,0-12.1c0-1.3,0.8-2.1,2.1-2.1
			c4.2,0,8.4,0,12.6,0c1.3,0,2.1,0.8,2.1,2.1c0,4.1,0,8.3,0,12.5c0,1.1-0.6,1.3-1.2,1.3C214.8,321.5,213.7,321.5,212.6,321.5"/>
		<path fill="#231F20" d="M222.5,315c0.8,0,1.6,0,2.4,0c0.2,0,0.4-0.1,0.5-0.2s0-0.4-0.1-0.6c-0.6-0.9-1.2-1.8-1.8-2.7
			c-0.2-0.2-0.4-0.4-0.6-0.4c-0.9,0-1.8,0-2.7,0c-0.5,0-0.6,0.1-0.6,0.6c0,0.9,0,1.7,0,2.6c0,0.5,0.1,0.6,0.6,0.6
			C220.9,315.1,221.7,315,222.5,315 M228.1,322.1C228.4,322.1,227.8,322.1,228.1,322.1c0.4,0,0.5,0.2,0.5,0.5c0,0.4,0,0.7,0,1.1
			s-0.1,0.6-0.5,0.6c-1,0-1.1,0-2.1,0c-0.2,0-0.2-0.1-0.3-0.3c-0.4-1.5-1.3-2.4-2.7-2.7c-1.6-0.3-3.4,0.9-3.8,2.6
			c-0.1,0.3-0.1,0.4-0.4,0.4c-2,0-4,0-6,0c-0.2,0-0.3,0-0.4-0.3c-0.1-0.7-0.5-1.3-1-1.8h6.3v-0.5c0-3.9,0-7.8,0-11.7
			c0-0.8,0.3-1.1,1.1-1.1c1.2,0,2.3,0,3.5,0s2.2,0.5,2.9,1.6c0.8,1.2,1.6,2.5,2.4,3.7c0.4,0.7,0.6,1.4,0.6,2.2c0,1.8,0,3.5,0,5.3
			L228.1,322.1L228.1,322.1z"/>
		<path fill="#231F20" d="M210.4,324.8c0-0.7-0.6-1.3-1.2-1.3c-0.7,0-1.3,0.6-1.3,1.4c0,0.7,0.6,1.3,1.2,1.3
			C209.9,326.2,210.4,325.5,210.4,324.8 M206.7,324.8c0-1.5,1.1-2.7,2.5-2.7s2.5,1.2,2.5,2.7s-1.1,2.7-2.5,2.7
			S206.7,326.3,206.7,324.8"/>
		<path fill="#231F20" d="M223.7,324.8c0-0.7-0.5-1.3-1.2-1.4c-0.7,0-1.3,0.6-1.3,1.3c0,0.7,0.6,1.4,1.3,1.4
			C223.1,326.2,223.7,325.5,223.7,324.8 M219.9,324.8c0-1.5,1.1-2.7,2.5-2.7s2.5,1.2,2.5,2.7s-1.2,2.7-2.5,2.7
			C221.1,327.5,219.9,326.3,219.9,324.8"/>
		<path fill="#231F20" d="M206.9,322.1c-0.3,0.5-0.5,0.9-0.8,1.4c-0.1,0.1-0.1,0.2-0.1,0.4c0,0.3-0.2,0.4-0.5,0.4
			c-1.3,0-2.5,0-3.8,0c-0.7,0-0.7-0.1-0.7-0.8c0-0.3,0-0.6,0-0.9s0.2-0.5,0.5-0.5C203.2,322.1,205,322.1,206.9,322.1"/>
		<path fill="#B3B3B3" d="M210.4,324.8c0,0.7-0.6,1.4-1.3,1.4s-1.2-0.6-1.2-1.3c0-0.8,0.5-1.4,1.3-1.4
			C209.9,323.5,210.4,324,210.4,324.8"/>
		<path fill="#B3B3B3" d="M223.7,324.8c0,0.7-0.6,1.3-1.2,1.3c-0.7,0-1.3-0.6-1.3-1.4c0-0.7,0.6-1.3,1.3-1.3
			C223.2,323.5,223.7,324.1,223.7,324.8"/>
		<path fill="#FFFFFF" d="M209.3,315.9c0.6-0.2,0.7-0.6,0.7-1.1s0-0.8-0.7-1V315.9z M208.5,310.6c-0.4,0.1-0.6,0.4-0.6,1.1
			c0,0.5,0,0.7,0.6,0.9V310.6z M207.3,315.2c0.3,0.4,0.6,0.7,1.2,0.7v-2.2c-1.2-0.3-1.6-1-1.6-2c0-1.2,0.5-1.9,1.6-2V309h0.8v0.7
			c0.7,0,1,0.2,1.5,0.7l-0.6,0.7c-0.3-0.3-0.6-0.4-1-0.5v2.1c1.3,0.2,1.7,1,1.7,2.1s-0.6,1.9-1.7,2.1v1.1h-0.8v-1.1
			c-0.7,0-1.4-0.4-1.9-1L207.3,315.2z"/>
		<g>
			<path fill="#E6E6E6" d="M198.5,321.4c0.3,0,0.6,0.3,0.7,0.6h0.1c0.2,0,0.5,0.2,0.5,0.5s-0.2,0.5-0.5,0.5c-0.2,0-0.4-0.1-0.4-0.3
				c-0.1,0.1-0.2,0.1-0.4,0.1c-0.4,0-0.7-0.3-0.7-0.7C197.9,321.7,198.2,321.4,198.5,321.4z"/>
			<path fill="#E6E6E6" d="M195.3,321.4c0.1,0,0.1,0,0.2,0c0.1-0.2,0.4-0.4,0.7-0.4c0.4,0,0.7,0.3,0.7,0.7l0,0
				c0.2,0.1,0.5,0.3,0.5,0.6c0,0.3-0.2,0.6-0.6,0.6c-0.2,0-0.3-0.1-0.4-0.2c-0.1,0.5-0.5,0.8-1,0.8c-0.6,0-1.1-0.5-1.1-1.1
				S194.8,321.4,195.3,321.4z"/>
			<path fill="#E6E6E6" d="M190.7,319.4c0.1,0,0.3,0,0.4,0.1c0.1-0.8,0.7-1.4,1.5-1.4s1.5,0.7,1.5,1.5c0,0.6-0.4,1.1-0.9,1.4
				c0.1,0.2,0.2,0.4,0.2,0.6c0,0.6-0.5,1-1,1c-0.6,0-1-0.5-1-1l0,0c-0.2,0.2-0.5,0.2-0.7,0.2c-0.7,0-1.2-0.5-1.2-1.2
				S190,319.4,190.7,319.4z"/>
			<path fill="#E6E6E6" d="M179.8,316.9c0.1,0,0.1,0,0.2,0c0.1-0.2,0.4-0.4,0.7-0.4c0.4,0,0.7,0.3,0.7,0.7l0,0
				c0.2,0.1,0.5,0.3,0.5,0.6c0,0.3-0.2,0.6-0.6,0.6c-0.2,0-0.3-0.1-0.4-0.2c-0.1,0.5-0.5,0.8-1,0.8c-0.6,0-1.1-0.5-1.1-1.1
				C178.7,317.4,179.2,316.9,179.8,316.9z"/>
			<path fill="#E6E6E6" d="M175.1,314.9c0.1,0,0.3,0,0.4,0.1c0.1-0.8,0.7-1.4,1.5-1.4s1.5,0.7,1.5,1.5c0,0.6-0.4,1.1-0.9,1.4
				c0.1,0.2,0.2,0.4,0.2,0.6c0,0.6-0.5,1-1,1c-0.6,0-1-0.5-1-1l0,0c-0.2,0.2-0.5,0.2-0.7,0.2c-0.7,0-1.2-0.5-1.2-1.2
				C174,315.4,174.5,314.9,175.1,314.9z"/>
			<path fill="#E6E6E6" d="M183.4,317c0.3,0,0.5,0.1,0.7,0.2c0.1-1.2,1.1-2.1,2.3-2.1s2.3,1,2.3,2.3c0,0.9-0.5,1.7-1.3,2.1
				c0.2,0.2,0.4,0.5,0.4,0.8c0,0.6-0.5,1-1,1s-1-0.5-1-1c0-0.2,0.1-0.5,0.2-0.6c-0.5-0.1-1-0.4-1.3-0.9c-0.2,0.4-0.6,0.7-1.1,0.7
				c-0.7,0-1.2-0.6-1.2-1.2S182.7,317,183.4,317z"/>
			<circle fill="#E6E6E6" cx="182.8" cy="315" r="1.2"/>
		</g>
	</g>
</g>
</svg>
