<?xml version="1.0" encoding="utf-8"?>
<!-- Generator: Adobe Illustrator 18.0.0, SVG Export Plug-In . SVG Version: 6.00 Build 0)  -->
<!DOCTYPE svg PUBLIC "-//W3C//DTD SVG 1.1//EN" "http://www.w3.org/Graphics/SVG/1.1/DTD/svg11.dtd">
<svg version="1.1" id="Layer_1" xmlns="http://www.w3.org/2000/svg" xmlns:xlink="http://www.w3.org/1999/xlink" x="0px" y="0px"
	 width="143px" height="60.7px" viewBox="0 298 143 60.7" enable-background="new 0 298 143 60.7" xml:space="preserve">
<g>
	<g>
		
			<linearGradient id="SVGID_1_" gradientUnits="userSpaceOnUse" x1="444.6044" y1="-653.1443" x2="444.6044" y2="-722.9475" gradientTransform="matrix(-0.227 0 0 -0.227 140.2752 179.7833)">
			<stop  offset="6.804837e-02" style="stop-color:#FFFFFF"/>
			<stop  offset="1" style="stop-color:#29ABE2"/>
		</linearGradient>
		<path fill="url(#SVGID_1_)" d="M32.8,345h13.1c0.6,0,1-0.5,1-1v-12.3c0-0.6-0.5-1-1-1H32.8c-0.6,0-1,0.5-1,1V344
			C31.8,344.5,32.2,345,32.8,345z"/>
		<path fill="#231F20" d="M41.2,344.6c1.8,0,3.5,0,5.3,0c0.1,0,0.1,0,0.2,0c0,0,0,0,0-0.1v-0.4c0-4,0-8.1,0-12.1
			c0-0.5-0.1-0.9-0.9-0.9c-4.2,0-8.4,0-12.6,0c-0.6,0-0.9,0.2-0.9,0.9c0,4.1,0,8.3,0,12.5l0,0h0.1c1.7,0,3.5,0,5.2,0h2L41.2,344.6
			L41.2,344.6z M35.5,345.8c-1.1,0-2.2,0-3.2,0c-0.6,0-1.2-0.2-1.2-1.3c0-4.2,0-8.4,0-12.5c0-1.3,0.8-2.1,2.1-2.1
			c4.2,0,8.4,0,12.6,0c1.3,0,2.1,0.8,2.1,2.1c0,4,0,8.1,0,12.1v0.4c0,1.1-0.5,1.3-1.3,1.3c-1.8,0-3.5,0-5.3,0h-3.7
			C36.8,345.8,36.2,345.8,35.5,345.8"/>
		<path fill="#231F20" d="M25.7,339.2c0.8,0,1.6,0,2.3,0c0.5,0,0.6-0.1,0.6-0.6c0-0.9,0-1.7,0-2.6c0-0.5-0.1-0.6-0.6-0.6
			c-0.9,0-1.8,0-2.7,0c-0.3,0-0.5,0.1-0.6,0.4c-0.6,0.9-1.2,1.8-1.8,2.7c-0.1,0.2-0.2,0.4-0.1,0.6s0.3,0.2,0.5,0.2
			C24.1,339.3,24.9,339.2,25.7,339.2 M20.1,345.9c0-1.8,0-3.5,0-5.3c0-0.8,0.2-1.5,0.6-2.2c0.8-1.2,1.6-2.5,2.4-3.7
			c0.7-1.1,1.7-1.6,2.9-1.6s2.3,0,3.5,0c0.8,0,1.1,0.3,1.1,1.1c0,3.9,0,7.8,0,11.7v0.5h6.3c-0.5,0.5-0.9,1.1-1,1.8
			c0,0.3-0.2,0.3-0.4,0.3c-2,0-4,0-6,0c-0.3,0-0.4-0.1-0.4-0.4c-0.3-1.7-2.1-3-3.8-2.6c-1.4,0.3-2.3,1.2-2.7,2.7
			c0,0.2-0.1,0.3-0.3,0.3c-1,0-1.1,0-2.1,0c-0.4,0-0.5-0.2-0.5-0.6s0-0.7,0-1.1s0.1-0.5,0.5-0.5c0.3,0-0.3,0,0,0L20.1,345.9
			L20.1,345.9z"/>
		<path fill="#231F20" d="M37.8,349c0,0.7,0.6,1.4,1.3,1.4s1.2-0.6,1.2-1.3c0-0.8-0.5-1.4-1.3-1.4C38.3,347.7,37.8,348.3,37.8,349
			 M41.5,349c0,1.5-1.2,2.7-2.5,2.7c-1.4,0-2.5-1.2-2.5-2.7s1.1-2.7,2.5-2.7S41.5,347.5,41.5,349"/>
		<path fill="#231F20" d="M24.5,349c0,0.7,0.6,1.3,1.2,1.3c0.7,0,1.3-0.6,1.3-1.4s-0.6-1.3-1.3-1.3C25,347.7,24.5,348.3,24.5,349
			 M28.2,349c0,1.5-1.1,2.7-2.5,2.7s-2.5-1.2-2.5-2.7s1.1-2.7,2.5-2.7S28.3,347.5,28.2,349"/>
		<path fill="#231F20" d="M41.3,346.3c0.3,0.5,0.5,0.9,0.8,1.4c0.1,0.1,0.1,0.2,0.1,0.4c0,0.3,0.2,0.4,0.5,0.4c1.3,0,2.5,0,3.8,0
			c0.7,0,0.7-0.1,0.7-0.8c0-0.3,0-0.6,0-0.9s-0.2-0.5-0.5-0.5C45,346.3,43.2,346.3,41.3,346.3"/>
		<path fill="#B3B3B3" d="M37.8,349c0,0.7,0.6,1.4,1.3,1.4s1.2-0.6,1.2-1.3c0-0.8-0.5-1.4-1.3-1.4C38.3,347.7,37.8,348.3,37.8,349"
			/>
		<path fill="#B3B3B3" d="M24.5,349c0,0.7,0.6,1.3,1.2,1.3c0.7,0,1.3-0.6,1.3-1.4s-0.6-1.3-1.3-1.3C25,347.7,24.5,348.3,24.5,349"/>
		<path fill="#FFFFFF" d="M39.8,340.1c0.6-0.2,0.7-0.6,0.7-1.1s0-0.8-0.7-1V340.1z M39,334.8c-0.4,0.1-0.6,0.4-0.6,1.1
			c0,0.5,0,0.7,0.6,0.9V334.8z M37.8,339.4c0.3,0.4,0.6,0.7,1.2,0.7v-2.2c-1.2-0.3-1.6-1-1.6-2c0-1.2,0.5-1.9,1.6-2v-0.7h0.8v0.7
			c0.7,0,1,0.2,1.5,0.7l-0.6,0.7c-0.3-0.3-0.6-0.4-1-0.5v2.1c1.3,0.2,1.7,1,1.7,2.1s-0.6,1.9-1.7,2.1v1.1h-0.8v-1.1
			c-0.7,0-1.4-0.4-1.9-1L37.8,339.4z"/>
		<g>
			<path fill="#E6E6E6" d="M49.6,345.6c-0.3,0-0.6,0.3-0.7,0.6h-0.1c-0.2,0-0.5,0.2-0.5,0.5s0.2,0.5,0.5,0.5c0.2,0,0.4-0.1,0.4-0.3
				c0.1,0.1,0.2,0.1,0.4,0.1c0.4,0,0.7-0.3,0.7-0.7S50,345.6,49.6,345.6z"/>
			<path fill="#E6E6E6" d="M52.8,345.6c-0.1,0-0.1,0-0.2,0c-0.1-0.2-0.4-0.4-0.7-0.4c-0.4,0-0.7,0.3-0.7,0.7l0,0
				c-0.2,0.1-0.5,0.3-0.5,0.6s0.2,0.6,0.6,0.6c0.2,0,0.3-0.1,0.4-0.2c0.1,0.5,0.5,0.8,1,0.8c0.6,0,1.1-0.5,1.1-1.1
				C53.9,346.1,53.4,345.6,52.8,345.6z"/>
			<path fill="#E6E6E6" d="M57.5,343.6c-0.1,0-0.3,0-0.4,0.1c-0.1-0.8-0.7-1.4-1.5-1.4s-1.5,0.7-1.5,1.5c0,0.6,0.4,1.1,0.9,1.4
				c-0.1,0.2-0.2,0.4-0.2,0.6c0,0.6,0.5,1,1,1s1-0.5,1-1l0,0c0.2,0.2,0.5,0.2,0.7,0.2c0.7,0,1.2-0.5,1.2-1.2S58.1,343.6,57.5,343.6z
				"/>
			<path fill="#E6E6E6" d="M68.4,341.1c-0.1,0-0.1,0-0.2,0c-0.1-0.2-0.4-0.4-0.7-0.4c-0.4,0-0.7,0.3-0.7,0.7l0,0
				c-0.2,0.1-0.5,0.3-0.5,0.6s0.2,0.6,0.6,0.6c0.2,0,0.3-0.1,0.4-0.2c0.1,0.5,0.5,0.8,1,0.8c0.6,0,1.1-0.5,1.1-1.1
				C69.4,341.6,69,341.1,68.4,341.1z"/>
			<path fill="#E6E6E6" d="M73,339.1c-0.1,0-0.3,0-0.4,0.1c-0.1-0.8-0.7-1.4-1.5-1.4s-1.5,0.7-1.5,1.5c0,0.6,0.4,1.1,0.9,1.4
				c-0.1,0.2-0.2,0.4-0.2,0.6c0,0.6,0.5,1,1,1c0.6,0,1-0.5,1-1l0,0c0.2,0.2,0.5,0.2,0.7,0.2c0.7,0,1.2-0.5,1.2-1.2
				S73.7,339.1,73,339.1z"/>
			<path fill="#E6E6E6" d="M64.8,341.2c-0.3,0-0.5,0.1-0.7,0.2c-0.1-1.2-1.1-2.1-2.3-2.1s-2.3,1-2.3,2.3c0,0.9,0.5,1.7,1.3,2.1
				c-0.2,0.2-0.4,0.5-0.4,0.8c0,0.6,0.5,1,1,1s1-0.5,1-1c0-0.2-0.1-0.5-0.2-0.6c0.5-0.1,1-0.4,1.3-0.9c0.2,0.4,0.6,0.7,1.1,0.7
				c0.7,0,1.2-0.6,1.2-1.2S65.5,341.2,64.8,341.2z"/>
			<circle fill="#E6E6E6" cx="65.4" cy="339.2" r="1.2"/>
		</g>
	</g>
	<g>
		
			<linearGradient id="SVGID_2_" gradientUnits="userSpaceOnUse" x1="339.6187" y1="-546.4659" x2="339.6187" y2="-616.2692" gradientTransform="matrix(0.227 0 0 -0.227 5.654908e-02 179.7833)">
			<stop  offset="6.804837e-02" style="stop-color:#FFFFFF"/>
			<stop  offset="1" style="stop-color:#29ABE2"/>
		</linearGradient>
		<path fill="url(#SVGID_2_)" d="M83.7,320.8H70.6c-0.6,0-1-0.5-1-1v-12.3c0-0.6,0.5-1,1-1h13.1c0.6,0,1,0.5,1,1v12.3
			C84.7,320.3,84.3,320.8,83.7,320.8z"/>
		<path fill="#231F20" d="M77.1,320.3h2c1.7,0,3.5,0,5.2,0h0.1l0,0c0-4.2,0-8.4,0-12.5c0-0.7-0.4-0.9-0.9-0.9c-4.2,0-8.4,0-12.6,0
			c-0.8,0-0.9,0.4-0.9,0.9c0,4,0,8.1,0,12.1v0.4v0.1c0,0,0.1,0,0.2,0c1.8,0,3.5,0,5.3,0L77.1,320.3L77.1,320.3z M81,321.5
			c-0.7,0-1.3,0-2,0h-3.7c-1.8,0-3.5,0-5.3,0c-0.8,0-1.3-0.2-1.3-1.3v-0.4c0-4,0-8.1,0-12.1c0-1.3,0.8-2.1,2.1-2.1
			c4.2,0,8.4,0,12.6,0c1.3,0,2.1,0.8,2.1,2.1c0,4.1,0,8.3,0,12.5c0,1.1-0.6,1.3-1.2,1.3C83.1,321.5,82.1,321.5,81,321.5"/>
		<path fill="#231F20" d="M90.8,315c0.8,0,1.6,0,2.4,0c0.2,0,0.4-0.1,0.5-0.2s0-0.4-0.1-0.6c-0.6-0.9-1.2-1.8-1.8-2.7
			c-0.2-0.2-0.4-0.4-0.6-0.4c-0.9,0-1.8,0-2.7,0c-0.5,0-0.6,0.1-0.6,0.6c0,0.9,0,1.7,0,2.6c0,0.5,0.1,0.6,0.6,0.6
			C89.2,315.1,90,315,90.8,315 M96.4,322.1C96.7,322.1,96.1,322.1,96.4,322.1c0.4,0,0.5,0.2,0.5,0.5c0,0.4,0,0.7,0,1.1
			s-0.1,0.6-0.5,0.6c-1,0-1.1,0-2.1,0c-0.2,0-0.2-0.1-0.3-0.3c-0.4-1.5-1.3-2.4-2.7-2.7c-1.6-0.3-3.4,0.9-3.8,2.6
			c-0.1,0.3-0.1,0.4-0.4,0.4c-2,0-4,0-6,0c-0.2,0-0.3,0-0.4-0.3c-0.1-0.7-0.5-1.3-1-1.8H86v-0.5c0-3.9,0-7.8,0-11.7
			c0-0.8,0.3-1.1,1.1-1.1c1.2,0,2.3,0,3.5,0s2.2,0.5,2.9,1.6c0.8,1.2,1.6,2.5,2.4,3.7c0.4,0.7,0.6,1.4,0.6,2.2c0,1.8,0,3.5,0,5.3
			L96.4,322.1L96.4,322.1z"/>
		<path fill="#231F20" d="M78.8,324.8c0-0.7-0.6-1.3-1.2-1.3c-0.7,0-1.3,0.6-1.3,1.4c0,0.7,0.6,1.3,1.2,1.3
			C78.2,326.2,78.8,325.5,78.8,324.8 M75,324.8c0-1.5,1.1-2.7,2.5-2.7s2.5,1.2,2.5,2.7s-1.1,2.7-2.5,2.7S75,326.3,75,324.8"/>
		<path fill="#231F20" d="M92.1,324.8c0-0.7-0.5-1.3-1.2-1.4c-0.7,0-1.3,0.6-1.3,1.3c0,0.7,0.6,1.4,1.3,1.4
			C91.5,326.2,92,325.5,92.1,324.8 M88.3,324.8c0-1.5,1.1-2.7,2.5-2.7s2.5,1.2,2.5,2.7s-1.2,2.7-2.5,2.7
			C89.4,327.5,88.3,326.3,88.3,324.8"/>
		<path fill="#231F20" d="M75.2,322.1c-0.3,0.5-0.5,0.9-0.8,1.4c-0.1,0.1-0.1,0.2-0.1,0.4c0,0.3-0.2,0.4-0.5,0.4c-1.3,0-2.5,0-3.8,0
			c-0.7,0-0.7-0.1-0.7-0.8c0-0.3,0-0.6,0-0.9s0.2-0.5,0.5-0.5C71.5,322.1,73.4,322.1,75.2,322.1"/>
		<path fill="#B3B3B3" d="M78.8,324.8c0,0.7-0.6,1.4-1.3,1.4c-0.7,0-1.2-0.6-1.2-1.3c0-0.8,0.5-1.4,1.3-1.4
			C78.2,323.5,78.8,324,78.8,324.8"/>
		<path fill="#B3B3B3" d="M92.1,324.8c0,0.7-0.6,1.3-1.2,1.3c-0.7,0-1.3-0.6-1.3-1.4c0-0.7,0.6-1.3,1.3-1.3
			C91.5,323.5,92.1,324.1,92.1,324.8"/>
		<path fill="#FFFFFF" d="M77.6,315.9c0.6-0.2,0.7-0.6,0.7-1.1s0-0.8-0.7-1V315.9z M76.8,310.6c-0.4,0.1-0.6,0.4-0.6,1.1
			c0,0.5,0,0.7,0.6,0.9V310.6z M75.6,315.2c0.3,0.4,0.6,0.7,1.2,0.7v-2.2c-1.2-0.3-1.6-1-1.6-2c0-1.2,0.5-1.9,1.6-2V309h0.8v0.7
			c0.7,0,1,0.2,1.5,0.7l-0.6,0.7c-0.3-0.3-0.6-0.4-1-0.5v2.1c1.3,0.2,1.7,1,1.7,2.1s-0.6,1.9-1.7,2.1v1.1h-0.8v-1.1
			c-0.7,0-1.4-0.4-1.9-1L75.6,315.2z"/>
		<g>
			<path fill="#E6E6E6" d="M66.9,321.4c0.3,0,0.6,0.3,0.7,0.6h0.1c0.2,0,0.5,0.2,0.5,0.5S68,323,67.7,323c-0.2,0-0.4-0.1-0.4-0.3
				c-0.1,0.1-0.2,0.1-0.4,0.1c-0.4,0-0.7-0.3-0.7-0.7C66.3,321.7,66.5,321.4,66.9,321.4z"/>
			<path fill="#E6E6E6" d="M63.7,321.4c0.1,0,0.1,0,0.2,0c0.1-0.2,0.4-0.4,0.7-0.4c0.4,0,0.7,0.3,0.7,0.7l0,0
				c0.2,0.1,0.5,0.3,0.5,0.6c0,0.3-0.2,0.6-0.6,0.6c-0.2,0-0.3-0.1-0.4-0.2c-0.1,0.5-0.5,0.8-1,0.8c-0.6,0-1.1-0.5-1.1-1.1
				S63.1,321.4,63.7,321.4z"/>
			<path fill="#E6E6E6" d="M59,319.4c0.1,0,0.3,0,0.4,0.1c0.1-0.8,0.7-1.4,1.5-1.4s1.5,0.7,1.5,1.5c0,0.6-0.4,1.1-0.9,1.4
				c0.1,0.2,0.2,0.4,0.2,0.6c0,0.6-0.5,1-1,1c-0.6,0-1-0.5-1-1l0,0c-0.2,0.2-0.5,0.2-0.7,0.2c-0.7,0-1.2-0.5-1.2-1.2
				C57.9,319.9,58.4,319.4,59,319.4z"/>
			<path fill="#E6E6E6" d="M48.1,316.9c0.1,0,0.1,0,0.2,0c0.1-0.2,0.4-0.4,0.7-0.4c0.4,0,0.7,0.3,0.7,0.7l0,0
				c0.2,0.1,0.5,0.3,0.5,0.6c0,0.3-0.2,0.6-0.6,0.6c-0.2,0-0.3-0.1-0.4-0.2c-0.1,0.5-0.5,0.8-1,0.8c-0.6,0-1.1-0.5-1.1-1.1
				C47.1,317.4,47.5,316.9,48.1,316.9z"/>
			<path fill="#E6E6E6" d="M43.5,314.9c0.1,0,0.3,0,0.4,0.1c0.1-0.8,0.7-1.4,1.5-1.4s1.5,0.7,1.5,1.5c0,0.6-0.4,1.1-0.9,1.4
				c0.1,0.2,0.2,0.4,0.2,0.6c0,0.6-0.5,1-1,1s-1-0.5-1-1l0,0c-0.2,0.2-0.5,0.2-0.7,0.2c-0.7,0-1.2-0.5-1.2-1.2
				S42.8,314.9,43.5,314.9z"/>
			<path fill="#E6E6E6" d="M51.7,317c0.3,0,0.5,0.1,0.7,0.2c0.1-1.2,1.1-2.1,2.3-2.1s2.3,1,2.3,2.3c0,0.9-0.5,1.7-1.3,2.1
				c0.2,0.2,0.4,0.5,0.4,0.8c0,0.6-0.5,1-1,1c-0.6,0-1-0.5-1-1c0-0.2,0.1-0.5,0.2-0.6c-0.5-0.1-1-0.4-1.3-0.9
				c-0.2,0.4-0.6,0.7-1.1,0.7c-0.7,0-1.2-0.6-1.2-1.2S51,317,51.7,317z"/>
			<circle fill="#E6E6E6" cx="51.2" cy="315" r="1.2"/>
		</g>
	</g>
	<g>
		
			<linearGradient id="SVGID_3_" gradientUnits="userSpaceOnUse" x1="196.8875" y1="-545.1443" x2="196.8875" y2="-614.9475" gradientTransform="matrix(0.227 0 0 -0.227 5.654908e-02 179.7833)">
			<stop  offset="6.804837e-02" style="stop-color:#FFFFFF"/>
			<stop  offset="1" style="stop-color:#29ABE2"/>
		</linearGradient>
		<path fill="url(#SVGID_3_)" d="M51.3,320.5H38.2c-0.6,0-1-0.5-1-1v-12.3c0-0.6,0.5-1,1-1h13.1c0.6,0,1,0.5,1,1v12.3
			C52.3,320,51.9,320.5,51.3,320.5z"/>
		<path fill="#231F20" d="M44.7,320h2c1.7,0,3.5,0,5.2,0H52l0,0c0-4.2,0-8.4,0-12.5c0-0.7-0.4-0.9-0.9-0.9c-4.2,0-8.4,0-12.6,0
			c-0.8,0-0.9,0.4-0.9,0.9c0,4,0,8.1,0,12.1v0.4v0.1c0,0,0.1,0,0.2,0c1.8,0,3.5,0,5.3,0L44.7,320L44.7,320z M48.6,321.2
			c-0.7,0-1.3,0-2,0h-3.7c-1.8,0-3.5,0-5.3,0c-0.8,0-1.3-0.2-1.3-1.3v-0.4c0-4,0-8.1,0-12.1c0-1.3,0.8-2.1,2.1-2.1
			c4.2,0,8.4,0,12.6,0c1.3,0,2.1,0.8,2.1,2.1c0,4.1,0,8.3,0,12.5c0,1.1-0.6,1.3-1.2,1.3C50.7,321.2,49.7,321.2,48.6,321.2"/>
		<path fill="#231F20" d="M58.4,314.7c0.8,0,1.6,0,2.4,0c0.2,0,0.4-0.1,0.5-0.2s0-0.4-0.1-0.6c-0.6-0.9-1.2-1.8-1.8-2.7
			c-0.2-0.2-0.4-0.4-0.6-0.4c-0.9,0-1.8,0-2.7,0c-0.5,0-0.6,0.1-0.6,0.6c0,0.9,0,1.7,0,2.6c0,0.5,0.1,0.6,0.6,0.6
			C56.8,314.8,57.6,314.7,58.4,314.7 M64,321.8C64.3,321.8,63.7,321.8,64,321.8c0.4,0,0.5,0.2,0.5,0.5c0,0.4,0,0.7,0,1.1
			S64.4,324,64,324c-1,0-1.1,0-2.1,0c-0.2,0-0.2-0.1-0.3-0.3c-0.4-1.5-1.3-2.4-2.7-2.7c-1.6-0.3-3.4,0.9-3.8,2.6
			c-0.1,0.3-0.1,0.4-0.4,0.4c-2,0-4,0-6,0c-0.2,0-0.3,0-0.4-0.3c-0.1-0.7-0.5-1.3-1-1.8h6.3v-0.5c0-3.9,0-7.8,0-11.7
			c0-0.8,0.3-1.1,1.1-1.1c1.2,0,2.3,0,3.5,0s2.2,0.5,2.9,1.6c0.8,1.2,1.6,2.5,2.4,3.7c0.4,0.7,0.6,1.4,0.6,2.2c0,1.8,0,3.5,0,5.3
			L64,321.8L64,321.8z"/>
		<path fill="#231F20" d="M46.4,324.5c0-0.7-0.6-1.3-1.2-1.3c-0.7,0-1.3,0.6-1.3,1.4c0,0.7,0.6,1.3,1.2,1.3
			C45.8,325.9,46.4,325.2,46.4,324.5 M42.6,324.5c0-1.5,1.1-2.7,2.5-2.7s2.5,1.2,2.5,2.7s-1.1,2.7-2.5,2.7S42.6,326,42.6,324.5"/>
		<path fill="#231F20" d="M59.7,324.5c0-0.7-0.5-1.3-1.2-1.4c-0.7,0-1.3,0.6-1.3,1.3c0,0.7,0.6,1.4,1.3,1.4
			C59.1,325.9,59.6,325.2,59.7,324.5 M55.9,324.5c0-1.5,1.1-2.7,2.5-2.7s2.5,1.2,2.5,2.7s-1.2,2.7-2.5,2.7
			C57,327.2,55.9,326,55.9,324.5"/>
		<path fill="#231F20" d="M42.8,321.8c-0.3,0.5-0.5,0.9-0.8,1.4c-0.1,0.1-0.1,0.2-0.1,0.4c0,0.3-0.2,0.4-0.5,0.4c-1.3,0-2.5,0-3.8,0
			c-0.7,0-0.7-0.1-0.7-0.8c0-0.3,0-0.6,0-0.9s0.2-0.5,0.5-0.5C39.1,321.8,41,321.8,42.8,321.8"/>
		<path fill="#B3B3B3" d="M46.4,324.5c0,0.7-0.6,1.4-1.3,1.4s-1.2-0.6-1.2-1.3c0-0.8,0.5-1.4,1.3-1.4
			C45.8,323.2,46.4,323.7,46.4,324.5"/>
		<path fill="#B3B3B3" d="M59.7,324.5c0,0.7-0.6,1.3-1.2,1.3c-0.7,0-1.3-0.6-1.3-1.4c0-0.7,0.6-1.3,1.3-1.3
			C59.1,323.2,59.7,323.8,59.7,324.5"/>
		<path fill="#FFFFFF" d="M45.2,315.6c0.6-0.2,0.7-0.6,0.7-1.1s0-0.8-0.7-1V315.6z M44.4,310.3c-0.4,0.1-0.6,0.4-0.6,1.1
			c0,0.5,0,0.7,0.6,0.9V310.3z M43.2,314.9c0.3,0.4,0.6,0.7,1.2,0.7v-2.2c-1.2-0.3-1.6-1-1.6-2c0-1.2,0.5-1.9,1.6-2v-0.7h0.8v0.7
			c0.7,0,1,0.2,1.5,0.7l-0.6,0.7c-0.3-0.3-0.6-0.4-1-0.5v2.1c1.3,0.2,1.7,1,1.7,2.1s-0.6,1.9-1.7,2.1v1.1h-0.8v-1.1
			c-0.7,0-1.4-0.4-1.9-1L43.2,314.9z"/>
		<g>
			<path fill="#E6E6E6" d="M34.5,321.1c0.3,0,0.6,0.3,0.7,0.6h0.1c0.2,0,0.5,0.2,0.5,0.5s-0.2,0.5-0.5,0.5c-0.2,0-0.4-0.1-0.4-0.3
				c-0.1,0.1-0.2,0.1-0.4,0.1c-0.4,0-0.7-0.3-0.7-0.7C33.9,321.4,34.1,321.1,34.5,321.1z"/>
			<path fill="#E6E6E6" d="M31.3,321.1c0.1,0,0.1,0,0.2,0c0.1-0.2,0.4-0.4,0.7-0.4c0.4,0,0.7,0.3,0.7,0.7l0,0
				c0.2,0.1,0.5,0.3,0.5,0.6s-0.2,0.6-0.6,0.6c-0.2,0-0.3-0.1-0.4-0.2c-0.1,0.5-0.5,0.8-1,0.8c-0.6,0-1.1-0.5-1.1-1.1
				C30.3,321.5,30.7,321.1,31.3,321.1z"/>
			<path fill="#E6E6E6" d="M26.6,319.1c0.1,0,0.3,0,0.4,0.1c0.1-0.8,0.7-1.4,1.5-1.4s1.5,0.7,1.5,1.5c0,0.6-0.4,1.1-0.9,1.4
				c0.1,0.2,0.2,0.4,0.2,0.6c0,0.6-0.5,1-1,1c-0.6,0-1-0.5-1-1l0,0c-0.2,0.2-0.5,0.2-0.7,0.2c-0.7,0-1.2-0.5-1.2-1.2
				C25.5,319.6,26,319.1,26.6,319.1z"/>
			<path fill="#E6E6E6" d="M15.7,316.6c0.1,0,0.1,0,0.2,0c0.1-0.2,0.4-0.4,0.7-0.4c0.4,0,0.7,0.3,0.7,0.7l0,0
				c0.2,0.1,0.5,0.3,0.5,0.6s-0.2,0.6-0.6,0.6c-0.2,0-0.3-0.1-0.4-0.2c-0.1,0.5-0.5,0.8-1,0.8c-0.6,0-1.1-0.5-1.1-1.1
				C14.7,317.1,15.1,316.6,15.7,316.6z"/>
			<path fill="#E6E6E6" d="M11.1,314.6c0.1,0,0.3,0,0.4,0.1c0.1-0.8,0.7-1.4,1.5-1.4s1.5,0.7,1.5,1.5c0,0.6-0.4,1.1-0.9,1.4
				c0.1,0.2,0.2,0.4,0.2,0.6c0,0.6-0.5,1-1,1s-1-0.5-1-1l0,0c-0.2,0.2-0.5,0.2-0.7,0.2c-0.7,0-1.2-0.5-1.2-1.2
				S10.4,314.6,11.1,314.6z"/>
			<path fill="#E6E6E6" d="M19.3,316.7c0.3,0,0.5,0.1,0.7,0.2c0.1-1.2,1.1-2.1,2.3-2.1s2.3,1,2.3,2.3c0,0.9-0.5,1.7-1.3,2.1
				c0.2,0.2,0.4,0.5,0.4,0.8c0,0.6-0.5,1-1,1c-0.6,0-1-0.5-1-1c0-0.2,0.1-0.5,0.2-0.6c-0.5-0.1-1-0.4-1.3-0.9
				c-0.2,0.4-0.6,0.7-1.1,0.7c-0.7,0-1.2-0.6-1.2-1.2S18.6,316.7,19.3,316.7z"/>
			<circle fill="#E6E6E6" cx="18.8" cy="314.7" r="1.2"/>
		</g>
	</g>
	<g>
		
			<linearGradient id="SVGID_4_" gradientUnits="userSpaceOnUse" x1="301.8732" y1="-654.4658" x2="301.8732" y2="-724.269" gradientTransform="matrix(-0.227 0 0 -0.227 140.2752 179.7833)">
			<stop  offset="6.804837e-02" style="stop-color:#FFFFFF"/>
			<stop  offset="1" style="stop-color:#29ABE2"/>
		</linearGradient>
		<path fill="url(#SVGID_4_)" d="M65.2,345.3h13.1c0.6,0,1-0.5,1-1V332c0-0.6-0.5-1-1-1H65.2c-0.6,0-1,0.5-1,1v12.3
			C64.2,344.8,64.6,345.3,65.2,345.3z"/>
		<path fill="#231F20" d="M73.6,344.9c1.8,0,3.5,0,5.3,0c0.1,0,0.1,0,0.2,0c0,0,0,0,0-0.1v-0.4c0-4,0-8.1,0-12.1
			c0-0.5-0.1-0.9-0.9-0.9c-4.2,0-8.4,0-12.6,0c-0.6,0-0.9,0.2-0.9,0.9c0,4.1,0,8.3,0,12.5l0,0h0.1c1.7,0,3.5,0,5.2,0h2L73.6,344.9
			L73.6,344.9z M67.9,346.1c-1.1,0-2.2,0-3.2,0c-0.6,0-1.2-0.2-1.2-1.3c0-4.2,0-8.4,0-12.5c0-1.3,0.8-2.1,2.1-2.1
			c4.2,0,8.4,0,12.6,0c1.3,0,2.1,0.8,2.1,2.1c0,4,0,8.1,0,12.1v0.4c0,1.1-0.5,1.3-1.3,1.3c-1.8,0-3.5,0-5.3,0H70
			C69.2,346.1,68.6,346.1,67.9,346.1"/>
		<path fill="#231F20" d="M58.1,339.5c0.8,0,1.6,0,2.3,0c0.5,0,0.6-0.1,0.6-0.6c0-0.9,0-1.7,0-2.6c0-0.5-0.1-0.6-0.6-0.6
			c-0.9,0-1.8,0-2.7,0c-0.3,0-0.5,0.1-0.6,0.4c-0.6,0.9-1.2,1.8-1.8,2.7c-0.1,0.2-0.2,0.4-0.1,0.6s0.3,0.2,0.5,0.2
			C56.5,339.6,57.3,339.5,58.1,339.5 M52.5,346.2c0-1.8,0-3.5,0-5.3c0-0.8,0.2-1.5,0.6-2.2c0.8-1.2,1.6-2.5,2.4-3.7
			c0.7-1.1,1.7-1.6,2.9-1.6s2.3,0,3.5,0c0.8,0,1.1,0.3,1.1,1.1c0,3.9,0,7.8,0,11.7v0.5h6.3c-0.5,0.5-0.9,1.1-1,1.8
			c0,0.3-0.2,0.3-0.4,0.3c-2,0-4,0-6,0c-0.3,0-0.4-0.1-0.4-0.4c-0.3-1.7-2.1-3-3.8-2.6c-1.4,0.3-2.3,1.2-2.7,2.7
			c0,0.2-0.1,0.3-0.3,0.3c-1,0-1.1,0-2.1,0c-0.4,0-0.5-0.2-0.5-0.6s0-0.7,0-1.1s0.1-0.5,0.5-0.5c0.3,0-0.3,0,0,0L52.5,346.2
			L52.5,346.2z"/>
		<path fill="#231F20" d="M70.2,349.3c0,0.7,0.6,1.4,1.3,1.4s1.2-0.6,1.2-1.3c0-0.8-0.5-1.4-1.3-1.4C70.7,348,70.2,348.6,70.2,349.3
			 M73.9,349.3c0,1.5-1.2,2.7-2.5,2.7c-1.4,0-2.5-1.2-2.5-2.7s1.1-2.7,2.5-2.7S73.9,347.8,73.9,349.3"/>
		<path fill="#231F20" d="M56.9,349.3c0,0.7,0.6,1.3,1.2,1.3c0.7,0,1.3-0.6,1.3-1.4s-0.6-1.3-1.3-1.3
			C57.4,348,56.9,348.6,56.9,349.3 M60.6,349.3c0,1.5-1.1,2.7-2.5,2.7s-2.5-1.2-2.5-2.7s1.1-2.7,2.5-2.7
			C59.5,346.6,60.7,347.8,60.6,349.3"/>
		<path fill="#231F20" d="M73.7,346.6c0.3,0.5,0.5,0.9,0.8,1.4c0.1,0.1,0.1,0.2,0.1,0.4c0,0.3,0.2,0.4,0.5,0.4c1.3,0,2.5,0,3.8,0
			c0.7,0,0.7-0.1,0.7-0.8c0-0.3,0-0.6,0-0.9s-0.2-0.5-0.5-0.5C77.4,346.6,75.6,346.6,73.7,346.6"/>
		<path fill="#B3B3B3" d="M70.2,349.3c0,0.7,0.6,1.4,1.3,1.4s1.2-0.6,1.2-1.3c0-0.8-0.5-1.4-1.3-1.4C70.7,348,70.2,348.6,70.2,349.3
			"/>
		<path fill="#B3B3B3" d="M56.9,349.3c0,0.7,0.6,1.3,1.2,1.3c0.7,0,1.3-0.6,1.3-1.4s-0.6-1.3-1.3-1.3
			C57.4,348,56.9,348.6,56.9,349.3"/>
		<path fill="#FFFFFF" d="M72.2,340.4c0.6-0.2,0.7-0.6,0.7-1.1s0-0.8-0.7-1V340.4z M71.4,335.1c-0.4,0.1-0.6,0.4-0.6,1.1
			c0,0.5,0,0.7,0.6,0.9V335.1z M70.2,339.7c0.3,0.4,0.6,0.7,1.2,0.7v-2.2c-1.2-0.3-1.6-1-1.6-2c0-1.2,0.5-1.9,1.6-2v-0.7h0.8v0.7
			c0.7,0,1,0.2,1.5,0.7l-0.6,0.7c-0.3-0.3-0.6-0.4-1-0.5v2.1c1.3,0.2,1.7,1,1.7,2.1s-0.6,1.9-1.7,2.1v1.1h-0.8v-1.1
			c-0.7,0-1.4-0.4-1.9-1L70.2,339.7z"/>
		<g>
			<path fill="#E6E6E6" d="M82,345.9c-0.3,0-0.6,0.3-0.7,0.6h-0.1c-0.2,0-0.5,0.2-0.5,0.5s0.2,0.5,0.5,0.5c0.2,0,0.4-0.1,0.4-0.3
				c0.1,0.1,0.2,0.1,0.4,0.1c0.4,0,0.7-0.3,0.7-0.7S82.4,345.9,82,345.9z"/>
			<path fill="#E6E6E6" d="M85.2,345.9c-0.1,0-0.1,0-0.2,0c-0.1-0.2-0.4-0.4-0.7-0.4c-0.4,0-0.7,0.3-0.7,0.7l0,0
				c-0.2,0.1-0.5,0.3-0.5,0.6c0,0.3,0.2,0.6,0.6,0.6c0.2,0,0.3-0.1,0.4-0.2c0.1,0.5,0.5,0.8,1,0.8c0.6,0,1.1-0.5,1.1-1.1
				C86.3,346.4,85.8,345.9,85.2,345.9z"/>
			<path fill="#E6E6E6" d="M89.9,343.9c-0.1,0-0.3,0-0.4,0.1c-0.1-0.8-0.7-1.4-1.5-1.4s-1.5,0.7-1.5,1.5c0,0.6,0.4,1.1,0.9,1.4
				c-0.1,0.2-0.2,0.4-0.2,0.6c0,0.6,0.5,1,1,1s1-0.5,1-1l0,0c0.2,0.2,0.5,0.2,0.7,0.2c0.7,0,1.2-0.5,1.2-1.2S90.5,343.9,89.9,343.9z
				"/>
			<path fill="#E6E6E6" d="M100.8,341.4c-0.1,0-0.1,0-0.2,0c-0.1-0.2-0.4-0.4-0.7-0.4c-0.4,0-0.7,0.3-0.7,0.7l0,0
				c-0.2,0.1-0.5,0.3-0.5,0.6c0,0.3,0.2,0.6,0.6,0.6c0.2,0,0.3-0.1,0.4-0.2c0.1,0.5,0.5,0.8,1,0.8c0.6,0,1.1-0.5,1.1-1.1
				C101.8,341.9,101.4,341.4,100.8,341.4z"/>
			<path fill="#E6E6E6" d="M105.4,339.4c-0.1,0-0.3,0-0.4,0.1c-0.1-0.8-0.7-1.4-1.5-1.4s-1.5,0.7-1.5,1.5c0,0.6,0.4,1.1,0.9,1.4
				c-0.1,0.2-0.2,0.4-0.2,0.6c0,0.6,0.5,1,1,1c0.6,0,1-0.5,1-1l0,0c0.2,0.2,0.5,0.2,0.7,0.2c0.7,0,1.2-0.5,1.2-1.2
				S106.1,339.4,105.4,339.4z"/>
			<path fill="#E6E6E6" d="M97.2,341.5c-0.3,0-0.5,0.1-0.7,0.2c-0.1-1.2-1.1-2.1-2.3-2.1c-1.2,0-2.3,1-2.3,2.3
				c0,0.9,0.5,1.7,1.3,2.1c-0.2,0.2-0.4,0.5-0.4,0.8c0,0.6,0.5,1,1,1s1-0.5,1-1c0-0.2-0.1-0.5-0.2-0.6c0.5-0.1,1-0.4,1.3-0.9
				c0.2,0.4,0.6,0.7,1.1,0.7c0.7,0,1.2-0.6,1.2-1.2S97.9,341.5,97.2,341.5z"/>
			<circle fill="#E6E6E6" cx="97.8" cy="339.5" r="1.2"/>
		</g>
	</g>
	<g>
		
			<linearGradient id="SVGID_5_" gradientUnits="userSpaceOnUse" x1="153.8555" y1="-654.4658" x2="153.8555" y2="-724.269" gradientTransform="matrix(-0.227 0 0 -0.227 140.2752 179.7833)">
			<stop  offset="6.804837e-02" style="stop-color:#FFFFFF"/>
			<stop  offset="1" style="stop-color:#29ABE2"/>
		</linearGradient>
		<path fill="url(#SVGID_5_)" d="M98.8,345.3h13.1c0.6,0,1-0.5,1-1V332c0-0.6-0.5-1-1-1H98.8c-0.6,0-1,0.5-1,1v12.3
			C97.8,344.8,98.2,345.3,98.8,345.3z"/>
		<path fill="#231F20" d="M107.2,344.9c1.8,0,3.5,0,5.3,0c0.1,0,0.1,0,0.2,0c0,0,0,0,0-0.1v-0.4c0-4,0-8.1,0-12.1
			c0-0.5-0.1-0.9-0.9-0.9c-4.2,0-8.4,0-12.6,0c-0.6,0-0.9,0.2-0.9,0.9c0,4.1,0,8.3,0,12.5l0,0h0.1c1.7,0,3.5,0,5.2,0h2L107.2,344.9
			L107.2,344.9z M101.5,346.1c-1.1,0-2.2,0-3.2,0c-0.6,0-1.2-0.2-1.2-1.3c0-4.2,0-8.4,0-12.5c0-1.3,0.8-2.1,2.1-2.1
			c4.2,0,8.4,0,12.6,0c1.3,0,2.1,0.8,2.1,2.1c0,4,0,8.1,0,12.1v0.4c0,1.1-0.5,1.3-1.3,1.3c-1.8,0-3.5,0-5.3,0h-3.7
			C102.8,346.1,102.2,346.1,101.5,346.1"/>
		<path fill="#231F20" d="M91.7,339.5c0.8,0,1.6,0,2.3,0c0.5,0,0.6-0.1,0.6-0.6c0-0.9,0-1.7,0-2.6c0-0.5-0.1-0.6-0.6-0.6
			c-0.9,0-1.8,0-2.7,0c-0.3,0-0.5,0.1-0.6,0.4c-0.6,0.9-1.2,1.8-1.8,2.7c-0.1,0.2-0.2,0.4-0.1,0.6c0.1,0.1,0.3,0.2,0.5,0.2
			C90.1,339.6,90.9,339.5,91.7,339.5 M86.1,346.2c0-1.8,0-3.5,0-5.3c0-0.8,0.2-1.5,0.6-2.2c0.8-1.2,1.6-2.5,2.4-3.7
			c0.7-1.1,1.7-1.6,2.9-1.6c1.2,0,2.3,0,3.5,0c0.8,0,1.1,0.3,1.1,1.1c0,3.9,0,7.8,0,11.7v0.5h6.3c-0.5,0.5-0.9,1.1-1,1.8
			c0,0.3-0.2,0.3-0.4,0.3c-2,0-4,0-6,0c-0.3,0-0.4-0.1-0.4-0.4c-0.3-1.7-2.1-3-3.8-2.6c-1.4,0.3-2.3,1.2-2.7,2.7
			c0,0.2-0.1,0.3-0.3,0.3c-1,0-1.1,0-2.1,0c-0.4,0-0.5-0.2-0.5-0.6s0-0.7,0-1.1s0.1-0.5,0.5-0.5c0.3,0-0.3,0,0,0L86.1,346.2
			L86.1,346.2z"/>
		<path fill="#231F20" d="M103.8,349.3c0,0.7,0.6,1.4,1.3,1.4s1.2-0.6,1.2-1.3c0-0.8-0.5-1.4-1.3-1.4
			C104.3,348,103.8,348.6,103.8,349.3 M107.5,349.3c0,1.5-1.2,2.7-2.5,2.7c-1.4,0-2.5-1.2-2.5-2.7s1.1-2.7,2.5-2.7
			S107.5,347.8,107.5,349.3"/>
		<path fill="#231F20" d="M90.5,349.3c0,0.7,0.6,1.3,1.2,1.3c0.7,0,1.3-0.6,1.3-1.4s-0.6-1.3-1.3-1.3C91,348,90.5,348.6,90.5,349.3
			 M94.2,349.3c0,1.5-1.1,2.7-2.5,2.7s-2.5-1.2-2.5-2.7s1.1-2.7,2.5-2.7C93.1,346.6,94.3,347.8,94.2,349.3"/>
		<path fill="#231F20" d="M107.3,346.6c0.3,0.5,0.5,0.9,0.8,1.4c0.1,0.1,0.1,0.2,0.1,0.4c0,0.3,0.2,0.4,0.5,0.4c1.3,0,2.5,0,3.8,0
			c0.7,0,0.7-0.1,0.7-0.8c0-0.3,0-0.6,0-0.9s-0.2-0.5-0.5-0.5C111,346.6,109.2,346.6,107.3,346.6"/>
		<path fill="#B3B3B3" d="M103.8,349.3c0,0.7,0.6,1.4,1.3,1.4s1.2-0.6,1.2-1.3c0-0.8-0.5-1.4-1.3-1.4
			C104.3,348,103.8,348.6,103.8,349.3"/>
		<path fill="#B3B3B3" d="M90.5,349.3c0,0.7,0.6,1.3,1.2,1.3c0.7,0,1.3-0.6,1.3-1.4s-0.6-1.3-1.3-1.3C91,348,90.5,348.6,90.5,349.3"
			/>
		<path fill="#FFFFFF" d="M105.8,340.4c0.6-0.2,0.7-0.6,0.7-1.1s0-0.8-0.7-1V340.4z M105,335.1c-0.4,0.1-0.6,0.4-0.6,1.1
			c0,0.5,0,0.7,0.6,0.9V335.1z M103.8,339.7c0.3,0.4,0.6,0.7,1.2,0.7v-2.2c-1.2-0.3-1.6-1-1.6-2c0-1.2,0.5-1.9,1.6-2v-0.7h0.8v0.7
			c0.7,0,1,0.2,1.5,0.7l-0.6,0.7c-0.3-0.3-0.6-0.4-1-0.5v2.1c1.3,0.2,1.7,1,1.7,2.1s-0.6,1.9-1.7,2.1v1.1H105v-1.1
			c-0.7,0-1.4-0.4-1.9-1L103.8,339.7z"/>
		<g>
			<path fill="#E6E6E6" d="M115.6,345.9c-0.3,0-0.6,0.3-0.7,0.6h-0.1c-0.2,0-0.5,0.2-0.5,0.5s0.2,0.5,0.5,0.5c0.2,0,0.4-0.1,0.4-0.3
				c0.1,0.1,0.2,0.1,0.4,0.1c0.4,0,0.7-0.3,0.7-0.7S116,345.9,115.6,345.9z"/>
			<path fill="#E6E6E6" d="M118.8,345.9c-0.1,0-0.1,0-0.2,0c-0.1-0.2-0.4-0.4-0.7-0.4c-0.4,0-0.7,0.3-0.7,0.7l0,0
				c-0.2,0.1-0.5,0.3-0.5,0.6c0,0.3,0.2,0.6,0.6,0.6c0.2,0,0.3-0.1,0.4-0.2c0.1,0.5,0.5,0.8,1,0.8c0.6,0,1.1-0.5,1.1-1.1
				C119.9,346.4,119.4,345.9,118.8,345.9z"/>
			<path fill="#E6E6E6" d="M123.5,343.9c-0.1,0-0.3,0-0.4,0.1c-0.1-0.8-0.7-1.4-1.5-1.4s-1.5,0.7-1.5,1.5c0,0.6,0.4,1.1,0.9,1.4
				c-0.1,0.2-0.2,0.4-0.2,0.6c0,0.6,0.5,1,1,1c0.6,0,1-0.5,1-1l0,0c0.2,0.2,0.5,0.2,0.7,0.2c0.7,0,1.2-0.5,1.2-1.2
				S124.1,343.9,123.5,343.9z"/>
			<path fill="#E6E6E6" d="M134.4,341.4c-0.1,0-0.1,0-0.2,0c-0.1-0.2-0.4-0.4-0.7-0.4c-0.4,0-0.7,0.3-0.7,0.7l0,0
				c-0.2,0.1-0.5,0.3-0.5,0.6c0,0.3,0.2,0.6,0.6,0.6c0.2,0,0.3-0.1,0.4-0.2c0.1,0.5,0.5,0.8,1,0.8c0.6,0,1.1-0.5,1.1-1.1
				C135.4,341.9,135,341.4,134.4,341.4z"/>
			<path fill="#E6E6E6" d="M139,339.4c-0.1,0-0.3,0-0.4,0.1c-0.1-0.8-0.7-1.4-1.5-1.4s-1.5,0.7-1.5,1.5c0,0.6,0.4,1.1,0.9,1.4
				c-0.1,0.2-0.2,0.4-0.2,0.6c0,0.6,0.5,1,1,1s1-0.5,1-1l0,0c0.2,0.2,0.5,0.2,0.7,0.2c0.7,0,1.2-0.5,1.2-1.2S139.7,339.4,139,339.4z
				"/>
			<path fill="#E6E6E6" d="M130.8,341.5c-0.3,0-0.5,0.1-0.7,0.2c-0.1-1.2-1.1-2.1-2.3-2.1s-2.3,1-2.3,2.3c0,0.9,0.5,1.7,1.3,2.1
				c-0.2,0.2-0.4,0.5-0.4,0.8c0,0.6,0.5,1,1,1s1-0.5,1-1c0-0.2-0.1-0.5-0.2-0.6c0.5-0.1,1-0.4,1.3-0.9c0.2,0.4,0.6,0.7,1.1,0.7
				c0.7,0,1.2-0.6,1.2-1.2S131.5,341.5,130.8,341.5z"/>
			<circle fill="#E6E6E6" cx="131.4" cy="339.5" r="1.2"/>
		</g>
	</g>
</g>
</svg>
