<?xml version="1.0" encoding="utf-8"?>
<!-- Generator: Adobe Illustrator 18.0.0, SVG Export Plug-In . SVG Version: 6.00 Build 0)  -->
<!DOCTYPE svg PUBLIC "-//W3C//DTD SVG 1.1//EN" "http://www.w3.org/Graphics/SVG/1.1/DTD/svg11.dtd">
<svg version="1.1" id="Layer_1" xmlns="http://www.w3.org/2000/svg" xmlns:xlink="http://www.w3.org/1999/xlink" x="0px" y="0px"
	 viewBox="0 0 277.9 792" enable-background="new 0 0 277.9 792" xml:space="preserve">
<g id="Layer_1_1_">
	<g>
		<g>
			<path fill="#EC1C24" d="M120.6,571.3v-8.1h2.4c0.8,0,1.5,0.3,2,0.9c0.5,0.6,0.8,1.4,0.8,2.4v1.4c0,1-0.3,1.8-0.8,2.4
				c-0.5,0.6-1.2,0.9-2,0.9L120.6,571.3L120.6,571.3z M122.2,564.5v5.6h0.8c0.4,0,0.8-0.2,1-0.6c0.2-0.4,0.4-0.9,0.4-1.5v-1.4
				c0-0.6-0.1-1.1-0.4-1.5c-0.2-0.4-0.6-0.6-1-0.6L122.2,564.5L122.2,564.5z"/>
			<path fill="#EC1C24" d="M128.7,571.3h-1.6v-8.1h1.6V571.3z"/>
			<path fill="#EC1C24" d="M133.5,569.2c0-0.3-0.1-0.6-0.2-0.7c-0.2-0.2-0.5-0.4-0.9-0.5c-0.8-0.3-1.5-0.6-1.9-1
				c-0.4-0.4-0.6-0.9-0.6-1.6c0-0.7,0.2-1.2,0.7-1.6c0.5-0.4,1.1-0.6,1.9-0.6c0.8,0,1.4,0.2,1.9,0.7c0.5,0.5,0.7,1,0.7,1.7v0h-1.5
				c0-0.4-0.1-0.7-0.3-0.9c-0.2-0.2-0.5-0.3-0.8-0.3c-0.3,0-0.6,0.1-0.7,0.3c-0.2,0.2-0.3,0.4-0.3,0.7c0,0.3,0.1,0.5,0.3,0.7
				c0.2,0.2,0.5,0.4,1,0.6c0.8,0.2,1.3,0.6,1.7,1c0.4,0.4,0.6,0.9,0.6,1.6c0,0.7-0.2,1.2-0.7,1.6c-0.5,0.4-1.1,0.6-1.9,0.6
				s-1.4-0.2-2-0.7c-0.6-0.5-0.8-1.1-0.8-1.9v0h1.5c0,0.5,0.1,0.9,0.3,1.1c0.2,0.2,0.5,0.3,1,0.3c0.3,0,0.6-0.1,0.7-0.3
				C133.5,569.7,133.5,569.5,133.5,569.2z"/>
			<path fill="#EC1C24" d="M137.7,568.4v2.9h-1.6v-8.1h2.8c0.8,0,1.4,0.2,1.9,0.7c0.5,0.5,0.7,1.1,0.7,1.9s-0.2,1.4-0.7,1.9
				c-0.5,0.5-1.1,0.7-1.9,0.7L137.7,568.4L137.7,568.4z M137.7,567.1h1.2c0.3,0,0.6-0.1,0.8-0.4c0.2-0.2,0.3-0.6,0.3-1
				c0-0.4-0.1-0.7-0.3-1c-0.2-0.2-0.4-0.4-0.8-0.4h-1.2V567.1z"/>
			<path fill="#EC1C24" d="M147.9,568.4c0,1-0.2,1.7-0.8,2.2c-0.5,0.5-1.2,0.8-2,0.8c-0.8,0-1.5-0.3-2-0.8s-0.8-1.3-0.8-2.2v-2.3
				c0-1,0.2-1.7,0.8-2.2c0.5-0.5,1.2-0.8,2-0.8s1.5,0.3,2,0.8c0.5,0.5,0.8,1.3,0.8,2.2V568.4z M146.4,566.1c0-0.6-0.1-1-0.3-1.3
				c-0.2-0.3-0.5-0.4-0.9-0.4c-0.4,0-0.7,0.1-0.9,0.4c-0.2,0.3-0.3,0.7-0.3,1.3v2.3c0,0.6,0.1,1,0.3,1.3s0.5,0.4,0.9,0.4
				c0.4,0,0.7-0.1,0.9-0.4c0.2-0.3,0.3-0.7,0.3-1.3V566.1z"/>
			<path fill="#EC1C24" d="M152.6,569.2c0-0.3-0.1-0.6-0.2-0.7c-0.2-0.2-0.5-0.4-0.9-0.5c-0.8-0.3-1.5-0.6-1.9-1
				c-0.4-0.4-0.6-0.9-0.6-1.6c0-0.7,0.2-1.2,0.7-1.6c0.5-0.4,1.1-0.6,1.9-0.6c0.8,0,1.4,0.2,1.9,0.7c0.5,0.5,0.7,1,0.7,1.7v0h-1.5
				c0-0.4-0.1-0.7-0.3-0.9c-0.2-0.2-0.5-0.3-0.8-0.3c-0.3,0-0.6,0.1-0.7,0.3c-0.2,0.2-0.3,0.4-0.3,0.7c0,0.3,0.1,0.5,0.3,0.7
				c0.2,0.2,0.5,0.4,1,0.6c0.8,0.2,1.3,0.6,1.7,1c0.4,0.4,0.6,0.9,0.6,1.6c0,0.7-0.2,1.2-0.7,1.6c-0.5,0.4-1.1,0.6-1.9,0.6
				c-0.8,0-1.4-0.2-2-0.7c-0.6-0.5-0.8-1.1-0.8-1.9v0h1.5c0,0.5,0.1,0.9,0.3,1.1c0.2,0.2,0.5,0.3,1,0.3c0.3,0,0.6-0.1,0.7-0.3
				C152.5,569.7,152.6,569.5,152.6,569.2z"/>
			<path fill="#EC1C24" d="M158.8,569.6h-2.1l-0.4,1.7h-1.6l2.3-8.1h1.6l2.3,8.1h-1.6L158.8,569.6z M156.9,568.3h1.5l-0.7-2.9h0
				L156.9,568.3z"/>
			<path fill="#EC1C24" d="M163,570h3v1.2h-4.5v-8.1h1.6L163,570L163,570z"/>
		</g>
	</g>
</g>
</svg>
