<?xml version="1.0" encoding="utf-8"?>
<!-- Generator: Adobe Illustrator 18.0.0, SVG Export Plug-In . SVG Version: 6.00 Build 0)  -->
<!DOCTYPE svg PUBLIC "-//W3C//DTD SVG 1.1//EN" "http://www.w3.org/Graphics/SVG/1.1/DTD/svg11.dtd">
<svg version="1.1" id="Layer_1" xmlns="http://www.w3.org/2000/svg" xmlns:xlink="http://www.w3.org/1999/xlink" x="0px" y="0px"
	 viewBox="0 0 277.9 792" enable-background="new 0 0 277.9 792" xml:space="preserve">
<g id="Layer_1_1_">
	<g>
		
			<linearGradient id="SVGID_1_" gradientUnits="userSpaceOnUse" x1="339.7" y1="-1439.25" x2="339.7" y2="-1509.0532" gradientTransform="matrix(0.227 0 0 -0.227 3.652954e-02 179.7833)">
			<stop  offset="6.804837e-02" style="stop-color:#FFFFFF"/>
			<stop  offset="1" style="stop-color:#29ABE2"/>
		</linearGradient>
		<path fill="url(#SVGID_1_)" d="M83.7,523.4H70.6c-0.6,0-1-0.5-1-1v-12.3c0-0.6,0.5-1,1-1h13.1c0.6,0,1,0.5,1,1v12.3
			C84.7,523,84.3,523.4,83.7,523.4z"/>
		<path fill="#231F20" d="M77.1,523h2c1.7,0,3.5,0,5.2,0c0,0,0.1,0,0.1,0c0,0,0,0,0,0c0-4.2,0-8.4,0-12.5c0-0.7-0.4-0.9-0.9-0.9
			c-4.2,0-8.4,0-12.6,0c-0.8,0-0.9,0.4-0.9,0.9c0,4,0,8.1,0,12.1v0.4c0,0,0,0.1,0,0.1c0,0,0.1,0,0.2,0c1.8,0,3.5,0,5.3,0H77.1z
			 M81,524.2c-0.7,0-1.3,0-2,0h-3.7c-1.8,0-3.5,0-5.3,0c-0.8,0-1.3-0.2-1.3-1.3v-0.4c0-4,0-8.1,0-12.1c0-1.3,0.8-2.1,2.1-2.1
			c4.2,0,8.4,0,12.6,0c1.3,0,2.1,0.8,2.1,2.1c0,4.1,0,8.3,0,12.5c0,1.1-0.6,1.3-1.2,1.3C83.1,524.2,82.1,524.2,81,524.2"/>
		<path fill="#231F20" d="M90.8,517.7c0.8,0,1.6,0,2.4,0c0.2,0,0.4-0.1,0.5-0.2c0.1-0.1,0-0.4-0.1-0.6c-0.6-0.9-1.2-1.8-1.8-2.7
			c-0.2-0.2-0.4-0.4-0.6-0.4c-0.9,0-1.8,0-2.7,0c-0.5,0-0.6,0.1-0.6,0.6c0,0.9,0,1.7,0,2.6c0,0.5,0.1,0.6,0.6,0.6
			C89.2,517.7,90,517.7,90.8,517.7 M96.4,524.8C96.7,524.8,96.1,524.8,96.4,524.8c0.4,0,0.5,0.2,0.5,0.5c0,0.4,0,0.7,0,1.1
			c0,0.4-0.1,0.6-0.5,0.6c-1,0-1.1,0-2.1,0c-0.2,0-0.2-0.1-0.3-0.3c-0.4-1.5-1.3-2.4-2.7-2.7c-1.6-0.3-3.4,0.9-3.8,2.6
			c-0.1,0.3-0.1,0.4-0.4,0.4c-2,0-4,0-6,0c-0.2,0-0.3,0-0.4-0.3c-0.1-0.7-0.5-1.3-1-1.8H86v-0.5c0-3.9,0-7.8,0-11.7
			c0-0.8,0.3-1.1,1.1-1.1c1.2,0,2.3,0,3.5,0c1.2,0,2.2,0.5,2.9,1.6c0.8,1.2,1.6,2.5,2.4,3.7c0.4,0.7,0.6,1.4,0.6,2.2
			c0,1.8,0,3.5,0,5.3L96.4,524.8L96.4,524.8z"/>
		<path fill="#231F20" d="M78.8,527.4c0-0.7-0.6-1.3-1.2-1.3c-0.7,0-1.3,0.6-1.3,1.4c0,0.7,0.6,1.3,1.2,1.3
			C78.2,528.8,78.8,528.2,78.8,527.4 M75,527.5c0-1.5,1.1-2.7,2.5-2.7s2.5,1.2,2.5,2.7c0,1.5-1.1,2.7-2.5,2.7
			C76.1,530.2,75,529,75,527.5"/>
		<path fill="#231F20" d="M92.1,527.5c0-0.7-0.5-1.3-1.2-1.4c-0.7,0-1.3,0.6-1.3,1.3c0,0.7,0.6,1.4,1.3,1.4
			C91.5,528.8,92,528.2,92.1,527.5 M88.3,527.5c0-1.5,1.1-2.7,2.5-2.7c1.4,0,2.5,1.2,2.5,2.7c0,1.5-1.2,2.7-2.5,2.7
			C89.4,530.2,88.3,529,88.3,527.5"/>
		<path fill="#231F20" d="M75.2,524.8c-0.3,0.5-0.5,0.9-0.8,1.4c-0.1,0.1-0.1,0.2-0.1,0.4c0,0.3-0.2,0.4-0.5,0.4c-1.3,0-2.5,0-3.8,0
			c-0.7,0-0.7-0.1-0.7-0.8c0-0.3,0-0.6,0-0.9s0.2-0.5,0.5-0.5C71.5,524.8,73.4,524.8,75.2,524.8"/>
		<path fill="#B3B3B3" d="M78.8,527.4c0,0.7-0.6,1.4-1.3,1.4c-0.7,0-1.2-0.6-1.2-1.3c0-0.8,0.5-1.4,1.3-1.4
			C78.2,526.1,78.8,526.7,78.8,527.4"/>
		<path fill="#B3B3B3" d="M92.1,527.5c0,0.7-0.6,1.3-1.2,1.3c-0.7,0-1.3-0.6-1.3-1.4c0-0.7,0.6-1.3,1.3-1.3
			C91.5,526.1,92.1,526.7,92.1,527.5"/>
		<path fill="#FFFFFF" d="M77.6,518.6c0.6-0.2,0.7-0.6,0.7-1.1c0-0.5,0-0.8-0.7-1V518.6z M76.8,513.2c-0.4,0.1-0.6,0.4-0.6,1.1
			c0,0.5,0,0.7,0.6,0.9V513.2z M75.6,517.8c0.3,0.4,0.6,0.7,1.2,0.7v-2.2c-1.2-0.3-1.6-1-1.6-2c0-1.2,0.5-1.9,1.6-2v-0.7h0.8v0.7
			c0.7,0,1,0.2,1.5,0.7l-0.6,0.7c-0.3-0.3-0.6-0.4-1-0.5v2.1c1.3,0.2,1.7,1,1.7,2.1c0,1.1-0.6,1.9-1.7,2.1v1.1h-0.8v-1.1
			c-0.7,0-1.4-0.4-1.9-1L75.6,517.8z"/>
		<g>
			<path fill="#E6E6E6" d="M66.9,524.1c0.3,0,0.6,0.3,0.7,0.6c0,0,0.1,0,0.1,0c0.2,0,0.5,0.2,0.5,0.5c0,0.2-0.2,0.5-0.5,0.5
				c-0.2,0-0.4-0.1-0.4-0.3c-0.1,0.1-0.2,0.1-0.4,0.1c-0.4,0-0.7-0.3-0.7-0.7C66.2,524.3,66.5,524.1,66.9,524.1z"/>
			<path fill="#E6E6E6" d="M63.7,524.1c0.1,0,0.1,0,0.2,0c0.1-0.2,0.4-0.4,0.7-0.4c0.4,0,0.7,0.3,0.7,0.7c0,0,0,0,0,0
				c0.2,0.1,0.5,0.3,0.5,0.6c0,0.3-0.2,0.6-0.6,0.6c-0.2,0-0.3-0.1-0.4-0.2c-0.1,0.5-0.5,0.8-1,0.8c-0.6,0-1.1-0.5-1.1-1.1
				S63.1,524.1,63.7,524.1z"/>
			<path fill="#E6E6E6" d="M59,522.1c0.1,0,0.3,0,0.4,0.1c0.1-0.8,0.7-1.4,1.5-1.4c0.8,0,1.5,0.7,1.5,1.5c0,0.6-0.4,1.1-0.9,1.4
				c0.1,0.2,0.2,0.4,0.2,0.6c0,0.6-0.5,1-1,1c-0.6,0-1-0.5-1-1c0,0,0,0,0,0c-0.2,0.2-0.5,0.2-0.7,0.2c-0.7,0-1.2-0.5-1.2-1.2
				C57.9,522.6,58.4,522.1,59,522.1z"/>
			<path fill="#E6E6E6" d="M48.1,519.6c0.1,0,0.1,0,0.2,0c0.1-0.2,0.4-0.4,0.7-0.4c0.4,0,0.7,0.3,0.7,0.7c0,0,0,0,0,0
				c0.2,0.1,0.5,0.3,0.5,0.6c0,0.3-0.2,0.6-0.6,0.6c-0.2,0-0.3-0.1-0.4-0.2c-0.1,0.5-0.5,0.8-1,0.8c-0.6,0-1.1-0.5-1.1-1.1
				S47.5,519.6,48.1,519.6z"/>
			<path fill="#E6E6E6" d="M43.5,517.6c0.1,0,0.3,0,0.4,0.1c0.1-0.8,0.7-1.4,1.5-1.4c0.8,0,1.5,0.7,1.5,1.5c0,0.6-0.4,1.1-0.9,1.4
				c0.1,0.2,0.2,0.4,0.2,0.6c0,0.6-0.5,1-1,1s-1-0.5-1-1c0,0,0,0,0,0c-0.2,0.2-0.5,0.2-0.7,0.2c-0.7,0-1.2-0.5-1.2-1.2
				S42.8,517.6,43.5,517.6z"/>
			<path fill="#E6E6E6" d="M51.7,519.6c0.3,0,0.5,0.1,0.7,0.2c0.1-1.2,1.1-2.1,2.3-2.1c1.2,0,2.3,1,2.3,2.3c0,0.9-0.5,1.7-1.3,2.1
				c0.2,0.2,0.4,0.5,0.4,0.8c0,0.6-0.5,1-1,1c-0.6,0-1-0.5-1-1c0-0.2,0.1-0.5,0.2-0.6c-0.5-0.1-1-0.4-1.3-0.9
				c-0.2,0.4-0.6,0.7-1.1,0.7c-0.7,0-1.2-0.6-1.2-1.2C50.5,520.3,51,519.6,51.7,519.6z"/>
			<circle fill="#E6E6E6" cx="51.2" cy="517.7" r="1.2"/>
		</g>
	</g>
</g>
</svg>
