<?xml version="1.0" encoding="utf-8"?>
<!-- Generator: Adobe Illustrator 18.0.0, SVG Export Plug-In . SVG Version: 6.00 Build 0)  -->
<!DOCTYPE svg PUBLIC "-//W3C//DTD SVG 1.1//EN" "http://www.w3.org/Graphics/SVG/1.1/DTD/svg11.dtd">
<svg version="1.1" id="Layer_1" xmlns="http://www.w3.org/2000/svg" xmlns:xlink="http://www.w3.org/1999/xlink" x="0px" y="0px"
	 viewBox="0 0 277.9 792" enable-background="new 0 0 277.9 792" xml:space="preserve">
<g id="Layer_1_1_">
	<g>
		<g>
			<path fill="#EC1C24" d="M104.5,504.8h-1.8v6.8h-1.6v-6.8h-1.8v-1.2h5.2V504.8z"/>
			<path fill="#EC1C24" d="M106.8,508.4v3.2h-1.6v-8.1h2.6c0.8,0,1.4,0.2,1.9,0.6c0.5,0.4,0.7,1,0.7,1.7c0,0.4-0.1,0.8-0.3,1.1
				s-0.5,0.5-0.8,0.7c0.4,0.1,0.7,0.4,0.9,0.7c0.2,0.3,0.3,0.7,0.3,1.2v0.6c0,0.2,0,0.5,0.1,0.7c0,0.2,0.1,0.4,0.3,0.5v0.1h-1.6
				c-0.1-0.1-0.2-0.3-0.2-0.6s0-0.5,0-0.8v-0.5c0-0.4-0.1-0.7-0.2-0.9c-0.2-0.2-0.4-0.3-0.7-0.3H106.8z M106.8,507.1h1
				c0.3,0,0.6-0.1,0.7-0.3c0.2-0.2,0.2-0.5,0.2-0.8c0-0.4-0.1-0.7-0.2-0.9c-0.2-0.2-0.4-0.3-0.7-0.3h-1.1L106.8,507.1L106.8,507.1z"
				/>
			<path fill="#EC1C24" d="M115.3,509.8h-2.1l-0.4,1.7h-1.6l2.3-8.1h1.6l2.3,8.1h-1.6L115.3,509.8z M113.5,508.6h1.5l-0.7-2.9h0
				L113.5,508.6z"/>
			<path fill="#EC1C24" d="M123.6,511.6H122l-2.5-5.2h0v5.2H118v-8.1h1.6l2.5,5.2h0v-5.2h1.6V511.6z"/>
			<path fill="#EC1C24" d="M128.4,509.5c0-0.3-0.1-0.6-0.2-0.7c-0.2-0.2-0.5-0.4-0.9-0.5c-0.8-0.3-1.5-0.6-1.9-1
				c-0.4-0.4-0.6-0.9-0.6-1.6c0-0.7,0.2-1.2,0.7-1.6c0.5-0.4,1.1-0.6,1.9-0.6c0.8,0,1.4,0.2,1.9,0.7c0.5,0.5,0.7,1,0.7,1.7v0h-1.5
				c0-0.4-0.1-0.7-0.3-0.9c-0.2-0.2-0.5-0.3-0.8-0.3s-0.6,0.1-0.7,0.3c-0.2,0.2-0.3,0.4-0.3,0.7c0,0.3,0.1,0.5,0.3,0.7
				c0.2,0.2,0.5,0.4,1,0.6c0.8,0.2,1.3,0.6,1.7,1c0.4,0.4,0.6,0.9,0.6,1.6c0,0.7-0.2,1.2-0.7,1.6c-0.5,0.4-1.1,0.6-1.9,0.6
				c-0.8,0-1.4-0.2-2-0.7c-0.6-0.5-0.8-1.1-0.8-1.9v0h1.5c0,0.5,0.1,0.9,0.3,1.1c0.2,0.2,0.5,0.3,1,0.3c0.3,0,0.6-0.1,0.7-0.3
				S128.4,509.8,128.4,509.5z"/>
			<path fill="#EC1C24" d="M132.6,508.7v2.9H131v-8.1h2.8c0.8,0,1.4,0.2,1.9,0.7c0.5,0.5,0.7,1.1,0.7,1.9c0,0.8-0.2,1.4-0.7,1.9
				c-0.5,0.5-1.1,0.7-1.9,0.7L132.6,508.7L132.6,508.7z M132.6,507.4h1.2c0.3,0,0.6-0.1,0.8-0.4s0.3-0.6,0.3-1s-0.1-0.7-0.3-1
				c-0.2-0.2-0.4-0.4-0.8-0.4h-1.2V507.4z"/>
			<path fill="#EC1C24" d="M142.8,508.7c0,1-0.2,1.7-0.8,2.2c-0.5,0.5-1.2,0.8-2,0.8c-0.9,0-1.5-0.3-2-0.8c-0.5-0.5-0.8-1.3-0.8-2.2
				v-2.3c0-1,0.2-1.7,0.8-2.2s1.2-0.8,2-0.8c0.8,0,1.5,0.3,2,0.8c0.5,0.5,0.8,1.3,0.8,2.2V508.7z M141.3,506.4c0-0.6-0.1-1-0.3-1.3
				c-0.2-0.3-0.5-0.4-0.9-0.4s-0.7,0.1-0.9,0.4c-0.2,0.3-0.3,0.7-0.3,1.3v2.3c0,0.6,0.1,1,0.3,1.3c0.2,0.3,0.5,0.4,0.9,0.4
				s0.7-0.1,0.9-0.4c0.2-0.3,0.3-0.7,0.3-1.3V506.4z"/>
			<path fill="#EC1C24" d="M145.5,508.4v3.2h-1.6v-8.1h2.6c0.8,0,1.4,0.2,1.9,0.6c0.5,0.4,0.7,1,0.7,1.7c0,0.4-0.1,0.8-0.3,1.1
				s-0.5,0.5-0.8,0.7c0.4,0.1,0.7,0.4,0.9,0.7c0.2,0.3,0.3,0.7,0.3,1.2v0.6c0,0.2,0,0.5,0.1,0.7c0,0.2,0.1,0.4,0.3,0.5v0.1h-1.6
				c-0.1-0.1-0.2-0.3-0.2-0.6c0-0.2,0-0.5,0-0.8v-0.5c0-0.4-0.1-0.7-0.2-0.9c-0.2-0.2-0.4-0.3-0.7-0.3H145.5z M145.5,507.1h1
				c0.3,0,0.6-0.1,0.7-0.3c0.2-0.2,0.2-0.5,0.2-0.8c0-0.4-0.1-0.7-0.2-0.9c-0.2-0.2-0.4-0.3-0.7-0.3h-1.1L145.5,507.1L145.5,507.1z"
				/>
			<path fill="#EC1C24" d="M154.6,504.8h-1.8v6.8h-1.6v-6.8h-1.8v-1.2h5.2V504.8z"/>
			<path fill="#EC1C24" d="M158.6,509.8h-2.1l-0.4,1.7h-1.6l2.3-8.1h1.6l2.3,8.1H159L158.6,509.8z M156.8,508.6h1.5l-0.7-2.9h0
				L156.8,508.6z"/>
			<path fill="#EC1C24" d="M165.2,504.8h-1.8v6.8h-1.6v-6.8H160v-1.2h5.2V504.8z"/>
			<path fill="#EC1C24" d="M167.7,511.6h-1.6v-8.1h1.6V511.6z"/>
			<path fill="#EC1C24" d="M174.4,508.7c0,1-0.2,1.7-0.8,2.2c-0.5,0.5-1.2,0.8-2,0.8c-0.8,0-1.5-0.3-2-0.8c-0.5-0.5-0.8-1.3-0.8-2.2
				v-2.3c0-1,0.2-1.7,0.8-2.2s1.2-0.8,2-0.8c0.8,0,1.5,0.3,2,0.8c0.5,0.5,0.8,1.3,0.8,2.2V508.7z M172.9,506.4c0-0.6-0.1-1-0.3-1.3
				c-0.2-0.3-0.5-0.4-0.9-0.4c-0.4,0-0.7,0.1-0.9,0.4c-0.2,0.3-0.3,0.7-0.3,1.3v2.3c0,0.6,0.1,1,0.3,1.3c0.2,0.3,0.5,0.4,0.9,0.4
				c0.4,0,0.7-0.1,0.9-0.4c0.2-0.3,0.3-0.7,0.3-1.3V506.4z"/>
			<path fill="#EC1C24" d="M181.1,511.6h-1.6l-2.5-5.2h0v5.2h-1.6v-8.1h1.6l2.5,5.2h0v-5.2h1.6V511.6z"/>
		</g>
	</g>
</g>
</svg>
