<?xml version="1.0" encoding="utf-8"?>
<!-- Generator: Adobe Illustrator 18.0.0, SVG Export Plug-In . SVG Version: 6.00 Build 0)  -->
<!DOCTYPE svg PUBLIC "-//W3C//DTD SVG 1.1//EN" "http://www.w3.org/Graphics/SVG/1.1/DTD/svg11.dtd">
<svg version="1.1" id="Layer_1" xmlns="http://www.w3.org/2000/svg" xmlns:xlink="http://www.w3.org/1999/xlink" x="0px" y="0px"
	 viewBox="0 0 277.9 792" enable-background="new 0 0 277.9 792" xml:space="preserve">
<g id="Layer_1_1_">
	<g>
		
			<linearGradient id="SVGID_1_" gradientUnits="userSpaceOnUse" x1="301.7056" y1="-1547.25" x2="301.7056" y2="-1617.0532" gradientTransform="matrix(-0.227 0 0 -0.227 140.2552 179.7833)">
			<stop  offset="6.804837e-02" style="stop-color:#FFFFFF"/>
			<stop  offset="1" style="stop-color:#29ABE2"/>
		</linearGradient>
		<path fill="url(#SVGID_1_)" d="M65.2,548h13.1c0.6,0,1-0.5,1-1v-12.3c0-0.6-0.5-1-1-1H65.2c-0.6,0-1,0.5-1,1v12.3
			C64.2,547.5,64.6,548,65.2,548z"/>
		<path fill="#231F20" d="M73.6,547.5c1.8,0,3.5,0,5.3,0c0.1,0,0.1,0,0.2,0c0,0,0,0,0-0.1V547c0-4,0-8.1,0-12.1
			c0-0.5-0.1-0.9-0.9-0.9c-4.2,0-8.4,0-12.6,0c-0.6,0-0.9,0.2-0.9,0.9c0,4.1,0,8.3,0,12.5c0,0,0,0,0,0c0,0,0.1,0,0.1,0
			c1.7,0,3.5,0,5.2,0h2H73.6z M67.9,548.7c-1.1,0-2.2,0-3.2,0c-0.6,0-1.2-0.2-1.2-1.3c0-4.2,0-8.4,0-12.5c0-1.3,0.8-2.1,2.1-2.1
			c4.2,0,8.4,0,12.6,0c1.3,0,2.1,0.8,2.1,2.1c0,4,0,8.1,0,12.1v0.4c0,1.1-0.5,1.3-1.3,1.3c-1.8,0-3.5,0-5.3,0h-3.7
			C69.2,548.7,68.6,548.7,67.9,548.7"/>
		<path fill="#231F20" d="M58.1,542.2c0.8,0,1.6,0,2.3,0c0.5,0,0.6-0.1,0.6-0.6c0-0.9,0-1.7,0-2.6c0-0.5-0.1-0.6-0.6-0.6
			c-0.9,0-1.8,0-2.7,0c-0.3,0-0.5,0.1-0.6,0.4c-0.6,0.9-1.2,1.8-1.8,2.7c-0.1,0.2-0.2,0.4-0.1,0.6s0.3,0.2,0.5,0.2
			C56.5,542.2,57.3,542.2,58.1,542.2 M52.5,548.9c0-1.8,0-3.5,0-5.3c0-0.8,0.2-1.5,0.6-2.2c0.8-1.2,1.6-2.5,2.4-3.7
			c0.7-1.1,1.7-1.6,2.9-1.6c1.2,0,2.3,0,3.5,0c0.8,0,1.1,0.3,1.1,1.1c0,3.9,0,7.8,0,11.7v0.5h6.3c-0.5,0.5-0.9,1.1-1,1.8
			c0,0.3-0.2,0.3-0.4,0.3c-2,0-4,0-6,0c-0.3,0-0.4-0.1-0.4-0.4c-0.3-1.7-2.1-3-3.8-2.6c-1.4,0.3-2.3,1.2-2.7,2.7
			c0,0.2-0.1,0.3-0.3,0.3c-1,0-1.1,0-2.1,0c-0.4,0-0.5-0.2-0.5-0.6c0-0.4,0-0.7,0-1.1c0-0.4,0.1-0.5,0.5-0.5c0.3,0-0.3,0,0,0
			L52.5,548.9L52.5,548.9z"/>
		<path fill="#231F20" d="M70.2,551.9c0,0.7,0.6,1.4,1.3,1.4s1.2-0.6,1.2-1.3c0-0.8-0.5-1.4-1.3-1.4
			C70.7,550.6,70.2,551.2,70.2,551.9 M73.9,552c0,1.5-1.2,2.7-2.5,2.7c-1.4,0-2.5-1.2-2.5-2.7c0-1.5,1.1-2.7,2.5-2.7
			S73.9,550.5,73.9,552"/>
		<path fill="#231F20" d="M56.9,552c0,0.7,0.6,1.3,1.2,1.3c0.7,0,1.3-0.6,1.3-1.4c0-0.7-0.6-1.3-1.3-1.3
			C57.4,550.6,56.9,551.2,56.9,552 M60.6,552c0,1.5-1.1,2.7-2.5,2.7s-2.5-1.2-2.5-2.7c0-1.5,1.1-2.7,2.5-2.7
			C59.5,549.3,60.7,550.5,60.6,552"/>
		<path fill="#231F20" d="M73.7,549.3c0.3,0.5,0.5,0.9,0.8,1.4c0.1,0.1,0.1,0.2,0.1,0.4c0,0.3,0.2,0.4,0.5,0.4c1.3,0,2.5,0,3.8,0
			c0.7,0,0.7-0.1,0.7-0.8c0-0.3,0-0.6,0-0.9c0-0.3-0.2-0.5-0.5-0.5C77.4,549.3,75.6,549.3,73.7,549.3"/>
		<path fill="#B3B3B3" d="M70.2,551.9c0,0.7,0.6,1.4,1.3,1.4s1.2-0.6,1.2-1.3c0-0.8-0.5-1.4-1.3-1.4
			C70.7,550.6,70.2,551.2,70.2,551.9"/>
		<path fill="#B3B3B3" d="M56.9,552c0,0.7,0.6,1.3,1.2,1.3c0.7,0,1.3-0.6,1.3-1.4c0-0.7-0.6-1.3-1.3-1.3
			C57.4,550.6,56.9,551.2,56.9,552"/>
		<path fill="#FFFFFF" d="M72.2,543.1c0.6-0.2,0.7-0.6,0.7-1.1c0-0.5,0-0.8-0.7-1V543.1z M71.4,537.7c-0.4,0.1-0.6,0.4-0.6,1.1
			c0,0.5,0,0.7,0.6,0.9V537.7z M70.2,542.3c0.3,0.4,0.6,0.7,1.2,0.7v-2.2c-1.2-0.3-1.6-1-1.6-2c0-1.2,0.5-1.9,1.6-2v-0.7h0.8v0.7
			c0.7,0,1,0.2,1.5,0.7l-0.6,0.7c-0.3-0.3-0.6-0.4-1-0.5v2.1c1.3,0.2,1.7,1,1.7,2.1c0,1.1-0.6,1.9-1.7,2.1v1.1h-0.8V544
			c-0.7,0-1.4-0.4-1.9-1L70.2,542.3z"/>
		<g>
			<path fill="#E6E6E6" d="M82,548.6c-0.3,0-0.6,0.3-0.7,0.6c0,0-0.1,0-0.1,0c-0.2,0-0.5,0.2-0.5,0.5s0.2,0.5,0.5,0.5
				c0.2,0,0.4-0.1,0.4-0.3c0.1,0.1,0.2,0.1,0.4,0.1c0.4,0,0.7-0.3,0.7-0.7C82.7,548.9,82.4,548.6,82,548.6z"/>
			<path fill="#E6E6E6" d="M85.2,548.6c-0.1,0-0.1,0-0.2,0c-0.1-0.2-0.4-0.4-0.7-0.4c-0.4,0-0.7,0.3-0.7,0.7c0,0,0,0,0,0
				c-0.2,0.1-0.5,0.3-0.5,0.6c0,0.3,0.2,0.6,0.6,0.6c0.2,0,0.3-0.1,0.4-0.2c0.1,0.5,0.5,0.8,1,0.8c0.6,0,1.1-0.5,1.1-1.1
				S85.8,548.6,85.2,548.6z"/>
			<path fill="#E6E6E6" d="M89.9,546.6c-0.1,0-0.3,0-0.4,0.1c-0.1-0.8-0.7-1.4-1.5-1.4c-0.8,0-1.5,0.7-1.5,1.5
				c0,0.6,0.4,1.1,0.9,1.4c-0.1,0.2-0.2,0.4-0.2,0.6c0,0.6,0.5,1,1,1s1-0.5,1-1c0,0,0,0,0,0c0.2,0.2,0.5,0.2,0.7,0.2
				c0.7,0,1.2-0.5,1.2-1.2S90.5,546.6,89.9,546.6z"/>
			<path fill="#E6E6E6" d="M100.8,544.1c-0.1,0-0.1,0-0.2,0c-0.1-0.2-0.4-0.4-0.7-0.4c-0.4,0-0.7,0.3-0.7,0.7c0,0,0,0,0,0
				c-0.2,0.1-0.5,0.3-0.5,0.6c0,0.3,0.2,0.6,0.6,0.6c0.2,0,0.3-0.1,0.4-0.2c0.1,0.5,0.5,0.8,1,0.8c0.6,0,1.1-0.5,1.1-1.1
				C101.8,544.6,101.4,544.1,100.8,544.1z"/>
			<path fill="#E6E6E6" d="M105.4,542.1c-0.1,0-0.3,0-0.4,0.1c-0.1-0.8-0.7-1.4-1.5-1.4c-0.8,0-1.5,0.7-1.5,1.5
				c0,0.6,0.4,1.1,0.9,1.4c-0.1,0.2-0.2,0.4-0.2,0.6c0,0.6,0.5,1,1,1c0.6,0,1-0.5,1-1c0,0,0,0,0,0c0.2,0.2,0.5,0.2,0.7,0.2
				c0.7,0,1.2-0.5,1.2-1.2C106.6,542.6,106.1,542.1,105.4,542.1z"/>
			<path fill="#E6E6E6" d="M97.2,544.2c-0.3,0-0.5,0.1-0.7,0.2c-0.1-1.2-1.1-2.1-2.3-2.1c-1.2,0-2.3,1-2.3,2.3
				c0,0.9,0.5,1.7,1.3,2.1c-0.2,0.2-0.4,0.5-0.4,0.8c0,0.6,0.5,1,1,1s1-0.5,1-1c0-0.2-0.1-0.5-0.2-0.6c0.5-0.1,1-0.4,1.3-0.9
				c0.2,0.4,0.6,0.7,1.1,0.7c0.7,0,1.2-0.6,1.2-1.2C98.4,544.8,97.9,544.2,97.2,544.2z"/>
			<circle fill="#E6E6E6" cx="97.8" cy="542.2" r="1.2"/>
		</g>
	</g>
</g>
</svg>
