<?xml version="1.0" encoding="utf-8"?>
<!-- Generator: Adobe Illustrator 18.0.0, SVG Export Plug-In . SVG Version: 6.00 Build 0)  -->
<!DOCTYPE svg PUBLIC "-//W3C//DTD SVG 1.1//EN" "http://www.w3.org/Graphics/SVG/1.1/DTD/svg11.dtd">
<svg version="1.1" id="Layer_1" xmlns="http://www.w3.org/2000/svg" xmlns:xlink="http://www.w3.org/1999/xlink" x="0px" y="0px"
	 width="277.9px" height="792px" viewBox="0 0 277.9 792" enable-background="new 0 0 277.9 792" xml:space="preserve">
<g>
	
		<linearGradient id="SVGID_1_" gradientUnits="userSpaceOnUse" x1="928.3076" y1="2643.1899" x2="819.3232" y2="2575.5305" gradientTransform="matrix(0.227 0 0 0.227 4.653931e-02 -7.038116e-04)">
		<stop  offset="0" style="stop-color:#666666"/>
		<stop  offset="0.1397" style="stop-color:#6E6E6E;stop-opacity:0.8603"/>
		<stop  offset="0.3598" style="stop-color:#858585;stop-opacity:0.6402"/>
		<stop  offset="0.6326" style="stop-color:#AAAAAA;stop-opacity:0.3674"/>
		<stop  offset="0.9449" style="stop-color:#DCDCDC;stop-opacity:5.507749e-02"/>
		<stop  offset="1" style="stop-color:#E6E6E6;stop-opacity:0"/>
	</linearGradient>
	<path fill="url(#SVGID_1_)" d="M211.3,601.4c0,0-25.1-5-28.5-5.4s-3.5-5.6,6.8-9.7c7.6-3,14.1-1.3,16.5-0.6c3.1,0.9,13,5.8,13,5.8
		L211.3,601.4z"/>
	<path fill="#939393" stroke="#000000" stroke-miterlimit="10" d="M203.9,583.4c0,0,14.7,3.6,21.8-1.2l-3.4,16.5l-5,2.7h-4.8
		l-3.9-1.1l-2.1-2.5L203.9,583.4z"/>
	<path fill="#231F20" d="M215,602.1c-4.4,0-8-2.2-8.6-4.3l0,0l-2.8-15.8h22.7l-2.7,15.8c-0.2,1-1.3,2.1-2.8,2.9
		C219.1,601.6,217,602.1,215,602.1z M207.7,597.4c0.4,1.2,3.1,3.3,7.3,3.3s7-2.2,7.3-3.3l2.5-14.3h-19.6L207.7,597.4z"/>
	<path fill="#231F20" d="M214.9,587c-3.1,0-6-0.5-8.2-1.2c-2.4-0.9-3.7-2.1-3.7-3.5v-2.5h23.9v2.5C226.9,585.4,220.7,587,214.9,587z
		 M204.3,580.9v1.3c0,1.6,4.5,3.5,10.6,3.5c6.3,0,10.6-1.8,10.7-3.5v-1.3H204.3L204.3,580.9z"/>
	<ellipse fill="#CCCCCC" cx="215" cy="580.2" rx="11.3" ry="4.1"/>
	<path fill="#231F20" d="M215,585c-5.8,0-12-1.7-12-4.7s6.2-4.7,12-4.7s12,1.7,12,4.7S220.8,585,215,585z M215,576.8
		c-3,0-5.7,0.4-7.8,1.2c-1.8,0.7-2.9,1.5-2.9,2.3s1.1,1.6,2.9,2.3c2.1,0.7,4.8,1.2,7.8,1.2s5.7-0.4,7.8-1.2c1.8-0.7,2.9-1.5,2.9-2.3
		s-1.1-1.6-2.9-2.3C220.7,577.2,217.9,576.8,215,576.8z"/>
	<path fill="#231F20" d="M209.2,597.8c-0.3,0-0.5-0.2-0.5-0.5l-1.5-10.1c0-0.3,0.2-0.6,0.5-0.6s0.6,0.2,0.6,0.5l1.5,10.1
		C209.8,597.4,209.6,597.7,209.2,597.8L209.2,597.8z"/>
	<path fill="#231F20" d="M211.8,599c-0.3,0-0.5-0.2-0.6-0.5l-0.9-10.6c0-0.3,0.2-0.6,0.5-0.6s0.6,0.2,0.6,0.5l0.9,10.6
		C212.3,598.7,212.1,598.9,211.8,599L211.8,599z"/>
	<path fill="#231F20" d="M218.5,599.5L218.5,599.5c-0.3-0.2-0.6-0.3-0.6-0.6l0.2-10.6c0-0.3,0.2-0.6,0.6-0.6l0,0
		c0.3,0,0.5,0.2,0.5,0.5l-0.2,10.6C219,599.2,218.8,599.5,218.5,599.5z"/>
	<path fill="#231F20" d="M221.2,597.6L221.2,597.6c-0.4,0-0.6-0.3-0.5-0.6l0.8-9.4c0-0.3,0.3-0.5,0.6-0.5s0.5,0.3,0.5,0.6l-0.8,9.4
		C221.7,597.3,221.5,597.6,221.2,597.6z"/>
	
		<linearGradient id="SVGID_2_" gradientUnits="userSpaceOnUse" x1="941.5544" y1="2550.9165" x2="931.4239" y2="2543.7979" gradientTransform="matrix(0.227 0 0 0.227 4.653931e-02 -7.038116e-04)">
		<stop  offset="0" style="stop-color:#666666"/>
		<stop  offset="0.1834" style="stop-color:#787878;stop-opacity:0.8166"/>
		<stop  offset="0.5501" style="stop-color:#A6A6A6;stop-opacity:0.4499"/>
		<stop  offset="1" style="stop-color:#E6E6E6;stop-opacity:0"/>
	</linearGradient>
	<path fill="url(#SVGID_2_)" d="M213.3,581.1c0,0-2.8-0.5-3-0.9s0.7-1.7,1.5-1.7s4.2-0.4,5.4-0.1s1.2,0.3,1.2,0.3s-5.2,0.4-6.1,0.7
		C210.7,579.7,213.3,581.1,213.3,581.1z"/>
	<path fill="#CCCCCC" d="M212.2,580.5l1.2,0.3c0,0,1.8-1.4,3-1.8c1.2-0.4,2.3-0.3,2.3-0.3l-1.5-0.4c0,0-2.1-0.4-3.3,0.2
		C212.7,579.1,212.2,580.5,212.2,580.5z"/>
	<path fill="#231F20" d="M213.4,581.2C213.3,581.2,213.3,581.2,213.4,581.2l-1.3-0.4c-0.1,0-0.2-0.1-0.2-0.2c0-0.1,0-0.2,0-0.3
		s0.6-1.5,1.8-2.2c1.2-0.6,3.5-0.2,3.5-0.2l1.5,0.4c0.2,0,0.3,0.2,0.3,0.4s-0.2,0.3-0.4,0.3c0,0-1.1-0.1-2.2,0.3
		c-1.1,0.4-2.8,1.8-2.8,1.8C213.5,581.2,213.5,581.2,213.4,581.2z M212.7,580.3l0.6,0.2c0.5-0.3,1.9-1.4,2.9-1.8
		c0.1,0,0.1,0,0.2-0.1c-0.7-0.1-1.7-0.1-2.4,0.2C213.3,579.2,212.9,579.9,212.7,580.3z"/>
	<path fill="#B3B3B3" d="M222.2,585.4c0,0-3.4,0.9-8.1,0.9s-9.2-2-9.2-2l2.1,13.3c0,0,0.7,1.7,2.5,2.5c1.8,0.7,5.1,1.3,5.1,1.3
		s-2-1.5-2.3-5.7c-0.2-4.2,1.2-7,2.9-7.5S221.8,586.8,222.2,585.4z"/>
	<path d="M214.5,598.7V598c-1-0.2-1.6-0.7-1.8-2h1.1c0,0.4,0.2,1,0.6,1v-2.2c-1.3-0.7-1.9-1.4-2-2.6c-0.1-1.4,0.6-2.5,1.9-2.7v-0.8
		h0.9v0.8c1.4,0.2,2.1,1.4,2,2.8h-1.3c0-0.7-0.3-1.1-0.7-1.2v2.3c1.3,0.6,2.1,1.2,2,2.7c-0.1,1.1-0.9,1.8-2,1.8v0.7h-0.7V598.7z
		 M214.4,591.2c-0.4,0.1-0.6,0.4-0.6,0.9c0,0.4,0.2,0.7,0.6,1V591.2z M216,596.3c0-0.5-0.3-0.8-0.9-1.1v1.9
		C215.7,597.1,216,596.8,216,596.3z"/>
</g>
</svg>
