<?xml version="1.0" encoding="utf-8"?>
<!-- Generator: Adobe Illustrator 18.0.0, SVG Export Plug-In . SVG Version: 6.00 Build 0)  -->
<!DOCTYPE svg PUBLIC "-//W3C//DTD SVG 1.1//EN" "http://www.w3.org/Graphics/SVG/1.1/DTD/svg11.dtd">
<svg version="1.1" id="Layer_1" xmlns="http://www.w3.org/2000/svg" xmlns:xlink="http://www.w3.org/1999/xlink" x="0px" y="0px"
	 width="277.9px" height="792px" viewBox="0 0 277.9 792" enable-background="new 0 0 277.9 792" xml:space="preserve">
<g id="Layer_1_1_">
	<g>
		
			<linearGradient id="SVGID_1_" gradientUnits="userSpaceOnUse" x1="250.2223" y1="2682.3274" x2="141.2379" y2="2614.668" gradientTransform="matrix(0.227 0 0 0.227 4.653931e-02 -7.038116e-04)">
			<stop  offset="0" style="stop-color:#666666"/>
			<stop  offset="0.1397" style="stop-color:#6E6E6E;stop-opacity:0.8603"/>
			<stop  offset="0.3598" style="stop-color:#858585;stop-opacity:0.6402"/>
			<stop  offset="0.6326" style="stop-color:#AAAAAA;stop-opacity:0.3674"/>
			<stop  offset="0.9449" style="stop-color:#DCDCDC;stop-opacity:5.507749e-02"/>
			<stop  offset="1" style="stop-color:#E6E6E6;stop-opacity:0"/>
		</linearGradient>
		<path fill="url(#SVGID_1_)" d="M57.4,610.3c0,0-25.1-5-28.5-5.4s-3.5-5.6,6.8-9.7c7.6-3,14.1-1.3,16.5-0.6c3.1,0.9,13,5.8,13,5.8
			L57.4,610.3z"/>
		<g>
			<path fill="#939393" stroke="#000000" stroke-miterlimit="10" d="M51.3,592c0,0,13.2,4.8,20.3,0l-2.9,15.5l-4.2,2.8l-4.8-0.2
				l-5.1-1.1l-2.2-1.4L51.3,592z"/>
			<path fill="#231F20" d="M61.1,610.9c-4.4,0-8-2.2-8.6-4.3l0,0l-2.8-15.8h22.7l-2.7,15.8c-0.2,1-1.3,2.1-2.8,2.9
				C65.2,610.4,63.1,610.9,61.1,610.9z M53.8,606.3c0.4,1.2,3.1,3.3,7.3,3.3s7-2.2,7.3-3.3l2.5-14.3H51.3L53.8,606.3z"/>
		</g>
		<g>
			<ellipse fill="#CCCCCC" cx="61.1" cy="589.1" rx="11.3" ry="4.1"/>
			<path fill="#231F20" d="M61.1,593.8c-5.8,0-12-1.7-12-4.7s6.2-4.7,12-4.7s12,1.7,12,4.7S66.9,593.8,61.1,593.8z M61.1,585.6
				c-3,0-5.7,0.4-7.8,1.2c-1.8,0.7-2.9,1.5-2.9,2.3s1.1,1.6,2.9,2.3c2.1,0.7,4.8,1.2,7.8,1.2s5.7-0.4,7.8-1.2
				c1.8-0.7,2.9-1.5,2.9-2.3s-1.1-1.6-2.9-2.3C66.8,586,64,585.6,61.1,585.6z"/>
		</g>
		<g>
			<path fill="#231F20" d="M55.3,606.6c-0.3,0-0.5-0.2-0.5-0.5L53.2,596c0-0.3,0.2-0.6,0.5-0.6s0.6,0.2,0.6,0.5l1.5,10.1
				C55.9,606.3,55.7,606.6,55.3,606.6L55.3,606.6z"/>
		</g>
		<g>
			<path fill="#231F20" d="M57.9,607.8c-0.3,0-0.5-0.2-0.6-0.5l-0.9-10.6c0-0.3,0.2-0.6,0.5-0.6s0.6,0.2,0.6,0.5l0.9,10.6
				C58.4,607.5,58.2,607.8,57.9,607.8L57.9,607.8z"/>
		</g>
		<g>
			<path fill="#231F20" d="M64.5,608.4L64.5,608.4c-0.3-0.2-0.6-0.3-0.6-0.6l0.2-10.6c0-0.3,0.2-0.6,0.6-0.6l0,0
				c0.3,0,0.5,0.2,0.5,0.5L65,607.7C65.1,608.1,64.9,608.4,64.5,608.4z"/>
		</g>
		<g>
			<path fill="#231F20" d="M67.3,606.4L67.3,606.4c-0.4,0-0.6-0.3-0.5-0.6l0.8-9.4c0-0.3,0.3-0.5,0.6-0.5c0.3,0,0.5,0.3,0.5,0.6
				l-0.8,9.4C67.8,606.2,67.6,606.4,67.3,606.4z"/>
		</g>
		
			<linearGradient id="SVGID_2_" gradientUnits="userSpaceOnUse" x1="263.4657" y1="2590.0427" x2="253.3352" y2="2582.9241" gradientTransform="matrix(0.227 0 0 0.227 4.653931e-02 -7.038116e-04)">
			<stop  offset="0" style="stop-color:#666666"/>
			<stop  offset="0.1834" style="stop-color:#787878;stop-opacity:0.8166"/>
			<stop  offset="0.5501" style="stop-color:#A6A6A6;stop-opacity:0.4499"/>
			<stop  offset="1" style="stop-color:#E6E6E6;stop-opacity:0"/>
		</linearGradient>
		<path fill="url(#SVGID_2_)" d="M59.4,590c0,0-2.8-0.5-3-0.9s0.7-1.7,1.5-1.7c0.8-0.1,4.2-0.4,5.4-0.1c1.2,0.3,1.2,0.3,1.2,0.3
			s-5.2,0.4-6.1,0.7C56.8,588.5,59.4,590,59.4,590z"/>
		<g>
			<path fill="#CCCCCC" d="M58.3,589.4l1.2,0.3c0,0,1.8-1.4,3-1.8c1.2-0.4,2.3-0.3,2.3-0.3l-1.5-0.4c0,0-2.1-0.4-3.3,0.2
				C58.7,588,58.3,589.4,58.3,589.4z"/>
			<path fill="#231F20" d="M59.5,590.1C59.4,590.1,59.4,590.1,59.5,590.1l-1.3-0.4c-0.1,0-0.2-0.1-0.2-0.2c0-0.1,0-0.2,0-0.3
				s0.6-1.5,1.8-2.2c1.2-0.6,3.5-0.2,3.5-0.2l1.5,0.4c0.2,0,0.3,0.2,0.3,0.4s-0.2,0.3-0.4,0.3c0,0-1.1-0.1-2.2,0.3
				c-1.1,0.4-2.8,1.8-2.8,1.8C59.6,590.1,59.6,590.1,59.5,590.1z M58.8,589.1l0.6,0.2c0.5-0.3,1.9-1.4,2.9-1.8c0.1,0,0.1,0,0.2-0.1
				c-0.7-0.1-1.7-0.1-2.4,0.2C59.4,588.1,59,588.7,58.8,589.1z"/>
		</g>
		<path fill="#B3B3B3" d="M68.3,594.3c0,0-3.4,0.9-8.1,0.9s-9.2-2-9.2-2l2.1,13.3c0,0,0.7,1.7,2.5,2.5c1.8,0.7,5.1,1.3,5.1,1.3
			s-2-1.5-2.3-5.7c-0.2-4.2,1.2-7,2.9-7.5C63,596.6,67.9,595.6,68.3,594.3z"/>
		<g>
			<path d="M60.7,607.5v-0.7c-1-0.2-1.6-0.7-1.8-2H60c0,0.4,0.2,1,0.6,1v-2.2c-1.3-0.7-1.9-1.4-2-2.6c-0.1-1.4,0.6-2.5,1.9-2.7v-0.8
				h0.9v0.8c1.4,0.2,2.1,1.4,2,2.8H62c0-0.7-0.3-1.1-0.7-1.2v2.3c1.3,0.6,2.1,1.2,2,2.7c-0.1,1.1-0.9,1.8-2,1.8v0.7L60.7,607.5
				L60.7,607.5z M60.5,600c-0.4,0.1-0.6,0.4-0.6,0.9c0,0.4,0.2,0.7,0.6,1V600z M62.1,605.1c0-0.5-0.3-0.8-0.9-1.1v1.9
				C61.8,605.9,62.1,605.5,62.1,605.1z"/>
		</g>
	</g>
</g>
</svg>
