<?xml version="1.0" encoding="utf-8"?>
<!-- Generator: Adobe Illustrator 18.0.0, SVG Export Plug-In . SVG Version: 6.00 Build 0)  -->
<!DOCTYPE svg PUBLIC "-//W3C//DTD SVG 1.1//EN" "http://www.w3.org/Graphics/SVG/1.1/DTD/svg11.dtd">
<svg version="1.1" id="Layer_1" xmlns="http://www.w3.org/2000/svg" xmlns:xlink="http://www.w3.org/1999/xlink" x="0px" y="0px"
	 width="277.9px" height="792px" viewBox="0 0 277.9 792" enable-background="new 0 0 277.9 792" xml:space="preserve">
<g id="Layer_1_1_">
	<g>
		
			<linearGradient id="SVGID_1_" gradientUnits="userSpaceOnUse" x1="396.2516" y1="2665.28" x2="287.2673" y2="2597.6206" gradientTransform="matrix(0.227 0 0 0.227 4.653931e-02 -7.038116e-04)">
			<stop  offset="0" style="stop-color:#666666"/>
			<stop  offset="0.1397" style="stop-color:#6E6E6E;stop-opacity:0.8603"/>
			<stop  offset="0.3598" style="stop-color:#858585;stop-opacity:0.6402"/>
			<stop  offset="0.6326" style="stop-color:#AAAAAA;stop-opacity:0.3674"/>
			<stop  offset="0.9449" style="stop-color:#DCDCDC;stop-opacity:5.507749e-02"/>
			<stop  offset="1" style="stop-color:#E6E6E6;stop-opacity:0"/>
		</linearGradient>
		<path fill="url(#SVGID_1_)" d="M90.5,606.4c0,0-25.1-5-28.5-5.4s-3.5-5.6,6.8-9.7c7.6-3,14.1-1.3,16.5-0.6c3.1,0.9,13,5.8,13,5.8
			L90.5,606.4z"/>
		<g>
			<path fill="#939393" stroke="#000000" stroke-miterlimit="10" d="M83.8,588.6c0,0,14.7,3.6,21.8-1.2l-3.4,16.5l-5,2.7h-4.8
				l-3.9-1.1l-2.1-2.5L83.8,588.6z"/>
			<path fill="#231F20" d="M94.2,607.1c-4.4,0-8-2.2-8.6-4.3l0,0L82.8,587h22.7l-2.7,15.8c-0.2,1-1.3,2.1-2.8,2.9
				C98.3,606.6,96.3,607.1,94.2,607.1z M86.9,602.4c0.4,1.2,3.1,3.3,7.3,3.3c4.2,0,7-2.2,7.3-3.3l2.5-14.3H84.4L86.9,602.4z"/>
		</g>
		<g>
			<ellipse fill="#CCCCCC" cx="94.2" cy="585.2" rx="11.3" ry="4.1"/>
			<path fill="#231F20" d="M94.2,589.9c-5.8,0-12-1.7-12-4.7c0-3.1,6.2-4.7,12-4.7s12,1.7,12,4.7C106.2,588.3,100,589.9,94.2,589.9z
				 M94.2,581.8c-3,0-5.7,0.4-7.8,1.2c-1.8,0.7-2.9,1.5-2.9,2.3s1.1,1.6,2.9,2.3c2.1,0.7,4.8,1.2,7.8,1.2s5.7-0.4,7.8-1.2
				c1.8-0.7,2.9-1.5,2.9-2.3s-1.1-1.6-2.9-2.3C99.9,582.2,97.2,581.8,94.2,581.8z"/>
		</g>
		<g>
			<path fill="#231F20" d="M88.4,602.8c-0.3,0-0.5-0.2-0.5-0.5l-1.5-10.1c0-0.3,0.2-0.6,0.5-0.6s0.6,0.2,0.6,0.5l1.5,10.1
				C89,602.4,88.8,602.7,88.4,602.8C88.5,602.8,88.4,602.8,88.4,602.8z"/>
		</g>
		<g>
			<path fill="#231F20" d="M91,604c-0.3,0-0.5-0.2-0.6-0.5l-0.9-10.6c0-0.3,0.2-0.6,0.5-0.6s0.6,0.2,0.6,0.5l0.9,10.6
				C91.6,603.7,91.3,603.9,91,604L91,604z"/>
		</g>
		<g>
			<path fill="#231F20" d="M97.7,604.5L97.7,604.5c-0.3-0.2-0.6-0.3-0.6-0.6l0.2-10.6c0-0.3,0.2-0.6,0.6-0.6l0,0
				c0.3,0,0.5,0.2,0.5,0.5l-0.2,10.6C98.3,604.2,98,604.5,97.7,604.5z"/>
		</g>
		<g>
			<path fill="#231F20" d="M100.5,602.5C100.4,602.5,100.4,602.5,100.5,602.5c-0.4,0-0.6-0.3-0.5-0.6l0.8-9.4c0-0.3,0.3-0.5,0.6-0.5
				s0.5,0.3,0.5,0.6L101,602C101,602.3,100.7,602.5,100.5,602.5z"/>
		</g>
		
			<linearGradient id="SVGID_2_" gradientUnits="userSpaceOnUse" x1="409.4895" y1="2573.0088" x2="399.359" y2="2565.8901" gradientTransform="matrix(0.227 0 0 0.227 4.653931e-02 -7.038116e-04)">
			<stop  offset="0" style="stop-color:#666666"/>
			<stop  offset="0.1834" style="stop-color:#787878;stop-opacity:0.8166"/>
			<stop  offset="0.5501" style="stop-color:#A6A6A6;stop-opacity:0.4499"/>
			<stop  offset="1" style="stop-color:#E6E6E6;stop-opacity:0"/>
		</linearGradient>
		<path fill="url(#SVGID_2_)" d="M92.5,586.1c0,0-2.8-0.5-3-0.9s0.7-1.7,1.5-1.7s4.2-0.4,5.4-0.1c1.2,0.3,1.2,0.3,1.2,0.3
			s-5.2,0.4-6.1,0.7C89.9,584.7,92.5,586.1,92.5,586.1z"/>
		<g>
			<path fill="#CCCCCC" d="M91.4,585.5l1.2,0.3c0,0,1.8-1.4,3-1.8c1.2-0.4,2.3-0.3,2.3-0.3l-1.5-0.4c0,0-2.1-0.4-3.3,0.2
				S91.4,585.5,91.4,585.5z"/>
			<path fill="#231F20" d="M92.6,586.2C92.6,586.2,92.5,586.2,92.6,586.2l-1.3-0.4c-0.1,0-0.2-0.1-0.2-0.2c0-0.1,0-0.2,0-0.3
				s0.6-1.5,1.8-2.2c1.2-0.6,3.5-0.2,3.5-0.2l1.5,0.4c0.2,0,0.3,0.2,0.3,0.4S98,584,97.8,584c0,0-1.1-0.1-2.2,0.3
				c-1.1,0.4-2.8,1.8-2.8,1.8C92.8,586.2,92.7,586.2,92.6,586.2z M91.9,585.3l0.6,0.2c0.5-0.3,1.9-1.4,2.9-1.8c0.1,0,0.1,0,0.2-0.1
				c-0.7-0.1-1.7-0.1-2.4,0.2C92.6,584.2,92.2,584.9,91.9,585.3z"/>
		</g>
		<path fill="#B3B3B3" d="M101.4,590.4c0,0-3.4,0.9-8.1,0.9s-9.2-2-9.2-2l2.1,13.3c0,0,0.7,1.7,2.5,2.5c1.8,0.7,5.1,1.3,5.1,1.3
			s-2-1.5-2.3-5.7c-0.2-4.2,1.2-7,2.9-7.5C96.2,592.7,101.1,591.8,101.4,590.4z"/>
		<g>
			<path d="M93.8,603.4v-0.7c-1-0.2-1.6-0.7-1.8-2h1.1c0,0.4,0.2,1,0.6,1v-2.2c-1.3-0.7-1.9-1.4-2-2.6c-0.1-1.4,0.6-2.5,1.9-2.7
				v-0.8h0.9v0.8c1.4,0.2,2.1,1.4,2,2.8h-1.3c0-0.7-0.3-1.1-0.7-1.2v2.3c1.3,0.6,2.1,1.2,2,2.7c-0.1,1.1-0.9,1.8-2,1.8v0.7
				L93.8,603.4L93.8,603.4z M93.6,595.8c-0.4,0.1-0.6,0.4-0.6,0.9c0,0.4,0.2,0.7,0.6,1V595.8z M95.3,600.9c0-0.5-0.3-0.8-0.9-1.1
				v1.9C94.9,601.8,95.2,601.4,95.3,600.9z"/>
		</g>
	</g>
</g>
</svg>
