<?xml version="1.0" encoding="utf-8"?>
<!-- Generator: Adobe Illustrator 18.0.0, SVG Export Plug-In . SVG Version: 6.00 Build 0)  -->
<!DOCTYPE svg PUBLIC "-//W3C//DTD SVG 1.1//EN" "http://www.w3.org/Graphics/SVG/1.1/DTD/svg11.dtd">
<svg version="1.1" id="Layer_1" xmlns="http://www.w3.org/2000/svg" xmlns:xlink="http://www.w3.org/1999/xlink" x="0px" y="0px"
	 width="277.9px" height="792px" viewBox="0 0 277.9 792" enable-background="new 0 0 277.9 792" xml:space="preserve">
<g id="Layer_1_1_">
	<g>
		
			<linearGradient id="SVGID_1_" gradientUnits="userSpaceOnUse" x1="116.2837" y1="2642.2285" x2="7.2993" y2="2574.5691" gradientTransform="matrix(0.227 0 0 0.227 4.653931e-02 -7.038116e-04)">
			<stop  offset="0" style="stop-color:#666666"/>
			<stop  offset="0.1397" style="stop-color:#6E6E6E;stop-opacity:0.8603"/>
			<stop  offset="0.3598" style="stop-color:#858585;stop-opacity:0.6402"/>
			<stop  offset="0.6326" style="stop-color:#AAAAAA;stop-opacity:0.3674"/>
			<stop  offset="0.9449" style="stop-color:#DCDCDC;stop-opacity:5.507749e-02"/>
			<stop  offset="1" style="stop-color:#E6E6E6;stop-opacity:0"/>
		</linearGradient>
		<path fill="url(#SVGID_1_)" d="M27,601.2c0,0-25.1-5-28.5-5.4s-3.5-5.6,6.8-9.7c7.6-3,14.1-1.3,16.5-0.6c3.1,0.9,13,5.8,13,5.8
			L27,601.2z"/>
		<g>
			<path fill="#939393" stroke="#000000" stroke-miterlimit="10" d="M19.6,583.1c0,0,14.7,4.8,21.8,0l-2.7,15.7l-5,2.7h-3.1
				c-1.1,0-2.3-0.2-3.3-0.5l-2.3-0.7h0c-1.4-1.6-2.3-3.6-2.7-5.7L19.6,583.1z"/>
			<path fill="#231F20" d="M30.7,601.8c-4.4,0-8-2.2-8.6-4.3l0,0l-2.8-15.8H42l-2.7,15.8c-0.2,1-1.3,2.1-2.8,2.9
				C34.8,601.4,32.7,601.8,30.7,601.8z M23.4,597.2c0.4,1.2,3.1,3.3,7.3,3.3s7-2.2,7.3-3.3l2.5-14.3H20.8L23.4,597.2z"/>
		</g>
		<g>
			<path fill="#231F20" d="M30.6,586.7c-3.1,0-6-0.5-8.2-1.2c-2.4-0.9-3.7-2.1-3.7-3.5v-2.5h23.9v2.5
				C42.6,585.1,36.4,586.7,30.6,586.7z M20,580.7v1.3c0,1.6,4.5,3.5,10.6,3.5c6.3,0,10.6-1.8,10.7-3.5v-1.3H20L20,580.7z"/>
		</g>
		<g>
			<ellipse fill="#CCCCCC" cx="30.7" cy="580" rx="11.3" ry="4.1"/>
			<path fill="#231F20" d="M30.7,584.7c-5.8,0-12-1.7-12-4.7s6.2-4.7,12-4.7s12,1.7,12,4.7S36.5,584.7,30.7,584.7z M30.7,576.6
				c-3,0-5.7,0.4-7.8,1.2c-1.8,0.7-2.9,1.5-2.9,2.3s1.1,1.6,2.9,2.3c2.1,0.7,4.8,1.2,7.8,1.2s5.7-0.4,7.8-1.2
				c1.8-0.7,2.9-1.5,2.9-2.3s-1.1-1.6-2.9-2.3C36.4,577,33.6,576.6,30.7,576.6z"/>
		</g>
		<g>
			<path fill="#231F20" d="M24.8,597.6c-0.3,0-0.5-0.2-0.5-0.5L22.8,587c0-0.3,0.2-0.6,0.5-0.6s0.6,0.2,0.6,0.5l1.5,10.1
				C25.5,597.2,25.3,597.5,24.8,597.6C24.9,597.6,24.9,597.6,24.8,597.6z"/>
		</g>
		<g>
			<path fill="#231F20" d="M27.4,598.8c-0.3,0-0.5-0.2-0.6-0.5L26,587.7c0-0.3,0.2-0.6,0.5-0.6s0.6,0.2,0.6,0.5l0.9,10.6
				C28,598.4,27.8,598.7,27.4,598.8C27.5,598.8,27.5,598.8,27.4,598.8z"/>
		</g>
		<g>
			<path fill="#231F20" d="M34.1,599.3L34.1,599.3c-0.3-0.2-0.6-0.3-0.6-0.6l0.2-10.6c0-0.3,0.2-0.6,0.6-0.6l0,0
				c0.3,0,0.5,0.2,0.5,0.5l-0.2,10.6C34.7,599,34.4,599.3,34.1,599.3z"/>
		</g>
		<g>
			<path fill="#231F20" d="M36.9,597.3L36.9,597.3c-0.4,0-0.6-0.3-0.5-0.6l0.8-9.4c0-0.3,0.3-0.5,0.6-0.5s0.5,0.3,0.5,0.6l-0.8,9.4
				C37.4,597.1,37.2,597.3,36.9,597.3z"/>
		</g>
		
			<linearGradient id="SVGID_2_" gradientUnits="userSpaceOnUse" x1="129.5333" y1="2549.9465" x2="119.4028" y2="2542.8279" gradientTransform="matrix(0.227 0 0 0.227 4.653931e-02 -7.038116e-04)">
			<stop  offset="0" style="stop-color:#666666"/>
			<stop  offset="0.1834" style="stop-color:#787878;stop-opacity:0.8166"/>
			<stop  offset="0.5501" style="stop-color:#A6A6A6;stop-opacity:0.4499"/>
			<stop  offset="1" style="stop-color:#E6E6E6;stop-opacity:0"/>
		</linearGradient>
		<path fill="url(#SVGID_2_)" d="M29,580.9c0,0-2.8-0.5-3-0.9s0.7-1.7,1.5-1.7c0.8-0.1,4.2-0.4,5.4-0.1c1.2,0.3,1.2,0.3,1.2,0.3
			s-5.2,0.4-6.1,0.7C26.4,579.5,29,580.9,29,580.9z"/>
		<g>
			<path fill="#CCCCCC" d="M27.8,580.3l1.2,0.3c0,0,1.8-1.4,3-1.8c1.2-0.4,2.3-0.3,2.3-0.3l-1.5-0.4c0,0-2.1-0.4-3.3,0.2
				C28.3,578.9,27.8,580.3,27.8,580.3z"/>
			<path fill="#231F20" d="M29,581L29,581l-1.3-0.4c-0.1,0-0.2-0.1-0.2-0.2c0-0.1,0-0.2,0-0.3s0.6-1.5,1.8-2.2
				c1.2-0.6,3.5-0.2,3.5-0.2l1.5,0.4c0.2,0,0.3,0.2,0.3,0.4s-0.2,0.3-0.4,0.3c0,0-1.1-0.1-2.2,0.3c-1.1,0.4-2.8,1.8-2.8,1.8
				C29.2,581,29.1,581,29,581z M28.4,580.1l0.6,0.2c0.5-0.3,1.9-1.4,2.9-1.8c0.1,0,0.1,0,0.2-0.1c-0.7-0.1-1.7-0.1-2.4,0.2
				C29,579,28.6,579.6,28.4,580.1z"/>
		</g>
		<path fill="#B3B3B3" d="M37.9,585.2c0,0-3.4,0.9-8.1,0.9s-9.2-2-9.2-2l2.1,13.3c0,0,0.7,1.7,2.5,2.5c1.8,0.7,5.1,1.3,5.1,1.3
			s-2-1.5-2.3-5.7c-0.2-4.2,1.2-7,2.9-7.5C32.6,587.5,37.5,586.6,37.9,585.2z"/>
		<g>
			<path d="M30.3,598.8v-0.7c-1-0.2-1.6-0.7-1.8-2h1.1c0,0.4,0.2,1,0.6,1v-2.2c-1.3-0.7-1.9-1.4-2-2.6c-0.1-1.4,0.6-2.5,1.9-2.7
				v-0.8H31v0.8c1.4,0.2,2.1,1.4,2,2.8h-1.3c0-0.7-0.3-1.1-0.7-1.2v2.3c1.3,0.6,2.1,1.2,2,2.7c-0.1,1.1-0.9,1.8-2,1.8v0.7
				L30.3,598.8L30.3,598.8z M30.2,591.2c-0.4,0.1-0.6,0.4-0.6,0.9c0,0.4,0.2,0.7,0.6,1V591.2z M31.8,596.3c0-0.5-0.3-0.8-0.9-1.1
				v1.9C31.4,597.1,31.8,596.8,31.8,596.3z"/>
		</g>
	</g>
</g>
</svg>
