<?xml version="1.0" encoding="utf-8"?>
<!-- Generator: Adobe Illustrator 18.0.0, SVG Export Plug-In . SVG Version: 6.00 Build 0)  -->
<!DOCTYPE svg PUBLIC "-//W3C//DTD SVG 1.1//EN" "http://www.w3.org/Graphics/SVG/1.1/DTD/svg11.dtd">
<svg version="1.1" id="Layer_1" xmlns="http://www.w3.org/2000/svg" xmlns:xlink="http://www.w3.org/1999/xlink" x="0px" y="0px"
	 width="277.9px" height="792px" viewBox="0 0 277.9 792" enable-background="new 0 0 277.9 792" xml:space="preserve">
<g id="Layer_1_1_">
	<g>
		
			<linearGradient id="SVGID_1_" gradientUnits="userSpaceOnUse" x1="326.3103" y1="-1813.1857" x2="217.3259" y2="-1745.5262" gradientTransform="matrix(0.227 0 0 -0.227 4.653931e-02 179.7833)">
			<stop  offset="0" style="stop-color:#666666"/>
			<stop  offset="0.1397" style="stop-color:#6E6E6E;stop-opacity:0.8603"/>
			<stop  offset="0.3598" style="stop-color:#858585;stop-opacity:0.6402"/>
			<stop  offset="0.6326" style="stop-color:#AAAAAA;stop-opacity:0.3674"/>
			<stop  offset="0.9449" style="stop-color:#DCDCDC;stop-opacity:5.507749e-02"/>
			<stop  offset="1" style="stop-color:#E6E6E6;stop-opacity:0"/>
		</linearGradient>
		<path fill="url(#SVGID_1_)" d="M74.7,592.8c0,0-25.1-5-28.5-5.4s-3.5-5.6,6.8-9.7c7.6-3,14.1-1.3,16.5-0.6c3.1,0.9,13,5.8,13,5.8
			L74.7,592.8z"/>
		<g>
			<path fill="#939393" stroke="#000000" stroke-miterlimit="10" d="M67.9,575c0,0,14.7,3.6,21.8-1.2l-3.4,16.5l-5,2.7h-4.8
				l-3.9-1.1l-2.1-2.5L67.9,575z"/>
			<path fill="#231F20" d="M78.3,593.4c-4.4,0-8-2.2-8.6-4.3l0,0l-2.8-15.8h22.7l-2.7,15.8c-0.2,1-1.3,2.1-2.8,2.9
				C82.5,593,80.4,593.4,78.3,593.4z M71,588.8c0.4,1.2,3.1,3.3,7.3,3.3c4.2,0,7-2.2,7.3-3.3l2.5-14.3H68.5L71,588.8z"/>
		</g>
		<g>
			<ellipse fill="#CCCCCC" cx="78.3" cy="571.6" rx="11.3" ry="4.1"/>
			<path fill="#231F20" d="M78.3,576.3c-5.8,0-12-1.7-12-4.7s6.2-4.7,12-4.7s12,1.7,12,4.7S84.1,576.3,78.3,576.3z M78.3,568.2
				c-3,0-5.7,0.4-7.8,1.2c-1.8,0.7-2.9,1.5-2.9,2.3s1.1,1.6,2.9,2.3c2.1,0.7,4.8,1.2,7.8,1.2s5.7-0.4,7.8-1.2
				c1.8-0.7,2.9-1.5,2.9-2.3s-1.1-1.6-2.9-2.3C84,568.6,81.3,568.2,78.3,568.2z"/>
		</g>
		<g>
			<path fill="#231F20" d="M72.5,589.2c-0.3,0-0.5-0.2-0.5-0.5l-1.5-10.1c0-0.3,0.2-0.6,0.5-0.6s0.6,0.2,0.6,0.5l1.5,10.1
				C73.1,588.8,72.9,589.1,72.5,589.2C72.6,589.2,72.5,589.2,72.5,589.2z"/>
		</g>
		<g>
			<path fill="#231F20" d="M75.1,590.4c-0.3,0-0.5-0.2-0.6-0.5l-0.9-10.6c0-0.3,0.2-0.6,0.5-0.6s0.6,0.2,0.6,0.5l0.9,10.6
				C75.7,590,75.4,590.3,75.1,590.4L75.1,590.4z"/>
		</g>
		<g>
			<path fill="#231F20" d="M81.8,590.9L81.8,590.9c-0.3-0.2-0.6-0.3-0.6-0.6l0.2-10.6c0-0.3,0.2-0.6,0.6-0.6l0,0
				c0.3,0,0.5,0.2,0.5,0.5l-0.2,10.6C82.4,590.6,82.1,590.9,81.8,590.9z"/>
		</g>
		<g>
			<path fill="#231F20" d="M84.6,588.9C84.5,588.9,84.5,588.9,84.6,588.9c-0.4,0-0.6-0.3-0.5-0.6l0.8-9.4c0-0.3,0.3-0.5,0.6-0.5
				c0.3,0,0.5,0.3,0.5,0.6l-0.8,9.4C85.1,588.7,84.8,588.9,84.6,588.9z"/>
		</g>
		
			<linearGradient id="SVGID_2_" gradientUnits="userSpaceOnUse" x1="339.4189" y1="-1721.1093" x2="329.2884" y2="-1713.9906" gradientTransform="matrix(0.227 0 0 -0.227 4.653931e-02 179.7833)">
			<stop  offset="0" style="stop-color:#666666"/>
			<stop  offset="0.1834" style="stop-color:#787878;stop-opacity:0.8166"/>
			<stop  offset="0.5501" style="stop-color:#A6A6A6;stop-opacity:0.4499"/>
			<stop  offset="1" style="stop-color:#E6E6E6;stop-opacity:0"/>
		</linearGradient>
		<path fill="url(#SVGID_2_)" d="M76.6,572.5c0,0-2.8-0.5-3-0.9s0.7-1.7,1.5-1.7c0.8-0.1,4.2-0.4,5.4-0.1c1.2,0.3,1.2,0.3,1.2,0.3
			s-5.2,0.4-6.1,0.7C74,571.1,76.6,572.5,76.6,572.5z"/>
		<g>
			<path fill="#CCCCCC" d="M75.5,571.9l1.2,0.3c0,0,1.8-1.4,3-1.8c1.2-0.4,2.3-0.3,2.3-0.3l-1.5-0.4c0,0-2.1-0.4-3.3,0.2
				C76,570.5,75.5,571.9,75.5,571.9z"/>
			<path fill="#231F20" d="M76.7,572.6C76.7,572.6,76.6,572.6,76.7,572.6l-1.3-0.4c-0.1,0-0.2-0.1-0.2-0.2c0-0.1,0-0.2,0-0.3
				s0.6-1.5,1.8-2.2c1.2-0.6,3.5-0.2,3.5-0.2l1.5,0.4c0.2,0,0.3,0.2,0.3,0.4s-0.2,0.3-0.4,0.3c0,0-1.1-0.1-2.2,0.3
				c-1.1,0.4-2.8,1.8-2.8,1.8C76.9,572.6,76.8,572.6,76.7,572.6z M76,571.7l0.6,0.2c0.5-0.3,1.9-1.4,2.9-1.8c0.1,0,0.1,0,0.2-0.1
				c-0.7-0.1-1.7-0.1-2.4,0.2C76.7,570.6,76.3,571.2,76,571.7z"/>
		</g>
		<path fill="#B3B3B3" d="M85.5,576.8c0,0-3.4,0.9-8.1,0.9s-9.2-2-9.2-2l2.1,13.3c0,0,0.7,1.7,2.5,2.5c1.8,0.7,5.1,1.3,5.1,1.3
			s-2-1.5-2.3-5.7c-0.2-4.2,1.2-7,2.9-7.5C80.3,579.1,85.2,578.2,85.5,576.8z"/>
		<g>
			<path d="M78,590v-0.7c-1-0.2-1.6-0.7-1.8-2h1.1c0,0.4,0.2,1,0.6,1v-2.2c-1.3-0.7-1.9-1.4-2-2.6c-0.1-1.4,0.6-2.5,1.9-2.7V580h0.9
				v0.8c1.4,0.2,2.1,1.4,2,2.8h-1.3c0-0.7-0.3-1.1-0.7-1.2v2.3c1.3,0.6,2.1,1.2,2,2.7c-0.1,1.1-0.9,1.8-2,1.8v0.7L78,590L78,590z
				 M77.8,582.5c-0.4,0.1-0.6,0.4-0.6,0.9c0,0.4,0.2,0.7,0.6,1V582.5z M79.5,587.6c0-0.5-0.3-0.8-0.9-1.1v1.9
				C79.1,588.4,79.4,588,79.5,587.6z"/>
		</g>
	</g>
</g>
</svg>
