<?xml version="1.0" encoding="utf-8"?>
<!-- Generator: Adobe Illustrator 18.0.0, SVG Export Plug-In . SVG Version: 6.00 Build 0)  -->
<!DOCTYPE svg PUBLIC "-//W3C//DTD SVG 1.1//EN" "http://www.w3.org/Graphics/SVG/1.1/DTD/svg11.dtd">
<svg version="1.1" id="Layer_1" xmlns="http://www.w3.org/2000/svg" xmlns:xlink="http://www.w3.org/1999/xlink" x="0px" y="0px"
	 width="277.9px" height="792px" viewBox="0 0 277.9 792" enable-background="new 0 0 277.9 792" xml:space="preserve">
<g id="Layer_1_1_">
	<g>
		
			<linearGradient id="SVGID_1_" gradientUnits="userSpaceOnUse" x1="147.2977" y1="2732.2061" x2="38.3133" y2="2664.5466" gradientTransform="matrix(0.227 0 0 0.227 4.653931e-02 -7.038116e-04)">
			<stop  offset="0" style="stop-color:#666666"/>
			<stop  offset="0.1397" style="stop-color:#6E6E6E;stop-opacity:0.8603"/>
			<stop  offset="0.3598" style="stop-color:#858585;stop-opacity:0.6402"/>
			<stop  offset="0.6326" style="stop-color:#AAAAAA;stop-opacity:0.3674"/>
			<stop  offset="0.9449" style="stop-color:#DCDCDC;stop-opacity:5.507749e-02"/>
			<stop  offset="1" style="stop-color:#E6E6E6;stop-opacity:0"/>
		</linearGradient>
		<path fill="url(#SVGID_1_)" d="M34,621.6c0,0-25.1-5-28.5-5.4s-3.5-5.6,6.8-9.7c7.6-3,14.1-1.3,16.5-0.6c3.1,0.9,13,5.8,13,5.8
			L34,621.6z"/>
		<g>
			<path fill="#939393" stroke="#000000" stroke-miterlimit="10" d="M27.6,603.1c0,0,13.2,4.8,20.3,0L45,618.6l-4.2,2.8l-4.8-0.2
				l-5.1-1.1l-2.2-1.4L27.6,603.1z"/>
			<path fill="#231F20" d="M37.7,622.3c-4.4,0-8-2.2-8.6-4.3l0,0l-2.8-15.8H49L46.3,618c-0.2,1-1.3,2.1-2.8,2.9
				C41.8,621.8,39.8,622.3,37.7,622.3z M30.4,617.6c0.4,1.2,3.1,3.3,7.3,3.3s7-2.2,7.3-3.3l2.5-14.3H27.9L30.4,617.6z"/>
		</g>
		<g>
			<ellipse fill="#CCCCCC" cx="37.7" cy="600.4" rx="11.3" ry="4.1"/>
			<path fill="#231F20" d="M37.7,605.2c-5.8,0-12-1.7-12-4.7s6.2-4.7,12-4.7s12,1.7,12,4.7S43.5,605.2,37.7,605.2z M37.7,597
				c-3,0-5.7,0.4-7.8,1.2c-1.8,0.7-2.9,1.5-2.9,2.3s1.1,1.6,2.9,2.3c2.1,0.7,4.8,1.2,7.8,1.2s5.7-0.4,7.8-1.2
				c1.8-0.7,2.9-1.5,2.9-2.3s-1.1-1.6-2.9-2.3C43.4,597.4,40.6,597,37.7,597z"/>
		</g>
		<g>
			<path fill="#231F20" d="M31.9,618c-0.3,0-0.5-0.2-0.5-0.5l-1.5-10.1c0-0.3,0.2-0.6,0.5-0.6s0.6,0.2,0.6,0.5l1.5,10.1
				C32.5,617.6,32.3,617.9,31.9,618L31.9,618z"/>
		</g>
		<g>
			<path fill="#231F20" d="M34.5,619.2c-0.3,0-0.5-0.2-0.6-0.5L33,608.1c0-0.3,0.2-0.6,0.5-0.6s0.6,0.2,0.6,0.5l0.9,10.6
				C35,618.9,34.8,619.1,34.5,619.2L34.5,619.2z"/>
		</g>
		<g>
			<path fill="#231F20" d="M41.2,619.7L41.2,619.7c-0.3-0.2-0.6-0.3-0.6-0.6l0.2-10.6c0-0.3,0.2-0.6,0.6-0.6l0,0
				c0.3,0,0.5,0.2,0.5,0.5L41.7,619C41.7,619.4,41.5,619.7,41.2,619.7z"/>
		</g>
		<g>
			<path fill="#231F20" d="M43.9,617.8L43.9,617.8c-0.4,0-0.6-0.3-0.5-0.6l0.8-9.4c0-0.3,0.3-0.5,0.6-0.5s0.5,0.3,0.5,0.6l-0.8,9.4
				C44.5,617.6,44.2,617.8,43.9,617.8z"/>
		</g>
		
			<linearGradient id="SVGID_2_" gradientUnits="userSpaceOnUse" x1="160.5416" y1="2639.9346" x2="150.4111" y2="2632.8159" gradientTransform="matrix(0.227 0 0 0.227 4.653931e-02 -7.038116e-04)">
			<stop  offset="0" style="stop-color:#666666"/>
			<stop  offset="0.1834" style="stop-color:#787878;stop-opacity:0.8166"/>
			<stop  offset="0.5501" style="stop-color:#A6A6A6;stop-opacity:0.4499"/>
			<stop  offset="1" style="stop-color:#E6E6E6;stop-opacity:0"/>
		</linearGradient>
		<path fill="url(#SVGID_2_)" d="M36,601.3c0,0-2.8-0.5-3-0.9s0.7-1.7,1.5-1.7c0.8-0.1,4.2-0.4,5.4-0.1c1.2,0.3,1.2,0.3,1.2,0.3
			s-5.2,0.4-6.1,0.7C33.4,599.9,36,601.3,36,601.3z"/>
		<g>
			<path fill="#CCCCCC" d="M34.9,600.7l1.2,0.3c0,0,1.8-1.4,3-1.8c1.2-0.4,2.3-0.3,2.3-0.3l-1.5-0.4c0,0-2.1-0.4-3.3,0.2
				C35.4,599.3,34.9,600.7,34.9,600.7z"/>
			<path fill="#231F20" d="M36.1,601.4C36,601.4,36,601.4,36.1,601.4l-1.3-0.4c-0.1,0-0.2-0.1-0.2-0.2s0-0.2,0-0.3s0.6-1.5,1.8-2.2
				c1.2-0.6,3.5-0.2,3.5-0.2l1.5,0.4c0.2,0,0.3,0.2,0.3,0.4s-0.2,0.3-0.4,0.3c0,0-1.1-0.1-2.2,0.3c-1.1,0.4-2.8,1.8-2.8,1.8
				C36.2,601.4,36.2,601.4,36.1,601.4z M35.4,600.5l0.6,0.2c0.5-0.3,1.9-1.4,2.9-1.8c0.1,0,0.1,0,0.2-0.1c-0.7-0.1-1.7-0.1-2.4,0.2
				C36,599.4,35.6,600.1,35.4,600.5z"/>
		</g>
		<path fill="#B3B3B3" d="M44.9,605.6c0,0-3.4,0.9-8.1,0.9s-9.2-2-9.2-2l2.1,13.3c0,0,0.7,1.7,2.5,2.5c1.8,0.7,5.1,1.3,5.1,1.3
			s-2-1.5-2.3-5.7c-0.2-4.2,1.2-7,2.9-7.5C39.6,607.9,44.6,607,44.9,605.6z"/>
		<g>
			<path d="M37.3,619.2v-0.7c-1-0.2-1.6-0.7-1.8-2h1.1c0,0.4,0.2,1,0.6,1v-2.2c-1.3-0.7-1.9-1.4-2-2.6c-0.1-1.4,0.6-2.5,1.9-2.7
				v-0.8H38v0.8c1.4,0.2,2.1,1.4,2,2.8h-1.3c0-0.7-0.3-1.1-0.7-1.2v2.3c1.3,0.6,2.1,1.2,2,2.7c-0.1,1.1-0.9,1.8-2,1.8v0.7
				L37.3,619.2L37.3,619.2z M37.1,611.6c-0.4,0.1-0.6,0.4-0.6,0.9c0,0.4,0.2,0.7,0.6,1V611.6z M38.8,616.7c0-0.5-0.3-0.8-0.9-1.1
				v1.9C38.4,617.5,38.8,617.2,38.8,616.7z"/>
		</g>
	</g>
</g>
</svg>
