<?xml version="1.0" encoding="utf-8"?>
<!-- Generator: Adobe Illustrator 18.0.0, SVG Export Plug-In . SVG Version: 6.00 Build 0)  -->
<!DOCTYPE svg PUBLIC "-//W3C//DTD SVG 1.1//EN" "http://www.w3.org/Graphics/SVG/1.1/DTD/svg11.dtd">
<svg version="1.1" id="Layer_1" xmlns="http://www.w3.org/2000/svg" xmlns:xlink="http://www.w3.org/1999/xlink" x="0px" y="0px"
	 width="277.9px" height="792px" viewBox="0 0 277.9 792" enable-background="new 0 0 277.9 792" xml:space="preserve">
<g id="Layer_1_1_">
	<g>
		
			<linearGradient id="SVGID_1_" gradientUnits="userSpaceOnUse" x1="216.3134" y1="2587.1807" x2="107.329" y2="2519.5212" gradientTransform="matrix(0.227 0 0 0.227 4.653931e-02 -7.038116e-04)">
			<stop  offset="0" style="stop-color:#666666"/>
			<stop  offset="0.1397" style="stop-color:#6E6E6E;stop-opacity:0.8603"/>
			<stop  offset="0.3598" style="stop-color:#858585;stop-opacity:0.6402"/>
			<stop  offset="0.6326" style="stop-color:#AAAAAA;stop-opacity:0.3674"/>
			<stop  offset="0.9449" style="stop-color:#DCDCDC;stop-opacity:5.507749e-02"/>
			<stop  offset="1" style="stop-color:#E6E6E6;stop-opacity:0"/>
		</linearGradient>
		<path fill="url(#SVGID_1_)" d="M49.7,588.7c0,0-25.1-5-28.5-5.4s-3.5-5.6,6.8-9.7c7.6-3,14.1-1.3,16.5-0.6c3.1,0.9,13,5.8,13,5.8
			L49.7,588.7z"/>
		<g>
			<path fill="#939393" stroke="#000000" stroke-miterlimit="10" d="M42.9,571.1c0,0,14.7,3.6,21.8-1.2l-3.4,16.5l-5,2.7h-4.8
				l-3.9-1.1l-2.1-2.5L42.9,571.1z"/>
			<path fill="#231F20" d="M53.4,589.4c-4.4,0-8-2.2-8.6-4.3l0,0L42,569.3h22.7L62,585.1c-0.2,1-1.3,2.1-2.8,2.9
				C57.5,588.9,55.4,589.4,53.4,589.4z M46.1,584.7c0.4,1.2,3.1,3.3,7.3,3.3s7-2.2,7.3-3.3l2.5-14.3H43.6L46.1,584.7z"/>
		</g>
		<g>
			<ellipse fill="#CCCCCC" cx="53.4" cy="567.5" rx="11.3" ry="4.1"/>
			<path fill="#231F20" d="M53.4,572.2c-5.8,0-12-1.7-12-4.7c0-3.1,6.2-4.7,12-4.7s12,1.7,12,4.7C65.3,570.6,59.2,572.2,53.4,572.2z
				 M53.4,564.1c-3,0-5.7,0.4-7.8,1.2c-1.8,0.7-2.9,1.5-2.9,2.3s1.1,1.6,2.9,2.3c2.1,0.7,4.8,1.2,7.8,1.2s5.7-0.4,7.8-1.2
				c1.8-0.7,2.9-1.5,2.9-2.3s-1.1-1.6-2.9-2.3C59.1,564.5,56.3,564.1,53.4,564.1z"/>
		</g>
		<g>
			<path fill="#231F20" d="M47.5,585.1c-0.3,0-0.5-0.2-0.5-0.5l-1.5-10.1c0-0.3,0.2-0.6,0.5-0.6s0.6,0.2,0.6,0.5l1.5,10.1
				C48.2,584.7,48,585,47.5,585.1C47.6,585.1,47.6,585.1,47.5,585.1z"/>
		</g>
		<g>
			<path fill="#231F20" d="M50.1,586.3c-0.3,0-0.5-0.2-0.6-0.5l-0.9-10.6c0-0.3,0.2-0.6,0.5-0.6s0.6,0.2,0.6,0.5l0.9,10.6
				C50.7,586,50.5,586.2,50.1,586.3C50.2,586.3,50.2,586.3,50.1,586.3z"/>
		</g>
		<g>
			<path fill="#231F20" d="M56.8,586.8L56.8,586.8c-0.3-0.2-0.6-0.3-0.6-0.6l0.2-10.6c0-0.3,0.2-0.6,0.6-0.6l0,0
				c0.3,0,0.5,0.2,0.5,0.5l-0.2,10.6C57.4,586.5,57.1,586.8,56.8,586.8z"/>
		</g>
		<g>
			<path fill="#231F20" d="M59.6,584.8L59.6,584.8c-0.4,0-0.6-0.3-0.5-0.6l0.8-9.4c0-0.3,0.3-0.5,0.6-0.5s0.5,0.3,0.5,0.6l-0.8,9.4
				C60.1,584.6,59.9,584.8,59.6,584.8z"/>
		</g>
		
			<linearGradient id="SVGID_2_" gradientUnits="userSpaceOnUse" x1="229.5643" y1="2494.9023" x2="219.4339" y2="2487.7837" gradientTransform="matrix(0.227 0 0 0.227 4.653931e-02 -7.038116e-04)">
			<stop  offset="0" style="stop-color:#666666"/>
			<stop  offset="0.1834" style="stop-color:#787878;stop-opacity:0.8166"/>
			<stop  offset="0.5501" style="stop-color:#A6A6A6;stop-opacity:0.4499"/>
			<stop  offset="1" style="stop-color:#E6E6E6;stop-opacity:0"/>
		</linearGradient>
		<path fill="url(#SVGID_2_)" d="M51.7,568.4c0,0-2.8-0.5-3-0.9s0.7-1.7,1.5-1.7c0.8-0.1,4.2-0.4,5.4-0.1c1.2,0.3,1.2,0.3,1.2,0.3
			s-5.2,0.4-6.1,0.7C49.1,567,51.7,568.4,51.7,568.4z"/>
		<g>
			<path fill="#CCCCCC" d="M50.5,567.8l1.2,0.3c0,0,1.8-1.4,3-1.8c1.2-0.4,2.3-0.3,2.3-0.3l-1.5-0.4c0,0-2.1-0.4-3.3,0.2
				S50.5,567.8,50.5,567.8z"/>
			<path fill="#231F20" d="M51.7,568.5L51.7,568.5l-1.3-0.4c-0.1,0-0.2-0.1-0.2-0.2c0-0.1,0-0.2,0-0.3s0.6-1.5,1.8-2.2
				c1.2-0.6,3.5-0.2,3.5-0.2l1.5,0.4c0.2,0,0.3,0.2,0.3,0.4s-0.2,0.3-0.4,0.3c0,0-1.1-0.1-2.2,0.3c-1.1,0.4-2.8,1.8-2.8,1.8
				C51.9,568.5,51.8,568.5,51.7,568.5z M51.1,567.6l0.6,0.2c0.5-0.3,1.9-1.4,2.9-1.8c0.1,0,0.1,0,0.2-0.1c-0.7-0.1-1.7-0.1-2.4,0.2
				C51.7,566.5,51.3,567.2,51.1,567.6z"/>
		</g>
		<path fill="#B3B3B3" d="M60.6,572.7c0,0-3.4,0.9-8.1,0.9s-9.2-2-9.2-2l2.1,13.3c0,0,0.7,1.7,2.5,2.5c1.8,0.7,5.1,1.3,5.1,1.3
			s-2-1.5-2.3-5.7c-0.2-4.2,1.2-7,2.9-7.5S60.2,574.1,60.6,572.7z"/>
		<g>
			<path d="M53.2,586v-0.7c-1-0.2-1.6-0.7-1.8-2h1.1c0,0.4,0.2,1,0.6,1v-2.2c-1.3-0.7-1.9-1.4-2-2.6c-0.1-1.4,0.6-2.5,1.9-2.7V576
				h0.9v0.8c1.4,0.2,2.1,1.4,2,2.8h-1.3c0-0.7-0.3-1.1-0.7-1.2v2.3c1.3,0.6,2.1,1.2,2,2.7c-0.1,1.1-0.9,1.8-2,1.8v0.7L53.2,586
				L53.2,586z M53,578.5c-0.4,0.1-0.6,0.4-0.6,0.9c0,0.4,0.2,0.7,0.6,1V578.5z M54.7,583.5c0-0.5-0.3-0.8-0.9-1.1v1.9
				C54.3,584.3,54.7,584,54.7,583.5z"/>
		</g>
	</g>
</g>
</svg>
