<?xml version="1.0" encoding="utf-8"?>
<!-- Generator: Adobe Illustrator 18.0.0, SVG Export Plug-In . SVG Version: 6.00 Build 0)  -->
<!DOCTYPE svg PUBLIC "-//W3C//DTD SVG 1.1//EN" "http://www.w3.org/Graphics/SVG/1.1/DTD/svg11.dtd">
<svg version="1.1" id="Layer_1" xmlns="http://www.w3.org/2000/svg" xmlns:xlink="http://www.w3.org/1999/xlink" x="0px" y="0px"
	 width="46px" height="19.1px" viewBox="115 176.1 46 19.1" enable-background="new 115 176.1 46 19.1" xml:space="preserve">
<g display="none">
	<g id="transportation_top" display="inline">
		<g>
			<path fill="#EC1C24" d="M104.5,302.1h-1.8v6.8h-1.6v-6.8h-1.8v-1.2h5.2C104.5,300.9,104.5,302.1,104.5,302.1z"/>
			<path fill="#EC1C24" d="M106.8,305.7v3.2h-1.6v-8.1h2.6c0.8,0,1.4,0.2,1.9,0.6s0.7,1,0.7,1.7c0,0.4-0.1,0.8-0.3,1.1
				c-0.2,0.3-0.5,0.5-0.8,0.7c0.4,0.1,0.7,0.4,0.9,0.7c0.2,0.3,0.3,0.7,0.3,1.2v0.6c0,0.2,0,0.5,0.1,0.7c0,0.2,0.1,0.4,0.3,0.5v0.1
				h-1.6c-0.1-0.1-0.2-0.3-0.2-0.6c0-0.3,0-0.5,0-0.8V307c0-0.4-0.1-0.7-0.2-0.9c-0.2-0.2-0.4-0.3-0.7-0.3h-1.4
				C106.8,305.8,106.8,305.7,106.8,305.7z M106.8,304.5h1c0.3,0,0.6-0.1,0.7-0.3c0.2-0.2,0.2-0.5,0.2-0.8s-0.1-0.7-0.2-0.9
				c-0.2-0.2-0.4-0.3-0.7-0.3h-1.1L106.8,304.5L106.8,304.5z"/>
			<path fill="#EC1C24" d="M115.3,307.2h-2.1l-0.4,1.7h-1.6l2.3-8.1h1.6l2.3,8.1h-1.6L115.3,307.2z M113.5,305.9h1.5l-0.7-2.9l0,0
				L113.5,305.9z"/>
			<path fill="#EC1C24" d="M123.6,308.9H122l-2.5-5.2l0,0v5.2H118v-8.1h1.6l2.5,5.2l0,0v-5.2h1.6L123.6,308.9L123.6,308.9z"/>
			<path fill="#EC1C24" d="M128.4,306.8c0-0.3-0.1-0.6-0.2-0.7c-0.2-0.2-0.5-0.4-0.9-0.5c-0.8-0.3-1.5-0.6-1.9-1s-0.6-0.9-0.6-1.6
				s0.2-1.2,0.7-1.6s1.1-0.6,1.9-0.6s1.4,0.2,1.9,0.7s0.7,1,0.7,1.7l0,0h-1.5c0-0.4-0.1-0.7-0.3-0.9s-0.5-0.3-0.8-0.3
				s-0.6,0.1-0.7,0.3c-0.2,0.2-0.3,0.4-0.3,0.7s0.1,0.5,0.3,0.7c0.2,0.2,0.5,0.4,1,0.6c0.8,0.2,1.3,0.6,1.7,1s0.6,0.9,0.6,1.6
				s-0.2,1.2-0.7,1.6s-1.1,0.6-1.9,0.6c-0.8,0-1.4-0.2-2-0.7s-0.8-1.1-0.8-1.9l0,0h1.5c0,0.5,0.1,0.9,0.3,1.1c0.2,0.2,0.5,0.3,1,0.3
				c0.3,0,0.6-0.1,0.7-0.3C128.2,307.4,128.4,307.1,128.4,306.8z"/>
			<path fill="#EC1C24" d="M132.6,306v2.9H131v-8.1h2.8c0.8,0,1.4,0.2,1.9,0.7s0.7,1.1,0.7,1.9s-0.2,1.4-0.7,1.9s-1.1,0.7-1.9,0.7
				H132.6z M132.6,304.7h1.2c0.3,0,0.6-0.1,0.8-0.4s0.3-0.6,0.3-1s-0.1-0.7-0.3-1c-0.2-0.2-0.4-0.4-0.8-0.4h-1.2V304.7z"/>
			<path fill="#EC1C24" d="M142.8,306c0,1-0.2,1.7-0.8,2.2c-0.5,0.5-1.2,0.8-2,0.8c-0.9,0-1.5-0.3-2-0.8s-0.8-1.3-0.8-2.2v-2.3
				c0-1,0.2-1.7,0.8-2.2s1.2-0.8,2-0.8s1.5,0.3,2,0.8s0.8,1.3,0.8,2.2V306z M141.3,303.7c0-0.6-0.1-1-0.3-1.3s-0.5-0.4-0.9-0.4
				s-0.7,0.1-0.9,0.4s-0.3,0.7-0.3,1.3v2.3c0,0.6,0.1,1,0.3,1.3s0.5,0.4,0.9,0.4s0.7-0.1,0.9-0.4s0.3-0.7,0.3-1.3V303.7z"/>
			<path fill="#EC1C24" d="M145.5,305.7v3.2h-1.6v-8.1h2.6c0.8,0,1.4,0.2,1.9,0.6s0.7,1,0.7,1.7c0,0.4-0.1,0.8-0.3,1.1
				c-0.2,0.3-0.5,0.5-0.8,0.7c0.4,0.1,0.7,0.4,0.9,0.7c0.2,0.3,0.3,0.7,0.3,1.2v0.6c0,0.2,0,0.5,0.1,0.7c0,0.2,0.1,0.4,0.3,0.5v0.1
				H148c-0.1-0.1-0.2-0.3-0.2-0.6c0-0.2,0-0.5,0-0.8V307c0-0.4-0.1-0.7-0.2-0.9c-0.2-0.2-0.4-0.3-0.7-0.3h-1.4L145.5,305.7
				L145.5,305.7z M145.5,304.5h1c0.3,0,0.6-0.1,0.7-0.3c0.2-0.2,0.2-0.5,0.2-0.8s-0.1-0.7-0.2-0.9c-0.2-0.2-0.4-0.3-0.7-0.3h-1.1
				L145.5,304.5L145.5,304.5z"/>
			<path fill="#EC1C24" d="M154.6,302.1h-1.8v6.8h-1.6v-6.8h-1.8v-1.2h5.2L154.6,302.1L154.6,302.1z"/>
			<path fill="#EC1C24" d="M158.6,307.2h-2.1l-0.4,1.7h-1.6l2.3-8.1h1.6l2.3,8.1H159L158.6,307.2z M156.8,305.9h1.5l-0.7-2.9l0,0
				L156.8,305.9z"/>
			<path fill="#EC1C24" d="M165.2,302.1h-1.8v6.8h-1.6v-6.8H160v-1.2h5.2V302.1z"/>
			<path fill="#EC1C24" d="M167.7,308.9h-1.6v-8.1h1.6V308.9z"/>
			<path fill="#EC1C24" d="M174.4,306c0,1-0.2,1.7-0.8,2.2c-0.5,0.5-1.2,0.8-2,0.8s-1.5-0.3-2-0.8s-0.8-1.3-0.8-2.2v-2.3
				c0-1,0.2-1.7,0.8-2.2s1.2-0.8,2-0.8s1.5,0.3,2,0.8s0.8,1.3,0.8,2.2V306z M172.9,303.7c0-0.6-0.1-1-0.3-1.3s-0.5-0.4-0.9-0.4
				s-0.7,0.1-0.9,0.4s-0.3,0.7-0.3,1.3v2.3c0,0.6,0.1,1,0.3,1.3s0.5,0.4,0.9,0.4s0.7-0.1,0.9-0.4s0.3-0.7,0.3-1.3V303.7z"/>
			<path fill="#EC1C24" d="M181.1,308.9h-1.6l-2.5-5.2l0,0v5.2h-1.6v-8.1h1.6l2.5,5.2l0,0v-5.2h1.6V308.9z"/>
		</g>
	</g>
	<g id="labour" display="inline">
		<g>
			<path fill="#EC1C24" d="M128.6,383.4h3v1.2h-4.5v-8.1h1.6L128.6,383.4L128.6,383.4z"/>
			<path fill="#EC1C24" d="M136.1,383H134l-0.4,1.7H132l2.3-8.1h1.6l2.3,8.1h-1.6L136.1,383z M134.3,381.7h1.5l-0.7-2.9l0,0
				L134.3,381.7z"/>
			<path fill="#EC1C24" d="M138.8,384.7v-8.1h2.4c0.8,0,1.5,0.2,2,0.5c0.5,0.4,0.7,0.9,0.7,1.7c0,0.4-0.1,0.7-0.2,1
				s-0.4,0.5-0.8,0.7c0.4,0.1,0.7,0.3,1,0.7c0.2,0.3,0.3,0.7,0.3,1.2c0,0.8-0.2,1.4-0.7,1.7c-0.5,0.3-1.1,0.6-1.9,0.6L138.8,384.7
				L138.8,384.7z M140.3,380h0.9c0.3,0,0.6-0.1,0.7-0.3c0.1-0.2,0.2-0.4,0.2-0.8s-0.1-0.7-0.3-0.8s-0.5-0.3-0.8-0.3h-0.8L140.3,380
				L140.3,380z M140.3,381.1v2.3h1.1c0.3,0,0.6-0.1,0.7-0.3c0.2-0.2,0.2-0.5,0.2-0.8c0-0.4-0.1-0.7-0.2-0.9
				c-0.1-0.2-0.4-0.3-0.7-0.3L140.3,381.1L140.3,381.1z"/>
			<path fill="#EC1C24" d="M150.5,381.8c0,1-0.2,1.7-0.8,2.2c-0.5,0.5-1.2,0.8-2,0.8s-1.5-0.3-2-0.8s-0.8-1.3-0.8-2.2v-2.3
				c0-1,0.2-1.7,0.8-2.2c0.5-0.5,1.2-0.8,2-0.8s1.5,0.3,2,0.8s0.8,1.3,0.8,2.2V381.8z M148.9,379.5c0-0.6-0.1-1-0.3-1.3
				s-0.5-0.4-0.9-0.4s-0.7,0.1-0.9,0.4s-0.3,0.7-0.3,1.3v2.3c0,0.6,0.1,1,0.3,1.3s0.5,0.4,0.9,0.4s0.7-0.1,0.9-0.4s0.3-0.7,0.3-1.3
				V379.5z"/>
			<path fill="#EC1C24" d="M156.9,376.6v5.5c0,0.9-0.2,1.5-0.7,2s-1.2,0.7-2,0.7s-1.5-0.2-2-0.7s-0.7-1.1-0.7-2v-5.5h1.6v5.5
				c0,0.5,0.1,0.9,0.3,1.1s0.5,0.3,0.9,0.3s0.7-0.1,0.9-0.3s0.3-0.6,0.3-1.1v-5.5H156.9L156.9,376.6z"/>
			<path fill="#EC1C24" d="M159.6,381.5v3.2H158v-8.1h2.6c0.8,0,1.4,0.2,1.9,0.6s0.7,1,0.7,1.7c0,0.4-0.1,0.8-0.3,1.1
				c-0.2,0.3-0.5,0.5-0.8,0.7c0.4,0.1,0.7,0.4,0.9,0.7c0.2,0.3,0.3,0.7,0.3,1.2v0.6c0,0.2,0,0.5,0.1,0.7c0,0.2,0.1,0.4,0.3,0.5v0.1
				H162c-0.1-0.1-0.2-0.3-0.2-0.6c0-0.2,0-0.5,0-0.8v-0.5c0-0.4-0.1-0.7-0.2-0.9c-0.1-0.2-0.4-0.3-0.7-0.3L159.6,381.5L159.6,381.5z
				 M159.6,380.2h1c0.3,0,0.6-0.1,0.7-0.3c0.2-0.2,0.2-0.5,0.2-0.8c0-0.4-0.1-0.7-0.2-0.9c-0.2-0.2-0.4-0.3-0.7-0.3h-1V380.2z"/>
		</g>
	</g>
	<g id="time" display="inline">
		<g>
			<path fill="#EC1C24" d="M138.3,437.3h-1.8v6.8h-1.6v-6.8h-1.8V436h5.2L138.3,437.3L138.3,437.3z"/>
			<path fill="#EC1C24" d="M140.7,444.1h-1.6V436h1.6V444.1z"/>
			<path fill="#EC1C24" d="M144,436l1.5,5.9l0,0l1.5-5.9h2.1v8.1h-1.6v-2.3l0.1-3.1l0,0l-1.5,5.5h-1l-1.5-5.4l0,0l0.1,3.1v2.3H142
				V436H144L144,436z"/>
			<path fill="#EC1C24" d="M154.5,440.6h-2.7v2.3h3.2v1.2h-4.8V436h4.7v1.2h-3.2v2h2.7L154.5,440.6L154.5,440.6z"/>
		</g>
	</g>
</g>
<g display="none">
	<g id="transportation" display="inline">
		<g>
			<path fill="#EC1C24" d="M104.5,507.8h-1.8v6.8h-1.6v-6.8h-1.8v-1.2h5.2C104.5,506.6,104.5,507.8,104.5,507.8z"/>
			<path fill="#EC1C24" d="M106.8,511.4v3.2h-1.6v-8.1h2.6c0.8,0,1.4,0.2,1.9,0.6s0.7,1,0.7,1.7c0,0.4-0.1,0.8-0.3,1.1
				c-0.2,0.3-0.5,0.5-0.8,0.7c0.4,0.1,0.7,0.4,0.9,0.7c0.2,0.3,0.3,0.7,0.3,1.2v0.6c0,0.2,0,0.5,0.1,0.7c0,0.2,0.1,0.4,0.3,0.5v0.1
				h-1.6c-0.1-0.1-0.2-0.3-0.2-0.6s0-0.5,0-0.8v-0.5c0-0.4-0.1-0.7-0.2-0.9c-0.2-0.2-0.4-0.3-0.7-0.3L106.8,511.4L106.8,511.4z
				 M106.8,510.1h1c0.3,0,0.6-0.1,0.7-0.3c0.2-0.2,0.2-0.5,0.2-0.8c0-0.4-0.1-0.7-0.2-0.9c-0.2-0.2-0.4-0.3-0.7-0.3h-1.1
				L106.8,510.1L106.8,510.1z"/>
			<path fill="#EC1C24" d="M115.3,512.8h-2.1l-0.4,1.7h-1.6l2.3-8.1h1.6l2.3,8.1h-1.6L115.3,512.8z M113.5,511.6h1.5l-0.7-2.9l0,0
				L113.5,511.6z"/>
			<path fill="#EC1C24" d="M123.6,514.6H122l-2.5-5.2l0,0v5.2H118v-8.1h1.6l2.5,5.2l0,0v-5.2h1.6L123.6,514.6L123.6,514.6z"/>
			<path fill="#EC1C24" d="M128.4,512.5c0-0.3-0.1-0.6-0.2-0.7c-0.2-0.2-0.5-0.4-0.9-0.5c-0.8-0.3-1.5-0.6-1.9-1s-0.6-0.9-0.6-1.6
				s0.2-1.2,0.7-1.6s1.1-0.6,1.9-0.6s1.4,0.2,1.9,0.7s0.7,1,0.7,1.7l0,0h-1.5c0-0.4-0.1-0.7-0.3-0.9s-0.5-0.3-0.8-0.3
				s-0.6,0.1-0.7,0.3c-0.2,0.2-0.3,0.4-0.3,0.7s0.1,0.5,0.3,0.7c0.2,0.2,0.5,0.4,1,0.6c0.8,0.2,1.3,0.6,1.7,1s0.6,0.9,0.6,1.6
				s-0.2,1.2-0.7,1.6c-0.5,0.4-1.1,0.6-1.9,0.6c-0.8,0-1.4-0.2-2-0.7s-0.8-1.1-0.8-1.9l0,0h1.5c0,0.5,0.1,0.9,0.3,1.1
				c0.2,0.2,0.5,0.3,1,0.3c0.3,0,0.6-0.1,0.7-0.3C128.2,513.1,128.4,512.8,128.4,512.5z"/>
			<path fill="#EC1C24" d="M132.6,511.7v2.9H131v-8.1h2.8c0.8,0,1.4,0.2,1.9,0.7s0.7,1.1,0.7,1.9s-0.2,1.4-0.7,1.9s-1.1,0.7-1.9,0.7
				L132.6,511.7L132.6,511.7z M132.6,510.4h1.2c0.3,0,0.6-0.1,0.8-0.4s0.3-0.6,0.3-1s-0.1-0.7-0.3-1c-0.2-0.2-0.4-0.4-0.8-0.4h-1.2
				V510.4z"/>
			<path fill="#EC1C24" d="M142.8,511.7c0,1-0.2,1.7-0.8,2.2c-0.5,0.5-1.2,0.8-2,0.8c-0.9,0-1.5-0.3-2-0.8s-0.8-1.3-0.8-2.2v-2.3
				c0-1,0.2-1.7,0.8-2.2s1.2-0.8,2-0.8s1.5,0.3,2,0.8s0.8,1.3,0.8,2.2V511.7z M141.3,509.4c0-0.6-0.1-1-0.3-1.3s-0.5-0.4-0.9-0.4
				s-0.7,0.1-0.9,0.4s-0.3,0.7-0.3,1.3v2.3c0,0.6,0.1,1,0.3,1.3s0.5,0.4,0.9,0.4s0.7-0.1,0.9-0.4s0.3-0.7,0.3-1.3V509.4z"/>
			<path fill="#EC1C24" d="M145.5,511.4v3.2h-1.6v-8.1h2.6c0.8,0,1.4,0.2,1.9,0.6s0.7,1,0.7,1.7c0,0.4-0.1,0.8-0.3,1.1
				c-0.2,0.3-0.5,0.5-0.8,0.7c0.4,0.1,0.7,0.4,0.9,0.7s0.3,0.7,0.3,1.2v0.6c0,0.2,0,0.5,0.1,0.7c0,0.2,0.1,0.4,0.3,0.5v0.1H148
				c-0.1-0.1-0.2-0.3-0.2-0.6c0-0.2,0-0.5,0-0.8v-0.5c0-0.4-0.1-0.7-0.2-0.9c-0.2-0.2-0.4-0.3-0.7-0.3L145.5,511.4L145.5,511.4z
				 M145.5,510.1h1c0.3,0,0.6-0.1,0.7-0.3c0.2-0.2,0.2-0.5,0.2-0.8c0-0.4-0.1-0.7-0.2-0.9c-0.2-0.2-0.4-0.3-0.7-0.3h-1.1
				L145.5,510.1L145.5,510.1z"/>
			<path fill="#EC1C24" d="M154.6,507.8h-1.8v6.8h-1.6v-6.8h-1.8v-1.2h5.2L154.6,507.8L154.6,507.8z"/>
			<path fill="#EC1C24" d="M158.6,512.8h-2.1l-0.4,1.7h-1.6l2.3-8.1h1.6l2.3,8.1H159L158.6,512.8z M156.8,511.6h1.5l-0.7-2.9l0,0
				L156.8,511.6z"/>
			<path fill="#EC1C24" d="M165.2,507.8h-1.8v6.8h-1.6v-6.8H160v-1.2h5.2V507.8z"/>
			<path fill="#EC1C24" d="M167.7,514.6h-1.6v-8.1h1.6V514.6z"/>
			<path fill="#EC1C24" d="M174.4,511.7c0,1-0.2,1.7-0.8,2.2c-0.5,0.5-1.2,0.8-2,0.8s-1.5-0.3-2-0.8s-0.8-1.3-0.8-2.2v-2.3
				c0-1,0.2-1.7,0.8-2.2s1.2-0.8,2-0.8s1.5,0.3,2,0.8s0.8,1.3,0.8,2.2V511.7z M172.9,509.4c0-0.6-0.1-1-0.3-1.3s-0.5-0.4-0.9-0.4
				s-0.7,0.1-0.9,0.4s-0.3,0.7-0.3,1.3v2.3c0,0.6,0.1,1,0.3,1.3s0.5,0.4,0.9,0.4s0.7-0.1,0.9-0.4s0.3-0.7,0.3-1.3V509.4z"/>
			<path fill="#EC1C24" d="M181.1,514.6h-1.6l-2.5-5.2l0,0v5.2h-1.6v-8.1h1.6l2.5,5.2l0,0v-5.2h1.6V514.6z"/>
		</g>
	</g>
	<g id="disposal" display="inline">
		<g>
			<path fill="#EC1C24" d="M120.6,574.3v-8.1h2.4c0.8,0,1.5,0.3,2,0.9c0.5,0.6,0.8,1.4,0.8,2.4v1.4c0,1-0.3,1.8-0.8,2.4
				c-0.5,0.6-1.2,0.9-2,0.9L120.6,574.3L120.6,574.3z M122.2,567.5v5.6h0.8c0.4,0,0.8-0.2,1-0.6c0.2-0.4,0.4-0.9,0.4-1.5v-1.4
				c0-0.6-0.1-1.1-0.4-1.5c-0.2-0.4-0.6-0.6-1-0.6H122.2L122.2,567.5z"/>
			<path fill="#EC1C24" d="M128.7,574.3h-1.6v-8.1h1.6V574.3z"/>
			<path fill="#EC1C24" d="M133.5,572.2c0-0.3-0.1-0.6-0.2-0.7c-0.2-0.2-0.5-0.4-0.9-0.5c-0.8-0.3-1.5-0.6-1.9-1s-0.6-0.9-0.6-1.6
				c0-0.7,0.2-1.2,0.7-1.6c0.5-0.4,1.1-0.6,1.9-0.6c0.8,0,1.4,0.2,1.9,0.7s0.7,1,0.7,1.7l0,0h-1.5c0-0.4-0.1-0.7-0.3-0.9
				s-0.5-0.3-0.8-0.3s-0.6,0.1-0.7,0.3c-0.2,0.2-0.3,0.4-0.3,0.7s0.1,0.5,0.3,0.7s0.5,0.4,1,0.6c0.8,0.2,1.3,0.6,1.7,1
				s0.6,0.9,0.6,1.6c0,0.7-0.2,1.2-0.7,1.6c-0.5,0.4-1.1,0.6-1.9,0.6s-1.4-0.2-2-0.7s-0.8-1.1-0.8-1.9l0,0h1.5
				c0,0.5,0.1,0.9,0.3,1.1c0.2,0.2,0.5,0.3,1,0.3c0.3,0,0.6-0.1,0.7-0.3C133.5,572.7,133.5,572.5,133.5,572.2z"/>
			<path fill="#EC1C24" d="M137.7,571.4v2.9h-1.6v-8.1h2.8c0.8,0,1.4,0.2,1.9,0.7s0.7,1.1,0.7,1.9s-0.2,1.4-0.7,1.9
				s-1.1,0.7-1.9,0.7L137.7,571.4L137.7,571.4z M137.7,570.1h1.2c0.3,0,0.6-0.1,0.8-0.4c0.2-0.2,0.3-0.6,0.3-1s-0.1-0.7-0.3-1
				c-0.2-0.2-0.4-0.4-0.8-0.4h-1.2V570.1z"/>
			<path fill="#EC1C24" d="M147.9,571.4c0,1-0.2,1.7-0.8,2.2c-0.5,0.5-1.2,0.8-2,0.8s-1.5-0.3-2-0.8s-0.8-1.3-0.8-2.2v-2.3
				c0-1,0.2-1.7,0.8-2.2c0.5-0.5,1.2-0.8,2-0.8s1.5,0.3,2,0.8s0.8,1.3,0.8,2.2V571.4z M146.4,569.1c0-0.6-0.1-1-0.3-1.3
				s-0.5-0.4-0.9-0.4s-0.7,0.1-0.9,0.4c-0.2,0.3-0.3,0.7-0.3,1.3v2.3c0,0.6,0.1,1,0.3,1.3s0.5,0.4,0.9,0.4s0.7-0.1,0.9-0.4
				c0.2-0.3,0.3-0.7,0.3-1.3V569.1z"/>
			<path fill="#EC1C24" d="M152.6,572.2c0-0.3-0.1-0.6-0.2-0.7c-0.2-0.2-0.5-0.4-0.9-0.5c-0.8-0.3-1.5-0.6-1.9-1s-0.6-0.9-0.6-1.6
				c0-0.7,0.2-1.2,0.7-1.6c0.5-0.4,1.1-0.6,1.9-0.6c0.8,0,1.4,0.2,1.9,0.7s0.7,1,0.7,1.7l0,0h-1.5c0-0.4-0.1-0.7-0.3-0.9
				s-0.5-0.3-0.8-0.3s-0.6,0.1-0.7,0.3c-0.2,0.2-0.3,0.4-0.3,0.7s0.1,0.5,0.3,0.7s0.5,0.4,1,0.6c0.8,0.2,1.3,0.6,1.7,1
				s0.6,0.9,0.6,1.6c0,0.7-0.2,1.2-0.7,1.6c-0.5,0.4-1.1,0.6-1.9,0.6c-0.8,0-1.4-0.2-2-0.7s-0.8-1.1-0.8-1.9l0,0h1.5
				c0,0.5,0.1,0.9,0.3,1.1c0.2,0.2,0.5,0.3,1,0.3c0.3,0,0.6-0.1,0.7-0.3C152.5,572.7,152.6,572.5,152.6,572.2z"/>
			<path fill="#EC1C24" d="M158.8,572.6h-2.1l-0.4,1.7h-1.6l2.3-8.1h1.6l2.3,8.1h-1.6L158.8,572.6z M156.9,571.3h1.5l-0.7-2.9l0,0
				L156.9,571.3z"/>
			<path fill="#EC1C24" d="M163,573h3v1.2h-4.5v-8.1h1.6L163,573L163,573z"/>
		</g>
	</g>
</g>
<g>
	<g id="material_costs">
		<g>
			<path fill="#EC1C24" d="M117.3,176.6l1.5,5.9l0,0l1.5-5.9h2.1v8.1h-1.6v-2.3l0.1-3.1l0,0l-1.5,5.5h-1l-1.5-5.4l0,0l0.1,3.1v2.3
				h-1.6v-8.1h1.9V176.6z"/>
			<path fill="#EC1C24" d="M127.2,182.9H125l-0.4,1.7H123l2.3-8.1h1.6l2.3,8.1h-1.6L127.2,182.9z M125.4,181.6h1.5l-0.7-2.9l0,0
				L125.4,181.6z"/>
			<path fill="#EC1C24" d="M133.9,177.8H132v6.8h-1.6v-6.8h-1.8v-1.2h5.2v1.2H133.9z"/>
			<path fill="#EC1C24" d="M138.9,181.1h-2.7v2.3h3.2v1.2h-4.8v-8.1h4.7v1.2h-3.2v2h2.7L138.9,181.1L138.9,181.1z"/>
			<path fill="#EC1C24" d="M141.8,181.4v3.2h-1.6v-8.1h2.6c0.8,0,1.4,0.2,1.9,0.6c0.5,0.4,0.7,1,0.7,1.7c0,0.4-0.1,0.8-0.3,1.1
				s-0.5,0.5-0.8,0.7c0.4,0.1,0.7,0.4,0.9,0.7s0.3,0.7,0.3,1.2v0.6c0,0.2,0,0.5,0.1,0.7c0,0.2,0.1,0.4,0.3,0.5v0.1h-1.6
				c-0.1-0.1-0.2-0.3-0.2-0.6c0-0.2,0-0.5,0-0.8v-0.5c0-0.4-0.1-0.7-0.2-0.9c-0.2-0.2-0.4-0.3-0.7-0.3h-1.4V181.4z M141.8,180.2h1
				c0.3,0,0.6-0.1,0.7-0.3c0.2-0.2,0.2-0.5,0.2-0.8c0-0.4-0.1-0.7-0.2-0.9c-0.2-0.2-0.4-0.3-0.7-0.3h-1.1L141.8,180.2L141.8,180.2z"
				/>
			<path fill="#EC1C24" d="M148.3,184.6h-1.6v-8.1h1.6V184.6z"/>
			<path fill="#EC1C24" d="M153.3,182.9h-2.1l-0.4,1.7h-1.6l2.3-8.1h1.6l2.3,8.1h-1.6L153.3,182.9z M151.5,181.6h1.5l-0.7-2.9l0,0
				L151.5,181.6z"/>
			<path fill="#EC1C24" d="M157.6,183.4h3v1.2H156v-8.1h1.6V183.4z"/>
			<path fill="#EC1C24" d="M128.2,192L128.2,192c0,0.9-0.2,1.6-0.6,2c-0.4,0.5-1.1,0.7-1.9,0.7s-1.5-0.2-2-0.8
				c-0.5-0.5-0.7-1.2-0.7-2.2v-2.4c0-0.9,0.2-1.7,0.7-2.2s1.1-0.8,1.9-0.8c0.9,0,1.5,0.2,2,0.7c0.4,0.5,0.7,1.1,0.7,2l0,0h-1.5
				c0-0.5,0-0.9-0.2-1.1c-0.2-0.2-0.5-0.3-0.9-0.3s-0.6,0.1-0.8,0.4c-0.2,0.3-0.3,0.7-0.3,1.2v2.4c0,0.6,0.1,1,0.3,1.3
				c0.2,0.3,0.5,0.4,0.9,0.4s0.6-0.1,0.8-0.3c0.2-0.2,0.2-0.6,0.2-1.1L128.2,192L128.2,192z"/>
			<path fill="#EC1C24" d="M134.6,191.7c0,1-0.2,1.7-0.8,2.2c-0.5,0.5-1.2,0.8-2,0.8s-1.5-0.3-2-0.8s-0.8-1.3-0.8-2.2v-2.3
				c0-1,0.2-1.7,0.8-2.2c0.5-0.5,1.2-0.8,2-0.8s1.5,0.3,2,0.8s0.8,1.3,0.8,2.2V191.7z M133.1,189.4c0-0.6-0.1-1-0.3-1.3
				s-0.5-0.4-0.9-0.4s-0.7,0.1-0.9,0.4c-0.2,0.3-0.3,0.7-0.3,1.3v2.3c0,0.6,0.1,1,0.3,1.3s0.5,0.4,0.9,0.4s0.7-0.1,0.9-0.4
				c0.2-0.3,0.3-0.7,0.3-1.3V189.4z"/>
			<path fill="#EC1C24" d="M139.3,192.5c0-0.3-0.1-0.6-0.2-0.7c-0.2-0.2-0.5-0.4-0.9-0.5c-0.8-0.3-1.5-0.6-1.9-1s-0.6-0.9-0.6-1.6
				c0-0.7,0.2-1.2,0.7-1.6c0.5-0.4,1.1-0.6,1.9-0.6c0.8,0,1.4,0.2,1.9,0.7s0.7,1,0.7,1.7l0,0h-1.5c0-0.4-0.1-0.7-0.3-0.9
				s-0.5-0.3-0.8-0.3s-0.6,0.1-0.7,0.3c-0.2,0.2-0.3,0.4-0.3,0.7s0.1,0.5,0.3,0.7s0.5,0.4,1,0.6c0.8,0.2,1.3,0.6,1.7,1
				s0.6,0.9,0.6,1.6c0,0.7-0.2,1.2-0.7,1.6c-0.5,0.4-1.1,0.6-1.9,0.6s-1.4-0.2-2-0.7s-0.8-1.1-0.8-1.9l0,0h1.5
				c0,0.5,0.1,0.9,0.3,1.1c0.2,0.2,0.5,0.3,1,0.3c0.3,0,0.6-0.1,0.7-0.3C139.2,193,139.3,192.8,139.3,192.5z"/>
			<path fill="#EC1C24" d="M146.6,187.8h-1.8v6.8h-1.6v-6.8h-1.8v-1.2h5.2L146.6,187.8L146.6,187.8z"/>
			<path fill="#EC1C24" d="M150.8,192.5c0-0.3-0.1-0.6-0.2-0.7c-0.2-0.2-0.5-0.4-0.9-0.5c-0.8-0.3-1.5-0.6-1.9-1s-0.6-0.9-0.6-1.6
				c0-0.7,0.2-1.2,0.7-1.6c0.5-0.4,1.1-0.6,1.9-0.6c0.8,0,1.4,0.2,1.9,0.7s0.7,1,0.7,1.7l0,0h-1.5c0-0.4-0.1-0.7-0.3-0.9
				s-0.5-0.3-0.8-0.3s-0.6,0.1-0.7,0.3c-0.2,0.2-0.3,0.4-0.3,0.7s0.1,0.5,0.3,0.7s0.5,0.4,1,0.6c0.8,0.2,1.3,0.6,1.7,1
				s0.6,0.9,0.6,1.6c0,0.7-0.2,1.2-0.7,1.6c-0.5,0.4-1.1,0.6-1.9,0.6s-1.4-0.2-2-0.7s-0.8-1.1-0.8-1.9l0,0h1.5
				c0,0.5,0.1,0.9,0.3,1.1c0.2,0.2,0.5,0.3,1,0.3c0.3,0,0.6-0.1,0.7-0.3S150.8,192.8,150.8,192.5z"/>
		</g>
	</g>
	<g id="warehousing" display="none">
		<g display="inline">
			<path fill="#EC1C24" d="M112,218.3L112,218.3l0.9-5.2h1.5l-1.6,8.1h-1.5l-1.1-4.9l0,0l-1.1,4.9h-1.5l-1.6-8.1h1.5l0.9,5.2l0,0
				l1.2-5.2h1.1L112,218.3z"/>
			<path fill="#EC1C24" d="M118.5,219.5h-2.1l-0.4,1.7h-1.6l2.3-8.1h1.6l2.3,8.1H119L118.5,219.5z M116.7,218.2h1.5l-0.7-2.9l0,0
				L116.7,218.2z"/>
			<path fill="#EC1C24" d="M122.8,218v3.2h-1.6v-8.1h2.6c0.8,0,1.4,0.2,1.9,0.6c0.5,0.4,0.7,1,0.7,1.7c0,0.4-0.1,0.8-0.3,1.1
				c-0.2,0.3-0.5,0.5-0.8,0.7c0.4,0.1,0.7,0.4,0.9,0.7c0.2,0.3,0.3,0.7,0.3,1.2v0.6c0,0.2,0,0.5,0.1,0.7s0.1,0.4,0.3,0.5v0.1h-1.6
				c-0.1-0.1-0.2-0.3-0.2-0.6s0-0.5,0-0.8v-0.5c0-0.4-0.1-0.7-0.2-0.9c-0.2-0.2-0.4-0.3-0.7-0.3h-1.4
				C122.8,217.9,122.8,218,122.8,218z M122.8,216.7h1c0.3,0,0.6-0.1,0.7-0.3c0.2-0.2,0.2-0.5,0.2-0.8c0-0.4-0.1-0.7-0.2-0.9
				c-0.2-0.2-0.4-0.3-0.7-0.3h-1.1L122.8,216.7L122.8,216.7z"/>
			<path fill="#EC1C24" d="M131.9,217.7h-2.7v2.3h3.2v1.2h-4.8v-8.1h4.8v1.2h-3.2v2h2.7V217.7z"/>
			<path fill="#EC1C24" d="M138.8,221.2h-1.6v-3.3h-2.5v3.3h-1.6v-8.1h1.6v3.5h2.5v-3.5h1.6V221.2z"/>
			<path fill="#EC1C24" d="M145.5,218.3c0,1-0.2,1.7-0.8,2.2c-0.5,0.5-1.2,0.8-2,0.8s-1.5-0.3-2-0.8s-0.8-1.3-0.8-2.2V216
				c0-1,0.2-1.7,0.8-2.2c0.5-0.5,1.2-0.8,2-0.8s1.5,0.3,2,0.8s0.8,1.3,0.8,2.2V218.3z M144,216c0-0.6-0.1-1-0.3-1.3
				s-0.5-0.4-0.9-0.4s-0.7,0.1-0.9,0.4c-0.2,0.3-0.3,0.7-0.3,1.3v2.3c0,0.6,0.1,1,0.3,1.3s0.5,0.4,0.9,0.4s0.7-0.1,0.9-0.4
				c0.2-0.3,0.3-0.7,0.3-1.3V216z"/>
			<path fill="#EC1C24" d="M151.9,213.1v5.5c0,0.9-0.2,1.5-0.7,2s-1.2,0.7-2,0.7s-1.5-0.2-2-0.7s-0.7-1.1-0.7-2v-5.5h1.6v5.5
				c0,0.5,0.1,0.9,0.3,1.1c0.2,0.2,0.5,0.3,0.9,0.3s0.7-0.1,0.9-0.3s0.3-0.6,0.3-1.1v-5.5H151.9L151.9,213.1z"/>
			<path fill="#EC1C24" d="M156.6,219.1c0-0.3-0.1-0.6-0.2-0.7s-0.5-0.4-0.9-0.5c-0.8-0.3-1.5-0.6-1.9-1s-0.6-0.9-0.6-1.6
				c0-0.7,0.2-1.2,0.7-1.6c0.5-0.4,1.1-0.6,1.9-0.6c0.8,0,1.4,0.2,1.9,0.7s0.7,1,0.7,1.7l0,0h-1.5c0-0.4-0.1-0.7-0.3-0.9
				s-0.5-0.3-0.8-0.3s-0.6,0.1-0.7,0.3c-0.2,0.2-0.3,0.4-0.3,0.7s0.1,0.5,0.3,0.7s0.5,0.4,1,0.6c0.8,0.2,1.3,0.6,1.7,1
				s0.6,0.9,0.6,1.6c0,0.7-0.2,1.2-0.7,1.6c-0.5,0.4-1.1,0.6-1.9,0.6s-1.4-0.2-2-0.7s-0.8-1.1-0.8-1.9l0,0h1.5
				c0,0.5,0.1,0.9,0.3,1.1c0.2,0.2,0.5,0.3,1,0.3c0.3,0,0.6-0.1,0.7-0.3S156.6,219.4,156.6,219.1z"/>
			<path fill="#EC1C24" d="M160.8,221.2h-1.6v-8.1h1.6V221.2z"/>
			<path fill="#EC1C24" d="M167.8,221.2h-1.6l-2.5-5.2l0,0v5.2h-1.6v-8.1h1.6l2.5,5.2l0,0v-5.2h1.6V221.2z"/>
			<path fill="#EC1C24" d="M174.4,220c-0.2,0.3-0.5,0.7-1,0.9c-0.4,0.3-1,0.4-1.7,0.4c-0.9,0-1.6-0.2-2.1-0.7s-0.8-1.2-0.8-2.2v-2.5
				c0-0.9,0.2-1.7,0.7-2.2s1.2-0.8,2-0.8c0.9,0,1.6,0.2,2,0.7s0.7,1.1,0.7,1.9l0,0h-1.5c0-0.5-0.1-0.8-0.3-1s-0.5-0.3-0.9-0.3
				s-0.7,0.1-0.9,0.4c-0.2,0.3-0.3,0.7-0.3,1.2v2.5c0,0.6,0.1,1,0.3,1.2c0.2,0.3,0.5,0.4,1,0.4c0.3,0,0.5,0,0.7-0.1s0.3-0.2,0.4-0.4
				v-1.5h-1.1V217h2.6v3H174.4z"/>
		</g>
	</g>
</g>
</svg>
